<svg version="1.1" id="Layer_1" xmlns="http://www.w3.org/2000/svg" xmlns:xlink="http://www.w3.org/1999/xlink" x="0px" y="0px"
	 viewBox="0 0 24 24" style="enable-background:new 0 0 24 24;" xml:space="preserve">
<path class="aw-theme-iconOutline" fill="#464646" d="M0,1v23h23V1H0z M22,2v4H1V2H22z M1,23V7h21v16H1z"/>
<path class="aw-theme-iconOutline" fill="#464646" d="M17.946,11.756l-5.711-3.436c-0.086-0.058-0.199-0.058-0.286,0l-5.778,3.436
	C6.07,11.785,6,11.879,6,11.984v6.292c0.001,0.09,0.043,0.174,0.114,0.228l5.711,3.436c0.057,0,0.114,0.057,0.171,0.057
	c0.063,0.008,0.126-0.013,0.171-0.057l5.711-3.436c0.081-0.046,0.126-0.136,0.114-0.228v-6.292
	C18.01,11.905,17.993,11.822,17.946,11.756z M12.092,9.148l4.76,2.856l-4.76,2.856l-4.76-2.856L12.092,9.148z M6.819,12.603
	l4.95,2.979v5.359l-4.95-2.951V12.603z M12.53,20.847v-5.397l4.76-2.856v5.397L12.53,20.847z"/>
</svg>
