<svg id="Image" xmlns="http://www.w3.org/2000/svg" viewBox="0 0 24 24">
  <g id="g893">
    <path id="path2" d="M12,2.738,21.826,9.9,18.071,21.5H5.929L2.175,9.9,12,2.738M12,1.5,1,9.521,5.2,22.5H18.8L23,9.521Z" class="aw-theme-iconOutline" fill="#464646"/>
    <path id="line4" d="M11.994,6.1a.5.5,0,0,0-.306.115L9.3,8.131a.5.5,0,1,0,.588.809.347.347,0,0,0,.037-.03l2.391-1.92a.5.5,0,0,0-.319-.894Z" class="aw-theme-iconOutline" fill="#464646"/>
    <path id="line6" d="M11.99,6.1a.5.5,0,0,0-.3.894l2.39,1.92a.5.5,0,1,0,.662-.749.347.347,0,0,0-.037-.03l-2.39-1.92A.5.5,0,0,0,11.99,6.1Z" class="aw-theme-iconOutline" fill="#464646"/>
    <path id="line8" d="M11.992,6.094A.5.5,0,0,0,11.5,6.6V13a.5.5,0,0,0,1,.014V6.6a.5.5,0,0,0-.494-.506Z" class="aw-theme-iconOutline" fill="#464646"/>
    <path id="line12" d="M15.852,9.061a.5.5,0,0,0-.237.929l2.615,1.6a.5.5,0,1,0,.522-.853h0l-2.615-1.6A.5.5,0,0,0,15.852,9.061Z" class="aw-theme-iconOutline" fill="#464646"/>
    <path id="line14" d="M18.5,10.656A.5.5,0,0,0,18.02,11l-1,2.9a.5.5,0,0,0,.933.361l.013-.036,1-2.9a.5.5,0,0,0-.463-.67Z" class="aw-theme-iconOutline" fill="#464646"/>
    <path id="line16" d="M18.5,10.66a.514.514,0,0,0-.182.033L12.3,12.861a.5.5,0,0,0,.282.96l.056-.02,6.023-2.168a.5.5,0,0,0-.158-.973Z" class="aw-theme-iconOutline" fill="#464646"/>
    <path id="line20" d="M8.074,9.059a.485.485,0,0,0-.269.078l-2.617,1.6a.5.5,0,1,0,.52.854h0l2.617-1.6a.5.5,0,0,0-.252-.931Z" class="aw-theme-iconOutline" fill="#464646"/>
    <path id="line22" d="M5.424,10.656a.5.5,0,0,0-.477.523.464.464,0,0,0,.03.147l1,2.9a.5.5,0,0,0,.957-.288L6.918,13.9l-1-2.9A.5.5,0,0,0,5.424,10.656Z" class="aw-theme-iconOutline" fill="#464646"/>
    <path id="line24" d="M5.422,10.66a.5.5,0,0,0-.143.973L11.3,13.8a.5.5,0,0,0,.393-.92l-.055-.02-6.02-2.168A.511.511,0,0,0,5.422,10.66Z" class="aw-theme-iconOutline" fill="#464646"/>
    <path id="line28" d="M16.994,15.285a.5.5,0,0,0-.482.412l-.59,3.008a.5.5,0,0,0,.973.231L16.9,18.9l.592-3.009a.5.5,0,0,0-.385-.593A.493.493,0,0,0,16.994,15.285Z" class="aw-theme-iconOutline" fill="#464646"/>
    <path id="line30" d="M16.4,18.3l-3.066.072a.5.5,0,0,0,.023,1h0l3.067-.072a.5.5,0,0,0-.023-1Z" class="aw-theme-iconOutline" fill="#464646"/>
    <path id="line32" d="M12.275,13.4a.5.5,0,0,0-.371.826l4.125,4.895a.5.5,0,1,0,.766-.645L12.67,13.586A.5.5,0,0,0,12.275,13.4Z" class="aw-theme-iconOutline" fill="#464646"/>
    <path id="line36" d="M7.031,15.285a.5.5,0,0,0-.5.5.477.477,0,0,0,.011.1L7.139,18.9a.5.5,0,1,0,.988-.155L8.119,18.7,7.529,15.7A.5.5,0,0,0,7.031,15.285Z" class="aw-theme-iconOutline" fill="#464646"/>
    <path id="line38" d="M7.592,18.3a.5.5,0,1,0,.025,1l3.065.072a.5.5,0,0,0,.023-1h0L7.641,18.3A.4.4,0,0,0,7.592,18.3Z" class="aw-theme-iconOutline" fill="#464646"/>
    <path id="line40" d="M11.752,13.4a.5.5,0,0,0-.381.182L7.246,18.48a.5.5,0,1,0,.766.645l4.125-4.895a.5.5,0,0,0-.385-.826Z" class="aw-theme-iconOutline" fill="#464646"/>
  </g>
</svg>
