<svg id="Image" xmlns="http://www.w3.org/2000/svg" viewBox="0 0 24 24">
  <path d="M8.136,19.887a.675.675,0,0,1-.323-.085c-.779-.434-.642-1.385-.542-2.079a5.152,5.152,0,0,0,.063-.579,2.767,2.767,0,0,1,.151-.933,2.658,2.658,0,0,1,.863-1.081c.046-.037.1-.078.151-.119A3.081,3.081,0,0,0,8,13.587,1.291,1.291,0,0,0,6.913,13a1.37,1.37,0,0,0-.863.481,4.844,4.844,0,0,0-.678,1.05,8.457,8.457,0,0,0-1.319,4.155l-1,.045a9.258,9.258,0,0,1,1.435-4.669,5.8,5.8,0,0,1,.827-1.26,2.365,2.365,0,0,1,1.515-.8A2.28,2.28,0,0,1,8.812,13a3.712,3.712,0,0,1,.617,1.512,1.335,1.335,0,0,1,.913.01,1.27,1.27,0,0,1,.548.462,1.509,1.509,0,0,1,1.9-.79,1.116,1.116,0,0,1,.048-.132,1.2,1.2,0,0,1,.891-.617l.121-.033a2.653,2.653,0,0,0,1.094-.9l.754.657a3.514,3.514,0,0,1-1.559,1.2l-.153.043a1.189,1.189,0,0,0-.257.087h0c.011,0,0,.036,0,.072a.718.718,0,0,1-1.017.65.864.864,0,0,0-.722-.039,1.328,1.328,0,0,0-.365.646l-.338.946-.532-.353a1.843,1.843,0,0,1-.551-.655c-.08-.137-.171-.291-.242-.321a.439.439,0,0,0-.251.028,1.468,1.468,0,0,0-.154.059,8.191,8.191,0,0,1-.528,3.384c-.139.375-.3.8-.665.934A.67.67,0,0,1,8.136,19.887Zm.421-3.563a1.019,1.019,0,0,0-.138.244,1.837,1.837,0,0,0-.085.6,6.181,6.181,0,0,1-.073.7c-.015.1-.032.216-.045.328A7.389,7.389,0,0,0,8.557,16.324ZM16.933,11.8l-.012.007-.055.018V22H2V2H16.866V7.407l1-1V1H1V23H17.866V10.93l-.75.751A.5.5,0,0,1,16.933,11.8Zm5.713-7.183-.726-.727a1.086,1.086,0,0,0-1.535,0l-.549.55h0l-1.97,1.971-1,1L14.855,9.42a.5.5,0,0,0-.113.183l-.008.012-.744,2.233a.548.548,0,0,0,.548.72.476.476,0,0,0,.153-.023l2.175-.725v-.013a.524.524,0,0,0,.067-.012.492.492,0,0,0,.183-.114l.75-.751L22.1,6.7l0,0,.547-.547a1.088,1.088,0,0,0,0-1.535Zm-7.423,6.7.205-.615.409.41Zm2.643-1.8-1,1-.1.1-.846-.846.95-.952,1-1L20.19,5.5l.847.847Zm4.073-4.077h0l-.2.2L20.9,4.788l.2-.2a.088.088,0,0,1,.121,0l.75.788A.078.078,0,0,1,21.939,5.438Z" class="aw-theme-iconOutline" fill="#464646"/>
</svg>
