<svg id="svg8" xmlns="http://www.w3.org/2000/svg" viewBox="0 0 24 24">
  <g id="layer1">
    <g id="g848">
      <path id="rect864" d="M0,0H24V1H0Z" class="aw-theme-iconOutline" fill="#464646"/>
      <path id="rect864-5" d="M0,4H24V5H0Z" class="aw-theme-iconOutline" fill="#464646"/>
      <path id="rect881" d="M0,0H1V20H0Z" class="aw-theme-iconOutline" fill="#464646"/>
      <path id="rect881-4" d="M23,0h1V12H23Z" class="aw-theme-iconOutline" fill="#464646"/>
      <path id="rect864-5-7" d="M0,19H10v1H0Z" class="aw-theme-iconOutline" fill="#464646"/>
      <path id="rect864-5-3" d="M3,7H18V8H3Z" class="aw-theme-iconOutline" fill="#464646"/>
      <path id="rect864-5-3-0" d="M3,11h8v1H3Z" class="aw-theme-iconOutline" fill="#464646"/>
      <path id="rect864-5-3-0-1" d="M3,15H8v1H3Z" class="aw-theme-iconOutline" fill="#464646"/>
      <path id="rect864-5-3-0-1-0" d="M20,2h1V3H20Z" class="aw-theme-iconOutline" fill="#464646"/>
      <path id="rect864-5-3-0-1-0-4" d="M18,2h1V3H18Z" class="aw-theme-iconOutline" fill="#464646"/>
      <path id="rect864-5-3-0-1-0-4-1" d="M16,2h1V3H16Z" class="aw-theme-iconOutline" fill="#464646"/>
      <path id="path2" d="M17.482,24a6.5,6.5,0,1,1,6.5-6.5A6.487,6.487,0,0,1,17.482,24Zm0-12a5.5,5.5,0,1,0,5.5,5.5A5.549,5.549,0,0,0,17.482,12Z" class="aw-theme-iconOutline" fill="#464646"/>
      <path id="path4" d="M20,17.2l-2,2.044.026-5.8-1.089-.011V19.2l-1.921-2-.678.65,2.643,2.828c.1.1.319.322.519.322a.768.768,0,0,0,.482-.267L20.7,17.849Z" class="aw-theme-iconOutline" fill="#464646"/>
    </g>
  </g>
</svg>
