<svg id="Artwork" xmlns="http://www.w3.org/2000/svg" viewBox="0 0 24 24">
  <g id="g836">
    <path id="path828" d="M3.448,0C.867,0,.9,0,.567.222a1.415,1.415,0,0,0-.483.6A12.7,12.7,0,0,0,.018,3.2L.008,5.428H.892l0-2.117c0-2.042,0-2.121.064-2.222C1.089.874.98.882,3.5.884A23.345,23.345,0,0,1,5.9.929c.106.038.16.129.833,1.346L7.45,3.581l1.266.007L9.982,3.6H18.19V5.428h.882V2.746H15.22v0H9.956v0H8L7.348,1.627C6.664.452,6.55.3,6.258.149S5.879,0,3.448,0Z" class="aw-theme-iconOutline" fill="#464646" stroke="#f50000" stroke-linejoin="round" stroke-width="0"/>
    <path id="path855" d="M21,18H18v3H17V18H14V17h3V14h1v3h3Z" class="aw-theme-iconOutline" fill="#464646"/>
    <path id="path2" d="M17.5,11A9.164,9.164,0,0,0,14,12H9l2,4v1.5A6.5,6.5,0,1,0,17.5,11Zm0,1A5.5,5.5,0,1,1,12,17.5V15.764l-.105-.211L10.617,13h3.629l.219-.113A8.038,8.038,0,0,1,17.5,12Z" class="aw-theme-iconOutline" fill="#464646"/>
    <path id="path869" d="M2,9.826v1.187l4.861,1.369v.343L2,11.358l0,4.569H9.659c0-.011-.008-.018-.011-.028a4.705,4.705,0,0,1-.044-.55h-7V12.078l4.856,1.367V12L2.6,10.634v-.085L8.55,12.205l-.378-.66Z" class="aw-theme-iconOutline" fill="#464646"/>
    <path id="path825-1" d="M11.857,7.763v3.313l-5-1.409v1.194L9,11.46h1.965l-3.5-.98v-.092l3.805,1.072h.484l.2.006a4.809,4.809,0,0,0,.5,0l.005-3.174h.919l-.013,3.176a5.963,5.963,0,0,0,.6-.01h0l.009-3.692Z" class="aw-theme-iconOutline" fill="#464646"/>
    <path id="path821-1" d="M10.777,3.98a1.8,1.8,0,0,0-1.383.549.792.792,0,0,1-.8.036,1.685,1.685,0,0,0-1.82.057c-.258.186-.323.164-.593.066a2.732,2.732,0,0,0-.447-.131A1.606,1.606,0,0,0,4.546,4.8a1.105,1.105,0,0,0-.487.923,1.174,1.174,0,0,0,.639.987,1.463,1.463,0,0,0,1.168.116c.1-.041.194-.084.279-.124.283-.136.35-.167.667.058a1.626,1.626,0,0,0,2.01-.181.409.409,0,0,1,.288-.128.6.6,0,0,1,.409.135,1.648,1.648,0,0,0,1.239.438,2.063,2.063,0,0,0,1.02-.3.845.845,0,0,1,.616.7l.042.216H13.6l0-.256a2.392,2.392,0,0,0-1.148-1.838,1.752,1.752,0,0,0-.165-.725,1.674,1.674,0,0,0-1.346-.825c-.056-.007-.112-.011-.168-.013Zm-.1.527a1.228,1.228,0,0,1,.191.009,1.087,1.087,0,0,1,.866.511,1.344,1.344,0,0,1,.116.654l-.01.164.168.079a1.939,1.939,0,0,1,.96,1.193h-.046a1.317,1.317,0,0,0-1.227-.929h-.1l-.08.052a1.388,1.388,0,0,1-.736.262h-.011a1.019,1.019,0,0,1-.824-.284,1.237,1.237,0,0,0-.874-.292,1.033,1.033,0,0,0-.721.324.959.959,0,0,1-1.161.1,1.106,1.106,0,0,0-1.334-.113c-.071.034-.148.072-.234.106a.788.788,0,0,1-.607-.08.645.645,0,0,1-.36-.551.588.588,0,0,1,.262-.5.936.936,0,0,1,.682-.14,2.168,2.168,0,0,1,.347.1A1.105,1.105,0,0,0,7.15,5.029a1.026,1.026,0,0,1,1.117-.017,1.437,1.437,0,0,0,1.556-.12A1.157,1.157,0,0,1,10.674,4.507Z" class="aw-theme-iconOutline" fill="#464646"/>
    <path id="rect869" d="M0,5.364H.89V18H0Z" class="aw-theme-iconOutline" fill="#464646"/>
    <path id="rect871" d="M.89,17.059H9.966V18H.89Z" class="aw-theme-iconOutline" fill="#464646"/>
    <path id="rect873" d="M18.191,5.39h.877V10h-.877Z" class="aw-theme-iconOutline" fill="#464646"/>
  </g>
</svg>
