<svg id="svg8" xmlns="http://www.w3.org/2000/svg" viewBox="0 0 24 24">
  <g id="g962">
    <path id="path878" d="M5.318,9.658a8.832,8.832,0,0,0-1.681.149,8.038,8.038,0,0,0-1.569.5A3.246,3.246,0,0,0,.248,12c-.247.534-.232.266-.232,4.812v4.112l.088.332a2.45,2.45,0,0,0,1,1.474,6,6,0,0,0,3.191,1.229,11.081,11.081,0,0,0,2.691-.1,7.131,7.131,0,0,0,2.383-.974A3.348,3.348,0,0,0,10.551,21.2l.107-.32v-3.8l-.6-1.264c.01,1.247.014,3.766-.01,4.442a2.219,2.219,0,0,1-.119.928,2.756,2.756,0,0,1-.575.886,5.478,5.478,0,0,1-2.716,1.262,13.467,13.467,0,0,1-2.455.037A5.993,5.993,0,0,1,1.672,22.4a2.37,2.37,0,0,1-1-1.33L.59,20.824V17.756c0-1.687.01-3.068.021-3.068a1.153,1.153,0,0,1,.19.148,5.834,5.834,0,0,0,.488.361,6.91,6.91,0,0,0,4.084,1.084,6.632,6.632,0,0,0,4.291-1.3L9.385,14.4c-.011.008-.017.018-.028.027A5.417,5.417,0,0,1,6.865,15.57a8.714,8.714,0,0,1-.97.075c-.356.009-.712.02-.791.025a7.259,7.259,0,0,1-2.17-.356A3.6,3.6,0,0,1,.658,13.621,2.325,2.325,0,0,1,.588,12.6c.221-1.146,1.565-2.042,3.5-2.334a10.489,10.489,0,0,1,2.236-.037,6.02,6.02,0,0,1,2.862,1.027l.759.006A5.282,5.282,0,0,0,7.006,9.809,8.939,8.939,0,0,0,5.318,9.658Z" class="aw-theme-iconOutline" fill="#464646"/>
    <path id="rect859-6" d="M12.28,11.174c.53.012,1.06.014,1.59.011a2.638,2.638,0,0,1,.006.518h-1.6c-.059,0-.059-.529,0-.529Z" class="aw-theme-iconOutline" fill="#464646"/>
    <path id="rect861-9" d="M12.265.063a.264.264,0,0,1,.264.264V11.439a.265.265,0,0,1-.529,0V.327A.264.264,0,0,1,12.265.063Z" class="aw-theme-iconOutline" fill="#464646"/>
    <path id="rect863-8" d="M12.219.063h9.57a.244.244,0,0,1,.219.264.245.245,0,0,1-.219.265h-9.57A.244.244,0,0,1,12,.327.244.244,0,0,1,12.219.063Z" class="aw-theme-iconOutline" fill="#464646"/>
    <path id="rect865-0" d="M21.789,4.754a.271.271,0,0,1,.264.278h0v6.4a.265.265,0,1,1-.529,0h0v-6.4a.272.272,0,0,1,.264-.279Z" class="aw-theme-iconOutline" fill="#464646"/>
    <path id="rect869-44" d="M13.357,6.067H20.8a.265.265,0,0,1,0,.529H13.357a.265.265,0,1,1,0-.529Z" class="aw-theme-iconOutline" fill="#464646"/>
    <path id="rect869-4-3" d="M13.323,7.624h7.442a.265.265,0,0,1,0,.529H13.323a.265.265,0,1,1,0-.529Z" class="aw-theme-iconOutline" fill="#464646"/>
    <path id="rect869-2-4" d="M13.357,9.2H20.8a.265.265,0,0,1,0,.529H13.357a.265.265,0,1,1,0-.529Z" class="aw-theme-iconOutline" fill="#464646"/>
    <path id="rect869-5-6" d="M14.135,1.632H21.02a.265.265,0,1,1,0,.529H14.135a.265.265,0,0,1,0-.529Z" class="aw-theme-iconOutline" fill="#464646"/>
    <path id="rect869-0-5" d="M19.211,3.124h2.336a.265.265,0,1,1,0,.529H19.211a.265.265,0,1,1,0-.529Z" class="aw-theme-iconOutline" fill="#464646"/>
    <path id="path922-5" d="M19.192,4.57l-.363-.01-.2-.17c-.081-.071-.253-.222-.354-.308-.228-.194-.418-.331-.641-.545l-.231-.188-.575.087c-1.356.2-1.92.246-2.13.307-.052.014-.054.037-.189-.067-.171-.133-.324-.314-.3-.314s.452-.065.98-.144c.592-.063,1.761-.262,2.393-.318.113-.01.145.055.554.416.514.441,1.016.875,1.536,1.3L19.633,4.6c-.074,0-.242-.029-.441-.034Z" class="aw-theme-iconOutline" fill="#464646"/>
    <path id="path996" d="M16.42,4.964a3.842,3.842,0,0,1-1.4-.5,2.918,2.918,0,0,1-.5-.308c-.126-.092-.314-.241-.416-.33a2.417,2.417,0,0,1-.36-.376,5.318,5.318,0,0,1-.535-.817c-.365-.6-.526-.89-.875-1.545-.2-.37-.223-.423-.211-.432s.494-.116.5-.112.1.176.207.386c.352.664.494.916.84,1.487a5.379,5.379,0,0,0,.484.737,3.313,3.313,0,0,0,.675.609,2.774,2.774,0,0,0,.454.278,4.8,4.8,0,0,0,.97.376,15.743,15.743,0,0,0,2.763.106c.222,0,3.344.007,3.714.013.612.01.37-.033.417-.046.018-.006-.025-.063-.265-.364-.264-.33-.595-.784-.8-1.1a3.406,3.406,0,0,1-.377-.809,3.022,3.022,0,0,1-.173-.835C21.5,1.152,21.476.309,21.49.3h.516l.008.529a6.672,6.672,0,0,0,.05.773,5.188,5.188,0,0,0,.218.763,2.553,2.553,0,0,0,.192.371c.2.3.535.768.809,1.111l.3.375c.053.064.148.181.216.259a1.362,1.362,0,0,1,.144.2A.373.373,0,0,1,24,4.769a.29.29,0,0,1-.025.174c-.033.068-.141.091-.142.092s-.824-.013-2.254,0c-.505,0-1.1,0-1.459,0s-.466,0-.706,0c-.73,0-.626,0-.652,0A19.972,19.972,0,0,1,16.42,4.964Z" class="aw-theme-iconOutline" fill="#464646"/>
    <path id="path827" d="M9.421,2.4,7.788.763a.408.408,0,0,0-.577.578l.932.933H4.64V8.8h.817V3.091H8.152l-.939.936a.409.409,0,1,0,.568.588L7.79,4.6,9.424,2.971a.409.409,0,0,0,0-.574Z" class="aw-theme-iconOutline" fill="#464646"/>
    <path id="path855" d="M21.183,18.064h-3v3h-1v-3h-3v-1h3v-3h1v3h3Z" class="aw-theme-iconOutline" fill="#464646"/>
    <path id="path2" d="M17.683,11.064a9.182,9.182,0,0,0-3.5,1h-5l2,4v1.5a6.5,6.5,0,1,0,6.5-6.5Zm0,1a5.5,5.5,0,1,1-5.5,5.5h0V15.828l-.105-.211L10.8,13.064h3.629l.219-.113A8.057,8.057,0,0,1,17.683,12.064Z" class="aw-theme-iconOutline" fill="#464646"/>
    <path id="rect859-6-8" d="M20.981,11.174l.848-.007a1.431,1.431,0,0,1,0,.53h-.168A4.9,4.9,0,0,0,20.981,11.174Z" class="aw-theme-iconOutline" fill="#464646"/>
  </g>
</svg>
