<svg id="Verb_Zone" xmlns="http://www.w3.org/2000/svg" viewBox="0 0 24 24">
  <g id="g818">
    <path id="path2" d="M16.27,0V8.027h-.581L11.113,4.555V8.027h-.984L5.555,4.555V8.027H4.574L0,4.555V18.8H10.113a7.441,7.441,0,0,1-.1-.867H.92V6.367L4,8.705l.254.191H6.475V6.367L9.553,8.705l.254.191h2.222V6.367l3.08,2.338.252.191h1.827V.865H19.3V10.23a7.579,7.579,0,0,1,.918.29V0ZM14.2,9.748a1.488,1.488,0,0,0-1.534,1.438,1.35,1.35,0,0,0,.1.509,7.52,7.52,0,0,1,.7-.513.717.717,0,0,1,.749-.68.767.767,0,0,1,.366.1,7.565,7.565,0,0,1,.824-.3A1.563,1.563,0,0,0,14.2,9.748Zm-10.4.691a1.462,1.462,0,1,0,.068,2.919,1.589,1.589,0,0,0,1.131-.5l2.322.643c-.007.073-.021.142-.021.217a2.39,2.39,0,0,0,.172.865l-.842.463a1.587,1.587,0,0,0-2.131-.333,1.386,1.386,0,0,0-.354,2.007,1.587,1.587,0,0,0,2.131.333,1.41,1.41,0,0,0,.639-1.171.882.882,0,0,0-.012-.114l.956-.525a2.724,2.724,0,0,0,2.261.994,7.848,7.848,0,0,1,.174-.773,2.069,2.069,0,0,1-.314.027h0a1.867,1.867,0,0,1-1.881-1.773,1.82,1.82,0,0,1,1.866-1.772,1.92,1.92,0,0,1,1.468.66,1.8,1.8,0,0,1,.187.258,7.562,7.562,0,0,1,.985-1.031l-.512.338A2.776,2.776,0,0,0,8.35,11.7a2.534,2.534,0,0,0-.856,1.061L5.35,12.17a1.425,1.425,0,0,0,.027-.26,1.5,1.5,0,0,0-1.538-1.471Zm.019.782a.718.718,0,0,1,.765.663v.028c0,.015-.009.027-.01.041a.69.69,0,0,1-.59.623.666.666,0,0,1-.134.029.693.693,0,1,1-.032-1.384ZM5.273,15.2a.9.9,0,0,1,.1,0,.706.706,0,0,1,.661.756.715.715,0,0,1-.661.623.725.725,0,0,1-.811-.613.7.7,0,0,1,.65-.764Z" class="aw-theme-iconOutline" fill="#464646"/>
    <path id="path2-9" d="M17.482,24a6.5,6.5,0,1,1,6.5-6.5A6.487,6.487,0,0,1,17.482,24Zm0-12a5.5,5.5,0,1,0,5.5,5.5A5.549,5.549,0,0,0,17.482,12Z" class="aw-theme-iconOutline" fill="#464646"/>
    <path id="path4" d="M20,17.2l-2,2.044.026-5.8-1.089-.011V19.2l-1.921-2-.678.65,2.643,2.828c.1.1.319.323.519.323a.765.765,0,0,0,.482-.268L20.7,17.849Z" class="aw-theme-iconOutline" fill="#464646"/>
  </g>
</svg>
