<svg version="1.1" id="Layer_1" xmlns="http://www.w3.org/2000/svg" xmlns:xlink="http://www.w3.org/1999/xlink" x="0px" y="0px"
	 viewBox="0 0 24 24" enable-background="new 0 0 24 24" xml:space="preserve">
<path class="aw-theme-iconOutline" fill="#464646" d="M19.7,15c-1.1-1.1-1.7-2.6-1.7-4.2V8c0-2.6-1.7-4.8-4-5.7V1.5C14,0.7,13.3,0,12.5,0h-1C10.7,0,10,0.7,10,1.5
	v0.9C7.7,3.2,6,5.4,6,8v2.8c0,1.6-0.6,3.1-1.7,4.2C2.8,16.5,2,18.4,2,20.5V21h7c0,1.7,1.3,3,3,3s3-1.3,3-3h7v-0.5
	C22,18.4,21.2,16.5,19.7,15z M11,1.5C11,1.2,11.2,1,11.5,1h1C12.8,1,13,1.2,13,1.5v0.6C12.7,2,12.3,2,12,2c-0.3,0-0.7,0-1,0.1V1.5z
	 M12,23c-1.1,0-2-0.9-2-2h4C14,22.1,13.1,23,12,23z M3,20c0.1-1.6,0.8-3.1,2-4.3c1.3-1.3,2-3,2-4.9V8c0-2.8,2.2-5,5-5
	c2.8,0,5,2.2,5,5v2.8c0,1.8,0.7,3.6,2,4.9c1.2,1.2,1.8,2.7,2,4.3H3z"/>
</svg>
