<svg id="svg5" xmlns="http://www.w3.org/2000/svg" viewBox="0 0 24 24">
  <g id="g822">
    <path id="path869" d="M0,8.947v1.817l6.494,2.093v.526L.006,11.291V18.2H10.238c0-.016-.011-.027-.015-.043a6.951,6.951,0,0,1-.065-.758H.809v-5L7.3,14.484V12.273L.8,10.184v-.131l7.974,2.576-.505-1.01Z" class="aw-theme-iconOutline" fill="#464646"/>
    <path id="path825" d="M13.168,5.791v5.068L6.494,8.7v1.828l2.858.916h2.625L7.3,9.947v-.14l5.084,1.64h.646l.268-.127c.217-.1.453-.123.678-.209V6.6H15.2v4.136c.225-.053.445-.17.666-.205.038-.006.093,0,.135,0V5.791Z" class="aw-theme-iconOutline" fill="#464646"/>
    <path id="path821" d="M11.725,0a2.255,2.255,0,0,0-1.848.84A.941.941,0,0,1,8.808.9,2.014,2.014,0,0,0,6.376.985c-.345.285-.431.25-.792.1a3.377,3.377,0,0,0-.6-.2A1.929,1.929,0,0,0,3.4,1.254a1.771,1.771,0,0,0-.65,1.413,1.828,1.828,0,0,0,.854,1.509,1.728,1.728,0,0,0,1.559.177c.139-.062.26-.128.373-.189.378-.208.468-.255.891.089a1.967,1.967,0,0,0,2.685-.277.517.517,0,0,1,.386-.2.732.732,0,0,1,.546.207,2.046,2.046,0,0,0,1.655.67,2.506,2.506,0,0,0,1.362-.465,1.255,1.255,0,0,1,.824,1.076l.056.33H15.5l.006-.392a3.755,3.755,0,0,0-1.533-2.812,3.017,3.017,0,0,0-.221-1.11A2.224,2.224,0,0,0,11.95.022,2.112,2.112,0,0,0,11.725,0Zm-.138.806a1.46,1.46,0,0,1,.256.014A1.436,1.436,0,0,1,13,1.6a2.342,2.342,0,0,1,.155,1l-.013.252.224.121A2.926,2.926,0,0,1,14.649,4.8h-.061a1.817,1.817,0,0,0-1.64-1.421h-.131l-.107.08a1.713,1.713,0,0,1-.983.4h-.014a1.26,1.26,0,0,1-1.1-.435A1.525,1.525,0,0,0,9.444,2.98a1.307,1.307,0,0,0-.963.5,1.158,1.158,0,0,1-1.552.159,1.336,1.336,0,0,0-1.782-.172c-.1.052-.2.109-.312.161A.931.931,0,0,1,4.024,3.5a1,1,0,0,1-.48-.842.948.948,0,0,1,.349-.774A1.135,1.135,0,0,1,4.8,1.671a2.733,2.733,0,0,1,.464.159A1.332,1.332,0,0,0,6.88,1.607a1.228,1.228,0,0,1,1.493-.026A1.72,1.72,0,0,0,10.451,1.4,1.47,1.47,0,0,1,11.587.808Z" class="aw-theme-iconOutline" fill="#464646"/>
    <path id="path855" d="M21,18H18v3H17V18H14V17h3V14h1v3h3Z" class="aw-theme-iconOutline" fill="#464646"/>
    <path id="path2" d="M17.5,11A9.164,9.164,0,0,0,14,12H9l2,4v1.5A6.5,6.5,0,1,0,17.5,11Zm0,1A5.5,5.5,0,1,1,12,17.5V15.764l-.105-.211L10.617,13h3.629l.219-.113A8.038,8.038,0,0,1,17.5,12Z" class="aw-theme-iconOutline" fill="#464646"/>
  </g>
</svg>
