<svg id="svg8" xmlns="http://www.w3.org/2000/svg" viewBox="0 0 24 24">
  <g id="layer1">
    <g id="g945">
      <path id="rect864" d="M0,0H24V1H0Z" class="aw-theme-iconOutline" fill="#464646"/>
      <path id="rect864-5" d="M0,4H24V5H0Z" class="aw-theme-iconOutline" fill="#464646"/>
      <path id="rect881" d="M0,0H1V20H0Z" class="aw-theme-iconOutline" fill="#464646"/>
      <path id="rect881-4" d="M23,0h1V12H23Z" class="aw-theme-iconOutline" fill="#464646"/>
      <path id="rect864-5-7" d="M0,19H10v1H0Z" class="aw-theme-iconOutline" fill="#464646"/>
      <path id="rect864-5-3" d="M3,7H18V8H3Z" class="aw-theme-iconOutline" fill="#464646"/>
      <path id="rect864-5-3-0" d="M3,11h8v1H3Z" class="aw-theme-iconOutline" fill="#464646"/>
      <path id="rect864-5-3-0-1" d="M3,15H8v1H3Z" class="aw-theme-iconOutline" fill="#464646"/>
      <path id="rect864-5-3-0-1-0" d="M20,2h1V3H20Z" class="aw-theme-iconOutline" fill="#464646"/>
      <path id="rect864-5-3-0-1-0-4" d="M18,2h1V3H18Z" class="aw-theme-iconOutline" fill="#464646"/>
      <path id="rect864-5-3-0-1-0-4-1" d="M16,2h1V3H16Z" class="aw-theme-iconOutline" fill="#464646"/>
      <path id="path2" d="M17.5,24A6.5,6.5,0,1,1,24,17.5,6.487,6.487,0,0,1,17.5,24Zm0-12A5.5,5.5,0,1,0,23,17.5,5.549,5.549,0,0,0,17.5,12Z" class="aw-theme-iconOutline" fill="#464646"/>
      <path id="path830-1" d="M17.542,13.066l-1.87,2.561-1.244,1.705h1.135l.984-1.415.989-1.422.987,1.422.985,1.415h1.148l-1.244-1.7Z" class="aw-theme-iconOutline" fill="#464646"/>
      <path id="path830-1-7" d="M17.542,16.734,15.672,19.3,14.428,21h1.135l.983-1.415.99-1.421.987,1.421L19.508,21h1.148l-1.244-1.7Z" class="aw-theme-iconOutline" fill="#464646"/>
    </g>
  </g>
</svg>
