<svg id="svg854" xmlns="http://www.w3.org/2000/svg" viewBox="0 0 24 24">
  <g id="layer1">
    <g id="g823">
      <path id="path1403" d="M8.131,0A3.13,3.13,0,0,0,5,3.13H5A3.131,3.131,0,0,0,8.13,6.262h0a3.131,3.131,0,0,0,3.131-3.13h0A3.13,3.13,0,0,0,8.132,0Zm0,1.043A2.087,2.087,0,1,1,6.043,3.131,2.088,2.088,0,0,1,8.131,1.043Z" class="aw-theme-iconOutline" fill="#464646"/>
      <path id="rect1450" d="M7.105,5.452H9.156a.018.018,0,0,1,.018.019V18.686a.017.017,0,0,1-.018.018H7.105a.017.017,0,0,1-.018-.018V5.471A.018.018,0,0,1,7.105,5.452Z" class="aw-theme-iconOutline" fill="#464646"/>
      <path id="path1488" d="M8.13,17.671s.719,1.105.987.082c.2-.759.892-1.416,2.981-2.065a9.342,9.342,0,0,0,4.7-2.6,5.66,5.66,0,0,0,1.328-3.365c.019-.567-1.734-.625-1.751-.027a4.112,4.112,0,0,1-1.053,2.754,6.118,6.118,0,0,1-3.092,1.511,16.814,16.814,0,0,0-2.6.953,6.536,6.536,0,0,0-1.552,1.345" class="aw-theme-iconOutline" fill="#464646" stroke="#464646" stroke-width="0.137"/>
      <path id="path1403-7" d="M8.131,17.738A3.13,3.13,0,0,0,5,20.868H5A3.13,3.13,0,0,0,8.13,24h0a3.131,3.131,0,0,0,3.131-3.13h0a3.131,3.131,0,0,0-3.13-3.131Zm0,1.045a2.087,2.087,0,1,1-2.088,2.088v0A2.088,2.088,0,0,1,8.131,18.783Z" class="aw-theme-iconOutline" fill="#464646"/>
      <path id="path1403-7-0" d="M17.2,3.568A3.131,3.131,0,0,0,14.07,6.7h0A3.13,3.13,0,0,0,17.2,9.83h0A3.13,3.13,0,0,0,20.332,6.7h0A3.131,3.131,0,0,0,17.2,3.568Zm0,1.043A2.087,2.087,0,1,1,15.113,6.7,2.087,2.087,0,0,1,17.2,4.611Z" class="aw-theme-iconOutline" fill="#464646"/>
    </g>
  </g>
</svg>
