<svg id="Verb_Zone" xmlns="http://www.w3.org/2000/svg" viewBox="0 0 24 24">
  <g id="g816">
    <path id="path827" d="M2,0V24l19.983-.008V6h-.009L22,5.986,15.324.01l0,0v0H14.209ZM3.1,1.008H14.212V7h6.66V22.971H3.158Zm12.223.458L20.385,6H15.322Z" class="aw-theme-iconOutline" fill="#464646"/>
    <path id="path2" d="M18.723,8.658v12.7H5.177v-8.6l2.269,1.74.186.143H9.271V12.752l2.269,1.74.186.143h1.638V12.752l2.269,1.74.186.143h1.346V8.658h1.558m.677-.644H16.488v5.974h-.427L12.69,11.4v2.584h-.726L8.593,11.4v2.584H7.871L4.5,11.4V22H19.4ZM16.087,18.493a1.146,1.146,0,0,0-.907.441l-1.387-.377a1.774,1.774,0,0,0,.035-.332,1.8,1.8,0,0,0-.131-.658l.568-.379A1.167,1.167,0,0,0,15.848,17a1.038,1.038,0,0,0-.2-1.5,1.166,1.166,0,0,0-1.582.189,1.031,1.031,0,0,0-.158,1.054l-.5.336a2.031,2.031,0,0,0-2.753-.349,1.883,1.883,0,0,0-.63.789l-1.58-.442a1.057,1.057,0,0,0,.021-.194,1.143,1.143,0,1,0-1.151,1.078,1.166,1.166,0,0,0,.868-.371l1.712.479a1.44,1.44,0,0,0-.017.161,1.81,1.81,0,0,0,.126.645l-.62.344a1.164,1.164,0,0,0-1.571-.245,1.038,1.038,0,0,0-.258,1.494,1.163,1.163,0,0,0,1.571.246,1.054,1.054,0,0,0,.469-.873c0-.029-.007-.056-.009-.084l.7-.391a2.026,2.026,0,0,0,2.744.369,1.881,1.881,0,0,0,.568-.643l1.371.372a.791.791,0,0,0-.011.108,1.131,1.131,0,1,0,1.129-1.074Zm-1.668-2.149a.576.576,0,1,1,.39.486.509.509,0,0,1-.377-.434.2.2,0,0,1-.013-.052Zm-7.086,1.05a.516.516,0,1,1,.542-.515.264.264,0,0,1-.007.03.512.512,0,0,1-.435.464.481.481,0,0,1-.1.021Zm1.13,2.956a.535.535,0,0,1-.593-.462.522.522,0,0,1,.485-.564.649.649,0,0,1,.108,0,.523.523,0,0,1,.485.564A.531.531,0,0,1,8.463,20.35Zm3.386-.806a1.382,1.382,0,0,1-1.386-1.319h0a1.348,1.348,0,0,1,1.375-1.319,1.411,1.411,0,0,1,1.082.492,1.283,1.283,0,0,1,.271.506,1.317,1.317,0,0,1-1.007,1.6,1.439,1.439,0,0,1-.334.039Zm4.236.537a.525.525,0,0,1-.528-.461.436.436,0,0,1-.011-.052.543.543,0,1,1,.542.516Z" class="aw-theme-iconOutline" fill="#464646"/>
  </g>
</svg>
