<svg id="svg838" xmlns="http://www.w3.org/2000/svg" viewBox="0 0 24 24">
  <g id="layer1">
    <g id="g838">
      <path id="path4" d="M6.287,24,3.7,23.112,3.925,20.2l-2.854.139L.08,17.915,2.219,16.03-.026,14.193l1.079-2.554,2.829.189-.14-2.845L6.171,7.915l1.959,2.22L10,7.941l2.565,1.08-.184,2.82,2.854-.141.99,2.423-2.139,1.885L16.2,17.9l-1.078,2.554-2.79-.283.141,2.845L10.039,24,8.144,21.862ZM4.765,22.446,6,22.966l1.544-1.8a.849.849,0,0,1,.675-.273.658.658,0,0,1,.57.238l1.6,1.786,1.079-.437-.111-2.386a.864.864,0,0,1,.28-.662.615.615,0,0,1,.635-.178h0l2.369.22.52-1.229L13.346,16.7a.844.844,0,0,1-.275-.673c.024-.323.064-.419.239-.568L15.1,13.875l-.44-1.077-2.394.109a.647.647,0,0,1-.665-.28.809.809,0,0,1-.18-.633L11.5,9.688l-1.234-.52-1.438,1.78a1.189,1.189,0,0,1-.622.335.755.755,0,0,1-.622-.237l-1.7-1.829L4.8,9.654l.111,2.387a.652.652,0,0,1-.24.567c-.164.214-.334.2-.634.177l-2.315-.079L1.2,13.935l1.81,1.542a.844.844,0,0,1,.275.673.652.652,0,0,1-.24.568L1.26,18.3l.44,1.077,2.394-.109a.658.658,0,0,1,.57.238.816.816,0,0,1,.275.673Z" class="aw-theme-iconOutline" fill="#464646"/>
      <path id="path6-9" d="M19.083,12.159H17.171l-.748-1.926-1.829.837-1.33-1.34L14.1,7.888l-1.829-.669V5.293l1.912-.67-.831-1.842,1.33-1.34,1.829.838L17.171.437h1.912l.665,1.842,1.829-.838,1.33,1.34-.831,1.842,1.912.67V7.219l-1.912.669.831,1.842-1.33,1.34-1.829-.837Zm-1.413-.838h.748L19,9.814a.833.833,0,0,1,.333-.418.524.524,0,0,1,.5,0l1.5.669.5-.5-.665-1.507a.618.618,0,0,1-.016-.542.612.612,0,0,1,.431-.295l1.5-.586V5.879l-1.5-.586a.827.827,0,0,1-.415-.334.534.534,0,0,1,0-.5l.665-1.507-.5-.5-1.5.67a.738.738,0,0,1-.522.034A.509.509,0,0,1,19,2.784l-.5-1.51h-.748l-.582,1.507a.741.741,0,0,1-.293.358.61.61,0,0,1-.538-.022l-1.5-.67-.5.5.666,1.507a.539.539,0,0,1,0,.5.549.549,0,0,1-.333.335L13.1,5.88v.753l1.5.586a.844.844,0,0,1,.416.334.539.539,0,0,1,0,.5l-.666,1.507.5.5,1.5-.669a.524.524,0,0,1,.5,0,.586.586,0,0,1,.333.418Z" class="aw-theme-iconOutline" fill="#464646"/>
      <path id="path8" d="M18.15,7.916A1.661,1.661,0,1,1,19.8,6.255,1.66,1.66,0,0,1,18.15,7.916Zm0-2.491a.781.781,0,0,0-.824.83.824.824,0,1,0,1.648,0A.782.782,0,0,0,18.15,5.425Z" class="aw-theme-iconOutline" fill="#464646"/>
      <path id="path4534" d="M8.2,13.275a2.75,2.75,0,1,0,2.75,2.75A2.75,2.75,0,0,0,8.2,13.275Zm0,1.1a1.65,1.65,0,0,1,0,3.3,1.65,1.65,0,0,1,0-3.3Z" class="aw-theme-iconOutline" fill="#464646"/>
    </g>
  </g>
</svg>
