<svg id="Image" xmlns="http://www.w3.org/2000/svg" viewBox="0 0 24 24">
  <path d="M14.5,5V1h-5V5H1V20H23V5Zm-4,0V2h3V6h-3ZM22,19H2V6H9.5V7h5V6H22Zm-2-8H15.033V10H20Zm0,2H15.033V12H20Zm0,2H15.033V14H20ZM7.77,12.407c-1.118,0-1.985-1.369-1.985-2.548A2.032,2.032,0,0,1,7.77,7.789a2.031,2.031,0,0,1,1.983,2.07C9.753,11.038,8.887,12.407,7.77,12.407Zm0-3.685A1.073,1.073,0,0,0,6.719,9.859c0,.724.579,1.615,1.051,1.615s1.049-.891,1.049-1.615A1.072,1.072,0,0,0,7.77,8.722Zm3.717,9.539H4.051V14.5a2.649,2.649,0,0,1,1.569-2.3l.309-.106.2.2a2.882,2.882,0,0,0,3.322-.029l.162-.167.3.1a2.583,2.583,0,0,1,1.578,2.31Zm-1.3-.934H10.6V14.5a1.687,1.687,0,0,0-.829-1.355,3.69,3.69,0,0,1-3.962,0A1.6,1.6,0,0,0,4.984,14.5v2.828h.368v-2.6h.933v2.6H9.253v-2.6h.934Z" class="aw-theme-iconOutline" fill="#464646"/>
</svg>
