<svg id="Image" xmlns="http://www.w3.org/2000/svg" viewBox="0 0 24 24">
  <path d="M22,12.7a1.209,1.209,0,0,0,1.208-1.208A1.292,1.292,0,0,0,21.917,10.2H21.5a4.481,4.481,0,0,0-2.794-8H2.083A1.292,1.292,0,0,0,.792,3.49,1.209,1.209,0,0,0,2,4.7h.38a5.488,5.488,0,0,1,.1,4h-.4A1.292,1.292,0,0,0,.792,9.99,1.209,1.209,0,0,0,2,11.2h.5a4.452,4.452,0,0,0,2.085,7.907v2.2a.5.5,0,0,0,.75.433l1.657-.951,1.657.951A.5.5,0,0,0,8.9,21.8a.5.5,0,0,0,.5-.5V19.2H22a1.21,1.21,0,0,0,1.208-1.209A1.292,1.292,0,0,0,21.917,16.7h-.343a5.487,5.487,0,0,1-.1-4ZM3.451,4.7H18.708a2,2,0,0,1,0,4H3.541A6.6,6.6,0,0,0,3.451,4.7ZM2,10.2a.208.208,0,0,1-.208-.208A.291.291,0,0,1,2.083,9.7H18.708a3,3,0,0,0,0-6H2a.208.208,0,0,1-.208-.208A.291.291,0,0,1,2.083,3.2H18.708a3.5,3.5,0,0,1,0,7H2Zm6.4,6.5v3.74l-1.157-.664a.5.5,0,0,0-.5,0l-1.158.664v-4.6H8.4Zm.5-1.865H5.083a.5.5,0,0,0-.5.5v1.216A1.968,1.968,0,0,1,3.292,14.7a2,2,0,0,1,2-2H20.413a6.6,6.6,0,0,0,.091,4H9.4v-.865h1.328a.5.5,0,0,0,0-1ZM21.917,17.7a.292.292,0,0,1,.291.291A.209.209,0,0,1,22,18.2H9.4v-.5Zm-16.625-6a3,3,0,0,0-3,3,2.969,2.969,0,0,0,2.291,2.9v.508A3.492,3.492,0,0,1,5.292,11.2H21.917a.292.292,0,0,1,.291.292A.209.209,0,0,1,22,11.7Z" class="aw-theme-iconOutline" fill="#464646"/>
</svg>
