<svg id="Livello_2" data-name="Livello 2" xmlns="http://www.w3.org/2000/svg" viewBox="0 0 24 24">
  <g id="g884">
    <path id="path4" d="M8.2,16.505h0a.237.237,0,0,0-.15.024,3.3,3.3,0,0,0-2.236,3.006V24h.833l.013-4.473a2.232,2.232,0,0,1,1.611-2.192A5.917,5.917,0,0,0,11.345,18.4a6.98,6.98,0,0,0,3.432-1c1.254.56,1.864,1.152,1.86,2.12L16.621,24h.827V19.537c0-1.223-.954-2.369-2.566-3.006a.41.41,0,0,0-.3.026,6.311,6.311,0,0,1-3.222,1.08,5.841,5.841,0,0,1-3.01-1.08A.419.419,0,0,0,8.2,16.505Z" class="aw-theme-iconOutline" fill="#464646"/>
    <path id="path2-0" d="M11.5,17.084c-1.422,0-2.724-1.852-2.724-3.315a2.755,2.755,0,0,1,2.714-2.656,2.708,2.708,0,0,1,2.69,2.626C14.175,15.206,12.918,17.084,11.5,17.084Zm-.046-5.128a1.652,1.652,0,0,0-1.83,1.451,1.687,1.687,0,0,0,0,.348c0,1.218.738,2.542,1.861,2.542s1.877-1.34,1.877-2.559a1.7,1.7,0,0,0-1.6-1.793,1.679,1.679,0,0,0-.309.011Z" class="aw-theme-iconOutline" fill="#464646"/>
    <path id="rect836" d="M7.848,19.821h.875v4.16H7.848Z" class="aw-theme-iconOutline" fill="#464646"/>
    <path id="rect836-2" d="M14.5,19.828h.875V23.98H14.5Z" class="aw-theme-iconOutline" fill="#464646"/>
    <path id="path4-0" d="M21.285,14.853a.335.335,0,0,0-.148.041,6.309,6.309,0,0,1-3.221,1.081A5.853,5.853,0,0,1,14.9,14.894a.447.447,0,0,0-.107-.035v.829l.029-.016A5.923,5.923,0,0,0,17.9,16.735a6.98,6.98,0,0,0,3.432-1.006c1.253.56,1.864,1.154,1.859,2.122l-.017,4.485H24V17.874c0-1.223-.955-2.368-2.566-3.006A.467.467,0,0,0,21.285,14.853Z" class="aw-theme-iconOutline" fill="#464646"/>
    <path id="path2-0-1" d="M18.047,15.421c-1.422,0-2.725-1.852-2.725-3.314A2.755,2.755,0,0,1,18.036,9.45a2.708,2.708,0,0,1,2.691,2.626C20.727,13.538,19.47,15.421,18.047,15.421ZM18,10.293a1.651,1.651,0,0,0-1.83,1.449,1.705,1.705,0,0,0,0,.35c0,1.219.737,2.542,1.861,2.542s1.877-1.34,1.877-2.559A1.7,1.7,0,0,0,18,10.293Z" class="aw-theme-iconOutline" fill="#464646"/>
    <path id="rect836-2-6" d="M21.054,18.165h.875v4.152h-.875Z" class="aw-theme-iconOutline" fill="#464646"/>
    <path id="path944" d="M17.605,4.185a2.91,2.91,0,0,0-1.673.976c-.491.5-.954,1.108-1.455,1.7l-.664.786,1.019-.136a8.458,8.458,0,0,0,2.992-.855,1.862,1.862,0,0,0,1.1-1.437,1.039,1.039,0,0,0-.209-.708.962.962,0,0,0-.508-.311A1.362,1.362,0,0,0,17.605,4.185Zm.133.779a.908.908,0,0,1,.274.007.191.191,0,0,1,.092.045c.011.014.035.039.029.166-.01.2-.164.482-.7.785a9.245,9.245,0,0,1-1.51.423c.187-.222.4-.493.574-.673a2.213,2.213,0,0,1,1.211-.75h.014Z" class="aw-theme-iconOutline" fill="#464646"/>
    <path id="path942" d="M17.613,4.183l-4.578.576-.082.062a12.339,12.339,0,0,0-2.176,2.3A7.132,7.132,0,0,1,7.721,9.2c-.094.037-.189.069-.3.109L6.16,9.775l1.313.293a8.259,8.259,0,0,0,4.4-.217,7.8,7.8,0,0,0,3.506-2.828,16.427,16.427,0,0,1,1.244-1.429,2.013,2.013,0,0,1,1.088-.623v0h0l-.1-.786,0,0ZM15.922,5.2c-.393.4-.77.848-1.16,1.325A7.2,7.2,0,0,1,11.633,9.1h0l0,0A7.411,7.411,0,0,1,9,9.41a8.349,8.349,0,0,0,2.381-1.772,12.7,12.7,0,0,1,1.992-2.122Z" class="aw-theme-iconOutline" fill="#464646"/>
    <path id="path38" d="M5.719.072a7.238,7.238,0,0,0-2.25.765h0A6.449,6.449,0,0,0,0,6.7a11.056,11.056,0,0,0,.57,3.681l.059.16.158.066a6.21,6.21,0,0,0,1.951.35A12.835,12.835,0,0,0,8.014,9.937a8.105,8.105,0,0,0,3.363-2.3,12.063,12.063,0,0,1,2.045-2.179l.269-.2-.148-.3A11.5,11.5,0,0,0,10.93,1.682,6.463,6.463,0,0,0,5.719.072Zm.136.765a5.51,5.51,0,0,1,4.561,1.451,9.892,9.892,0,0,1,2.279,2.8,16.472,16.472,0,0,0-1.918,2.026A7.126,7.126,0,0,1,7.719,9.2a12,12,0,0,1-4.944.968,4.086,4.086,0,0,1-1.486-.254A9.125,9.125,0,0,1,.8,6.72,5.567,5.567,0,0,1,3.836,1.54,6.73,6.73,0,0,1,5.855.837Z" class="aw-theme-iconOutline" fill="#464646"/>
    <path id="path839" d="M11.906,5.264l-.267.172c.108.17.212.347.314.533l.279-.152C12.127,5.625,12.018,5.44,11.906,5.264Z" class="aw-theme-iconOutline" fill="#464646"/>
    <path id="path837" d="M6.557,1.663,6.5,1.977A7.567,7.567,0,0,1,11.342,5l.258-.186A7.886,7.886,0,0,0,6.557,1.663Z" class="aw-theme-iconOutline" fill="#464646"/>
    <path id="path835" d="M4.779,1.485V1.8c.188,0,.4.012.641.031l.025-.318C5.2,1.5,4.98,1.485,4.779,1.485Z" class="aw-theme-iconOutline" fill="#464646"/>
    <path id="path833" d="M7.051,8.982l-.211.2.4.419.209-.2C7.313,9.258,7.18,9.12,7.051,8.982Z" class="aw-theme-iconOutline" fill="#464646"/>
    <path id="path831" d="M3.664,3.785,3.369,3.9A15.536,15.536,0,0,0,6.637,8.932l.226-.221A15.219,15.219,0,0,1,3.664,3.785Z" class="aw-theme-iconOutline" fill="#464646"/>
    <path id="path829" d="M3.316,2.167,3,2.18a4.57,4.57,0,0,0,.074.65l.313-.06A4.238,4.238,0,0,1,3.316,2.167Z" class="aw-theme-iconOutline" fill="#464646"/>
  </g>
</svg>
