<svg id="Image" xmlns="http://www.w3.org/2000/svg" viewBox="0 0 24 24">
  <g id="g829">
    <path id="path825" d="M14.361,13.292v.655a4.838,4.838,0,0,0-3.427,4.764V20.35a.787.787,0,0,1-.749.819H9.439a.393.393,0,0,0-.375.407v2.049a.392.392,0,0,0,.279.393H23.767a.4.4,0,0,0,.283-.393V21.576a.393.393,0,0,0-.377-.409h-.752a.787.787,0,0,1-.749-.819V18.709a4.836,4.836,0,0,0-3.425-4.764v-.653Zm1.072,1.535h2.248c.019,0,.036.006.054.006v6.343h1.014V15.035a3.84,3.84,0,0,1,2.368,3.525c0,.05.013.1.013.151V20.35a1.882,1.882,0,0,0,.416,1.171,1.764,1.764,0,0,0,1.379.681H23l0,.353V23H10.11v-.8h.079a1.764,1.764,0,0,0,1.379-.681,1.867,1.867,0,0,0,.415-1.171V18.709c0-.053.014-.1.016-.153a3.836,3.836,0,0,1,2.368-3.524v6.144h1.012V14.833c.018,0,.035-.006.054-.006Z" class="aw-theme-iconOutline" fill="#464646"/>
    <path id="rect825-0-7" d="M1,1V6h9.913a3.481,3.481,0,0,1,.1-1H2V2H12.371a5.664,5.664,0,0,1,1.1-1Z" class="aw-theme-iconOutline" fill="#464646"/>
    <path id="rect825-0-1" d="M1,8.053v5h9.959l-.168-1H2v-3h8.287l-.168-1Z" class="aw-theme-iconOutline" fill="#464646"/>
    <path id="rect825-0-1-1" d="M1,15l.043,4.967L9.6,20l.079-1.069H2.043l.025-2.938h8.261a4.709,4.709,0,0,1,.5-.993Z" class="aw-theme-iconOutline" fill="#464646"/>
    <path id="rect827-2-9" d="M3,10h7.157l.162,1H3Z" class="aw-theme-iconOutline" fill="#464646"/>
    <path id="path824" d="M18,0a6,6,0,0,0-6,6h0a6,6,0,1,0,6-6Zm0,1a5,5,0,1,1-5,5A5,5,0,0,1,18,1Z" class="aw-theme-iconOutline" fill="#464646" fill-rule="evenodd"/>
    <path id="rect815" d="M20.788,3.37,17.575,7.748,15.056,5.124l-.69.773,3.326,3.324S21.611,4,21.583,3.97A7.844,7.844,0,0,0,20.788,3.37Z" class="aw-theme-iconOutline" fill="#464646" fill-rule="evenodd"/>
  </g>
</svg>
