<svg xmlns="http://www.w3.org/2000/svg" viewBox="0 0 24 24">
  <g id="Verb_Zone">
    <path d="M21,18H18v3H17V18H14V17h3V14h1v3h3Zm3-.5A6.5,6.5,0,1,0,17.5,24,6.508,6.508,0,0,0,24,17.5Zm-1,0A5.5,5.5,0,1,1,17.5,12,5.506,5.506,0,0,1,23,17.5Zm-14.919-2a.5.5,0,1,0,.5-.5A.5.5,0,0,0,8.081,15.5Zm-1.5-.5a.5.5,0,1,1-.5.5A.5.5,0,0,1,6.581,15Zm3-1a.5.5,0,1,1-.5.5A.5.5,0,0,1,9.581,14Zm-2,0a.5.5,0,1,1-.5.5A.5.5,0,0,1,7.581,14Zm-2,0a.5.5,0,1,1-.5.5A.5.5,0,0,1,5.581,14Zm4,2a.5.5,0,1,1-.5.5A.5.5,0,0,1,9.581,16Zm-2,0a.5.5,0,1,1-.5.5A.5.5,0,0,1,7.581,16Zm-2,0a.5.5,0,1,1-.5.5A.5.5,0,0,1,5.581,16ZM1.081,1V6h8V1Zm7,4h-6V2h6Zm-4,2v5h8V7Zm7,4h-6V8h6ZM10,17.5c0,.169.014.334.025.5H4.081V13h7.433a7.459,7.459,0,0,0-.642,1H5.081v3h4.944C10.014,17.166,10,17.331,10,17.5Z" class="aw-theme-iconOutline" fill="#464646"/>
  </g>
</svg>
