<svg id="Layer_1" data-name="Layer 1" xmlns="http://www.w3.org/2000/svg" viewBox="0 0 24 24">
  <g id="g825">
    <path id="path2" d="M3,1H16V8h1V0H0V23H9V22H3ZM1,1H2V22H1Z" class="aw-theme-iconOutline" fill="#464646"/>
    <path id="path4" d="M13.5,4h-8A1.5,1.5,0,0,0,4,5.5v4A1.5,1.5,0,0,0,5.5,11h8A1.5,1.5,0,0,0,15,9.5v-4A1.5,1.5,0,0,0,13.5,4ZM14,9.5a.5.5,0,0,1-.5.5h-8A.5.5,0,0,1,5,9.5v-4A.5.5,0,0,1,5.5,5h8a.5.5,0,0,1,.5.5Z" class="aw-theme-iconOutline" fill="#464646"/>
    <path id="rect6" d="M6,8h6V9H6Z" class="aw-theme-iconOutline" fill="#464646"/>
    <path id="rect8" d="M6,6h7V7H6Z" class="aw-theme-iconOutline" fill="#464646"/>
    <path id="path2-2" d="M17.474,24a6.487,6.487,0,1,1,.026,0Zm0-12a5.5,5.5,0,1,0,5.5,5.5A5.5,5.5,0,0,0,17.474,12Z" class="aw-theme-iconOutline" fill="#464646"/>
    <path id="polygon4" d="M16.974,21h1V18h3V17h-3V14h-1v3h-3v1h3Z" class="aw-theme-iconOutline" fill="#464646"/>
  </g>
</svg>
