<svg xmlns="http://www.w3.org/2000/svg" viewBox="0 0 24 24">
  <g id="Verb_Zone">
    <path d="M17.5,24A6.5,6.5,0,1,1,24,17.5,6.508,6.508,0,0,1,17.5,24Zm0-12A5.5,5.5,0,1,0,23,17.5,5.506,5.506,0,0,0,17.5,12Zm3.419,4.919h-3v-3h-1v3h-3v1h3v3h1v-3h3ZM9.747,18.494a8.747,8.747,0,1,1,8.747-8.747c0,.11-.012.216-.016.324a7.416,7.416,0,0,1,.99.2c.009-.175.026-.347.026-.524a9.747,9.747,0,1,0-9.747,9.747c.177,0,.349-.017.524-.026a7.416,7.416,0,0,1-.2-.99C9.963,18.482,9.857,18.494,9.747,18.494Zm0-2.311a6.436,6.436,0,1,1,6.436-6.436c0,.128-.012.253-.02.379a7.587,7.587,0,0,1,1.006-.109c0-.09.014-.179.014-.27a7.436,7.436,0,1,0-7.436,7.436c.091,0,.18-.011.27-.014a7.587,7.587,0,0,1,.109-1.006C10,16.171,9.875,16.183,9.747,16.183Z" class="aw-theme-iconOutline" fill="#464646"/>
  </g>
</svg>
