<svg version="1.1" id="Verb_x5F_Zone" xmlns="http://www.w3.org/2000/svg" xmlns:xlink="http://www.w3.org/1999/xlink" x="0px"
	 y="0px" viewBox="0 0 24 24" enable-background="new 0 0 24 24" xml:space="preserve">
<path id="rect814" class="aw-theme-iconOutline" fill="#464646" d="M1,2v4h1v16h20V6h1V2H1z M2,3h20v2H2V3z M3,6.063h18v14.875H3V6.063z M8.922,8
	C8.411,8,8,8.411,8,8.922v1.156C8,10.589,8.411,11,8.922,11h6.156C15.589,11,16,10.589,16,10.078V8.922C16,8.411,15.589,8,15.078,8
	H8.922z M9.41,9h5.18C14.816,9,15,9.223,15,9.5S14.816,10,14.59,10H9.41C9.183,10,9,9.777,9,9.5S9.183,9,9.41,9z"/>
</svg>
