<svg id="svg8" xmlns="http://www.w3.org/2000/svg" viewBox="0 0 24 24">
  <g id="layer1">
    <g id="g865">
      <path id="rect864" d="M0,0H24V1H0Z" class="aw-theme-iconOutline" fill="#464646"/>
      <path id="rect864-5" d="M0,4H24V5H0Z" class="aw-theme-iconOutline" fill="#464646"/>
      <path id="rect881" d="M0,0H1V20H0Z" class="aw-theme-iconOutline" fill="#464646"/>
      <path id="rect881-4" d="M23,0h1V12H23Z" class="aw-theme-iconOutline" fill="#464646"/>
      <path id="rect864-5-7" d="M0,19H10v1H0Z" class="aw-theme-iconOutline" fill="#464646"/>
      <path id="rect864-5-3" d="M3,7H18V8H3Z" class="aw-theme-iconOutline" fill="#464646"/>
      <path id="rect864-5-3-0" d="M3,11h8v1H3Z" class="aw-theme-iconOutline" fill="#464646"/>
      <path id="rect864-5-3-0-1" d="M3,15H8v1H3Z" class="aw-theme-iconOutline" fill="#464646"/>
      <path id="rect864-5-3-0-1-0" d="M20,2h1V3H20Z" class="aw-theme-iconOutline" fill="#464646"/>
      <path id="rect864-5-3-0-1-0-4" d="M18,2h1V3H18Z" class="aw-theme-iconOutline" fill="#464646"/>
      <path id="rect864-5-3-0-1-0-4-1" d="M16,2h1V3H16Z" class="aw-theme-iconOutline" fill="#464646"/>
      <path id="path2-6" d="M23.066,17.916a5.118,5.118,0,1,1-5.118-5.148h2.106l-2.047,2.059.651.655L21.821,12.3l-3.07-3.182-.744.748,2.047,1.966H17.948A6.084,6.084,0,1,0,24,17.916Z" class="aw-theme-iconOutline" fill="#464646"/>
    </g>
  </g>
</svg>
