<svg id="Layer_1" data-name="Layer 1" xmlns="http://www.w3.org/2000/svg" viewBox="0 0 24 24">
  <g id="g868">
    <path id="path1052" d="M20.5,2A1.5,1.5,0,1,0,22,3.5,1.5,1.5,0,0,0,20.5,2Zm0,1a.5.5,0,1,1-.5.5A.5.5,0,0,1,20.5,3Z" class="aw-theme-iconOutline" fill="#464646"/>
    <path id="path1052-2-1-8" d="M4.5,4A1.5,1.5,0,0,0,3,5.5H3A1.5,1.5,0,0,0,4.5,7h0a1.5,1.5,0,0,0,0-3Zm0,1a.5.5,0,1,1-.5.5H4A.5.5,0,0,1,4.5,5Z" class="aw-theme-iconOutline" fill="#464646"/>
    <path id="path1052-2-3" d="M17.5,19A1.5,1.5,0,1,0,19,20.5,1.5,1.5,0,0,0,17.5,19Zm0,1a.5.5,0,1,1-.5.5A.5.5,0,0,1,17.5,20Z" class="aw-theme-iconOutline" fill="#464646"/>
    <path id="path1052-2-1-5" d="M4.5,11A1.5,1.5,0,0,0,3,12.5H3A1.5,1.5,0,0,0,4.5,14h0a1.5,1.5,0,0,0,0-3Zm0,1a.5.5,0,1,1-.5.5.5.5,0,0,1,.5-.5Z" class="aw-theme-iconOutline" fill="#464646"/>
    <path id="rect1193" d="M5.763,12h8.354v1H5.763Z" class="aw-theme-iconOutline" fill="#464646"/>
    <path id="rect1195" d="M17,15h1v5H17Z" class="aw-theme-iconOutline" fill="#464646"/>
    <path id="path1354" d="M10,5.5V5h8.822l.433-.432.432-.433.047.086a1.592,1.592,0,0,0,.488.528,1.231,1.231,0,0,0,.136.081l.028.01-.534.533c-.571.569-.563.561-.693.6-.046.015-.313.016-4.6.02L10,6Z" class="aw-theme-iconOutline" fill="#464646"/>
    <path id="rect1356" d="M5.847,5h4.234V6H5.847Z" class="aw-theme-iconOutline" fill="#464646"/>
    <path id="rect1195-3" d="M14.1,11.99l-.612.791,1.7,1.317.662-.754Zm3.533,2.737-.66.752.416.322L18,15.01Z" class="aw-theme-iconOutline" fill="#464646"/>
    <path id="path850" d="M21.225,10.554a3.293,3.293,0,0,0-1.906.187c-1.541.606-3.475,2.454-5.384,7.218l.668.353c2.155-4.182,4.142-5.528,4.954-6.773.408-.624,1.165-.232,1.534-.153a2.149,2.149,0,0,1,.431.138c.05.023.089.045.116.06a.563.563,0,0,0,.075.041L22,10.846c.059.029-.006,0-.046-.026s-.095-.05-.164-.081A2.8,2.8,0,0,0,21.225,10.554Z" class="aw-theme-iconOutline" fill="#464646"/>
    <path id="path4" d="M6.88,15.233l3.82,1.274L0,21.892.639,23.3l10.642-5.4L9.868,21.635l1.24.459,2.043-5.187a1.353,1.353,0,0,0,.1-.871,1.051,1.051,0,0,0-.633-.449L7.292,13.922Z" class="aw-theme-iconOutline" fill="#464646"/>
    <path id="rect924-0" d="M3,0V2H0C0,4.309,0,6.506,0,8.681H1C1.013,6.787,1.025,4.894,1,3H4V1H23V19.212a20.151,20.151,0,0,0-2.229,1.78A11.812,11.812,0,0,0,19.464,23H18v1h2.409a4.306,4.306,0,0,1,1.274-2.242A12.327,12.327,0,0,1,24,20V0H3Z" class="aw-theme-iconOutline" fill="#464646"/>
  </g>
</svg>
