<svg id="Verb_Zone" xmlns="http://www.w3.org/2000/svg" viewBox="0 0 24 24">
  <g id="g834">
    <g id="g888">
      <path id="rect814" d="M0,18.833,13.674,4.069h0l2.248,1.987h0L2.248,20.82h0Z" class="aw-theme-iconOutline" fill="#464646"/>
      <path id="rect833" d="M13.189,4.579l2.188,2.066,4.187-4.506L17.46,0Zm1.434-.3,2.846-2.964.889.889-2.8,2.964Z" class="aw-theme-iconOutline" fill="#464646"/>
    </g>
    <path id="path840" d="M9.189,5.089,7.965,4.315l-1.221.777.408-1.329L5.985,2.915l1.476-.047.5-1.3.5,1.3,1.477.042L8.778,3.76Z" class="aw-theme-iconOutline" fill="#464646"/>
    <path id="path840-4" d="M13.831,2.168l-.643-.476-.643.478.215-.818L12.147.83,12.922.8l.264-.8.264.8.775.025-.611.524Z" class="aw-theme-iconOutline" fill="#464646"/>
    <g id="g884">
      <path id="rect814-7" d="M4.445,22.013,18.119,7.249h0l2.248,1.987h0L6.693,24h0Z" class="aw-theme-iconOutline" fill="#464646"/>
      <path id="rect833-5" d="M17.634,7.759l2.188,2.066,4.187-4.506-2.1-2.135Zm1.434-.3L21.914,4.5l.889.889L20,8.352Z" class="aw-theme-iconOutline" fill="#464646"/>
    </g>
    <path id="path840-4-9" d="M22.764,2.628l-.643-.476-.643.478.215-.818L21.08,1.29l.775-.029.264-.8.264.8.775.025-.611.524Z" class="aw-theme-iconOutline" fill="#464646"/>
    <path id="path840-4-4-7" d="M23.583,10.848l-.643-.476-.642.478.215-.818L21.9,9.51l.775-.029.263-.8.265.8.775.026-.611.523Z" class="aw-theme-iconOutline" fill="#464646"/>
    <path id="path840-4-3-7-5" d="M21.9,13.476,21.258,13l-.643.478.215-.818-.612-.522.774-.029.264-.8.265.8.775.025-.611.524Z" class="aw-theme-iconOutline" fill="#464646"/>
  </g>
</svg>
