<svg id="svg8" xmlns="http://www.w3.org/2000/svg" viewBox="0 0 24 24">
  <g id="layer1">
    <g id="g819">
      <path id="path820" d="M19.723,1.569a7.039,7.039,0,0,0-1.674,1.367c-.627.551-1.633,1.658-1.633,1.658L13.248,7.811,10,11.01c-.007.008-1.358,1.3-1.656,1.6A3.148,3.148,0,0,0,7.287,14.2a.828.828,0,0,0,.33.689,1.116,1.116,0,0,0,.444.166c.257.052.5.08.535.09.275.093.507.134.672.192a4.6,4.6,0,0,1,.66.273v0a3.21,3.21,0,0,1,.472.326,3.025,3.025,0,0,1,.352.336,4.609,4.609,0,0,1,.334.442c.091.131.185.31.32.509,0,0,.1.219.2.418a.931.931,0,0,0,.243.338.622.622,0,0,0,.408.17.956.956,0,0,0,.572-.269l.727-.828,1.756-2.3,2.6-3.621,2.588-3.662.014-.019a21.472,21.472,0,0,0,1.41-2.014l-.02.034c.158-.24.355-.476.526-.779a1.829,1.829,0,0,0,.24-1.148,2.265,2.265,0,0,0-.922-1.391l-.086-.07a2.613,2.613,0,0,0-1.633-.6,1.034,1.034,0,0,0-.312.091Zm.468,1.042c.13-.019.4.157.786.434a2.223,2.223,0,0,1,.617.648.627.627,0,0,1-.11.459c-.1.183-.29.416-.488.719l-.012.015-.007.019c-.3.535-1.334,1.894-1.334,1.894l-.008.012L17.027,10.5l-2.593,3.6-1.717,2.248-.346.377a.978.978,0,0,0-.059-.116c-.092-.136-.188-.316-.328-.517a5.311,5.311,0,0,0-.42-.551,4.587,4.587,0,0,0-1.113-.893v0a5.289,5.289,0,0,0-.82-.347h0c-.279-.1-.513-.139-.682-.2h0a1.493,1.493,0,0,0-.349-.066,3.915,3.915,0,0,1,.511-.637c.232-.235,1.657-1.611,1.657-1.611l0,0,3.255-3.206,3.194-3.244.006-.007s1.041-1.129,1.55-1.576a9.319,9.319,0,0,1,1.344-1.135h0ZM7.787,15.49a3.193,3.193,0,0,0-.674.053l-.008,0-.035.007a2.78,2.78,0,0,0-1.8,1.057l0,0,0,0c.026-.038-.115.13-.229.254l-.008.007-.09.106v0l0,.007-.051.055a.254.254,0,0,0-.02.023l0,0-.685.783L2.107,16.6l.258,1.438-1.474-.7.361,1.523.174.479.26.531.39.611.02.023s.114.133.267.283a3.566,3.566,0,0,0,.957.72c.369.154.353.159.666.28a3.048,3.048,0,0,0,.912.187c.041,0,.191,0,.231.008a1.489,1.489,0,0,0,.344.008c.186,0,.405,0,.619,0s.421,0,.576-.008l.185,0h.02l.012,0,1.828-.008A1.349,1.349,0,0,0,9.2,21.89c.135-.051.213-.1.317-.146l-.026.011c.177-.071.213-.122.151-.086l.007,0,.006,0a.117.117,0,0,0-.023.011.97.97,0,0,0,.248-.15h0a3.044,3.044,0,0,0,.492-.508c.092-.109.168-.188.27-.318s.216-.306.295-.417A2.6,2.6,0,0,0,11.207,18a3.491,3.491,0,0,0-1.494-1.9,3.779,3.779,0,0,0-1.926-.613ZM7.76,16.584a2.693,2.693,0,0,1,1.367.441,2.411,2.411,0,0,1,1.033,1.3,1.565,1.565,0,0,1-.115,1.329c-.1.137-.207.3-.268.376s-.132.157-.242.288a2.351,2.351,0,0,1-.328.347h0c-.08.062-.119.054.025.008.073-.023.148-.034.057-.015a.627.627,0,0,0-.209.082c-.07.039-.106.055,0,.015l-.012,0-.013.007c-.141.065-.221.108-.246.118s-.01.011-.086.011h0L6.943,20.9H6.93a.108.108,0,0,1-.018,0H6.848l-.194,0c-.156,0-.36,0-.57.008s-.424,0-.6,0-.337-.015-.3-.011h0a3.279,3.279,0,0,1-.748-.114,2.175,2.175,0,0,1-.831-.369c.015.007-.361-.283-.476-.4s-.181-.193-.19-.2L2.656,19.4l1.158.555-.209-1.164.124.072A.949.949,0,0,0,4.32,19a.942.942,0,0,0,.553-.287l.008-.008.748-.854.006,0,.205-.242.012-.015,0,0a2.933,2.933,0,0,0,.3-.348,1.8,1.8,0,0,1,1.108-.615l.009,0,.038-.008a2.211,2.211,0,0,1,.447-.034Z" class="aw-theme-iconOutline" fill="#464646"/>
    </g>
  </g>
</svg>
