<svg version="1.1" id="Verb_x5F_Zone" xmlns="http://www.w3.org/2000/svg" xmlns:xlink="http://www.w3.org/1999/xlink" x="0px"
	 y="0px"  viewBox="0 0 24 24" enable-background="new 0 0 24 24" xml:space="preserve">
<path id="rect814" class="aw-theme-iconOutline" fill="#464646" d="M1.415,20.908L15.089,6.144l0,0l2.248,1.987l0,0
	L3.663,22.895l0,0L1.415,20.908L1.415,20.908z"/>
<path id="rect833" class="aw-theme-iconOutline" fill="#464646" d="M14.604,6.654l2.188,2.066
	l4.187-4.506l-2.104-2.135L14.604,6.654z M16.038,6.358l2.846-2.964l0.889,0.889L16.97,7.247L16.038,6.358z"/>
<path id="path840" class="aw-theme-iconOutline" fill="#464646" d="
	M11.632,6.194L10.408,5.42L9.187,6.197l0.408-1.329L8.428,4.02l1.476-0.047l0.501-1.301l0.504,1.3l1.477,0.042l-1.165,0.851
	L11.632,6.194z"/>
<path id="path840-4" class="aw-theme-iconOutline" fill="#464646" d="
	M16.274,3.273l-0.643-0.476l-0.643,0.478l0.215-0.818l-0.613-0.522l0.775-0.029l0.264-0.801l0.264,0.8l0.775,0.025l-0.611,0.524
	L16.274,3.273z"/>
<path id="path840-4-4" class="aw-theme-iconOutline" fill="#464646" d="
	M22.189,8.309l-0.643-0.476l-0.642,0.478l0.215-0.818l-0.613-0.522l0.775-0.029l0.263-0.8l0.265,0.8l0.775,0.026l-0.611,0.523
	L22.189,8.309z"/>
<path id="path840-4-3-7" class="aw-theme-iconOutline" fill="#464646" d="
	M20.507,10.937l-0.643-0.476l-0.643,0.478l0.215-0.818l-0.612-0.522l0.774-0.029l0.264-0.801l0.265,0.8l0.775,0.025l-0.611,0.524
	L20.507,10.937z"/>
</svg>
