<svg version="1.1" id="Layer_1" xmlns="http://www.w3.org/2000/svg" xmlns:xlink="http://www.w3.org/1999/xlink" x="0px" y="0px"
	 viewBox="0 0 24 24" enable-background="new 0 0 24 24" xml:space="preserve">
<path class="aw-theme-iconOutline" fill="#464646" d="M20.3,12c0.8,0,1.5-0.3,2-0.9c0.5-0.6,0.6-1.3,0.5-2c-1.3-5.8-6.6-9.6-12.5-9C4.9,0.7,0.7,4.9,0.1,10.2
	c-0.4,3.3,0.6,6.5,2.9,9c2.2,2.4,5.3,3.8,8.6,3.8c3.5,0,6.7-1.5,8.9-4.2l-0.8-0.6c-2,2.4-5,3.9-8.1,3.9c-3,0-5.8-1.3-7.8-3.5
	c-2-2.3-2.9-5.2-2.6-8.2c0.5-4.8,4.4-8.7,9.2-9.2C15.7,0.5,20.6,4,21.8,9.3c0.1,0.4,0,0.8-0.3,1.2c-0.3,0.4-0.7,0.6-1.2,0.6
	c0,0,0,0,0,0H8.7l5.6-5.6l-0.7-0.7l-6.9,6.9l6.9,6.9l0.7-0.7L8.7,12H20.3C20.3,12,20.3,12,20.3,12z"/>
</svg>
