<svg id="Image" xmlns="http://www.w3.org/2000/svg" viewBox="0 0 24 24">
  <g id="g853">
    <path id="path841" d="M5.136,2.7H3.694V15.3H5.136Z" class="aw-theme-iconOutline" fill="#464646"/>
    <path id="path839" d="M6.341,2.7H5.86V15.3h.481Z" class="aw-theme-iconOutline" fill="#464646"/>
    <path id="path837" d="M8.025,2.7h-.48V15.3h.48Z" class="aw-theme-iconOutline" fill="#464646"/>
    <path id="path835" d="M9.951,2.7H8.988V15.3h.961Z" class="aw-theme-iconOutline" fill="#464646"/>
    <path id="path833" d="M11.4,2.7h-.481V13.5H11.4Z" class="aw-theme-iconOutline" fill="#464646"/>
    <path id="path827" d="M14.355,10.3h.48V2.7h-.48Z" class="aw-theme-iconOutline" fill="#464646"/>
    <path id="path825" d="M16.04,9.8h.484V2.7h-.48Z" class="aw-theme-iconOutline" fill="#464646"/>
    <path id="path823" d="M13.171,11.5V2.7H12.69v8.8Z" fclass="aw-theme-iconOutline" ill="#464646"/>
    <path id="path821" d="M18.394,9.8V2.7h-.96V9.8Z" class="aw-theme-iconOutline" fill="#464646"/>
    <path id="rect836" d="M0,0V18H10.018c-.012-.166-.018-.333-.018-.5,0-.106.008-.212.016-.318H1V.818H21V10.871c.379,0,.668,0,1,0V0Z" class="aw-theme-iconOutline" fill="#464646"/>
    <path id="path866" d="M17.305,11h-.083a6.5,6.5,0,0,0-4.963,10.33l.711-.713A5.5,5.5,0,0,1,20.6,12.957l.71-.715A6.5,6.5,0,0,0,17.305,11Z" class="aw-theme-iconOutline" fill="#464646"/>
    <path id="path839-8" d="M22.73,13.656l-.713.72a5.5,5.5,0,0,1-7.623,7.656l-.712.718a6.488,6.488,0,0,0,9.048-9.092Z" class="aw-theme-iconOutline" fill="#464646"/>
    <path id="path835-0" d="M17.961,15.277v-2.5a.5.5,0,0,0-1,0v2.5a.5.5,0,0,0,1,0Z" class="aw-theme-iconOutline" fill="#464646"/>
    <path id="path831-8" d="M22.7,17.45a.5.5,0,0,0-.5-.5H19.7a.5.5,0,0,0,0,1h2.5a.5.5,0,0,0,.5-.5Z" class="aw-theme-iconOutline" fill="#464646"/>
    <path id="path829" d="M21.2,21.141a.5.5,0,0,0,0-.707h0l-1.769-1.767a.5.5,0,0,0-.7.707L20.5,21.138a.5.5,0,0,0,.707,0h0Z" class="aw-theme-iconOutline" fill="#464646"/>
    <path id="path827-2" d="M18.03,22.19v-2.5a.5.5,0,1,0-1,0v2.5a.5.5,0,0,0,1,.033h0Z" class="aw-theme-iconOutline" fill="#464646"/>
    <path id="path823-7" d="M15.788,17.518a.5.5,0,0,0-.5-.5h-2.5a.5.5,0,0,0,0,1h2.5a.5.5,0,0,0,.5-.5Z" class="aw-theme-iconOutline" fill="#464646"/>
    <path id="path2-7" d="M16.264,16.3a.5.5,0,0,0,0-.707h0l-1.77-1.769a.5.5,0,1,0-.745.667l.026.027.012.012,1.769,1.77a.5.5,0,0,0,.707,0Z" class="aw-theme-iconOutline" fill="#464646"/>
    <path id="rect870" d="M23.422,11.033l.575.5L11.576,23.959l-.576-.5Z" class="aw-theme-iconOutline" fill="#464646"/>
  </g>
</svg>
