<svg id="Image" xmlns="http://www.w3.org/2000/svg" viewBox="0 0 24 24">
  <g id="g853">
    <path id="path841" d="M5.136,2.7H3.694V15.3H5.136Z" class="aw-theme-iconOutline" fill="#464646"/>
    <path id="path839" d="M6.341,2.7H5.86V15.3h.481Z" class="aw-theme-iconOutline" fill="#464646"/>
    <path id="path837" d="M8.025,2.7h-.48V15.3h.48Z" class="aw-theme-iconOutline" fill="#464646"/>
    <path id="path835" d="M9.951,2.7H8.988V15.3h.961Z" class="aw-theme-iconOutline" fill="#464646"/>
    <path id="path833" d="M11.4,2.7h-.481V13.5H11.4Z" class="aw-theme-iconOutline" fill="#464646"/>
    <path id="path827" d="M14.355,10.3h.48V2.7h-.48Z" class="aw-theme-iconOutline" fill="#464646"/>
    <path id="path825" d="M16.04,9.8h.484V2.7h-.48Z" class="aw-theme-iconOutline" fill="#464646"/>
    <path id="path823" d="M13.171,11.5V2.7H12.69v8.8Z" class="aw-theme-iconOutline" fill="#464646"/>
    <path id="path821" d="M18.394,9.8V2.7h-.96V9.8Z" class="aw-theme-iconOutline" fill="#464646"/>
    <path id="rect836" d="M0,0V18H10.018c-.012-.166-.018-.333-.018-.5,0-.106.008-.212.016-.318H1V.818H21V10.871a7.481,7.481,0,0,1,1,.641V0Z" class="aw-theme-iconOutline" fill="#464646"/>
    <path id="path848" d="M17.307,11h-.08A6.5,6.5,0,1,0,24,17.5h0A6.5,6.5,0,0,0,17.5,11Zm.121,1H17.5A5.5,5.5,0,0,1,23,17.5h0A5.5,5.5,0,1,1,17.428,12Z" class="aw-theme-iconOutline" fill="#464646"/>
    <path id="path847" d="M20.762,13.638a.5.5,0,0,0-.313.14l-1.768,1.769a.5.5,0,0,0,.707.707l1.769-1.768a.5.5,0,0,0-.395-.848Z" class="aw-theme-iconOutline" fill="#464646"/>
    <path id="path843" d="M17.966,15.294v-2.5a.5.5,0,0,0-1,0v2.5a.5.5,0,1,0,1,0Z" class="aw-theme-iconOutline" fill="#464646"/>
    <path id="path839-5" d="M22.708,17.471a.5.5,0,0,0-.5-.5h-2.5a.5.5,0,0,0,0,1h2.5a.5.5,0,0,0,.5-.5Z" class="aw-theme-iconOutline" fill="#464646"/>
    <path id="path837-3" d="M21.208,21.164a.5.5,0,0,0,0-.707L19.44,18.689a.5.5,0,0,0-.707.708L20.5,21.162a.5.5,0,0,0,.707,0Z" class="aw-theme-iconOutline" fill="#464646"/>
    <path id="path835-7" d="M18.035,22.215v-2.5a.5.5,0,0,0-1,0v2.5a.5.5,0,0,0,1,0Z" class="aw-theme-iconOutline" fill="#464646"/>
    <path id="path833-0" d="M14.55,21.215l1.767-1.769a.5.5,0,0,0-.707-.708L13.842,20.5a.5.5,0,0,0,.7.72l.012-.012Z" class="aw-theme-iconOutline" fill="#464646"/>
    <path id="path831" d="M15.793,17.54a.5.5,0,0,0-.5-.5h-2.5a.5.5,0,0,0,0,1h2.5a.5.5,0,0,0,.5-.5Z" class="aw-theme-iconOutline" fill="#464646"/>
    <path id="path2" d="M16.269,16.321a.5.5,0,0,0,0-.707L14.5,13.843a.5.5,0,0,0-.72.7h0l.012.012,1.768,1.767a.5.5,0,0,0,.707,0Z" class="aw-theme-iconOutline" fill="#464646"/>
  </g>
</svg>
