<svg id="svg11" xmlns="http://www.w3.org/2000/svg" viewBox="0 0 24 24">
  <g id="g838">
    <path id="path836" d="M10.5,15.017l.826-.692,2.014,2.383L17.731,11.3l.817.659-5.215,6.492Z" class="aw-theme-iconOutline" fill="#464646"/>
    <path id="path834" d="M14.676,7.989c-.119,0-.238,0-.357,0A6.544,6.544,0,1,0,17.6,20.311L19.289,22l1,1,.438.438a1.917,1.917,0,0,0,2.712-2.711L21,18.287l-.687-.687A6.544,6.544,0,0,0,21,15.5a5.683,5.683,0,0,0,0-1.916A6.561,6.561,0,0,0,14.676,7.989ZM14.291,9.01A5.532,5.532,0,0,1,20,13.938a5.359,5.359,0,0,1,0,1.2A5.532,5.532,0,1,1,14.291,9.01Zm5.434,9.441.275.276,1,1,1.7,1.7a.927.927,0,0,1,0,1.308.944.944,0,0,1-1.308,0L21,22.348l-1-1-1.586-1.586A6.567,6.567,0,0,0,19.725,18.451Z" class="aw-theme-iconOutline" fill="#464646"/>
    <path id="path8" d="M19,3V.5a.5.5,0,0,0-1,0V3H15.25V.5a.5.5,0,0,0-1,0V3H11.5V.5a.5.5,0,0,0-1,0V3H7.75V.5a.5.5,0,0,0-1,0V3H4V.5a.5.5,0,0,0-1,0V3H1V23H18.289l-1-1H2V4H3v.5a.5.5,0,0,0,1,0V4H6.75v.5a.5.5,0,0,0,1,0V4H10.5v.5a.5.5,0,0,0,1,0V4h2.75v.5a.5.5,0,0,0,1,0V4H18v.5a.5.5,0,0,0,1,0V4h1V9.413a7.545,7.545,0,0,1,1,1.356V3Z" class="aw-theme-iconOutline" fill="#464646"/>
  </g>
</svg>
