<svg id="svg8" xmlns="http://www.w3.org/2000/svg" viewBox="0 0 24 24">
  <g id="g836">
    <path id="rect864" d="M0,0H24V1H0Z" class="aw-theme-iconOutline" fill="#464646"/>
    <path id="rect864-5" d="M0,4H24V5H0Z" class="aw-theme-iconOutline" fill="#464646"/>
    <path id="rect881" d="M0,0H1V20H0Z" class="aw-theme-iconOutline" fill="#464646"/>
    <path id="rect881-4" d="M23,0h1V8H23Z" class="aw-theme-iconOutline" fill="#464646"/>
    <path id="rect864-5-7" d="M0,19H8v1H0Z" class="aw-theme-iconOutline" fill="#464646"/>
    <path id="rect864-5-3" d="M3,7H14V8H3Z" class="aw-theme-iconOutline" fill="#464646"/>
    <path id="rect864-5-3-0" d="M3,11h8v1H3Z" class="aw-theme-iconOutline" fill="#464646"/>
    <path id="rect864-5-3-0-1" d="M3,15H8v1H3Z" class="aw-theme-iconOutline" fill="#464646"/>
    <path id="rect864-5-3-0-1-0" d="M20,2h1V3H20Z" class="aw-theme-iconOutline" fill="#464646"/>
    <path id="rect864-5-3-0-1-0-4" d="M18,2h1V3H18Z" class="aw-theme-iconOutline" fill="#464646"/>
    <path id="rect864-5-3-0-1-0-4-1" d="M16,2h1V3H16Z" class="aw-theme-iconOutline" fill="#464646"/>
    <path id="path4" d="M17.905,7.905a6.178,6.178,0,0,0-6.191,6.19,5.818,5.818,0,0,0,.762,2.857l-3.905,3.9A1.879,1.879,0,0,0,8,22.19a1.536,1.536,0,0,0,.571,1.239,1.629,1.629,0,0,0,2.477,0l3.9-3.9a5.825,5.825,0,0,0,2.858.762A6.178,6.178,0,0,0,24,14.1,6.1,6.1,0,0,0,17.905,7.905ZM10.476,22.857a.875.875,0,1,1-1.238-1.238l3.81-3.809a7.63,7.63,0,0,0,1.238,1.238Zm7.429-3.524A5.238,5.238,0,1,1,23.143,14.1,5.285,5.285,0,0,1,17.905,19.333Z" class="aw-theme-iconOutline" fill="#464646"/>
  </g>
</svg>
