<svg id="svg8" xmlns="http://www.w3.org/2000/svg" viewBox="0 0 24 24">
  <g id="layer1">
    <g id="path822">
      <path d="M20.891,22.343c-.238-1.391-1.181-5.2-2.669-6.118-.934-.578-2.373-.079-3.763.4-1.755.609-3.569,1.238-4.745-.133-1.329-1.551-.283-3.521.729-5.426C11.256,9.536,12.1,7.951,11.562,6.8c-.268-.58-1.275-.5-2.781-.316a9.077,9.077,0,0,1-2.914.057c-2.276-.5-3.155-2.972-3.627-4.3l.919-.4.024.067c.407,1.146,1.165,3.281,2.9,3.659a8.448,8.448,0,0,0,2.579-.073c1.58-.195,3.215-.4,3.81.889.746,1.606-.215,3.415-1.143,5.163-.894,1.684-1.738,3.274-.852,4.307.682.8,1.836.469,3.658-.161,1.611-.558,3.276-1.134,4.615-.311,2.14,1.32,3.034,6.244,3.13,6.8Z" class="aw-theme-iconOutline" fill="#464646"/>
    </g>
  </g>
</svg>
