<svg id="svg862" xmlns="http://www.w3.org/2000/svg" viewBox="0 0 24 24">
  <g id="layer1">
    <g id="g1493">
      <path id="path4" d="M5.133,4.846a.5.5,0,0,0,.718-.7L5.84,4.139,3.848,2.147a.5.5,0,0,0-.707,0l-2,2a.5.5,0,0,0,.707.707L2.99,3.711V13h1V3.7Z" class="aw-theme-iconOutline" fill="#464646"/>
      <path id="path4-2" d="M5.132,19.155a.5.5,0,1,1,.718.7l-.011.011L3.847,21.854a.5.5,0,0,1-.707,0l-2-2a.5.5,0,0,1,.707-.707L2.989,20.29V11h1v9.3Z" class="aw-theme-iconOutline" fill="#464646"/>
      <path id="rect1430" d="M9,3h9V4H9Z" class="aw-theme-iconOutline" fill="#464646"/>
      <path id="rect1430-1" d="M9,9H22v1H9Z" class="aw-theme-iconOutline" fill="#464646"/>
      <path id="rect1430-9" d="M9,7H20V8H9Z" class="aw-theme-iconOutline" fill="#464646"/>
      <path id="rect1430-3" d="M9,5H22V6H9Z" class="aw-theme-iconOutline" fill="#464646"/>
      <path id="rect1430-4" d="M9,14H22v1H9Z" class="aw-theme-iconOutline" fill="#464646"/>
      <path id="rect1430-1-6" d="M9,20H22v1H9Z" class="aw-theme-iconOutline" fill="#464646"/>
      <path id="rect1430-9-3" d="M9,18H20v1H9Z" class="aw-theme-iconOutline" fill="#464646"/>
      <path id="rect1430-3-4" d="M9,16h9v1H9Z" class="aw-theme-iconOutline" fill="#464646"/>
    </g>
  </g>
</svg>
