<svg id="svg12" xmlns="http://www.w3.org/2000/svg" viewBox="0 0 24 24">
  <g id="g826">
    <path id="path835" d="M5.46,10.244l.009,2.677L5.476,15.6l.071.11a.515.515,0,0,0,.6.2c.049-.019,2.147-1.594,2.445-1.835.016-.013.542.368,1.246.9a12.09,12.09,0,0,0,1.309.945.524.524,0,0,0,.574-.273,13.361,13.361,0,0,0,.055-2.761V10.244H5.46Zm.786.647a5.859,5.859,0,0,0,4.624,0v3.821L8.9,13.21a.569.569,0,0,0-.693,0l-1.966,1.5Z" class="aw-theme-iconOutline" fill="#464646" stroke="#ed0000" stroke-linejoin="round" stroke-width="0"/>
    <path id="path825" d="M8.691,2.024a4.691,4.691,0,0,0-2.667.768,4.781,4.781,0,0,0-.867.745,4.675,4.675,0,0,0,3.287,7.868c.052,0,.1.014.151.014a4.7,4.7,0,0,0,.1-9.395ZM8.669,3.2A3.523,3.523,0,0,1,8.6,10.244c-.039,0-.073-.01-.112-.011a3.507,3.507,0,0,1-2.466-5.9A3.466,3.466,0,0,1,8.669,3.2Z" class="aw-theme-iconOutline" fill="#464646"/>
    <path id="path823" d="M11.48,5.475,9.023,8.6l-.694.882-.07.088L5.931,6.721l.542-.453L6.792,6,8.267,7.756l.155-.2,2.207-2.768Z" class="aw-theme-iconOutline" fill="#464646"/>
    <path id="rect841" d="M2.055,0A.054.054,0,0,0,2,.053V23.945A.054.054,0,0,0,2.053,24H21.945A.054.054,0,0,0,22,23.947V.055A.054.054,0,0,0,21.947,0H2.055Zm1,1h17.9A.051.051,0,0,1,21,1.051v21.9a.051.051,0,0,1-.051.051H3.051A.051.051,0,0,1,3,22.951V1.051A.051.051,0,0,1,3.051,1Z" class="aw-theme-iconOutline" fill="#464646"/>
    <path id="rect980" d="M9.9,18H18.84v1.1H9.9Z" class="aw-theme-iconOutline" fill="#464646"/>
    <path id="rect980-4" d="M11.057,20h7.121v1.1H11.057Z" class="aw-theme-iconOutline" fill="#464646"/>
  </g>
</svg>
