<svg version="1.1" id="Layer_1" xmlns="http://www.w3.org/2000/svg" xmlns:xlink="http://www.w3.org/1999/xlink" x="0px" y="0px"
	 viewBox="0 0 24 24" enable-background="new 0 0 24 24" xml:space="preserve">
<path class="aw-theme-iconOutline" fill="#464646" d="M20.49,3.509C15.811-1.172,8.196-1.169,3.516,3.513C1.249,5.78,0,8.794,0,12
	c0,3.206,1.248,6.221,3.516,8.488C5.856,22.83,8.929,24,12.004,24c3.073,0,6.146-1.17,8.485-3.51
	C25.17,15.808,25.17,8.191,20.49,3.509z M1,12.001C1,9.062,2.145,6.299,4.223,4.22C6.369,2.073,9.188,1,12.006,1
	c2.659,0,5.312,0.969,7.406,2.881L3.885,19.408C2.028,17.377,1,14.77,1,12.001z M19.782,19.783
	c-4.171,4.171-10.878,4.274-15.19,0.332L20.119,4.588C24.057,8.902,23.953,15.61,19.782,19.783z"/>
</svg>
