<svg id="svg12" xmlns="http://www.w3.org/2000/svg" viewBox="0 0 24 24">
  <g id="g830">
    <g id="g1027">
      <path id="path835" d="M7.487,8.109l.006,1.846,0,1.847.049.076a.377.377,0,0,0,.13.118.387.387,0,0,0,.282.022c.033-.013,1.481-1.1,1.687-1.266.011-.009.374.253.859.623a8.184,8.184,0,0,0,.9.652.363.363,0,0,0,.4-.188,9.259,9.259,0,0,0,.038-1.906V8.109H7.487Zm.543.446a4.047,4.047,0,0,0,3.191,0v2.637L9.864,10.155a.39.39,0,0,0-.478,0L8.03,11.192Z" class="aw-theme-iconOutline" fill="#464646" stroke="#ed0000" stroke-linejoin="round" stroke-width="0"/>
      <path id="path825" d="M9.717,2.436a3.243,3.243,0,0,0-1.841.53,3.3,3.3,0,0,0-.6.515A3.226,3.226,0,0,0,9.546,8.909c.036,0,.069.01.105.01a3.242,3.242,0,0,0,.066-6.483ZM9.7,3.247a2.431,2.431,0,0,1-.05,4.862c-.027,0-.051-.008-.078-.008A2.428,2.428,0,0,1,9.7,3.247Z" class="aw-theme-iconOutline" fill="#464646"/>
      <path id="path823" d="M11.641,4.818l-1.7,2.157-.479.608-.048.061L7.813,5.678l.374-.313.22-.185L9.424,6.392l.107-.135,1.523-1.91Z" class="aw-theme-iconOutline" fill="#464646"/>
      <path id="rect841" d="M5.138,1.04a.037.037,0,0,0-.038.037h0V17.562a.037.037,0,0,0,.037.038H18.862a.037.037,0,0,0,.038-.037h0V1.078a.037.037,0,0,0-.037-.038H5.138Zm.69.69H18.179a.035.035,0,0,1,.031.035V16.876a.035.035,0,0,1-.035.035H5.825a.035.035,0,0,1-.035-.035h0V1.765a.035.035,0,0,1,.035-.035Z" class="aw-theme-iconOutline" fill="#464646"/>
      <path id="rect980" d="M10.549,13.46H16.72v.761H10.549Z" class="aw-theme-iconOutline" fill="#464646"/>
      <path id="rect980-4" d="M11.349,14.84h4.914V15.6H11.349Z" class="aw-theme-iconOutline" fill="#464646"/>
    </g>
    <path id="path825-2" d="M18.57,14.426V15.59l2.941,1.756L12.005,22.93,2.487,17.346,5.432,15.59V14.428l-4.188,2.5a.494.494,0,0,0-.177.675.5.5,0,0,0,.177.177l10.462,6.14a.567.567,0,0,0,.594,0l10.454-6.14a.493.493,0,0,0,0-.852Z" class="aw-theme-iconOutline" fill="#464646"/>
  </g>
</svg>
