<svg id="Image" xmlns="http://www.w3.org/2000/svg" viewBox="0 0 16 16">
  <path d="M11.309,7.871l.753.658-2.3,2.636h0l-.329.376L7.171,9.566l.658-.752L9.335,10.13Zm4.268,7.706a1.379,1.379,0,0,1-1.944,0l-2.151-2.151a4.4,4.4,0,0,1-2.016.506,4.466,4.466,0,1,1,4.466-4.466,4.4,4.4,0,0,1-.506,2.016l2.151,2.151A1.38,1.38,0,0,1,15.577,15.577ZM12.02,11.633a3.379,3.379,0,0,0,.569-.93,3.329,3.329,0,0,0,.243-1.237,3.366,3.366,0,1,0-3.366,3.366,3.322,3.322,0,0,0,2.166-.812A3.458,3.458,0,0,0,12.02,11.633ZM14.8,14.411l-2-2a4.417,4.417,0,0,1-.387.387l2,2a.28.28,0,0,0,.388,0A.278.278,0,0,0,14.8,14.411ZM2,14V3H3V4A.5.5,0,0,0,4,4V3H6.5V4a.5.5,0,0,0,1,0V3H10V4a.5.5,0,0,0,1,0V3h1V4.605a5.543,5.543,0,0,1,1,.652V2H11V.5a.5.5,0,0,0-1,0V2H7.5V.5a.5.5,0,0,0-1,0V2H4V.5a.5.5,0,0,0-1,0V2H1V15H9.5a5.471,5.471,0,0,1-3.156-1Z" class="aw-theme-iconOutline" fill="#464646"/>
</svg>
