<svg id="Layer_1" data-name="Layer 1" xmlns="http://www.w3.org/2000/svg" viewBox="0 0 24 24">
  <g id="g1033">
    <path id="rect870-7-8" d="M7,19H8v4H7Z" class="aw-theme-iconOutline" fill="#464646"/>
    <path id="rect870-7-1-4" d="M8,22v1H2V22Z" class="aw-theme-iconOutline" fill="#464646"/>
    <path id="rect870-7-2-5" d="M5,17v1H2V17Z" class="aw-theme-iconOutline" fill="#464646"/>
    <path id="rect870-6-7-5-2" d="M2,17H3v6H2Z" class="aw-theme-iconOutline" fill="#464646"/>
    <path id="path12-5" d="M4.751,20.814a.5.5,0,0,0,.354.146.342.342,0,0,0,.064,0,.5.5,0,0,0,.368-.244l2.171-3.557a.5.5,0,0,0-.865-.5L5,19.656l-.541-.542a.5.5,0,1,0-.708.708Z" class="aw-theme-iconOutline" fill="#464646"/>
    <path id="rect870-7-8-86" d="M7,10.928H8v4H7Z" class="aw-theme-iconOutline" fill="#464646"/>
    <path id="rect870-7-1-4-74" d="M8,14v1H2V14Z" class="aw-theme-iconOutline" fill="#464646"/>
    <path id="rect870-7-2-5-38" d="M5,9v1H2V9Z" class="aw-theme-iconOutline" fill="#464646"/>
    <path id="rect870-6-7-5-2-3" d="M2,9H3v6H2Z" class="aw-theme-iconOutline" fill="#464646"/>
    <path id="path12-5-9" d="M4.751,12.778a.5.5,0,0,0,.354.146.342.342,0,0,0,.064,0,.5.5,0,0,0,.368-.244L7.708,9.123a.5.5,0,0,0-.865-.5L5,11.62l-.541-.542a.5.5,0,1,0-.708.708Z" class="aw-theme-iconOutline" fill="#464646"/>
    <path id="rect870-7-8-7" d="M7,3H8V7H7Z" class="aw-theme-iconOutline" fill="#464646"/>
    <path id="rect870-7-1-4-4" d="M8,6V7H2V6Z" class="aw-theme-iconOutline" fill="#464646"/>
    <path id="rect870-7-2-5-1" d="M5,1V2H2V1Z" class="aw-theme-iconOutline" fill="#464646"/>
    <path id="rect870-6-7-5-2-9" d="M2,1H3V7H2Z" class="aw-theme-iconOutline" fill="#464646"/>
    <path id="path12-5-6" d="M4.657,4.868a.5.5,0,0,0,.354.146h.064a.5.5,0,0,0,.368-.244L7.614,1.212a.5.5,0,0,0-.865-.5l-1.843,3-.541-.542a.5.5,0,0,0-.708.708Z" class="aw-theme-iconOutline" fill="#464646"/>
    <path id="rect977" d="M11,4H21V5H11Z" class="aw-theme-iconOutline" fill="#464646"/>
    <path id="rect977-5" d="M11,12H21v1H11Z" class="aw-theme-iconOutline" fill="#464646"/>
    <path id="rect977-8" d="M11,20H21v1H11Z" class="aw-theme-iconOutline" fill="#464646"/>
  </g>
</svg>
