<svg id="svg8" xmlns="http://www.w3.org/2000/svg" viewBox="0 0 24 24">
  <g id="layer1">
    <g id="g821">
      <path id="rect817" d="M7.471.572,1,6.917,7.255,13.3l6.471-6.346ZM7.447,1.986l4.865,4.965L7.279,11.886,2.414,6.921Z" class="aw-theme-iconOutline" fill="#464646"/>
      <path id="path835" d="M17.5,12A5.5,5.5,0,1,0,23,17.5,5.5,5.5,0,0,0,17.5,12Zm0,1A4.5,4.5,0,1,1,13,17.5,4.5,4.5,0,0,1,17.5,13Z" class="aw-theme-iconOutline" fill="#464646"/>
      <path id="path8" d="M21.242,7.052,19.453,8.411a5.46,5.46,0,0,0-1.035-4.237A5.523,5.523,0,0,0,13.993,2L14,3a4.491,4.491,0,0,1,4.452,5.339L17.039,6.477l-.8.6,2.419,3.186,3.186-2.419Z" class="aw-theme-iconOutline" fill="#464646"/>
      <path id="path8-1" d="M2.758,16.948l1.79-1.359a5.46,5.46,0,0,0,1.034,4.237A5.525,5.525,0,0,0,10.008,22L10,21a4.491,4.491,0,0,1-4.452-5.339l1.413,1.862.8-.605L5.339,13.732,2.153,16.151Z" class="aw-theme-iconOutline" fill="#464646"/>
    </g>
  </g>
</svg>
