<svg id="Image" xmlns="http://www.w3.org/2000/svg" viewBox="0 0 24 24">
  <path d="M20,3V.5a.5.5,0,0,0-1,0V3H16.25V.5a.5.5,0,0,0-1,0V3H12.5V.5a.5.5,0,0,0-1,0V3H8.75V.5a.5.5,0,0,0-1,0V3H5V.5a.5.5,0,0,0-1,0V3H2V23H22V3Zm1,19H3V4H4v.5a.5.5,0,0,0,1,0V4H7.75v.5a.5.5,0,0,0,1,0V4H11.5v.5a.5.5,0,0,0,1,0V4h2.75v.5a.5.5,0,0,0,1,0V4H19v.5a.5.5,0,0,0,1,0V4h1ZM10,10.576H4v-1h6Zm1.976-.359.826-.692,2.014,2.383L19.207,6.5l.817.659-5.216,6.492ZM10,17.4H4v-1h6Zm1.976-.358.826-.693,2.014,2.384,4.391-5.408.817.658-5.216,6.493Z" class="aw-theme-iconOutline" fill="#464646"/>
</svg>
