<svg version="1.1" id="Verb_x5F_Zone" xmlns="http://www.w3.org/2000/svg" xmlns:xlink="http://www.w3.org/1999/xlink" x="0px"
	 y="0px"  viewBox="0 0 16 16" enable-background="new 0 0 16 16" xml:space="preserve">
<path id="rect815" class="aw-theme-iconOutline" fill="#464646" d="M1.002,0C0.447,0,0,0.447,0,1.002v13.996C0,15.553,0.447,16,1.002,16h13.996
	C15.553,16,16,15.553,16,14.998V1.002C16,0.447,15.553,0,14.998,0H1.002z M1.625,1h12.75C14.722,1,15,1.278,15,1.625V5H1V1.625
	C1,1.278,1.278,1,1.625,1z M5,2C4.448,2,4,2.448,4,3l0,0c0,0.552,0.448,1,1,1l0,0c0.552,0,1-0.448,1-1l0,0C6,2.448,5.552,2,5,2L5,2z
	 M11,2c-0.553,0-1,0.448-1,1l0,0c0,0.552,0.447,1,1,1l0,0c0.553,0,1-0.448,1-1l0,0C12,2.448,11.553,2,11,2L11,2z M5,2.5
	c0.276,0,0.5,0.224,0.5,0.5l0,0c0,0.276-0.224,0.5-0.5,0.5l0,0C4.724,3.5,4.5,3.276,4.5,3l0,0C4.5,2.724,4.724,2.5,5,2.5L5,2.5z
	 M11,2.5c0.276,0,0.5,0.224,0.5,0.5l0,0c0,0.276-0.224,0.5-0.5,0.5l0,0c-0.276,0-0.5-0.224-0.5-0.5l0,0
	C10.5,2.724,10.724,2.5,11,2.5L11,2.5z M1,6h2v2.5H1V6z M4,6h2v2.5H4V6z M7,6h2v2.5H7V6z M10,6h2v2.5h-2V6z M13,6h2v2.5h-2V6z
	 M1,9.5h2v2H1V9.5z M4,9.5h2v2H4V9.5z M7,9.5h2v2H7V9.5z M10,9.5h2v2h-2V9.5z M13,9.5h2v2h-2V9.5z M1,12.5h2V15H1.625
	C1.278,15,1,14.722,1,14.375V12.5z M4,12.5h2V15H4V12.5z M7,12.5h2V15H7V12.5z M10,12.5h2V15h-2V12.5z M13,12.5h2v1.875
	C15,14.722,14.722,15,14.375,15H13V12.5z"/>
</svg>
