<svg version="1.1" id="Livello_2" xmlns="http://www.w3.org/2000/svg" xmlns:xlink="http://www.w3.org/1999/xlink" x="0px" y="0px"
	 viewBox="0 0 24 24" enable-background="new 0 0 24 24" xml:space="preserve">
<path id="path814" class="aw-theme-iconOutline" fill="#464646" d="M4.244,4.763c-1.795,0-3.25,1.455-3.25,3.25s1.455,3.25,3.25,3.25s3.25-1.455,3.25-3.25
	S6.039,4.763,4.244,4.763z M12.02,4.763c-1.795,0-3.25,1.455-3.25,3.25s1.455,3.25,3.25,3.25s3.25-1.455,3.25-3.25
	S13.814,4.763,12.02,4.763z M19.795,4.763c-1.795,0-3.25,1.455-3.25,3.25s1.455,3.25,3.25,3.25s3.25-1.455,3.25-3.25
	S21.59,4.763,19.795,4.763z M4.244,5.763c1.243,0,2.25,1.007,2.25,2.25s-1.007,2.25-2.25,2.25s-2.25-1.007-2.25-2.25
	S3.001,5.763,4.244,5.763z M11.928,5.767V8.05l0.059,2.211c-1.229-0.018-2.216-1.019-2.217-2.248
	C9.771,6.807,10.723,5.816,11.928,5.767z M19.826,12.634l-0.754,0.713l2.061,2.115H0.955v1h20.154l-2.037,2.074l0.748,0.701
	l3.174-3.232l-0.027-0.025l0.061-0.059L19.826,12.634z"/>
</svg>
