<svg id="svg8" xmlns="http://www.w3.org/2000/svg" viewBox="0 0 24 24">
  <g id="layer1">
    <g id="g841">
      <path id="rect815" d="M1.722,0A1.485,1.485,0,0,0,.25,1.5V22.5A1.485,1.485,0,0,0,1.722,24H22.278a1.485,1.485,0,0,0,1.472-1.5V1.5A1.485,1.485,0,0,0,22.278,0Zm.486,1H21.792a1.034,1.034,0,0,1,.979,1V22a1.034,1.034,0,0,1-.979,1H2.208a1.034,1.034,0,0,1-.979-1V2A1.034,1.034,0,0,1,2.208,1Z" class="aw-theme-iconOutline" fill="#464646" fill-rule="evenodd"/>
      <path id="path834" d="M7.553,2.5a2,2,0,0,0-2,2h0a2,2,0,0,0,2,2h0a2,2,0,0,0,2-2h0a2,2,0,0,0-2-2Zm0,1a1,1,0,0,1,1,1h0a1,1,0,0,1-1,1h0a1,1,0,0,1-1-1h0a1,1,0,0,1,1-1Z" class="aw-theme-iconOutline" fill="#464646" fill-rule="evenodd"/>
      <path id="path834-0" d="M16.553,2.5a2,2,0,0,0-2,2h0a2,2,0,0,0,2,2h0a2,2,0,0,0,2-2h0a2,2,0,0,0-2-2Zm0,1a1,1,0,0,1,0,2h0a1,1,0,0,1-1-1h0A1,1,0,0,1,16.553,3.5Z" class="aw-theme-iconOutline" fill="#464646" fill-rule="evenodd"/>
      <path id="rect854" d="M1.089,7.929H23.25V9H1.089Z" class="aw-theme-iconOutline" fill="#464646" fill-rule="evenodd"/>
      <path id="rect856" d="M4.75,9h1V23h-1Z" class="aw-theme-iconOutline" fill="#464646" fill-rule="evenodd"/>
      <path id="rect856-6" d="M9.25,9h1V23h-1Z" class="aw-theme-iconOutline" fill="#464646" fill-rule="evenodd"/>
      <path id="rect856-1" d="M13.75,9h1V23h-1Z" class="aw-theme-iconOutline" fill="#464646" fill-rule="evenodd"/>
      <path id="rect856-5" d="M18.253,9h1V23h-1Z" class="aw-theme-iconOutline" fill="#464646" fill-rule="evenodd"/>
      <path id="rect885" d="M1.121,12.966H23.25V14H1.121Z" class="aw-theme-iconOutline" fill="#464646" fill-rule="evenodd"/>
      <path id="rect893" d="M1.186,18H23.25v1H1.186Z" class="aw-theme-iconOutline" fill="#464646" fill-rule="evenodd"/>
    </g>
  </g>
</svg>
