<svg id="Image" xmlns="http://www.w3.org/2000/svg" viewBox="0 0 24 24">
  <path d="M20.718,23H3.283V1H20.718ZM4.283,22H19.718V2H4.283Zm12.105-2.03.11.473.106.475-.149.047A3.115,3.115,0,0,1,16,21a2.936,2.936,0,0,1-.7-.084l.236-.971a1.962,1.962,0,0,0,.7.04m1.333.576-.523-.852a2.007,2.007,0,0,0,.575-.53l.807.591A3.031,3.031,0,0,1,17.563,20.562Zm-3.328-.135a3.047,3.047,0,0,1-.792-.855l.85-.527a2.007,2.007,0,0,0,.532.573Zm4.682-1.716-.973-.236A1.973,1.973,0,0,0,18,18a2.152,2.152,0,0,0-.024-.308l.979-.2.013.087A2.864,2.864,0,0,1,19,18,3.019,3.019,0,0,1,18.917,18.711Zm-5.876-.219-.012-.112A2.151,2.151,0,0,1,13,18a2.976,2.976,0,0,1,.081-.689l.973.228A2.065,2.065,0,0,0,14,18a2.152,2.152,0,0,0,.024.308Zm4.659-1.55a1.992,1.992,0,0,0-.534-.568l.584-.812a3,3,0,0,1,.8.851Zm-3.322-.113-.811-.586a3,3,0,0,1,.856-.8l.525.852A1.989,1.989,0,0,0,14.378,16.829Zm2.075-.777a1.96,1.96,0,0,0-.758-.029l-.161-.987.024,0a3.058,3.058,0,0,1,1.13.046ZM12,5.95a.5.5,0,0,0-.5-.5h-6a.5.5,0,0,0,0,1h6A.5.5,0,0,0,12,5.95Zm0,5.25a.5.5,0,0,0-.5-.5h-6a.5.5,0,0,0,0,1h6A.5.5,0,0,0,12,11.2Zm0,6.3a.5.5,0,0,0-.5-.5h-6a.5.5,0,0,0,0,1h6A.5.5,0,0,0,12,17.5ZM18.322,4a.5.5,0,0,0-.7.06l-1.46,1.733L15.244,4.9a.5.5,0,0,0-.7.715l1.3,1.27s.011.006.015.01.007.011.012.015a.452.452,0,0,0,.1.055.5.5,0,0,0,.05.029.493.493,0,0,0,.177.034.509.509,0,0,0,.2-.043.47.47,0,0,0,.059-.04.477.477,0,0,0,.1-.068s.006-.011.01-.015.011-.007.015-.012L18.383,4.7A.5.5,0,0,0,18.322,4Zm0,5.245a.5.5,0,0,0-.7.06l-1.46,1.733-.913-.893a.5.5,0,1,0-.7.715l1.3,1.27s.011.006.015.011.007.01.012.014a.447.447,0,0,0,.092.053.486.486,0,0,0,.053.031.5.5,0,0,0,.177.034.509.509,0,0,0,.2-.043.383.383,0,0,0,.059-.04.473.473,0,0,0,.1-.067s.006-.011.01-.016.011-.007.015-.012l1.808-2.146A.5.5,0,0,0,18.322,9.245Z" class="aw-theme-iconOutline" fill="#464646"/>
</svg>
