<svg version="1.1" id="Artwork" xmlns="http://www.w3.org/2000/svg" xmlns:xlink="http://www.w3.org/1999/xlink" x="0px" y="0px"
	 width="24px" height="24px" viewBox="0 0 24 24" enable-background="new 0 0 24 24" xml:space="preserve">
	<path class="aw-theme-iconOutline" fill="#464646" d="M18.8,17H15v-1h3.8c2.3,0,4.2-2,4.2-4.4c0-1.3-0.5-2.5-1.5-3.4c-0.9-0.8-2-1.2-3.2-1l-0.4,0l-0.1-0.4
		c-0.5-1.8-2-3.7-4.8-3.3l-0.2,0l-0.2-0.2C11,2,9.1,1.5,7.3,2.1c-2.1,0.7-3.7,2.8-4,5.4l0,0.2L3,7.9C1,9.3,0.7,11.5,1.2,13
		c0.6,1.8,2,3,3.8,3h3v1H5c-2.1,0-4-1.5-4.7-3.7c-0.6-1.8-0.3-4.4,2-6.2C2.8,4.3,4.6,2,7,1.2c2.1-0.7,4.3-0.3,6.1,1.3
		c2.9-0.3,4.8,1.5,5.6,3.7c1.3,0,2.5,0.4,3.5,1.3c1.2,1,1.8,2.5,1.8,4.1C24,14.5,21.6,17,18.8,17z"/>
<path class="aw-theme-iconOutline" fill="#464646" d="M15.1,19.1L12,22.3V10h-1v12.3l-3.1-3.1l-0.7,0.7l4,4c0.1,0.1,0.2,0.1,0.4,0.1s0.3,0,0.4-0.1l4-4L15.1,19.1z
	"/>
</svg>
