<svg version="1.1" id="Verb_x5F_Zone" xmlns="http://www.w3.org/2000/svg" xmlns:xlink="http://www.w3.org/1999/xlink" x="0px"
	 y="0px"  viewBox="0 0 16 16" enable-background="new 0 0 16 16" xml:space="preserve">
<path id="polygon2" class="aw-theme-iconOutline" fill="#464646" d="M13.784,0.003c-0.573-0.028-1.149,0.158-1.6,0.576l-2.59,2.404L8.962,2.354l-0.791,0.77
	l4.602,4.678l0.779-0.781l-0.625-0.643l2.441-2.51c0.857-0.88,0.861-2.292-0.008-3.16C14.926,0.273,14.357,0.031,13.784,0.003z
	 M13.673,0.964c0.323-0.007,0.646,0.13,0.936,0.42c0.578,0.579,0.545,1.26-0.035,1.836l-2.41,2.387l-1.813-1.855l2.383-2.342
	C13.025,1.122,13.35,0.971,13.673,0.964z M8.317,4.841l-6.336,6.104l-1.992,3.572l1.395,1.412l3.598-2l6.077-6.302L10.29,6.854
	l-6.11,6.179l-2.842,1.531l1.539-2.834l6.204-6.112L8.317,4.841z"/>
</svg>
