<svg id="svg8" xmlns="http://www.w3.org/2000/svg" viewBox="0 0 24 24">
  <g id="g844">
    <path id="path839" d="M7.449.028C6.874.019,6.3.039,5.725.087A7.007,7.007,0,0,0,1,1.991,3.427,3.427,0,0,0,.055,3.686C0,3.883,0,4.269,0,9.1V14.31l.09.316a3.749,3.749,0,0,0,.519,1.1c1.1,1.537,3.444,2.536,6.2,2.636a12.562,12.562,0,0,0,3.007-.3L10.107,18l-.043-.148c-.027-.081-.08-.288-.127-.461s-.089-.325-.089-.325a2.9,2.9,0,0,0-.336.071,11.375,11.375,0,0,1-2.672.254,7.748,7.748,0,0,1-5.012-1.745,2.8,2.8,0,0,1-.65-.861c-.21-.458-.2-.135-.211-4.449L.957,6.427l.309.259a8.785,8.785,0,0,0,4.97,1.791,16,16,0,0,0,2.543-.062,10.907,10.907,0,0,0,2.3-.555,7.233,7.233,0,0,0,2.107-1.224l.229-.211V10.8h.975V7.458c0-3.564,0-3.613-.155-4.053a3.756,3.756,0,0,0-.437-.844A5.411,5.411,0,0,0,12.754,1.55,7.4,7.4,0,0,0,11.045.663,11.292,11.292,0,0,0,8.619.087Q8.036.038,7.449.028ZM6.908,1q.849-.013,1.7.058a7.12,7.12,0,0,1,4.058,1.686,2.165,2.165,0,0,1,.729,1.275C13.542,5,12.774,6,11.357,6.683a9.118,9.118,0,0,1-2.707.773A20.358,20.358,0,0,1,6.119,7.5,8.506,8.506,0,0,1,2.234,6.218a4.477,4.477,0,0,1-.955-.959A1.8,1.8,0,0,1,1,3.94,3.479,3.479,0,0,1,3.058,1.764a8.645,8.645,0,0,1,2.684-.7Q6.324,1.015,6.908,1Z" class="aw-theme-iconOutline" fill="#464646"/>
    <path id="path2" d="M23.135,18.276a4.755,4.755,0,1,1-4.754-4.847H20.8l-1.9,1.939.606.617,2.939-3-2.853-3-.692.705,1.9,1.851H18.38A5.73,5.73,0,1,0,24,18.38c0-.034,0-.069,0-.1Z" class="aw-theme-iconOutline" fill="#464646"/>
  </g>
</svg>
