<svg version="1.1" id="Artwork" xmlns="http://www.w3.org/2000/svg" xmlns:xlink="http://www.w3.org/1999/xlink" x="0px" y="0px"
	 width="16px" height="16px" viewBox="0 0 16 16" enable-background="new 0 0 16 16" xml:space="preserve">
<polygon class="aw-theme-iconOutline" fill="#464646" points="10.4,5.4 9.6,4.6 7.5,6.8 5.4,4.6 4.6,5.4 6.8,7.5 4.6,9.6 5.4,10.4 7.5,8.2 9.6,10.4 10.4,9.6 
	8.2,7.5 "/>
<path class="aw-theme-iconOutline" fill="#464646" d="M7.5,15C3.4,15,0,11.6,0,7.5S3.4,0,7.5,0S15,3.4,15,7.5S11.6,15,7.5,15z M7.5,1C3.9,1,1,3.9,1,7.5
	S3.9,14,7.5,14S14,11.1,14,7.5S11.1,1,7.5,1z"/>
</svg>
