<svg version="1.1" id="Artwork" xmlns="http://www.w3.org/2000/svg" xmlns:xlink="http://www.w3.org/1999/xlink" x="0px" y="0px"
	 width="24px" height="24px" viewBox="0 0 24 24" enable-background="new 0 0 24 24" xml:space="preserve">
<polygon class="aw-theme-iconOutline" fill="#464646" points="15.9,7.9 15.1,7.1 11.5,10.8 7.9,7.1 7.1,7.9 10.8,11.5 7.1,15.1 7.9,15.9 11.5,12.2 15.1,15.9 
	15.9,15.1 12.2,11.5 "/>
<path class="aw-theme-iconOutline" fill="#464646" d="M11.5,23C5.2,23,0,17.8,0,11.5S5.2,0,11.5,0S23,5.2,23,11.5S17.8,23,11.5,23z M11.5,1C5.7,1,1,5.7,1,11.5
	S5.7,22,11.5,22S22,17.3,22,11.5S17.3,1,11.5,1z"/>
</svg>
