<svg version="1.1" id="Livello_2" xmlns="http://www.w3.org/2000/svg" xmlns:xlink="http://www.w3.org/1999/xlink" x="0px" y="0px"
	  viewBox="0 0 16 16" enable-background="new 0 0 16 16" xml:space="preserve">
<path id="path1613" class="aw-theme-iconOutline" fill="#464646" d="M8,0C3.777,0.001,0.282,3.285,0.018,7.5H0V8v0.5h0.025C0.289,12.712,3.78,15.994,8,16
	c4.418,0,8-3.582,8-8l0,0C16,3.582,12.418,0,8,0L8,0z M8,1c0.836,0.003,1.633,0.818,2.199,2.25H5.801C6.368,1.818,7.165,1.003,8,1z
	 M10.236,1.373c1.107,0.374,2.104,1.02,2.896,1.877h-1.92C10.943,2.518,10.613,1.883,10.236,1.373z M5.756,1.379
	C5.382,1.889,5.055,2.521,4.787,3.25H2.871C3.662,2.396,4.654,1.753,5.756,1.379z M2.098,4.25h2.373
	C4.203,5.255,4.044,6.363,4.008,7.5H1.025C1.108,6.345,1.477,5.228,2.098,4.25z M5.471,4.25h5.061
	c0.267,0.978,0.425,2.094,0.461,3.25h-5.98C5.047,6.345,5.205,5.228,5.471,4.25z M11.531,4.25h2.377
	c0.621,0.978,0.99,2.094,1.074,3.25h-2.994C11.953,6.364,11.797,5.256,11.531,4.25z M1.018,8.5h2.994
	c0.035,1.093,0.181,2.16,0.43,3.135H2.025C1.445,10.686,1.1,9.61,1.018,8.5z M5.008,8.5h5.98c-0.033,1.109-0.181,2.184-0.428,3.135
	H5.439C5.191,10.685,5.043,9.61,5.008,8.5z M11.992,8.5h2.982c-0.08,1.109-0.424,2.185-1.002,3.135h-2.41
	C11.812,10.66,11.957,9.593,11.992,8.5z M2.766,12.635h1.979c0.277,0.781,0.623,1.455,1.02,1.992
	C4.608,14.235,3.574,13.549,2.766,12.635z M5.756,12.635h4.488C9.676,14.137,8.859,14.997,8,15
	C7.141,14.997,6.324,14.137,5.756,12.635z M11.254,12.635h1.982c-0.808,0.911-1.839,1.596-2.992,1.986
	C10.637,14.084,10.979,13.412,11.254,12.635z"/>
</svg>
