<svg version="1.1" id="Livello_2" xmlns="http://www.w3.org/2000/svg" xmlns:xlink="http://www.w3.org/1999/xlink" x="0px" y="0px"
	  viewBox="0 0 24 24" enable-background="new 0 0 24 24" xml:space="preserve">
<path id="rect814" class="aw-theme-iconOutline" fill="#464646" d="M1.5,1C1.223,1,1,1.223,1,1.5v21C1,22.777,1.223,23,1.5,23S2,22.777,2,22.5V2h20v20H12v-8.008
	l2.5-0.006L11.533,9L8.5,14l2.5-0.006v8.451c0,0.011,0.005,0.02,0.006,0.029C11.005,22.483,11,22.49,11,22.5
	c0,0.277,0.223,0.5,0.5,0.5h11c0.277,0,0.5-0.223,0.5-0.5v-21C23,1.223,22.777,1,22.5,1H1.5z"/>
</svg>
