<svg id="svg8" xmlns="http://www.w3.org/2000/svg" viewBox="0 0 24 24">
  <g id="layer1">
    <g id="g824">
      <path id="path828" d="M10.388,23.849a10.782,10.782,0,0,1-6.212-2.5,4.192,4.192,0,0,1-1.214-2.267l-.092-.336V5.14l.092-.348a5.335,5.335,0,0,1,3.117-3.5A13.33,13.33,0,0,1,10.225.164,26.408,26.408,0,0,1,13.86.179a14.675,14.675,0,0,1,3.132.748,4.03,4.03,0,0,0,.491.156,11.007,11.007,0,0,1,1.462.813,4.667,4.667,0,0,1,2.073,2.881l.1.364V18.62L21,19.028a5.613,5.613,0,0,1-3.142,3.6,12.771,12.771,0,0,1-3.96,1.165,22.973,22.973,0,0,1-3.513.03Zm2.3-.983a10.619,10.619,0,0,0,5.7-1.791,4.6,4.6,0,0,0,1.559-2.209l.095-.286.012-5.08.012-5.081-.222.206a10.68,10.68,0,0,1-5.621,2.355,16.836,16.836,0,0,1-5.29-.138A10.5,10.5,0,0,1,4.231,8.72l-.338-.29.012,5.1.012,5.1.114.329A4.494,4.494,0,0,0,5.184,20.8a10.264,10.264,0,0,0,5.976,2.075A11.947,11.947,0,0,0,12.69,22.866Zm1.17-12.9a9.119,9.119,0,0,0,5.271-2.224,2.925,2.925,0,0,0,.834-1.321,6.522,6.522,0,0,0-.019-1.877C19.377,2.579,16.294,1.145,12.635,1c-3.3-.134-6.258.733-7.8,2.282A3.2,3.2,0,0,0,4.159,7,5.3,5.3,0,0,0,5.515,8.333,10.2,10.2,0,0,0,8.157,9.548a14.131,14.131,0,0,0,2.681.487c.365.034,2.574-.008,3.022-.075Z" class="aw-theme-iconOutline" fill="#464646" stroke="#464646" stroke-linecap="round" stroke-width="0.009"/>
    </g>
  </g>
</svg>
