<svg id="Image" xmlns="http://www.w3.org/2000/svg" viewBox="0 0 24 24">
  <g id="g852">
    <path id="path932" d="M9.4.039c-.1,0-1.011.5-4.691,2.607C1.741,4.344.122,5.289.074,5.354,0,5.452,0,5.469,0,10.734v5.282l.107.1c.06.057,2.155,1.273,4.657,2.7,4.111,2.348,4.56,2.594,4.674,2.578.057-.007.634-.389,1.515-.884a6.952,6.952,0,0,1-.217-.752c-.86.491-1.332.821-1.338.82-.027,0-.831-.463-4.687-2.668l-3.92-2.24-.01-4.949L.773,5.777,4.936,3.4C7.225,2.087,9.166.975,9.25.926L9.4.838l2.11,1.18c1.16.649,2.113,1.2,2.119,1.218s-.841.707-1.881,1.528S9.83,6.3,9.793,6.342c-.149.189-.054.454.209.578.095.045.57.264,1.055.486,1.8.826,2.246,1.033,2.256,1.041s-.406,1.284-.928,2.842a4.6,4.6,0,0,0-.311,1.027.4.4,0,0,0,.13-.074,7.878,7.878,0,0,0,.818-.549l.373-1.05c.434-1.295.789-2.379.789-2.411a.507.507,0,0,0-.057-.166c-.044-.085-.137-.146-.43-.283a1.869,1.869,0,0,1-.377-.205c0-.016.059-.2.129-.406.125-.367.136-.381.352-.559.122-.1.994-.811,1.939-1.578l1.719-1.392.582.33c.32.182,1.162.666,1.869,1.072l1.285.738-.009,4.94,0,.439a7.066,7.066,0,0,1,.767.447V5.414l-.082-.088c-.089-.1-4.242-2.481-4.389-2.517a.344.344,0,0,0-.175.009c-.046.018-.633.478-1.3,1.024l-1.223.992-.017-.889c-.02-.967-.029-1.008-.227-1.109-.063-.032-1.216-.675-2.56-1.428A22.122,22.122,0,0,0,9.4.039Zm4.537,4c.028.021.029.168.022.711l-.01.746-.414.336c-.661.537-.615.482-.787.973a2.607,2.607,0,0,1-.178.439c-.047,0-1.7-.766-1.695-.787S13.713,4.184,13.9,4.051C13.919,4.039,13.93,4.032,13.939,4.039Z" class="aw-theme-iconOutline" fill="#464646"/>
    <path id="path934" d="M9.161,20.631,9,20.532l.016-4.895L9.006,10.93,4.888,8.578.713,6.194l.01-.216.011-.216.2-.107.2-.106L5.253,7.9c2.236,1.278,4.089,2.332,4.117,2.343s.837-.422,1.809-.967L13.114,8.2l.177.09c.146.074.172.1.153.162-.013.041-.06.182-.1.313l-.08.24-1.811,1.007-1.633.919-.01,4.7-.034,4.886-.189.108a1.017,1.017,0,0,1-.224.106A1.013,1.013,0,0,1,9.161,20.631Z" class="aw-theme-iconOutline" fill="#464646"/>
    <path id="path936" d="M20.854,5.517,18.883,6.668c-1.043.6-1.925,1.093-1.959,1.1s-.708-.275-1.5-.631l-1.5-.674-.16.137c-.2.169-.287.285-.3.4-.009.082.139.153,1.5.766.8.358,1.454.659,1.465.67s-.222.74-.7,2.205a7.125,7.125,0,0,1,.926-.285C17.106,9,17.273,8.5,17.3,8.48s.912-.532,1.959-1.132l1.978-1.156V5.954l0-.238-.191-.1Z" class="aw-theme-iconOutline" fill="#464646"/>
    <path id="path996" d="M15,16.5a2,2,0,1,0,2,2A2,2,0,0,0,15,16.5Z" class="aw-theme-iconOutline" fill="#464646"/>
    <path id="path994" d="M20.375,16.5a2,2,0,1,0,2,2A2,2,0,0,0,20.375,16.5Zm0,.5a1.5,1.5,0,1,1-1.5,1.5A1.5,1.5,0,0,1,20.375,17Z" class="aw-theme-iconOutline" fill="#464646"/>
    <path id="path2-2" d="M17.533,24a6.487,6.487,0,1,1,.026,0Zm0-12a5.5,5.5,0,1,0,5.5,5.5A5.5,5.5,0,0,0,17.533,12Z" class="aw-theme-iconOutline" fill="#464646"/>
    <path id="path8" d="M19.653,13.419l.019,1.454a3.534,3.534,0,0,0-2.6-1.092,3.576,3.576,0,0,0-2.835,1.466l.523.381a2.909,2.909,0,0,1,4.493-.262l-1.513.019,0,.647L20.329,16,20.3,13.411Z" class="aw-theme-iconOutline" fill="#464646"/>
  </g>
</svg>
