<svg id="svg8" xmlns="http://www.w3.org/2000/svg" viewBox="0 0 24 24">
  <g id="layer1">
    <g id="g833">
      <path id="path2" d="M17.5,24A6.5,6.5,0,1,1,24,17.5,6.487,6.487,0,0,1,17.5,24Zm0-12A5.5,5.5,0,1,0,23,17.5,5.549,5.549,0,0,0,17.5,12Z" class="aw-theme-iconOutline" fill="#464646"/>
      <path id="path830-1" d="M17.542,13.066l-1.87,2.561-1.244,1.705h1.135l.984-1.415.989-1.422.987,1.422.985,1.415h1.148l-1.244-1.7Z" class="aw-theme-iconOutline" fill="#464646"/>
      <path id="path830-1-7" d="M17.542,16.734,15.672,19.3,14.428,21h1.135l.983-1.415.99-1.421.987,1.421L19.508,21h1.148l-1.244-1.7Z" class="aw-theme-iconOutline" fill="#464646"/>
      <path id="path827" d="M6.556,18.352A9.977,9.977,0,0,1,2.75,17.43,4.631,4.631,0,0,1,.1,14.717l-.087-.279L0,9.248C0,5.468,0,4,.03,3.828.335,1.875,2.83.334,6.148.049a17,17,0,0,1,2.044,0A10.868,10.868,0,0,1,11.07.675a1.806,1.806,0,0,0,.35.11,10.5,10.5,0,0,1,1.327.765,3.708,3.708,0,0,1,1.593,2.3c.021.13.033,1.428.033,3.578v3.373H13.4L13.39,8.638,13.382,6.47l-.236.2A8.745,8.745,0,0,1,8.538,8.451a19.511,19.511,0,0,1-2.8-.015,11.554,11.554,0,0,1-2.5-.6A7.117,7.117,0,0,1,1.2,6.638L.973,6.427v3.879c0,2.471.012,3.932.032,4.022.252,1.131,1.567,2.179,3.371,2.687a9.643,9.643,0,0,0,2.761.373,9.677,9.677,0,0,0,2.434-.264,1.118,1.118,0,0,1,.262-.048c.008.007.063.2.123.418s.116.427.125.456-.034.063-.261.116a10.926,10.926,0,0,1-2.116.288c-.338.015-.628.03-.645.026s-.244-.015-.5-.026ZM8.648,7.457c3.037-.431,5.032-1.918,4.72-3.516-.247-1.259-1.962-2.387-4.248-2.792a12.169,12.169,0,0,0-3.838-.015C3.3,1.469,1.633,2.417,1.143,3.489a1.667,1.667,0,0,0-.169.779C.972,5.75,3,7.1,5.754,7.451a8.016,8.016,0,0,0,1.589.065,11.793,11.793,0,0,0,1.3-.06Z" class="aw-theme-iconOutline" fill="#464646" stroke="#147391" stroke-linecap="round" stroke-miterlimit="10" stroke-width="0.001"/>
    </g>
  </g>
</svg>
