<svg id="Layer_1" data-name="Layer 1" xmlns="http://www.w3.org/2000/svg" viewBox="0 0 24 24">
  <g id="g826">
    <path id="path2" d="M3,1H16V8h1V0H0V23H9V22H3ZM1,1H2V22H1Z" class="aw-theme-iconOutline" fill="#464646"/>
    <path id="path4" d="M13.5,4h-8A1.5,1.5,0,0,0,4,5.5v4A1.5,1.5,0,0,0,5.5,11h8A1.5,1.5,0,0,0,15,9.5v-4A1.5,1.5,0,0,0,13.5,4ZM14,9.5a.5.5,0,0,1-.5.5h-8A.5.5,0,0,1,5,9.5v-4A.5.5,0,0,1,5.5,5h8a.5.5,0,0,1,.5.5Z" class="aw-theme-iconOutline" fill="#464646"/>
    <path id="rect6" d="M6,8h6V9H6Z" class="aw-theme-iconOutline" fill="#464646"/>
    <path id="rect8" d="M6,6h7V7H6Z" class="aw-theme-iconOutline" fill="#464646"/>
    <path id="path2-4" d="M15.452,21a3.5,3.5,0,1,1,3.5-3.5A3.5,3.5,0,0,1,15.452,21Zm0-6a2.5,2.5,0,1,0,2.5,2.5A2.5,2.5,0,0,0,15.452,15Z" class="aw-theme-iconOutline" fill="#464646"/>
    <path id="path4-9" d="M15.452,23a9.643,9.643,0,0,1-8.436-5.269.5.5,0,0,1,0-.481A9.657,9.657,0,0,1,15.452,12a9.658,9.658,0,0,1,8.44,5.259.5.5,0,0,1,0,.482A9.658,9.658,0,0,1,15.452,23ZM8.027,17.491A8.615,8.615,0,0,0,15.452,22a8.632,8.632,0,0,0,7.427-4.5A8.632,8.632,0,0,0,15.452,13,8.631,8.631,0,0,0,8.027,17.491Z" class="aw-theme-iconOutline" fill="#464646"/>
  </g>
</svg>
