<svg id="Layer_1" data-name="Layer 1" xmlns="http://www.w3.org/2000/svg" viewBox="0 0 24 24">
  <g id="g823">
    <path id="polygon8" d="M10,19H0V0H22V8H21V1H1V18h9Z" class="aw-theme-iconOutline" fill="#464646"/>
    <path id="path10" d="M20,3H12V7h4V8H7V6h3V2H2V6H6v5H2v4h8V14H5V12h5V11H7V9H17V7h3ZM9,5H5V3H9ZM3,3H4V5H3ZM4,14H3V12H4ZM13,4h1V6H13Zm6,2H15V4h4Z" class="aw-theme-iconOutline" fill="#464646"/>
    <path id="rect853" d="M9,12h1v2H9Z" class="aw-theme-iconOutline" fill="#464646"/>
    <path id="polygon4-1" d="M18,11h5V23H18V19H17v5h7V10H17v4h1Z" class="aw-theme-iconOutline" fill="#464646"/>
    <path id="polygon2-3" d="M9.057,16v1h7l-3.7,3.6.8.8,4.8-4.9-4.8-4.9-.8.8,3.7,3.6Z" class="aw-theme-iconOutline" fill="#464646"/>
  </g>
</svg>
