<svg id="Layer_1" data-name="Layer 1" xmlns="http://www.w3.org/2000/svg" viewBox="0 0 24 24">
  <g id="g843">
    <path id="path841" d="M12.925,2.5V9.332L10.759,7.166l-.584.584L13.525,11l3.35-3.25-.75-.668-2.166,2.25V2.5Z" class="aw-theme-iconOutline" fill="#464646"/>
    <path id="path2-2" d="M17.5,24.1A6.5,6.5,0,1,1,24,17.6,6.487,6.487,0,0,1,17.5,24.1Zm0-12A5.5,5.5,0,1,0,23,17.6,5.549,5.549,0,0,0,17.5,12.1Z" class="aw-theme-iconOutline" fill="#464646"/>
    <path id="polygon4" d="M21,17.1H18v-3H17v3H14v1h3v3h1v-3h3Z" class="aw-theme-iconOutline" fill="#464646"/>
    <path id="rect848" d="M0,0H10V1H0Z" class="aw-theme-iconOutline" fill="#464646"/>
    <path id="rect848-8" d="M0,5H10V6H0Z" class="aw-theme-iconOutline" fill="#464646"/>
    <path id="rect865" d="M1,1H0V5H1Z" class="aw-theme-iconOutline" fill="#464646"/>
    <path id="rect865-7" d="M9,1h1V5H9Z" class="aw-theme-iconOutline" fill="#464646"/>
    <path id="rect888" d="M10,2.5h3v1H10Z" class="aw-theme-iconOutline" fill="#464646"/>
    <path id="rect848-1" d="M8,11h5v1H8Z" class="aw-theme-iconOutline" fill="#464646"/>
    <path id="rect848-8-2" d="M8,16h2v1H8Z" class="aw-theme-iconOutline" fill="#464646"/>
    <path id="rect865-70" d="M9,12H8v4H9Z" class="aw-theme-iconOutline" fill="#464646"/>
  </g>
</svg>
