<svg id="svg831" xmlns="http://www.w3.org/2000/svg" viewBox="0 0 24 24">
  <g id="layer1">
    <g id="g829">
      <path id="rect1381" d="M2,0H3V24H2Z" class="aw-theme-iconOutline" fill="#464646"/>
      <path id="rect1381-5" d="M21,0h1V24H21Z" class="aw-theme-iconOutline" fill="#464646"/>
      <path id="rect1398" d="M2,0H22V1H2Z" class="aw-theme-iconOutline" fill="#464646"/>
      <path id="rect1398-6" d="M2,23H22v1H2Z" class="aw-theme-iconOutline" fill="#464646"/>
      <path id="rect1381-4" d="M4,0H5V24H4Z" class="aw-theme-iconOutline" fill="#464646"/>
      <path id="rect1398-5" d="M9,5.5h8v1H9Z" class="aw-theme-iconOutline" fill="#464646"/>
      <path id="rect1398-5-3" d="M9.043,7.5h7v1h-7Z" class="aw-theme-iconOutline" fill="#464646"/>
      <path id="rect1478" d="M8.51,3A1.506,1.506,0,0,0,7,4.51V9.49A1.506,1.506,0,0,0,8.51,11h8.98A1.506,1.506,0,0,0,19,9.49V4.51A1.506,1.506,0,0,0,17.49,3Zm.623,1h7.734A1.13,1.13,0,0,1,18,5.133V8.867A1.131,1.131,0,0,1,16.867,10H9.133A1.131,1.131,0,0,1,8,8.867V5.133A1.13,1.13,0,0,1,9.133,4Z" class="aw-theme-iconOutline" fill="#464646"/>
    </g>
  </g>
</svg>
