<svg id="svg8" xmlns="http://www.w3.org/2000/svg" viewBox="0 0 24 24">
  <g id="layer1">
    <g id="g854">
      <path id="path2-5" d="M23.632,12.4l-1.321-1.28a1.224,1.224,0,0,0-1.734,0l-8.916,8.641c-.071.114.012-.034-.071.105L10.34,23.52a.345.345,0,0,0,.083.4c.082.08.165.08.33.08h.165l3.715-1.2a.488.488,0,0,0,.165-.081l8.916-8.641a1.211,1.211,0,0,0-.082-1.68ZM12.569,20.079l7.265-7.041,1.9,1.841-7.265,7.04Zm-.413.72,1.569,1.521-2.312.72Zm10.9-7.2-.743.72-1.9-1.84.743-.72a.408.408,0,0,1,.578,0l1.321,1.28c.165.081.165.4,0,.56Z" class="aw-theme-iconOutline" fill="#464646"/>
      <path id="rect1236" d="M2,5H5V6H2Z" class="aw-theme-iconOutline" fill="#464646"/>
      <path id="rect1236-5-1" d="M2,11H5.443v1H2Z" class="aw-theme-iconOutline" fill="#464646"/>
      <path id="path1268" d="M10.707,19.166A6.564,6.564,0,0,1,8.083,18.08a3.948,3.948,0,0,1-1.516-1.822,3.073,3.073,0,0,1-.143-1.3L6.417,14c-2.136-.011-4.272-.011-6.408-.011V.021H15.978l.011,1.7L16,3.412l.356.131A4.629,4.629,0,0,1,19.325,6.1c.092.249.1.335.113,2.715l.017,2.457H18.47v-3l-.145.137a7.72,7.72,0,0,1-4.081,1.623,14.78,14.78,0,0,1-2.781-.023A7.747,7.747,0,0,1,7.6,8.468l-.206-.181L7.4,12.063l.011,3.777.166.336a3.72,3.72,0,0,0,1.8,1.546,4.743,4.743,0,0,0,1.5.492,2.716,2.716,0,0,1,.444.094c0,.011-.019.188-.036.4a4.52,4.52,0,0,1-.054.456c-.027.091-.056.091-.529.008ZM6.415,10.987V9H2l.011-.549V7.984H6.406l.018-.857a2.657,2.657,0,0,1,.137-1.161A3.887,3.887,0,0,1,8.123,4.2l.3-.2H4.735L1,4.011V13c1.817.022,3.554.015,5.393,0Zm7.771-1.914c1.954-.25,3.51-1.038,4.047-2.049.22-.414.229-.547.058-.894-.7-1.417-3.361-2.354-6.125-2.156-2.229.16-4.068,1.01-4.619,2.135a.856.856,0,0,0,.052.884C8.105,8,9.84,8.871,11.8,9.091a13.912,13.912,0,0,0,2.389-.018ZM15,1.934V1H1V2.957L7.983,3h7.039Z" class="aw-theme-iconOutline" fill="#464646"/>
    </g>
  </g>
</svg>
