<svg id="Image" xmlns="http://www.w3.org/2000/svg" viewBox="0 0 24 24">
  <path d="M7.45,22.969a.5.5,0,0,1-.5-.5l.05-7.3a.5.5,0,0,1,.728-.441l1.317.674.575-4.626H7.826a.5.5,0,0,1-.484-.624L9.583,1.407a.5.5,0,0,1,.484-.376h6.484a.5.5,0,0,1,.463.69L14.561,7.693h1.93a.5.5,0,0,1,.429.758l-5.056,8.41,1.415.767a.5.5,0,0,1,.072.832l-5.592,4.4A.493.493,0,0,1,7.45,22.969ZM8,15.986l-.038,5.448,4.178-3.289-1.207-.654a.5.5,0,0,1-.19-.7l4.869-8.1H13.814A.5.5,0,0,1,13.352,8l2.453-5.972h-5.35L8.471,9.775h1.715a.5.5,0,0,1,.5.561l-.733,5.9a.5.5,0,0,1-.724.384Z" class="aw-theme-iconOutline" fill="#464646"/>
</svg>
