<svg id="Layer_1" data-name="Layer 1" xmlns="http://www.w3.org/2000/svg" viewBox="0 0 24 24">
  <g id="g945">
    <path id="path1052-2-3" d="M17.492,18a1.5,1.5,0,1,0,1.5,1.5A1.5,1.5,0,0,0,17.492,18Zm0,1a.5.5,0,1,1-.5.5A.5.5,0,0,1,17.492,19Z" class="aw-theme-iconOutline" fill="#464646"/>
    <path id="path1052-2-1-5" d="M7.49,14a1.5,1.5,0,0,0-1.5,1.5h0A1.5,1.5,0,0,0,7.49,17h0a1.5,1.5,0,1,0,0-3Zm0,1a.5.5,0,1,1-.5.5.5.5,0,0,1,.5-.5Z" class="aw-theme-iconOutline" fill="#464646"/>
    <path id="rect1193" d="M8.5,15h7.544v1H8.5Z" class="aw-theme-iconOutline" fill="#464646"/>
    <path id="rect1195" d="M17,16.739h1v2.32H17Z" class="aw-theme-iconOutline" fill="#464646"/>
    <path id="rect1195-4" d="M15.378,15.748,16.042,15,18,16.739l-.664.748Z" class="aw-theme-iconOutline" fill="#464646"/>
    <path id="rect1193-3" d="M5.025,19.034H11.61v1H5.025Z" class="aw-theme-iconOutline" fill="#464646"/>
    <path id="path1052-2-3-2" d="M12.534,17.949a1.5,1.5,0,1,0,1.5,1.5A1.5,1.5,0,0,0,12.534,17.949Zm0,1a.5.5,0,1,1-.5.5A.5.5,0,0,1,12.534,18.949Z" class="aw-theme-iconOutline" fill="#464646"/>
    <path id="path1052-2-3-8" d="M3.585,18.034a1.5,1.5,0,1,0,1.5,1.5A1.5,1.5,0,0,0,3.585,18.034Zm0,1a.5.5,0,1,1-.5.5A.5.5,0,0,1,3.585,19.034Z" class="aw-theme-iconOutline" fill="#464646"/>
    <path id="rect924-0" d="M3,0V2H0C0,4.309,0,6.506,0,8.681H1C1.014,6.787,1.026,4.894,1,3H4V1H23V12l0,7.212a20.037,20.037,0,0,0-2.23,1.78A11.812,11.812,0,0,0,19.465,23H18v1H20.41a4.313,4.313,0,0,1,1.275-2.242A12.3,12.3,0,0,1,24,20V0H3Z" class="aw-theme-iconOutline" fill="#464646"/>
    <path id="rect851" d="M0,6.373H1V24H0Z" class="aw-theme-iconOutline" fill="#464646"/>
    <path id="rect851-5" d="M18,23v1H0V23Z" class="aw-theme-iconOutline" fill="#464646"/>
    <path id="rect958-9" d="M8,3H9v9H8Z" class="aw-theme-iconOutline" fill="#464646"/>
    <path id="rect960-8" d="M8,2h9V3H8Z" class="aw-theme-iconOutline" fill="#464646"/>
    <path id="rect960-0-7" d="M8,12h9v1H8Z" class="aw-theme-iconOutline" fill="#464646"/>
    <path id="rect958-3-9" d="M16,3h1v9H16Z" class="aw-theme-iconOutline" fill="#464646"/>
    <path id="path1052-7" d="M20.5,2A1.5,1.5,0,1,0,22,3.5,1.5,1.5,0,0,0,20.5,2Zm0,1a.5.5,0,1,1-.5.5A.5.5,0,0,1,20.5,3Z" class="aw-theme-iconOutline" fill="#464646"/>
    <path id="path1052-2-0" d="M20.5,10A1.5,1.5,0,1,0,22,11.5,1.5,1.5,0,0,0,20.5,10Zm0,1a.5.5,0,1,1-.5.5A.5.5,0,0,1,20.5,11Z" class="aw-theme-iconOutline" fill="#464646"/>
    <path id="path1052-2-1-1" d="M3.5,8A1.5,1.5,0,1,0,5,9.5,1.5,1.5,0,0,0,3.5,8Zm0,1a.5.5,0,1,1-.5.5A.5.5,0,0,1,3.5,9Z" class="aw-theme-iconOutline" fill="#464646"/>
    <path id="path1052-2-1-8-7" d="M4.5,4A1.5,1.5,0,0,0,3,5.5H3A1.5,1.5,0,0,0,4.5,7h0a1.5,1.5,0,0,0,0-3Zm0,1a.5.5,0,1,1-.5.5H4A.5.5,0,0,1,4.5,5Z" class="aw-theme-iconOutline" fill="#464646"/>
    <path id="rect845" d="M5.5,5H8.1V6H5.5Z" class="aw-theme-iconOutline" fill="#464646"/>
    <path id="rect847" d="M4.5,9H8v1H4.5Z" class="aw-theme-iconOutline" fill="#464646"/>
    <path id="path851" d="M19.273,11.063c-.036-.039-.279-.293-.539-.566l-.471-.5H17V8.984h.757c.832,0,.808,0,.919.055a.515.515,0,0,1,.105.074c.028.026.269.275.535.554s.49.514.5.522.059.06.115.117l.1.105-.325.34-.344.362-.02.02Z" class="aw-theme-iconOutline" fill="#464646"/>
    <path id="path851-1" d="M19.167,3.922l-.539.566-.472.5H16.893V6h.758c.831,0,.808,0,.919-.054a.544.544,0,0,0,.105-.074c.028-.026.268-.276.534-.555s.49-.514.5-.521l.115-.118.1-.1L19.6,4.233l-.344-.361-.02-.021Z" class="aw-theme-iconOutline" fill="#464646"/>
    <path id="rect904" d="M7,4.059H9v3H7Z" class="aw-theme-iconOutline" fill="#464646"/>
    <path id="rect904-4" d="M16,4h2V7H16Z" class="aw-theme-iconOutline" fill="#464646"/>
    <path id="rect904-6" d="M16,8h2v3H16Z" class="aw-theme-iconOutline" fill="#464646"/>
    <path id="rect859" d="M12,3h1V4H12Z" class="aw-theme-iconOutline" fill="#464646"/>
    <path id="rect904-2" d="M7.009,8.059h2v3h-2Z" class="aw-theme-iconOutline" fill="#464646"/>
  </g>
</svg>
