<svg version="1.1" id="Artwork" xmlns="http://www.w3.org/2000/svg" xmlns:xlink="http://www.w3.org/1999/xlink" x="0px" y="0px"
	 width="24px" height="24px" viewBox="0 0 24 24" enable-background="new 0 0 24 24" xml:space="preserve">
<path class="aw-theme-iconOutline" fill="#464646" d="M22.5,3.8l-2.2-2.2c-0.7-0.7-1.8-0.7-2.5,0L3.1,16.1c-0.1,0.1-0.1,0.1-0.1,0.2l-2,6c-0.1,0.2,0,0.4,0.1,0.5
	C1.2,22.9,1.4,23,1.5,23c0.1,0,0.1,0,0.2,0l6-2c0.1,0,0.1-0.1,0.2-0.1L22.5,6.2C22.8,5.9,23,5.5,23,5C23,4.5,22.8,4.1,22.5,3.8z
	 M4.2,16.5L16.5,4.2l3.3,3.3L7.5,19.8L4.2,16.5z M3.7,17.4l2.9,2.9l-4.3,1.4L3.7,17.4z M21.8,5.5C21.8,5.5,21.8,5.5,21.8,5.5
	l-1.3,1.3l-3.3-3.3l1.3-1.3c0.3-0.3,0.8-0.3,1.1,0l2.2,2.2C21.9,4.6,22,4.8,22,5C22,5.2,21.9,5.4,21.8,5.5z"/>
</svg>
