<svg version="1.1" id="Layer_1" xmlns="http://www.w3.org/2000/svg" xmlns:xlink="http://www.w3.org/1999/xlink" x="0px" y="0px"
	 viewBox="0 0 24 24" enable-background="new 0 0 24 24" xml:space="preserve">
<g>
	<polygon class="aw-theme-iconOutline" fill="#464646" points="3,24 3,18 3.982,18 3.982,23.009 7.909,23.009 7.909,24 	"/>
</g>
<g>
	<polygon class="aw-theme-iconOutline" fill="#464646" points="3,24 3,17 3.982,17 3.982,23.009 7.909,23.009 7.909,24 	"/>
</g>
<g>
	<polygon class="aw-theme-iconOutline" fill="#464646" points="20.909,24 20.909,17 19.927,17 19.927,23.009 16,23.009 16,24 	"/>
</g>
<g>
	<polygon class="aw-theme-iconOutline" fill="#464646" points="3,7 3,0 7.909,0 7.909,1.038 3.982,1.038 3.982,7 	"/>
</g>
<g>
	<polygon class="aw-theme-iconOutline" fill="#464646" points="20.909,7 20.909,0 16,0 16,1.038 19.927,1.038 19.927,7 	"/>
</g>
<polygon class="aw-theme-iconOutline" fill="#464646" points="8.8,18.882 11.882,15.7 11.882,22 12.882,22 12.882,15.7 15.947,18.865 16.747,18.065 
	12.382,13.8 8,18.082 "/>
<polygon class="aw-theme-iconOutline" fill="#464646" points="15.947,5.918 12.865,9.1 12.865,2.8 11.865,2.8 11.865,9.1 8.8,5.935 8,6.735 12.365,11 
	16.747,6.718 "/>
</svg>
