<svg xmlns="http://www.w3.org/2000/svg" viewBox="0 0 24 24">
  <g id="Verb_Zone">
    <polygon points="10.474 12.592 10.375 12.651 10.474 12.683 10.474 12.592" fill="none"/>
    <polygon points="16.673 12.29 13.015 11.117 13.805 11.588 16.673 12.515 16.673 12.29" fill="none"/>
    <polygon points="4.449 17.458 4.449 16.179 2.488 17.347 12.006 22.932 21.512 17.347 19.559 16.182 19.559 17.458 4.449 17.458" fill="none"/>
    <path d="M22.757,16.925l-3.2-1.907V5.68H16.673v4.658l-6.2-2V10.3L11.7,10.7l4.97,1.593v.225L4.441,8.562v1.955l6.227,2.007.005.223L4.449,10.739v4.277L1.243,16.925a.493.493,0,0,0,0,.852l10.464,6.14a.569.569,0,0,0,.592,0l10.452-6.14A.493.493,0,0,0,22.757,16.925ZM5.449,15.584V12.112l2.514.811,1.268.409,2.243.724V11.885l.121.039,1.8.581,4.267,1.38.016.005V6.68h.886v9.778H5.449Zm6.557,7.348L2.488,17.347l1.961-1.168v1.279h15.11V16.182l1.953,1.165ZM17.67,2.27a2.88,2.88,0,0,0-.213-1.01A2.293,2.293,0,0,0,13.651.808a.752.752,0,0,1-.833.031,2,2,0,0,0-2.407.092c-.263.215-.29.2-.606.073A3.368,3.368,0,0,0,9.229.811,1.925,1.925,0,0,0,7.65,1.18,1.767,1.767,0,0,0,7,2.6,1.823,1.823,0,0,0,7.849,4.1a1.737,1.737,0,0,0,1.568.173c.133-.058.249-.121.357-.18.339-.185.359-.2.684.068a1.96,1.96,0,0,0,2.676-.276.362.362,0,0,1,.265-.135.569.569,0,0,1,.41.155,2.03,2.03,0,0,0,1.626.661,2.164,2.164,0,0,0,1.29-.422,1.085,1.085,0,0,1,.614.884l.072.413h1.673l.012-.489A3.574,3.574,0,0,0,17.67,2.27ZM16.6,3.126h-.165l-.132.1a1.474,1.474,0,0,1-.837.344h-.013a1.049,1.049,0,0,1-.933-.368,1.534,1.534,0,0,0-1.182-.445,1.34,1.34,0,0,0-.98.506.958.958,0,0,1-1.263.128,1.569,1.569,0,0,0-.991-.432,1.693,1.693,0,0,0-.806.26c-.085.047-.176.1-.278.143a.746.746,0,0,1-.634-.1A.805.805,0,0,1,8,2.581a.758.758,0,0,1,.277-.62.929.929,0,0,1,.739-.173,2.3,2.3,0,0,1,.41.14A1.358,1.358,0,0,0,11.051,1.7a1.019,1.019,0,0,1,1.237-.012,1.719,1.719,0,0,0,2.091-.193A1.245,1.245,0,0,1,15.561,1a1.209,1.209,0,0,1,.975.648,2.046,2.046,0,0,1,.134.873l-.017.316.28.15a1.807,1.807,0,0,1,.475.381A1.5,1.5,0,0,0,16.6,3.126Z" class="aw-theme-iconOutline" fill="#464646"/>
  </g>
</svg>
