<svg id="Image" xmlns="http://www.w3.org/2000/svg" viewBox="0 0 24 24">
  <g id="g853">
    <path id="path825" d="M16.9,5.657V10.6L10.388,8.5V10.28L16.9,12.364v.519L4.056,8.735v1.771l6.332,2.041v.513L4.062,11.021v6.735H19.656V5.657Zm.782.785H18.7l.1,10.133H5.246V12.094l5.923,2.04V11.978L4.838,9.94V9.813l12.84,4.15V11.8L11.169,9.711V9.573l6.509,2.1Z" class="aw-theme-iconOutline" fill="#464646"/>
    <path id="path821-5" d="M15.488.013a2.2,2.2,0,0,0-1.8.82.92.92,0,0,1-1.043.053,1.963,1.963,0,0,0-2.371.086c-.336.277-.42.244-.772.1A3.43,3.43,0,0,0,8.919.874a1.884,1.884,0,0,0-1.547.36,1.725,1.725,0,0,0-.633,1.377,1.781,1.781,0,0,0,.832,1.472,1.687,1.687,0,0,0,1.52.173c.136-.061.254-.125.364-.185.369-.2.457-.248.869.087a1.917,1.917,0,0,0,2.618-.27.5.5,0,0,1,.375-.191.721.721,0,0,1,.533.2,1.994,1.994,0,0,0,1.614.654A2.441,2.441,0,0,0,16.792,4.1a1.225,1.225,0,0,1,.8,1.049l.055.322h1.515l.006-.381a3.659,3.659,0,0,0-1.5-2.742,2.936,2.936,0,0,0-.215-1.083A2.169,2.169,0,0,0,15.708.033a2.02,2.02,0,0,0-.22-.02ZM15.354.8A1.48,1.48,0,0,1,15.6.813a1.4,1.4,0,0,1,1.128.762,2.255,2.255,0,0,1,.151.975L16.87,2.8l.218.118a2.851,2.851,0,0,1,1.251,1.78h-.06a1.77,1.77,0,0,0-1.6-1.386h-.128l-.1.077a1.665,1.665,0,0,1-.959.391h-.014A1.228,1.228,0,0,1,14.4,3.352a1.482,1.482,0,0,0-1.139-.435,1.28,1.28,0,0,0-.939.482,1.128,1.128,0,0,1-1.513.156,1.3,1.3,0,0,0-1.737-.168c-.093.051-.192.106-.3.157a.907.907,0,0,1-.791-.119A.975.975,0,0,1,7.511,2.6a.925.925,0,0,1,.341-.754,1.1,1.1,0,0,1,.888-.21,2.743,2.743,0,0,1,.452.156,1.3,1.3,0,0,0,1.573-.218,1.2,1.2,0,0,1,1.455-.025,1.676,1.676,0,0,0,2.026-.18A1.434,1.434,0,0,1,15.354.8Z" class="aw-theme-iconOutline" fill="#464646"/>
    <path id="path848" d="M6.528,20.858c-2.916-1.711-5.342-3.15-5.39-3.2a.4.4,0,0,1-.1-.282c-.015-.184-.008-.205.1-.323.1-.1,2.665-1.666,2.855-1.738.045-.018.052.06.052.531V16.4l-.788.467a6.193,6.193,0,0,0-.763.492c.014.014,2.151,1.273,4.75,2.8C10.2,21.9,12,22.926,12.035,22.916c.1-.027,9.484-5.541,9.476-5.569s-.416-.27-.915-.568l-.908-.541v-.559a2.622,2.622,0,0,1,.027-.543l1.587.944c1.527.91,1.562.933,1.631,1.089a.42.42,0,0,1-.107.515c-.084.077-10.219,6.049-10.57,6.227a.7.7,0,0,1-.27.059C11.846,23.97,11.333,23.677,6.528,20.858Z" class="aw-theme-iconOutline" fill="#464646"/>
  </g>
</svg>
