<svg version="1.1" id="Layer_1" xmlns="http://www.w3.org/2000/svg" xmlns:xlink="http://www.w3.org/1999/xlink" x="0px" y="0px"
	 viewBox="0 0 24 24" enable-background="new 0 0 24 24" xml:space="preserve">
	<path class="aw-theme-iconOutline" fill="#464646" d="M19,23.5c-0.1,0-0.2,0-0.3-0.1L12,18.6l-6.7,4.8c-0.2,0.1-0.4,0.1-0.6,0c-0.2-0.1-0.2-0.3-0.2-0.5l2.4-8.2
		L0.2,9.9C0,9.8,0,9.6,0,9.4C0.1,9.2,0.3,9,0.5,9l8.2-0.5l2.9-7.7c0.1-0.4,0.8-0.4,0.9,0l2.9,7.7L23.5,9c0.2,0,0.4,0.2,0.5,0.4
		c0.1,0.2,0,0.4-0.2,0.5l-6.7,4.8l2.4,8.2c0.1,0.2,0,0.4-0.2,0.5C19.2,23.5,19.1,23.5,19,23.5z M12,17.5c0.1,0,0.2,0,0.3,0.1
		l5.8,4.2L16,14.6c-0.1-0.2,0-0.4,0.2-0.5l5.8-4.2L15,9.5c-0.2,0-0.4-0.1-0.4-0.3L12,2.4L9.5,9.2C9.4,9.4,9.2,9.5,9,9.5L1.9,9.9
		l5.8,4.2C8,14.2,8,14.4,8,14.6l-2.1,7.1l5.8-4.2C11.8,17.5,11.9,17.5,12,17.5z"/>
</svg>
