<svg id="Image" xmlns="http://www.w3.org/2000/svg" viewBox="0 0 24 24">
  <path d="M10.608,7.816a.5.5,0,0,1-.382.822.493.493,0,0,1-.378-.173C9.814,8.429,8.359,6.9,3.5,6.9a.5.5,0,0,1,0-1C8.934,5.9,10.542,7.738,10.608,7.816ZM3.5,8.605a.5.5,0,0,0,0,1c4.86,0,6.314,1.527,6.348,1.563a.5.5,0,0,0,.76-.649C10.542,10.44,8.934,8.605,3.5,8.605Zm0,2.7a.5.5,0,0,0,0,1c4.859,0,6.314,1.527,6.348,1.563a.5.5,0,0,0,.76-.649C10.542,13.144,8.934,11.308,3.5,11.308Zm3.125,2.94A18.967,18.967,0,0,0,3.5,14.01a.5.5,0,1,0,0,1,17.929,17.929,0,0,1,2.958.224.484.484,0,0,0,.084.007.5.5,0,0,0,.083-.993Zm7.314-5.614a.5.5,0,0,0,.377-.168C14.33,8.45,15.771,6.9,20.664,6.9a.5.5,0,0,0,0-1c-5.434,0-7.042,1.836-7.108,1.914a.5.5,0,0,0,.383.818Zm0,2.7a.5.5,0,0,0,.377-.169c.014-.015,1.455-1.563,6.348-1.563a.5.5,0,0,0,0-1c-5.434,0-7.042,1.835-7.108,1.914a.5.5,0,0,0,.383.818ZM24,17.138v.169a9.953,9.953,0,0,1-.547,3.322C22.7,22.754,21.789,23,21.407,23a.736.736,0,0,1-.145-.014L17.92,23a1.247,1.247,0,0,1-.98-.481l-.286-.371a15.161,15.161,0,0,1-2.035-3.555c-1.284.361-2.075.777-2.075,1.152a.5.5,0,0,1-.5.5.487.487,0,0,1-.236-.067.493.493,0,0,1-.352-.47c0-.917-4.68-2.081-9.939-2.081a.5.5,0,0,1-.5-.5V4.258a.5.5,0,0,1,.5-.5c2.448,0,8.8.424,10.5,2.155,1.757-1.7,8.032-2.119,10.462-2.119a.5.5,0,0,1,.5.5V15.8l.017,0A1.347,1.347,0,0,1,24,17.138ZM11.456,6.84c0-.889-4.387-2.008-9.439-2.079V16.629c2.457.048,7.338.436,9.439,1.7Zm3.263,8.532a1.423,1.423,0,0,1,1.083-.115,1.4,1.4,0,0,1,.432.224v-2.6a4.672,4.672,0,0,0-1.918.988.506.506,0,0,1-.377.169.5.5,0,0,1-.383-.818,5.6,5.6,0,0,1,2.688-1.384,1.42,1.42,0,0,1,2.724-.462c.521-.042,1.081-.068,1.7-.068a.5.5,0,0,1,0,1c-.574,0-1.1.023-1.58.06v2.361a1.269,1.269,0,0,1,1.343.483,1.279,1.279,0,0,1,.615-.173,1.3,1.3,0,0,1,.941.411V4.8c-5.052.07-9.439,1.19-9.439,2.078V18.37a7.58,7.58,0,0,1,1.72-.707l-.148-.435a1.339,1.339,0,0,1-.081-1.006A1.417,1.417,0,0,1,14.719,15.372ZM23,17.138c0-.022-.014-.037-.017-.057a.344.344,0,0,0-.219-.3.327.327,0,0,0-.279.059.317.317,0,0,0-.124.251v.175a.488.488,0,0,1-.238.4c-.17,0-.339,0-.507.007a.432.432,0,0,1-.108-.058c-.152-.152-.17-.234-.155-.93,0-.1,0-.212.008-.338a.318.318,0,0,0-.319-.307.324.324,0,0,0-.319.319v.267a.54.54,0,0,1-.018.089.489.489,0,0,1-.952.06.488.488,0,0,1-.03-.149v-.616a.32.32,0,1,0-.639,0,.5.5,0,0,1-1,0V11.937a.42.42,0,0,0-.367-.414.373.373,0,0,0-.058-.012.407.407,0,0,0-.193.053.422.422,0,0,0-.232.373v5.1l0,.014h-.007c0,.014,0,.028,0,.042a.47.47,0,0,1-.02.1.543.543,0,0,1-.039.085.466.466,0,0,1-.053.078.442.442,0,0,1-.074.069.481.481,0,0,1-.076.051.465.465,0,0,1-.092.034.483.483,0,0,1-.1.02.459.459,0,0,1-.091,0,.479.479,0,0,1-.1-.02.554.554,0,0,1-.086-.039.577.577,0,0,1-.077-.052.461.461,0,0,1-.07-.076.5.5,0,0,1-.078-.133l-.015,0-.466-.764a.438.438,0,0,0-.266-.224.414.414,0,0,0-.323.034.429.429,0,0,0-.17.576l.206.582,0,.009c.107.315.231.623.359.929a14.121,14.121,0,0,0,1.849,3.187l.286.371A.242.242,0,0,0,17.92,22h3.44c.043-.011.578-.083,1.15-1.7A8.952,8.952,0,0,0,23,17.307Z" class="aw-theme-iconOutline" fill="#464646"/>
</svg>
