<svg id="Image" xmlns="http://www.w3.org/2000/svg" viewBox="0 0 24 24">
  <path d="M3.938,3.274a.5.5,0,0,1,.5-.5c4.521,0,5.887,1.468,6.029,1.635a.5.5,0,0,1-.76.65c-.035-.036-1.25-1.285-5.269-1.285A.5.5,0,0,1,3.938,3.274Zm.5,2.768c4.028,0,5.24,1.255,5.269,1.286a.5.5,0,0,0,.76-.65c-.142-.167-1.508-1.636-6.029-1.636a.5.5,0,1,0,0,1Zm0,2.269c4.028,0,5.24,1.255,5.269,1.286a.5.5,0,0,0,.76-.65c-.142-.167-1.508-1.636-6.029-1.636a.5.5,0,1,0,0,1Zm2.636,1.47a15.913,15.913,0,0,0-2.636-.2.5.5,0,1,0,0,1,15.005,15.005,0,0,1,2.47.188.484.484,0,0,0,.084.007.5.5,0,0,0,.082-.993ZM13.2,5.226a.509.509,0,0,0,.376-.166c.012-.013,1.211-1.286,5.269-1.286a.5.5,0,0,0,0-1c-4.52,0-5.887,1.468-6.029,1.635a.5.5,0,0,0,.384.817Zm0,2.269a.5.5,0,0,0,.376-.166c.012-.013,1.211-1.287,5.269-1.287a.5.5,0,0,0,0-1c-4.521,0-5.887,1.469-6.029,1.636A.5.5,0,0,0,13.2,7.5Zm9.553,10.282L12.3,23.917a.569.569,0,0,1-.592,0L1.246,17.777a.493.493,0,0,1,0-.852l6.312-3.759a28.959,28.959,0,0,0-4.782-.392.5.5,0,0,1-.5-.5V1.474a.5.5,0,0,1,.5-.5c.081,0,7,.057,8.82,1.77C13.469,1.063,20.292,1,20.372,1a.5.5,0,0,1,.5.5v9.6a1.21,1.21,0,0,1,.855,1.176v.142a8.464,8.464,0,0,1-.464,2.815c-.085.24-.173.448-.261.636l1.755,1.047A.493.493,0,0,1,22.754,17.777ZM20.042,12.85a.48.48,0,0,1-.408-.036.46.46,0,0,1-.137-.072c-.154-.155-.166-.25-.152-.908,0-.067,0-.135.006-.216,0-.177-.375-.19-.375.013v.232a.5.5,0,0,1-.99.053c0-.019-.01-.035-.01-.053v-.525c0-.2-.376-.2-.376,0a.5.5,0,1,1-1,0V7.919a.277.277,0,0,0-.277-.276.281.281,0,0,0-.276.276V12.2a.386.386,0,0,1-.012.057.52.52,0,0,1-.019.1.543.543,0,0,1-.041.088.489.489,0,0,1-.05.075.5.5,0,0,1-.079.073c-.014.011-.023.027-.039.036s-.022.007-.032.012a.586.586,0,0,1-.1.036l-.033.012a.393.393,0,0,1-.059.006c-.013,0-.024.008-.037.008a.541.541,0,0,1-.058-.012.474.474,0,0,1-.1-.02.543.543,0,0,1-.085-.039.412.412,0,0,1-.078-.053.467.467,0,0,1-.071-.076c-.011-.015-.027-.024-.037-.041l-.081-.133-.027-.045-.328-.538a.3.3,0,0,0-.178-.152.27.27,0,0,0-.209.022.275.275,0,0,0-.133.165.175.175,0,0,0,0,.024.256.256,0,0,0,.025.186l.152.429.028.078c.089.262.191.517.3.771.015.034.026.069.04.1a11.8,11.8,0,0,0,1.5,2.559l.24.312a.125.125,0,0,0,.1.046h2.888a.389.389,0,0,0,.154-.086,2.186,2.186,0,0,0,.553-.835c.059-.133.12-.28.181-.454a7.356,7.356,0,0,0,.388-2.239c0-.082.02-.159.02-.243v-.142a.227.227,0,0,0-.139-.225.187.187,0,0,0-.164.035.185.185,0,0,0-.073.148v.145a.492.492,0,0,1-.258.42C20.074,12.819,20.063,12.841,20.042,12.85Zm-7.932.322a6.561,6.561,0,0,1,1.258-.507l-.074-.217-.021-.061a1.194,1.194,0,0,1-.068-.894,1.27,1.27,0,0,1,.105-.2,1.245,1.245,0,0,1,.507-.56,1.113,1.113,0,0,1,1.23.031V8.822a3.692,3.692,0,0,0-1.47.776.508.508,0,0,1-.376.166.5.5,0,0,1-.384-.817,4.614,4.614,0,0,1,2.262-1.186,1.253,1.253,0,0,1,2.38-.4c.427-.033.885-.053,1.387-.053a.5.5,0,0,1,0,1c-.452,0-.863.018-1.246.046v1.808a1.2,1.2,0,0,1,1.064.4,1.13,1.13,0,0,1,1.208.129V2.009c-4.259.072-7.762,1.044-7.762,1.663v9.5Zm-3.259-.778a11.4,11.4,0,0,1,1.331.372,5.7,5.7,0,0,1,.854.375v-9.5c0-.619-3.5-1.591-7.763-1.663v9.807A32.654,32.654,0,0,1,8.851,12.394Zm12.661,4.953-1.038-.62a1.338,1.338,0,0,1-.992.561.756.756,0,0,1-.152-.014l-2.787.01a1.118,1.118,0,0,1-.886-.433l-.241-.314a12.732,12.732,0,0,1-1.69-2.927c-1.007.289-1.616.605-1.616.862a.54.54,0,0,1-1.074-.031c0-.291-.775-.658-2.032-.974l-6.516,3.88,9.518,5.584Z" class="aw-theme-iconOutline" fill="#464646"/>
</svg>
