<svg id="svg8" xmlns="http://www.w3.org/2000/svg" viewBox="0 0 24 24">
  <g id="layer1">
    <path id="path826" d="M12,6A16.839,16.839,0,0,0,4.341,7.671C2.348,8.715,1,10.22,1,12s1.351,3.289,3.344,4.333A16.839,16.839,0,0,0,12,18a16.811,16.811,0,0,0,7.655-1.669C21.651,15.286,23,13.774,23,12s-1.351-3.282-3.344-4.326A16.811,16.811,0,0,0,12,6Zm0,1a15.914,15.914,0,0,1,7.19,1.557C21,9.5,22,10.736,22,12s-1,2.5-2.8,3.447A15.914,15.914,0,0,1,12,17a15.942,15.942,0,0,1-7.2-1.558C3,14.5,2,13.258,2,12S3,9.5,4.806,8.557A15.943,15.943,0,0,1,12,7Z" class="aw-theme-iconOutline" fill="#464646"/>
  </g>
</svg>
