<svg id="Image" xmlns="http://www.w3.org/2000/svg" viewBox="0 0 24 24">
  <g id="g856">
    <path id="path869" d="M7.887,19.225a8.788,8.788,0,0,0,.233,1H.034V2.458A1.467,1.467,0,0,1,1.527,1.025H6.842a1.512,1.512,0,0,1,1.243.639l1.5,2.161H22.96v6.244a9.518,9.518,0,0,0-1.042-.61V4.825H9.029l-1.8-2.607a.457.457,0,0,0-.376-.193H1.533a.443.443,0,0,0-.457.427V19.225Z" class="aw-theme-iconOutline" fill="#464646"/>
    <path id="path886" d="M3.19,11.817a.63.63,0,1,0,.631.629.63.63,0,0,0-.631-.629Zm-.008.424a.206.206,0,0,1,.213.2h0v.007a.207.207,0,1,1-.213-.205Z" class="aw-theme-iconOutline" fill="#464646"/>
    <path id="path882" d="M6.265,12.7a.63.63,0,1,0,.631.629.63.63,0,0,0-.631-.629Zm-.008.424a.2.2,0,0,1,.212.188v.02a.2.2,0,1,1-.213-.205Z" class="aw-theme-iconOutline" fill="#464646"/>
    <path id="path878" d="M9.262,11.817a.63.63,0,1,0,.631.629.63.63,0,0,0-.631-.629Zm-.008.424a.206.206,0,0,1,.213.2h0v.007a.207.207,0,1,1-.213-.205Z" class="aw-theme-iconOutline" fill="#464646"/>
    <path id="path874" d="M5.062,5.673v.312A2.753,2.753,0,0,0,3.122,8.7v.932A.444.444,0,0,1,2.7,10.1H2.278a.223.223,0,0,0-.212.233h0v.837l-.208.208a.214.214,0,0,0-.041.241l.153.323-.34.121a.212.212,0,0,0-.14.2v.373a.214.214,0,0,0,.14.2l.34.117-.153.324a.212.212,0,0,0,.041.241l.263.263a.212.212,0,0,0,.241.041l.323-.153.121.344a.212.212,0,0,0,.2.142h.373a.213.213,0,0,0,.195-.139l.121-.342.324.152a.209.209,0,0,0,.24-.042l.263-.263a.2.2,0,0,0,.037-.07v.067a.214.214,0,0,0,.141.2l.34.118-.154.323a.214.214,0,0,0,.042.241l.263.263a.21.21,0,0,0,.241.042l.323-.153.121.343a.212.212,0,0,0,.2.142h.373a.212.212,0,0,0,.2-.142l.121-.343.322.153a.212.212,0,0,0,.242-.041L7.6,14.4a.212.212,0,0,0,.042-.24l-.154-.324.341-.121a.21.21,0,0,0,.13-.168l.232.236a.214.214,0,0,0,.242.042l.322-.153.121.344a.216.216,0,0,0,.2.142h.372a.215.215,0,0,0,.2-.143l.122-.342.321.152a.212.212,0,0,0,.242-.042l.263-.263a.212.212,0,0,0,.042-.241l-.153-.323.339-.121a.211.211,0,0,0,.141-.2v-.372a.214.214,0,0,0-.14-.2l-.338-.119.153-.322a.214.214,0,0,0-.041-.242l-.066-.065v-.979a.223.223,0,0,0-.209-.236H9.9a.446.446,0,0,1-.424-.466V8.7A2.739,2.739,0,0,0,7.427,5.957V5.673Zm.6.69h1.3v4h.46V6.432A2.3,2.3,0,0,1,9.015,8.7v.931a.906.906,0,0,0,.884.926h.177v.71H2.523v-.711H2.7a.906.906,0,0,0,.884-.926V8.7a2.32,2.32,0,0,1,1.48-2.235v3.9h.461V6.371c.046,0,.092-.008.14-.008Zm.954,5.358H7.941l.1.214-.339.118a.208.208,0,0,0-.131.168l-.236-.236a.212.212,0,0,0-.242-.042L6.77,12.1l-.117-.335c-.008-.018-.024-.027-.034-.042Zm-4.282.005h1.7l-.086.18a.274.274,0,0,0,0,.221.27.27,0,0,0,.161.151l.353.128v.073l-.353.124a.27.27,0,0,0-.166.345h0l.011.027.162.342-.052.05-.341-.162a.269.269,0,0,0-.219,0,.274.274,0,0,0-.155.163l-.126.358H3.154l-.126-.358a.277.277,0,0,0-.153-.165.272.272,0,0,0-.22.006l-.342.162-.051-.051.162-.341a.272.272,0,0,0-.13-.362h0l-.024-.01-.356-.124v-.072l.354-.128a.27.27,0,0,0,.162-.152.266.266,0,0,0-.006-.221Zm2.176,0h1.4c-.01.014-.026.025-.032.042l-.117.335-.325-.154a.212.212,0,0,0-.241.043l-.263.262a.214.214,0,0,0-.037.07v-.069a.213.213,0,0,0-.143-.2h0l-.34-.118Zm3.9,0h1.706l-.085.18a.273.273,0,0,0,.128.362l.028.011.357.127v.073l-.353.126a.271.271,0,0,0-.17.343h0l.012.029.162.342-.051.051L9.8,13.208a.272.272,0,0,0-.22,0,.276.276,0,0,0-.153.163l-.127.358H9.227L9.1,13.367a.274.274,0,0,0-.346-.171l-.029.012-.341.163-.051-.052.162-.34a.281.281,0,0,0-.16-.374l-.356-.126v-.072l.356-.128a.271.271,0,0,0,.167-.345h0l0-.027Zm-2.179.328H6.3l.126.354a.274.274,0,0,0,.35.163l.023-.01.342-.162.051.051-.162.342a.273.273,0,0,0,.132.363h0l.024.01.356.126v.067l-.354.127a.272.272,0,0,0-.169.344.078.078,0,0,0,.013.03L7.2,14.2l-.051.051L6.81,14.09a.272.272,0,0,0-.22-.007.278.278,0,0,0-.158.164l-.125.359h-.08L6.1,14.247a.27.27,0,0,0-.342-.17.188.188,0,0,0-.03.012l-.341.162-.05-.051.161-.34a.272.272,0,0,0-.127-.363l-.027-.011-.355-.123v-.072l.357-.126a.276.276,0,0,0,.161-.153.266.266,0,0,0-.006-.221l-.162-.341.052-.051.341.162a.271.271,0,0,0,.362-.126h0l.011-.027Zm-1.337.453.148.312-.339.118a.214.214,0,0,0-.142.2h0v.121l-.148-.308.339-.121a.212.212,0,0,0,.142-.2Zm2.673.145a.211.211,0,0,0,.134.177l.339.118-.08.166a.205.205,0,0,0-.133-.177l-.34-.118Z" class="aw-theme-iconOutline" fill="#464646"/>
    <path id="path861" d="M19.068,7.725l-.445.111a2.316,2.316,0,0,1,.135.861v.235l.459-.118V8.7A2.739,2.739,0,0,0,19.068,7.725Z" class="aw-theme-iconOutline" fill="#464646"/>
    <path id="path874-8-0" d="M14.807,5.674v.31A2.754,2.754,0,0,0,12.865,8.7v.524h.463V8.7a2.32,2.32,0,0,1,1.481-2.232V9.223h.459V6.369c.047,0,.092-.008.14-.008h1.3V9.223h.459V6.434a2.3,2.3,0,0,1,1.578,1.992,3.489,3.489,0,0,1,.426-.287,2.741,2.741,0,0,0-2-2.182V5.674Z" class="aw-theme-iconOutline" fill="#464646"/>
    <path id="path8" d="M14.108,14.667A.584.584,0,0,1,13.7,14.5l-2.333-2.333a.583.583,0,0,1,.825-.825l2.333,2.334a.584.584,0,0,1-.412.995Z" class="aw-theme-iconOutline" fill="#464646"/>
    <path id="path10" d="M12.942,15.833H10.608a.583.583,0,0,1,0-1.166h2.334a.583.583,0,0,1,0,1.166Z" class="aw-theme-iconOutline" fill="#464646"/>
    <path id="path12" d="M15.275,13.5a.583.583,0,0,1-.583-.583h0V10.583a.583.583,0,0,1,1.166,0v2.334a.583.583,0,0,1-.583.583Z" class="aw-theme-iconOutline" fill="#464646"/>
    <path id="path14" d="M22.275,22.833a.582.582,0,0,1-.413-.17L19.529,20.33a.583.583,0,0,1,.825-.825l2.333,2.333a.583.583,0,0,1-.412.995Z" class="aw-theme-iconOutline" fill="#464646"/>
    <path id="path16" d="M18.775,24a.583.583,0,0,1-.583-.583V21.083a.583.583,0,0,1,1.166,0v2.334A.583.583,0,0,1,18.775,24Z" class="aw-theme-iconOutline" fill="#464646"/>
    <path id="path18" d="M23.442,19.333H21.108a.583.583,0,0,1,0-1.166h2.334a.583.583,0,0,1,0,1.166Z" class="aw-theme-iconOutline" fill="#464646"/>
    <path id="path20" d="M21.56,17.583a.557.557,0,0,1-.394-.952L22.1,15.7a2.666,2.666,0,0,0,0-3.77h0a2.729,2.729,0,0,0-3.771,0l-.881.96a.557.557,0,1,1-.822-.753h0l.9-.978a3.859,3.859,0,0,1,5.367-.017,3.782,3.782,0,0,1,0,5.349h0l-.933.933A.559.559,0,0,1,21.56,17.583Z" class="aw-theme-iconOutline" fill="#464646"/>
    <path id="path22" d="M13.833,23.976a3.782,3.782,0,0,1-2.675-6.458l1-.924a.558.558,0,0,1,.818.759.577.577,0,0,1-.063.058l-.988.907a2.669,2.669,0,0,0,.016,3.755,2.731,2.731,0,0,0,3.771,0l.949-.948a.558.558,0,0,1,.788.79l-.947.947A3.754,3.754,0,0,1,13.833,23.976Z" class="aw-theme-iconOutline" fill="#464646"/>
  </g>
</svg>
