<svg id="Image" xmlns="http://www.w3.org/2000/svg" viewBox="0 0 24 24">
  <path d="M11.343,13.239a7.524,7.524,0,0,0-.525.883l-1.605-.515v-2.3l2.941.949a7.538,7.538,0,0,0-.7.827l-1.245-.4v.193Zm.382,9.061H2.01V15.953l8.071,2.6a7.062,7.062,0,0,1,.121-2.744L2,13.17v-.18l8.242,2.664a7.663,7.663,0,0,1,.308-.952L1,11.616V13.9l8.213,2.647v.682L1.01,14.58V23.3H12.726A7.567,7.567,0,0,1,11.725,22.3ZM18.653,8.625h1.568v1.907a7.516,7.516,0,0,1,1,.477V7.625H17.653v2.4a7.646,7.646,0,0,1,1,.09ZM4.479,3.664A2.229,2.229,0,0,1,5.3,1.884a2.434,2.434,0,0,1,2-.467,4.412,4.412,0,0,1,.755.253c.449.185.57.234,1.009-.127a2.537,2.537,0,0,1,3.065-.111,1.2,1.2,0,0,0,1.362-.071A2.868,2.868,0,0,1,16.1.326a2.806,2.806,0,0,1,2.269,1.6,3.765,3.765,0,0,1,.278,1.4,4.732,4.732,0,0,1,1.94,3.552l-.012.489H18.631l-.073-.413a1.6,1.6,0,0,0-1.049-1.367,2.988,2.988,0,0,1-1.719.589A2.582,2.582,0,0,1,13.7,5.328a.931.931,0,0,0-.7-.264.656.656,0,0,0-.491.251,2.48,2.48,0,0,1-3.387.349c-.536-.439-.65-.375-1.133-.113-.143.078-.3.162-.472.239a2.178,2.178,0,0,1-1.966-.223A2.307,2.307,0,0,1,4.479,3.664Zm1-.015A1.27,1.27,0,0,0,6.087,4.72a1.179,1.179,0,0,0,1.033.154c.145-.064.274-.134.394-.2a1.681,1.681,0,0,1,2.245.216,1.473,1.473,0,0,0,1.973-.2,1.646,1.646,0,0,1,1.206-.624,1.931,1.931,0,0,1,1.47.556,1.608,1.608,0,0,0,1.4.552,2.164,2.164,0,0,0,1.266-.5l.132-.1h.165a2.292,2.292,0,0,1,2.076,1.792h.091a3.707,3.707,0,0,0-1.623-2.323l-.279-.149.016-.317a2.922,2.922,0,0,0-.2-1.266,1.825,1.825,0,0,0-1.471-.992,1.872,1.872,0,0,0-1.762.728,2.17,2.17,0,0,1-2.621.233A1.561,1.561,0,0,0,9.7,2.311a1.678,1.678,0,0,1-2.032.283,3.481,3.481,0,0,0-.587-.2,1.443,1.443,0,0,0-1.159.272A1.2,1.2,0,0,0,5.479,3.649ZM17.5,24.016a6.5,6.5,0,1,1,6.5-6.5A6.5,6.5,0,0,1,17.5,24.016Zm0-12a5.5,5.5,0,1,0,5.5,5.5A5.5,5.5,0,0,0,17.5,12.016Zm.466,3.276v-2.5a.5.5,0,0,0-1,0v2.5a.5.5,0,1,0,1,0Zm1.425.976L21.158,14.5a.5.5,0,0,0-.707-.707l-1.767,1.768a.5.5,0,0,0,.707.707Zm3.317,1.2a.5.5,0,0,0-.5-.5h-2.5a.5.5,0,0,0,0,1h2.5A.5.5,0,0,0,22.708,17.466Zm-1.5,3.692a.5.5,0,0,0,0-.707l-1.768-1.767a.5.5,0,0,0-.707.707L20.5,21.158a.5.5,0,0,0,.707,0Zm-3.173,1.05v-2.5a.5.5,0,0,0-1,0v2.5a.5.5,0,0,0,1,0Zm-3.485-1,1.767-1.768a.5.5,0,0,0-.707-.707L13.842,20.5a.5.5,0,1,0,.707.707Zm1.243-3.673a.5.5,0,0,0-.5-.5h-2.5a.5.5,0,0,0,0,1h2.5A.5.5,0,0,0,15.792,17.534Zm.476-1.218a.5.5,0,0,0,0-.707L14.5,13.842a.5.5,0,1,0-.707.707l1.768,1.767a.5.5,0,0,0,.707,0Z" class="aw-theme-iconOutline" fill="#464646"/>
</svg>
