<svg id="Image" xmlns="http://www.w3.org/2000/svg" viewBox="0 0 24 24">
  <path d="M21.979,23H2.031V14.383l8.091,2.61v-.657l-8.1-2.611V11.459l16.426,5.309v-.663l-8.325-2.667V11.157l8.325,2.689V7.525h3.532ZM3.031,22H20.979V8.525H19.447v6.694l-8.325-2.688v.177l8.325,2.667v2.768L3.021,12.833V13l8.1,2.611v2.759l-8.091-2.61ZM21.348,7.282H19.411l-.072-.413a1.566,1.566,0,0,0-1.026-1.342,3.126,3.126,0,0,1-1.7.58,2.55,2.55,0,0,1-2.065-.836.917.917,0,0,0-.681-.258.644.644,0,0,0-.481.245,2.453,2.453,0,0,1-3.349.345c-.527-.429-.639-.369-1.111-.11-.141.077-.293.159-.466.236a2.158,2.158,0,0,1-1.945-.221A2.28,2.28,0,0,1,5.453,3.625a2.207,2.207,0,0,1,.811-1.761A2.407,2.407,0,0,1,8.242,1.4a4.267,4.267,0,0,1,.745.25c.451.187.558.231.988-.124a2.513,2.513,0,0,1,3.032-.111,1.176,1.176,0,0,0,1.334-.068A2.81,2.81,0,0,1,16.927.326,2.773,2.773,0,0,1,19.17,1.9a3.746,3.746,0,0,1,.275,1.382,4.681,4.681,0,0,1,1.913,3.508Zm-1.123-1H20.3a3.649,3.649,0,0,0-1.6-2.277l-.279-.15.016-.316a2.9,2.9,0,0,0-.194-1.248,1.791,1.791,0,0,0-1.443-.973,1.836,1.836,0,0,0-1.736.716,2.146,2.146,0,0,1-2.592.231,1.53,1.53,0,0,0-1.862.031,1.661,1.661,0,0,1-2.011.28,3.375,3.375,0,0,0-.578-.2,1.413,1.413,0,0,0-1.138.267,1.182,1.182,0,0,0-.435.965,1.247,1.247,0,0,0,.6,1.051,1.163,1.163,0,0,0,1.012.152c.143-.063.27-.133.388-.2a1.665,1.665,0,0,1,2.223.214,1.444,1.444,0,0,0,1.936-.2,1.635,1.635,0,0,1,1.2-.617,1.9,1.9,0,0,1,1.454.549,1.575,1.575,0,0,0,1.372.543h.019a2.138,2.138,0,0,0,1.226-.5l.132-.1h.165A2.267,2.267,0,0,1,20.225,6.282Z" class="aw-theme-iconOutline" fill="#464646"/>
</svg>
