<svg id="Image" xmlns="http://www.w3.org/2000/svg" viewBox="0 0 24 24">
  <g id="g885">
    <path id="path869" d="M7.887,19.225a8.838,8.838,0,0,0,.233,1H.034V2.458A1.466,1.466,0,0,1,1.527,1.025H6.842a1.51,1.51,0,0,1,1.243.639l1.5,2.161H22.96v6.244a9.653,9.653,0,0,0-1.042-.61V4.825H9.029l-1.8-2.607a.455.455,0,0,0-.376-.193H1.533a.443.443,0,0,0-.457.427V19.225Z" class="aw-theme-iconOutline" fill="#464646"/>
    <path id="path857" d="M15.859,22.94l2.307-2.21-.737-.705-2.3,2.211a2.865,2.865,0,0,1-3.847,0,2.548,2.548,0,0,1,0-3.7c.453-.432.832-.81,1.181-1.15,1.641-1.612,1.976-1.92,2.912-2.05l.035-.005a2.693,2.693,0,0,1,3.053,2.225l1.029-.137v-.031a3.732,3.732,0,0,0-4.26-3.041h0c-1.309.182-1.819.683-3.515,2.347-.335.331-.719.706-1.167,1.136a3.516,3.516,0,0,0,0,5.111A3.864,3.864,0,0,0,15.859,22.94Z" class="aw-theme-iconOutline" fill="#464646"/>
    <path id="path2" d="M20.33,18.64,22.9,16.172a3.52,3.52,0,0,0,0-5.111,3.959,3.959,0,0,0-5.317,0l-2.307,2.208.737.705,2.3-2.211a2.865,2.865,0,0,1,3.847,0,2.548,2.548,0,0,1,0,3.7L19.6,17.93a2.751,2.751,0,0,1-4.615-1.484l-1.03.134a3.806,3.806,0,0,0,6.38,2.059Z" class="aw-theme-iconOutline" fill="#464646"/>
    <g id="g846">
      <path id="path886" d="M3.19,11.817a.63.63,0,1,0,.631.629A.629.629,0,0,0,3.19,11.817Zm-.008.424a.206.206,0,0,1,.213.2v.007a.207.207,0,1,1-.213-.205Z" class="aw-theme-iconOutline" fill="#464646"/>
      <path id="path882" d="M6.265,12.7a.63.63,0,1,0,.631.629.63.63,0,0,0-.631-.629Zm-.008.424a.2.2,0,0,1,.212.2v.008a.2.2,0,1,1-.213-.205Z" class="aw-theme-iconOutline" fill="#464646"/>
      <path id="path878" d="M9.262,11.817a.63.63,0,1,0,.631.629A.63.63,0,0,0,9.262,11.817Zm-.008.424a.206.206,0,0,1,.213.2v.007a.207.207,0,1,1-.213-.205Z" class="aw-theme-iconOutline" fill="#464646"/>
      <path id="path874" d="M5.062,5.673v.312A2.753,2.753,0,0,0,3.122,8.7v.932a.444.444,0,0,1-.424.465h-.42a.223.223,0,0,0-.212.234v.837l-.208.208a.214.214,0,0,0-.041.241l.153.323-.34.121a.212.212,0,0,0-.14.2v.373a.214.214,0,0,0,.14.2l.34.117-.153.324a.212.212,0,0,0,.041.241l.263.263a.212.212,0,0,0,.241.041l.323-.153.121.344a.212.212,0,0,0,.2.142h.373a.213.213,0,0,0,.195-.139l.121-.342.324.152a.21.21,0,0,0,.24-.042l.263-.263a.2.2,0,0,0,.037-.07v.067a.214.214,0,0,0,.141.2l.34.118-.154.323a.214.214,0,0,0,.042.241l.263.263a.21.21,0,0,0,.241.042l.323-.153.121.343a.212.212,0,0,0,.2.142h.373a.212.212,0,0,0,.2-.142l.121-.343.322.153a.212.212,0,0,0,.242-.041L7.6,14.4a.212.212,0,0,0,.042-.24l-.154-.324.341-.121a.21.21,0,0,0,.13-.168l.232.236a.214.214,0,0,0,.242.042l.322-.153.121.344a.216.216,0,0,0,.2.142h.372a.215.215,0,0,0,.2-.143l.122-.342.321.152a.212.212,0,0,0,.242-.042l.263-.263a.212.212,0,0,0,.042-.241l-.153-.323.339-.121a.212.212,0,0,0,.141-.2v-.372a.214.214,0,0,0-.14-.2l-.338-.119.153-.322a.214.214,0,0,0-.041-.242l-.066-.065v-.979a.223.223,0,0,0-.209-.236H9.9a.446.446,0,0,1-.424-.466V8.7A2.74,2.74,0,0,0,7.427,5.957V5.673Zm.6.69h1.3v4h.46V6.432A2.3,2.3,0,0,1,9.015,8.7v.931a.906.906,0,0,0,.884.926h.177v.71H2.523v-.711H2.7a.906.906,0,0,0,.884-.926V8.7a2.32,2.32,0,0,1,1.48-2.235v3.9h.461V6.371C5.571,6.367,5.617,6.363,5.665,6.363Zm.954,5.358H7.941l.1.214-.339.118a.208.208,0,0,0-.131.168l-.236-.236a.212.212,0,0,0-.242-.042l-.323.155-.117-.335C6.645,11.745,6.629,11.736,6.619,11.721Zm-4.282.005h1.7l-.086.18a.274.274,0,0,0,0,.221.27.27,0,0,0,.161.151l.353.128v.073l-.353.124a.271.271,0,0,0-.166.346l.011.027.162.342-.052.05-.341-.162a.27.27,0,0,0-.219,0,.274.274,0,0,0-.155.163l-.126.358H3.154l-.126-.358a.277.277,0,0,0-.153-.165.272.272,0,0,0-.22.006l-.342.162-.051-.051.162-.341a.272.272,0,0,0-.132-.363l-.024-.01-.356-.124v-.072l.354-.128a.27.27,0,0,0,.162-.152.267.267,0,0,0-.006-.221Zm2.176,0h1.4c-.01.014-.026.025-.032.042l-.117.335-.325-.154a.213.213,0,0,0-.241.043l-.263.262a.214.214,0,0,0-.037.07v-.069a.213.213,0,0,0-.143-.2v0l-.34-.118Zm3.9,0h1.706l-.085.18a.272.272,0,0,0,.128.362l.028.011.357.127,0,.073-.353.126a.271.271,0,0,0-.17.344l.012.029.162.342-.051.051L9.8,13.208a.272.272,0,0,0-.22,0,.276.276,0,0,0-.153.163l-.127.358H9.227L9.1,13.367a.273.273,0,0,0-.375-.159l-.341.163-.051-.052.162-.34a.265.265,0,0,0,0-.222.27.27,0,0,0-.16-.152l-.356-.126v-.072l.356-.128a.271.271,0,0,0,.167-.346L8.5,11.906Zm-2.179.328H6.3l.126.354a.273.273,0,0,0,.373.153l.342-.162.051.051-.162.342a.273.273,0,0,0,.132.363l.024.01.356.126,0,.067-.354.127a.272.272,0,0,0-.169.344c0,.01.008.02.013.03L7.2,14.2l-.051.051-.339-.161a.272.272,0,0,0-.22-.007.278.278,0,0,0-.158.164l-.125.359H6.227L6.1,14.247a.27.27,0,0,0-.372-.158l-.341.162L5.337,14.2l.161-.34a.272.272,0,0,0-.127-.363l-.027-.011-.355-.123v-.072l.357-.126a.276.276,0,0,0,.161-.153.266.266,0,0,0-.006-.221l-.162-.341.052-.051.341.162a.271.271,0,0,0,.362-.126l.011-.027Zm-1.337.453.148.312-.339.118a.214.214,0,0,0-.142.2h0v.121l-.148-.308.339-.121a.213.213,0,0,0,.142-.2Zm2.673.145a.211.211,0,0,0,.134.177l.339.118-.08.166a.207.207,0,0,0-.133-.177l-.34-.118Z" class="aw-theme-iconOutline" fill="#464646"/>
    </g>
    <path id="path886-9" d="M12.934,11.816a.63.63,0,1,0,.63.63A.631.631,0,0,0,12.934,11.816Zm-.008.425a.2.2,0,0,1,.212.2v.008a.207.207,0,1,1-.213-.205Z" class="aw-theme-iconOutline" fill="#f54646"/>
    <path id="path861" d="M19.068,7.725l-.445.111a2.3,2.3,0,0,1,.135.861v.235l.459-.118V8.7A2.745,2.745,0,0,0,19.068,7.725Z" class="aw-theme-iconOutline" fill="#464646"/>
    <g id="g1085">
      <path id="path886-1-5" d="M12.935,11.817a.63.63,0,1,0,.63.63A.631.631,0,0,0,12.935,11.817Zm-.009.425a.2.2,0,0,1,.213.2v.008a.207.207,0,1,1-.213-.2Z" class="aw-theme-iconOutline" fill="#464646"/>
      <path id="path874-8-0" d="M14.807,5.673v.312A2.753,2.753,0,0,0,12.866,8.7v.932a.446.446,0,0,1-.422.465h-.422a.222.222,0,0,0-.211.236v.836l-.209.207a.212.212,0,0,0-.041.24l.152.325-.337.121a.21.21,0,0,0-.141.2v.373a.214.214,0,0,0,.141.2l.337.117-.152.325a.214.214,0,0,0,.041.242l.264.262a.215.215,0,0,0,.24.041l.322-.153.121.344a.216.216,0,0,0,.2.141h.373a.214.214,0,0,0,.2-.139l.121-.342.3.141a3.694,3.694,0,0,1,.9-1.58.212.212,0,0,0-.14-.174l0,0-.34-.117.1-.211h.891l.494-.461H12.268v-.711h.176a.906.906,0,0,0,.885-.926V8.7a2.321,2.321,0,0,1,1.48-2.234v3.9h.459V6.37c.047,0,.093-.008.141-.008h1.3v3.907l.459-.428V6.433a2.3,2.3,0,0,1,1.579,1.992,3.683,3.683,0,0,1,.425-.287,2.74,2.74,0,0,0-2-2.18V5.673Zm-2.726,6.053h1.705l-.086.181a.271.271,0,0,0,.156.371l.354.129v.073l-.354.123a.271.271,0,0,0-.154.373l.162.342-.053.05-.34-.162a.272.272,0,0,0-.22,0,.276.276,0,0,0-.155.164l-.127.358H12.9l-.127-.358a.277.277,0,0,0-.152-.166.266.266,0,0,0-.221.006l-.342.162-.051-.05.163-.342a.274.274,0,0,0-.157-.373l-.355-.123v-.073l.353-.127a.268.268,0,0,0,.162-.152.27.27,0,0,0-.005-.221Z" class="aw-theme-iconOutline" fill="#464646"/>
    </g>
  </g>
</svg>
