<svg id="Layer_1" data-name="Layer 1" xmlns="http://www.w3.org/2000/svg" width="24" viewBox="0 0 24 24">
  <g id="g848">
    <path id="rect838" d="M4.134,5.9H4.2a.381.381,0,0,1,.382.382v6.737A.381.381,0,0,1,4.2,13.4h-.07a.38.38,0,0,1-.382-.381V6.28A.381.381,0,0,1,4.134,5.9Z" class="aw-theme-iconOutline" fill="#464646"/>
    <path id="rect838-0" d="M15.864,5.919h.07a.381.381,0,0,1,.382.382v4.637h-.834V6.3A.382.382,0,0,1,15.864,5.919Z" class="aw-theme-iconOutline" fill="#464646"/>
    <path id="rect838-0-7-4" d="M3.843,12.784l-.034.062a.383.383,0,0,0,.155.517l5.886,3.23a.381.381,0,0,0,.517-.155l.034-.062a.382.382,0,0,0-.155-.517L4.36,12.63A.379.379,0,0,0,3.843,12.784Z" class="aw-theme-iconOutline" fill="#464646"/>
    <path id="rect838-0-7-4-7" d="M3.83,6.5,3.8,6.438a.382.382,0,0,1,.154-.517l5.928-3.2a.381.381,0,0,1,.517.155l.033.062a.38.38,0,0,1-.154.517l-5.927,3.2A.381.381,0,0,1,3.83,6.5Z" class="aw-theme-iconOutline" fill="#464646"/>
    <path id="rect838-0-7-9" d="M16.216,6.506l.033-.062a.381.381,0,0,0-.154-.517L10.273,2.746a.381.381,0,0,0-.517.154l-.033.063a.38.38,0,0,0,.154.516L15.7,6.661A.381.381,0,0,0,16.216,6.506Z" class="aw-theme-iconOutline" fill="#464646"/>
    <path id="rect838-0-7-4-73" d="M11.936,15.6,10.263,16.62a.374.374,0,0,1-.517-.155L9.712,16.4a.384.384,0,0,1,.155-.517l1.673-1.02Z" class="aw-theme-iconOutline" fill="#464646"/>
    <path id="rect1007" d="M0,9.167H4.167V10H0Z" class="aw-theme-iconOutline" fill="#464646"/>
    <path id="rect1007-5" d="M15.833,9.167h2.225V10H15.833Z" class="aw-theme-iconOutline" fill="#464646"/>
    <path id="rect1007-5-4" d="M10.417,15.833V18H9.583V15.833Z" class="aw-theme-iconOutline" fill="#464646"/>
    <path id="rect1007-5-4-2" d="M10.417,0V3.333H9.583V0Z" class="aw-theme-iconOutline" fill="#464646"/>
    <path id="path821" d="M13.6,24a3.616,3.616,0,0,1-2.557-6.17c.431-.43.8-.8,1.122-1.136,1.631-1.664,2.122-2.165,3.381-2.347a3.608,3.608,0,0,1,4.1,3.038v.034l-.99.137a2.605,2.605,0,0,0-2.936-2.225h-.034c-.9.13-1.222.438-2.8,2.05-.333.34-.7.718-1.136,1.15a2.619,2.619,0,0,0,0,3.7,2.678,2.678,0,0,0,3.7,0l2.219-2.207.709.7-2.219,2.21A3.588,3.588,0,0,1,13.6,24Z" class="aw-theme-iconOutline" fill="#464646"/>
    <path id="path2" d="M20.456,18.636l2.469-2.468a3.615,3.615,0,0,0,0-5.111,3.7,3.7,0,0,0-5.113,0l-2.219,2.208.709.705,2.216-2.211a2.678,2.678,0,0,1,3.7,0,2.618,2.618,0,0,1,0,3.7l-2.469,2.468a2.53,2.53,0,0,1-1.823.77,2.636,2.636,0,0,1-2.615-2.254l-.991.134a3.641,3.641,0,0,0,3.606,3.12,3.513,3.513,0,0,0,2.533-1.058Z" class="aw-theme-iconOutline" fill="#464646"/>
  </g>
</svg>
