<svg version="1.1" id="Artwork" xmlns="http://www.w3.org/2000/svg" xmlns:xlink="http://www.w3.org/1999/xlink" x="0px" y="0px"
	 width="24px" height="24px" viewBox="0 0 24 24" enable-background="new 0 0 24 24" xml:space="preserve">
<polygon class="aw-theme-iconOutline" fill="#464646" points="9.9,9.1 4.7,4 9,4 9,3 3,3 3,9 4,9 4,4.7 9.1,9.9 "/>
<polygon class="aw-theme-iconOutline" fill="#464646" points="15,3 15,4 19.3,4 14.1,9.1 14.9,9.9 20,4.7 20,9 21,9 21,3 "/>
<polygon class="aw-theme-iconOutline" fill="#464646" points="20,15 20,19.3 14.9,14.1 14.1,14.9 19.3,20 15,20 15,21 21,21 21,15 "/>
<polygon class="aw-theme-iconOutline" fill="#464646" points="9.9,14.9 9.1,14.1 4,19.3 4,15 3,15 3,21 9,21 9,20 4.7,20 "/>
<path class="aw-theme-iconOutline" fill="#464646" d="M24,24H0V0h24V24z M1,23h22V1H1V23z"/>
</svg>
