<svg version="1.1" id="Verb_x5F_Zone" xmlns="http://www.w3.org/2000/svg" xmlns:xlink="http://www.w3.org/1999/xlink" x="0px"
	 y="0px"  viewBox="0 0 24 24" enable-background="new 0 0 24 24" xml:space="preserve">
<path id="rect3145" class="aw-theme-iconOutline" fill="#464646" d="M12.032,0.023c-0.277,0-0.5,0.223-0.5,0.5v2.029l-1.355-1.387
	C9.983,0.968,9.671,0.968,9.478,1.164s-0.193,0.513,0,0.711l2.055,2.104v7.07L5.53,7.037l-0.6-2.678
	C4.885,4.157,4.724,4.009,4.532,3.971C4.468,3.958,4.4,3.959,4.333,3.973C4.063,4.028,3.894,4.288,3.954,4.559l0.375,1.674
	L2.741,5.172c-0.096-0.064-0.212-0.085-0.32-0.066s-0.208,0.077-0.277,0.17L2.034,5.424c-0.138,0.186-0.093,0.439,0.1,0.568
	l1.898,1.27l-2.105,0.42C1.655,7.736,1.483,7.996,1.542,8.266S1.868,8.708,2.14,8.654L5.065,8.07c0.039-0.008,0.065-0.035,0.1-0.051
	l6.002,4.012l-5.91,3.943l-2.928-0.582c-0.068-0.014-0.135-0.013-0.199,0c-0.192,0.039-0.352,0.187-0.396,0.389
	c-0.059,0.27,0.111,0.529,0.383,0.584l1.967,0.393l-1.947,1.299c-0.193,0.129-0.238,0.383-0.102,0.57l0.1,0.137
	c0.137,0.188,0.402,0.234,0.596,0.105l1.707-1.139l-0.393,1.756c-0.061,0.271,0.108,0.533,0.379,0.588s0.537-0.118,0.598-0.389
	l0.617-2.758l5.895-3.934v7.027L9.47,22.133c-0.193,0.198-0.194,0.517,0,0.713s0.506,0.194,0.699-0.004l1.363-1.396v2.031
	c0,0.277,0.223,0.5,0.5,0.5s0.5-0.223,0.5-0.5v-2.023l1.359,1.393c0.193,0.198,0.506,0.198,0.699,0.002s0.193-0.515,0-0.713
	l-2.059-2.107v-7.082l5.807,3.881l0.646,2.885c0.061,0.271,0.325,0.443,0.596,0.389s0.439-0.317,0.379-0.588l-0.42-1.883
	l1.746,1.168c0.193,0.129,0.458,0.082,0.596-0.104l0.111-0.148c0.138-0.186,0.094-0.439-0.1-0.568l-1.805-1.207l1.9-0.379
	c0.271-0.055,0.441-0.314,0.383-0.584s-0.324-0.443-0.596-0.389l-2.859,0.568l-5.93-3.965l5.977-3.988l2.898,0.578
	c0.271,0.054,0.537-0.119,0.596-0.389s-0.111-0.53-0.383-0.584l-1.938-0.387l1.789-1.195c0.193-0.129,0.238-0.383,0.102-0.57
	l-0.1-0.137c-0.068-0.094-0.17-0.151-0.277-0.17s-0.222,0.002-0.318,0.066L19.63,6.383l0.416-1.865
	c0.061-0.271-0.108-0.533-0.379-0.588C19.6,3.916,19.534,3.915,19.47,3.928c-0.191,0.038-0.354,0.188-0.398,0.391l-0.643,2.865
	l-5.896,3.936V3.988l2.066-2.115c0.193-0.198,0.193-0.517,0-0.713c-0.097-0.098-0.223-0.147-0.35-0.146s-0.253,0.051-0.35,0.15
	l-1.367,1.4V0.523C12.532,0.247,12.31,0.023,12.032,0.023z"/>
</svg>
