<svg version="1.1" id="Artwork" xmlns="http://www.w3.org/2000/svg" xmlns:xlink="http://www.w3.org/1999/xlink" x="0px" y="0px"
	 width="24px" height="24px" viewBox="0 0 24 24" enable-background="new 0 0 24 24" xml:space="preserve">
<rect x="11" class="aw-theme-iconOutline" fill="#464646" width="1" height="3"/>
<rect x="11" y="5" class="aw-theme-iconOutline" fill="#464646" width="1" height="3"/>
<rect x="11" y="10" class="aw-theme-iconOutline" fill="#464646" width="1" height="3"/>
<rect x="11" y="15" class="aw-theme-iconOutline" fill="#464646" width="1" height="3"/>
<rect x="11" y="20" class="aw-theme-iconOutline" fill="#464646" width="1" height="3"/>
<path class="aw-theme-iconOutline" fill="#464646" d="M8,20H0.5c-0.2,0-0.3-0.1-0.4-0.2C0,19.6,0,19.5,0,19.3l7-16C7.1,3.1,7.4,3,7.6,3C7.8,3.1,8,3.3,8,3.5V20z
	 M1.3,19H7V5.9L1.3,19z"/>
<path class="aw-theme-iconOutline" fill="#464646" d="M22.5,20H15V3.5c0-0.2,0.2-0.4,0.4-0.5C15.6,3,15.9,3.1,16,3.3l7,16c0.1,0.2,0.1,0.3,0,0.5
	C22.8,19.9,22.7,20,22.5,20z M16,19h5.7L16,5.9V19z"/>
</svg>
