<svg id="Image" xmlns="http://www.w3.org/2000/svg" viewBox="0 0 24 24">
  <path d="M1.354,23.354l-.708-.708,22-22,.708.708ZM19.994,6.127,14.1,15.1a.367.367,0,0,0-.1.3v4.8l-4,2.4V16.121l-1,1V23.5c0,.2.1.3.3.4,0,.1.1.1.2.1a.367.367,0,0,0,.3-.1l5-3a.4.4,0,0,0,.2-.4v-5L22.8,3.6a1,1,0,0,0,.186-.465ZM3.2,4.9A31.993,31.993,0,0,0,12,6a40.212,40.212,0,0,0,4.089-.21L17.2,4.677A38.629,38.629,0,0,1,12,5C5.5,5,2,3.7,2,3S5.5,1,12,1a30.332,30.332,0,0,1,7.993.885l.8-.8A29.806,29.806,0,0,0,12,0C6.7,0,1,.9,1,3a1.072,1.072,0,0,0,.2.6L7.962,13.917l.7-.7Z" class="aw-theme-iconOutline" fill="#464646"/>
</svg>
