<svg version="1.1" id="Livello_3" xmlns="http://www.w3.org/2000/svg" xmlns:xlink="http://www.w3.org/1999/xlink" x="0px" y="0px"
	 viewBox="0 0 24 24" enable-background="new 0 0 24 24" xml:space="preserve">
<path id="path2" class="aw-theme-iconOutline" fill="#464646" d="M4.457,1v1v5h1V2h7V1H4.457z M15.633,2.563c-3.063,0-6.357,0.514-6.357,1.717
	c0,0.115,0.058,0.286,0.115,0.344l3,4.537c-1.223,0.279-2.063,0.708-2.063,1.314c0,0.115,0.058,0.286,0.115,0.344l4.508,6.814v4.58
	c0,0.115-0.039,0.193,0.076,0.25c0,0.058,0.155,0.037,0.213,0.037s0.116,0.001,0.174-0.057l3.045-1.719
	c0.115-0.058,0.136-0.172,0.137-0.229l0.039-2.707l4.154-6.717c0.058-0.058,0.254-0.483,0.254-0.598
	c0-0.889-1.803-1.398-3.979-1.605l2.809-4.246c0.058-0.058,0.117-0.227,0.117-0.342c0-1.203-3.295-1.717-6.357-1.717V2.563z
	 M15.633,3.578c3.756,0,5.268,0.369,5.268,0.77s-1.512,1.078-5.268,1.078c-3.756,0-5.234-0.589-5.234-0.99
	S11.876,3.578,15.633,3.578z M11.385,5.963c1.271,0.401,2.383,0.518,4.232,0.518c1.907,0,3.045-0.08,4.316-0.48l-1.877,2.797
	c-0.455-0.023-0.914-0.039-1.371-0.039c-1.148,0-2.33,0.073-3.357,0.227L11.385,5.963z M0.957,8v8h8V8H0.957z M1.957,9h6v6h-6V9z
	 M16.617,9.74c3.756,0,5.301,0.437,5.301,0.838s-1.477,1.043-5.232,1.043s-5.271-0.765-5.271-1.166S12.861,9.74,16.617,9.74z
	 M4.457,10v1.5h-1.5v1h1.5V14h1v-1.5h1.5v-1h-1.5V10H4.457z M12.494,12.08c1.271,0.4,2.41,0.57,4.26,0.57
	c1.907,0,2.852,0.016,4.123-0.385l-3.158,4.982c-0.058,0.058-0.052,0.235-0.049,0.293l-0.033,2.643l-1.68,0.924l-0.008-3.521
	c0-0.058-0.024-0.28-0.082-0.338L12.494,12.08z M4.457,17v5v1h8v-1h-7v-5H4.457z"/>
</svg>
