<svg version="1.1" id="Artwork" xmlns="http://www.w3.org/2000/svg" xmlns:xlink="http://www.w3.org/1999/xlink" x="0px" y="0px"
	 width="24px" height="24px" viewBox="0 0 24 24" enable-background="new 0 0 24 24" xml:space="preserve">
<path class="aw-theme-iconOutline" fill="#464646" d="M23,3c0-2.1-5.7-3-11-3S1,0.9,1,3c0,0.2,0.1,0.5,0.2,0.6L9,15.5v8c0,0.2,0.1,0.3,0.3,0.4
	C9.3,24,9.4,24,9.5,24c0.1,0,0.2,0,0.3-0.1l5-3c0.2-0.1,0.2-0.3,0.2-0.4v-5l7.8-11.9C22.9,3.5,23,3.2,23,3z M12,1c6.5,0,10,1.3,10,2
	s-3.5,2-10,2S2,3.7,2,3S5.5,1,12,1z M14.1,15.1C14,15.2,14,15.3,14,15.4v4.8l-4,2.4v-7.2c0-0.1,0-0.2-0.1-0.3L3.2,4.9
	C5.4,5.6,8.8,6,12,6c3.3,0,6.6-0.4,8.8-1.1L14.1,15.1z"/>
</svg>
