<svg id="Layer_1" data-name="Layer 1" xmlns="http://www.w3.org/2000/svg" viewBox="0 0 24 24">
  <g id="g845">
    <path id="path829" d="M1.612,21.2c-.224-.055-.556-.142-.737-.194l-.331-.095L.531,18.815c-.007-1.151,0-2.093.016-2.093s.345.183.731.407c.979.567,1.234.591,1.5.139a12.336,12.336,0,0,0,.74-3.4c.2-1.247.358-2.294.358-2.326s-.139-.059-.433-.059H3.01V7.671H4.465l.09-.877a7.552,7.552,0,0,1,.327-1.819A4.413,4.413,0,0,1,7.434,2.318a4.658,4.658,0,0,1,1.805-.3,5.15,5.15,0,0,1,1.742.263l.368.112V4.422c0,1.116-.011,2.029-.026,2.029s-.283-.117-.6-.26A3.657,3.657,0,0,0,9.4,5.74c-.47,0-.605.209-.716,1.1-.117.934-.184.834.559.834h.636v3.814H8.017l-.4,2.58c-.219,1.42-.465,2.839-.545,3.155a5.882,5.882,0,0,1-1.39,2.693,4.381,4.381,0,0,1-2.036,1.262A5.5,5.5,0,0,1,1.612,21.2ZM3.331,20.4a4.076,4.076,0,0,0,2.848-3,26.2,26.2,0,0,0,.69-3.869L7.312,10.7l.862-.026.862-.025V8.51L8.362,8.5c-.647-.014-.674-.019-.674-.121a22.608,22.608,0,0,1,.353-2.537A1.311,1.311,0,0,1,8.667,5.1a1.127,1.127,0,0,1,.75-.145,1.889,1.889,0,0,1,.763.114,2.374,2.374,0,0,0,.318.112,8.023,8.023,0,0,0,.038-1.087V3.006l-.221-.061a5.288,5.288,0,0,0-1.534-.1A3.516,3.516,0,0,0,5.606,5.408c-.084.271-.4,2.636-.409,3.039a3.148,3.148,0,0,1-.687.038H3.824v2.186h.508a2.6,2.6,0,0,1,.509.025c0,.013-.208,1.335-.461,2.936-.494,3.123-.6,3.575-.941,4.094a1.5,1.5,0,0,1-.805.629A1.85,1.85,0,0,1,1.6,18.248a2.643,2.643,0,0,0-.25-.1c-.01,0-.019.479-.019,1.066v1.065l.191.05c.1.027.271.072.369.1A4.22,4.22,0,0,0,3.331,20.4Z" class="aw-theme-iconOutline" fill="#464646"/>
    <path id="path831" d="M11.06,18.26,12.954,15.5c.778-1.133,1.416-2.105,1.417-2.161S13.522,12,12.483,10.48l-1.89-2.758h4.6l.882,1.371c.485.754.9,1.362.916,1.351s.421-.628.895-1.37l.862-1.349h2.3l2.3,0-.147.216L21.3,10.731c-.969,1.418-1.762,2.589-1.762,2.6s.856,1.287,1.9,2.826l1.9,2.8-2.3-.013-2.295-.013-.867-1.358c-.477-.747-.883-1.359-.9-1.36s-.431.615-.916,1.37l-.881,1.372H10.581Zm4.824-1.71,1.091-1.7,1.09,1.7,1.089,1.7H20.54a7.437,7.437,0,0,0,1.385-.051c0-.028-.732-1.127-1.627-2.442s-1.627-2.4-1.627-2.419.738-1.106,1.64-2.424S21.959,8.5,21.968,8.475a11.7,11.7,0,0,0-1.4-.041H19.149L18.086,10.09c-.584.911-1.078,1.665-1.1,1.677s-.519-.734-1.112-1.656L14.8,8.434H13.377c-1.167,0-1.415.012-1.382.067.022.037.77,1.133,1.662,2.436s1.624,2.378,1.627,2.389-.728,1.094-1.625,2.407-1.648,2.416-1.668,2.451c-.03.05.26.063,1.382.063h1.42Z" class="aw-theme-iconOutline" fill="#464646"/>
  </g>
</svg>
