<svg version="1.1" id="Layer_1" xmlns="http://www.w3.org/2000/svg" xmlns:xlink="http://www.w3.org/1999/xlink" x="0px" y="0px"
	 viewBox="0 0 24 24" enable-background="new 0 0 24 24" xml:space="preserve">
<polygon class="aw-theme-iconOutline" fill="#464646" points="15.947,16.918 12.865,20.1 12.865,13.8 11.865,13.8 11.865,20.1 8.8,16.935 8,17.735 
	12.365,22 16.747,17.718 "/>
<polygon class="aw-theme-iconOutline" fill="#464646" points="8.8,7.882 11.882,4.7 11.882,11 12.882,11 12.882,4.7 15.947,7.865 16.747,7.065 12.382,2.8 
	8,7.082 "/>
<g>
	<polygon class="aw-theme-iconOutline" fill="#464646" points="3,24 3,17 3.982,17 3.982,23.009 7.909,23.009 7.909,24 	"/>
</g>
<g>
	<polygon class="aw-theme-iconOutline" fill="#464646" points="20.909,24 20.909,17 19.927,17 19.927,23.009 16,23.009 16,24 	"/>
</g>
<g>
	<polygon class="aw-theme-iconOutline" fill="#464646" points="3,7 3,0 7.909,0 7.909,1.038 3.982,1.038 3.982,7 	"/>
</g>
<g>
	<polygon class="aw-theme-iconOutline" fill="#464646" points="20.909,7 20.909,0 16,0 16,1.038 19.927,1.038 19.927,7 	"/>
</g>
</svg>
