<svg version="1.1" id="Livello_2" xmlns="http://www.w3.org/2000/svg" xmlns:xlink="http://www.w3.org/1999/xlink" x="0px" y="0px"
	  viewBox="0 0 24 24" enable-background="new 0 0 24 24" xml:space="preserve">
<path id="rect1402" class="aw-theme-iconOutline" fill="#464646" d="M2.411,1C1.617,1,0.978,1.67,0.978,2.502v18.996C0.978,22.33,1.617,23,2.411,23h19.176
	c0.795,0,1.436-0.67,1.436-1.502V2.502C23.022,1.67,22.382,1,21.587,1H2.411z M2.978,2h18c0.555,0,1,0.486,1,1.092v17.816
	c0,0.605-0.445,1.092-1,1.092h-18c-0.554,0-1-0.486-1-1.092V3.092C1.978,2.486,2.423,2,2.978,2z M14.603,3.068l-0.021,0.457
	c-0.012,0.251-0.023,0.945-0.025,1.541L14.552,6.15l-1.34-0.008c-1.452-0.006-1.73,0.015-2.553,0.197
	C8.694,6.776,6.793,7.964,5.517,9.551c-0.851,1.058-1.602,2.558-1.855,3.699c-0.15,0.678-0.178,0.973-0.195,2.141
	c-0.024,1.6,0.046,2.443,0.279,3.338c0.261,1.001,0.658,1.781,1.051,2.068c0.167,0.121,0.261,0.162,0.453,0.199
	c0.571,0.107,1.125-0.396,1.652-1.504c0.266-0.558,0.468-1.202,0.703-2.236c0.26-1.146,0.376-1.566,0.553-2.01
	c0.524-1.316,1.585-2.503,2.584-2.889c0.628-0.242,1.66-0.383,3.342-0.457l0.469-0.02v1.555v1.555l3.188-2.961
	c1.753-1.628,3.188-2.975,3.188-2.994c0-0.019-1.422-1.37-3.162-3.002L14.603,3.068z M15.456,5.059l2.1,1.967
	c1.154,1.082,2.104,1.979,2.109,1.994c0.014,0.033-4.196,3.946-4.221,3.924c-0.01-0.01-0.014-0.445-0.008-0.969l0.01-0.953
	l-1.105,0.02c-1.701,0.031-2.856,0.164-3.674,0.422C9.3,11.894,7.971,13.309,7.3,15.047c-0.156,0.402-0.256,0.77-0.463,1.686
	c-0.224,0.994-0.353,1.477-0.502,1.877c-0.223,0.597-0.55,1.183-0.797,1.43v0.004c-0.059,0.059-0.127,0.105-0.152,0.105
	c-0.153,0-0.515-0.677-0.713-1.332c-0.271-0.899-0.337-1.496-0.342-3.055c-0.004-1.487,0.06-2.039,0.344-2.92
	c0.134-0.416,0.576-1.326,0.91-1.877C6.68,9.16,8.532,7.784,10.575,7.26c0.891-0.229,1.026-0.24,3.029-0.232l1.801,0.004
	l0.004-0.705c0.002-0.388,0.014-0.832,0.025-0.986L15.456,5.059z"/>
</svg>
