<svg id="Livello_2" data-name="Livello 2" xmlns="http://www.w3.org/2000/svg" viewBox="0 0 24 24">
  <g id="g816">
    <path id="path2" d="M7.376,3.29A4.084,4.084,0,0,0,3.254,7.316c0,2.379,1.832,5.123,4.122,5.123S11.5,9.7,11.5,7.316A4.084,4.084,0,0,0,7.376,3.29Zm0,.915a3.165,3.165,0,0,1,3.2,3.111c0,1.83-1.465,4.208-3.2,4.208S4.17,9.146,4.17,7.316A3.166,3.166,0,0,1,7.376,4.205ZM3.247,11.619a3.436,3.436,0,0,0-.972.433A6.907,6.907,0,0,0,.869,13.4a4.758,4.758,0,0,0-.787,1.776,34.471,34.471,0,0,0-.069,3.856L0,22.606H.964L.973,19l.009-3.6.091-.315A4.156,4.156,0,0,1,2.19,13.31a5.684,5.684,0,0,1,.918-.675l.1-.058.283.163a8.048,8.048,0,0,0,7.17.306c.238-.109.538-.258.666-.332l.232-.134.133.071a5.674,5.674,0,0,1,1.006.769,4.225,4.225,0,0,1,1.007,1.671l.075.245.01,3.637.011,3.634h.961l-.011-3.62c-.011-3.6-.012-3.62-.086-3.924a4.61,4.61,0,0,0-1.03-2,6.764,6.764,0,0,0-1.111-.995,3.417,3.417,0,0,0-.991-.447c-.131-.014-.169,0-.456.179A7.189,7.189,0,0,1,8.118,12.81a9.843,9.843,0,0,1-1.855-.049,7.062,7.062,0,0,1-2.59-.977C3.414,11.619,3.376,11.606,3.247,11.619ZM2.8,18v4.605h.916V18Zm8.243,0v4.605h.916V18Z" class="aw-theme-iconOutline" fill="#464646"/>
    <path id="path2-4" d="M16.61,1.107a4.084,4.084,0,0,0-4.121,4.026c0,2.379,1.831,5.123,4.121,5.123s4.122-2.744,4.122-5.123A4.085,4.085,0,0,0,16.61,1.107Zm0,.915a3.166,3.166,0,0,1,3.206,3.111c0,1.83-1.466,4.209-3.206,4.209S13.4,6.963,13.4,5.133A3.167,3.167,0,0,1,16.61,2.022ZM12.481,9.436l-.007,0v.974l.254.146a8.048,8.048,0,0,0,7.17.306c.238-.109.54-.258.667-.332L20.8,10.4l.132.071a5.752,5.752,0,0,1,1.006.768,4.225,4.225,0,0,1,1.007,1.671l.075.245.009,3.636.011,3.637H24l-.011-3.62c-.011-3.606-.012-3.621-.086-3.925a4.613,4.613,0,0,0-1.03-2,6.723,6.723,0,0,0-1.111-.995,3.405,3.405,0,0,0-.991-.447c-.131-.014-.168,0-.456.179a7.185,7.185,0,0,1-2.962,1.009,9.769,9.769,0,0,1-1.856-.05,7.061,7.061,0,0,1-2.59-.976c-.259-.164-.3-.179-.426-.166Zm7.793,6.381v4.608h.916V15.817Z" class="aw-theme-iconOutline" fill="#464646"/>
  </g>
</svg>
