<svg id="Image" xmlns="http://www.w3.org/2000/svg" viewBox="0 0 24 24">
  <g id="g886">
    <path id="rect870-7" d="M6,0H7V7H6Z" class="aw-theme-iconOutline" fill="#464646"/>
    <path id="rect870-7-1" d="M7,6V7H0V6Z" class="aw-theme-iconOutline" fill="#464646"/>
    <path id="rect870-7-2" d="M7,0V1H0V0Z" class="aw-theme-iconOutline" fill="#464646"/>
    <path id="rect908" d="M3,7H4V21H3Z" class="aw-theme-iconOutline" fill="#464646"/>
    <path id="rect934" d="M4,20H17v1H4Z" class="aw-theme-iconOutline" fill="#464646"/>
    <path id="rect934-1" d="M7,3H21V4H7Z" class="aw-theme-iconOutline" fill="#464646"/>
    <path id="rect908-5" d="M11,4h1V8H11Z" class="aw-theme-iconOutline" fill="#464646"/>
    <path id="rect870-6-7-5" d="M0,0H1V7H0Z" class="aw-theme-iconOutline" fill="#464646"/>
    <path id="rect870-7-3" d="M23,17h1v7H23Z" class="aw-theme-iconOutline" fill="#464646"/>
    <path id="rect870-7-1-0" d="M24,23v1H17V23Z" class="aw-theme-iconOutline" fill="#464646"/>
    <path id="rect870-7-2-2" d="M24,17v1H17V17Z" class="aw-theme-iconOutline" fill="#464646"/>
    <path id="rect870-6-7-5-7" d="M17,17h1v7H17Z" class="aw-theme-iconOutline" fill="#464646"/>
    <path id="rect870-7-8" d="M23,8h1v7H23Z" class="aw-theme-iconOutline" fill="#464646"/>
    <path id="rect870-7-1-3" d="M24,14v1H17V14Z" class="aw-theme-iconOutline" fill="#464646"/>
    <path id="rect870-7-2-0" d="M24,8V9H17V8Z" class="aw-theme-iconOutline" fill="#464646"/>
    <path id="rect870-6-7-5-3" d="M17,8h1v7H17Z" class="aw-theme-iconOutline" fill="#464646"/>
    <path id="rect870-7-8-9" d="M14,8h1v7H14Z" class="aw-theme-iconOutline" fill="#464646"/>
    <path id="rect870-7-1-3-2" d="M15,14v1H8V14Z" class="aw-theme-iconOutline" fill="#464646"/>
    <path id="rect870-7-2-0-4" d="M15,8V9H8V8Z" class="aw-theme-iconOutline" fill="#464646"/>
    <path id="rect870-6-7-5-3-3" d="M8,8H9v7H8Z" class="aw-theme-iconOutline" fill="#464646"/>
    <path id="rect908-5-7" d="M20,4h1V8H20Z" class="aw-theme-iconOutline" fill="#464646"/>
  </g>
</svg>
