<svg id="svg8" xmlns="http://www.w3.org/2000/svg" viewBox="0 0 24 24">
  <g id="layer1">
    <g id="g868">
      <path id="rect864" d="M1.007,8.507v6.986H7.993V8.507ZM2.171,9.671H6.829v4.658H2.171Z" class="aw-theme-iconOutline" fill="#464646"/>
      <path id="rect882" d="M3.006,11.507H5.994v.987H3.006Z" class="aw-theme-iconOutline" fill="#464646"/>
      <path id="rect882-0" d="M4,13.5v-3H5v3Z" class="aw-theme-iconOutline" fill="#464646"/>
      <path id="rect899" d="M4,2H5V9H4Z" class="aw-theme-iconOutline" fill="#464646"/>
      <path id="rect899-8" d="M4,15H5v7H4Z" class="aw-theme-iconOutline" fill="#464646"/>
      <path id="path828" d="M12,4v7H22V4Zm1,1h8v5H13Z" class="aw-theme-iconOutline" fill="#464646"/>
      <path id="rect943" d="M14,7h6V8H14Z" class="aw-theme-iconOutline" fill="#464646"/>
      <path id="rect971" d="M4,22H18v1H4Z" class="aw-theme-iconOutline" fill="#464646"/>
      <path id="rect973" d="M4,1H18V2H4Z" class="aw-theme-iconOutline" fill="#464646"/>
      <path id="path828-0" d="M12,13v7H22V13Zm1,1h8v5H13Z" class="aw-theme-iconOutline" fill="#464646"/>
      <path id="rect943-0" d="M14,16h6v1H14Z" class="aw-theme-iconOutline" fill="#464646"/>
    </g>
  </g>
</svg>
