<svg version="1.1" id="Layer_1" xmlns="http://www.w3.org/2000/svg" xmlns:xlink="http://www.w3.org/1999/xlink" x="0px" y="0px"
	 viewBox="0 0 24 24" enable-background="new 0 0 24 24" xml:space="preserve">
<path class="aw-theme-iconOutline" fill="#464646" d="M10.5,10h-7C2.673,10,2,9.327,2,8.5S2.673,7,3.5,7h7C11.327,7,12,7.673,12,8.5S11.327,10,10.5,10z M3.5,8
	C3.224,8,3,8.224,3,8.5S3.224,9,3.5,9h7C10.776,9,11,8.776,11,8.5S10.776,8,10.5,8H3.5z"/>
<path class="aw-theme-iconOutline" fill="#464646" d="M10.5,14h-3C6.673,14,6,13.327,6,12.5S6.673,11,7.5,11h3c0.827,0,1.5,0.673,1.5,1.5S11.327,14,10.5,14z
	 M7.5,12C7.224,12,7,12.224,7,12.5S7.224,13,7.5,13h3c0.276,0,0.5-0.224,0.5-0.5S10.776,12,10.5,12H7.5z"/>
<path class="aw-theme-iconOutline" fill="#464646" d="M2,2v2.707l1.5,1.5L4.707,5h10.586L16.5,6.207l1.5-1.5V2H2z M3,4.293V3h1v1.293l-0.5,0.5L3,4.293z M15,4H5V3
	h10V4z M17,4.293l-0.5,0.5l-0.5-0.5V3h1V4.293z"/>
<path class="aw-theme-iconOutline" fill="#464646" d="M23.854,17.146c-0.195-0.195-0.512-0.195-0.707,0l-1.211,1.211C21.616,15.906,19.537,14,17,14
	c-1.615,0-3.138,0.786-4.076,2.103l0.814,0.58C14.489,15.629,15.708,15,17,15c1.936,0,3.554,1.383,3.92,3.213l-1.067-1.067
	c-0.195-0.195-0.512-0.195-0.707,0s-0.195,0.512,0,0.707l2,2C21.244,19.951,21.372,20,21.5,20s0.256-0.049,0.354-0.146l2-2
	C24.049,17.658,24.049,17.342,23.854,17.146z"/>
<path class="aw-theme-iconOutline" fill="#464646" d="M20.282,21.288C19.533,22.36,18.306,23,17,23c-1.94,0-3.56-1.39-3.922-3.226l1.066,1.077
	C14.242,20.951,14.371,21,14.5,21c0.127,0,0.254-0.048,0.352-0.145c0.196-0.194,0.198-0.511,0.004-0.707l-1.979-2
	C12.783,18.054,12.656,18,12.523,18c0,0-0.001,0-0.002,0c-0.132,0-0.258,0.052-0.352,0.145l-2.021,2
	c-0.196,0.194-0.198,0.511-0.004,0.707c0.194,0.197,0.512,0.198,0.707,0.004l1.214-1.202C12.39,22.099,14.467,24,17,24
	c1.632,0,3.166-0.8,4.101-2.139L20.282,21.288z"/>
<polygon class="aw-theme-iconOutline" fill="#464646" points="8,20 0,20 0,0 20,0 20,12 19,12 19,1 1,1 1,19 8,19 "/>
</svg>
