<svg id="Layer_1" data-name="Layer 1" xmlns="http://www.w3.org/2000/svg" viewBox="0 0 24 24">
  <g id="g868">
    <path id="rect26" d="M0,1V6H24V1ZM1,2H23V5H1Z" class="aw-theme-iconOutline" fill="#464646"/>
    <path id="rect28" d="M0,4.938V23H24V4.938ZM.969,6H22.943V21.938H.969Z" class="aw-theme-iconOutline" fill="#464646"/>
    <path id="line30" d="M2.971,8V9h12V8Z" class="aw-theme-iconOutline" fill="#464646"/>
    <path id="line32" d="M2.971,10.5v1h10v-1Z" class="aw-theme-iconOutline" fill="#464646"/>
    <path id="line34" d="M2.971,13v1h6V13Z" class="aw-theme-iconOutline" fill="#464646"/>
    <path id="line36" d="M2.971,15.5v1h9v-1Z" class="aw-theme-iconOutline" fill="#464646"/>
    <path id="line38" d="M2.971,18v1h12V18Z" class="aw-theme-iconOutline" fill="#464646"/>
    <path id="rect40" d="M19.971,3h1V4h-1Z" class="aw-theme-iconOutline" fill="#464646"/>
    <path id="rect42" d="M17.971,3h1V4h-1Z" class="aw-theme-iconOutline" fill="#464646"/>
    <path id="rect44" d="M15.971,3h1V4h-1Z" class="aw-theme-iconOutline" fill="#464646"/>
  </g>
</svg>
