<svg version="1.1" id="Artwork" xmlns="http://www.w3.org/2000/svg" xmlns:xlink="http://www.w3.org/1999/xlink" x="0px" y="0px"
	 width="24px" height="24px" viewBox="0 0 24 24" enable-background="new 0 0 24 24" xml:space="preserve">
<rect x="-4.3" y="11.5" transform="matrix(0.7071 -0.7071 0.7071 0.7071 -4.9706 12)" class="aw-theme-iconOutline" fill="#464646" width="32.5" height="1"/>
<path class="aw-theme-iconOutline" fill="#464646" d="M4.1,17.2c-0.1,0-0.2,0-0.3-0.1c-1.4-1.3-2.6-2.9-3.6-4.7c-0.1-0.1-0.1-0.3,0-0.4C2.6,7.1,7.1,4,11.9,4
	c1.3,0,2.6,0.2,3.9,0.7c0.3,0.1,0.4,0.4,0.3,0.6c-0.1,0.3-0.4,0.4-0.6,0.3C14.3,5.2,13.1,5,11.9,5C7.5,5,3.4,7.8,1.2,12.2
	c0.8,1.6,1.9,3,3.2,4.2c0.2,0.2,0.2,0.5,0,0.7C4.3,17.2,4.2,17.2,4.1,17.2z"/>
<path class="aw-theme-iconOutline" fill="#464646" d="M11.9,20.3c-1.4,0-2.8-0.3-4.2-0.8c-0.3-0.1-0.4-0.4-0.3-0.6s0.4-0.4,0.6-0.3c1.2,0.5,2.5,0.7,3.8,0.7
	c4.4,0,8.4-2.7,10.7-7.1c-0.9-1.7-2-3.2-3.4-4.3C19,7.7,19,7.4,19.1,7.1c0.2-0.2,0.5-0.2,0.7-0.1c1.5,1.3,2.8,3,3.7,4.9
	c0.1,0.1,0.1,0.3,0,0.4C21.2,17.3,16.7,20.3,11.9,20.3z"/>
<path class="aw-theme-iconOutline" fill="#464646" d="M7.5,13.8c-0.2,0-0.4-0.2-0.5-0.4c-0.1-0.4-0.1-0.8-0.1-1.2c0-2.8,2.2-5.1,5-5.1c0.5,0,0.9,0.1,1.4,0.2
	c0.3,0.1,0.4,0.4,0.3,0.6c-0.1,0.3-0.4,0.4-0.6,0.3c-0.3-0.1-0.7-0.2-1.1-0.2c-2.2,0-4,1.9-4,4.1c0,0.3,0,0.7,0.1,1
	c0.1,0.3-0.1,0.5-0.4,0.6C7.6,13.8,7.6,13.8,7.5,13.8z"/>
<path class="aw-theme-iconOutline" fill="#464646" d="M11.9,17.3c-0.5,0-1.1-0.1-1.6-0.3c-0.3-0.1-0.4-0.4-0.3-0.6s0.4-0.4,0.6-0.3c0.4,0.1,0.8,0.2,1.3,0.2
	c2.2,0,4-1.9,4-4.1c0-0.4-0.1-0.8-0.2-1.2c-0.1-0.3,0.1-0.5,0.3-0.6c0.3-0.1,0.5,0.1,0.6,0.3c0.1,0.5,0.2,1,0.2,1.5
	C16.9,15,14.6,17.3,11.9,17.3z"/>
</svg>
