<svg version="1.1" id="Artwork" xmlns="http://www.w3.org/2000/svg" xmlns:xlink="http://www.w3.org/1999/xlink" x="0px" y="0px"
	 width="24px" height="24px" viewBox="0 0 24 24" enable-background="new 0 0 24 24" xml:space="preserve">
			<path class="aw-theme-iconOutline" fill="#464646" d="M11.5,23C5.2,23,0,17.8,0,11.5S5.2,0,11.5,0S23,5.2,23,11.5S17.8,23,11.5,23z M11.5,1C5.7,1,1,5.7,1,11.5
				S5.7,22,11.5,22S22,17.3,22,11.5S17.3,1,11.5,1z"/>
<path class="aw-theme-iconOutline" fill="#464646" d="M11.5,17c-0.3,0-0.5-0.2-0.5-0.5v-1.7c0-1.3,0.8-2.5,2-3.1c1.5-0.7,2.3-2.2,2-3.8c-0.2-1.4-1.4-2.6-2.8-2.8
	c-1-0.2-2.1,0.1-2.9,0.8C8.5,6.5,8,7.5,8,8.5C8,8.8,7.8,9,7.5,9S7,8.8,7,8.5c0-1.3,0.6-2.6,1.6-3.4c1-0.9,2.4-1.2,3.7-1
	c1.8,0.3,3.3,1.8,3.6,3.6c0.4,2-0.7,4-2.5,4.9C12.5,13,12,13.8,12,14.8v1.7C12,16.8,11.8,17,11.5,17z"/>
<circle class="aw-theme-iconOutline" fill="#464646" cx="11.5" cy="19.5" r="0.5"/>
</svg>
