<svg version="1.1" id="Artwork" xmlns="http://www.w3.org/2000/svg" xmlns:xlink="http://www.w3.org/1999/xlink" x="0px" y="0px"
	 width="24px" height="24px" viewBox="0 0 24 24" enable-background="new 0 0 24 24" xml:space="preserve">
		<path class="aw-theme-iconOutline" fill="#464646" d="M11.5,23C5.2,23,0,17.8,0,11.5S5.2,0,11.5,0C17.8,0,23,5.2,23,11.5S17.8,23,11.5,23z M11.5,1
			C5.7,1,1,5.7,1,11.5S5.7,22,11.5,22C17.3,22,22,17.3,22,11.5S17.3,1,11.5,1z"/>
	<path class="aw-theme-iconOutline" fill="#464646" d="M11,9h1v9h-1V9z"/>
	<path class="aw-theme-iconOutline" fill="#464646" d="M11.5,5c0.5,0,1,0.4,1,1c0,0.6-0.5,1-1,1c-0.5,0-1-0.4-1-1C10.5,5.4,11,5,11.5,5z"/>
</svg>
