<svg id="Image" xmlns="http://www.w3.org/2000/svg" viewBox="0 0 24 24">
  <path d="M24,12.021V24H14.889V19.958h1V23H23V13.021H15.889v3.018h-1V12.021Zm-6.854,9.563.707.707,4-4a.5.5,0,0,0,0-.707l-4-4-.707.707,3.146,3.147H12v1h8.293ZM10.3,11.833h3.282A6.971,6.971,0,0,1,15,11.063v-.211H12.865c-.005-.323-.025-.625-.053-.917H14.2V5.273H11.151A7.333,7.333,0,0,0,6.68,2.581V1.024H1V5.148H6.68V3.571a6.163,6.163,0,0,1,3.2,1.7H7.421V9.935h4.407c.029.292.049.594.055.917H9.32v4.124h1.794a6.7,6.7,0,0,1,.48-.981H10.3ZM5.7,4.167H1.981V2.005H5.7Zm5.99,4.781v0H8.4v-2.7h4.813v2.7H12.68v0Z" class="aw-theme-iconOutline" fill="#464646"/>
</svg>
