<svg xmlns="http://www.w3.org/2000/svg" viewBox="0 0 24 24">
  <g id="Verb_Zone">
    <g>
      <path d="M21,12.006a.5.5,0,0,0-.146-.36L18.417,9.209a.5.5,0,1,0-.707.708L19.3,11.511H16.623l-2.3-2.3a.5.5,0,1,0-.707.708l1.6,1.594H12.584l-2.3-2.3a.5.5,0,1,0-.707.708l1.6,1.594h-5.1a.5.5,0,0,0,0,1h5.085L9.574,14.1a.5.5,0,0,0,.707.707l2.291-2.291H15.2L13.615,14.1a.5.5,0,0,0,.707.707l2.29-2.291h2.681L17.71,14.1a.5.5,0,0,0,.707.707l2.436-2.437A.505.505,0,0,0,21,12.006Z" fill="#464646"/>
      <path d="M12.971,5.3c-3.06,0-5.8,1.892-7.643,3.67L1.015,5.3V18.7l4.313-3.67c1.843,1.778,4.583,3.67,7.643,3.67,5.551,0,10.05-3,10.05-6.7S18.522,5.3,12.971,5.3Zm0,12.4c-2.988,0-5.636-2.124-6.949-3.39l-.652-.629-.69.587L2.015,16.536V7.464L4.68,9.731l.69.588.652-.629C7.335,8.424,9.983,6.3,12.971,6.3c4.906,0,9.05,2.61,9.05,5.7S17.877,17.7,12.971,17.7Z" class="aw-theme-iconOutline" fill="#464646"/>
    </g>
  </g>
</svg>
