<svg version="1.1" id="Artwork" xmlns="http://www.w3.org/2000/svg" xmlns:xlink="http://www.w3.org/1999/xlink" x="0px" y="0px"
	 width="24px" height="24px" viewBox="0 0 24 24" enable-background="new 0 0 24 24" xml:space="preserve">
<path class="aw-theme-iconOutline" fill="#464646" d="M6,11c-1.7,0-3-1.3-3-3c0-1.7,1.3-3,3-3c1.7,0,3,1.3,3,3C9,9.7,7.7,11,6,11z M6,6C4.9,6,4,6.9,4,8
	c0,1.1,0.9,2,2,2c1.1,0,2-0.9,2-2C8,6.9,7.1,6,6,6z"/>
<path class="aw-theme-iconOutline" fill="#464646" d="M0,2v18h24V2H0z M1,3h22v8.5l-4-6.7l-3.7,6l-2.6-4L4.4,19H1V3z M5.6,19l7.1-10.4l2.7,4L19,6.7l4,6.7V19H5.6z
	"/>
</svg>
