<svg id="Livello_2" data-name="Livello 2" xmlns="http://www.w3.org/2000/svg" viewBox="0 0 24 24">
  <g id="g844">
    <path id="path843" d="M0,0V4H22V0ZM1,1H21V3H1Z" class="aw-theme-iconOutline" fill="#464646"/>
    <path id="path837" d="M3,6V7H4V6Z" class="aw-theme-iconOutline" fill="#464646"/>
    <path id="path835" d="M6,6V7H19V6Z" class="aw-theme-iconOutline" fill="#464646"/>
    <path id="path833" d="M3,9v1H4V9Z" class="aw-theme-iconOutline" fill="#464646"/>
    <path id="path831" d="M6,9v1H17.22V9Z" class="aw-theme-iconOutline" fill="#464646"/>
    <path id="path829" d="M6,12v1h8.169V12Z" class="aw-theme-iconOutline" fill="#464646"/>
    <path id="path827" d="M3,12.078v1H4v-1Z" class="aw-theme-iconOutline" fill="#464646"/>
    <path id="path825" d="M3,15v1H4V15Z" class="aw-theme-iconOutline" fill="#464646"/>
    <path id="rect814" d="M6,15v1h5.169V15Z" class="aw-theme-iconOutline" fill="#464646"/>
    <path id="path2" d="M23.6,9.49,22,7.89a1.45,1.45,0,0,0-2.1,0L9.1,18.69c-.1.1-.1.1-.1.2l-1.5,4.5a.44.44,0,0,0,.1.5c.1.1.2.1.4.1h.2l4.5-1.5c.1,0,.1-.1.2-.1l10.8-10.8A1.549,1.549,0,0,0,23.6,9.49Zm-13.4,9.6,8.8-8.8,2.3,2.3-8.8,8.8Zm-.5.9,1.9,1.9-2.8.9Zm13.2-9-.9.9-2.3-2.3.9-.9a.483.483,0,0,1,.7,0l1.6,1.6C23.1,10.39,23.1,10.79,22.9,10.99Z" class="aw-theme-iconOutline" fill="#464646"/>
    <path id="rect846" d="M0,4H1V20H0Z" class="aw-theme-iconOutline" fill="#464646"/>
    <path id="rect848" d="M21,3.831h1V7H21Z" class="aw-theme-iconOutline" fill="#464646"/>
    <path id="rect850" d="M1,19H7v1H1Z" class="aw-theme-iconOutline" fill="#464646"/>
  </g>
</svg>
