<svg id="svg8" xmlns="http://www.w3.org/2000/svg" viewBox="0 0 16 16">
  <g id="layer1">
    <g id="g874">
      <path id="rect854" d="M5,2H15V3H5Z" class="aw-theme-iconOutline" fill="#464646"/>
      <path id="rect854-2" d="M5,13H15v1H5Z" class="aw-theme-iconOutline" fill="#464646"/>
      <path id="rect854-7" d="M5,7.5H15v1H5Z" class="aw-theme-iconOutline" fill="#464646"/>
      <path id="rect883" d="M0,1H2.962V2.039H0Z" class="aw-theme-iconOutline" fill="#464646"/>
      <path id="rect883-1" d="M0,2.961H2.962V4H0Z" class="aw-theme-iconOutline" fill="#464646"/>
      <path id="rect883-1-7" d="M.017,3.966V1.021H1.062V3.966Z" class="aw-theme-iconOutline" fill="#464646"/>
      <path id="rect883-1-7-7" d="M1.955,3.966V1.021H3V3.966Z" class="aw-theme-iconOutline" fill="#464646"/>
      <path id="rect883-8" d="M0,6.5H2.962V7.539H0Z" class="aw-theme-iconOutline" fill="#464646"/>
      <path id="rect883-1-6" d="M0,8.461H2.962V9.5H0Z" class="aw-theme-iconOutline" fill="#464646"/>
      <path id="rect883-1-7-9" d="M.017,9.466V6.521H1.062V9.466Z" class="aw-theme-iconOutline" fill="#464646"/>
      <path id="rect883-1-7-7-2" d="M1.955,9.466V6.521H3V9.466Z" class="aw-theme-iconOutline" fill="#464646"/>
      <path id="rect883-8-0" d="M.019,12.039H2.981v1.039H.019Z" class="aw-theme-iconOutline" fill="#464646"/>
      <path id="rect883-1-6-9" d="M.019,14H2.981v1.039H.019Z" class="aw-theme-iconOutline" fill="#464646"/>
      <path id="rect883-1-7-9-1" d="M.036,15.006V12.06H1.081v2.946Z" class="aw-theme-iconOutline" fill="#464646"/>
      <path id="rect883-1-7-7-2-6" d="M1.974,15.006V12.06H3.019v2.946Z" class="aw-theme-iconOutline" fill="#464646"/>
    </g>
  </g>
</svg>
