<svg id="Layer_1" data-name="Layer 1" xmlns="http://www.w3.org/2000/svg" viewBox="0 0 24 24">
  <g id="g906">
    <path id="line37" d="M11.4,2.805V22h.958V2.805Z"  class="aw-theme-iconOutline" fill="#464646"/>
    <path id="polyline39" d="M19.783,13.706v3.182l-7.907,4.536L3.969,16.888V13.859h-1v3.61l8.91,5.111,8.91-5.111V13.706Z"  class="aw-theme-iconOutline" fill="#464646"/>
    <path id="polyline50" d="M3.008,7.332l-2.4,5.527,9.28,5.377L12.334,12.6l-.918-.4-2,4.6L1.879,12.441,3.926,7.73Z"  class="aw-theme-iconOutline" fill="#464646"/>
    <path id="polyline52" d="M20.744,7.332l-.918.4,2.049,4.711-7.541,4.368-2-4.6-.918.4,2.449,5.632,9.281-5.377Z"  class="aw-theme-iconOutline" fill="#464646"/>
    <path id="polyline56" d="M15.1,1.42a.464.464,0,0,0-.129.014l-3.215.789.238.97,3.022-.74,7.15,4.1-2,.49.238.973,3.215-.789a.5.5,0,0,0,.129-.92l-8.41-4.823A.513.513,0,0,0,15.1,1.42Z"  class="aw-theme-iconOutline" fill="#464646"/>
    <path id="polyline67" d="M8.887,1.42a.5.5,0,0,0-.229.066L.252,6.311a.5.5,0,0,0,.119.916l2.969.787L3.6,7.047,1.805,6.572,8.979,2.455l2.767.736L12,2.225,9.035,1.438A.463.463,0,0,0,8.887,1.42Z"  class="aw-theme-iconOutline" fill="#464646"/>
    <path id="polygon69" d="M11.885,2.209a.494.494,0,0,0-.258.066L3.219,7.1a.5.5,0,0,0,0,.867l8.408,4.871a.5.5,0,0,0,.5,0l8.41-4.871a.5.5,0,0,0,0-.867l-8.41-4.823A.494.494,0,0,0,11.885,2.209Zm-.008,1.076,7.408,4.248-7.41,4.293L4.469,7.533Z"  class="aw-theme-iconOutline" fill="#464646"/>
  </g>
</svg>
