<svg version="1.1" id="Verb_x5F_Zone" xmlns="http://www.w3.org/2000/svg" xmlns:xlink="http://www.w3.org/1999/xlink" x="0px"
	 y="0px" viewBox="0 0 16 16" enable-background="new 0 0 16 16" xml:space="preserve">
<path id="rect1727" class="aw-theme-iconOutline" fill="#464646" d="M1.018,1.021
	c-0.567,0-1.023,0.5-1.023,1.122v8.715c0,0.621,0.467,1.156,1.035,1.154l4.945-0.006l0.547-1.002l-4.994,0.01
	c-0.554,0-0.536-0.098-0.534-0.703l0.023-7.448C1.02,2.255,1.123,2.034,1.676,2.031l7.762,0.007
	c0.554-0.003,0.558,0.267,0.556,0.873v1.377l0.991,0.03l0.009-2.177c0.002-0.623-0.456-1.123-1.023-1.123L1.018,1.021z
	 M9.945,10.666c-0.012,0.049-0.031,0.086-0.059,0.117h0.059V10.666z"/>
<path id="rect1727-5" class="aw-theme-iconOutline" fill="#464646" d="M9.994,2.989
	v0.594l0.023,0.447l4.309-0.026C14.879,4,14.975,4.379,14.973,5.045l-0.023,7.939c-0.002,0.666-0.023,1.021-0.578,1.02H6.54
	c-0.554,0-0.548-0.131-0.546-0.795v-1.852l-1.023,0.047l0.001-1.225v3.574c0,0.68,0.456,1.227,1.023,1.227h8.954
	c0.567,0,1.021-0.547,1.023-1.227l0.033-9.547c0.003-0.681-0.49-1.229-1.057-1.229L9.994,2.989z"/>
<path id="rect1831" class="aw-theme-iconOutline" fill="#464646" d="M5.049,11.18l5.368-7.84l1.012,0.645L6.06,11.824L5.049,11.18z"/>
<path id="rect1872-5" class="aw-theme-iconOutline" fill="#464646" d="M9.225,8.398h4.592v0.647H9.225V8.398z"/>
<path id="rect1872-1-8" class="aw-theme-iconOutline" fill="#464646" d="M11.193,9.045V7.78l0,0h0.655l0,0v1.265l0,0H11.193L11.193,9.045z"/>
<path id="path1924-62"  class="aw-theme-iconOutline" fill="#464646" d="M12.909,8.564
	L12.42,8.792c-0.02,1-0.3,1.909-0.928,2.563c-0.592,0.615-1.361,0.92-2.141,0.85l-0.004,0.506c0.93,0.324,2.026-0.307,2.759-1.082
	c0.733-0.775,1.013-1.879,0.888-3.058L12.909,8.564z"/>
<g id="text1991" transform="scale(0.95625515,1.045746)">
	<path id="path5181" class="aw-theme-iconOutline" fill="#464646" d="M5.464,7.917L5.118,6.783H3.384L3.039,7.917H1.951l1.68-4.779h1.234l1.686,4.779H5.464z
		 M4.878,5.937C4.559,4.91,4.379,4.33,4.337,4.195C4.298,4.061,4.27,3.954,4.253,3.876C4.181,4.154,3.976,4.841,3.638,5.937H4.878z"
		/>
</g>
<path id="path1924-62-8" class="aw-theme-iconOutline" fill="#464646" d="M10.082,8.564
	l0.489,0.229c0.021,1,0.3,1.909,0.928,2.563c0.592,0.615,1.362,0.92,2.142,0.85l0.004,0.506c-0.931,0.324-2.027-0.307-2.76-1.082
	S9.872,9.75,9.998,8.571L10.082,8.564z"/>
</svg>
