<svg id="Artwork" xmlns="http://www.w3.org/2000/svg" viewBox="0 0 24 24">
  <path d="M9,9.5c2.2,0,4-2.9,4-5.3A4.122,4.122,0,0,0,9,0,4.122,4.122,0,0,0,5,4.2C5,6.6,6.8,9.5,9,9.5ZM9,1a3.057,3.057,0,0,1,3,3.2c0,1.9-1.5,4.3-3,4.3S6,6.1,6,4.2A3.057,3.057,0,0,1,9,1ZM20.293,18.438H13.034v-1h7.259l-3.146-3.147.707-.707,4,4a.5.5,0,0,1,0,.707l-4,4-.707-.707ZM18.005,24a5.971,5.971,0,0,1-5.051-2.765l.842-.539a5,5,0,1,0,.066-5.484l-.828-.561A6,6,0,1,1,18.005,24ZM5,16v7H4V21H4V16Zm10.057-5.053a6.917,6.917,0,0,0-.977.449,4.982,4.982,0,0,0-.48-.3,7.976,7.976,0,0,1-9.1,0A4.321,4.321,0,0,0,2,14.9V22H2v1H1V14.9a5.515,5.515,0,0,1,3.3-4.8l.3-.1.2.2a7.208,7.208,0,0,0,8.4,0l.2-.2.3.1A5.944,5.944,0,0,1,15.057,10.947Z" class="aw-theme-iconOutline" fill="#464646"/>
</svg>
