<svg id="Layer_1" data-name="Layer 1" xmlns="http://www.w3.org/2000/svg" viewBox="0 0 24 24">
  <g id="g901">
    <path id="rect26" d="M1,2V4H5V2Zm.666.666H4.334v.668H1.666Z" class="aw-theme-iconOutline" fill="#464646"/>
    <path id="rect26-3" d="M1,5V7H5V5Zm.666.666H4.334v.668H1.666Z" class="aw-theme-iconOutline" fill="#464646"/>
    <path id="rect26-9" d="M1,8v2H5V8Zm.666.666H4.334v.668H1.666Z" class="aw-theme-iconOutline" fill="#464646"/>
    <path id="rect26-3-2" d="M1,11v2H5V11Zm.666.666H4.334v.668H1.666Z" class="aw-theme-iconOutline" fill="#464646"/>
    <path id="rect26-3-3" d="M1,14v2.01H4.98V14Zm.668.668H4.313v.676H1.668Z" class="aw-theme-iconOutline" fill="#464646"/>
    <path id="rect26-9-8" d="M1.02,16.967v2.01H5v-2.01Zm.668.666H4.332v.676H1.688Z" class="aw-theme-iconOutline" fill="#464646"/>
    <path id="rect26-3-2-8" d="M1.02,19.99V22H5V19.99Zm.668.666H4.332v.676H1.688Z" class="aw-theme-iconOutline" fill="#464646"/>
    <path id="rect1106" d="M3,0H22V1H3Z" class="aw-theme-iconOutline" fill="#464646"/>
    <path id="rect1108" d="M3,1H4V2H3Z" class="aw-theme-iconOutline" fill="#464646"/>
    <path id="rect1108-6" d="M3,4H4V5H3Z" class="aw-theme-iconOutline" fill="#464646"/>
    <path id="rect1108-7" d="M3,7H4V8H3Z" class="aw-theme-iconOutline" fill="#464646"/>
    <path id="rect1108-3" d="M3,10H4v1H3Z" class="aw-theme-iconOutline" fill="#464646"/>
    <path id="rect1108-62" d="M3,13H4v1H3Z" class="aw-theme-iconOutline" fill="#464646"/>
    <path id="rect1108-625" d="M3,16H4v1H3Z" class="aw-theme-iconOutline" fill="#464646"/>
    <path id="rect1108-625-6" d="M3,18.8H4V20H3Z" class="aw-theme-iconOutline" fill="#464646"/>
    <path id="rect1108-625-66" d="M3,22H4v1H3Z" class="aw-theme-iconOutline" fill="#464646"/>
    <path id="rect1106-2" d="M3,23H22v1H3Z" class="aw-theme-iconOutline" fill="#464646"/>
    <path id="rect1200" d="M21,1h1V23H21Z" class="aw-theme-iconOutline" fill="#464646"/>
    <path id="rect1202" d="M8,4H19V5H8Z" class="aw-theme-iconOutline" fill="#464646"/>
    <path id="rect1204" d="M8,7h8V8H8Z" class="aw-theme-iconOutline" fill="#464646"/>
    <path id="rect1206" d="M8,10H18v1H8Z" class="aw-theme-iconOutline" fill="#464646"/>
    <path id="rect1202-4" d="M8,17H19v1H8Z" class="aw-theme-iconOutline" fill="#464646"/>
    <path id="rect1204-7" d="M8,14h8v1H8Z" class="aw-theme-iconOutline" fill="#464646"/>
    <path id="rect1206-8" d="M8,20H18v1H8Z" class="aw-theme-iconOutline" fill="#464646"/>
  </g>
</svg>
