<svg id="Livello_3" data-name="Livello 3" xmlns="http://www.w3.org/2000/svg" viewBox="0 0 24 24">
  <g id="g868">
    <path id="path1022" d="M16.643,17.153l-.393-.371.069-.091c.039-.049.177-.226.308-.391a11.26,11.26,0,0,0,1.619-2.851c.136-.335.253-.615.259-.621a5.287,5.287,0,0,1,.928.336c.072.065.064.1-.168.684a13.525,13.525,0,0,1-1.433,2.682,11.947,11.947,0,0,1-.778.994C17.044,17.524,16.859,17.357,16.643,17.153Z" class="aw-theme-iconOutline" fill="#464646"/>
    <path id="path1020" d="M9.64,23.036c-.092-.207-.3-.767-.3-.8a3.5,3.5,0,0,1,.391-.213,11.2,11.2,0,0,0,2.095-1.345l.348-.288.389.357a5.189,5.189,0,0,1,.4.39,9.186,9.186,0,0,1-1.678,1.323,13.009,13.009,0,0,1-1.508.8A.636.636,0,0,1,9.64,23.036Z" class="aw-theme-iconOutline" fill="#464646"/>
    <path id="path62" d="M15.375,3.264A7.959,7.959,0,0,0,10.992,1.91,8.282,8.282,0,0,0,7.5,2.7l-.359-.842A8.471,8.471,0,0,1,10.991.975a8.712,8.712,0,0,1,4.875,1.5Z" class="aw-theme-iconOutline" fill="#464646"/>
    <path id="path841" d="M4.024.008A2,2,0,0,0,2.477.662a2.178,2.178,0,0,0-.7,1.676,3.012,3.012,0,0,0,.348,1.4,2.47,2.47,0,0,0,1.59,1.418,1.175,1.175,0,0,0,.58,0A2.862,2.862,0,0,0,6.259,2.479,2.179,2.179,0,0,0,5.573.662,2,2,0,0,0,4.024.008ZM3.95.947a1.227,1.227,0,0,1,.965.373,1.671,1.671,0,0,1,.138,2.049,2.139,2.139,0,0,1-.679.777c-.382.2-.8.05-1.147-.406A2.1,2.1,0,0,1,2.815,1.8a1.433,1.433,0,0,1,.766-.777A1.453,1.453,0,0,1,3.95.947Z" class="aw-theme-iconOutline" fill="#464646"/>
    <path id="path8484" d="M15.1,3.071a8.6,8.6,0,0,0-2.946-1.094A11.687,11.687,0,0,0,9.683,2,10.456,10.456,0,0,0,7.9,2.513l-.4.162-.165-.4-.165-.4.213-.108A8.581,8.581,0,0,1,9.6,1.1a10.687,10.687,0,0,1,2.2-.065,8.684,8.684,0,0,1,2.853.787,4.393,4.393,0,0,1,1.155.677,6.314,6.314,0,0,1-.444.721A2.325,2.325,0,0,1,15.1,3.071Z" class="aw-theme-iconOutline" fill="#464646"/>
    <path id="path837" d="M18.009,2.807a2.178,2.178,0,0,0-1.654.662,2.4,2.4,0,0,0-.6,2.363,3.158,3.158,0,0,0,.844,1.51,2,2,0,0,0,.969.6,1.647,1.647,0,0,0,.869-.05,2.621,2.621,0,0,0,1.371-1.348A2.843,2.843,0,0,0,20.13,4.66,2.276,2.276,0,0,0,18.009,2.807Zm-.088.943a1.277,1.277,0,0,1,.522.1,1.4,1.4,0,0,1,.787,1.174,2.244,2.244,0,0,1-1,1.924.57.57,0,0,1-.631-.01,2.239,2.239,0,0,1-.982-1.968,1.426,1.426,0,0,1,.781-1.12A1.269,1.269,0,0,1,17.921,3.75Z" class="aw-theme-iconOutline" fill="#464646"/>
    <path id="path845" d="M3.973,14.617a2.043,2.043,0,0,0-.436.065,2.36,2.36,0,0,0-1.648,1.711,3,3,0,0,0,1.8,3.353,1.745,1.745,0,0,0,1.724-.588,2.341,2.341,0,0,0,.545-.791,4.771,4.771,0,0,0,.3-.75,3.344,3.344,0,0,0,0-1.265A2.315,2.315,0,0,0,3.973,14.617Zm.039.957a.919.919,0,0,1,.57.1,1.369,1.369,0,0,1,.8,1.275,2.222,2.222,0,0,1-.969,1.809.63.63,0,0,1-.64.025,2.247,2.247,0,0,1-.957-1.394,1.961,1.961,0,0,1,.078-1.043A1.258,1.258,0,0,1,4.012,15.574Z" class="aw-theme-iconOutline" fill="#464646"/>
    <path id="path864" d="M0,9.355c-.007-.007,0-1.488,0-1.6A3.215,3.215,0,0,1,.594,6.132a3.077,3.077,0,0,1,.932-.871c.075-.044.431-.226.441-.226s.08.054.168.119.2.143.24.172a2.971,2.971,0,0,0,1.966.52,3.039,3.039,0,0,0,1.406-.515c.048-.032.16-.112.249-.178s.164-.119.167-.119.333.163.406.205a3.121,3.121,0,0,1,1.009.952,3.476,3.476,0,0,1,.4.827,3.289,3.289,0,0,1,.126.569,8.431,8.431,0,0,1,.022,1.036l0,.733-.49,0-.489,0,0-.751A3.951,3.951,0,0,0,7.1,7.483,2.243,2.243,0,0,0,6.262,6.2l-.02-.014-.03.013c-.016.007-.069.036-.118.065a3.9,3.9,0,0,1-4.061,0c-.048-.028-.1-.057-.115-.064l-.029-.012-.02.014a2.109,2.109,0,0,0-.232.2,2.513,2.513,0,0,0-.252.3,2.273,2.273,0,0,0-.392.967,6.541,6.541,0,0,0-.017.892l0,.8H.491C.226,9.36.006,9.358,0,9.355Z" class="aw-theme-iconOutline" fill="#464646"/>
    <path id="rect866" d="M1.991,7.964H3v1.4H1.991Z" class="aw-theme-iconOutline" fill="#464646"/>
    <path id="rect866-4" d="M4.978,7.972H5.991v1.4H4.978Z" class="aw-theme-iconOutline" fill="#464646"/>
    <path id="path864-9" d="M13.868,12.149c-.007-.007-.005-1.489,0-1.6a3.213,3.213,0,0,1,.588-1.628,3.077,3.077,0,0,1,.932-.871c.075-.044.431-.226.44-.226s.08.053.168.119.2.143.24.172a2.965,2.965,0,0,0,1.966.52,3.04,3.04,0,0,0,1.406-.514c.048-.033.16-.112.249-.178s.163-.119.167-.119.333.163.406.2a3.107,3.107,0,0,1,1.008.952,3.48,3.48,0,0,1,.4.827,3.373,3.373,0,0,1,.126.568,8.576,8.576,0,0,1,.021,1.036l0,.734H21.5l-.49,0,0-.752a3.875,3.875,0,0,0-.052-1.125,2.273,2.273,0,0,0-.838-1.285l-.021-.014-.03.013c-.017.007-.069.036-.117.065a3.9,3.9,0,0,1-4.061,0c-.048-.029-.1-.058-.115-.064l-.028-.013-.021.015a2.329,2.329,0,0,0-.231.2,2.6,2.6,0,0,0-.252.3,2.323,2.323,0,0,0-.393.968,6.529,6.529,0,0,0-.017.891l0,.8h-.482C14.09,12.154,13.871,12.152,13.868,12.149Z" class="aw-theme-iconOutline" fill="#464646"/>
    <path id="rect866-8" d="M15.855,10.758h1.014v1.4H15.855Z" class="aw-theme-iconOutline" fill="#464646"/>
    <path id="rect866-4-3" d="M18.842,10.766h1.014v1.4H18.842Z" class="aw-theme-iconOutline" fill="#464646"/>
    <path id="path864-1" d="M0,23.982c-.007-.008,0-1.489,0-1.6a3.231,3.231,0,0,1,.587-1.628,3.085,3.085,0,0,1,.932-.87c.075-.044.431-.227.441-.227s.08.054.168.119.2.143.24.172a2.97,2.97,0,0,0,1.966.521,3.031,3.031,0,0,0,1.406-.515c.048-.032.16-.112.248-.178s.164-.119.168-.119.333.163.405.2a3.11,3.11,0,0,1,1.009.952,3.458,3.458,0,0,1,.4.827,3.28,3.28,0,0,1,.127.568,8.542,8.542,0,0,1,.021,1.035l0,.734H7.636l-.49,0,0-.752A3.88,3.88,0,0,0,7.1,22.107a2.319,2.319,0,0,0-.6-1.077,2.274,2.274,0,0,0-.238-.207l-.021-.015-.03.013c-.017.007-.069.036-.117.065a3.9,3.9,0,0,1-4.062,0c-.048-.028-.1-.058-.116-.064l-.026-.011-.021.015a2.226,2.226,0,0,0-.232.2,2.421,2.421,0,0,0-.251.3,2.287,2.287,0,0,0-.393.967,6.529,6.529,0,0,0-.017.891l0,.8H.491C.225,23.986.006,23.984,0,23.982Z" class="aw-theme-iconOutline" fill="#464646"/>
    <path id="rect866-48" d="M1.991,22.59H3.005v1.4H1.991Z" class="aw-theme-iconOutline" fill="#464646"/>
    <path id="rect866-4-2" d="M4.977,22.6H5.991V24H4.977Z" class="aw-theme-iconOutline" fill="#464646"/>
    <path id="path8-8" d="M13.369,17.833a.582.582,0,0,1-.413-.17L10.623,15.33a.583.583,0,0,1,.825-.825l2.333,2.333a.583.583,0,0,1-.412.995Z" class="aw-theme-iconOutline" fill="#464646"/>
    <path id="path10-4" d="M12.2,19H9.869a.584.584,0,0,1,0-1.167H12.2A.584.584,0,0,1,12.2,19Z" class="aw-theme-iconOutline" fill="#464646"/>
    <path id="path12-5" d="M14.536,16.667a.583.583,0,0,1-.583-.584h0V13.75a.583.583,0,0,1,1.166,0v2.333a.584.584,0,0,1-.583.584Z" class="aw-theme-iconOutline" fill="#464646"/>
    <path id="path14-9" d="M19,22.9a.587.587,0,0,1-.413-.171l-2.333-2.333a.583.583,0,0,1,.824-.825L19.412,21.9a.584.584,0,0,1-.412,1Z" class="aw-theme-iconOutline" fill="#464646"/>
    <path id="path16-0" d="M15.5,24.062a.583.583,0,0,1-.583-.583V21.146a.583.583,0,1,1,1.166,0v2.333a.583.583,0,0,1-.583.583Z" class="aw-theme-iconOutline" fill="#464646"/>
    <path id="path18-0" d="M20.167,19.4H17.833a.584.584,0,0,1,0-1.167h2.334a.584.584,0,0,1,0,1.167Z" class="aw-theme-iconOutline" fill="#464646"/>
  </g>
</svg>
