<svg version="1.1" id="Artwork" xmlns="http://www.w3.org/2000/svg" xmlns:xlink="http://www.w3.org/1999/xlink" x="0px" y="0px"
	 width="24px" height="24px" viewBox="0 0 24 24" enable-background="new 0 0 24 24" xml:space="preserve">
<path class="aw-theme-iconOutline" fill="#464646" d="M10.1,21.1c-2,2-5.3,2-7.3,0c-2-2-2-5.3,0-7.3l4-4c2-2,5.3-2,7.3,0c0.8,0.8,1.3,1.9,1.5,3l1-0.1
	c-0.2-1.4-0.8-2.6-1.8-3.6c-2.4-2.4-6.3-2.4-8.7,0l-4,4c-2.4,2.4-2.4,6.3,0,8.7c1.2,1.2,2.8,1.8,4.4,1.8s3.2-0.6,4.4-1.8l3.5-3.5
	l-0.7-0.7L10.1,21.1z"/>
<path class="aw-theme-iconOutline" fill="#464646" d="M21.9,2.1c-2.4-2.4-6.3-2.4-8.7,0L9.6,5.7l0.7,0.7l3.5-3.5c2-2,5.3-2,7.3,0c2,2,2,5.3,0,7.3l-4,4
	c-2,2-5.3,2-7.3,0c-0.8-0.8-1.3-1.9-1.5-3l-1,0.1c0.2,1.4,0.8,2.6,1.8,3.6c1.2,1.2,2.8,1.8,4.4,1.8s3.2-0.6,4.4-1.8l4-4
	C24.3,8.5,24.3,4.5,21.9,2.1z"/>
</svg>
