<svg id="Image" xmlns="http://www.w3.org/2000/svg" viewBox="0 0 24 24">
  <path d="M14.336,5.044H9.523v-1h4.813Zm0,1H9.523v1h4.813Zm8.648,5.545v9.26A2.189,2.189,0,0,1,20.8,23.031H3.2a2.189,2.189,0,0,1-2.182-2.182v-9.26A2.189,2.189,0,0,1,3.2,9.406H6.914V1H16.945V9.406H20.8A2.189,2.189,0,0,1,22.984,11.589Zm-15.07.851h8.031V2H7.914V12.44Zm-1,1V12H6.5a1.03,1.03,0,0,0,0,2.059h11A1.03,1.03,0,0,0,17.5,12h-.557v1.44Zm15.07-1.851A1.184,1.184,0,0,0,20.8,10.406H16.945V11H17.5a2.03,2.03,0,0,1,0,4.059H6.5A2.03,2.03,0,0,1,6.5,11h.416v-.594H3.2a1.184,1.184,0,0,0-1.182,1.183v9.26A1.183,1.183,0,0,0,3.2,22.031H20.8a1.183,1.183,0,0,0,1.182-1.182Z" class="aw-theme-iconOutline" fill="#464646"/>
</svg>
