<svg id="Image" xmlns="http://www.w3.org/2000/svg" viewBox="0 0 24 24">
  <path d="M22,2.147V21.853H2V8.5l3.35,2.7.275.222H8.044V8.5l3.35,2.7.275.222h2.419V8.5l3.35,2.7.275.222H19.7V2.147H22m1-1H18.7v9.271h-.63l-4.978-4.01v4.01H12.021L7.044,6.408v4.01H5.977L1,6.408V22.853H23V1.147ZM18.109,17.411a1.663,1.663,0,0,0-1.34.683l-2.048-.585a2.919,2.919,0,0,0,.052-.515,2.887,2.887,0,0,0-.194-1.021l.84-.588a1.665,1.665,0,1,0-.526-.7l-.744.521a2.9,2.9,0,0,0-4.995.683l-2.333-.686a1.72,1.72,0,0,0,.03-.3A1.686,1.686,0,1,0,6.434,16l2.527.743c-.007.084-.025.164-.025.25a2.9,2.9,0,0,0,.187,1l-.916.535a1.662,1.662,0,1,0,.312.965c0-.045-.01-.087-.014-.131l1.039-.606a2.893,2.893,0,0,0,4.89-.426l2.024.578a1.541,1.541,0,0,0-.017.168,1.668,1.668,0,1,0,1.668-1.668Zm-2.464-3.336a.8.8,0,1,1,.8.8.769.769,0,0,1-.224-.045.782.782,0,0,1-.557-.674C15.658,14.125,15.645,14.1,15.645,14.075ZM5.183,15.705a.8.8,0,1,1,.8-.8c0,.017-.009.031-.01.047a.78.78,0,0,1-.642.72A.766.766,0,0,1,5.183,15.705Zm1.668,4.587a.8.8,0,1,1,0-1.592.8.8,0,0,1,0,1.592Zm5-1.251a2.089,2.089,0,0,1-2.047-2.047h0a2.038,2.038,0,0,1,3.628-1.283,2.014,2.014,0,0,1,.4.785,2.047,2.047,0,0,1-1.979,2.546Zm6.255.834a.79.79,0,0,1-.78-.715.725.725,0,0,1-.016-.081.8.8,0,1,1,.8.8Z" class="aw-theme-iconOutline" fill="#464646"/>
</svg>
