<svg xmlns="http://www.w3.org/2000/svg" viewBox="0 0 24 24">
  <g id="Verb_Zone">
    <path d="M6.854,8.822l-2,2a.5.5,0,0,1-.707-.707L5.289,8.972H1V.984H2V7.972H5.3L4.15,6.826a.5.5,0,0,1,.695-.72l.012.013,2,2A.5.5,0,0,1,6.854,8.822Zm15.125-1.3H18.447v6.321l-8.325-2.689v2.281l8.325,2.667v.663L2.021,11.459v2.266l8.1,2.611v.657l-8.091-2.61V23H21.979ZM3.031,15.756l8.091,2.61V15.607L3.021,13v-.163l16.426,5.31V15.375l-8.325-2.667v-.177l8.325,2.688V8.525h1.532V22H3.031ZM21.358,6.793a4.681,4.681,0,0,0-1.913-3.508A3.746,3.746,0,0,0,19.17,1.9,2.773,2.773,0,0,0,16.927.326a2.81,2.81,0,0,0-2.586,1.023,1.176,1.176,0,0,1-1.334.068,2.513,2.513,0,0,0-3.032.111c-.43.355-.537.311-.988.124a4.267,4.267,0,0,0-.745-.25,2.407,2.407,0,0,0-1.978.462,2.207,2.207,0,0,0-.811,1.761A2.28,2.28,0,0,0,6.517,5.508a2.158,2.158,0,0,0,1.945.221c.173-.077.325-.159.466-.236.472-.259.584-.319,1.111.11a2.453,2.453,0,0,0,3.349-.345.644.644,0,0,1,.481-.245.917.917,0,0,1,.681.258,2.55,2.55,0,0,0,2.065.836,3.126,3.126,0,0,0,1.7-.58,1.566,1.566,0,0,1,1.026,1.342l.072.413h1.937ZM18.172,4.515h-.165l-.132.1a2.138,2.138,0,0,1-1.226.5H16.63a1.575,1.575,0,0,1-1.372-.543A1.9,1.9,0,0,0,13.8,4.015a1.635,1.635,0,0,0-1.2.617,1.444,1.444,0,0,1-1.936.2,1.665,1.665,0,0,0-2.223-.214c-.118.065-.245.135-.388.2a1.163,1.163,0,0,1-1.012-.152,1.247,1.247,0,0,1-.6-1.051,1.182,1.182,0,0,1,.435-.965,1.413,1.413,0,0,1,1.138-.267,3.375,3.375,0,0,1,.578.2,1.661,1.661,0,0,0,2.011-.28,1.53,1.53,0,0,1,1.862-.031,2.146,2.146,0,0,0,2.592-.231,1.836,1.836,0,0,1,1.736-.716,1.791,1.791,0,0,1,1.443.973,2.9,2.9,0,0,1,.194,1.248l-.016.316.279.15a3.649,3.649,0,0,1,1.6,2.277h-.076A2.267,2.267,0,0,0,18.172,4.515Z" class="aw-theme-iconOutline" fill="#464646"/>
  </g>
</svg>
