<svg id="Image" xmlns="http://www.w3.org/2000/svg" viewBox="0 0 24 24">
  <path d="M10.043,16.69V14.5a.5.5,0,0,0-.5-.5l-.014,0h-2.3a.5.5,0,0,0-.453.712,1.323,1.323,0,0,1,.131.567,1.38,1.38,0,0,1-2.76,0,1.337,1.337,0,0,1,.13-.567A.5.5,0,0,0,3.828,14L1.521,14h0a.5.5,0,0,0-.5.5v8a.5.5,0,0,0,.5.5H9.543a.5.5,0,0,0,.5-.5h0V20.329a1.831,1.831,0,1,0,0-3.639ZM9.8,19.215a.5.5,0,0,0-.756.43V22H2.016V15H3.167a2.38,2.38,0,1,0,4.726,0h1.15v2.37a.5.5,0,0,0,.756.43.834.834,0,1,1,0,1.41ZM22.515,14H20.357a1.824,1.824,0,1,0-3.635-.2c0,.065,0,.131.01.2H14.559c-.009,0-.017,0-.025,0l-.011,0a.5.5,0,0,0-.5.5l0,2.311a.5.5,0,0,0,.71.455,1.37,1.37,0,1,1,0,2.5.5.5,0,0,0-.71.454V22.5a.5.5,0,0,0,.5.5.116.116,0,0,0,.018,0,.129.129,0,0,0,.019,0h7.958a.5.5,0,0,0,.5-.5v-8A.5.5,0,0,0,22.515,14Zm-7.494,8V20.882a2.377,2.377,0,1,0,0-4.725V15h2.394a.5.5,0,0,0,.43-.755.861.861,0,0,1-.125-.441.823.823,0,1,1,1.646,0,.864.864,0,0,1-.124.441.5.5,0,0,0,.43.755h2.341v7ZM23.016,1.5a.5.5,0,0,0-.5-.5H14.562a.5.5,0,0,0-.5.5V3.673a1.855,1.855,0,0,0-2.036,1.82,1.858,1.858,0,0,0,2.036,1.82V9.5c0,.015.007.027.008.042a.449.449,0,0,0-.018.09.5.5,0,0,0,.5.5h2.283a.5.5,0,0,0,.453-.712,1.327,1.327,0,0,1-.131-.567,1.38,1.38,0,0,1,2.76,0,1.327,1.327,0,0,1-.131.567.5.5,0,0,0,.453.712h2.277a.5.5,0,0,0,.5-.5A.453.453,0,0,0,23,9.567a.467.467,0,0,0,.013-.065Zm-4.479,4.99a2.374,2.374,0,0,0-2.38,2.363,2.155,2.155,0,0,0,.018.279H15.062v-2.5a.5.5,0,0,0-.757-.429.852.852,0,0,1-1.279-.706.854.854,0,0,1,1.278-.7.5.5,0,0,0,.758-.429V2h6.954V9.132H20.9a2.166,2.166,0,0,0,.018-.279A2.374,2.374,0,0,0,18.537,6.491ZM1.609,10.169H3.781a1.831,1.831,0,1,0,3.64,0H9.608a.493.493,0,0,0,.425-.252.461.461,0,0,0,.036-.054.142.142,0,0,0,0-.02.482.482,0,0,0,.035-.174l0-2.312h0A.5.5,0,0,0,9.4,6.9a1.341,1.341,0,0,1-.568.13,1.38,1.38,0,0,1,0-2.76,1.328,1.328,0,0,1,.568.131.5.5,0,0,0,.712-.452V1.641h0a.5.5,0,0,0-.5-.5h-8a.5.5,0,0,0-.5.5V9.669A.5.5,0,0,0,1.609,10.169Zm.5-8.028h7V3.292a2.17,2.17,0,0,0-.28-.018,2.38,2.38,0,0,0,0,4.76,2.348,2.348,0,0,0,.279-.017V9.169H6.735a.5.5,0,0,0-.428.757A.853.853,0,0,1,5.6,11.2a.855.855,0,0,1-.706-1.278.5.5,0,0,0-.429-.757H2.109Z" class="aw-theme-iconOutline" fill="#464646"/>
</svg>
