<svg id="Image" xmlns="http://www.w3.org/2000/svg" viewBox="0 0 24 24">
  <path d="M20.05,6.95a2.463,2.463,0,0,0-.762.125L17.7,4.324a2.5,2.5,0,1,0-4.127-2.4H10.261A2.494,2.494,0,1,0,6.2,4.414L4.668,7.067a2.5,2.5,0,1,0,.013,4.762L5.991,14.1,1.243,16.925a.493.493,0,0,0,0,.852l10.464,6.14a1.242,1.242,0,0,0,.173.08l1.948,0c-.234-.134-.473-.282-.734-.437L2.488,17.347,5.5,15.555a2.411,2.411,0,0,0-.147.8A2.487,2.487,0,0,0,10,17.582c0-.028,0-.054,0-.082a7.506,7.506,0,0,1,.229-1.811,2.479,2.479,0,0,0-1.936-1.8l3.713-2.21.269.161c.063.042.124.078.186.116a7.475,7.475,0,0,1,.83-.664c-.1-.063-.194-.126-.307-.194l-.679-.4a.568.568,0,0,0-.6,0L6.85,13.586,5.559,11.349a2.469,2.469,0,0,0-.011-3.807l1.519-2.63a2.449,2.449,0,0,0,.783.138,2.493,2.493,0,0,0,2.462-2.127h3.231a2.467,2.467,0,0,0,3.3,1.92l1.573,2.725A2.534,2.534,0,0,0,17.55,9.45a2.456,2.456,0,0,0,.043.423c.008.046.024.088.035.133a7.549,7.549,0,0,1,1.1.1,1.608,1.608,0,0,1-.113-.237,1.48,1.48,0,0,1-.068-.423,1.509,1.509,0,1,1,2.206,1.3,7.445,7.445,0,0,1,.961.547c.01-.01.023-.016.033-.025a2.494,2.494,0,0,0-1.7-4.324ZM6.725,15.369a1.487,1.487,0,0,1,.87-.493,1.432,1.432,0,0,1,.255-.026,1.5,1.5,0,0,1,1.439,1.1,1.423,1.423,0,0,1-.066,1,1.5,1.5,0,0,1-2.873-.6A1.481,1.481,0,0,1,6.725,15.369Zm-1.677-4.9a1.49,1.49,0,0,1-.887.465,1.464,1.464,0,0,1-.211.021,1.5,1.5,0,1,1,0-3,1.429,1.429,0,0,1,.2.02,1.488,1.488,0,0,1,.9,2.494ZM9.3,2.923A1.41,1.41,0,1,1,9.35,2.55,1.48,1.48,0,0,1,9.3,2.923Zm7.038,1.036a1.476,1.476,0,0,1-1.767-1.036A1.48,1.48,0,0,1,14.5,2.5a1.5,1.5,0,1,1,1.835,1.459ZM24,17.476a7.1,7.1,0,0,1-.433,2.384l-.09.254-.934-.415.085-.221a5.418,5.418,0,0,0,.35-2,5.5,5.5,0,1,0-1.63,3.91H19.84V20.363h3.114v3.115H21.932V22.224A6.434,6.434,0,0,1,17.476,24,6.524,6.524,0,1,1,24,17.476Zm-6.774-.25H14.089v1.023h4.16V13.043H17.226Z" class="aw-theme-iconOutline" fill="#464646"/>
</svg>
