<svg id="Image" xmlns="http://www.w3.org/2000/svg" viewBox="0 0 24 24">
  <path d="M17.41,12.85a.634.634,0,0,1,.447-.777.624.624,0,0,1,.165-.022.634.634,0,0,1,.164,1.246.668.668,0,0,1-.165.022A.634.634,0,0,1,17.41,12.85ZM14.891,7.432V6.3h-.918a4.456,4.456,0,0,1,.344,1.256l5.7,3.281a2.577,2.577,0,0,1,.945,3.511,2.634,2.634,0,0,1-2.28,1.349,2.529,2.529,0,0,1-1.267-.34L12.3,12.407l2.982,5.118h3.213a2.824,2.824,0,0,1,2.82,2.821V22.5H3.174V20.346a2.824,2.824,0,0,1,2.82-2.821h3.03L3.09,7.336c-.072-.053-.138-.112-.206-.17-.047-.04-.1-.075-.142-.118l-.1-.092a3.47,3.47,0,0,1-.359-.435c-.018-.027-.033-.055-.051-.082a3.5,3.5,0,0,1-.249-.459c-.014-.031-.03-.06-.043-.092a3.406,3.406,0,0,1-.172-.555c-.009-.041-.016-.083-.024-.125a3.268,3.268,0,0,1,.007-1.3,3.405,3.405,0,0,1,.929-1.722,3.472,3.472,0,0,1,.5-.416A3.315,3.315,0,0,1,5.7,1.248c.051.009.1.02.153.031.1.024.2.061.3.094a3.374,3.374,0,0,1,.52.222c.038.02.077.04.114.062h0c.042.025.087.044.127.07s.1.067.151.1c.071.051.135.11.2.167a3.4,3.4,0,0,1,.438.443c.048.057.1.111.142.171s.08.116.117.176c.022.035.049.067.07.1h6.85V1.754H17.73V3.388l2.619-1.214,1.964,1.841-1.964-.841L17.73,4.388v.5l2.619,1.215,1.964-.937L20.349,7.108,17.73,5.893V7.432Zm1-1h.839V2.754h-.839ZM8.177,18.525H5.994a1.822,1.822,0,0,0-1.82,1.821V21.5H20.313V20.346a1.822,1.822,0,0,0-1.82-1.821H8.177Zm2.89-6.246a4.451,4.451,0,0,1-1.132.165A4.33,4.33,0,0,1,5.722,9.172a4.524,4.524,0,0,1-.147-1.221c0-.108,0-.214.006-.323A.851.851,0,0,1,6.85,6.974l.4.233,1.293.744.329.19.55.317.284-.494.332-.576L9.5,7.074l-.46-.265-.614-.353-.368-.212-.365-.21L7.466,5.9a.774.774,0,0,1-.146-.14l-.232-.4c0-.022-.016-.042-.02-.066s-.025-.054-.026-.085a.852.852,0,0,1,.352-.732,4.414,4.414,0,0,1,1.04-.539l.053-.021a.772.772,0,0,1,.072-.029H8.437l-.014-.009a2.293,2.293,0,0,0-1.077-.2,2.845,2.845,0,0,0-1,.243,1.416,1.416,0,1,0-1.823,1.96,3,3,0,0,0-.155,1.649L4.6,7.95l.506.868,5.071,8.707h3.942Zm2.751-3.86-.436-.252-.058-.5A3.445,3.445,0,0,0,12.845,6.3a3.339,3.339,0,0,0-.931-1c-.088-.063-.165-.14-.259-.2A3.382,3.382,0,0,0,9.97,4.653a3.3,3.3,0,0,0-.622.074,3.464,3.464,0,0,0-.89.285c-.1.047-.191.092-.282.148l.237.136.011.006,1.264.728.463.266.39.225.867.5-.5.866-.616,1.07,0,0-.5.863-.237-.136-.629-.363L8.09,8.842,6.563,7.963A3.431,3.431,0,0,0,8.261,11a3.362,3.362,0,0,0,1.674.443,3.447,3.447,0,0,0,.61-.062,3.5,3.5,0,0,0,.77-.226l.2-.089.259-.114.438.252,5.7,3.281a1.534,1.534,0,0,0,.768.207,1.632,1.632,0,0,0,1.414-.847A1.578,1.578,0,0,0,19.52,11.7ZM14.89,3.89H11.364a4.243,4.243,0,0,1,.79.345A4.306,4.306,0,0,1,13.377,5.3H14.89Z" class="aw-theme-iconOutline" fill="#464646"/>
</svg>
