<svg version="1.1" id="Layer_1" xmlns="http://www.w3.org/2000/svg" xmlns:xlink="http://www.w3.org/1999/xlink" x="0px" y="0px"
	 viewBox="0 0 24 24" enable-background="new 0 0 24 24" xml:space="preserve">
	<path class="aw-theme-iconOutline" fill="#464646" d="M18.4,23.2L16.2,20H7.8l-2.1,3.2l-0.4-0.3C2,20.6,0,16.8,0,13.1C0,6.5,5.5,1,12,1c6.6,0,12,5.4,12,12
		c0,3.7-2,7.6-5.2,9.9L18.4,23.2z M12,2C6,2,1,7.1,1,13.1c0,3.2,1.7,6.5,4.4,8.7L7.2,19h9.5l1.9,2.8c2.7-2.1,4.4-5.5,4.4-8.8
		C23,6.9,18.1,2,12,2z"/>
	<path class="aw-theme-iconOutline" fill="#464646" d="M12,11c-0.4,0-0.7,0.1-1,0.3L6.4,6.6L5.6,7.4l4.6,4.6c-0.2,0.3-0.3,0.6-0.3,1c0,1.1,0.9,2,2,2s2-0.9,2-2
		S13.1,11,12,11z M12,14c-0.6,0-1-0.4-1-1s0.4-1,1-1s1,0.4,1,1S12.6,14,12,14z"/>
</svg>
