<svg version="1.1" id="Artwork" xmlns="http://www.w3.org/2000/svg" xmlns:xlink="http://www.w3.org/1999/xlink" x="0px" y="0px"
	 width="24px" height="24px" viewBox="0 0 24 24" enable-background="new 0 0 24 24" xml:space="preserve">
<path class="aw-theme-iconOutline" fill="#464646" d="M22.9,11.1l-3.5-3.5l-0.7,0.7l2.6,2.6H12V1.7l2.6,2.6l0.7-0.7l-3.5-3.5c-0.2-0.2-0.5-0.2-0.7,0L7.6,3.6
	l0.7,0.7L11,1.7V11H1.7l2.6-2.6L3.6,7.6l-3.5,3.5c-0.2,0.2-0.2,0.5,0,0.7l3.5,3.5l0.7-0.7L1.7,12H11v9.3l-2.6-2.6l-0.7,0.7l3.5,3.5
	c0.1,0.1,0.2,0.1,0.4,0.1s0.3,0,0.4-0.1l3.5-3.5l-0.7-0.7L12,21.3V12h9.3l-2.6,2.6l0.7,0.7l3.5-3.5C23,11.7,23,11.3,22.9,11.1z"/>
</svg>
