<svg id="svg8" xmlns="http://www.w3.org/2000/svg" viewBox="0 0 24 24">
  <g id="layer3">
    <g id="g834">
      <path id="path836" d="M3,18a3,3,0,0,0-3,3H0a3,3,0,1,0,3-3Zm0,1a2,2,0,0,1,2,2H5a2,2,0,0,1-2,2H3a2,2,0,0,1-2-2H1a2,2,0,0,1,2-2Z" class="aw-theme-iconOutline" fill="#464646"/>
      <path id="path830" d="M14.7,6.3a.261.261,0,0,0-.127.051l-.185.136a.42.42,0,0,0-.018.573l3.891,5.492-.555.412c-.248.184-.089.669.246.769l1.789.536a.292.292,0,0,0,.391-.291l.06-1.909a.513.513,0,0,0-.093-.306.4.4,0,0,0-.545-.172L19,12,15.109,6.508A.453.453,0,0,0,14.7,6.3Z" class="aw-theme-iconOutline" fill="#464646"/>
      <path id="path826" d="M11.8,0a3,3,0,0,1,3,3h0a3,3,0,1,1-3-3Zm-.029,1a1.964,1.964,0,0,0-1.711,1.01,2.026,2.026,0,0,0,.013,2.008A1.965,1.965,0,0,0,11.8,5Z" class="aw-theme-iconOutline" fill="#464646"/>
      <path id="path822" d="M21,15a3,3,0,0,0,0,6h0a3,3,0,0,0,3-3h0A3,3,0,0,0,21,15Z" class="aw-theme-iconOutline" fill="#464646"/>
      <path id="path832" d="M9.447,18.066a.562.562,0,0,0-.476.133l-1.33,1.293a.278.278,0,0,0,.068.469l1.66.918a.54.54,0,0,0,.317.059c.235-.024.444-.188.414-.391l-.1-.662,6.729-.846c.247-.031.425-.206.4-.389l-.033-.22a.417.417,0,0,0-.5-.276L9.869,19l-.1-.664A.357.357,0,0,0,9.447,18.066Z" class="aw-theme-iconOutline" fill="#464646"/>
      <path id="path832-3" d="M9.8,10.626a.559.559,0,0,0,.173-.463l-.26-1.837a.278.278,0,0,0-.419-.221l-1.72.8a.538.538,0,0,0-.234.221.4.4,0,0,0,.072.565L8,10,4.715,15.933a.4.4,0,0,0,.079.551l.2.1a.416.416,0,0,0,.515-.238l3.285-5.933.594.313a.358.358,0,0,0,.408-.1Z" class="aw-theme-iconOutline" fill="#464646"/>
    </g>
  </g>
</svg>
