<svg id="Image" xmlns="http://www.w3.org/2000/svg" viewBox="0 0 24 24">
  <path d="M23.924,18.489c0-.012,0-.023,0-.035a6.3,6.3,0,0,0-.487-3.6.116.116,0,0,1,0-.018c0-.008-.011-.012-.014-.02a6.518,6.518,0,0,0-2.371-2.762s-.008-.01-.014-.014-.016,0-.023-.009A6.5,6.5,0,1,0,19.18,23.773c.016,0,.031,0,.047-.006s.014-.009.023-.012a6.494,6.494,0,0,0,3.079-1.915c.008-.008.018-.011.025-.019s.009-.018.016-.026a6.462,6.462,0,0,0,1.541-3.27A.382.382,0,0,0,23.924,18.489ZM12,17.5a5.506,5.506,0,0,1,5-5.475v1.838a.5.5,0,0,0,1,0V12.025a5.468,5.468,0,0,1,2.055.609l-1,1.542a.5.5,0,0,0,.839.543l1-1.539a5.545,5.545,0,0,1,1.4,1.624l-1.677.752a.5.5,0,0,0,.205.956.5.5,0,0,0,.2-.044l1.675-.752A5.467,5.467,0,0,1,23,17.5c0,.114-.01.226-.017.339L21.17,17.56a.5.5,0,0,0-.152.988l1.813.279a5.474,5.474,0,0,1-.914,1.936l-1.369-1.218a.5.5,0,1,0-.664.746l1.369,1.218a5.5,5.5,0,0,1-1.817,1.133l-.488-1.769a.5.5,0,1,0-.965.266l.488,1.77A5.477,5.477,0,0,1,12,17.5ZM19.791,4.675c-.011-.118-.286-.354-.45-.485a.158.158,0,0,0-.1-.033.181.181,0,0,0-.129.056c-.428.442-1.972,2.165-1.972,2.165l-1.76.766L13.694,5.62c-.052-.047.679-1.894.679-1.894L16.206,1.7a.236.236,0,0,0,.047-.264c-.052-.047-.4-.411-.508-.411h0A1.53,1.53,0,0,0,15.48,1c-.121,0-.241.01-.362.02a4.883,4.883,0,0,0-3.241,1.629c-1.324,1.467-.916,3.984-.747,4.7,0,.052,0,.1-.05.109l-.284.306L8.479,5.484,6.912,7.28,9.175,9.507,1.7,17.551a1.215,1.215,0,0,0-.143.988A2.369,2.369,0,0,0,3.8,20.52q.062,0,.123,0a1.157,1.157,0,0,0,.868-.288L13.772,9.989c.051-.056.051-.056.1-.061.3.029.615.043.922.043.276,0,.545-.011.791-.032A4.409,4.409,0,0,0,18.525,8.7,5.026,5.026,0,0,0,19.791,4.675ZM7.83,6.248,10.1,8.484l-.254.283L7.576,6.529ZM4.1,19.509a.94.94,0,0,1-.175.014H3.848a1.364,1.364,0,0,1-1.3-1.153,1.2,1.2,0,0,1-.021-.234l.182-.2c0,.039,0,.079,0,.119a1.347,1.347,0,0,0,.444.97,1.3,1.3,0,0,0,.889.347c.028,0,.093,0,.121-.005l.066-.007Zm.229-1.265a.429.429,0,0,1-.253.131H4.037a.3.3,0,0,1-.219-.089.382.382,0,0,1,.243-.64l.037,0a.3.3,0,0,1,.218.089A.353.353,0,0,1,4.326,18.244ZM17.782,8.031a3.5,3.5,0,0,1-2.279.912c-.219.018-.463.028-.706.028-.283,0-.568-.013-.825-.038-.033,0-.065,0-.1,0a.806.806,0,0,0-.085,0,1.1,1.1,0,0,0-.77.4L5.43,17.988v-.026a1.343,1.343,0,0,0-.444-.97,1.3,1.3,0,0,0-.888-.347c-.029,0-.094,0-.122,0s-.053.005-.079.009l5.991-6.45.006.005.289-.323,1.541-1.658a1.085,1.085,0,0,0,.406-.9,1.069,1.069,0,0,0-.027-.211c-.224-.951-.367-2.821.516-3.8a3.926,3.926,0,0,1,1.822-1.161l-.81.9a.988.988,0,0,0-.187.3c-.837,2.112-.987,2.492-.42,3.006l1.689,1.523a1,1,0,0,0,1.069.175l1.76-.766a1.01,1.01,0,0,0,.346-.25c.008-.009.428-.477.885-.983A4.376,4.376,0,0,1,17.782,8.031ZM3.407,11.042h.026a.5.5,0,0,0,.35-.17l.932-1.063a1.01,1.01,0,0,0,.247-.72,1.032,1.032,0,0,0-.352-.72l-.388-.363.35-.4.466.436h0a.859.859,0,0,0,.646.232.9.9,0,0,0,.62-.3L8.858,5.049a.885.885,0,0,0,.222-.64.9.9,0,0,0-.285-.62l-.483-.452.658-.753a.5.5,0,0,0-.752-.658l-.638.728L7.265,2.36a.886.886,0,0,0-.643-.234.874.874,0,0,0-.621.3L3.447,5.354a.914.914,0,0,0,.065,1.262l.329.307-.35.4L3.265,7.11a.982.982,0,0,0-1.408.076L.927,8.249a.5.5,0,0,0,.035.694l2.1,1.964A.5.5,0,0,0,3.407,11.042ZM6.674,3.177,8.047,4.458,5.656,7.249l-1.4-1.3ZM2.584,7.844l1.378,1.3-.591.675L1.993,8.538Z" class="aw-theme-iconOutline" fill="#464646"/>
</svg>
