<svg id="Verb_Zone" data-name="Verb Zone" xmlns="http://www.w3.org/2000/svg" viewBox="0 0 24 24">
  <g id="g865">
    <path id="path1013-0" d="M5.839,3.352a1.1,1.1,0,0,0-1.1,1.1h0a1.1,1.1,0,1,0,1.1-1.1Zm0,.471a.6.6,0,1,1-.6.6h0a.6.6,0,0,1,.6-.6Z" class="aw-theme-iconOutline" fill="#464646"/>
    <path id="path1013-4-3-0" d="M9.326,3.351a1.1,1.1,0,0,0-1.1,1.1h0a1.1,1.1,0,1,0,1.1-1.1Zm0,.47a.6.6,0,1,1-.6.6h0a.6.6,0,0,1,.6-.6Z" class="aw-theme-iconOutline" fill="#464646"/>
    <path id="path1013-4-2-8" d="M10.935,6.3a1.1,1.1,0,0,0-1.1,1.1h0a1.1,1.1,0,1,0,1.1-1.1Zm0,.471a.6.6,0,1,1-.6.6h0a.6.6,0,0,1,.6-.6Z" class="aw-theme-iconOutline" fill="#464646"/>
    <path id="path1013-4-5-6" d="M9.222,9.322a1.1,1.1,0,0,0-1.1,1.1h0a1.1,1.1,0,1,0,1.1-1.1Zm0,.471a.6.6,0,1,1-.6.6h0a.6.6,0,0,1,.6-.6Z" class="aw-theme-iconOutline" fill="#464646"/>
    <path id="path1013-4-4-1" d="M5.846,9.328a1.1,1.1,0,0,0-1.1,1.1v0a1.1,1.1,0,1,0,1.1-1.1Zm0,.47a.6.6,0,1,1-.6.6h0a.6.6,0,0,1,.6-.6Z" class="aw-theme-iconOutline" fill="#464646"/>
    <path id="path1013-4-20-6" d="M4.1,6.31A1.1,1.1,0,0,0,3,7.41H3a1.1,1.1,0,1,0,1.1-1.1Zm0,.471a.6.6,0,1,1-.6.6h0a.6.6,0,0,1,.6-.6Z" class="aw-theme-iconOutline" fill="#464646"/>
    <path id="rect1086-6" d="M6.71,3.9H8.391v.989H6.71Z" class="aw-theme-iconOutline" fill="#464646"/>
    <path id="rect1086-9-5" d="M6.7,9.965H8.378v1H6.7Z" class="aw-theme-iconOutline" fill="#464646"/>
    <path id="rect1086-7-8" d="M10.147,4.941,11,6.387l-.851.5L9.3,5.444Z" class="aw-theme-iconOutline" fill="#464646"/>
    <path id="rect1086-7-0-0" d="M4.932,4.94,4.075,6.387l.851.5.856-1.446Z" class="aw-theme-iconOutline" fill="#464646"/>
    <path id="rect1086-7-0-5-2" d="M10.165,7.96,9.309,9.407l.85.5.857-1.447Z" class="aw-theme-iconOutline" fill="#464646"/>
    <path id="rect1086-7-1-3" d="M4.919,7.951,5.775,9.4l-.85.5L4.068,8.455Z" class="aw-theme-iconOutline" fill="#464646"/>
    <path id="path875" d="M12.417,23H1V1H23V12.417a7.489,7.489,0,0,0-1-.9V2H2V22h9.517A7.489,7.489,0,0,0,12.417,23Z" class="aw-theme-iconOutline" fill="#464646"/>
    <path id="path873" d="M20.583,7H13.427a.454.454,0,0,0-.38.5.454.454,0,0,0,.38.5h7.156a.454.454,0,0,0,.38-.5A.454.454,0,0,0,20.583,7Z" class="aw-theme-iconOutline" fill="#464646"/>
    <path id="path855" d="M21,18H18v3H17V18H14V17h3V14h1v3h3Z" class="aw-theme-iconOutline" fill="#464646"/>
    <path id="path2" d="M17.5,11A9.164,9.164,0,0,0,14,12H9l2,4v1.5A6.5,6.5,0,1,0,17.5,11Zm0,1A5.5,5.5,0,1,1,12,17.5V15.764l-.105-.211L10.617,13h3.629l.219-.113A8.038,8.038,0,0,1,17.5,12Z" class="aw-theme-iconOutline" fill="#464646"/>
    <path id="path1013-0-1" d="M5.838,12.523a1.1,1.1,0,0,0-.947,1.657l-.772,1.3H4.1a1.1,1.1,0,0,0-1.1,1.1H3a1.1,1.1,0,0,0,1.1,1.1h0l.8,1.353a1.1,1.1,0,1,0,1.9,1.1H8.264a1.1,1.1,0,0,0,2.058-.539,1.149,1.149,0,0,0-.013-.166c-.02-.069-.038-.138-.055-.207a1.129,1.129,0,0,0-.076-.17l.025-.041a6.491,6.491,0,0,1-.127-1.274v-.457L9.354,18.5a1.173,1.173,0,0,0-.131-.01,1.1,1.1,0,0,0-1,.643H6.842a1.1,1.1,0,0,0-1-.637,1.014,1.014,0,0,0-.11.006l-.752-1.272a1.094,1.094,0,0,0,.01-1.289l.729-1.226a1.1,1.1,0,0,0,1.123-.656h1.47a1.1,1.1,0,0,0,1,.66L9.006,14.1a.6.6,0,0,1-.277-.5c0-.015,0-.03,0-.045l-.287-.576a1.188,1.188,0,0,0-.068.1H6.791A1.1,1.1,0,0,0,5.838,12.523Zm-.039.471h.043a.6.6,0,1,1-.6.6h0A.6.6,0,0,1,5.8,12.994Zm4.014.242a.6.6,0,0,1,.117.356.651.651,0,0,1-.01.1l1.051,2.1.08.16a.6.6,0,0,1,.025,1.174v.535a1.1,1.1,0,0,0-.123-2.189l-.724-1.221a1.105,1.105,0,0,0,.2-.625,1.091,1.091,0,0,0-.071-.387ZM4.1,15.951a.6.6,0,1,1-.6.6h0a.6.6,0,0,1,.6-.6Zm5.873.084a1.094,1.094,0,0,0,.1,1.221v-1.02Zm-.75,2.928a.6.6,0,1,1-.6.6v0a.6.6,0,0,1,.6-.6Zm-3.377.006a.6.6,0,1,1-.6.6v0a.6.6,0,0,1,.6-.6Z" class="aw-theme-iconOutline" fill="#464646"/>
  </g>
</svg>
