<svg id="svg5" xmlns="http://www.w3.org/2000/svg" viewBox="0 0 24 24">
  <g id="g818">
    <path id="path825-1" d="M13.169,5.793v5.071L6.494,8.707v1.83l6.675,2.139v.532L0,8.951v1.818l6.494,2.1v.526L.006,11.3V18.21H16V5.793Zm.8.8H15.2v10.81H.81V12.4L7.3,14.492V12.279L.8,10.188v-.13l13.169,4.258V12.093L7.3,9.953V9.812l6.676,2.156Z" class="aw-theme-iconOutline" fill="#464646"/>
    <path id="path821-2" d="M11.725,0A2.253,2.253,0,0,0,9.877.841.941.941,0,0,1,8.808.9,2.014,2.014,0,0,0,6.376.984c-.345.285-.431.25-.792.1a3.377,3.377,0,0,0-.6-.2A1.929,1.929,0,0,0,3.4,1.253a1.773,1.773,0,0,0-.65,1.414,1.829,1.829,0,0,0,.854,1.51,1.728,1.728,0,0,0,1.559.177c.139-.062.26-.128.373-.189.378-.208.468-.255.891.089a1.966,1.966,0,0,0,2.685-.277.517.517,0,0,1,.386-.2.732.732,0,0,1,.546.207,2.046,2.046,0,0,0,1.655.67,2.5,2.5,0,0,0,1.362-.465,1.255,1.255,0,0,1,.824,1.076l.056.331H15.5l.006-.392a3.754,3.754,0,0,0-1.533-2.814,2.982,2.982,0,0,0-.221-1.111A2.225,2.225,0,0,0,11.951.02C11.876.01,11.8,0,11.725,0Zm-.138.807a1.46,1.46,0,0,1,.256.014A1.437,1.437,0,0,1,13,1.6a2.342,2.342,0,0,1,.155,1l-.013.252.224.121A2.93,2.93,0,0,1,14.649,4.8h-.061a1.818,1.818,0,0,0-1.64-1.423h-.131l-.107.08a1.707,1.707,0,0,1-.983.4h-.014a1.26,1.26,0,0,1-1.1-.435A1.522,1.522,0,0,0,9.444,2.98a1.31,1.31,0,0,0-.963.5,1.157,1.157,0,0,1-1.552.16,1.334,1.334,0,0,0-1.782-.172c-.1.052-.2.109-.312.161A.931.931,0,0,1,4.024,3.5a1,1,0,0,1-.48-.843.947.947,0,0,1,.349-.774A1.131,1.131,0,0,1,4.8,1.67a2.736,2.736,0,0,1,.464.16A1.33,1.33,0,0,0,6.88,1.606a1.228,1.228,0,0,1,1.493-.025A1.72,1.72,0,0,0,10.451,1.4,1.467,1.467,0,0,1,11.587.807Z" class="aw-theme-iconOutline" fill="#464646"/>
    <path id="path827" d="M23.854,19.349l-2,2a.5.5,0,0,1-.707-.707L22.289,19.5H18V11.511h1V18.5h3.3l-1.15-1.146a.5.5,0,0,1,.7-.72l.012.013,2,2A.5.5,0,0,1,23.854,19.349Z" class="aw-theme-iconOutline" fill="#464646"/>
  </g>
</svg>
