<svg id="Image" xmlns="http://www.w3.org/2000/svg" viewBox="0 0 24 24">
  <path d="M18.209,10.236a2.4,2.4,0,0,0,.284-.029,2.255,2.255,0,0,0,1.661-1.379A2.218,2.218,0,0,0,20.317,8a2.253,2.253,0,0,0-2.25-2.25,2.21,2.21,0,0,0-.663.111l-.865-1.5A2.247,2.247,0,1,0,12.786,2.25h-1.63a2.248,2.248,0,0,0-4.44.5A2.21,2.21,0,0,0,7.109,4a2.378,2.378,0,0,0,.333.395L7.093,5l-.5.861a2.21,2.21,0,0,0-.663-.111A2.253,2.253,0,0,0,3.683,8a2.194,2.194,0,0,0,.455,1.319H2.5V19.812l3.99,2.544L7.5,23h14V12ZM5.933,6.75a1.177,1.177,0,0,1,.134.027,1.231,1.231,0,0,1,0,2.446,1.177,1.177,0,0,1-.134.027,1.25,1.25,0,0,1,0-2.5ZM6.5,21.177l-3-1.913V10.99l3,1.609Zm.721-9.327L4.365,10.319H6.7L7.093,11l.349.605A2.232,2.232,0,0,0,7.221,11.85Zm9.665-4.223a1.445,1.445,0,0,1,.185-.344,1.213,1.213,0,0,1,.507-.387,1.189,1.189,0,0,1,.355-.119,1.177,1.177,0,0,1,.134-.027A1.252,1.252,0,0,1,19.317,8a1.246,1.246,0,0,1-.035.174A1.286,1.286,0,0,1,18.067,9.25a1.177,1.177,0,0,1-.134-.027A1.286,1.286,0,0,1,16.817,8,1.1,1.1,0,0,1,16.886,7.627Zm.154,3.143.46.23,2,1H16.828a2.107,2.107,0,0,0-.289-.362ZM13.833,2.25a1.248,1.248,0,0,1,2.392.5A1.216,1.216,0,0,1,16,3.426a1.223,1.223,0,0,1-.845.538A1.182,1.182,0,0,1,14.975,4a1.249,1.249,0,0,1-1.142-.75,1.211,1.211,0,0,1,0-1ZM8.966,1.5a1.25,1.25,0,0,1,0,2.5,1.128,1.128,0,0,1-.126-.026,1.222,1.222,0,0,1-.866-.5,1.221,1.221,0,0,1-.258-.723A1.252,1.252,0,0,1,8.966,1.5Zm-1.5,8.14a2.281,2.281,0,0,0,.284-.321A2.219,2.219,0,0,0,7.462,6.36L8.248,5l.063-.109A2.181,2.181,0,0,0,10.826,4a2.248,2.248,0,0,0,.33-.75h1.63a2.213,2.213,0,0,0,2.895,1.626l.675,1.169.182.315A2.235,2.235,0,0,0,15.817,8a2.2,2.2,0,0,0,.121.686,2.331,2.331,0,0,0,.336.633,2.087,2.087,0,0,0,.264.321l-.857,1.484c-.058-.019-.122-.019-.181-.033a2.211,2.211,0,0,0-.439-.083c-.029,0-.057-.008-.086-.008a2.221,2.221,0,0,0-1.156.327,2.278,2.278,0,0,0-.7.673H10.826a2.181,2.181,0,0,0-2.515-.891L8.248,11l-.394-.681L7.67,10ZM20.491,22H7.5V13h13Z" class="aw-theme-iconOutline" fill="#464646"/>
</svg>
