<svg id="svg8" xmlns="http://www.w3.org/2000/svg" viewBox="0 0 24 24">
  <g id="layer1">
    <g id="g815">
      <path id="path819" d="M12.317,20.1c-.348-.657-1.252-2.423-1.751-3.42l-.5-.991-.142.157c-.305.335-1.291,1.535-2.286,2.78l-1.04,1.3-.009-.28C6.586,19.4,6.92,3.392,6.94,3.065l.008-.131,6.159,6.182c3.387,3.4,6.151,6.189,6.143,6.2s-1.291,0-2.849-.024-2.84-.034-2.848-.025.559,1.068,1.259,2.355,1.262,2.344,1.25,2.348c-.037.012-3.47.481-3.516.481A1.331,1.331,0,0,1,12.317,20.1Zm1.5-.8c.367-.048.683-.1.7-.108s-.458-.924-1.23-2.345c-.7-1.279-1.3-2.387-1.343-2.463l-.08-.139.908.021c.5.011,1.638.029,2.529.041l1.62.021L12.408,9.79C9.927,7.3,7.889,5.264,7.879,5.274S7.6,17.021,7.617,17.059c.006.013.2-.234.455-.519,1.015-1.109,1.469-1.616,1.789-1.967.206-.226.168-.175.491-.494.187.4.494.988.689,1.365.929,1.8,2.006,3.967,2.057,3.953C13.124,19.391,13.446,19.345,13.814,19.3Z" class="aw-theme-iconOutline" fill="#464646"/>
    </g>
  </g>
</svg>
