<svg id="Image" xmlns="http://www.w3.org/2000/svg" viewBox="0 0 24 24">
  <path d="M9.817,17.5v-.3a.621.621,0,0,1,0-.469V15.723l-.143-.285a1.739,1.739,0,0,0-.385.283,1.757,1.757,0,0,0-.438.75H6.386A1.743,1.743,0,0,0,4.7,15.2a1.731,1.731,0,0,0-.416.055l-1.23-2.13a1.755,1.755,0,0,0-.011-2.43l1.241-2.15A1.731,1.731,0,0,0,4.7,8.6,1.743,1.743,0,0,0,6.386,7.335H8.851a1.734,1.734,0,0,0,2.1,1.214L12.19,10.7a1.781,1.781,0,0,0-.222.288h1.4s.459-.236,1.12-.5a1.754,1.754,0,0,0-1.029-.336,1.781,1.781,0,0,0-.4.048L11.822,8.044a1.753,1.753,0,0,0,0-2.424l1.235-2.139a1.782,1.782,0,0,0,.416.054,1.744,1.744,0,0,0,1.687-1.267h2.466a1.744,1.744,0,0,0,1.687,1.267,1.741,1.741,0,0,0,.418-.055l1.238,2.143a1.757,1.757,0,0,0-.011,2.444L19.76,10.133a7.74,7.74,0,0,1,.945.362l1.114-1.929a1.765,1.765,0,1,0,.412-3.482,1.731,1.731,0,0,0-.4.049L20.591,2.977a1.765,1.765,0,1,0-2.97-1.709H15.155a1.763,1.763,0,1,0-2.968,1.711L10.95,5.121a1.741,1.741,0,0,0-.412-.053A1.744,1.744,0,0,0,8.851,6.335H6.386A1.763,1.763,0,1,0,3.418,8.047L2.173,10.2a1.739,1.739,0,0,0-.4-.051,1.768,1.768,0,0,0,0,3.535,1.765,1.765,0,0,0,.42-.056l1.229,2.128a1.765,1.765,0,1,0,2.968,1.712H8.851a1.718,1.718,0,0,0,1.056,1.146A7.628,7.628,0,0,1,9.817,17.5Zm11.7-10.919a.744.744,0,0,1,.172-.272.759.759,0,0,1,.542-.225.768.768,0,0,1,.173.034.755.755,0,0,1,.37,1.276.746.746,0,0,1-.391.2.718.718,0,0,1-.152.03.795.795,0,0,1-.767-.767A.773.773,0,0,1,21.517,6.581ZM18.736,1.268c.012-.014.017-.031.029-.043a.767.767,0,0,1,1.31.542A.761.761,0,0,1,20.029,2a.739.739,0,0,1-.721.531.78.78,0,0,1-.144-.028.755.755,0,0,1-.4-.2c-.012-.012-.017-.029-.028-.042a.734.734,0,0,1,0-1Zm-5.81-.043a.767.767,0,0,1,1.085,0c.012.012.017.029.029.043a.736.736,0,0,1,0,1c-.012.013-.017.03-.029.042a.748.748,0,0,1-.4.2.722.722,0,0,1-.147.029.742.742,0,0,1-.72-.527.787.787,0,0,1-.047-.241A.761.761,0,0,1,12.926,1.225ZM9.967,6.335c.012-.013.016-.03.029-.043a.753.753,0,0,1,.39-.194.718.718,0,0,1,.152-.03.766.766,0,0,1,.543.224A.768.768,0,0,1,10.538,7.6a.776.776,0,0,1-.142-.028l-.009,0a.753.753,0,0,1-.391-.2c-.013-.013-.018-.03-.029-.043a.736.736,0,0,1,0-1ZM4.156,6.292a.77.77,0,0,1,1.086,0c.012.013.017.03.028.043a.736.736,0,0,1,0,1c-.011.013-.016.03-.028.043a.759.759,0,0,1-.4.2A.831.831,0,0,1,4.7,7.6a.763.763,0,0,1-.543-.225.9.9,0,0,1-.225-.543A.763.763,0,0,1,4.156,6.292ZM2.49,12.153a.748.748,0,0,1-.179.309.759.759,0,0,1-.542.225.749.749,0,0,1-.141-.028.756.756,0,0,1-.4-.2.767.767,0,0,1,0-1.085.751.751,0,0,1,.38-.193.747.747,0,0,1,.163-.032.759.759,0,0,1,.542.225.736.736,0,0,1,.174.284.75.75,0,0,1,.051.258A.766.766,0,0,1,2.49,12.153Zm2.78,5.318c-.011.013-.016.03-.028.042a.768.768,0,0,1-1.311-.542.9.9,0,0,1,.225-.543A.763.763,0,0,1,4.7,16.2a.75.75,0,0,1,.147.029.751.751,0,0,1,.4.2c.012.012.017.03.028.043a.736.736,0,0,1,0,1ZM21,18H18v3H17V18H14V17h3V14h1v3h3Zm-3.5-6a8.053,8.053,0,0,0-3.036.886L14.246,13H10.618l1.276,2.553.106.211V17.5A5.5,5.5,0,1,0,17.5,12m0-1A6.5,6.5,0,1,1,11,17.5V16L9,12h5a9.18,9.18,0,0,1,3.5-1Z" class="aw-theme-iconOutline" fill="#464646"/>
</svg>
