<svg id="Livello_1" data-name="Livello 1" xmlns="http://www.w3.org/2000/svg" viewBox="0 0 24 24">
  <g id="g853">
    <path id="polygon2" d="M2,6H1V0H7V1H2Z" class="aw-theme-iconOutline" fill="#464646"/>
    <path id="path6" d="M14.9,6.666l-3.4-3.4L8.1,6.666,7.4,5.959l3.746-3.75a.5.5,0,0,1,.353-.146h0a.505.505,0,0,1,.354.146L15.6,5.959Z" class="aw-theme-iconOutline" fill="#464646"/>
    <path id="rect8" d="M11,2.75h1v8.229H11Z" class="aw-theme-iconOutline" fill="#464646"/>
    <path id="path10" d="M11.5,21.93a.505.505,0,0,1-.354-.146L7.4,18.034l.707-.707,3.4,3.4,3.393-3.4.707.707-3.746,3.75A.5.5,0,0,1,11.5,21.93Z" class="aw-theme-iconOutline" fill="#464646"/>
    <path id="rect12" d="M11,13.021h1v7.847H11Z" class="aw-theme-iconOutline" fill="#464646"/>
    <path id="polygon14" d="M7,24H1V18H2v5H7Z" class="aw-theme-iconOutline" fill="#464646"/>
    <path id="polygon16" d="M22,24H16V23h5V18h1Z" class="aw-theme-iconOutline" fill="#464646"/>
    <path id="polygon18" d="M22,6H21V1H16V0h6Z" class="aw-theme-iconOutline" fill="#464646"/>
  </g>
</svg>
