<svg version="1.1" id="Livello_2" xmlns="http://www.w3.org/2000/svg" xmlns:xlink="http://www.w3.org/1999/xlink" x="0px" y="0px"
	  viewBox="0 0 24 24" enable-background="new 0 0 24 24" xml:space="preserve">
<path id="rect5062" class="aw-theme-iconOutline" fill="#464646" d="M23.396-0.006c-0.004,0-0.008,0.002-0.012,0.002
	l-4.842,0.012l0.002,0.988l3.607-0.008L12.041,11.109L2.018,0.988l3.521,0.008l0.004-0.988L0.545-0.004v0.021
	c-0.11,0.018-0.217,0.051-0.309,0.115C0.119,0.215,0.058,0.327,0.023,0.445H0.008v0.051c-0.01,0.055-0.008,0.109,0,0.166
	l-0.016,4.777l0.984,0.006l0.012-3.609l10.113,10.213L0.988,22.173l-0.012-3.729l-0.984,0.008l0.016,4.938c0,0.014,0,0.025,0,0.039
	v0.016h0.004c0.009,0.143,0.061,0.285,0.172,0.395c0.148,0.146,0.35,0.19,0.539,0.156h4.82v-1H1.891l10.068-10.082l9.992,10.089
	l-3.406-0.008l-0.002,0.988l4.65,0.012c0.03,0.004,0.06,0,0.09,0h0.256V23.96c0.072-0.022,0.144-0.047,0.205-0.09
	c0.148-0.104,0.229-0.253,0.242-0.408h0.006l0.016-4.984l-1-0.008l-0.012,3.701L12.898,11.974L22.992,1.869v3.576h1V0.693
	c0.01-0.062,0.01-0.122,0-0.184V0.445h-0.014c-0.027-0.1-0.068-0.197-0.148-0.275c-0.083-0.082-0.186-0.124-0.291-0.148v-0.025
	h-0.131C23.404-0.004,23.4-0.006,23.396-0.006z"/>
</svg>
