<svg id="Image" xmlns="http://www.w3.org/2000/svg" viewBox="0 0 24 24">
  <path d="M17.68,20.025l.709.705L16.17,22.94a3.614,3.614,0,0,1-5.113-5.11c.431-.43.8-.8,1.122-1.136,1.631-1.664,2.122-2.165,3.381-2.347a3.608,3.608,0,0,1,4.1,3.041l0,.031-.99.137a2.605,2.605,0,0,0-2.936-2.225l-.034.005c-.9.13-1.222.438-2.8,2.05-.333.34-.7.718-1.136,1.15a2.618,2.618,0,0,0,0,3.7,2.678,2.678,0,0,0,3.7,0Zm5.263-8.965a3.7,3.7,0,0,0-5.113,0l-2.219,2.208.709.705,2.216-2.211a2.678,2.678,0,0,1,3.7,0,2.618,2.618,0,0,1,0,3.7L19.767,17.93a2.534,2.534,0,0,1-1.823.77,2.636,2.636,0,0,1-2.615-2.254l-.991.134a3.641,3.641,0,0,0,3.606,3.12,3.513,3.513,0,0,0,2.53-1.061l2.469-2.468A3.616,3.616,0,0,0,22.943,11.06Zm-18.259.786L6.171,8.874l2.356.648v0L9.9,9.9,7.136,5.11H13.2V6.245h2.839V4.706l2.619,1.215,1.964-1.936-1.964.936L16.043,3.706V3.2l2.619-1.215,1.964.841L18.662.987,16.043,2.2V.568H13.2V1.7H6.353c-.021-.036-.047-.068-.069-.1-.038-.06-.076-.118-.117-.176-.018-.024-.033-.051-.051-.075L6.1,1.332c-.023-.03-.055-.051-.079-.08A3.459,3.459,0,0,0,5.587.809C5.557.784,5.536.751,5.505.727L5.471.7C5.444.681,5.413.663,5.385.643c-.05-.036-.1-.07-.151-.1C5.211.525,5.19.508,5.166.494L5.112.461l0,.01A3.371,3.371,0,0,0,3.406,0a3.406,3.406,0,0,0-1.9,6.233ZM14.2,1.568h.839V5.245H14.2ZM6.739,2.7H13.2V4.11H6.721a3.143,3.143,0,0,0,.092-.7A3.464,3.464,0,0,0,6.739,2.7ZM6.126,5.435l.1.174L7.8,8.285,5.643,7.691,4.63,9.719,2.958,6.768a3.486,3.486,0,0,0,.448.045A3.389,3.389,0,0,0,6.126,5.435ZM3.406,1.987A1.42,1.42,0,1,1,1.987,3.406,1.42,1.42,0,0,1,3.406,1.987ZM2.487,19.159v1.155H8.628a7.425,7.425,0,0,0-.118,1H1.487V19.159a2.824,2.824,0,0,1,2.82-2.82H7.34L5.788,13.657l1.3-2.83,3.818.842,1.234,2.141q-.36.4-.686.813l-1.194-2.072-2.6-.573-.745,1.627,1.582,2.734h1.755c-.2.334-.387.667-.556,1H4.307A1.821,1.821,0,0,0,2.487,19.159Z" class="aw-theme-iconOutline" fill="#464646"/>
</svg>
