<svg id="Image" xmlns="http://www.w3.org/2000/svg" viewBox="0 0 24 24">
  <path d="M20.105,14.119l-3.12-1.789.464-.836,2.111,1.229L17.5,6.859l.919-.263,2.063,5.864,1.185-2.172.836.464-1.744,3.182A.48.48,0,0,1,20.105,14.119Zm-4.832.252v3.577a.5.5,0,0,1-.5.5h-.6a2.139,2.139,0,0,1-4.27,0H7.267a2.139,2.139,0,0,1-4.27,0H1.5a.5.5,0,0,1-.5-.5V12.126a.5.5,0,0,1,.494-.5l3.621-.008V5.184a.5.5,0,0,1,.5-.5h5.223a.5.5,0,0,1,.476.348l2.82,8.837.639,0A.5.5,0,0,1,15.273,14.371ZM6.115,5.684v6.053l.439.121L7.07,12h0l.013,0a.48.48,0,0,1,.112.046l1.465.825,1.744.978,2.677.01-2.61-8.18ZM6.282,18.3a1.15,1.15,0,1,0-1.15,1.15A1.151,1.151,0,0,0,6.282,18.3Zm6.906,0a1.15,1.15,0,1,0-1.15,1.15A1.151,1.151,0,0,0,13.188,18.3Zm1.085-3.43-.464,0c-.013,0-.024.009-.038.009H10.319a.508.508,0,0,1-.244-.064l-.041-.022-.013,0-1.672-.941-1.6-.9-1.165-.322-.035-.01L2,12.62v4.828h.926a2.471,2.471,0,0,1,4.449,0H9.818a2.471,2.471,0,0,1,4.449,0h.006ZM22.981,16.3a.5.5,0,0,0-.617-.346l-4.551,1.285L13.818,2.817a.5.5,0,1,0-.963.267l4.129,14.9a.5.5,0,0,0,.482.367.485.485,0,0,0,.136-.019l5.034-1.422A.5.5,0,0,0,22.981,16.3ZM6.672,10.866v-4a.5.5,0,0,1,.5-.5h2.8a.5.5,0,0,1,.475.343l1.32,4a.5.5,0,0,1-.475.657H7.172A.5.5,0,0,1,6.672,10.866Zm1-.5H10.6l-.99-3H7.672Z" class="aw-theme-iconOutline" fill="#464646"/>
</svg>
