<svg id="Image" xmlns="http://www.w3.org/2000/svg" viewBox="0 0 24 24">
  <path d="M8.942,20.314H2.487V19.159a1.821,1.821,0,0,1,1.82-1.82h5.6c.175-.333.365-.667.583-1h-2L3.422,7.632l-.505-.868L2.676,6.35A3,3,0,0,1,2.831,4.7a1.417,1.417,0,1,1,1.822-1.96A2.835,2.835,0,0,1,5.659,2.5a2.281,2.281,0,0,1,1.077.2L6.75,2.7h.121c-.024.008-.048.019-.072.029l-.052.022a4.377,4.377,0,0,0-1.04.539.849.849,0,0,0-.352.731c0,.032.021.055.026.086s.015.043.02.066l.232.4a.843.843,0,0,0,.146.14L6,4.848l.365.21.368.212.614.353.46.265.544.313-.332.577-.284.493-.55-.317-.33-.189L5.566,6.02l-.4-.232a.85.85,0,0,0-1.269.654c-.01.108,0,.215-.006.322a4.484,4.484,0,0,0,.147,1.221,4.329,4.329,0,0,0,4.213,3.273,4.408,4.408,0,0,0,1.132-.166l2.209,3.793c.222-.261.46-.517.708-.771L10.611,11.22l2.967,1.708c.281-.234.567-.453.854-.662l-3.9-2.248-.438-.251-.26.113-.2.089a3.389,3.389,0,0,1-.771.226,3.427,3.427,0,0,1-.609.063A3.353,3.353,0,0,1,5.113,8.111a3.436,3.436,0,0,1-.237-1.334L6.4,7.656l.837.482.63.362.237.137.5-.863,0,0L9.222,6.7l.5-.867-.867-.5-.39-.224L8,4.844,6.737,4.116,6.726,4.11l-.237-.137c.091-.056.187-.1.282-.148a3.424,3.424,0,0,1,.89-.284,3.3,3.3,0,0,1,.622-.074,3.376,3.376,0,0,1,1.684.448,2.888,2.888,0,0,1,.26.2,3.328,3.328,0,0,1,.931,1,3.455,3.455,0,0,1,.479,1.371l.058.5.436.251L17.7,10.44a11.6,11.6,0,0,1,1.142-.39,2.529,2.529,0,0,0-.515-.4l-5.7-3.282a4.459,4.459,0,0,0-.344-1.255H13.2V6.245h2.839V4.706l2.619,1.215,1.964-1.936-1.964.936L16.043,3.706V3.2l2.619-1.215,1.964.841L18.662.987,16.043,2.2V.568H13.2V1.7H6.353c-.021-.036-.047-.068-.069-.1-.038-.059-.076-.118-.117-.176s-.095-.114-.142-.171A3.4,3.4,0,0,0,5.587.809C5.52.753,5.456.694,5.385.643c-.049-.036-.1-.07-.151-.1S5.148.5,5.107.471h0C5.069.449,5.03.429,4.992.409a3.374,3.374,0,0,0-.52-.222c-.1-.033-.2-.07-.3-.094-.05-.012-.1-.022-.152-.031A3.3,3.3,0,0,0,1.93.336,3.4,3.4,0,0,0,0,3.406a3.366,3.366,0,0,0,.062.615q.011.063.024.126A3.468,3.468,0,0,0,.258,4.7c.013.031.029.061.043.092a3.373,3.373,0,0,0,.249.458c.017.027.033.056.051.082a3.332,3.332,0,0,0,.359.435c.031.032.062.062.094.093s.1.077.143.118c.068.058.134.117.206.169l5.934,10.19H4.307a2.824,2.824,0,0,0-2.82,2.82v2.155H8.944A4.909,4.909,0,0,1,8.942,20.314ZM14.2,1.568h.839V5.245H14.2ZM13.2,2.7V4.11H11.69a4.325,4.325,0,0,0-1.223-1.062,4.38,4.38,0,0,0-.79-.345Zm.411,21.276a3.616,3.616,0,0,1-2.557-6.17c.431-.43.8-.8,1.122-1.136,1.631-1.664,2.122-2.165,3.381-2.347a3.608,3.608,0,0,1,4.1,3.041l0,.031-.99.137a2.605,2.605,0,0,0-2.936-2.225l-.034,0c-.9.13-1.222.438-2.8,2.05-.333.34-.7.718-1.136,1.15a2.618,2.618,0,0,0,0,3.7,2.678,2.678,0,0,0,3.7,0L17.68,20l.709.7-2.219,2.21A3.591,3.591,0,0,1,13.614,23.979Zm6.86-5.361,2.469-2.468a3.616,3.616,0,0,0,0-5.111,3.7,3.7,0,0,0-5.113,0l-2.219,2.208.709.705,2.216-2.211a2.678,2.678,0,0,1,3.7,0,2.618,2.618,0,0,1,0,3.7l-2.469,2.468a2.53,2.53,0,0,1-1.823.77,2.636,2.636,0,0,1-2.615-2.254l-.991.134a3.641,3.641,0,0,0,3.606,3.12A3.513,3.513,0,0,0,20.474,18.618Z" class="aw-theme-iconOutline" fill="#464646"/>
</svg>
