<svg id="Image" xmlns="http://www.w3.org/2000/svg" viewBox="0 0 24 24">
  <path d="M9.441,15.545V13.551a.5.5,0,0,0-.5-.5l-.014,0-2.134,0a.5.5,0,0,0-.453.712,1.208,1.208,0,0,1,.118.513,1.248,1.248,0,0,1-2.495,0,1.208,1.208,0,0,1,.118-.513.5.5,0,0,0-.453-.712H1.479a.5.5,0,0,0-.5.5v7.436a.5.5,0,0,0,.5.5H8.941a.5.5,0,0,0,.5-.5V19.007a1.738,1.738,0,1,0,0-3.462ZM9.2,17.9a.5.5,0,0,0-.756.43v2.155H1.979V14.051h1a2.106,2.106,0,0,0-.012.225,2.248,2.248,0,0,0,4.5,0,2.087,2.087,0,0,0-.012-.224h1v2.169a.5.5,0,0,0,.758.428.74.74,0,1,1,0,1.251ZM21.5,1.466a.5.5,0,0,0-.5-.5H13.606a.5.5,0,0,0-.5.5V3.446a1.737,1.737,0,1,0,0,3.461V8.9a.288.288,0,0,0,.009.04.47.47,0,0,0-.017.083.5.5,0,0,0,.5.5h2.121a.5.5,0,0,0,.454-.71,1.217,1.217,0,0,1-.119-.515,1.248,1.248,0,0,1,2.5,0,1.2,1.2,0,0,1-.118.513.5.5,0,0,0,.453.712H21a.5.5,0,0,0,.5-.5c0-.021-.01-.039-.012-.06A.579.579,0,0,0,21.5,8.9Zm-4.2,4.6A2.242,2.242,0,0,0,15.054,8.3c0,.075,0,.151.011.225h-.959V6.231a.5.5,0,0,0-.757-.429.758.758,0,0,1-1.135-.625.757.757,0,0,1,1.135-.626.5.5,0,0,0,.757-.429V1.967H20.5V8.524h-.963a2.12,2.12,0,0,0,.012-.225A2.242,2.242,0,0,0,17.3,6.069ZM6.867,9.392H8.9A.458.458,0,0,0,9.3,9.158a.439.439,0,0,0,.034-.05c0-.006,0-.013,0-.019a.458.458,0,0,0,.032-.162l0-2.149h0a.465.465,0,0,0-.662-.421,1.244,1.244,0,0,1-.528.121,1.283,1.283,0,0,1,0-2.565,1.244,1.244,0,0,1,.528.121.465.465,0,0,0,.662-.42V1.465h0A.465.465,0,0,0,8.9,1H1.465A.465.465,0,0,0,1,1.465V8.927a.465.465,0,0,0,.465.465H3.484a1.7,1.7,0,1,0,3.383,0ZM4.519,9.167a.465.465,0,0,0-.4-.7H1.93V1.93H8.438V3a2.079,2.079,0,0,0-.261-.017,2.213,2.213,0,0,0,0,4.425,2.254,2.254,0,0,0,.26-.016v1.07H6.23a.465.465,0,0,0-.4.705.793.793,0,0,1-.657,1.187A.794.794,0,0,1,4.519,9.167Zm16.129,5.475-.885-.886a.874.874,0,0,0-1.237,0l-6.881,6.882a.875.875,0,0,0,0,1.236l.885.886a.874.874,0,0,0,1.236,0l6.882-6.883a.873.873,0,0,0,0-1.235Zm-1.916,1.737-.708-.707,1.121-1.12.707.708Zm4.75,2.131-1.241-.63L21,18.51l.669-1.242L21,16.027l1.241.7,1.241-.7-.7,1.241Zm-3.7-5.269-1.241-.629-1.241.629L17.968,12,17.3,10.759l1.241.7,1.241-.7L19.081,12ZM20.621,19,20,18.683,19.379,19l.335-.62-.335-.621.621.352.621-.352-.35.621Z" class="aw-theme-iconOutline" fill="#464646"/>
</svg>
