<svg id="Layer_1" data-name="Layer 1" xmlns="http://www.w3.org/2000/svg" viewBox="0 0 24 24">
  <g id="g857">
    <path id="rect857" d="M2,6H7V7H2Z" class="aw-theme-iconOutline" fill="#464646"/>
    <path id="rect857-6" d="M2,9H9v1H2Z" class="aw-theme-iconOutline" fill="#464646"/>
    <path id="rect857-6-9" d="M2,12H7v1H2Z" class="aw-theme-iconOutline" fill="#464646"/>
    <path id="rect857-66" d="M15,6h5V7H15Z" class="aw-theme-iconOutline" fill="#464646"/>
    <path id="rect857-6-6" d="M15,9h7v1H15Z" class="aw-theme-iconOutline" fill="#464646"/>
    <path id="rect857-6-9-3" d="M15,12h5v1H15Z" class="aw-theme-iconOutline" fill="#464646"/>
    <path id="rect1187" d="M6.2,16.456H16.3v1.363H6.2Z" class="aw-theme-iconOutline" fill="#464646"/>
    <path id="path1189" d="M16,19.55l.037-2.422,0-2.422,2.079,1.243,2.1,1.209L18.1,18.337Z" class="aw-theme-iconOutline" fill="#464646"/>
    <path id="path839" d="M0,12.01.008,3H7.17L9.094,5.514,11,8l-.011,6.514L11,21H0ZM10.01,14.2,10,8.33,8.353,6.162,6.7,4.02C4.8,4.034,2.894,3.984,1,4l.006,8L1,20c3.036,0,5.984.017,9,0Z" class="aw-theme-iconOutline" fill="#464646"/>
    <path id="path841" d="M13,12.01V3h7.17L22.1,5.538,24,8V21H13Zm10,2.184V8.33L21.357,6.176,19.7,4H14c-.028,2.672.055,5.422,0,8v8h9Z" class="aw-theme-iconOutline" fill="#464646"/>
  </g>
</svg>
