<svg id="Image" xmlns="http://www.w3.org/2000/svg" viewBox="0 0 24 24">
  <g id="g855">
    <path id="path833" d="M9.287,1.2a.5.5,0,0,1,.224.07l5.252,3.153a.5.5,0,0,1,.243.427v5.495l5.009,3.005a.5.5,0,0,1,.243.43v5.776a.5.5,0,0,1-.243.429l-5.252,3.151a.5.5,0,0,1-.513,0l-10.5-6.3a.5.5,0,0,1-.244-.428V4.846a.5.5,0,0,1,.24-.427L9,1.266a.5.5,0,0,1,.238-.07ZM9.256,2.284,4.834,4.938,9.191,7.546l4.422-2.651Zm4.752,3.539L9.691,8.417v4.611l4.317-2.594ZM4.5,5.9V16.118l4.187,2.514V8.413Zm10.08,5.356L10.3,13.823l4.2,2.52,4.281-2.567ZM9.722,14.639v4.612l4.284,2.568V17.208Zm9.536.02-4.252,2.549v4.611l4.252-2.551Z" class="aw-theme-iconOutline" fill="#464646"/>
    <path id="path843" d="M16.025,4.852a1.5,1.5,0,1,1-1.5-1.5A1.5,1.5,0,0,1,16.025,4.852Z" class="aw-theme-iconOutline" fill="#464646"/>
    <path id="path843-4" d="M10.725,7.8a1.5,1.5,0,1,1-1.5-1.5A1.5,1.5,0,0,1,10.725,7.8Z" class="aw-theme-iconOutline" fill="#464646"/>
    <path id="path843-7" d="M5.5,5.052A1.5,1.5,0,1,1,4,3.552,1.5,1.5,0,0,1,5.5,5.052Z" class="aw-theme-iconOutline" fill="#464646"/>
    <path id="path843-7-6" d="M10.725,1.564a1.5,1.5,0,1,1-1.5-1.5A1.5,1.5,0,0,1,10.725,1.564Z" class="aw-theme-iconOutline" fill="#464646"/>
    <path id="path843-7-6-7" d="M16.025,10.671a1.5,1.5,0,1,1-1.5-1.5A1.5,1.5,0,0,1,16.025,10.671Z" class="aw-theme-iconOutline" fill="#464646"/>
    <path id="path843-7-6-5" d="M21.321,13.661a1.5,1.5,0,1,1-1.5-1.5A1.5,1.5,0,0,1,21.321,13.661Z" class="aw-theme-iconOutline" fill="#464646"/>
    <path id="path843-7-6-4" d="M21.3,19.48a1.5,1.5,0,1,1-1.5-1.5A1.5,1.5,0,0,1,21.3,19.48Z" class="aw-theme-iconOutline" fill="#464646"/>
    <path id="path843-7-6-2" d="M16.025,22.5a1.5,1.5,0,1,1-1.5-1.5A1.5,1.5,0,0,1,16.025,22.5Z" class="aw-theme-iconOutline" fill="#464646"/>
    <path id="path843-7-6-8" d="M16.025,16.7a1.5,1.5,0,1,1-1.5-1.5A1.5,1.5,0,0,1,16.025,16.7Z" class="aw-theme-iconOutline" fill="#464646"/>
    <path id="path843-7-6-57" d="M10.725,19.354a1.5,1.5,0,1,1-1.5-1.5A1.5,1.5,0,0,1,10.725,19.354Z" class="aw-theme-iconOutline" fill="#464646"/>
    <path id="path843-7-6-50" d="M5.5,16.413a1.5,1.5,0,1,1-1.5-1.5A1.5,1.5,0,0,1,5.5,16.413Z" class="aw-theme-iconOutline" fill="#464646"/>
    <path id="path843-7-6-0" d="M10.725,13.979a1.5,1.5,0,0,1-1.5,1.5h0a1.5,1.5,0,0,1-1.5-1.5h0a1.5,1.5,0,0,1,3,0Z" class="aw-theme-iconOutline" fill="#464646"/>
    <path id="path843-7-6-25" d="M5.5,10.85A1.5,1.5,0,1,1,4,9.35,1.5,1.5,0,0,1,5.5,10.85Z" class="aw-theme-iconOutline" fill="#464646"/>
    <path id="rect944" d="M5.311,10.9l4.045,2.4-.465.878L4.833,11.76Z" class="aw-theme-iconOutline" fill="#464646"/>
  </g>
</svg>
