<svg id="svg5" xmlns="http://www.w3.org/2000/svg" viewBox="0 0 24 24">
  <g id="g818">
    <path id="path823" d="M4.832,1.2a3.4,3.4,0,0,0-3.42,2.709,3.333,3.333,0,0,0-.045,1.082.825.825,0,0,0,.02.121c.006.04.011.067.017.1s.017.084.026.125a.072.072,0,0,0,.008.043c.011.044.021.088.033.131.024.086.052.17.082.254.014.036.027.074.041.109l.008.018c.013.032.029.06.043.091.034.078.066.157.107.231s.092.151.141.226c.017.027.031.055.05.082l.01.014c.02.028.042.054.063.082.055.074.112.146.172.215l.08.09c.011.012.024.021.035.033.031.032.061.064.093.094l.067.064a.526.526,0,0,0,.074.051l-.008.01.008.008a3.328,3.328,0,0,0,.3.226L8.662,17.525H5.65a2.825,2.825,0,0,0-2.82,2.821V22.5h9.238a7.571,7.571,0,0,1-.8-1H3.83V20.346a1.822,1.822,0,0,1,1.82-1.821H10.1a7.437,7.437,0,0,1-.094-1V17.5H9.8L4.3,7.953A3.209,3.209,0,0,0,4.75,8,3.393,3.393,0,0,0,7.471,6.623l.1.172,3.688,6.4a7.451,7.451,0,0,1,.666-.847L8.436,6.3h6.111V7.432h2.84V5.893l2.619,1.214,1.963-1.935-1.963.935L17.387,4.893v-.5L20.006,3.18l1.963.84L20.006,2.174,17.387,3.389V1.754h-2.84V2.891H7.7a1.2,1.2,0,0,0-.068-.1c-.038-.06-.076-.119-.117-.176-.018-.025-.033-.052-.051-.076l-.012-.016c-.023-.029-.056-.049-.08-.078A3.418,3.418,0,0,0,6.93,2c-.03-.025-.051-.058-.082-.082l-.034-.025c-.027-.021-.057-.04-.085-.061-.05-.035-.1-.07-.153-.1-.023-.015-.042-.031-.066-.046l-.055-.034H6.449c-.035-.021-.077-.029-.113-.048a3.282,3.282,0,0,0-.522-.221c-.042-.014-.076-.041-.119-.053s-.067-.016-.1-.025-.054-.012-.08-.018c-.051-.011-.1-.02-.155-.029a.489.489,0,0,1-.074-.016l-.115-.017C5.059,1.21,4.946,1.2,4.832,1.2ZM4.691,3.176A1.419,1.419,0,0,1,6.169,4.534c0,.02,0,.04,0,.06A1.412,1.412,0,1,1,4.691,3.176Zm3.391.715h6.465l0,1.406H8.082A3.365,3.365,0,0,0,8.082,3.891Z" class="aw-theme-iconOutline" fill="#464646"/>
    <path id="path829" d="M5.609,17.434a2.824,2.824,0,0,0-2.779,2.82V22.51H20.971V20.254a2.825,2.825,0,0,0-2.756-2.82Zm.041,1.1h12.5a1.74,1.74,0,0,1,1.82,1.721v1.255H3.83V20.254A1.74,1.74,0,0,1,5.65,18.533Z" class="aw-theme-iconOutline" fill="#464646"/>
    <path id="rect841" d="M7.477,6.634l.855-.522,6.8,11.8-.856.522Z" class="aw-theme-iconOutline" fill="#464646"/>
  </g>
</svg>
