<svg id="Image" xmlns="http://www.w3.org/2000/svg" viewBox="0 0 24 24">
  <path d="M22.7,4.234,17.447,1.083a.5.5,0,0,0-.513,0L11.682,4.234a.5.5,0,0,0-.243.429v5.494L6.43,13.162a.5.5,0,0,0-.242.429v5.776a.5.5,0,0,0,.242.429l5.252,3.151a.495.495,0,0,0,.514,0l10.5-6.3a.5.5,0,0,0,.243-.429V4.663A.5.5,0,0,0,22.7,4.234ZM17.19,2.1l4.421,2.653L17.253,7.362,12.832,4.71Zm-.437,6.133v4.611L12.438,10.25V5.639ZM11.861,11.07l4.28,2.568-4.2,2.52-4.28-2.567Zm.578,5.954,4.283-2.569v4.611l-4.283,2.569Zm-5.251-2.55,4.251,2.55v4.611L7.188,19.084Zm10.565,3.973V8.228l4.189-2.513V15.934ZM6.854,8.822l-2,2a.5.5,0,0,1-.707-.707L5.289,8.972H1V.984H2V7.972H5.3L4.15,6.826a.5.5,0,0,1,.695-.72l.012.013,2,2A.5.5,0,0,1,6.854,8.822Z" class="aw-theme-iconOutline" fill="#464646"/>
</svg>
