<svg id="Image" xmlns="http://www.w3.org/2000/svg" viewBox="0 0 24 24">
  <path d="M17.386,4.893v-.5l2.619-1.214,1.964.841L20.005,2.174,17.386,3.388V1.754H14.547V2.89H7.7c-.021-.037-.047-.069-.069-.1-.038-.06-.076-.119-.117-.176-.018-.025-.033-.052-.051-.076l-.012-.016c-.023-.029-.055-.05-.079-.079A3.334,3.334,0,0,0,6.93,2c-.03-.025-.051-.059-.082-.083l-.034-.025c-.027-.021-.058-.038-.086-.059-.05-.035-.1-.07-.151-.1-.023-.015-.044-.032-.068-.047l-.054-.033,0,.01a3.4,3.4,0,0,0-3.6,5.763l3.178,5.612L7.514,10.06l2.356.648v0h0l1.374.377L8.479,6.3h6.068V7.432h2.839V5.893l2.619,1.215,1.964-1.937-1.964.937ZM3.33,4.593A1.42,1.42,0,1,1,4.75,6.012,1.419,1.419,0,0,1,3.33,4.593ZM9.143,9.471,6.986,8.877,5.973,10.906,4.3,7.954A3.315,3.315,0,0,0,4.75,8,3.388,3.388,0,0,0,7.469,6.621l.1.174Zm5.4-4.175H8.064a3.126,3.126,0,0,0,.092-.7,3.464,3.464,0,0,0-.074-.7h6.464Zm1.84,1.136h-.839V2.754h.839Zm1.762,11.093H14.937l-2.692-4.669-3.818-.843-1.3,2.831,1.552,2.681H5.65a2.824,2.824,0,0,0-2.82,2.821V22.5H20.969V20.346A2.825,2.825,0,0,0,18.148,17.525ZM8.255,14.791,9,13.164l2.6.573,2.183,3.788H9.837ZM19.969,21.5H3.83V20.346a1.822,1.822,0,0,1,1.82-1.821h12.5a1.823,1.823,0,0,1,1.821,1.821Z" class="aw-theme-iconOutline" fill="#464646"/>
</svg>
