<svg id="Image" xmlns="http://www.w3.org/2000/svg" viewBox="0 0 24 24">
  <path d="M17.417,24.016a6.5,6.5,0,1,1,6.5-6.5A6.5,6.5,0,0,1,17.417,24.016Zm0-12a5.5,5.5,0,1,0,5.5,5.5A5.5,5.5,0,0,0,17.417,12.016Zm.465,3.276v-2.5a.5.5,0,1,0-1,0v2.5a.5.5,0,0,0,1,0Zm1.425.976L21.075,14.5a.5.5,0,0,0-.707-.707L18.6,15.561a.5.5,0,0,0,.707.707Zm3.318,1.2a.5.5,0,0,0-.5-.5h-2.5a.5.5,0,0,0,0,1h2.5A.5.5,0,0,0,22.625,17.466Zm-1.5,3.692a.5.5,0,0,0,0-.707l-1.768-1.767a.5.5,0,0,0-.707.707l1.768,1.767a.5.5,0,0,0,.707,0Zm-3.173,1.05v-2.5a.5.5,0,0,0-1,0v2.5a.5.5,0,0,0,1,0Zm-3.486-1,1.768-1.768a.5.5,0,0,0-.707-.707L13.758,20.5a.5.5,0,0,0,.354.854A.5.5,0,0,0,14.465,21.207Zm1.244-3.673a.5.5,0,0,0-.5-.5h-2.5a.5.5,0,0,0,0,1h2.5A.5.5,0,0,0,15.709,17.534Zm.475-1.218a.5.5,0,0,0,0-.707l-1.767-1.767a.5.5,0,0,0-.707.707l1.767,1.767a.5.5,0,0,0,.707,0ZM8.5,20.072V17.934A2,2,0,1,0,6.067,15.5H3.927A2,2,0,1,0,1.5,17.935v2.136A2,2,0,1,0,3.929,22.5H6.065A2,2,0,1,0,8.5,20.072ZM7.152,15.5A.988.988,0,0,1,8,15.006a1,1,0,0,1,1,1,.989.989,0,0,1-.495.843.891.891,0,0,1-1,.007.988.988,0,0,1-.356-.356.894.894,0,0,1,.008-1ZM1,16.006a1,1,0,0,1,1-1,.985.985,0,0,1,.842.494.889.889,0,0,1,.008,1,.984.984,0,0,1-.35.352.969.969,0,0,1-.5.154.969.969,0,0,1-.5-.154A.987.987,0,0,1,1,16.006ZM2.846,22.5A.987.987,0,0,1,2,23a1,1,0,0,1-1-1,.987.987,0,0,1,.5-.846A.969.969,0,0,1,2,21a.969.969,0,0,1,.5.154.972.972,0,0,1,.346.346.889.889,0,0,1,0,1Zm3.219-1H3.929A1.992,1.992,0,0,0,2.5,20.071V17.935A2,2,0,0,0,3.931,16.5H6.063A2,2,0,0,0,7.5,17.937v2.132A2,2,0,0,0,6.065,21.5ZM8,23a.988.988,0,0,1-.847-.5.893.893,0,0,1,0-1,.992.992,0,0,1,.352-.35.891.891,0,0,1,1,.007A.989.989,0,0,1,8.995,22,1,1,0,0,1,8,23ZM8.932,4A2,2,0,1,0,7,1.5H3.929A2,2,0,1,0,1.5,3.929V6.086A2,2,0,1,0,3.934,8.5H5.005A2,2,0,1,0,8.053,6.355l.8-2.363C8.88,3.993,8.9,4,8.932,4ZM8.086,1.5A.987.987,0,0,1,8.932,1a1,1,0,0,1,1,1,.988.988,0,0,1-.724.944A.974.974,0,0,1,8.932,3a1,1,0,0,1-.7-.289A1,1,0,0,1,8.086,2.5.969.969,0,0,1,7.932,2,.969.969,0,0,1,8.086,1.5ZM1,2A1,1,0,0,1,2,1a.987.987,0,0,1,.846.5A.969.969,0,0,1,3,2a.969.969,0,0,1-.154.5.972.972,0,0,1-.346.346A.969.969,0,0,1,2,3a.969.969,0,0,1-.5-.154A.987.987,0,0,1,1,2ZM2.857,8.5A.99.99,0,0,1,2,9.015a1,1,0,0,1-1-1,.988.988,0,0,1,.5-.846A.969.969,0,0,1,2,7.015a.969.969,0,0,1,.5.154.985.985,0,0,1,.336.331.892.892,0,0,1,.021,1Zm4.082.515A.987.987,0,0,1,6.083,8.5a.982.982,0,0,1,.679-1.449.958.958,0,0,1,.177-.036,1.039,1.039,0,0,1,1,1A1,1,0,0,1,6.939,9.015Zm.168-2.983c-.056,0-.11-.017-.168-.017A2,2,0,0,0,5.015,7.5H3.924A1.991,1.991,0,0,0,2.5,6.086V3.929A1.992,1.992,0,0,0,3.929,2.5H7A1.992,1.992,0,0,0,7.9,3.7ZM22,4a2.012,2.012,0,1,0-1.069-.315l-.8,2.343c-.042,0-.081-.013-.124-.013a1.994,1.994,0,0,0-1.915,1.454H15.764a1.99,1.99,0,1,0,.029,1h2.27a2,2,0,1,0,3.021-2.134l.8-2.347C21.924,3.991,21.961,4,22,4ZM13.849,9.015a1,1,0,1,1,0-2,.984.984,0,0,1,.815.454.9.9,0,0,1,.063,1A.992.992,0,0,1,13.849,9.015Zm7.158-1a.992.992,0,0,1-1.878.454.985.985,0,0,1-.122-.454,1.03,1.03,0,0,1,.771-.953.932.932,0,0,1,.229-.047,1.019,1.019,0,0,1,1,1Zm.268-5.336A.988.988,0,0,1,21,2a1,1,0,0,1,2,0,.988.988,0,0,1-.761.952A.948.948,0,0,1,22,3,.989.989,0,0,1,21.275,2.679Z" class="aw-theme-iconOutline" fill="#464646"/>
</svg>
