<svg xmlns="http://www.w3.org/2000/svg" viewBox="0 0 24 24">
  <g id="Verb_Zone">
    <path d="M16.748,5.749a2.229,2.229,0,0,0-.662.111l-.866-1.5a2.247,2.247,0,1,0-3.753-2.112H9.837a2.248,2.248,0,0,0-4.44.5A2.205,2.205,0,0,0,5.79,4a2.338,2.338,0,0,0,.333.4L5.774,5l-.5.861A2.239,2.239,0,0,0,3.605,10a2.111,2.111,0,0,0,1.672.139l.5.861.359.624a2.249,2.249,0,0,0-.651,1.126,1.213,1.213,0,0,0-.018.149l-2.193-1.5L6,11.386,5.774,11l-.353-.611L1,10.4v9.8l3.958,2.8.006-.009V23h7.449a7.008,7.008,0,0,1-1.3-1H5.962V14h4.72a7.082,7.082,0,0,1,.578-1H9.9a2.246,2.246,0,0,0-2.225-2l-.094,0a2.846,2.846,0,0,0-.585.113L6.929,11l-.578-1L6.144,9.64a2.229,2.229,0,0,0,0-3.281L6.929,5h.718a2.273,2.273,0,0,0,2.19-1.75h1.63a2.213,2.213,0,0,0,2.895,1.626l.675,1.17.182.314A2.237,2.237,0,0,0,14.5,8a2.192,2.192,0,0,0,.121.686,2.266,2.266,0,0,0,.6.955,2.228,2.228,0,0,0,.867.5,2.068,2.068,0,0,0,1.088.068,2.25,2.25,0,0,0,1.661-1.378A2.223,2.223,0,0,0,19,8,2.253,2.253,0,0,0,16.748,5.749ZM5.61,8.716a1.218,1.218,0,0,1-.862.506,1.177,1.177,0,0,1-.134.027,1.25,1.25,0,1,1,0-2.5,1.177,1.177,0,0,1,.134.027,1.2,1.2,0,0,1,.862,1.94ZM4.962,21.772,2,19.679V11.734l2.964,2.031ZM6.53,12.749A1.249,1.249,0,0,1,7.672,12a1.234,1.234,0,0,1,1.2,1H6.449A1.287,1.287,0,0,1,6.53,12.749Zm2.26-9.5A1.249,1.249,0,0,1,7.647,4c-.044,0-.082-.021-.126-.025a1.22,1.22,0,0,1-.866-.5A1.225,1.225,0,0,1,6.4,2.749a1.25,1.25,0,1,1,2.393.5Zm5.89.176a1.217,1.217,0,0,1-.845.538A1.182,1.182,0,0,1,13.656,4a1.248,1.248,0,0,1-1.142-.75,1.211,1.211,0,0,1,0-1,1.248,1.248,0,0,1,2.392.5A1.214,1.214,0,0,1,14.68,3.425Zm3.283,4.748A1.242,1.242,0,0,1,15.5,8a1.087,1.087,0,0,1,.069-.372,1.468,1.468,0,0,1,.185-.345,1.221,1.221,0,0,1,.507-.387,1.189,1.189,0,0,1,.355-.119,1.222,1.222,0,0,1,.134-.027A1.251,1.251,0,0,1,18,8,1.117,1.117,0,0,1,17.963,8.173ZM17,16h1v5H17Zm0-2h1v1H17Zm.419,10a6.5,6.5,0,1,1,6.5-6.5A6.508,6.508,0,0,1,17.419,24Zm0-12a5.5,5.5,0,1,0,5.5,5.5A5.506,5.506,0,0,0,17.419,12Z" class="aw-theme-iconOutline" fill="#464646"/>
  </g>
</svg>