<svg id="Image" xmlns="http://www.w3.org/2000/svg" viewBox="0 0 24 24">
  <path d="M24,19.867a.492.492,0,0,0-.053-.216l-1.5-6.011h0v0l0-.009c0-.009-.008-.015-.01-.023a.906.906,0,0,0-.938-.694c-.4.044-.888.38-.888,1.73a.5.5,0,1,0,1,0c0-.078,0-.14.007-.2l.778,3.111a3.086,3.086,0,0,0-5.048,1.481,1.906,1.906,0,0,0-.478-.06,1.407,1.407,0,0,0-.471.085,3.088,3.088,0,0,0-5.08-1.485L12.1,14.43c0,.065.007.13.007.211a.5.5,0,0,0,1,0c0-1.353-.484-1.689-.888-1.734a.913.913,0,0,0-.932.682.237.237,0,0,0-.017.036L9.738,19.746a.5.5,0,0,0,.486.621h.11a3.1,3.1,0,0,0,6.155-.244.729.729,0,0,1,.375-.154,1.536,1.536,0,0,1,.364.045,3.1,3.1,0,0,0,6.166.353h.086l0,0a.507.507,0,0,0,.121-.015.187.187,0,0,0,.032-.015.449.449,0,0,0,.136-.065l.017-.011A.492.492,0,0,0,24,19.867ZM13.4,21.982a2.116,2.116,0,1,1,2.116-2.115A2.117,2.117,0,0,1,13.4,21.982Zm6.93,0a2.116,2.116,0,1,1,2.115-2.115A2.118,2.118,0,0,1,20.329,21.982Zm-5.907-3.5a.5.5,0,0,1-.047.7l-1.748,1.529a.5.5,0,1,1-.658-.752l1.748-1.528A.5.5,0,0,1,14.422,18.484Zm6.894,0a.5.5,0,0,1-.046.7l-1.749,1.529a.494.494,0,0,1-.329.124.5.5,0,0,1-.329-.876l1.748-1.528A.5.5,0,0,1,21.316,18.484ZM17.169,12H16.015L10.378,2.25a.5.5,0,0,0-.866,0L2.068,15.143a.5.5,0,0,0,.433.75H9.656l-.323,1H2.5a1.5,1.5,0,0,1-1.3-2.25L8.646,1.75a1.5,1.5,0,0,1,2.6,0ZM11.445,6.613v3.881h-3V6.613a1.1,1.1,0,0,1,1.1-1.1h.794A1.1,1.1,0,0,1,11.445,6.613Zm-1.5,5.147a2.525,2.525,0,0,1,.957.31l-.993,2.686a1.5,1.5,0,0,1,.036-3Z" class="aw-theme-iconOutline" fill="#464646"/>
</svg>
