<svg id="Image" xmlns="http://www.w3.org/2000/svg" viewBox="0 0 24 24">
  <path d="M11.445,6.613v3.881h-3V6.613a1.1,1.1,0,0,1,1.1-1.1h.794A1.1,1.1,0,0,1,11.445,6.613Zm-1.5,5.147a1.5,1.5,0,1,0,1.5,1.5A1.5,1.5,0,0,0,9.945,11.76Zm13.1,11.216H7l3.533-6.083.58-1,1.11-1.911,1.108,1.911.567.976-.014.024L12.06,20.082h5.924l-1.826-3.189-.573-1-2.237-3.908,1.328-2.291.347-.6,3.825,6.618Zm-14.31-1H21.312L18.223,16.63l-.5-.867-2.7-4.671-.519.9,2.236,3.905.572,1,2.4,4.189H10.337l2.393-4.189.011-.02-.52-.9-.533.918Zm1.221-6.083-.577,1H2.5a1.5,1.5,0,0,1-1.3-2.25L8.646,1.75a1.5,1.5,0,0,1,2.6,0l3.439,5.956-.578,1L10.378,2.25a.5.5,0,0,0-.866,0L2.068,15.143a.5.5,0,0,0,.433.75ZM9.089,2h0Z" class="aw-theme-iconOutline" fill="#464646"/>
</svg>
