<svg id="Image" xmlns="http://www.w3.org/2000/svg" viewBox="0 0 24 24">
  <path d="M13.533,17.645A1.533,1.533,0,1,1,12,16.112,1.533,1.533,0,0,1,13.533,17.645Zm9.126,2.961a2.474,2.474,0,0,1-2.165,1.25H3.506a2.5,2.5,0,0,1-2.166-3.75l8.5-14.712A2.473,2.473,0,0,1,12,2.144h0a2.475,2.475,0,0,1,2.165,1.25l8.494,14.712A2.474,2.474,0,0,1,22.659,20.606Zm-.865-2L13.3,3.894a1.487,1.487,0,0,0-1.3-.75h0a1.484,1.484,0,0,0-1.3.75L2.207,18.606a1.5,1.5,0,0,0,1.3,2.25H20.494a1.5,1.5,0,0,0,1.3-2.25ZM12.43,6.944h-.86a1.1,1.1,0,0,0-1.1,1.1h0v7.075h3.066V8.047h0a1.1,1.1,0,0,0-1.1-1.1Z" class="aw-theme-iconOutline" fill="#464646"/>
</svg>
