<svg id="Layer_1" data-name="Layer 1" xmlns="http://www.w3.org/2000/svg" viewBox="0 0 24 24">
  <g id="g832">
    <path id="path825" d="M12,3a10.5,10.5,0,0,0,0,21c.334,0,.668-.018,1-.051V22.936A9.5,9.5,0,1,1,13,4.055v-1C12.668,3.022,12.334,3,12,3Zm8.988,13.508a9.493,9.493,0,0,1-1.342,2.59l.717.726a10.491,10.491,0,0,0,1.567-2.965ZM18.3,20.576A9.506,9.506,0,0,1,15,22.49v1.067a10.51,10.51,0,0,0,4.008-2.26Z" class="aw-theme-iconOutline" fill="#464646"/>
    <path id="path2" d="M11.216.328l-.682.6L12.436,3c-.219-.024-.42.071-.638.059l.013.9c.283.016.554-.1.837-.061L10.263,6.009l.615.669,3.4-3.012Z" class="aw-theme-iconOutline" fill="#464646"/>
    <path id="path832" d="M9.2,8.9a3.977,3.977,0,0,0,.847,5.273,3.956,3.956,0,0,0-2.535,4.851l1.168.26-.021-.038a2.99,2.99,0,0,1,2.32-4.271l.28-1.2a3,3,0,0,1-.994-4.634Zm6.255,1.394A2.974,2.974,0,0,1,13.132,14l-.307,1.327a2.993,2.993,0,0,1,.391,4.965l1.17.261a3.983,3.983,0,0,0-.517-5.718,3.943,3.943,0,0,0,2.642-4.309Z" class="aw-theme-iconOutline" fill="#464646"/>
    <path id="rect880" d="M8.414,9.014,8.635,8l8.924,1.94-.221,1.018Z" class="aw-theme-iconOutline" fill="#464646"/>
    <path id="rect880-2" d="M15.5,19.988l-.221,1.019-8.924-1.94.221-1.019Z" class="aw-theme-iconOutline" fill="#464646"/>
  </g>
</svg>
