<svg id="Image" xmlns="http://www.w3.org/2000/svg" viewBox="0 0 24 24">
  <path d="M17.831,7.514a5.13,5.13,0,0,0-2.782.826l-3.8-6.59a1.5,1.5,0,0,0-2.6,0L1.2,14.643a1.5,1.5,0,0,0,1.3,2.25H14.825v4.821a.5.5,0,0,0,.8.4l2.206-1.654,2.207,1.654a.5.5,0,0,0,.8-.4V16.886a5.165,5.165,0,0,0-3.007-9.372ZM2.5,15.893a.5.5,0,0,1-.433-.75L9.512,2.25a.5.5,0,0,1,.866,0l3.877,6.714a5.115,5.115,0,0,0-.465,6.929Zm17.337,4.821-1.707-1.279a.5.5,0,0,0-.6,0l-1.706,1.279V17.461a5.173,5.173,0,0,0,4.013,0Zm-2.007-3.848c-.046,0-.089-.012-.135-.013a4.153,4.153,0,0,1-2.921-6.988,4.208,4.208,0,0,1,.771-.663,4.173,4.173,0,1,1,2.285,7.664Zm3-5.589-2.358,3-.666.846-.067.085-2.234-2.735.52-.435.306-.257,1.415,1.685.149-.187,2.118-2.656ZM11.445,6.613v3.881h-3V6.613a1.1,1.1,0,0,1,1.1-1.1h.794A1.1,1.1,0,0,1,11.445,6.613Zm0,6.647a1.5,1.5,0,1,1-1.5-1.5A1.5,1.5,0,0,1,11.445,13.26Z" class="aw-theme-iconOutline" fill="#464646"/>
</svg>
