<svg id="Layer_1" data-name="Layer 1" xmlns="http://www.w3.org/2000/svg" viewBox="0 0 24 24">
  <g id="g852">
    <g id="text833">
      <path id="path850" d="M4.523,13.947H3.871l-.17-.978H2.8l-.17.978H1.99l.9-4.836h.726Zm-.974-1.864-.3-1.735-.3,1.735Z" class="aw-theme-iconOutline" fill="#464646"/>
      <path id="path852" d="M6.971,12.466a2.488,2.488,0,0,1-.073.627,1.434,1.434,0,0,1-.195.458.906.906,0,0,1-.319.3.93.93,0,0,1-.438.091H4.878V9.111h.949a1.721,1.721,0,0,1,.432.039.645.645,0,0,1,.273.172.851.851,0,0,1,.207.377,1.894,1.894,0,0,1,.069.536,1.87,1.87,0,0,1-.094.62.957.957,0,0,1-.264.416V11.3a.717.717,0,0,1,.379.39A1.82,1.82,0,0,1,6.971,12.466Zm-.809-1.988a.941.941,0,0,0-.031-.24.307.307,0,0,0-.107-.179A.3.3,0,0,0,5.852,10Q5.75,10,5.564,10H5.505v1.023h.1c.1,0,.184,0,.254-.01a.276.276,0,0,0,.166-.065.348.348,0,0,0,.112-.192A1.269,1.269,0,0,0,6.162,10.478Zm.155,1.968a1.082,1.082,0,0,0-.046-.354.339.339,0,0,0-.153-.188.434.434,0,0,0-.2-.045c-.086,0-.177,0-.271,0H5.505V13.06h.046q.267,0,.381,0a.336.336,0,0,0,.212-.084.406.406,0,0,0,.135-.215A1.18,1.18,0,0,0,6.317,12.446Z" class="aw-theme-iconOutline" fill="#464646"/>
      <path id="path854" d="M8.546,14.041a.871.871,0,0,1-.5-.159,1.28,1.28,0,0,1-.4-.474,2.853,2.853,0,0,1-.258-.786,5.85,5.85,0,0,1-.09-1.088,5.731,5.731,0,0,1,.087-1.043,3.064,3.064,0,0,1,.253-.8,1.353,1.353,0,0,1,.394-.5.846.846,0,0,1,.516-.175.984.984,0,0,1,.277.036,1.015,1.015,0,0,1,.23.087,1.122,1.122,0,0,1,.2.14c.06.05.113.1.158.14v1.172H9.339c-.03-.052-.069-.114-.116-.185a1.9,1.9,0,0,0-.158-.211,1,1,0,0,0-.2-.176.4.4,0,0,0-.225-.071.433.433,0,0,0-.253.084.739.739,0,0,0-.222.273,1.863,1.863,0,0,0-.158.491,3.992,3.992,0,0,0-.059.74,3.76,3.76,0,0,0,.064.76,1.782,1.782,0,0,0,.164.481.7.7,0,0,0,.224.256.465.465,0,0,0,.243.075.436.436,0,0,0,.227-.068.815.815,0,0,0,.208-.185,1.792,1.792,0,0,0,.15-.2c.046-.071.083-.133.113-.185h.066v1.156c-.062.055-.12.105-.176.153a1.1,1.1,0,0,1-.176.124,1.288,1.288,0,0,1-.225.1A.922.922,0,0,1,8.546,14.041Z" class="aw-theme-iconOutline" fill="#464646"/>
    </g>
    <g id="text833-3">
      <path id="path843" d="M16.258,13.974H14.316v-.852h.614V10.545h-.614V9.75a1.389,1.389,0,0,0,.27-.026.528.528,0,0,0,.215-.1.49.49,0,0,0,.152-.213,1.012,1.012,0,0,0,.059-.327h.646v4.037h.6Z" class="aw-theme-iconOutline" fill="#464646"/>
      <path id="path845" d="M19.285,13.974H17v-.806c.174-.211.349-.436.523-.674s.317-.443.422-.616a3.493,3.493,0,0,0,.336-.668,1.686,1.686,0,0,0,.1-.563.873.873,0,0,0-.129-.514.42.42,0,0,0-.367-.184.721.721,0,0,0-.379.125,1.673,1.673,0,0,0-.367.318h-.063V9.308a1.745,1.745,0,0,1,.408-.2,1.535,1.535,0,0,1,.543-.1.973.973,0,0,1,.834.387,1.778,1.778,0,0,1,.287,1.087,2.767,2.767,0,0,1-.138.877,3.8,3.8,0,0,1-.42.858q-.178.276-.358.508c-.119.152-.205.259-.255.321h1.306Z" class="aw-theme-iconOutline" fill="#464646"/>
      <path id="path847" d="M21.844,11.688a1.163,1.163,0,0,1,.152.321,1.693,1.693,0,0,1,.057.488,2.443,2.443,0,0,1-.082.642,1.416,1.416,0,0,1-.248.511,1.159,1.159,0,0,1-.387.317,1.212,1.212,0,0,1-.537.108,1.794,1.794,0,0,1-.621-.095,1.744,1.744,0,0,1-.42-.212V12.7h.076a1.637,1.637,0,0,0,.4.294.93.93,0,0,0,.428.125,1.114,1.114,0,0,0,.246-.03.421.421,0,0,0,.225-.137.635.635,0,0,0,.115-.2,1.016,1.016,0,0,0,.043-.337.718.718,0,0,0-.059-.327.351.351,0,0,0-.154-.167.5.5,0,0,0-.23-.056c-.09,0-.173-.007-.25-.007h-.16v-.871H20.6a1.955,1.955,0,0,0,.269-.016.441.441,0,0,0,.2-.075.373.373,0,0,0,.129-.164.827.827,0,0,0,.043-.3.522.522,0,0,0-.045-.236.4.4,0,0,0-.113-.144.409.409,0,0,0-.18-.079.985.985,0,0,0-.177-.02.883.883,0,0,0-.4.109,1.561,1.561,0,0,0-.416.3h-.072V9.3a2.02,2.02,0,0,1,.435-.206,1.6,1.6,0,0,1,.559-.1,1.315,1.315,0,0,1,.482.081.976.976,0,0,1,.342.213.994.994,0,0,1,.238.39,1.642,1.642,0,0,1,.079.537,1.7,1.7,0,0,1-.151.727.726.726,0,0,1-.4.406V11.4a.735.735,0,0,1,.211.091A.712.712,0,0,1,21.844,11.688Z" class="aw-theme-iconOutline" fill="#464646"/>
    </g>
    <path id="rect855" d="M0,7H4V8H0Z" class="aw-theme-iconOutline" fill="#464646"/>
    <path id="rect857" d="M0,8H1v7H0Z" class="aw-theme-iconOutline" fill="#464646"/>
    <path id="rect855-8" d="M0,15H4v1H0Z" class="aw-theme-iconOutline" fill="#464646"/>
    <path id="rect855-2" d="M11.2,7h-4V8h4Z" class="aw-theme-iconOutline" fill="#464646"/>
    <path id="rect857-8" d="M11.2,8h-1v7h1Z" class="aw-theme-iconOutline" fill="#464646"/>
    <path id="rect855-8-2" d="M11.2,15h-4v1h4Z" class="aw-theme-iconOutline" fill="#464646"/>
    <path id="rect855-6" d="M12.4,7h4V8h-4Z" class="aw-theme-iconOutline" fill="#464646"/>
    <path id="rect857-81" d="M12.4,8h1v7h-1Z" class="aw-theme-iconOutline" fill="#464646"/>
    <path id="rect855-8-7" d="M12.4,15h4v1h-4Z" class="aw-theme-iconOutline" fill="#464646"/>
    <path id="rect855-2-7" d="M24,7H20V8h4Z" class="aw-theme-iconOutline" fill="#464646"/>
    <path id="rect857-8-0" d="M24,8H23v7h1Z" class="aw-theme-iconOutline" fill="#464646"/>
    <path id="rect855-8-2-9" d="M24,15H20v1h4Z" class="aw-theme-iconOutline" fill="#464646"/>
  </g>
</svg>
