<svg id="Image" xmlns="http://www.w3.org/2000/svg" viewBox="0 0 24 24">
  <path d="M21.523,13.25H19.6v-.816a1.024,1.024,0,0,0-1.024-1.023H15.438a1.024,1.024,0,0,0-1.022,1.023v.816H12.492a1.478,1.478,0,0,0-1.476,1.477v5.858a1.478,1.478,0,0,0,1.476,1.477h.122v.622h.733v-.622h7.322v.622H21.4v-.622h.122A1.479,1.479,0,0,0,23,20.585V14.727A1.478,1.478,0,0,0,21.523,13.25Zm-6.085-.839,3.163.023v.816H17.5v-.622H16.52v.622H15.427ZM22,20.585a.478.478,0,0,1-.477.477H21.4v-.378h-.732v.378H13.347v-.378h-.733v.378h-.122a.477.477,0,0,1-.476-.477V14.727a.477.477,0,0,1,.476-.477H16.52v.378H17.5V14.25h4.027a.478.478,0,0,1,.477.477ZM11.445,6.613v3.881h-3V6.613a1.1,1.1,0,0,1,1.1-1.1h.794A1.1,1.1,0,0,1,11.445,6.613Zm-1.406,9.28v1H2.5a1.5,1.5,0,0,1-1.3-2.25L8.646,1.75a1.5,1.5,0,0,1,2.6,0l5.116,8.861H15.206L10.378,2.25a.5.5,0,0,0-.866,0L2.068,15.143a.5.5,0,0,0,.433.75ZM9.089,2h0Zm1.849,10.144a1.5,1.5,0,1,0-.993,2.616c.042,0,.082-.009.124-.013V13.5A1.5,1.5,0,0,1,10.938,12.144Z" class="aw-theme-iconOutline" fill="#464646"/>
</svg>
