<svg id="Image" xmlns="http://www.w3.org/2000/svg" viewBox="0 0 24 24">
  <g id="g860">
    <path id="path852" d="M6.84,12.424a1.069,1.069,0,1,0,1.07,1.068A1.07,1.07,0,0,0,6.84,12.424Zm-.014.721a.347.347,0,0,1,.361.334v.013a.352.352,0,0,1-.7.008A.348.348,0,0,1,6.826,13.145Z" class="aw-theme-iconOutline" fill="#464646"/>
    <path id="path848" d="M12.057,13.922a1.069,1.069,0,1,0,1.07,1.068,1.069,1.069,0,0,0-1.07-1.068Zm-.014.721a.347.347,0,0,1,.361.334v.013a.344.344,0,1,1-.361-.347Z" class="aw-theme-iconOutline" fill="#464646"/>
    <path id="path844" d="M17.143,12.424a1.069,1.069,0,1,0,1.07,1.068A1.069,1.069,0,0,0,17.143,12.424Zm-.014.721a.347.347,0,0,1,.361.334v.013a.351.351,0,1,1-.361-.347Z" class="aw-theme-iconOutline" fill="#464646"/>
    <path id="path840" d="M10.016,2v.529a4.671,4.671,0,0,0-3.291,4.6V8.711a.757.757,0,0,1-.719.789H5.293a.377.377,0,0,0-.36.393V11.32l-.354.354a.362.362,0,0,0-.07.408l.26.551-.576.2a.358.358,0,0,0-.239.34v.633a.359.359,0,0,0,.239.339l.576.2-.26.548a.365.365,0,0,0,.07.411l.446.445a.363.363,0,0,0,.41.07l.547-.26.209.584a.365.365,0,0,0,.339.241h.633a.363.363,0,0,0,.328-.241l.205-.58.549.258a.36.36,0,0,0,.408-.07l.446-.447a.323.323,0,0,0,.062-.119V15.3a.36.36,0,0,0,.24.34l.577.2-.262.547a.362.362,0,0,0,.072.41l.446.445a.358.358,0,0,0,.41.072l.547-.259.205.582a.359.359,0,0,0,.339.24h.633a.363.363,0,0,0,.34-.24l.205-.582.547.259a.36.36,0,0,0,.41-.07l.446-.447a.362.362,0,0,0,.072-.408l-.262-.549.578-.2a.355.355,0,0,0,.221-.284l.4.4a.363.363,0,0,0,.41.068l.547-.26.2.584a.365.365,0,0,0,.341.241h.631a.363.363,0,0,0,.34-.241L18,15.57l.545.26a.363.363,0,0,0,.41-.07l.447-.447a.363.363,0,0,0,.071-.411l-.26-.548.578-.208a.356.356,0,0,0,.238-.337v-.633a.361.361,0,0,0-.236-.346l0,0-.574-.2.26-.547a.362.362,0,0,0-.071-.41l-.111-.111V9.9a.379.379,0,0,0-.355-.4h-.723a.757.757,0,0,1-.719-.791V7.133a4.65,4.65,0,0,0-3.471-4.651V2Zm1.023,1.17h2.213V9.957h.779V3.287a3.9,3.9,0,0,1,2.692,3.846v1.58a1.538,1.538,0,0,0,1.5,1.57h.3v1.205H5.709V10.281h.3a1.538,1.538,0,0,0,1.5-1.57V7.133A3.939,3.939,0,0,1,10.02,3.34V9.957H10.8V3.184C10.88,3.178,10.958,3.17,11.039,3.17Zm1.619,9.092H14.9l.168.363-.575.2a.353.353,0,0,0-.222.285l-.4-.4a.36.36,0,0,0-.41-.07l-.549.261-.2-.568C12.7,12.3,12.675,12.287,12.658,12.262Zm-7.265.008H8.285l-.146.306a.46.46,0,0,0,.265.631l.6.217v.123l-.6.211a.459.459,0,0,0-.283.585h0a.473.473,0,0,0,.02.047l.275.58-.088.086-.578-.276a.461.461,0,0,0-.373-.008.473.473,0,0,0-.262.278l-.214.607H6.779l-.214-.611a.465.465,0,0,0-.26-.279.454.454,0,0,0-.373.009l-.58.276-.086-.086.275-.58a.464.464,0,0,0-.224-.617l-.041-.016-.6-.211v-.121l.6-.215a.464.464,0,0,0,.275-.258.458.458,0,0,0-.01-.375Zm3.691,0h2.373c-.017.025-.045.042-.055.072l-.2.568-.551-.262a.363.363,0,0,0-.408.073l-.447.445a.356.356,0,0,0-.062.119v-.117a.363.363,0,0,0-.243-.34l0,0-.576-.2Zm6.613,0h2.895l-.145.306a.46.46,0,0,0,.218.613h0a.443.443,0,0,0,.045.02l.606.215,0,.123-.6.215a.459.459,0,0,0-.288.582v0a.414.414,0,0,0,.019.049l.276.58-.088.086-.578-.276a.461.461,0,0,0-.373-.008.472.472,0,0,0-.26.278l-.215.607h-.125l-.213-.607a.468.468,0,0,0-.259-.28.463.463,0,0,0-.377.01l-.579.276-.085-.088.273-.576a.455.455,0,0,0,.01-.377.461.461,0,0,0-.272-.258l-.605-.215v-.121l.605-.217a.461.461,0,0,0,.281-.586c-.006-.016-.01-.032-.017-.047ZM12,12.826h.123l.215.6a.458.458,0,0,0,.256.267.467.467,0,0,0,.377-.007l.578-.276.086.086-.276.58a.465.465,0,0,0,.224.617h0l.041.016.606.215-.006.113-.6.215a.46.46,0,0,0-.286.584v0c.006.016.012.033.019.049l.274.578-.086.088-.576-.274a.458.458,0,0,0-.373-.011.472.472,0,0,0-.268.277l-.213.609h-.127l-.213-.609a.458.458,0,0,0-.261-.277.452.452,0,0,0-.369.009l-.58.276-.086-.088.273-.576a.462.462,0,0,0-.215-.616l-.047-.019-.6-.209v-.121l.6-.215a.461.461,0,0,0,.266-.635l-.276-.578.086-.086.58.275a.46.46,0,0,0,.614-.216.4.4,0,0,0,.019-.043ZM9.731,13.6l.252.529-.577.2a.364.364,0,0,0-.238.342l0-.008v.207l-.252-.523.578-.2a.356.356,0,0,0,.239-.337Zm4.535.242a.359.359,0,0,0,.228.3l.575.2-.135.281a.357.357,0,0,0-.227-.3l-.576-.2Z" class="aw-theme-iconOutline" fill="#464646"/>
    <path id="rect827-9-3-2-6-1-4" d="M16.951,23.091h-10v.985h10Z" class="aw-theme-iconOutline" fill="#464646"/>
    <path id="rect827-9-3-2-3-4" d="M9.9,19.608,6.942,23.094l1.1.457L11,20.064Z" class="aw-theme-iconOutline" fill="#464646"/>
    <path id="rect827-9-3-2-3-4-9" d="M13.965,19.579l2.962,3.486-1.094.456L12.87,20.036Z" class="aw-theme-iconOutline" fill="#464646"/>
    <path id="rect827-0" d="M0,0H24V1H0Z" class="aw-theme-iconOutline" fill="#464646"/>
    <path id="rect827-9-32" d="M0,19v2H24V19Zm16.987.531h1v1.033h-1Zm2,0h1v1.033h-1Zm2,0h1v1.033H21Z" class="aw-theme-iconOutline" fill="#464646"/>
    <path id="rect827-9-3-0" d="M0,0V19H1V0Z" class="aw-theme-iconOutline" fill="#464646"/>
    <path id="rect827-9-3-7-5" d="M23,1V19h1V1Z" class="aw-theme-iconOutline" fill="#464646"/>
  </g>
</svg>
