<svg version="1.1" id="Livello_3" xmlns="http://www.w3.org/2000/svg" xmlns:xlink="http://www.w3.org/1999/xlink" x="0px" y="0px"
	  viewBox="0 0 24 24" enable-background="new 0 0 24 24" xml:space="preserve">
<path id="path903"  class="aw-theme-iconOutline" fill="#464646" d="
	M23.01,10.002l-3-0.024l0.013-3.818c0-0.087-0.135-0.565-0.173-0.653c-0.038-0.109-0.232-0.391-0.29-0.456l-3.732-4.626
	c-0.058-0.065-0.287-0.239-0.383-0.283C15.368,0.099,14.949,0,14.854,0L5.07,0.016c-0.191,0-0.652,0.076-0.786,0.229
	C4.151,0.398,4.016,0.703,4.016,0.921L4.01,9.986L1.302,9.99c-0.383,0-0.708,0.044-0.975,0.35c-0.268,0.306-0.316,0.472-0.317,0.908
	L0,16.763c-0.001,0.437,0.018,0.622,0.286,0.928s0.646,0.331,1.028,0.331l4.21-0.004L5.01,19.532l1,1.932L5.49,24.03l0.997-0.013
	l0.523-2.563l-1-1.924l0.504-1.513l1.496,0.013l-0.52,1.497l1.007,1.926l-0.495,2.563h1.001l0.506-2.566l-1.005-1.924l0.505-1.51
	h1.474l-0.48,1.52l1.007,1.928l-0.496,2.553h0.994l0.501-2.556l-0.984-1.919l0.47-1.525l1.515,0.001l-0.473,1.521l0.958,1.928
	L13,24.018l1.01,0.009l0.498-2.562l-0.961-1.939l0.463-1.499l1.48-0.005l-0.456,1.504l0.976,1.941l-0.502,2.561l1.013-0.012
	l0.489-2.56l-0.962-1.904l0.47-1.532l1.486-0.001l-0.447,1.514l0.936,1.929l-0.482,2.564l1.009-0.009l0.465-2.546l-0.915-1.945
	l0.455-1.508l3.729,0.017c0.382,0.001,0.673,0.004,0.94-0.302c0.268-0.305,0.327-0.584,0.327-1.02l-0.011-5.498
	c0.02-0.437,0.05-0.577-0.218-0.883C23.524,10.026,23.393,10.001,23.01,10.002L23.01,10.002z M15.01,1.001l4.018,5.015H15.01V1.001z
	 M5.01,1.018h9l0.009,4.996c0,0.219,0.113,0.525,0.247,0.678s0.526,0.332,0.718,0.328l4.026-0.002V9.95l-14,0.033V1.018z
	 M23.01,16.998L1.062,17.019L1.01,11.034l22,0v5.946V16.998z"/>
<path id="rect833" class="aw-theme-iconOutline" fill="#464646" d="M17.01,12.004l-0.005,3.021
	h3.017l-0.004-3.009L17.01,12.004z M18.01,13.017h1.008l-0.008,1h-0.987L18.01,13.017z"/>
<rect id="rect838" x="7.002" y="3.017" class="aw-theme-iconOutline"  fill="#464646" width="5.008" height="1"/>
<rect id="rect840" x="7.01" y="6.017" class="aw-theme-iconOutline" fill="#464646" width="4.011" height="1"/>
</svg>
