<svg id="Image" xmlns="http://www.w3.org/2000/svg" viewBox="0 0 24 24">
  <g id="g825">
    <path id="path852" d="M5.589,15.211A1.33,1.33,0,1,0,6.92,16.54,1.329,1.329,0,0,0,5.589,15.211Zm-.017.9a.432.432,0,0,1,.449.416v.016a.437.437,0,1,1-.449-.432Z" class="aw-theme-iconOutline" fill="#464646"/>
    <path id="path848" d="M12.079,17.075A1.33,1.33,0,1,0,13.41,18.4a1.329,1.329,0,0,0-1.331-1.329Zm-.017.9a.433.433,0,0,1,.449.416V18.4a.428.428,0,1,1-.449-.433Z" class="aw-theme-iconOutline" fill="#464646"/>
    <path id="path844" d="M18.406,15.211a1.33,1.33,0,1,0,1.332,1.329A1.33,1.33,0,0,0,18.406,15.211Zm-.017.9a.432.432,0,0,1,.449.416v.016a.438.438,0,1,1-.45-.432Z" class="aw-theme-iconOutline" fill="#464646"/>
    <path id="path840" d="M9.54,2.243V2.9A5.809,5.809,0,0,0,5.446,8.624v1.968a.941.941,0,0,1-.895.982H3.664a.468.468,0,0,0-.447.489v1.775l-.439.44a.45.45,0,0,0-.088.508l.323.685-.717.253a.446.446,0,0,0-.3.423v.787a.448.448,0,0,0,.3.423l.717.247-.323.683a.45.45,0,0,0,.088.51l.554.554a.45.45,0,0,0,.51.088l.68-.323.26.726a.453.453,0,0,0,.423.3h.787a.449.449,0,0,0,.408-.3l.256-.721.682.32a.448.448,0,0,0,.508-.087L8.4,18.8a.39.39,0,0,0,.078-.148v.144a.447.447,0,0,0,.3.422l.717.251-.326.68a.452.452,0,0,0,.09.51l.554.554a.445.445,0,0,0,.51.09L11,20.977l.255.724a.447.447,0,0,0,.422.3h.788a.453.453,0,0,0,.423-.3l.255-.724.68.323a.448.448,0,0,0,.51-.087l.554-.557a.449.449,0,0,0,.09-.508l-.325-.682.719-.251a.441.441,0,0,0,.274-.352l.5.5a.451.451,0,0,0,.511.085l.68-.323.248.727a.452.452,0,0,0,.425.3H18.8a.449.449,0,0,0,.423-.3l.257-.724.678.323a.452.452,0,0,0,.511-.088l.556-.556a.449.449,0,0,0,.087-.51l-.323-.683.72-.258a.446.446,0,0,0,.3-.42v-.787a.452.452,0,0,0-.294-.431l0,0-.714-.25.323-.681a.449.449,0,0,0-.087-.51l-.139-.138V12.069a.472.472,0,0,0-.442-.5h-.9a.942.942,0,0,1-.894-.984V8.629a5.785,5.785,0,0,0-4.318-5.786v-.6ZM10.813,3.7h2.753v8.443h.97v-8.3a4.853,4.853,0,0,1,3.348,4.785v1.965a1.914,1.914,0,0,0,1.866,1.954h.374v1.5H4.182v-1.5h.372A1.914,1.914,0,0,0,6.42,10.592V8.629A4.9,4.9,0,0,1,9.545,3.91v8.232h.972V3.716C10.615,3.708,10.712,3.7,10.813,3.7Zm2.014,11.31h2.79l.209.452-.715.248a.441.441,0,0,0-.277.355l-.5-.5a.447.447,0,0,0-.51-.088l-.683.326L12.9,15.1C12.882,15.06,12.848,15.04,12.827,15.009Zm-9.039.01h3.6l-.182.382a.581.581,0,0,0-.01.466.574.574,0,0,0,.34.318l.746.27v.153l-.746.263a.572.572,0,0,0-.352.728h0a.589.589,0,0,0,.024.058l.343.722-.11.106-.719-.342a.573.573,0,0,0-.464-.01.587.587,0,0,0-.326.345l-.267.756h-.15l-.268-.761a.577.577,0,0,0-.323-.347.561.561,0,0,0-.464.012l-.722.343-.107-.107.343-.722a.58.58,0,0,0-.279-.768l-.051-.019L2.9,16.6v-.15l.746-.268a.571.571,0,0,0,.33-.787Zm4.593,0h2.952c-.021.031-.056.053-.068.09l-.248.707-.685-.326a.453.453,0,0,0-.508.09l-.556.554a.443.443,0,0,0-.078.149v-.146a.451.451,0,0,0-.3-.423l0-.005-.717-.248Zm8.227,0h3.6l-.18.382a.572.572,0,0,0,.272.762h0c.019.009.037.017.056.024l.754.267,0,.153-.746.267A.571.571,0,0,0,20,17.6v0a.351.351,0,0,0,.024.061l.342.721-.109.107-.719-.342a.573.573,0,0,0-.464-.01.587.587,0,0,0-.323.345l-.268.756h-.155l-.265-.756a.58.58,0,0,0-.323-.347.572.572,0,0,0-.469.012l-.719.342-.107-.109.34-.717A.565.565,0,0,0,16.8,17.2a.571.571,0,0,0-.338-.32l-.753-.268v-.15l.753-.27a.573.573,0,0,0,.35-.729.5.5,0,0,0-.022-.058Zm-4.6.693h.153l.267.748a.578.578,0,0,0,.788.323l.719-.342.107.106-.343.722a.578.578,0,0,0,.279.768h0l.051.019.753.268-.008.141-.745.267a.572.572,0,0,0-.356.727v0c.007.02.015.041.024.061l.34.719-.107.109-.716-.34A.571.571,0,0,0,12.754,20a.585.585,0,0,0-.332.345l-.265.759H12l-.265-.759A.578.578,0,0,0,11.408,20a.565.565,0,0,0-.459.013l-.722.342-.106-.109.34-.717a.574.574,0,0,0-.268-.765.6.6,0,0,0-.058-.025l-.748-.26v-.15l.753-.268a.581.581,0,0,0,.343-.323.569.569,0,0,0-.013-.466l-.342-.72.107-.106.721.342a.572.572,0,0,0,.763-.27.365.365,0,0,0,.025-.053Zm-2.826.962.313.658-.716.251a.451.451,0,0,0-.3.425l0-.01v.258L8.169,17.6l.72-.25a.443.443,0,0,0,.3-.42Zm5.642.3a.446.446,0,0,0,.284.372l.715.25-.168.35a.442.442,0,0,0-.282-.374l-.717-.248Z" class="aw-theme-iconOutline" fill="#464646"/>
  </g>
</svg>
