<svg version="1.1" id="Artwork" xmlns="http://www.w3.org/2000/svg" xmlns:xlink="http://www.w3.org/1999/xlink" x="0px" y="0px"
	 width="24px" height="24px" viewBox="0 0 24 24" enable-background="new 0 0 24 24" xml:space="preserve">
<polygon class="aw-theme-iconOutline" fill="#464646" points="18,24 0,24 0,6 6,6 6,7 1,7 1,23 17,23 17,15 18,15 "/>
<path class="aw-theme-iconOutline" fill="#464646" d="M17.4,0.6l-0.7,0.7L21.3,6h-7.1c-3.9,0-7,3.1-7,7c0,2.8,1.7,5.4,4.3,6.5l0.4-0.9c-2.2-0.9-3.7-3.1-3.7-5.5
	c0-3.3,2.7-6,6-6h7.1l-4.6,4.6l0.7,0.7l5.9-5.9L17.4,0.6z"/>
</svg>
