<svg id="svg8" xmlns="http://www.w3.org/2000/svg" viewBox="0 0 24 24">
  <g id="g916">
    <path id="path828" d="M4.326,23.981A6.1,6.1,0,0,1,.754,22.5,2.436,2.436,0,0,1,.033,21.2L0,20.967V12.928a1.28,1.28,0,0,1,.019-.211,3.163,3.163,0,0,1,1.826-2.062,7.509,7.509,0,0,1,2.385-.666A14.579,14.579,0,0,1,6.323,10a7.511,7.511,0,0,1,2.084.534,6.444,6.444,0,0,1,.852.474,2.721,2.721,0,0,1,1.214,1.669c.009.073.022.188.024.254v7.963l-.023.186A3.453,3.453,0,0,1,8.623,23.26a7.192,7.192,0,0,1-2.278.688,12.852,12.852,0,0,1-2.02.018Zm1.323-.58A5.955,5.955,0,0,0,8.922,22.37a2.753,2.753,0,0,0,.93-1.294,1.572,1.572,0,0,0,.027-.207l.007-3,.006-3-.127.121a6.061,6.061,0,0,1-3.233,1.392A9.441,9.441,0,0,1,3.49,16.3a5.957,5.957,0,0,1-2.7-1.254l-.194-.171L.6,17.885.605,20.9a.878.878,0,0,0,.049.3,2.577,2.577,0,0,0,.7,1.038A5.689,5.689,0,0,0,4.77,23.406a6.8,6.8,0,0,0,.88,0Zm.673-7.621a5.184,5.184,0,0,0,3.032-1.314,1.744,1.744,0,0,0,.479-.781,3.925,3.925,0,0,0-.011-1.109c-.326-1.16-2.1-2.008-4.2-2.093a6.053,6.053,0,0,0-4.486,1.348,1.926,1.926,0,0,0-.389,2.2,3.092,3.092,0,0,0,.78.788,5.823,5.823,0,0,0,1.519.718,7.937,7.937,0,0,0,1.542.287,17.141,17.141,0,0,0,1.738-.044Z" class="aw-theme-iconOutline" fill="#464646"/>
    <path id="rect859-6" d="M11.286,12.408H21.591a.3.3,0,0,1,0,.59H11.286a.3.3,0,0,1,0-.59Z" class="aw-theme-iconOutline" fill="#464646"/>
    <path id="rect861-9" d="M11.286.033a.291.291,0,0,1,.287.294h0V12.7a.287.287,0,1,1-.573,0V.327a.29.29,0,0,1,.286-.294Z" class="aw-theme-iconOutline" fill="#464646"/>
    <path id="rect863-8" d="M11.237.033H21.591a.27.27,0,0,1,.237.294.27.27,0,0,1-.237.3H11.237A.27.27,0,0,1,11,.327.27.27,0,0,1,11.237.033Z" class="aw-theme-iconOutline" fill="#464646"/>
    <path id="rect865-0" d="M21.591,5.258a.3.3,0,0,1,.287.309h0v7.12a.287.287,0,1,1-.573,0h0V5.568a.3.3,0,0,1,.286-.31Z" class="aw-theme-iconOutline" fill="#464646"/>
    <path id="rect869-44" d="M12.468,6.72h8.054a.3.3,0,0,1,0,.59H12.468a.3.3,0,0,1,0-.59Z" class="aw-theme-iconOutline" fill="#464646"/>
    <path id="rect869-4-3" d="M12.431,8.455h8.052a.295.295,0,0,1,0,.589H12.431a.295.295,0,0,1,0-.589Z" class="aw-theme-iconOutline" fill="#464646"/>
    <path id="rect869-2-4" d="M12.468,10.214h8.054a.3.3,0,0,1,0,.59H12.468a.3.3,0,0,1,0-.59Z" class="aw-theme-iconOutline" fill="#464646"/>
    <path id="rect869-5-6" d="M13.311,1.78H20.76a.295.295,0,0,1,0,.589H13.311a.295.295,0,0,1,0-.589Z" class="aw-theme-iconOutline" fill="#464646"/>
    <path id="rect869-0-5" d="M18.8,3.442H21.33a.295.295,0,0,1,0,.589H18.8a.295.295,0,0,1,0-.589Z" class="aw-theme-iconOutline" fill="#464646"/>
    <path id="path922-5" d="M18.781,5.052l-.336.04c-.493-.478-.993-.934-1.523-1.406l-.694.1c-1.467.221-2.157.3-2.384.372-.057.016.021.011-.125-.1-.185-.148-.351-.349-.321-.349.012,0,.489-.073,1.06-.161.9-.136,1.751-.264,2.589-.354.216.123,1.936,1.7,2.105,1.889.032.035.061,0,.014,0-.081,0-.169-.028-.385-.033Z" class="aw-theme-iconOutline" fill="#464646"/>
    <path id="path996" d="M15.783,5.492a4.1,4.1,0,0,1-1.52-.553,3.158,3.158,0,0,1-.545-.343c-.137-.1-.339-.268-.45-.368a2.71,2.71,0,0,1-.39-.418A6.067,6.067,0,0,1,12.3,2.9c-.394-.673-.569-.991-.946-1.721C11.14.767,11.111.708,11.124.7s.535-.13.54-.125.1.2.223.43c.381.74.535,1.02.91,1.656a5.944,5.944,0,0,0,.523.821,3.583,3.583,0,0,0,.73.678,3.028,3.028,0,0,0,.491.31,4.578,4.578,0,0,0,.985.4A8.014,8.014,0,0,0,16.7,5c.057-.009,1.221,0,1.878,0,.239,0,3.618.008,4.018.014.663.011.4-.037.451-.051.019-.006-.026-.071-.286-.405-.286-.368-.644-.873-.864-1.226a3.809,3.809,0,0,1-.407-.9,3.462,3.462,0,0,1-.188-.93c-.022-.26-.051-1.2-.037-1.209h.559l.009.589a7.509,7.509,0,0,0,.053.861,6.081,6.081,0,0,0,.236.85,2.9,2.9,0,0,0,.208.413c.214.34.579.855.876,1.237l.323.418c.057.072.16.2.234.288a1.511,1.511,0,0,1,.155.218.391.391,0,0,1,.058.1.333.333,0,0,1-.027.194c-.036.074-.153.1-.154.1s-.891-.014-2.439,0c-.546.006-1.188.006-1.578,0s-.5,0-.764,0c-.79,0-.678,0-.706,0-.043.009-1.991-.01-2.232-.05Z" class="aw-theme-iconOutline" fill="#464646"/>
    <path id="path827" d="M9.18,2.345l-1.7-1.7a.425.425,0,0,0-.6.6l.97.97H4.209V9h.849V3.066h2.8l-.976.974a.425.425,0,1,0,.59.611l.01-.011,1.7-1.7a.425.425,0,0,0,0-.6Z" class="aw-theme-iconOutline" fill="#464646"/>
  </g>
</svg>
