<svg id="Image" xmlns="http://www.w3.org/2000/svg" viewBox="0 0 24 24">
  <g id="g820">
    <path id="path2" d="M7.848,13.877a1.069,1.069,0,1,0,1.069,1.069A1.07,1.07,0,0,0,7.848,13.877Zm0,1.417a.348.348,0,1,1,.348-.348h0A.35.35,0,0,1,7.848,15.294Zm5.217.081a1.069,1.069,0,1,0,1.069,1.069h0A1.069,1.069,0,0,0,13.065,15.375Zm0,1.416a.348.348,0,1,1,.348-.348h0a.348.348,0,0,1-.348.348Zm5.086-2.914a1.069,1.069,0,1,0,1.069,1.069A1.07,1.07,0,0,0,18.151,13.877Zm0,1.417a.348.348,0,1,1,.348-.348h0A.35.35,0,0,1,18.151,15.294Zm2.65-1.013-.575-.2.26-.548a.362.362,0,0,0-.07-.409l-.112-.112V11.351a.379.379,0,0,0-.355-.4h-.722a.757.757,0,0,1-.719-.79V8.585a4.649,4.649,0,0,0-3.471-4.65V3.454H11.024v.529a4.671,4.671,0,0,0-3.292,4.6v1.581a.756.756,0,0,1-.718.79H6.3a.377.377,0,0,0-.359.4v1.42l-.354.353a.362.362,0,0,0-.07.409l.261.549-.576.205a.358.358,0,0,0-.24.339v.632a.36.36,0,0,0,.24.34l.576.2-.261.549a.362.362,0,0,0,.07.409l.447.447a.363.363,0,0,0,.41.07l.547-.26L7.2,17.6a.365.365,0,0,0,.34.24h.632A.362.362,0,0,0,8.5,17.6l.205-.581.548.259a.36.36,0,0,0,.409-.071l.446-.447a.32.32,0,0,0,.062-.12v.116a.36.36,0,0,0,.24.34l.576.2-.261.548a.363.363,0,0,0,.071.41l.447.446a.36.36,0,0,0,.409.071l.547-.26.206.583a.36.36,0,0,0,.34.24h.631a.363.363,0,0,0,.341-.24l.205-.582.547.26a.36.36,0,0,0,.409-.071l.447-.447a.36.36,0,0,0,.071-.409l-.261-.549.577-.2a.355.355,0,0,0,.222-.284l.4.4a.363.363,0,0,0,.41.07l.547-.26.2.584a.364.364,0,0,0,.341.24h.631a.361.361,0,0,0,.34-.241l.206-.581.546.259a.362.362,0,0,0,.41-.071l.447-.447a.362.362,0,0,0,.07-.409l-.26-.549L20.8,15.6a.358.358,0,0,0,.239-.339v-.632a.362.362,0,0,0-.237-.345ZM6.716,12.734v-1h.3a1.538,1.538,0,0,0,1.5-1.57V8.585a3.939,3.939,0,0,1,2.512-3.792V11.41h.78V4.637c.079-.006.158-.013.239-.013h2.212V11.41h.78V4.741a3.9,3.9,0,0,1,2.692,3.844v1.581a1.538,1.538,0,0,0,1.5,1.57h.3v1.206H6.716Zm9.361,1.344-.576.2a.353.353,0,0,0-.222.285l-.4-.4a.36.36,0,0,0-.41-.071l-.549.262-.2-.569c-.011-.03-.037-.046-.054-.071h2.242Zm-5.579.2-.576-.2.169-.355h2.373c-.017.025-.044.041-.054.071l-.2.569-.549-.261a.362.362,0,0,0-.41.071l-.447.446a.361.361,0,0,0-.062.12v-.117a.362.362,0,0,0-.242-.341Zm-1.085.932a.46.46,0,0,0-.284.587.385.385,0,0,0,.019.047l.275.579-.087.087-.579-.275a.459.459,0,0,0-.372-.009.469.469,0,0,0-.261.277l-.215.609H7.787L7.572,16.5a.464.464,0,0,0-.259-.279.452.452,0,0,0-.374.01l-.579.275-.087-.087.276-.579a.465.465,0,0,0-.225-.617l-.04-.016-.6-.21v-.122l.6-.215a.464.464,0,0,0,.275-.258.458.458,0,0,0-.01-.375L6.4,13.722H9.293l-.146.307a.469.469,0,0,0-.008.376.463.463,0,0,0,.273.256l.6.215V15Zm.761.907v.208L9.922,15.8,10.5,15.6a.357.357,0,0,0,.239-.339v-.208l.252.53-.576.2a.364.364,0,0,0-.24.342Zm5.06.376-.6.215a.46.46,0,0,0-.285.585.5.5,0,0,0,.02.049l.274.578-.087.087-.575-.272a.458.458,0,0,0-.373-.012A.472.472,0,0,0,13.34,18l-.214.609H13L12.788,18a.464.464,0,0,0-.262-.278.455.455,0,0,0-.37.011l-.579.275-.087-.088.274-.576a.461.461,0,0,0-.215-.615.489.489,0,0,0-.048-.02l-.6-.209v-.122l.605-.214a.467.467,0,0,0,.275-.26.46.46,0,0,0-.01-.374l-.275-.578.087-.087.579.275a.46.46,0,0,0,.614-.216.338.338,0,0,0,.018-.044l.215-.6h.123l.215.6a.462.462,0,0,0,.256.269.467.467,0,0,0,.377-.009l.579-.275.086.087-.275.579a.464.464,0,0,0,.223.617l.042.017.605.214Zm.708-.417a.355.355,0,0,0-.227-.3l-.576-.2.134-.282a.357.357,0,0,0,.228.3l.575.2ZM20.32,15l-.6.214a.459.459,0,0,0-.286.584.307.307,0,0,0,.02.05l.275.579-.088.087-.578-.275a.46.46,0,0,0-.374-.008.473.473,0,0,0-.259.276l-.215.609H18.09l-.214-.609a.468.468,0,0,0-.259-.278.461.461,0,0,0-.376.009l-.578.275-.087-.087.273-.576a.455.455,0,0,0,.011-.377.462.462,0,0,0-.273-.259L15.982,15v-.122l.605-.215a.461.461,0,0,0,.283-.587c-.006-.016-.012-.031-.019-.046l-.145-.307H19.6l-.145.307a.46.46,0,0,0,.218.613.371.371,0,0,0,.046.019l.605.215ZM2,1V5.448H.5a.5.5,0,0,0,0,1H2V17.157H.5a.5.5,0,0,0,0,1H2V23H23V1ZM22,22H3V18.157H5.1a.5.5,0,0,0,0-1H3V6.448H5.1a.5.5,0,0,0,0-1H3V2H22Z" class="aw-theme-iconOutline" fill="#464646"/>
  </g>
</svg>
