<svg id="Image" xmlns="http://www.w3.org/2000/svg" viewBox="0 0 24 24">
  <g id="g885">
    <path id="path866" d="M17.283,11,17.2,11a6.5,6.5,0,0,0-4.963,10.33l.711-.713a5.5,5.5,0,0,1,7.627-7.661l.71-.715A6.5,6.5,0,0,0,17.283,11Z" class="aw-theme-iconOutline" fill="#464646"/>
    <path id="path839-8" d="M22.708,13.655l-.713.72a5.495,5.495,0,0,1-7.623,7.656l-.712.718a6.488,6.488,0,0,0,9.048-9.092Z" class="aw-theme-iconOutline" fill="#464646"/>
    <path id="path835-0" d="M17.939,15.276v-2.5a.5.5,0,0,0-1,0v2.5a.5.5,0,0,0,1,0Z" class="aw-theme-iconOutline" fill="#464646"/>
    <path id="path831-8" d="M22.682,17.449a.5.5,0,0,0-.5-.5h-2.5a.5.5,0,1,0,0,1h2.5A.5.5,0,0,0,22.682,17.449Z" class="aw-theme-iconOutline" fill="#464646"/>
    <path id="path829" d="M21.182,21.14a.5.5,0,0,0,0-.707h0l-1.769-1.767a.5.5,0,0,0-.7.707l1.767,1.764a.5.5,0,0,0,.707,0h0Z" class="aw-theme-iconOutline" fill="#464646"/>
    <path id="path827" d="M18.008,22.189v-2.5a.5.5,0,0,0-1,0v2.5a.5.5,0,1,0,1,.033Z" class="aw-theme-iconOutline" fill="#464646"/>
    <path id="path823" d="M15.766,17.517a.5.5,0,0,0-.5-.5h-2.5a.5.5,0,1,0,0,1h2.5a.5.5,0,0,0,.5-.5h0Z" class="aw-theme-iconOutline" fill="#464646"/>
    <path id="path2-7" d="M16.242,16.3a.5.5,0,0,0,0-.707h0l-1.77-1.769a.5.5,0,1,0-.719.694l.012.012L15.534,16.3a.5.5,0,0,0,.707,0Z" class="aw-theme-iconOutline" fill="#464646"/>
    <path id="rect870" d="M23.4,11.032l.575.5L11.554,23.958l-.576-.5Z" class="aw-theme-iconOutline" fill="#464646"/>
    <path id="path830" d="M0,20v4H7.18V20Z" class="aw-theme-iconOutline" fill="#464646"/>
    <path id="rect963-4-4-7" d="M0,0V4H6.926V0ZM.825,1H6.146V3H.825Z" class="aw-theme-iconOutline" fill="#464646"/>
    <path id="rect963-4-4-7-3" d="M0,13.39v4H6.926v-4Zm.825,1H6.146v2H.825Z" class="aw-theme-iconOutline" fill="#464646"/>
    <path id="rect963-4-4-7-3-3" d="M0,6.7v4H6.926v-4Zm.825,1H6.146v2H.825Z" class="aw-theme-iconOutline" fill="#464646"/>
  </g>
</svg>
