<svg id="Layer_1" data-name="Layer 1" xmlns="http://www.w3.org/2000/svg" viewBox="0 0 24 24">
  <g id="g1442">
    <path id="path2" d="M12.028.017a.408.408,0,0,0-.262.089L11,.561V1.684l1.012-.608L13,1.67V.488L12.311.1A.429.429,0,0,0,12.028.017ZM14,1.088V2.27l2,1.2V2.287ZM10,1.16l-2,1.2V3.482l2-1.2Zm7,1.729V4.07l2,1.2V4.088ZM7,2.961l-2,1.2V5.283l2-1.2ZM20,4.689V5.871l1.02.611L20,7.094V8.3l1.521-.912V9h1V6.482a.459.459,0,0,0-.2-.4ZM4,4.762,1.8,6.082c-.2.1-.3.2-.3.4V9h1V7.383l1.5.9v-1.2l-1-.6,1-.6Zm1,2.92v1.2l2,1.2v-1.2ZM19,7.7,17,8.9v1.2l2-1.2ZM8,9.48v1.2l2,1.2v-1.2Zm8,.014-2,1.2v1.2l2-1.2ZM1.5,10v2h1V10Zm20.021,0v2h1V10ZM11,11.279v1.2l.51.307V14h1V12.789L13,12.5v-1.2l-.988.594ZM1.5,13v2h1V13Zm20.021,0v2h1V13ZM11.51,15v2h1V15ZM1.5,16v1.494a.433.433,0,0,0,.2.4L4,19.273V18.092l-1.5-.9V16Zm20.021,0v1.193L20,18.105v1.182L22.322,17.9a.4.4,0,0,0,.2-.4V16ZM11.51,18v2.051h1V18ZM5,18.693v1.182l2,1.2V19.893Zm14,.014-2,1.2v1.182l2-1.2ZM8,20.492v1.182l2,1.2V21.691Zm8,.014-2,1.2v1.182l2-1.2Zm-4.49.545V22.6L11,22.291v1.184l.711.425c.17.064.188.094.288.094a.668.668,0,0,0,.312-.094L13,23.486V22.305l-.488.293V21.051Z" class="aw-theme-iconOutline" fill="#464646"/>
    <g id="g1105">
      <path id="rect997" d="M3,15.121v1.172l2,1.2V16.32Zm3,1.8v1.172l2,1.2V18.119Zm3,1.8v1.172l2,1.2V19.916Z" class="aw-theme-iconOutline" fill="#464646"/>
      <path id="rect997-2" d="M3,12.153v1.172l2,1.2V13.352Zm3,1.8v1.172l2,1.2V15.151Zm3,1.8v1.172l2,1.2V16.948Z" class="aw-theme-iconOutline" fill="#464646"/>
      <path id="rect997-2-3" d="M3,9.133v1.172l2,1.2V10.332Zm3,1.8V12.1l2,1.2V12.131Zm3,1.8V13.9l2,1.2V13.928Z" class="aw-theme-iconOutline" fill="#464646"/>
    </g>
    <path id="rect997-3" d="M21,15.173v1.172l-2,1.2V16.373Zm-3,1.8v1.172l-2,1.2V18.171Zm-3,1.8v1.172l-2,1.2V19.968Z" class="aw-theme-iconOutline" fill="#464646"/>
    <path id="rect997-2-1" d="M21,12.205v1.172l-2,1.2V13.4ZM18,14v1.172l-2,1.2V15.2Zm-3,1.8v1.172l-2,1.2V17Z" class="aw-theme-iconOutline" fill="#464646"/>
    <path id="rect997-2-3-0" d="M21,9.113v1.172l-2,1.2V10.312Zm-3,1.8v1.172l-2,1.2V12.111Zm-3,1.8v1.172l-2,1.2V13.908Z" class="aw-theme-iconOutline" fill="#464646"/>
    <path id="rect1179" d="M17.75,5.677,16.05,6.7l1.018.609,1.7-1.021ZM15.054,7.3l-1.658,1,1.018.61,1.658-1ZM12.4,8.892,10.712,9.906l1.018.609L13.418,9.5Z" class="aw-theme-iconOutline" fill="#464646"/>
    <path id="rect1179-2" d="M12.573,2.589l-1.7,1.022,1.018.607,1.7-1.021Zm-2.7,1.619-1.656,1,1.016.61,1.658-1ZM7.223,5.8,5.535,6.818l1.018.607L8.239,6.411Z" class="aw-theme-iconOutline" fill="#464646"/>
    <path id="rect1179-7" d="M15.159,4.131l-1.7,1.022,1.015.607,1.7-1.021ZM12.464,5.752l-1.659,1,1.016.608,1.658-1ZM9.809,7.346,8.124,8.36l1.015.607,1.686-1.014Z" class="aw-theme-iconOutline" fill="#464646"/>
  </g>
</svg>
