<svg id="Image" xmlns="http://www.w3.org/2000/svg" viewBox="0 0 24 24">
  <g id="g883">
    <path id="path848" d="M17.307,11l-.08,0A6.5,6.5,0,1,0,24,17.5h0A6.5,6.5,0,0,0,17.5,11Zm.121,1H17.5A5.5,5.5,0,0,1,23,17.5h0A5.5,5.5,0,1,1,17.428,12Z" class="aw-theme-iconOutline" fill="#464646"/>
    <path id="path847" d="M20.762,13.637a.5.5,0,0,0-.313.14l-1.768,1.768a.5.5,0,0,0,.707.707l1.769-1.768a.5.5,0,0,0-.395-.847Z" class="aw-theme-iconOutline" fill="#464646"/>
    <path id="path843" d="M17.966,15.292v-2.5a.5.5,0,0,0-1,0v2.5a.5.5,0,1,0,1,0Z" class="aw-theme-iconOutline" fill="#464646"/>
    <path id="path839" d="M22.708,17.468a.5.5,0,0,0-.5-.5h-2.5a.5.5,0,0,0,0,1h2.5a.5.5,0,0,0,.5-.5v0Z" class="aw-theme-iconOutline" fill="#464646"/>
    <path id="path837" d="M21.208,21.16a.5.5,0,0,0,0-.707L19.44,18.686a.5.5,0,0,0-.707.707L20.5,21.158a.5.5,0,0,0,.707,0Z" class="aw-theme-iconOutline" fill="#464646"/>
    <path id="path835" d="M18.035,22.21v-2.5a.5.5,0,0,0-1,0v2.5a.5.5,0,0,0,1,0Z" class="aw-theme-iconOutline" fill="#464646"/>
    <path id="path833" d="M14.55,21.21l1.767-1.768a.5.5,0,0,0-.707-.707L13.842,20.5a.5.5,0,0,0,.7.719l.012-.012Z" class="aw-theme-iconOutline" fill="#464646"/>
    <path id="path831" d="M15.793,17.537a.5.5,0,0,0-.5-.5h-2.5a.5.5,0,0,0,0,1h2.5a.5.5,0,0,0,.5-.5v0Z" class="aw-theme-iconOutline" fill="#464646"/>
    <path id="path2" d="M16.269,16.319a.5.5,0,0,0,0-.707L14.5,13.842a.5.5,0,1,0-.719.7l.012.012,1.768,1.767a.5.5,0,0,0,.707,0Z" class="aw-theme-iconOutline" fill="#464646"/>
    <path id="rect963" d="M0,0V4H7.18V0ZM4.787,1h1.6V3h-1.6Z" class="aw-theme-iconOutline" fill="#464646"/>
    <path id="rect963-4" d="M0,6.7v4H6.988v-4Zm3.1,1H6.2v2H3.1Z" class="aw-theme-iconOutline" fill="#464646"/>
    <path id="rect963-4-4" d="M0,13.39v4H6.943v-4Zm1.543,1H6.161v2H1.543Z" class="aw-theme-iconOutline" fill="#464646"/>
    <path id="rect963-4-4-7" d="M0,20v4H6.926V20Zm.825,1H6.146v2H.825Z" class="aw-theme-iconOutline" fill="#464646"/>
    <path id="rect1181" d="M9.155,21.637h1V5.4h-1Z" class="aw-theme-iconOutline" fill="#464646"/>
    <path id="path1183" d="M9.655,2.678,8.84,4.089,8.025,5.5h3.259l-.815-1.411Z" class="aw-theme-iconOutline" fill="#464646"/>
  </g>
</svg>
