<svg id="Image" xmlns="http://www.w3.org/2000/svg" viewBox="0 0 24 24">
  <path d="M22.99,8.2a26.466,26.466,0,0,1-2.255-3.059,3.9,3.9,0,0,1-.263-.534c-.03-.072-.051-.148-.078-.221-.042-.118-.086-.236-.121-.357-.027-.092-.046-.184-.069-.277s-.053-.207-.074-.309-.036-.2-.053-.3-.031-.176-.043-.26c-.015-.108-.027-.209-.038-.31-.007-.064-.016-.132-.021-.192-.01-.107-.017-.2-.024-.3,0-.039-.006-.082-.008-.118-.005-.1-.009-.183-.011-.254V1.666c0-.073,0-.133,0-.164a.443.443,0,0,0-.02-.1.485.485,0,0,0-.019-.095.439.439,0,0,0-.061-.093.6.6,0,0,0-.045-.067.484.484,0,0,0-.086-.059.507.507,0,0,0-.072-.049.569.569,0,0,0-.093-.02.534.534,0,0,0-.1-.021H4.58a.351.351,0,0,0-.312.053.456.456,0,0,0-.081.064.427.427,0,0,0-.052.041.484.484,0,0,0-.068.1.482.482,0,0,0-.035.063.526.526,0,0,0-.024.118c0,.021-.012.039-.012.06V2.693H2.954a.5.5,0,0,0-.5.5V4.318H1.5a.5.5,0,0,0-.5.5V22.333a.5.5,0,0,0,.5.5H16.339a.5.5,0,0,0,.5-.5V21.208h.954a.5.5,0,0,0,.5-.5V19.515h1.135a.5.5,0,0,0,.5-.5V9.029h2.684A.5.5,0,0,0,22.99,8.2ZM15.839,21.833H2V5.318h.454v15.39a.5.5,0,0,0,.5.5H15.839Zm1.454-1.625H3.454V3.693H4V19.015a.5.5,0,0,0,.5.5h12.8Zm1.635-1.693H5V3.546l.867,1.672a6.852,6.852,0,0,0,6,3.813c.055,0,.089,0,.1,0h4.652l.015,0,.008,0h2.291ZM8.66,6.979l4.168-.634A20.471,20.471,0,0,0,14.734,8.03H11.941A5.792,5.792,0,0,1,8.66,6.979Zm10.768,1.05H16.7a11.3,11.3,0,0,1-3.331-2.566.493.493,0,0,0-.434-.146l-5.238.8a6.368,6.368,0,0,1-.94-1.357C6.071,3.447,5.62,2.576,5.3,2h13.64c.007.12.017.26.03.41l.007.065c.013.144.031.3.053.461.006.041.011.081.017.123.027.186.059.378.1.578l0,.025c.042.2.094.413.154.622.014.049.031.1.046.146q.073.24.167.476c.023.058.044.115.069.172a4.869,4.869,0,0,0,.289.578,23.559,23.559,0,0,0,1.676,2.371ZM17.828,4.5H7.264a.5.5,0,0,1,0-1H17.828a.5.5,0,0,1,0,1Zm-.7,6.485a.5.5,0,0,1-.5.5H6.063a.5.5,0,0,1,0-1H16.628A.5.5,0,0,1,17.128,10.987Zm0,2.468a.5.5,0,0,1-.5.5H6.063a.5.5,0,0,1,0-1H16.628A.5.5,0,0,1,17.128,13.455Zm-4.564,2.467a.5.5,0,0,1-.5.5h-6a.5.5,0,1,1,0-1h6A.5.5,0,0,1,12.564,15.922ZM19.231,6.4a.5.5,0,0,1-.5.5H15.326a.5.5,0,0,1,0-1h3.405A.5.5,0,0,1,19.231,6.4Z" class="aw-theme-iconOutline" fill="#464646"/>
</svg>
