<svg version="1.1" id="Layer_1" xmlns="http://www.w3.org/2000/svg" xmlns:xlink="http://www.w3.org/1999/xlink" x="0px" y="0px"
	 viewBox="0 0 24 24" style="enable-background:new 0 0 24 24;" xml:space="preserve"> 
<path class="aw-theme-iconOutline" fill="#464646" d="M10.909,10.909H0V0h10.909V10.909z M1.012,9.898h8.885V1.012H1.012V9.898z"/>
<polygon class="aw-theme-iconOutline" fill="#464646" points="7.19,3.952 7.19,6.624 2.648,2.009 2,2.657 6.621,7.19 3.945,7.19 3.945,8 8,8 8,3.952 "/>
<path class="aw-theme-iconOutline" fill="#464646" d="M10.909,24H0V13.091h10.909V24z M1.012,22.989h8.885v-8.885H1.012V22.989z"/>
<polygon class="aw-theme-iconOutline" fill="#464646" points="8,20.057 8,16.009 3.945,16.009 3.945,16.819 6.621,16.819 2,21.352 2.648,22 7.19,17.385 
	7.19,20.057 "/>
<path class="aw-theme-iconOutline" fill="#464646" d="M13.091,0H24v10.909H13.091V0z M22.988,1.012h-8.885v8.885h8.885V1.012z"/>
<polygon class="aw-theme-iconOutline" fill="#464646" points="16,3.952 16,8 20.055,8 20.055,7.19 17.379,7.19 22,2.657 21.352,2.009 16.81,6.624 
	16.81,3.952 "/>
<path class="aw-theme-iconOutline" fill="#464646" d="M13.091,13.091H24V24H13.091V13.091z M22.988,14.103h-8.885v8.885h8.885V14.103z"/>
<polygon class="aw-theme-iconOutline" fill="#464646" points="16.81,20.057 16.81,17.385 21.352,22 22,21.352 17.379,16.819 20.055,16.819 20.055,16.009 
	16,16.009 16,20.057 "/>
</svg>
