<svg id="Image" xmlns="http://www.w3.org/2000/svg" viewBox="0 0 24 24">
  <path d="M8,2V8H2V2H8M9,1H1V9H9V1Zm8,1V8H11V2h6m1-1H10V9h8V1ZM8,11v6H2V11H8m1-1H1v8H9V10ZM6.552,12l-2.683.02v1L5.345,13,3,15.313l.707.707,2.345-2.312L6,15.126H7L7.051,12.5A.5.5,0,0,0,6.552,12ZM12.5,7.02,15.182,7V6l-1.476.019,2.345-2.312L15.344,3,13,5.312l.052-1.418h-1L12,6.519A.5.5,0,0,0,12.5,7.02ZM7,6.519,6.949,3.894h-1L6,5.312,3.656,3l-.707.707L5.294,6.019,3.818,6V7L6.5,7.02A.5.5,0,0,0,7,6.519ZM11,11h3.13A7.956,7.956,0,0,1,18,10H10v8a7.956,7.956,0,0,1,1-3.87Zm6,5h1v5H17Zm0-2h1v1H17Zm.419,10a6.5,6.5,0,1,1,6.5-6.5A6.508,6.508,0,0,1,17.419,24Zm0-12a5.5,5.5,0,1,0,5.5,5.5A5.506,5.506,0,0,0,17.419,12Z" class="aw-theme-iconOutline" fill="#464646"/>
</svg>
