<svg id="Image" xmlns="http://www.w3.org/2000/svg" viewBox="0 0 24 24">
  <g id="g828">
    <path id="path831" d="M22.5,7.689a.5.5,0,0,0-.251.067l-8.978,5a.5.5,0,0,0-.253.437l-.934,9.3a.5.5,0,0,0,.5.5.51.51,0,0,0,.25-.068L21.7,17.886a.5.5,0,0,0,.253-.438l.934-9.3c0-.178.022-.3-.133-.395A.5.5,0,0,0,22.5,7.689Zm-.623,1.328-.933,8.142-7.857,4.478.934-8.143Z" class="aw-theme-iconOutline" fill="#464646"/>
    <path id="path827" d="M1.6,7.714a.5.5,0,0,0-.494.5l.623,9.138a.506.506,0,0,0,.253.438l8.862,5.074a.485.485,0,0,0,.249.065v0a.5.5,0,0,0,.5-.5l-.623-9.137a.5.5,0,0,0-.253-.437L1.856,7.782A.494.494,0,0,0,1.6,7.714Zm.511,1.369,7.859,4.495.621,7.981L2.73,17.066Z" class="aw-theme-iconOutline" fill="#464646"/>
    <path id="path823" d="M11.846,1.02a.5.5,0,0,0-.239.067L2.739,6.159a.5.5,0,0,0,0,.873l8.868,5.076a.508.508,0,0,0,.25.066.5.5,0,0,0,.247-.066L21,7.044a.5.5,0,0,0,0-.872L12.11,1.087A.5.5,0,0,0,11.846,1.02Zm.01,1.083,7.875,4.5-7.875,4.485L4,6.594Z" class="aw-theme-iconOutline" fill="#464646"/>
    <path id="path4-7" d="M14.444,5.946,12.4,8.033l.027-4.9-1.112-.011V7.988L9.355,5.946l-.692.663L11.316,9.5c.1.1.325.33.529.33a.785.785,0,0,0,.492-.273l2.821-2.944Z" class="aw-theme-iconOutline" fill="#464646"/>
    <path id="path4-7-3" d="M18.878,17.361l-1.62-2.43c2.476.307,4.869.708,5.383,3.205l1.359,0c-.809-2.8-3.148-3.948-6.472-4.256l2.4-1.5-.506-.814L16.042,13.61c-.121.079-.39.25-.432.45a.786.786,0,0,0,.165.538l2.3,3.325Z" class="aw-theme-iconOutline" fill="#464646"/>
    <path id="path4-7-3-0" d="M5.122,17.361l1.62-2.43c-2.476.307-4.869.708-5.383,3.205L0,18.134c.809-2.8,3.148-3.948,6.472-4.256l-2.4-1.5.506-.814L7.958,13.61c.121.079.39.25.432.45a.786.786,0,0,1-.165.538l-2.3,3.325Z" class="aw-theme-iconOutline" fill="#464646"/>
  </g>
</svg>
