<svg id="Layer_1" data-name="Layer 1" xmlns="http://www.w3.org/2000/svg" viewBox="0 0 24 24">
  <g id="g830">
    <path id="polygon13" d="M3.977,14.441a.5.5,0,0,0-.463.313L.037,23.313A.5.5,0,0,0,.5,24h23a.5.5,0,0,0,.5-.5.493.493,0,0,0-.036-.186l-3.477-8.559a.5.5,0,0,0-.463-.313H12.959l-.611,1h7.34L22.758,23H1.242l3.071-7.559H11.65l-.615-1Z" class="aw-theme-iconOutline" fill="#464646"/>
    <path id="path26" d="M12,0A5.87,5.87,0,0,0,6.15,5.85a8.778,8.778,0,0,0,.877,3.166A41.016,41.016,0,0,0,8.889,12.73c1.347,2.42,2.693,4.465,2.693,4.465a.5.5,0,0,0,.693.144.516.516,0,0,0,.143-.144s1.346-2.045,2.693-4.465a41.016,41.016,0,0,0,1.862-3.714A8.778,8.778,0,0,0,17.85,5.85,5.843,5.843,0,0,0,12,0Zm0,1a4.821,4.821,0,0,1,4.85,4.85,8.608,8.608,0,0,1-.8,2.773,40.133,40.133,0,0,1-1.815,3.621c-1.117,2.007-1.913,3.208-2.238,3.709-.325-.5-1.121-1.7-2.238-3.709A40.133,40.133,0,0,1,7.947,8.623a8.608,8.608,0,0,1-.8-2.773A4.862,4.862,0,0,1,12,1Z" class="aw-theme-iconOutline" fill="#464646"/>
    <path id="circle28" d="M12,3.209a2.372,2.372,0,1,0,2.373,2.373A2.381,2.381,0,0,0,12,3.209Zm0,1a1.372,1.372,0,1,1-1.371,1.373A1.364,1.364,0,0,1,12,4.209Z" class="aw-theme-iconOutline" fill="#464646"/>
  </g>
</svg>
