<svg id="Image" xmlns="http://www.w3.org/2000/svg" viewBox="0 0 24 24">
  <g id="g838">
    <path id="path831" d="M17.421,13.124a.32.32,0,0,0-.154.042L11.587,16.4a.323.323,0,0,0-.163.28v6.435a.322.322,0,0,0,.322.322h0a.334.334,0,0,0,.16-.044l5.681-3.235a.323.323,0,0,0,.163-.28V13.445a.322.322,0,0,0-.161-.279A.318.318,0,0,0,17.421,13.124ZM17.105,14v5.692l-5.037,2.872V16.869Z" class="aw-theme-iconOutline" fill="#464646"/>
    <path id="path827" d="M.3,3.283A.32.32,0,0,0,0,3.6V10a.321.321,0,0,0,.161.278l5.651,3.235a.306.306,0,0,0,.159.043v0a.32.32,0,0,0,.32-.32h0v-6.4a.321.321,0,0,0-.161-.278L.479,3.324A.318.318,0,0,0,.3,3.283Zm.342.871L5.651,7.02v5.658L.64,9.814Z" class="aw-theme-iconOutline" fill="#464646"/>
    <path id="path823" d="M5.994.009a.318.318,0,0,0-.153.043L.185,3.286a.32.32,0,0,0,0,.555L5.84,7.078A.322.322,0,0,0,6,7.121a.315.315,0,0,0,.158-.043l5.669-3.227a.319.319,0,0,0,.12-.436.314.314,0,0,0-.12-.12L6.161.052A.318.318,0,0,0,5.994.009ZM6,.7l5.02,2.871L6,6.432.99,3.564Z" class="aw-theme-iconOutline" fill="#464646"/>
    <path id="path827-4" d="M6.34.145V.883l5.008,2.863v2.3c.219-.127.422-.242.638-.369V3.561a.318.318,0,0,0-.16-.279ZM5.7,6.518v.207A.322.322,0,0,0,5.857,7L9.01,8.807l0-.631c0-.063,0-.056,0-.109L6.336,6.541V6.518Z" class="aw-theme-iconOutline" fill="#464646"/>
    <path id="path831-3" d="M14.353,3.649a.322.322,0,0,0-.154.043L8.52,6.926a.321.321,0,0,0-.164.279V13.64a.322.322,0,0,0,.322.322h0a.324.324,0,0,0,.16-.044l5.681-3.235a.323.323,0,0,0,.163-.279V3.971a.321.321,0,0,0-.161-.279A.31.31,0,0,0,14.353,3.649Zm-.316.876v5.692L9,13.089V7.4Z" class="aw-theme-iconOutline" fill="#464646"/>
    <path id="path4-7-3" d="M17.239,11.17l.352-2.9c1.68,1.845,3.237,3.705,2,5.936l1.034.883c1.205-2.65.178-5.047-2.147-7.443l2.8.428.145-.948-3.9-.65a.949.949,0,0,0-.621.061.782.782,0,0,0-.224.515l-.412,4.025Z" class="aw-theme-iconOutline" fill="#464646"/>
    <path id="path4-7-3-0" d="M8.881,17.473l.268,2.908C7.118,18.932,5.2,17.441,5.941,15l-1.2-.645c-.62,2.844.89,4.971,3.667,6.824l-2.827.171.058.957,3.947-.185a.952.952,0,0,0,.594-.19.78.78,0,0,0,.111-.552L9.85,17.359Z" class="aw-theme-iconOutline" fill="#464646"/>
  </g>
</svg>
