<svg id="Layer_1" data-name="Layer 1" xmlns="http://www.w3.org/2000/svg" viewBox="0 0 24 24">
  <g id="g819">
    <path id="path6" d="M20.147,5.775,12.329,1.24a.365.365,0,0,0-.392,0L4.026,5.775a.317.317,0,0,0-.235.3v8.3a.381.381,0,0,0,.157.3l7.818,4.534a.5.5,0,0,0,.234.075c.086.012.079.007.234-.075l7.818-4.534a.3.3,0,0,0,.157-.3v-8.3a.368.368,0,0,0-.062-.3ZM12.131,2.334,18.648,6.1,12.131,9.87,5.615,6.1ZM4.912,6.893l6.777,3.931V17.9L4.912,14Zm7.82,10.878V10.65l6.516-3.768V14Z" class="aw-theme-iconOutline" fill="#464646"/>
    <path id="path2" d="M19.344,12.578l-.066,1.094,3.1,1.833-10.37,5.871L1.626,15.505l3.147-1.792-.1-1.145L.267,15.061a.509.509,0,0,0,0,.895l11.416,6.457a.643.643,0,0,0,.646,0l11.4-6.457a.509.509,0,0,0,.007-.895l-4.38-2.57Z" class="aw-theme-iconOutline" fill="#464646"/>
  </g>
</svg>
