<svg id="Image" xmlns="http://www.w3.org/2000/svg" viewBox="0 0 24 24">
  <path d="M18.953,15.748a14.637,14.637,0,0,0-.123-1.564h.822V8.934H16.845a7.31,7.31,0,0,0-5.091-2.7V5.023H6.53v3.64h5.224V7.231a6.239,6.239,0,0,1,3.739,1.7H12.612v5.25h5.205a14.457,14.457,0,0,1,.135,1.564H15.714v3.64h5.224v-3.64Zm-8.2-8.085H7.53V6.023h3.224Zm6.889,5.521H13.612V9.934h5.04v3.25Zm2.295,5.2H16.714v-1.64h3.224ZM2,1V5.448H.5a.5.5,0,0,0,0,1H2V17.157H.5a.5.5,0,0,0,0,1H2V23H23V1ZM22,22H3V18.157H5.1a.5.5,0,0,0,0-1H3V6.448H5.1a.5.5,0,0,0,0-1H3V2H22Z" class="aw-theme-iconOutline" fill="#464646"/>
</svg>
