<svg xmlns="http://www.w3.org/2000/svg" viewBox="0 0 24 24">
  <g id="Verb_Zone">
    <path d="M21.588,4.794,14.971.824a.5.5,0,0,0-.506-.005L8.216,4.413h0L7.8,4.653,1.183,8.624a.5.5,0,0,0-.243.428v7.279a.5.5,0,0,0,.243.429L7.8,20.729a.5.5,0,0,0,.515,0l.744-.446c-.011-.194-.03-.386-.03-.583s.019-.389.03-.583l-.5.3V13.25l5.656-3.324v1.923a9.523,9.523,0,0,1,1-.579V9.339l5.612-3.3-.018,3.286c.339.043.672.1,1,.174l.023-4.275A.5.5,0,0,0,21.588,4.794ZM7.558,19.418,1.94,16.048V9.968l5.618,3.371Zm.425-6.991-5.6-3.358L8.208,5.575l5.659,3.4Zm6.831-4.013.018-.031L9.2,5l5.511-3.17L20.3,5.189ZM15.5,16a.5.5,0,0,1-.354-.146l-2-2a.5.5,0,0,1,.707-.707l2,2A.5.5,0,0,1,15.5,16Zm-.5.5a.5.5,0,0,0-.5-.5h-2a.5.5,0,0,0,0,1h2A.5.5,0,0,0,15,16.5Zm7.852,6.354a.5.5,0,0,0,0-.707l-2-2a.5.5,0,0,0-.707.707l2,2a.5.5,0,0,0,.706,0ZM20,23.5v-2a.5.5,0,0,0-1,0v2a.5.5,0,0,0,1,0Zm4-4a.5.5,0,0,0-.5-.5h-2a.5.5,0,0,0,0,1h2A.5.5,0,0,0,24,19.5Zm-1.773-1.139.8-.8h0a3.242,3.242,0,0,0,0-4.585,3.308,3.308,0,0,0-4.6.015l-.77.838h0a.478.478,0,1,0,.7.646l.755-.823a2.339,2.339,0,0,1,3.232,0h0a2.285,2.285,0,0,1,0,3.231l-.8.8a.479.479,0,0,0,.678.677Zm-4.672,4.664.812-.812a.478.478,0,1,0-.676-.677l-.813.812a2.341,2.341,0,0,1-3.232,0,2.286,2.286,0,0,1-.014-3.218l.847-.778a.508.508,0,0,0,.054-.05.478.478,0,0,0-.7-.65l-.861.792a3.24,3.24,0,1,0,4.584,4.581ZM17,14.5v-2a.5.5,0,0,0-1,0v2a.5.5,0,0,0,1,0Z" class="aw-theme-iconOutline" fill="#464646"/>
  </g>
</svg>
