<svg id="Layer_1" data-name="Layer 1" xmlns="http://www.w3.org/2000/svg" viewBox="0 0 24 24">
  <g id="g868">
    <path id="rect958" d="M16,12H15v9h1Z" class="aw-theme-iconOutline" fill="#464646"/>
    <path id="rect960" d="M16,11H7v1h9Z" class="aw-theme-iconOutline" fill="#464646"/>
    <path id="rect960-0" d="M16,21H7v1h9Z" class="aw-theme-iconOutline" fill="#464646"/>
    <path id="rect958-3" d="M8,12H7v9H8Z" class="aw-theme-iconOutline" fill="#464646"/>
    <path id="path1052" d="M3.5,11A1.5,1.5,0,1,1,2,12.5,1.5,1.5,0,0,1,3.5,11Zm0,1a.5.5,0,1,0,.5.5A.5.5,0,0,0,3.5,12Z" class="aw-theme-iconOutline" fill="#464646"/>
    <path id="path1052-2" d="M3.5,19A1.5,1.5,0,1,1,2,20.5,1.5,1.5,0,0,1,3.5,19Zm0,1a.5.5,0,1,0,.5.5A.5.5,0,0,0,3.5,20Z" class="aw-theme-iconOutline" fill="#464646"/>
    <path id="path1052-2-1" d="M20.5,17A1.5,1.5,0,1,1,19,18.5,1.5,1.5,0,0,1,20.5,17Zm0,1a.5.5,0,1,0,.5.5A.5.5,0,0,0,20.5,18Z" class="aw-theme-iconOutline" fill="#464646"/>
    <path id="path1052-2-1-8" d="M19.5,13A1.5,1.5,0,0,1,21,14.5h0A1.5,1.5,0,0,1,19.5,16h0a1.5,1.5,0,0,1,0-3Zm0,1a.5.5,0,1,0,.5.5h0a.5.5,0,0,0-.5-.5Z" class="aw-theme-iconOutline" fill="#464646"/>
    <path id="rect845" d="M18.5,14H15.9v1h2.6Z" class="aw-theme-iconOutline" fill="#464646"/>
    <path id="rect847" d="M19.5,18H16v1h3.5Z" class="aw-theme-iconOutline" fill="#464646"/>
    <path id="path851" d="M4.727,20.063c.036-.039.279-.294.539-.567l.471-.5H7V17.984H6.243c-.832,0-.808,0-.919.055a.479.479,0,0,0-.1.074c-.028.025-.269.275-.535.554s-.49.514-.5.521l-.115.118-.1.1.325.341c.178.188.333.35.344.361l.02.021Z" class="aw-theme-iconOutline" fill="#464646"/>
    <path id="path851-1" d="M4.833,12.921l.539.567.472.5H7.107V15H6.349c-.831,0-.808,0-.919-.055a.5.5,0,0,1-.1-.074c-.028-.025-.268-.275-.534-.554s-.49-.514-.5-.521l-.115-.118-.1-.1.325-.341c.178-.188.333-.35.344-.361l.02-.021Z" class="aw-theme-iconOutline" fill="#464646"/>
    <path id="rect904" d="M17,13.059H15v3h2Z" class="aw-theme-iconOutline" fill="#464646"/>
    <path id="rect904-4" d="M8,13H6v3H8Z" class="aw-theme-iconOutline" fill="#464646"/>
    <path id="rect904-6" d="M8,17H6v3H8Z" class="aw-theme-iconOutline" fill="#464646"/>
    <path id="rect859" d="M12,12H11v1h1Z" class="aw-theme-iconOutline" fill="#464646"/>
    <path id="rect904-2" d="M16.991,17.059h-2v3h2Z" class="aw-theme-iconOutline" fill="#464646"/>
    <path id="path4-8" d="M19.2,8.541l-4.025.131,7.016-7.541L21.1.034,14.143,7.567l.03-3.993H12.851l-.116,5.574A1.353,1.353,0,0,0,12.94,10a1.059,1.059,0,0,0,.75.2l5.575-.289Z" class="aw-theme-iconOutline" fill="#464646"/>
    <path id="rect924-0-2" d="M21,24V22h3c0-2.309,0-4.506,0-6.681H23c-.013,1.894-.025,3.787,0,5.681H20v2H1V4.788a20.037,20.037,0,0,0,2.23-1.78A11.879,11.879,0,0,0,4.538,1H5.914V0H3.592A4.306,4.306,0,0,1,2.318,2.242,11.1,11.1,0,0,1,0,3.958V24H21Z" class="aw-theme-iconOutline" fill="#464646"/>
  </g>
</svg>
