<svg id="Image" xmlns="http://www.w3.org/2000/svg" viewBox="0 0 24 24">
  <g id="g817">
    <path id="path835" d="M15.458,1.012a.5.5,0,0,0-.225.07L9.981,4.234a.5.5,0,0,0-.242.428v5.494l-5.01,3.006a.5.5,0,0,0-.242.43v5.775a.5.5,0,0,0,.242.43l5.252,3.15a.5.5,0,0,0,.514,0l10.5-6.3a.5.5,0,0,0,.244-.427V4.662A.5.5,0,0,0,21,4.234L15.747,1.082a.5.5,0,0,0-.239-.07A.417.417,0,0,0,15.458,1.012ZM15.489,2.1l4.422,2.654L15.553,7.361l-4.421-2.65ZM10.737,5.639l4.316,2.593v4.612L10.737,10.25Zm9.5.076V15.934l-4.188,2.513V8.229ZM10.161,11.07l4.279,2.569-4.2,2.519L5.96,13.592Zm4.861,3.385v4.611l-4.283,2.569V17.023Zm-9.535.02,4.252,2.548v4.612L5.487,19.084Z" class="aw-theme-iconOutline" fill="#464646"/>
  </g>
</svg>
