<svg id="Image" xmlns="http://www.w3.org/2000/svg" viewBox="0 0 24 24">
  <g id="g824">
    <path id="path825" d="M15.434,1.385a.53.53,0,0,0-.251.07L8.6,5.242l-.436.251L1.2,9.674a.527.527,0,0,0-.258.453v7.664a.526.526,0,0,0,.258.452l6.966,4.182a.529.529,0,0,0,.543,0l.784-.471c-.012-.205-.033-.406-.033-.613s.021-.411.033-.615l-.527.316v-6.5l5.957-3.5v2.026a9.942,9.942,0,0,1,1.053-.611V10.429l5.909-3.476-.018,3.462c.357.045.707.105,1.053.183l.022-4.5a.522.522,0,0,0-.255-.454L15.716,1.461A.529.529,0,0,0,15.434,1.385Zm.006,1.138,5.889,3.535L15.553,9.45l.019-.031L9.638,5.859ZM8.593,6.459l5.961,3.581-6.2,3.641-5.9-3.538Zm-6.6,4.632L7.91,14.642v6.4L1.993,17.494Z"  class="aw-theme-iconOutline" fill="#464646"/>
    <path id="rect836" d="M8.94,21.045l13.141-7.7a.541.541,0,0,1,.737.163.526.526,0,0,1-.163.737l-13.141,7.7a.54.54,0,0,1-.737-.162A.526.526,0,0,1,8.94,21.045Z"  class="aw-theme-iconOutline" fill="#464646"/>
    <path id="rect838" d="M21.875,8.621l1.048.028L22.9,13.761l-1.044-.017Z"  class="aw-theme-iconOutline" fill="#464646"/>
    <path id="rect838-9" d="M14.913,12.218h1.061v5.32H14.913Z"  class="aw-theme-iconOutline" fill="#464646"/>
  </g>
</svg>
