<svg id="Image" xmlns="http://www.w3.org/2000/svg" viewBox="0 0 24 24">
  <g id="g921">
    <path id="rect908" d="M6,2H7V24H6Z" class="aw-theme-iconOutline" fill="#464646"/>
    <path id="rect870-7-8" d="M4,19H5v5H4Z" class="aw-theme-iconOutline" fill="#464646"/>
    <path id="rect870-7-1-4" d="M5,23v1H0V23Z" class="aw-theme-iconOutline" fill="#464646"/>
    <path id="rect870-7-2-5" d="M5,19v1H0V19Z" class="aw-theme-iconOutline" fill="#464646"/>
    <path id="rect870-6-7-5-2" d="M0,19H1v5H0Z" class="aw-theme-iconOutline" fill="#464646"/>
    <path id="rect870-7-8-8" d="M4,11H5v5H4Z" class="aw-theme-iconOutline" fill="#464646"/>
    <path id="rect870-7-1-4-7" d="M5,15v1H0V15Z" class="aw-theme-iconOutline" fill="#464646"/>
    <path id="rect870-7-2-5-6" d="M5,11v1H0V11Z" class="aw-theme-iconOutline" fill="#464646"/>
    <path id="rect870-6-7-5-2-2" d="M0,11H1v5H0Z" class="aw-theme-iconOutline" fill="#464646"/>
    <path id="rect870-7-0" d="M4,3H5V8H4Z" class="aw-theme-iconOutline" fill="#464646"/>
    <path id="rect870-7-1-3" d="M5,7V8H0V7Z" class="aw-theme-iconOutline" fill="#464646"/>
    <path id="rect870-7-2-6" d="M5,3V4H0V3Z" class="aw-theme-iconOutline" fill="#464646"/>
    <path id="rect870-6-7-5-7" d="M0,3H1V8H0Z" class="aw-theme-iconOutline" fill="#464646"/>
    <path id="rect870-7-8-3" d="M13,19h1v5H13Z" class="aw-theme-iconOutline" fill="#464646"/>
    <path id="rect870-7-1-4-0" d="M14,23v1H9V23Z" class="aw-theme-iconOutline" fill="#464646"/>
    <path id="rect870-7-2-5-7" d="M14,19v1H9V19Z" class="aw-theme-iconOutline" fill="#464646"/>
    <path id="rect870-6-7-5-2-7" d="M9,19h1v5H9Z" class="aw-theme-iconOutline" fill="#464646"/>
    <path id="rect870-7-8-8-0" d="M13,11h1v5H13Z" class="aw-theme-iconOutline" fill="#464646"/>
    <path id="rect870-7-1-4-7-6" d="M14,15v1H9V15Z" class="aw-theme-iconOutline" fill="#464646"/>
    <path id="rect870-7-2-5-6-5" d="M14,11v1H9V11Z" class="aw-theme-iconOutline" fill="#464646"/>
    <path id="rect870-6-7-5-2-2-2" d="M9,11h1v5H9Z" class="aw-theme-iconOutline" fill="#464646"/>
    <path id="rect870-7-8-3-5" d="M22,19h1v5H22Z" class="aw-theme-iconOutline" fill="#464646"/>
    <path id="rect870-7-1-4-0-9" d="M23,23v1H18V23Z" class="aw-theme-iconOutline" fill="#464646"/>
    <path id="rect870-7-2-5-7-6" d="M23,19v1H18V19Z" class="aw-theme-iconOutline" fill="#464646"/>
    <path id="rect870-6-7-5-2-7-0" d="M18,19h1v5H18Z" class="aw-theme-iconOutline" fill="#464646"/>
    <path id="rect908-9" d="M15,2h1V24H15Z" class="aw-theme-iconOutline" fill="#464646"/>
  </g>
</svg>
