<svg id="Verb_Zone" xmlns="http://www.w3.org/2000/svg" viewBox="0 0 24 24">
  <path d="M12.417,23H1V1H23V12.417a7.489,7.489,0,0,0-1-.9V2H2V22h9.517A7.489,7.489,0,0,0,12.417,23ZM20.375,7H12.7a.461.461,0,0,0-.408.5A.461.461,0,0,0,12.7,8h7.675a.461.461,0,0,0,.408-.5A.461.461,0,0,0,20.375,7ZM3.605,9.6a.5.5,0,0,1-.249-.433V5.65c0-.008.006-.015.006-.024a.5.5,0,0,1,.06-.222v0a.494.494,0,0,1,.167-.167c.006,0,.009-.012.016-.016h0L6.651,3.454a.5.5,0,0,1,.5,0l3.056,1.765c.007,0,.01.012.017.016a.506.506,0,0,1,.166.166v0a.5.5,0,0,1,.06.222c0,.008.006.015.006.024V9.163a.5.5,0,0,1-.25.433L7.157,11.36c-.007,0-.016,0-.024.006a.451.451,0,0,1-.453,0c-.007,0-.016,0-.023-.006h0ZM9.458,6.518,7.407,7.7V10.06L9.458,8.874Zm-4.6-.868.46.266.013,0,1.58.914,1.58-.914.015,0,.456-.264L6.9,4.464Zm-.5,3.224L6.407,10.06V7.7L4.487,6.593l-.131-.076ZM10.1,16.385a7.2,7.2,0,0,0-.094,1.126,7.5,7.5,0,0,0,.123,1.315l-2.975,1.72v0a.227.227,0,0,1-.025.006.481.481,0,0,1-.225.06.487.487,0,0,1-.227-.061c-.008,0-.016,0-.024-.006L3.605,18.782a.5.5,0,0,1-.249-.432V14.838c0-.009.006-.016.006-.024a.492.492,0,0,1,.059-.219l0-.007,0,0a.489.489,0,0,1,.162-.161c.007-.005.01-.013.017-.018h0l3.043-1.762a.5.5,0,0,1,.5,0l1.5.866Zm-3.7.506-.629-.364-1.422-.822v2.357l2.051,1.185V16.891Zm2.08-1.783.01,0,.461-.267L6.9,13.651,4.854,14.838l.462.267.01,0,1.581.913Zm.971.6-1.436.83-.615.356v2.356l2.051-1.185ZM21,18H18v3H17V18H14V17h3V14h1v3h3Zm-3.5-6a8.053,8.053,0,0,0-3.036.886L14.246,13H10.618l1.276,2.553.106.211V17.5A5.5,5.5,0,1,0,17.5,12m0-1A6.5,6.5,0,1,1,11,17.5V16L9,12h5a9.18,9.18,0,0,1,3.5-1Z" class="aw-theme-iconOutline" fill="#464646"/>
</svg>
