<svg id="Image" xmlns="http://www.w3.org/2000/svg" viewBox="0 0 24 24">
  <g id="g831">
    <path id="path825" d="M14.157,2.476a3.262,3.262,0,0,0-3.209,2.718H0V6.282H10.948a3.262,3.262,0,1,0,3.209-3.806Zm-.092,1.089a2.175,2.175,0,0,1,2.264,2.082c0,.03,0,.061,0,.091a2.174,2.174,0,0,1-2.17,2.179h0v0a2.175,2.175,0,0,1-.092-4.347Z" class="aw-theme-iconOutline" fill="#464646"/>
    <g id="g860">
      <path id="path8" d="M14.051,14.667a.583.583,0,0,1-.413-.171l-2.333-2.333a.583.583,0,0,1,.825-.825l2.333,2.334a.584.584,0,0,1-.412.995Z" class="aw-theme-iconOutline" fill="#464646"/>
      <path id="path10" d="M12.884,15.833H10.551a.583.583,0,1,1,0-1.166h2.333a.583.583,0,1,1,0,1.166Z" class="aw-theme-iconOutline" fill="#464646"/>
      <path id="path12" d="M15.218,13.5a.584.584,0,0,1-.584-.583V10.583a.584.584,0,0,1,1.167,0v2.334A.583.583,0,0,1,15.218,13.5Z" class="aw-theme-iconOutline" fill="#464646"/>
      <path id="path14" d="M22.218,22.833a.58.58,0,0,1-.413-.17L19.471,20.33a.583.583,0,0,1,.825-.825l2.334,2.333a.584.584,0,0,1-.412.995Z" class="aw-theme-iconOutline" fill="#464646"/>
      <path id="path16" d="M18.718,24a.584.584,0,0,1-.584-.583V21.083a.584.584,0,0,1,1.167,0v2.334A.583.583,0,0,1,18.718,24Z" class="aw-theme-iconOutline" fill="#464646"/>
      <path id="path18" d="M23.384,19.333H21.051a.583.583,0,0,1,0-1.166h2.333a.583.583,0,1,1,0,1.166Z" class="aw-theme-iconOutline" fill="#464646"/>
      <path id="path20" d="M21.5,17.583a.558.558,0,0,1-.395-.952l.934-.933a2.666,2.666,0,0,0,0-3.77h0a2.729,2.729,0,0,0-3.771,0l-.881.96a.557.557,0,0,1-.822-.753l.9-.978a3.859,3.859,0,0,1,5.367-.017,3.782,3.782,0,0,1,0,5.349h0l-.934.933A.555.555,0,0,1,21.5,17.583Z" class="aw-theme-iconOutline" fill="#464646"/>
      <path id="path22" d="M13.776,23.976A3.782,3.782,0,0,1,11.1,17.518l1-.924a.558.558,0,0,1,.817.759.567.567,0,0,1-.062.058l-.988.907a2.668,2.668,0,0,0,.016,3.755,2.731,2.731,0,0,0,3.771,0l.948-.948a.558.558,0,1,1,.789.79h0l-.947.948A3.759,3.759,0,0,1,13.776,23.976Z" class="aw-theme-iconOutline" fill="#464646"/>
    </g>
  </g>
</svg>
