<svg version="1.1" id="Livello_3" xmlns="http://www.w3.org/2000/svg" xmlns:xlink="http://www.w3.org/1999/xlink" x="0px" y="0px"
	  viewBox="0 0 24 24" enable-background="new 0 0 24 24" xml:space="preserve">
<path id="path8" class="aw-theme-iconOutline" fill="#464646" d="M15,5.5v2.246c-1.029-1.098-2.458-1.738-4-1.738c-1.726,0-3.374,0.827-4.408,2.211l0.801,0.598
	C8.251,7.667,9.567,7.008,11,7.008c1.294,0,2.492,0.551,3.338,1.492H12v1h4v-4H15z M5.5,9.5C3.015,9.5,1,11.515,1,14
	s2.015,4.5,4.5,4.5S10,16.485,10,14S7.985,9.5,5.5,9.5z M18.5,9.5c-2.485,0-4.5,2.015-4.5,4.5s2.015,4.5,4.5,4.5S23,16.485,23,14
	S20.985,9.5,18.5,9.5z M18.5,10.5c1.934,0,3.5,1.567,3.5,3.5c0,1.934-1.566,3.5-3.5,3.5l0,0c-1.934,0-3.5-1.566-3.5-3.5
	C15,12.067,16.566,10.5,18.5,10.5z"/>
</svg>
