<svg xmlns="http://www.w3.org/2000/svg" viewBox="0 0 24 24">
  <g id="Verb_Zone">
    <path d="M3.589,23.48a2.173,2.173,0,0,1-2.9-3.234L3.9,17.029a8.82,8.82,0,0,1,1.338-10.8L8.256,3.214a1.6,1.6,0,0,1,2.251,0l1.263,1.26L15.629.621a2.04,2.04,0,0,1,3.059.144,2.074,2.074,0,0,1-.176,2.807L14.688,7.423l1.926,1.924,3.861-3.854a2.04,2.04,0,0,1,1.54-.619,2.073,2.073,0,0,1,1.343,3.57l-3.824,3.817,1.261,1.26a1.6,1.6,0,0,1,0,2.249l-3.02,3.014A8.932,8.932,0,0,1,6.962,20.116l-3.338,3.33M9.382,3.752a.6.6,0,0,0-.42.17L5.943,6.937a7.813,7.813,0,0,0-.992,9.882l.231.341-3.8,3.8A1.174,1.174,0,0,0,2.94,22.719l.012-.01,0,0,3.869-3.869.34.222a7.931,7.931,0,0,0,9.905-.987l3.02-3.015a.6.6,0,0,0,0-.833l-1.971-1.967,4.533-4.526a1.072,1.072,0,0,0,.111-1.464,1.054,1.054,0,0,0-.785-.4,1.033,1.033,0,0,0-.787.318L16.614,10.76,13.275,7.426l4.53-4.561A1.07,1.07,0,0,0,17.916,1.4a1.043,1.043,0,0,0-1.571-.081L11.77,5.887,9.8,3.922A.592.592,0,0,0,9.382,3.752ZM9.5,11A1.5,1.5,0,1,1,11,9.5,1.5,1.5,0,0,1,9.5,11Zm0-2a.5.5,0,1,0,.5.5A.5.5,0,0,0,9.5,9ZM14,15.5A1.5,1.5,0,1,1,15.5,14,1.5,1.5,0,0,1,14,15.5Zm0-2a.5.5,0,1,0,.5.5A.5.5,0,0,0,14,13.5Z" class="aw-theme-iconOutline" fill="#464646"/>
  </g>
</svg>
