<svg version="1.1" id="Livello_2" xmlns="http://www.w3.org/2000/svg" xmlns:xlink="http://www.w3.org/1999/xlink" x="0px" y="0px"
	  viewBox="0 0 24 24" enable-background="new 0 0 24 24" xml:space="preserve">
<path id="rect827" class="aw-theme-iconOutline" fill="#464646" d="M21.379,1.569c0.601,0.722,0.136,2.145-1.042,3.19l-0.911,0.81
	c-1.179,1.046-2.611,1.307-3.212,0.586c-0.601-0.722-0.136-2.145,1.042-3.19l0.911-0.81C19.346,1.109,20.777,0.849,21.379,1.569z"/>
<path id="rect831" class="aw-theme-iconOutline" fill="#464646" stroke="#464646" stroke-width="0.0132" d="M16.321,2.832l3.087,3.714
	c0.399,0.48,0.334,1.188-0.146,1.587c-0.479,0.398-1.188,0.333-1.586-0.146l-3.088-3.714c-0.398-0.479-0.333-1.188,0.146-1.586
	C15.215,2.287,15.922,2.353,16.321,2.832z"/>
<path id="rect833" class="aw-theme-iconOutline" fill="#464646" d="M3.958,15.284c-0.747,0.711-0.826,1.939-0.177,2.756
	c0.649,0.817,1.773,0.903,2.52,0.192L17.988,7.125c0.748-0.71,0.826-1.938,0.178-2.756c-0.649-0.816-1.773-0.902-2.521-0.192
	L3.958,15.284z M4.739,16.268L16.427,5.16c0.249-0.237,0.624-0.208,0.84,0.063c0.217,0.271,0.19,0.682-0.059,0.918L5.52,17.249
	c-0.249,0.236-0.624,0.207-0.84-0.063C4.463,16.914,4.49,16.505,4.739,16.268L4.739,16.268z"/>
<path id="path847" class="aw-theme-iconOutline" fill="#464646" d="M3.881,18.376c0,0-1.03,1.191-1.299,1.881
	c-0.177,0.454-0.289,0.957-0.182,1.426c0.077,0.337,0.262,0.688,0.572,0.908c0.239,0.17,0.577,0.255,0.889,0.246
	c0.318-0.008,0.649-0.12,0.887-0.299c0.266-0.201,0.438-0.503,0.508-0.799c0.115-0.486,0-1.008-0.172-1.482
	C4.837,19.574,3.881,18.376,3.881,18.376L3.881,18.376z M3.83,19.931c0,0,0.402,0.55,0.506,0.861
	c0.072,0.217,0.121,0.454,0.072,0.676c-0.029,0.136-0.101,0.273-0.213,0.365c-0.1,0.082-0.24,0.134-0.373,0.137
	c-0.131,0.004-0.273-0.034-0.373-0.113c-0.13-0.101-0.21-0.261-0.242-0.414c-0.045-0.215,0.004-0.443,0.078-0.65
	C3.398,20.477,3.83,19.931,3.83,19.931L3.83,19.931z"/>
</svg>
