<svg version="1.1" id="Livello_2" xmlns="http://www.w3.org/2000/svg" xmlns:xlink="http://www.w3.org/1999/xlink" x="0px" y="0px"
	 viewBox="0 0 16 16" enable-background="new 0 0 16 16" xml:space="preserve">
<path id="path891" class="aw-theme-iconOutline" fill="#464646" d="M12.886,0.472c-0.352,0.007-0.701,0.148-0.965,0.422L6.269,6.738
	C5.863,6.62,5.4,6.53,4.983,6.529c-2.485,0-4.5,2.015-4.5,4.5c0,2.485,2.015,4.5,4.5,4.5s4.5-2.015,4.5-4.5
	C9.482,10.638,9.405,10.2,9.302,9.817l1.182-1.22V8.529v-2h2v-1v-1h2l0.707-0.744c0.529-0.546,0.373-1.32-0.178-1.844L13.87,0.853
	C13.595,0.591,13.237,0.465,12.886,0.472z M12.942,1.457c0.229-0.005,0.468,0.156,0.646,0.326l0.709,0.711
	c0.354,0.336,0.169,0.684-0.168,1.035h-1.646h-1v1v1h-1h-1v1v1.674l-1.32,1.365c0.161,0.354,0.263,0.73,0.301,1.117l0.01-0.01
	c0.008,0.111,0.009,0.252,0.01,0.354c0,1.934-1.567,3.5-3.5,3.5s-3.5-1.566-3.5-3.5c0-1.933,1.567-3.5,3.5-3.5
	c0.162,0.001,0.38,0.014,0.541,0.037l0.002-0.002c0.329,0.052,0.65,0.148,0.951,0.291l5.848-6.045
	C12.497,1.633,12.714,1.461,12.942,1.457z M4.546,9.868c-0.966,0-1.75,0.784-1.75,1.75c0,0.967,0.784,1.75,1.75,1.75l0,0
	c0.966,0,1.75-0.783,1.75-1.75l0,0C6.296,10.652,5.512,9.868,4.546,9.868z M4.536,10.868c0.414,0,0.75,0.336,0.75,0.75l0,0
	c0,0.414-0.336,0.75-0.75,0.75l0,0c-0.414,0-0.75-0.336-0.75-0.75l0,0C3.786,11.204,4.122,10.868,4.536,10.868L4.536,10.868z"/>
</svg>
