<svg id="Image" xmlns="http://www.w3.org/2000/svg" viewBox="0 0 24 24">
  <path d="M1,1V23H23V1ZM22,22H2V2H22ZM12.292,7.5A.461.461,0,0,1,12.7,7h7.675a.461.461,0,0,1,.408.5.461.461,0,0,1-.408.5H12.7A.461.461,0,0,1,12.292,7.5ZM6.656,11.359h0c.007,0,.016,0,.023.006a.451.451,0,0,0,.453,0c.008,0,.017,0,.024-.006L10.208,9.6a.5.5,0,0,0,.25-.433V5.651c0-.009-.006-.016-.006-.024a.5.5,0,0,0-.06-.222v0a.506.506,0,0,0-.166-.166c-.007,0-.01-.012-.017-.016L7.152,3.453a.5.5,0,0,0-.5,0L3.607,5.217h0c-.007,0-.01.012-.016.016a.494.494,0,0,0-.167.167v0a.5.5,0,0,0-.06.222c0,.009-.006.016-.006.024V9.162a.5.5,0,0,0,.249.433Zm-2.3-4.842.131.076L6.407,7.7V10.06L4.356,8.874ZM7.407,10.06V7.7L9.458,6.518V8.874ZM8.958,5.651,8.5,5.915l-.015,0-1.58.914L5.327,5.92l-.013,0-.46-.266L6.9,4.464Zm3.334,11.037a.46.46,0,0,1,.408-.5h7.675a.51.51,0,0,1,0,1H12.7A.461.461,0,0,1,12.292,16.688ZM6.656,20.547c.008,0,.016,0,.024.006a.487.487,0,0,0,.227.061.481.481,0,0,0,.225-.06.227.227,0,0,0,.025-.006v0l3.05-1.764a.5.5,0,0,0,.25-.432V14.838c0-.009-.006-.016-.006-.024a.5.5,0,0,0-.059-.22l-.006-.011a.5.5,0,0,0-.161-.161c-.007-.005-.01-.013-.018-.018h0L7.152,12.641a.5.5,0,0,0-.5,0L3.608,14.4h0c-.007.005-.01.013-.017.018a.489.489,0,0,0-.162.161l0,0,0,.007a.492.492,0,0,0-.059.219c0,.008-.006.015-.006.024V18.35a.5.5,0,0,0,.249.432Zm-2.3-4.842,1.422.822.629.364v2.356L4.356,18.062Zm5.1,2.357L7.407,19.247V16.891l.615-.356,1.436-.83Zm-.5-3.224-.461.267-.01,0-1.58.913-1.581-.913-.01,0-.462-.267L6.9,13.651Z" class="aw-theme-iconOutline" fill="#464646"/>
</svg>
