<svg version="1.1" id="Livello_3" xmlns="http://www.w3.org/2000/svg" xmlns:xlink="http://www.w3.org/1999/xlink" x="0px" y="0px"
	 viewBox="0 0 24 24" enable-background="new 0 0 24 24" xml:space="preserve">
<path id="path2" class="aw-theme-iconOutline" fill="#464646" d="M2.89,2.001c-1.038,0-1.873,0.844-1.873,1.893v16.213c0,1.049,0.835,1.893,1.873,1.893h16.188
	c1.038,0,1.943-0.844,1.936-1.893l0.004-8.105h-1.035l0.035,7.611c-0.004,0.953-0.318,1.396-1.262,1.395L3.306,20.991
	c-0.944-0.001-1.287-0.27-1.289-1.223V4.001c-0.002-0.953,0.421-1.004,1.365-1H3.71h14.307v-1H2.89z M19.87,3.45
	c-0.375,0-0.751,0.151-1.051,0.451L8.021,14.7c-0.1,0.1-0.102,0.102-0.102,0.201l-1.5,4.5c-0.1,0.2,0.001,0.4,0.102,0.5
	s0.198,0.1,0.398,0.1H7.12l4.5-1.5c0.1,0,0.099-0.1,0.199-0.1L22.62,7.601c0.5-0.5,0.5-1.5-0.1-2.1l-1.602-1.6
	C20.619,3.602,20.245,3.45,19.87,3.45z M19.87,4.552c0.125,0,0.25,0.048,0.35,0.148l1.6,1.602c0.2,0.1,0.2,0.499,0,0.699l-0.9,0.9
	L18.62,5.601l0.9-0.9C19.62,4.6,19.745,4.552,19.87,4.552z M17.919,6.302l2.301,2.299l-8.801,8.801L9.12,15.101L17.919,6.302z
	 M8.62,16.001l1.9,1.9l-2.801,0.9L8.62,16.001z"/>
</svg>
