<svg version="1.1" id="Layer_1" xmlns="http://www.w3.org/2000/svg" xmlns:xlink="http://www.w3.org/1999/xlink" x="0px" y="0px"
	 viewBox="0 0 24 24" enable-background="new 0 0 24 24" xml:space="preserve">
<path class="aw-theme-iconOutline" fill="#464646" d="M23.6,6.4c-0.3-0.2-0.6-0.2-0.9-0.1C21.8,6.6,21,7.2,20.5,8h-6.2c-1.3-2.3-3.7-4-5.9-4C8.2,4,8,4.2,8,4.5V11
	H0v1h8v6.5C8,18.8,8.2,19,8.5,19c2.1,0,4.6-1.7,5.9-4h6.2c0.5,0.8,1.2,1.4,2.1,1.7c0.3,0.1,0.7,0.1,0.9-0.1c0.3-0.2,0.4-0.5,0.4-0.8
	V7.2C24,6.9,23.8,6.6,23.6,6.4z M23,15.8c-0.7-0.2-1.4-0.8-1.7-1.5C21.2,14.1,21,14,20.8,14h-6.8c-0.2,0-0.4,0.1-0.4,0.3
	c-0.9,1.9-2.9,3.4-4.6,3.7V5c1.7,0.3,3.7,1.8,4.6,3.7C13.7,8.9,13.9,9,14.1,9h6.8c0.2,0,0.4-0.1,0.5-0.3c0.3-0.7,1-1.3,1.7-1.5V15.8
	z"/>
</svg>
