<svg id="Image" xmlns="http://www.w3.org/2000/svg" viewBox="0 0 24 24">
  <path d="M13.177,23.668a.5.5,0,0,1-.5-.5V13.173a.5.5,0,0,1,.253-.435l8.823-5.022a.5.5,0,0,1,.5,0,.5.5,0,0,1,.249.432v9.993a.5.5,0,0,1-.253.434L13.424,23.6A.5.5,0,0,1,13.177,23.668Zm.5-10.2v8.844L21.5,17.852V9.01Zm-2.853,10.2a.485.485,0,0,1-.248-.066L1.752,18.55a.5.5,0,0,1-.252-.434V8.126a.5.5,0,0,1,.748-.434l8.824,5.047a.5.5,0,0,1,.252.434v9.988a.5.5,0,0,1-.5.5ZM2.5,17.826,10.324,22.3V13.463L2.5,8.988Zm9.5-6.16a.5.5,0,0,1-.249-.066L2.921,6.546a.5.5,0,0,1,0-.868L11.752.628a.5.5,0,0,1,.5,0L21.1,5.691a.5.5,0,0,1,0,.869L12.247,11.6A.494.494,0,0,1,12,11.666ZM4.176,6.112,12,10.59l7.841-4.466L12,1.639Z" class="aw-theme-iconOutline" fill="#464646"/>
</svg>
