<svg id="Image" xmlns="http://www.w3.org/2000/svg" viewBox="0 0 24 24">
  <path d="M15.316,11.071v-1.2a.5.5,0,0,0-1,0v1.2H13.5v-1.2a.5.5,0,0,0-.5-.5h0a.5.5,0,0,0-.5.5v1.2h-.817v-1.2a.5.5,0,0,0-.5-.5h0a.5.5,0,0,0-.5.5v1.2H9.865v-1.2a.5.5,0,0,0-.5-.5h0a.5.5,0,0,0-.5.5v1.2l-1.712,0-.007,9.691,9.691.008.007-9.691Zm.522,8.691-7.691-.006.006-7.691h.8a.491.491,0,0,0,.413.234h0a.493.493,0,0,0,.413-.233h.991a.492.492,0,0,0,.413.235h0a.494.494,0,0,0,.413-.234h.991A.492.492,0,0,0,13,12.3h0a.491.491,0,0,0,.413-.234H14.4a.48.48,0,0,0,.825,0h.616ZM11.027,15h-1.6V14h1.6Zm0,3.307h-1.6v-1h1.6Zm3.71-4.542-1.418,1.615-.2.231-1.384-1.216.405-.461.923.81,1.215-1.384Zm-.026,3.151L13.29,18.527l-.2.231L11.7,17.542l.405-.461.923.81,1.215-1.384ZM19.883,5,19.15,1.4,8.517,4,7.783,2.6a1.273,1.273,0,0,0-1.1-.6h-4.4A1.314,1.314,0,0,0,1,3.4V23H23V5Zm2.2,1V8h-1.65l-.366-2ZM19.517,8H4.483L4.117,6.1l14.3-3.5ZM1.917,3.4A.413.413,0,0,1,2.283,3H6.775a.87.87,0,0,1,.275.1L7.6,4.2,3.017,5.3,3.567,8H1.917ZM22.083,22H1.917V9H22.083Z" class="aw-theme-iconOutline" fill="#464646"/>
</svg>
