<svg id="Image" xmlns="http://www.w3.org/2000/svg" viewBox="0 0 24 24">
  <path d="M16.021,2.5H5.952a3,3,0,1,0,0,1H16.021ZM3,5A2,2,0,1,1,5,3,2,2,0,0,1,3,5ZM13.019,7.04a3,3,0,0,0-2.951,2.5H0v1H10.068a3,3,0,1,0,2.951-3.5Zm0,5a2,2,0,1,1,2-2A2,2,0,0,1,13.019,12.043ZM13.614,24a3.616,3.616,0,0,1-2.557-6.17c.431-.43.8-.8,1.122-1.136,1.631-1.664,2.122-2.165,3.381-2.347a3.608,3.608,0,0,1,4.1,3.041l0,.031-.99.137a2.605,2.605,0,0,0-2.936-2.225l-.034.005c-.9.13-1.222.438-2.8,2.05-.333.34-.7.718-1.136,1.15a2.618,2.618,0,0,0,0,3.7,2.678,2.678,0,0,0,3.7,0l2.216-2.211.709.705L16.17,22.94A3.6,3.6,0,0,1,13.614,24Zm4.33-4.3a3.641,3.641,0,0,1-3.606-3.12l.991-.134A2.636,2.636,0,0,0,17.944,18.7a2.534,2.534,0,0,0,1.823-.77l2.469-2.468a2.618,2.618,0,0,0,0-3.7,2.678,2.678,0,0,0-3.7,0L16.32,13.973l-.709-.7L17.83,11.06a3.7,3.7,0,0,1,5.113,0,3.616,3.616,0,0,1,0,5.111l-2.469,2.468A3.513,3.513,0,0,1,17.944,19.7Z" class="aw-theme-iconOutline" fill="#464646"/>
</svg>
