<svg id="Layer_1" data-name="Layer 1" xmlns="http://www.w3.org/2000/svg" viewBox="0 0 24 24">
  <g id="g823">
    <path id="path2" d="M18.5,20H.5a.5.5,0,0,1-.435-.746L5.636,9.4l.87.492L1.357,19H17.641L9.065,3.89l.87-.493,9,15.857a.5.5,0,0,1-.189.681A.5.5,0,0,1,18.5,20Z" class="aw-theme-iconOutline" fill="#464646"/>
    <path id="path4" d="M21.154,7.143a.5.5,0,0,0,.7.719l.012-.012,1.992-1.992a.5.5,0,0,0,0-.707l-2-2a.5.5,0,0,0-.707.707L22.289,5H13V6h9.3Z" class="aw-theme-iconOutline" fill="#464646"/>
    <path id="path6" d="M18.148,9.15a.5.5,0,0,1,.707.707L17.713,11H24v1H17.7l1.143,1.143a.5.5,0,1,1-.694.719l-.013-.012-1.992-1.992a.5.5,0,0,1,0-.707Z" class="aw-theme-iconOutline" fill="#464646"/>
    <path id="path8" d="M21.854,15.15a.5.5,0,0,0-.707.707L22.289,17H19v1h3.3l-1.143,1.143a.5.5,0,1,0,.7.719l.012-.012,1.992-1.992a.5.5,0,0,0,0-.707Z" class="aw-theme-iconOutline" fill="#464646"/>
  </g>
</svg>
