<svg id="Image" xmlns="http://www.w3.org/2000/svg" viewBox="0 0 16 16">
  <path d="M12.987,3,12.55.7,5.9,2.4l-.438-.9A.9.9,0,0,0,4.675,1H1.963A1.048,1.048,0,0,0,1,2.1V15H15V3Zm1.138,1V5h-.7L13.25,4ZM12.463,5H3.45l-.175-.9L11.85,1.9ZM1.875,2.1h0L4.763,2l.262.6-2.8.7L2.575,5h-.7ZM14.125,14H1.875V6h12.25ZM10.634,7.5,9.319,7.5l0-.564a.5.5,0,0,0-.5-.5h0a.5.5,0,0,0-.5.5l0,.564-.546,0,0-.564a.516.516,0,0,0-.5-.5.5.5,0,0,0-.5.5l0,.564-1.44.008.033,5.742,5.3-.031ZM6.361,12.262,6.339,8.52l.443,0a.5.5,0,0,0,.5.479h0a.5.5,0,0,0,.494-.485l.553,0a.5.5,0,0,0,.5.479h0A.5.5,0,0,0,9.321,8.5l.318,0,.022,3.742Zm2.994-2.57-1.234,1.43-.177.2L6.718,10.268l.353-.409.817.705L8.946,9.339Z" class="aw-theme-iconOutline" fill="#464646"/>
</svg>
