<svg id="svg8" xmlns="http://www.w3.org/2000/svg" viewBox="0 0 24 24">
  <g id="g838">
    <path id="path2-2" d="M17.5,24a6.487,6.487,0,1,1,.026,0Zm0-12A5.5,5.5,0,1,0,23,17.5,5.5,5.5,0,0,0,17.5,12Z" class="aw-theme-iconOutline" fill="#464646"/>
    <path id="polygon4" d="M17,21h1V18h3V17H18V14H17v3H14v1h3Z" class="aw-theme-iconOutline" fill="#464646"/>
    <path id="path839" d="M7.444.019Q6.582.006,5.72.078A6.982,6.982,0,0,0,1,1.989a3.455,3.455,0,0,0-.941,1.7C0,3.889,0,4.276,0,9.13v5.224l.09.318a3.759,3.759,0,0,0,.519,1.1c1.1,1.542,3.441,2.546,6.2,2.646a12.5,12.5,0,0,0,3.005-.3l.289-.064-.043-.149c-.027-.082-.081-.289-.127-.463s-.09-.326-.09-.326a2.933,2.933,0,0,0-.335.071,11.3,11.3,0,0,1-2.67.255A7.715,7.715,0,0,1,1.827,15.7a2.825,2.825,0,0,1-.65-.864c-.21-.46-.2-.136-.211-4.466L.956,6.442l.309.26A8.755,8.755,0,0,0,6.232,8.5a15.857,15.857,0,0,0,2.541-.063,10.892,10.892,0,0,0,2.3-.556,7.255,7.255,0,0,0,2.106-1.229l.228-.212v4.4h.974V7.477c0-3.578,0-3.626-.154-4.068a3.839,3.839,0,0,0-.437-.847,5.437,5.437,0,0,0-1.045-1.016,7.407,7.407,0,0,0-1.707-.89A11.22,11.22,0,0,0,8.613.078Q8.03.028,7.444.019ZM6.9,1c.565-.008,1.131.011,1.694.059A7.108,7.108,0,0,1,12.653,2.75a2.182,2.182,0,0,1,.728,1.28c.151.975-.616,1.98-2.032,2.669a9.119,9.119,0,0,1-2.7.776,20.326,20.326,0,0,1-2.529.041A8.462,8.462,0,0,1,2.233,6.232a4.473,4.473,0,0,1-.955-.963A1.816,1.816,0,0,1,1,3.946,3.484,3.484,0,0,1,3.055,1.762a8.6,8.6,0,0,1,2.683-.7Q6.32,1.008,6.9,1Z" class="aw-theme-iconOutline" fill="#464646"/>
  </g>
</svg>
