<svg id="Layer_1" data-name="Layer 1" xmlns="http://www.w3.org/2000/svg" viewBox="0 0 24 24">
  <g id="g825">
    <path id="path2" d="M8,24a.24.24,0,0,1-.16-.04.35.35,0,0,1-.24-.36V19H3.4A3.573,3.573,0,0,1,0,15.4V3.4A3.4,3.4,0,0,1,3.4,0H20.6A3.4,3.4,0,0,1,24,3.4v12A3.54,3.54,0,0,1,20.6,19H13.36L8.28,23.88A.373.373,0,0,1,8,24ZM3.4,1A2.267,2.267,0,0,0,1,3.4v12A2.432,2.432,0,0,0,3.4,18H8.214a.377.377,0,0,1,.4.4l-.045,3.816,4.251-4.1A.368.368,0,0,1,13.1,18h7.5A2.432,2.432,0,0,0,23,15.4V3.4A2.267,2.267,0,0,0,20.6,1Z" class="aw-theme-iconOutline" fill="#464646"/>
    <path id="path4" d="M11.5,13.973a.425.425,0,0,1-.45-.451V11.991a3.019,3.019,0,0,1,1.757-2.748,3.094,3.094,0,0,0-.721-5.857,3.1,3.1,0,0,0-2.568.676A3.038,3.038,0,0,0,8.4,6.45a.451.451,0,0,1-.9,0A4.054,4.054,0,0,1,8.937,3.386a3.939,3.939,0,0,1,3.288-.856,4.086,4.086,0,0,1,3.244,3.244,4.08,4.08,0,0,1-2.253,4.37A2.129,2.129,0,0,0,12,12.081v1.531A.5.5,0,0,1,11.5,13.973Z" class="aw-theme-iconOutline" fill="#464646"/>
    <path id="circle6" d="M12.18,15.955a.676.676,0,1,1-.676-.676A.676.676,0,0,1,12.18,15.955Z" class="aw-theme-iconOutline" fill="#464646"/>
  </g>
</svg>
