<svg version="1.1" id="Livello_2" xmlns="http://www.w3.org/2000/svg" xmlns:xlink="http://www.w3.org/1999/xlink" x="0px" y="0px"
	  viewBox="0 0 24 24" enable-background="new 0 0 24 24" xml:space="preserve">
<path id="path954" class="aw-theme-iconOutline" fill="#464646" d="M0.604,0C0.27,0.008,0,0.278,0,0.613v0.008v22.766C0,23.725,0.273,24,0.611,24h22.746
	c0.009,0.001,0.02,0,0.029,0C23.725,24,24,23.726,24,23.387s-0.275-0.613-0.613-0.613c-0.01,0-0.021,0.001-0.031,0.002H1.223V0.621
	V0.613C1.223,0.274,0.95,0,0.611,0H0.604z M6.563,1.496v0.701H6.91V1.496H6.563z M13.561,1.496v0.701h0.35V1.496H13.561z
	 M20.561,1.496v0.701h0.348V1.496H20.561z M6.563,2.896v0.701H6.91V2.896H6.563z M13.561,2.896v0.701h0.35V2.896H13.561z M19.949,3
	c-0.514,0.013-1.023,0.222-1.402,0.621c-0.322,0.34-0.493,0.767-0.531,1.203h-0.432v0.348h0.43c0.038,0.453,0.226,0.893,0.566,1.236
	l-2.084,2.979l-1.5-0.34c0.013-0.524-0.174-1.052-0.566-1.451C14.045,7.203,13.531,7.005,13.018,7s-1.03,0.185-1.422,0.57
	c-0.636,0.625-0.756,1.579-0.371,2.338L8.58,13.484L6.984,13.18c0.052-0.59-0.146-1.197-0.605-1.633
	C5.98,11.168,5.463,10.986,4.949,11c-0.514,0.013-1.023,0.222-1.402,0.621c-0.757,0.798-0.726,2.074,0.072,2.832
	s2.077,0.723,2.834-0.074c0.086-0.092,0.159-0.191,0.225-0.293v0.004l1.275,0.242L5.84,17.189C5.579,17.07,5.3,17.002,5.018,17
	c-0.514-0.005-1.029,0.186-1.422,0.57c-0.785,0.771-0.796,2.047-0.025,2.832S5.617,21.2,6.402,20.43
	c0.717-0.705,0.782-1.827,0.201-2.615l2.424-3.277l1.982,0.377c-0.023,0.56,0.177,1.127,0.611,1.539
	c0.533,0.506,1.277,0.65,1.939,0.459v0.697h0.35v-0.701h-0.336c0.324-0.096,0.631-0.268,0.879-0.529
	c0.678-0.715,0.718-1.811,0.146-2.576l2.338-3.342l2.068,0.471c-0.018,0.53,0.166,1.067,0.564,1.473
	c0.771,0.785,2.047,0.796,2.832,0.025c0.785-0.771,0.799-2.05,0.027-2.834C22.045,9.203,21.531,9.005,21.018,9
	s-1.029,0.185-1.422,0.57c-0.137,0.134-0.24,0.286-0.33,0.445l-1.74-0.395l1.896-2.713c0.702,0.208,1.496,0.034,2.031-0.529
	c0.758-0.798,0.724-2.074-0.074-2.832C20.98,3.168,20.463,2.986,19.949,3z M19.975,4.002c0.254-0.007,0.51,0.087,0.711,0.279
	c0.402,0.383,0.42,1,0.039,1.404c-0.383,0.403-1.006,0.421-1.41,0.039c-0.404-0.384-0.42-1.007-0.037-1.41
	C19.469,4.112,19.721,4.008,19.975,4.002z M6.563,4.297v0.701H6.91V4.297H6.563z M13.561,4.297v0.527h-0.176v0.348h0.701V4.824
	H13.91V4.297H13.561z M2.361,4.824v0.348h0.525V4.824H2.361z M3.588,4.824v0.348h0.697V4.824H3.588z M4.986,4.824v0.348h0.701V4.824
	H4.986z M7.787,4.824v0.348h0.699V4.824H7.787z M9.186,4.824v0.348h0.701V4.824H9.186z M10.586,4.824v0.348h0.699V4.824H10.586z
	 M11.984,4.824v0.348h0.699V4.824H11.984z M14.785,4.824v0.348h0.699V4.824H14.785z M16.186,4.824v0.348h0.699V4.824H16.186z
	 M6.563,5.697v0.701H6.91V5.697H6.563z M13.561,5.697v0.701h0.35V5.697H13.561z M6.563,7.1v0.699H6.91V7.1H6.563z M20.561,7.1v0.699
	h0.348V7.1H20.561z M13.008,8c0.254,0.002,0.508,0.103,0.703,0.301S14.002,8.754,14,9.008l-0.088,0.389
	c-0.051,0.113-0.12,0.221-0.215,0.314c-0.396,0.391-1.019,0.385-1.408-0.016c-0.391-0.397-0.385-1.02,0.012-1.41v0.004
	C12.5,8.094,12.754,7.998,13.008,8z M6.563,8.5v0.703H6.91V8.5H6.563z M6.563,9.902v0.701H6.91V9.902H6.563z M14.744,9.963
	l1.164,0.266l-2.072,2.963c-0.281-0.129-0.583-0.199-0.887-0.191c-0.514,0.014-1.023,0.223-1.402,0.621
	c-0.11,0.115-0.199,0.244-0.275,0.377l-1.617-0.309l2.236-3.021c0.771,0.51,1.828,0.433,2.512-0.238
	C14.545,10.29,14.652,10.13,14.744,9.963z M21.008,10c0.254,0.002,0.508,0.103,0.703,0.301c0.391,0.398,0.383,1.02-0.014,1.41
	s-1.019,0.385-1.408-0.016c-0.391-0.398-0.385-1.02,0.012-1.41v0.004C20.5,10.094,20.754,9.998,21.008,10z M2.361,10.078v0.348
	h0.525v-0.348H2.361z M3.588,10.078v0.348h0.697v-0.348H3.588z M4.986,10.078v0.348h0.701v-0.348H4.986z M7.787,10.078v0.348h0.699
	v-0.348H7.787z M9.186,10.078v0.348h0.701v-0.348H9.186z M13.561,11.305v0.701h0.35v-0.701H13.561z M4.975,12.002
	c0.253-0.007,0.509,0.084,0.711,0.275c0.404,0.383,0.421,1.004,0.037,1.408c-0.383,0.404-1.006,0.422-1.41,0.039
	s-0.417-1.006-0.033-1.41C4.471,12.113,4.721,12.009,4.975,12.002z M12.975,14.002c0.254-0.007,0.509,0.084,0.711,0.275
	c0.404,0.383,0.422,1.004,0.037,1.408c-0.383,0.404-1.004,0.422-1.408,0.039s-0.42-1.006-0.037-1.41
	C12.469,14.113,12.721,14.009,12.975,14.002z M20.561,14.105v0.701h0.348v-0.701H20.561z M20.561,15.506v0.699h0.348v-0.699H20.561z
	 M2.361,16.207v0.35h0.525v-0.35H2.361z M3.588,16.207v0.35h0.697v-0.35H3.588z M9.186,16.207v0.35h0.701v-0.35H9.186z
	 M10.586,16.207v0.35h0.699v-0.35H10.586z M16.186,16.207v0.35h0.699v-0.35H16.186z M17.584,16.207v0.35h0.701v-0.35H17.584z
	 M18.984,16.207v0.35h0.701v-0.35H18.984z M20.385,16.207v0.35h0.699v-0.35H20.385z M21.783,16.207v0.35h0.701v-0.35H21.783z
	 M20.561,16.908v0.701h0.348v-0.701H20.561z M5.008,18c0.254,0.002,0.508,0.103,0.703,0.301c0.39,0.398,0.384,1.02-0.014,1.41
	c-0.397,0.391-1.018,0.383-1.408-0.012c-0.39-0.398-0.385-1.018,0.012-1.408v-0.002C4.499,18.094,4.754,17.998,5.008,18z
	 M13.561,18.307v0.703h0.35v-0.703H13.561z M20.561,18.307v0.703h0.348v-0.703H20.561z M13.561,19.711v0.699h0.35v-0.699H13.561z
	 M20.561,19.711v0.699h0.348v-0.699H20.561z M6.563,21.111v0.525H6.91v-0.525H6.563z M13.561,21.111v0.525h0.35v-0.525H13.561z
	 M20.561,21.111v0.525h0.348v-0.525H20.561z"/>
</svg>
