<svg id="Image" xmlns="http://www.w3.org/2000/svg" viewBox="0 0 24 24">
  <path d="M17.5,6a6.007,6.007,0,0,0-6,6H11.5a5,5,0,1,1-5-5c.114,0,.22.026.332.034l-1.912,2,.676.707L7.976,7.249l.4-.423a.4.4,0,0,0,.022-.5c-.011-.017-.007-.04-.022-.056L5.554,3.309l-.675.706L6.738,5.961l0,.058C6.66,6.015,6.58,6,6.5,6a6,6,0,1,0,6,6H12.5a5,5,0,1,1,5,5c-.114,0-.221-.026-.332-.034l1.912-2-.676-.707-2.383,2.493-.4.423a.4.4,0,0,0-.022.5c.011.017.007.04.022.056l2.825,2.956.675-.706-1.859-1.946,0-.058c.083,0,.163.019.246.019a6,6,0,0,0,0-12Z" class="aw-theme-iconOutline" fill="#464646"/>
</svg>
