<svg id="Verb_Zone" xmlns="http://www.w3.org/2000/svg" viewBox="0 0 24 24">
  <g id="g816">
    <path id="path2" d="M16.27,0V8.027h-.581L11.113,4.555V8.027h-.984L5.555,4.555V8.027H4.574L0,4.555V18.8H10.9a7.952,7.952,0,0,1-.252-.867H.92V6.367L4,8.705l.254.191H6.475V6.367L9.553,8.705l.254.191h2.222V6.367l3.08,2.338.252.191h.246a7.728,7.728,0,0,1,1.581-.376V.865H19.3V8.533a7.788,7.788,0,0,1,.918.19V0ZM13.846,9.785a1.5,1.5,0,0,0-1.078.875A7.749,7.749,0,0,1,13.846,9.785ZM3.8,10.439a1.462,1.462,0,1,0,.068,2.919,1.589,1.589,0,0,0,1.131-.5l2.322.643c-.007.073-.021.142-.021.217a2.39,2.39,0,0,0,.172.865l-.842.463a1.587,1.587,0,0,0-2.131-.333,1.386,1.386,0,0,0-.354,2.007,1.587,1.587,0,0,0,2.131.333,1.41,1.41,0,0,0,.639-1.171.882.882,0,0,0-.012-.114l.956-.525a2.74,2.74,0,0,0,2.589.959v-.012q0-.384.039-.767a2.017,2.017,0,0,1-.507.068h0a1.867,1.867,0,0,1-1.881-1.773,1.82,1.82,0,0,1,1.867-1.77,1.922,1.922,0,0,1,1.4.588,7.915,7.915,0,0,1,.412-.685A2.781,2.781,0,0,0,8.007,12a2.5,2.5,0,0,0-.513.765L5.35,12.17a1.425,1.425,0,0,0,.027-.26,1.5,1.5,0,0,0-1.538-1.471Zm.019.782a.718.718,0,0,1,.765.663v.028c0,.015-.009.027-.01.041a.69.69,0,0,1-.59.623.666.666,0,0,1-.134.029.693.693,0,1,1-.032-1.384ZM5.273,15.2a.9.9,0,0,1,.1,0,.706.706,0,0,1,.661.756.715.715,0,0,1-.661.623.725.725,0,0,1-.811-.613.7.7,0,0,1,.65-.764Z" class="aw-theme-iconOutline" fill="#464646"/>
    <path id="path2-6" d="M12.844,18a5.118,5.118,0,1,0,5.118-5.148H15.856L17.9,14.911l-.651.656-3.164-3.183L17.159,9.2l.744.748-2.047,1.966h2.106A6.084,6.084,0,1,1,11.914,18Z" class="aw-theme-iconOutline" fill="#464646"/>
  </g>
</svg>
