<svg id="Verb_Zone" xmlns="http://www.w3.org/2000/svg" viewBox="0 0 24 24">
  <g id="g829">
    <path id="rect814" d="M.027,18.692,12.886,4.8h0L15,6.673h0L2.141,20.562h0Z" class="aw-theme-iconOutline" fill="#464646"/>
    <path id="rect833" d="M12.43,5.283l2.057,1.944,3.938-4.239L16.446.979Zm1.348-.278,2.677-2.789.836.837L14.655,5.841Z" class="aw-theme-iconOutline" fill="#464646"/>
    <path id="path840" d="M9.635,4.85,8.484,4.122l-1.148.731L7.719,3.6l-1.1-.8L8.01,2.761l.471-1.224L8.955,2.76l1.389.04-1.1.8Z" class="aw-theme-iconOutline" fill="#464646"/>
    <path id="path840-4" d="M14,2.1l-.6-.447-.605.449.2-.769L12.417.844l.729-.028.248-.753.248.753.729.023-.575.493Z" class="aw-theme-iconOutline" fill="#464646"/>
    <path id="path840-4-4" d="M19.563,6.84l-.605-.448-.6.45.2-.77-.577-.491.729-.027.247-.753.249.753.729.024-.574.492Z" class="aw-theme-iconOutline" fill="#464646"/>
    <path id="path840-4-3-7" d="M17.981,9.312l-.605-.448-.6.45.2-.769L16.4,8.054l.728-.028.249-.753.249.752.729.024-.575.493Z" class="aw-theme-iconOutline" fill="#464646"/>
    <path id="path2" d="M23.1,18.284a4.755,4.755,0,1,1-4.755-4.847H20.77l-1.9,1.939.605.617,2.939-3L19.56,10l-.692.705,1.9,1.851H18.349a5.73,5.73,0,1,0,5.62,5.728Z" class="aw-theme-iconOutline" fill="#464646"/>
  </g>
</svg>
