<svg id="svg8" xmlns="http://www.w3.org/2000/svg" viewBox="0 0 24 24">
  <g id="layer1">
    <g id="g837">
      <path id="path828" d="M4.314,14.175A5.8,5.8,0,0,1,.86,12.684a2.852,2.852,0,0,1-.8-1.376l-.051-.2v-8.1l.051-.206A3.294,3.294,0,0,1,1.918.751a7.043,7.043,0,0,1,2.3-.672A12.3,12.3,0,0,1,6.245.1,7.922,7.922,0,0,1,7.986.543a1.922,1.922,0,0,0,.273.1,6.592,6.592,0,0,1,.814.484A3,3,0,0,1,10.336,2.85l.054.217v8.025l-.062.241a3.464,3.464,0,0,1-1.858,2.13,6.768,6.768,0,0,1-2.2.694,13.235,13.235,0,0,1-1.954.03Zm1.28-.718a5.64,5.64,0,0,0,3.172-1.066,2.416,2.416,0,0,0,.867-1.183l.053-.172.006-3.025L9.7,4.987l-.123.12a5.74,5.74,0,0,1-3.126,1.4,8.828,8.828,0,0,1-2.941-.083A5.63,5.63,0,0,1,.89,5.163L.7,4.989.708,8.024l.006,3.035.064.193a2.284,2.284,0,0,0,.641.966,5.481,5.481,0,0,0,3.323,1.235,3.68,3.68,0,0,0,.852,0Zm.651-7.671A4.893,4.893,0,0,0,9.176,4.464a1.766,1.766,0,0,0,.463-.786,1.7,1.7,0,0,0,0-.713C9.325,1.8,7.6.878,5.563.792A5.7,5.7,0,0,0,1.225,2.151,1.529,1.529,0,0,0,.912,4.059a3.156,3.156,0,0,0,.767.812,4.931,4.931,0,0,0,1.394.67,7.49,7.49,0,0,0,1.491.292,14.135,14.135,0,0,0,1.681-.046Z" class="aw-theme-iconOutline" fill="#464646" stroke="#464646" stroke-linecap="round" stroke-width="0.005"/>
      <path id="path828-9" d="M18.844.058a8.823,8.823,0,0,0-1.01.035,7.038,7.038,0,0,0-2.307.671,3.29,3.29,0,0,0-1.855,2.057l-.051.207c.014,1.175.019,2.488.019,2.488.239.1.216.116.646.291.014.011.023-.682.026-.8l.188.174A5.631,5.631,0,0,0,17.117,6.44a8.808,8.808,0,0,0,2.942.082,5.747,5.747,0,0,0,3.127-1.4L23.309,5,23.3,8.025,23.3,11.05l-.053.172a2.246,2.246,0,0,1-.574.924c.173.164.337.337.494.517a2.94,2.94,0,0,0,.775-1.316L24,11.106V3.081l-.053-.217a3,3,0,0,0-1.263-1.728,6.538,6.538,0,0,0-.815-.483,1.8,1.8,0,0,1-.273-.1A7.868,7.868,0,0,0,19.855.112,8.884,8.884,0,0,0,18.844.059ZM18.494.8c.223-.008.45-.008.68,0,2.035.086,3.761,1.007,4.078,2.173a1.687,1.687,0,0,1,0,.711,1.763,1.763,0,0,1-.465.788A4.89,4.89,0,0,1,19.855,5.8a14.141,14.141,0,0,1-1.681.047,7.547,7.547,0,0,1-1.49-.291,4.992,4.992,0,0,1-1.4-.67,3.171,3.171,0,0,1-.766-.813,1.53,1.53,0,0,1,.313-1.908A5.306,5.306,0,0,1,18.494.8Z" class="aw-theme-iconOutline" fill="#464646" stroke="#464646" stroke-linecap="round" stroke-width="0.005"/>
      <path id="rect1187" d="M6.753,7.82h6.5V9.183h-6.5Z" class="aw-theme-iconOutline" fill="#464646"/>
      <path id="path1189" d="M12.672,10.914l.036-2.422,0-2.422,2.079,1.242,2.1,1.209L14.768,9.7Z" class="aw-theme-iconOutline" fill="#464646"/>
      <path id="path2-2" d="M17.5,24A6.5,6.5,0,1,1,24,17.5,6.487,6.487,0,0,1,17.5,24Zm0-12A5.5,5.5,0,1,0,23,17.5,5.549,5.549,0,0,0,17.5,12Z" class="aw-theme-iconOutline" fill="#464646"/>
      <path id="path830" d="M17.291,13.9v7l2.5-1.75,2.5-1.75-2.5-1.75Zm.83,1.645,1.387.924,1.386.926-1.386.923-1.387.926v-3.7Z" class="aw-theme-iconOutline" fill="#464646"/>
      <path id="path830-6" d="M14.161,13.9v7l2.5-1.75.631-.441v-1l-.914.609-1.387.926v-3.7l1.387.924.914.609v-.986l-.631-.442Z" class="aw-theme-iconOutline" fill="#464646"/>
    </g>
  </g>
</svg>
