<svg id="Livello_1" data-name="Livello 1" xmlns="http://www.w3.org/2000/svg" viewBox="0 0 24 24">
  <g id="g865">
    <path id="path2" d="M12,10.975a.505.505,0,0,1-.354-.146L7.9,7.079,8.6,6.372l3.4,3.4,3.393-3.4.707.707-3.746,3.75A.5.5,0,0,1,12,10.975Z" class="aw-theme-iconOutline" fill="#464646"/>
    <path id="rect4" d="M11.5,2.07h1v8.212h-1Z" class="aw-theme-iconOutline" fill="#464646"/>
    <path id="polygon6" d="M2.5,6h-1V0h6V1h-5Z" class="aw-theme-iconOutline" fill="#464646"/>
    <path id="polygon8" d="M7.5,24h-6V18h1v5h5Z" class="aw-theme-iconOutline" fill="#464646"/>
    <path id="polygon10" d="M22.5,24h-6V23h5V18h1Z" class="aw-theme-iconOutline" fill="#464646"/>
    <path id="polygon12" d="M22.5,6h-1V1h-5V0h6Z" class="aw-theme-iconOutline" fill="#464646"/>
    <path id="path16" d="M15.4,17.7l-3.4-3.4L8.6,17.7,7.9,16.994l3.746-3.75A.5.5,0,0,1,12,13.1h0a.505.505,0,0,1,.354.146l3.754,3.75Z" class="aw-theme-iconOutline" fill="#464646"/>
    <path id="rect18" d="M11.5,13.79h1V22h-1Z" class="aw-theme-iconOutline" fill="#464646"/>
  </g>
</svg>
