<svg id="Image" xmlns="http://www.w3.org/2000/svg" viewBox="0 0 24 24">
  <path d="M10.493,20a7.63,7.63,0,0,0,.462,1H1.581a.5.5,0,0,1-.5-.5V15.128a.5.5,0,0,1,.76-.427A1.967,1.967,0,0,0,2.871,15a2,2,0,1,0,0-4,1.97,1.97,0,0,0-1.031.295.5.5,0,0,1-.759-.428v-5.4a.5.5,0,0,1,.5-.5H5.7A3.846,3.846,0,0,1,5.581,4a4,4,0,0,1,8,0,3.846,3.846,0,0,1-.123.965h3.123a.5.5,0,0,1,.5.5v4.4a7.482,7.482,0,0,0-1,.118V5.965H12.75a.5.5,0,0,1-.454-.71A2.97,2.97,0,0,0,12.581,4a3,3,0,0,0-6,0,2.963,2.963,0,0,0,.285,1.255.5.5,0,0,1-.454.71H2.081v4.141A2.941,2.941,0,0,1,2.871,10a3,3,0,1,1,0,6,2.941,2.941,0,0,1-.79-.109V20ZM21,17H18V14H17v3H14v1h3v3h1V18h3Zm3,.5A6.5,6.5,0,1,0,17.5,24,6.508,6.508,0,0,0,24,17.5Zm-1,0A5.5,5.5,0,1,1,17.5,12,5.506,5.506,0,0,1,23,17.5Z" class="aw-theme-iconOutline" fill="#464646"/>
</svg>
