<svg id="Image" xmlns="http://www.w3.org/2000/svg" viewBox="0 0 24 24">
  <g id="g828">
    <path id="path853" d="M5.1,4.684a.5.5,0,0,0-.5.5v6.433l-3.621.01a.5.5,0,0,0-.494.5v5.82a.5.5,0,0,0,.5.5h1.5a2.139,2.139,0,0,0,4.272,0H9.386a2.139,2.139,0,0,0,4.272,0h.6a.5.5,0,0,0,.5-.5V14.371a.5.5,0,0,0-.5-.5h-.64L10.8,5.031a.5.5,0,0,0-.476-.347Zm4.856,1,2.609,8.179L9.888,13.85l-1.744-.979-1.465-.824A.45.45,0,0,0,6.566,12H6.554l-.515-.143-.44-.121V5.684ZM1.484,12.619H5.033l.035.012,1.164.32,1.6.9,1.672.941h.011l.041.021a.512.512,0,0,0,.244.065h3.454c.014,0,.024-.01.037-.01h.464v2.578h0a2.472,2.472,0,0,0-4.45,0H6.859a2.471,2.471,0,0,0-4.449,0H1.484Zm3.1,4.531a1.15,1.15,0,0,1,1.183,1.116V18.3A1.142,1.142,0,1,1,4.582,17.15Zm6.906,0a1.15,1.15,0,0,1,1.183,1.116c0,.012,0,.023,0,.035a1.143,1.143,0,1,1-1.184-1.151Z" class="aw-theme-iconOutline" fill="#464646"/>
    <path id="path843" d="M22.465,16.3a.5.5,0,0,0-.617-.346h0L17.3,17.239l-4-14.422a.5.5,0,1,0-.973.232l.01.035,4.129,14.9a.5.5,0,0,0,.482.367.48.48,0,0,0,.136-.019L22.12,16.91A.5.5,0,0,0,22.465,16.3Z" class="aw-theme-iconOutline" fill="#464646"/>
    <path id="path841" d="M6.656,6.365a.5.5,0,0,0-.5.5v4a.5.5,0,0,0,.5.5h4.121a.5.5,0,0,0,.5-.5.514.514,0,0,0-.025-.156l-1.321-4a.5.5,0,0,0-.474-.344Zm.5,1H9.093l.991,3H7.156Z" class="aw-theme-iconOutline" fill="#464646"/>
    <path id="rect864" d="M16.313,11.365l1.4,4.762L23.588,14.4,22.19,9.64Zm1.243.683,3.917-1.15.833,2.838-3.917,1.149Z" class="aw-theme-iconOutline" fill="#464646"/>
    <path id="rect864-4" d="M14.646,5.856l1.4,4.762,5.878-1.725-1.4-4.762Zm1.243.683L19.805,5.39l.833,2.837-3.917,1.15Z" class="aw-theme-iconOutline" fill="#464646"/>
  </g>
</svg>
