<svg version="1.1" id="Livello_3" xmlns="http://www.w3.org/2000/svg" xmlns:xlink="http://www.w3.org/1999/xlink" x="0px" y="0px"
	  viewBox="0 0 24 24" enable-background="new 0 0 24 24" xml:space="preserve">
<polygon id="polygon2" class="aw-theme-iconOutline" fill="#464646" points="15,14 15,17.3 5.4,7.6 4.6,8.4 14.3,18 11,18 11,19 16,19 16,14 "/>
<path id="path4" class="aw-theme-iconOutline" fill="#464646" d="M17.7,5H8v2h1V6h8v6h6v11H9v-6H8v7h16V11.3L17.7,5z M18,6.7l4.3,4.3H18V6.7z"/>
<polygon id="polygon6" class="aw-theme-iconOutline" fill="#464646" points="1,1 15,1 15,3 16,3 16,0 0,0 0,19 6,19 6,18 1,18 "/>
</svg>
