<svg version="1.1" id="Artwork" xmlns="http://www.w3.org/2000/svg" xmlns:xlink="http://www.w3.org/1999/xlink" x="0px" y="0px"
	 width="24px" height="24px" viewBox="0 0 24 24" enable-background="new 0 0 24 24" xml:space="preserve">
<path class="aw-theme-iconOutline" fill="#464646" d="M12,14c-1.1,0-2-0.9-2-2s0.9-2,2-2s2,0.9,2,2S13.1,14,12,14z M12,11c-0.6,0-1,0.4-1,1s0.4,1,1,1s1-0.4,1-1
	S12.6,11,12,11z"/>
<path class="aw-theme-iconOutline" fill="#464646" d="M23,12c0,6-4.9,11-11,11C5.9,23,1,18,1,12S5.9,1,12,1c3.3,0,6.4,1.5,8.5,4H17v1h5V5.4l0,0l0,0V1h-1v3
	C18.7,1.5,15.5,0,12,0C5.4,0,0,5.3,0,12s5.4,12,12,12c6.6,0,12-5.4,12-12H23z"/>
</svg>
