<svg id="Image" xmlns="http://www.w3.org/2000/svg" viewBox="0 0 24 24">
  <path d="M7,14.083v1.844H6V14.083H7m1-1H5v3.844H8V13.083Zm3,1v1.844H10V14.083h1m1-1H9v3.844h3V13.083ZM10.5,0a10.5,10.5,0,0,0,0,21V20a9.5,9.5,0,0,1-9.479-9.084l3.5.032h0a.5.5,0,0,0,0-1L1.03,9.916A9.4,9.4,0,0,1,2.083,6.111L5.1,7.89a.5.5,0,1,0,.508-.861L2.59,5.248A9.587,9.587,0,0,1,5.415,2.489L7.13,5.535a.5.5,0,0,0,.436.254.493.493,0,0,0,.245-.064A.5.5,0,0,0,8,5.044L6.286,2A9.432,9.432,0,0,1,10,1.025V4.52a.5.5,0,0,0,1,0V1.02a9.421,9.421,0,0,1,3.817,1.023L13.062,5.075a.5.5,0,0,0,.183.682.49.49,0,0,0,.25.068.5.5,0,0,0,.433-.25l1.751-3.026a9.579,9.579,0,0,1,2.785,2.8l-3.028,1.74a.5.5,0,1,0,.5.867l3.032-1.742a9.436,9.436,0,0,1,.55,1.314c.161-.009.321-.025.484-.025.191,0,.378.017.567.029A10.5,10.5,0,0,0,10.5,0Zm.271,11a.5.5,0,0,0,.149-.691L9.3,7.789a.5.5,0,1,0-.841.541l1.623,2.524a.5.5,0,0,0,.691.15ZM18,12H15.706l2.148-2.15a.5.5,0,1,0-.708-.708l-3,3a.5.5,0,0,0,0,.707l3,3a.5.5,0,1,0,.708-.708L15.708,13H18a5,5,0,1,1-5,5H12a6,6,0,1,0,6-6Z" class="aw-theme-iconOutline" fill="#464646"/>
</svg>
