<svg id="Livello_2" data-name="Livello 2" xmlns="http://www.w3.org/2000/svg" viewBox="0 0 24 24">
  <g id="g883">
    <path id="path944" d="M22.15,5.25a3.647,3.647,0,0,0-2.1,1.221c-.614.622-1.191,1.386-1.815,2.131l-.826.986,1.276-.17A10.538,10.538,0,0,0,22.418,8.35a2.336,2.336,0,0,0,1.379-1.8,1.294,1.294,0,0,0-.26-.887,1.2,1.2,0,0,0-.637-.391A1.709,1.709,0,0,0,22.15,5.25Zm.161.982a1.144,1.144,0,0,1,.341.01.208.208,0,0,1,.112.057c.013.016.041.044.033.2v0c-.012.245-.2.6-.871.977A11.649,11.649,0,0,1,20.057,8c.23-.274.488-.609.707-.83a2.771,2.771,0,0,1,1.511-.936l.018,0Z" class="aw-theme-iconOutline" fill="#464646"/>
    <path id="path942" d="M22.152,5.246l-5.713.725-.1.076a15.4,15.4,0,0,0-2.715,2.869,8.914,8.914,0,0,1-3.814,2.6l0,0c-.115.045-.232.085-.367.134l-1.6.584,1.664.373a10.287,10.287,0,0,0,5.49-.269h0A9.735,9.735,0,0,0,19.365,8.8,20.413,20.413,0,0,1,20.918,7.02a2.512,2.512,0,0,1,1.354-.782h.007l-.121-.992-.006,0ZM20.029,6.523c-.487.5-.953,1.055-1.437,1.647a8.979,8.979,0,0,1-3.9,3.215h0l0,0a9.221,9.221,0,0,1-3.266.392,10.405,10.405,0,0,0,2.959-2.207,15.9,15.9,0,0,1,2.484-2.648Z" class="aw-theme-iconOutline" fill="#464646"/>
    <path id="path38" d="M7.311.115A9.037,9.037,0,0,0,4.5,1.07,8.062,8.062,0,0,0,.174,8.4,13.831,13.831,0,0,0,.885,13l.074.2.2.084a7.76,7.76,0,0,0,2.438.438,15.984,15.984,0,0,0,6.58-1.278,10.14,10.14,0,0,0,4.2-2.873,15.078,15.078,0,0,1,2.551-2.718l.34-.249-.188-.376a14.357,14.357,0,0,0-3.262-4.1A8.061,8.061,0,0,0,7.311.115Zm.169.967a6.869,6.869,0,0,1,5.69,1.809,12.339,12.339,0,0,1,2.842,3.5,20.457,20.457,0,0,0-2.391,2.525,8.933,8.933,0,0,1-3.816,2.6,14.982,14.982,0,0,1-6.168,1.209A5.2,5.2,0,0,1,1.754,12.4a11.881,11.881,0,0,1-.58-3.976A6.954,6.954,0,0,1,4.965,1.957,8.335,8.335,0,0,1,7.48,1.082Z" class="aw-theme-iconOutline" fill="#464646"/>
    <path id="path8" d="M14.422,23.979A3.286,3.286,0,0,1,12.1,18.372c.391-.39.725-.73,1.018-1.031,1.482-1.514,1.93-1.968,3.074-2.133a3.276,3.276,0,0,1,3.721,2.763c0,.01,0,.02,0,.029l-.9.124A2.366,2.366,0,0,0,16.348,16.1a.135.135,0,0,0-.029,0c-.818.118-1.111.4-2.545,1.864-.3.309-.637.65-1.033,1.044a2.38,2.38,0,0,0,0,3.361,2.431,2.431,0,0,0,3.361,0l2.016-2.009.643.642-2.016,2.007A3.27,3.27,0,0,1,14.422,23.979Z" class="aw-theme-iconOutline" fill="#464646"/>
    <path id="path10" d="M18.355,20.07a3.31,3.31,0,0,1-3.277-2.835l.9-.122a2.4,2.4,0,0,0,2.375,2.049,2.3,2.3,0,0,0,1.658-.7l2.244-2.243a2.378,2.378,0,0,0,0-3.362,2.436,2.436,0,0,0-3.363,0L16.88,14.866l-.645-.64,2.016-2.006a3.363,3.363,0,0,1,4.648,0,3.289,3.289,0,0,1,0,4.643l-2.244,2.243A3.183,3.183,0,0,1,18.355,20.07Z" class="aw-theme-iconOutline" fill="#464646"/>
    <path id="path839" d="M15.033,6.605,14.7,6.82c.135.211.265.433.393.666l.349-.193Q15.243,6.935,15.033,6.605Z" class="aw-theme-iconOutline" fill="#464646"/>
    <path id="path837" d="M8.359,2.107,8.287,2.5a9.439,9.439,0,0,1,6.039,3.775l.326-.232A9.835,9.835,0,0,0,8.359,2.107Z" class="aw-theme-iconOutline" fill="#464646"/>
    <path id="path835" d="M6.145,1.885l-.008.4c.239,0,.508.017.8.039l.032-.4C6.667,1.9,6.389,1.89,6.145,1.885Z" class="aw-theme-iconOutline" fill="#464646"/>
    <path id="path833" d="M9.205,11.412l-.291.274c.178.188.36.38.551.574l.285-.28C9.562,11.79,9.382,11.6,9.205,11.412Z" class="aw-theme-iconOutline" fill="#464646"/>
    <path id="path831" d="M4.75,4.764,4.373,4.9a19.439,19.439,0,0,0,4.076,6.284l.3-.268A19.049,19.049,0,0,1,4.75,4.764Z" class="aw-theme-iconOutline" fill="#464646"/>
    <path id="path829" d="M4.314,2.736l-.4.018a5.645,5.645,0,0,0,.094.81L4.4,3.49A5.424,5.424,0,0,1,4.314,2.736Z" class="aw-theme-iconOutline" fill="#464646"/>
  </g>
</svg>
