<svg id="Layer_1" data-name="Layer 1" xmlns="http://www.w3.org/2000/svg" viewBox="0 0 24 24">
  <g id="g856">
    <path id="path944" d="M22.33,10.359A3.712,3.712,0,0,0,20.2,11.588c-.624.627-1.212,1.4-1.846,2.148l-.836.993,1.288-.17A10.755,10.755,0,0,0,22.6,13.48,2.348,2.348,0,0,0,24,11.668a1.3,1.3,0,0,0-.266-.893,1.216,1.216,0,0,0-.642-.392A1.75,1.75,0,0,0,22.33,10.359Zm.164.987a1.182,1.182,0,0,1,.35.011.227.227,0,0,1,.117.057c.014.017.043.047.035.205-.012.247-.207.605-.887.986a11.757,11.757,0,0,1-1.918.536c.237-.279.5-.621.725-.846a2.814,2.814,0,0,1,1.541-.943l.02,0Z" class="aw-theme-iconOutline" fill="#464646"/>
    <path id="path942" d="M22.346,10.354l-.006,0-5.809.73-.1.074a15.569,15.569,0,0,0-2.758,2.895,9.062,9.062,0,0,1-3.879,2.621c-.119.047-.24.088-.379.139L7.805,17.4l1.672.371a10.536,10.536,0,0,0,5.582-.275h0A9.889,9.889,0,0,0,19.5,13.939a20.879,20.879,0,0,1,1.58-1.8,2.561,2.561,0,0,1,1.383-.789h.006Zm-2.16,1.283c-.5.5-.972,1.065-1.465,1.664a9.119,9.119,0,0,1-3.967,3.244l0,0h0a9.44,9.44,0,0,1-3.332.4,10.544,10.544,0,0,0,3.01-2.226,16.088,16.088,0,0,1,2.527-2.674Z" class="aw-theme-iconOutline" fill="#464646"/>
    <path id="path38" d="M7.252,5.182A9.21,9.21,0,0,0,4.4,6.145h0A8.115,8.115,0,0,0,0,13.537a13.84,13.84,0,0,0,.725,4.637l.076.2.2.086a7.931,7.931,0,0,0,2.473.439,16.371,16.371,0,0,0,6.685-1.289h0a10.289,10.289,0,0,0,4.26-2.9,15.2,15.2,0,0,1,2.594-2.744l.343-.25-.189-.381a14.532,14.532,0,0,0-3.316-4.133A8.22,8.22,0,0,0,7.252,5.182Zm.17.968a7.028,7.028,0,0,1,5.789,1.827A12.449,12.449,0,0,1,16.1,11.506a20.689,20.689,0,0,0-2.43,2.549A9.091,9.091,0,0,1,9.793,16.68,15.349,15.349,0,0,1,3.518,17.9,5.341,5.341,0,0,1,1.6,17.572a11.919,11.919,0,0,1-.592-4.013A7,7,0,0,1,4.861,7.035,8.551,8.551,0,0,1,7.422,6.15Z" class="aw-theme-iconOutline" fill="#464646"/>
    <path id="path839" d="M15.1,11.723l-.338.218c.137.213.271.436.4.67l.352-.193C15.376,12.175,15.238,11.944,15.1,11.723Z" class="aw-theme-iconOutline" fill="#464646"/>
    <path id="path837" d="M8.313,7.188l-.069.4a9.6,9.6,0,0,1,6.139,3.809l.322-.237A10,10,0,0,0,8.313,7.188Z" class="aw-theme-iconOutline" fill="#464646"/>
    <path id="path835" d="M6.061,6.965v.4c.236,0,.511.015.812.037L6.9,7C6.6,6.981,6.314,6.965,6.061,6.965Z" class="aw-theme-iconOutline" fill="#464646"/>
    <path id="path831" d="M4.643,9.859l-.372.151a19.577,19.577,0,0,0,4.143,6.334l.287-.281A19.149,19.149,0,0,1,4.643,9.859Z" class="aw-theme-iconOutline" fill="#464646"/>
    <path id="path829" d="M4.2,7.82l-.4.022a5.773,5.773,0,0,0,.1.818L4.3,8.58A5.246,5.246,0,0,1,4.2,7.82Z" class="aw-theme-iconOutline" fill="#464646"/>
  </g>
</svg>
