<svg id="Image" xmlns="http://www.w3.org/2000/svg" viewBox="0 0 24 24">
  <path d="M20,3V.5a.5.5,0,0,0-1,0V3H16.25V.5a.5.5,0,0,0-1,0V3H12.5V.5a.5.5,0,0,0-1,0V3H8.75V.5a.5.5,0,0,0-1,0V3H5V.5a.5.5,0,0,0-1,0V3H2V23H22V3Zm1,19H3V4H4v.5a.5.5,0,0,0,1,0V4H7.75v.5a.5.5,0,0,0,1,0V4H11.5v.5a.5.5,0,0,0,1,0V4h2.75v.5a.5.5,0,0,0,1,0V4H19v.5a.5.5,0,0,0,1,0V4h1Zm-4.909-9.333a4.144,4.144,0,1,0,4.144,4.143A4.143,4.143,0,0,0,16.091,12.667ZM12.947,16.81a3.142,3.142,0,0,1,2.644-3.093v1.14a.5.5,0,0,0,1,0v-1.14a3.121,3.121,0,0,1,.782.229l-.621.959a.5.5,0,0,0,.148.692.509.509,0,0,0,.272.08.5.5,0,0,0,.42-.229l.614-.948a3.206,3.206,0,0,1,.524.614l-1.03.462a.5.5,0,0,0,.205.956.479.479,0,0,0,.2-.044l1.015-.456a3.083,3.083,0,0,1,.11.778l0,.014-1.1-.17a.5.5,0,0,0-.153.989l1.078.165a3.127,3.127,0,0,1-.334.711l-.814-.724a.5.5,0,1,0-.666.746l.8.713a3.147,3.147,0,0,1-.657.413L17.1,18.63a.5.5,0,1,0-.965.266l.282,1.025a3.223,3.223,0,0,1-.328.033A3.147,3.147,0,0,1,12.947,16.81Zm.4-9.419h0a7.98,7.98,0,0,0-7.186,0A2.757,2.757,0,0,0,4.533,9.719v6.852A2.9,2.9,0,0,0,6.172,19a7.172,7.172,0,0,0,3.592.895,7.962,7.962,0,0,0,2.043-.269,5.07,5.07,0,0,1-.475-.917,6.8,6.8,0,0,1-4.65-.57,1.96,1.96,0,0,1-1.149-1.566V11.6a4.318,4.318,0,0,0,.651.452,7.448,7.448,0,0,0,3.589.851,7.418,7.418,0,0,0,3.592-.856,4.284,4.284,0,0,0,.629-.439v.536a5.124,5.124,0,0,1,1-.332V9.717A2.786,2.786,0,0,0,13.349,7.391Zm-.478,3.785a7.1,7.1,0,0,1-6.2,0A1.871,1.871,0,0,1,5.533,9.726V9.717c0-.527.4-1.044,1.122-1.455a6.449,6.449,0,0,1,3.1-.713,6.514,6.514,0,0,1,3.107.713c.731.413,1.135.931,1.137,1.457v0C14,10.247,13.6,10.764,12.871,11.176Z" class="aw-theme-iconOutline" fill="#464646"/>
</svg>
