<svg version="1.1" id="Livello_2" xmlns="http://www.w3.org/2000/svg" xmlns:xlink="http://www.w3.org/1999/xlink" x="0px" y="0px"
	  viewBox="0 0 24 24" enable-background="new 0 0 24 24" xml:space="preserve">
<path id="rect814"  class="aw-theme-iconOutline" fill="#464646" d="M5.65,6.052
	C2.993,6.062,0,8.568,0,11.757v0.488c0,3.188,3.095,5.756,5.753,5.756l13.45-0.002c2.658,0,4.797-2.566,4.797-5.756v-0.488
	c0-3.189-2.139-5.766-4.797-5.756L5.65,6.052z M4.807,7.001l14.387,0.043C21.319,7.052,23,9.255,23,11.806v0.389
	c0,2.552-1.73,4.758-3.856,4.761L4.838,16.975C2.712,16.978,1,14.749,1,12.197v-0.389c0-2.551,1.465-4.629,3.584-4.792L4.807,7.001z
	"/>
<path id="path821"  class="aw-theme-iconOutline" fill="#464646" d="M6,6.001c-3.313,0-6,2.687-6,6s2.687,6,6,6s6-2.687,6-6
	S9.313,6.001,6,6.001z M6,7.001c2.761,0,5,2.238,5,5s-2.239,5-5,5s-5-2.238-5-5S3.239,7.001,6,7.001z"/>
</svg>
