<svg xmlns="http://www.w3.org/2000/svg" viewBox="0 0 24 24">
  <g id="Verb_Zone">
    <path d="M20.82,15.665l-1.893,1.82-.707-.707,1.04-.966-3.293-.024v-1l3.293.024L18.2,13.782l.707-.707,1.911,1.883A.5.5,0,0,1,20.82,15.665Zm-6.561,4.41,1.893,1.82.707-.707-1.04-.966,3.293-.023v-1l-3.293.023,1.057-1.03-.707-.707-1.911,1.883A.5.5,0,0,0,14.259,20.075ZM24,17.5A6.5,6.5,0,1,0,17.5,24,6.508,6.508,0,0,0,24,17.5Zm-1,0A5.5,5.5,0,1,1,17.5,12,5.506,5.506,0,0,1,23,17.5ZM17.386,4.893v-.5l2.619-1.214,1.964.841L20.005,2.174,17.386,3.388V1.754H14.547V2.89H7.7c-.021-.037-.047-.069-.069-.1-.038-.06-.076-.119-.117-.176-.018-.025-.033-.052-.051-.076l-.012-.016c-.023-.029-.055-.05-.079-.079A3.334,3.334,0,0,0,6.93,2c-.03-.025-.051-.059-.082-.083l-.034-.025c-.027-.021-.058-.038-.086-.059-.05-.035-.1-.07-.151-.1-.023-.015-.044-.032-.068-.047l-.054-.033-.006,0c-.035-.021-.078-.03-.114-.049a3.374,3.374,0,0,0-.52-.222c-.042-.014-.077-.039-.12-.051s-.068-.017-.1-.026-.054-.011-.08-.017c-.051-.011-.1-.022-.153-.031-.025,0-.049-.011-.074-.015s-.078-.013-.117-.018A3.4,3.4,0,0,0,1.412,3.906a3.337,3.337,0,0,0-.044,1.083c0,.041.012.081.018.121s.013.065.019.1.015.084.024.125c0,.015,0,.03.008.044.011.044.022.087.034.13.024.086.052.171.082.255.014.036.026.074.04.109l.008.017c.013.032.029.061.043.092.034.078.067.157.108.231v0c.043.078.092.151.141.226.017.027.032.055.051.082l.009.014c.02.028.041.055.062.083.055.074.112.146.172.215l.081.089c.011.012.024.022.035.034.031.032.062.062.094.092s.043.044.066.065.043.03.075.051l0,0-.008.009.008.008a3.292,3.292,0,0,0,.3.228L8.662,17.525H5.65a2.824,2.824,0,0,0-2.82,2.821V22.5h9.239a7.6,7.6,0,0,1-.806-1H3.83V20.346a1.822,1.822,0,0,1,1.82-1.821H10.1a7.477,7.477,0,0,1-.094-1h0l0-.026H9.8L4.3,7.954A3.271,3.271,0,0,0,4.75,8,3.392,3.392,0,0,0,7.471,6.623l.1.172,3.687,6.4a7.576,7.576,0,0,1,.666-.848L8.436,6.3h6.111V7.432h2.839V5.893l2.619,1.215,1.964-1.937-1.964.937ZM4.75,6.012A1.419,1.419,0,1,1,6.169,4.593,1.419,1.419,0,0,1,4.75,6.012Zm9.8-.716H8.082a3.376,3.376,0,0,0,0-1.406h6.464Z" class="aw-theme-iconOutline" fill="#464646"/>
  </g>
</svg>
