<svg id="Image" xmlns="http://www.w3.org/2000/svg" viewBox="0 0 24 24">
  <g id="g818">
    <path id="path864" d="M16.012,21.942,12.6,17.4l.8-.6,2.59,3.453L20.6,13.8l.814.582Z" class="aw-theme-iconOutline" fill="#464646"/>
    <path id="path862" d="M17.311,11a6.492,6.492,0,1,0,.19,0C17.437,11,17.374,11,17.311,11Zm.121,1H17.5a5.466,5.466,0,1,1-.068,0Z" class="aw-theme-iconOutline" fill="#464646"/>
    <path id="path825" d="M7.15,1v.668A5.034,5.034,0,0,0,3.172,6.525V8.2a.85.85,0,0,1-.869.836H1.436A.426.426,0,0,0,1,9.447v2.09a.426.426,0,0,0,.436.418h.052v.717a.5.5,0,0,0,.371.459l2.3.707L3.115,15.744a.44.44,0,0,0,.112.553l1.351,1.172a.622.622,0,0,0,.635.1l2.189-.9.817,2.012A.56.56,0,0,0,8.746,19h1.2c-.032-.137-.06-.274-.084-.412q-.038-.278-.056-.557h-.67l-.772-1.91a.828.828,0,0,0-.492-.453.979.979,0,0,0-.7.016l-2.088.861-.795-.691.994-1.815a.659.659,0,0,0,.02-.609.834.834,0,0,0-.516-.424l-2.184-.672v-.379h4.4a2.558,2.558,0,0,0,2.762,2.278,3.042,3.042,0,0,0,.767-.116c.105-.218.219-.431.344-.638a7.2,7.2,0,0,1,.426-.627,7.306,7.306,0,0,1,.486-.582,7.544,7.544,0,0,1,.541-.532,7.465,7.465,0,0,1,.592-.472c.182-.13.37-.252.562-.366H2.215v-.816h.092a2.155,2.155,0,0,0,1.6-.7A1.774,1.774,0,0,0,4.391,8.2V6.523c0-.053.015-.1.017-.156A3.949,3.949,0,0,1,7.156,2.773V9.039H8.332V2.57c.021,0,.04,0,.063,0H11c.022,0,.043,0,.064,0V9.039h1.178V2.777a3.949,3.949,0,0,1,2.748,3.594c0,.052.016.1.016.154V8.2a1.773,1.773,0,0,0,.482,1.194,2.029,2.029,0,0,0,.764.529c.052-.01.105-.019.158-.027a7.871,7.871,0,0,1,1.514-.041c.158.014.315.034.472.058V9.447a.426.426,0,0,0-.439-.416H17.09a.85.85,0,0,1-.869-.836V6.523a5.034,5.034,0,0,0-3.979-4.857V1ZM8.17,11.945h3.117l-.047.2a1.6,1.6,0,0,1-.758.859,2.046,2.046,0,0,1-1.365.084,1.521,1.521,0,0,1-.9-.981Z" class="aw-theme-iconOutline" fill="#464646"/>
  </g>
</svg>
