<svg id="Image" xmlns="http://www.w3.org/2000/svg" viewBox="0 0 24 24">
  <path d="M1,1V23H2V5H8.993V23h1.014V5H23V1ZM22,4H2V2H22Zm-1,11.24H16.664a1.75,1.75,0,1,0,0,1h4.341ZM15,16.49a.75.75,0,1,1,.75-.75A.751.751,0,0,1,15,16.49ZM20,17.51a1.744,1.744,0,0,0-1.668,1.25H14.005v1h4.331A1.746,1.746,0,1,0,20,17.51Zm0,2.5a.75.75,0,1,1,.75-.75A.751.751,0,0,1,20,20.01ZM17.5,24A6.5,6.5,0,1,1,24,17.5,6.508,6.508,0,0,1,17.5,24Zm0-12A5.5,5.5,0,1,0,23,17.5,5.506,5.506,0,0,0,17.5,12Z" class="aw-theme-iconOutline" fill="#464646"/>
</svg>
