<svg version="1.1" id="Artwork" xmlns="http://www.w3.org/2000/svg" xmlns:xlink="http://www.w3.org/1999/xlink" x="0px" y="0px"
	 width="24px" height="24px" viewBox="0 0 24 24" enable-background="new 0 0 24 24" xml:space="preserve">
	<path class="aw-theme-iconOutline" fill="#464646" d="M11.5,23C5.2,23,0,17.8,0,11.5C0,5.2,5.2,0,11.5,0S23,5.2,23,11.5C23,17.8,17.8,23,11.5,23z M11.5,1
		C5.7,1,1,5.7,1,11.5C1,17.3,5.7,22,11.5,22S22,17.3,22,11.5C22,5.7,17.3,1,11.5,1z"/>
<path class="aw-theme-iconOutline" fill="#464646" d="M8,16.9V6.1l9.5,5.4L8,16.9z M9,7.9v7.3l6.5-3.6L9,7.9z"/>
</svg>
