<svg id="Layer_1" data-name="Layer 1" xmlns="http://www.w3.org/2000/svg" viewBox="0 0 24 24">
  <g id="g994">
    <path id="rect1195" d="M19,1h1V3H19Z" class="aw-theme-iconOutline" fill="#464646"/>
    <path id="path1510" d="M20.138,21.6l.383,1.008.384,1.007-1.035-.3-1.034-.3.651-.708Z" class="aw-theme-iconOutline" fill="#464646"/>
    <path id="rect958" d="M6,3H7V16H6Z" class="aw-theme-iconOutline" fill="#464646"/>
    <path id="rect960" d="M7,15h5v1H7Z" class="aw-theme-iconOutline" fill="#464646"/>
    <path id="rect960-0" d="M7,3h5V4H7Z" class="aw-theme-iconOutline" fill="#464646"/>
    <path id="rect958-3" d="M12,3h1V16H12Z" class="aw-theme-iconOutline" fill="#464646"/>
    <path id="rect1193-2" d="M17,7h5V8H17Z" class="aw-theme-iconOutline" fill="#464646"/>
    <path id="rect1195-4" d="M19.982,18.568l-.664-.748L17.36,19.559l.664.748Z" class="aw-theme-iconOutline" fill="#464646"/>
    <path id="rect1193-3" d="M3,1H19V2H3Z" class="aw-theme-iconOutline" fill="#464646"/>
    <path id="rect1195-0" d="M2,1H3V6H2Z" class="aw-theme-iconOutline" fill="#464646"/>
    <path id="rect1193-3-0" d="M3,5H5V6H3Z" class="aw-theme-iconOutline" fill="#464646"/>
    <path id="rect1193-3-3" d="M22.018,4,19.767,7.587l-.864-.5L21.154,3.5Z" class="aw-theme-iconOutline" fill="#464646"/>
    <path id="rect1193-3-3-0" d="M17,4l2.08,3.466.865-.5L17.864,3.5Z" class="aw-theme-iconOutline" fill="#464646"/>
    <path id="rect1193-2-7" d="M17,3h5V4H17Z" class="aw-theme-iconOutline" fill="#464646"/>
    <path id="rect1195-6" d="M19,8h1v3H19Z" class="aw-theme-iconOutline" fill="#464646"/>
    <path id="rect1195-6-2" d="M18,12h1v3H18Z" class="aw-theme-iconOutline" fill="#464646"/>
    <path id="rect1195-6-2-6" d="M20,12h1v3H20Z" class="aw-theme-iconOutline" fill="#464646"/>
    <path id="rect1193-2-0" d="M18,11h3v1H18Z" class="aw-theme-iconOutline" fill="#464646"/>
    <path id="rect1193-2-0-5" d="M18,15h3v1H18Z" class="aw-theme-iconOutline" fill="#464646"/>
    <path id="rect1195-7" d="M19,15.559h1v3H19Z" class="aw-theme-iconOutline" fill="#464646"/>
    <path id="rect1193-3-7" d="M2,20H17v1H2Z" class="aw-theme-iconOutline" fill="#464646"/>
    <path id="rect1195-0-5" d="M2,13H3v7H2Z" class="aw-theme-iconOutline" fill="#464646"/>
    <path id="rect1193-3-0-8" d="M3,13H5v1H3Z" class="aw-theme-iconOutline" fill="#464646"/>
    <path id="rect1195-6-7" d="M17,18.064h1V23H17Z" class="aw-theme-iconOutline" fill="#464646"/>
    <path id="rect1195-4-4" d="M19.953,22l-.664.748-1.958-1.739L18,20.261Z" class="aw-theme-iconOutline" fill="#464646"/>
    <path id="rect967" d="M5,15H7V12H5Z" class="aw-theme-iconOutline" fill="#464646"/>
    <path id="rect967-3" d="M5,4H7V7H5Z" class="aw-theme-iconOutline" fill="#464646"/>
    <path id="rect967-9" d="M5,11H7V8H5Z" class="aw-theme-iconOutline" fill="#464646"/>
    <path id="rect967-9-8" d="M12,7h2V4H12Z" class="aw-theme-iconOutline" fill="#464646"/>
    <path id="rect967-9-8-3" d="M12,11h2V8H12Z" class="aw-theme-iconOutline" fill="#464646"/>
    <path id="rect967-9-8-3-4" d="M12,15h2V12H12Z" class="aw-theme-iconOutline" fill="#464646"/>
  </g>
</svg>
