<svg id="Image" xmlns="http://www.w3.org/2000/svg" viewBox="0 0 24 24">
  <g id="g826">
    <path id="path826" d="M6.147,0V.688a5.151,5.151,0,0,0-3.983,5v1.72a.863.863,0,0,1-.87.86H.426A.431.431,0,0,0-.009,8.7v2.151a.431.431,0,0,0,.435.429H.478v.739a.508.508,0,0,0,.372.472l2.3.729L2.107,15.176a.46.46,0,0,0,.112.568l1.353,1.207a.611.611,0,0,0,.636.1l2.19-.928.818,2.07a.558.558,0,0,0,.529.334h1.91a.558.558,0,0,0,.529-.332L11,16.121l2.188.928a.61.61,0,0,0,.634-.1l1.353-1.209a.462.462,0,0,0,.112-.568l-1.043-1.959,2.3-.727a.505.505,0,0,0,.371-.472v-.739h.053a.432.432,0,0,0,.435-.429V8.7a.432.432,0,0,0-.437-.429H16.1a.863.863,0,0,1-.87-.86V5.686a5.148,5.148,0,0,0-3.98-5V0ZM7.393,1.611h2.612c.022,0,.042.006.063.006V8.275h1.179V1.83A4.053,4.053,0,0,1,14,5.529c0,.053.015.1.015.159v1.72A1.859,1.859,0,0,0,14.5,8.637a2.134,2.134,0,0,0,1.6.715h.091l0,.371v.466H1.206V9.35H1.3a2.135,2.135,0,0,0,1.6-.715,1.852,1.852,0,0,0,.483-1.229V5.686c0-.055.015-.107.017-.161a4.049,4.049,0,0,1,2.752-3.7V8.275H7.329V1.617C7.351,1.617,7.37,1.611,7.393,1.611ZM1.6,11.275H6a2.581,2.581,0,0,0,2.762,2.347,2.565,2.565,0,0,0,2.626-2.347h4.4v.391l-2.184.691a.842.842,0,0,0-.516.436.7.7,0,0,0,.02.627l.99,1.867L13.31,16l-2.09-.889a.948.948,0,0,0-.7-.017.829.829,0,0,0-.49.474l-.778,1.965H8.136l-.774-1.965A.839.839,0,0,0,6.87,15.1a.958.958,0,0,0-.7.015L4.083,16l-.8-.711,1-1.867a.738.738,0,0,0-.406-1.031.879.879,0,0,0-.09-.034L1.6,11.666Zm5.522,0H10.27A1.528,1.528,0,0,1,8.6,12.594,1.5,1.5,0,0,1,7.122,11.275Z" class="aw-theme-iconOutline" fill="#464646"/>
    <path id="rect826" d="M18,18v5h5V18Zm1,1h3v3H19Z" class="aw-theme-iconOutline" fill="#464646"/>
    <path id="polygon8" d="M23.807,16.931,20.428,22,18,18.967l.782-.625,1.572,1.966,2.621-3.931Z" class="aw-theme-iconOutline" fill="#464646"/>
    <path id="rect826-51" d="M18,10v5h5V10Zm1,1h3v3H19Z" class="aw-theme-iconOutline" fill="#464646"/>
    <path id="polygon8-44" d="M18,10.967l.782-.625,1.572,1.966,2.621-3.931.832.554L20.428,14Z" class="aw-theme-iconOutline" fill="#464646"/>
    <path id="rect826-51-5" d="M18,2V7h5V2Zm1,1h3V6H19Z" class="aw-theme-iconOutline" fill="#464646"/>
  </g>
</svg>
