<svg version="1.1" id="Verb_x5F_Zone" xmlns="http://www.w3.org/2000/svg" xmlns:xlink="http://www.w3.org/1999/xlink" x="0px"
	 y="0px"  viewBox="0 0 24 24" enable-background="new 0 0 24 24" xml:space="preserve">
<path id="rect874" class="aw-theme-iconOutline" fill="#464646" d="M2.992-0.021v24.041l18-0.008V7.71V6.401V5.989h-0.008l0.023-0.014l-6.012-5.986l-0.004,0.002
	v-0.002h-0.684h-0.316L2.992-0.021z M3.982,0.989h10.01v5v1h1h5v1.385v14.615H4.035L3.982,0.989z M14.992,1.448l4.561,4.541h-4.561
	V1.448z M12.844,8.991l-2.715,11.783l0.945,0.217L13.789,9.21L12.844,8.991z M8.35,10.007l-3.223,4.988l0.006,0.002l-0.018,0.004
	l3.223,4.988l1.012-0.268l-3.045-4.715l3.059-4.732L8.35,10.007z M15.549,10.007l-1.012,0.268l3.057,4.732l-3.045,4.715l1.012,0.268
	l3.225-4.988l-0.018-0.004l0.004-0.002L15.549,10.007z"/>
</svg>
