<svg id="Layer_1" data-name="Layer 1" xmlns="http://www.w3.org/2000/svg" viewBox="0 0 24 24">
  <g id="g846">
    <path id="rect859" d="M1,4H19V5H1Z" class="aw-theme-iconOutline" fill="#464646"/>
    <path id="rect863" d="M12,2.065h1.087v1H12Z" class="aw-theme-iconOutline" fill="#464646"/>
    <path id="rect863-6" d="M16,2h1.087V3H16Z" class="aw-theme-iconOutline" fill="#464646"/>
    <path id="rect863-7" d="M14,2h1.087V3H14Z" class="aw-theme-iconOutline" fill="#464646"/>
    <path id="rect902" d="M0,1H1V18H0Z" class="aw-theme-iconOutline" fill="#464646"/>
    <path id="rect904" d="M0,0H20V1H0Z" class="aw-theme-iconOutline" fill="#464646"/>
    <path id="rect906" d="M19,1h1V6H19Z" class="aw-theme-iconOutline" fill="#464646"/>
    <path id="rect908" d="M1,17H11.137v1H1Z" class="aw-theme-iconOutline" fill="#464646"/>
    <path id="rect910" d="M2,7h8V8H2Z" class="aw-theme-iconOutline" fill="#464646"/>
    <path id="rect912" d="M2,10H9v1H2Z" class="aw-theme-iconOutline" fill="#464646"/>
    <path id="rect914" d="M2,13h8v1H2Z" class="aw-theme-iconOutline" fill="#464646"/>
    <path id="rect912-1" d="M15,9h6v1H15Z" class="aw-theme-iconOutline" fill="#464646"/>
    <path id="rect912-1-4" d="M15,11h6v1H15Z" class="aw-theme-iconOutline" fill="#464646"/>
    <path id="rect912-1-5" d="M15,13h6v1H15Z" class="aw-theme-iconOutline" fill="#464646"/>
    <path id="path954" d="M19.5,17A1.5,1.5,0,1,1,18,15.5,1.5,1.5,0,0,1,19.5,17Z" class="aw-theme-iconOutline" fill="#464646"/>
    <path id="path954-0" d="M19,21a1,1,0,1,1-1-1A1,1,0,0,1,19,21Z" class="aw-theme-iconOutline" fill="#464646"/>
    <path id="rect971" d="M12,7V24H24V7Zm1,1H23V23H13Z" class="aw-theme-iconOutline" fill="#464646"/>
  </g>
</svg>
