<svg version="1.1" id="Verb_x5F_Zone" xmlns="http://www.w3.org/2000/svg" xmlns:xlink="http://www.w3.org/1999/xlink" x="0px"
	 y="0px"  viewBox="0 0 24 24" enable-background="new 0 0 24 24" xml:space="preserve">
<path id="rect814" class="aw-theme-iconOutline" fill="#464646" d="
	M1.584,1.99C0.707,1.99,0,2.37,0,2.984v18.033C0,21.631,0.113,22,0.991,22l22,0.01C23.869,22.011,24,21.617,24,21.004V3
	c0-0.614-0.131-1.01-1.009-1.01H1.584z M1.02,4H22.99v16.965L1.006,20.998L1.02,4z M5.49,5v6.064c-0.88,0.227-1.496,1.019-1.5,1.928
	c-0.002,0.914,0.615,1.713,1.5,1.941V20h1v-5.064c0.877-0.227,1.493-1.014,1.5-1.92V13c-0.001-0.911-0.618-1.706-1.5-1.934V5H5.49z
	 M11.49,5v4.064c-0.88,0.227-1.496,1.019-1.5,1.928c-0.002,0.914,0.615,1.713,1.5,1.941V20h1v-7.064
	c0.877-0.227,1.492-1.014,1.5-1.92V11c-0.002-0.911-0.618-1.706-1.5-1.934V5H11.49z M17.49,5v8.064
	c-0.88,0.227-1.496,1.02-1.5,1.928c-0.002,0.914,0.615,1.713,1.5,1.941V20h1v-3.064c0.877-0.227,1.492-1.014,1.5-1.92V15
	c-0.002-0.911-0.618-1.706-1.5-1.934V5H17.49z"/>
</svg>
