<svg version="1.1" id="Livello_2" xmlns="http://www.w3.org/2000/svg" xmlns:xlink="http://www.w3.org/1999/xlink" x="0px" y="0px"
	  viewBox="0 0 24 24" enable-background="new 0 0 24 24" xml:space="preserve">
<path id="rect1402" class="aw-theme-iconOutline" fill="#464646" d="M2.411,1C1.617,1,0.978,1.67,0.978,2.502v18.996C0.978,22.33,1.617,23,2.411,23h19.176
	c0.795,0,1.436-0.67,1.436-1.502V2.502C23.022,1.67,22.382,1,21.587,1H2.411z M2.978,2h18c0.555,0,1,0.486,1,1.092v17.816
	c0,0.605-0.445,1.092-1,1.092h-18c-0.554,0-1-0.486-1-1.092V3.092C1.978,2.486,2.423,2,2.978,2z"/>
</svg>
