<svg version="1.1" id="Artwork" xmlns="http://www.w3.org/2000/svg" xmlns:xlink="http://www.w3.org/1999/xlink" x="0px" y="0px"
	 width="24px" height="24px" viewBox="0 0 24 24" enable-background="new 0 0 24 24" xml:space="preserve">
<path class="aw-theme-iconOutline" fill="#464646" d="M21,1v6.3c0,0,0,0-0.1-0.1l-4.5-4.5c-3.7-3.7-9.7-3.7-13.4,0L2.8,3.1C0.2,5.7-0.7,9.5,0.5,13l0.9-0.3
	c-1.1-3.1-0.3-6.5,2-8.8l0.3-0.3c3.3-3.3,8.7-3.3,12,0l4.5,4.5c0,0,0,0,0.1,0.1H14v1h8V1H21z"/>
<path class="aw-theme-iconOutline" fill="#464646" d="M23.5,11l-0.9,0.3c1.1,3.1,0.3,6.5-2,8.8l-0.3,0.3c-1.6,1.6-3.7,2.5-6,2.5s-4.4-0.9-6-2.5l-4.5-4.5
	c0,0,0,0-0.1-0.1H10v-1H2v8h1v-6.3c0,0,0,0,0.1,0.1l4.5,4.5C9.3,23,11.7,24,14.2,24s4.9-1,6.7-2.8l0.3-0.3
	C23.8,18.3,24.7,14.5,23.5,11z"/>
</svg>
