<svg id="Image" xmlns="http://www.w3.org/2000/svg" viewBox="0 0 24 24">
  <path d="M3.637,14.973,6.259,7.688l1.158.373-.7-3.277L4.226,7.032l1.081.349L2.671,14.705c-.057,0-.112-.017-.171-.017a2.53,2.53,0,1,0,1.137.285ZM2.5,18.688a1.5,1.5,0,1,1,1.5-1.5A1.5,1.5,0,0,1,2.5,18.688ZM15.7,6.011,13.654,3.353,13.22,4.4,10.273,3.067a2.466,2.466,0,0,0,.071-.567,2.52,2.52,0,1,0-.491,1.475l2.985,1.352-.465,1.124ZM7.844,4a1.5,1.5,0,0,1,0-3ZM20.438,7.5a2.493,2.493,0,0,1-4.2,1.82L7.813,15.033l.668.918-3.333.354,1.36-3.064.716.983,8.428-5.717A2.5,2.5,0,1,1,20.438,7.5ZM17.5,24.016a6.5,6.5,0,1,1,6.5-6.5A6.5,6.5,0,0,1,17.5,24.016Zm0-12a5.5,5.5,0,1,0,5.5,5.5A5.5,5.5,0,0,0,17.5,12.016Zm.466,3.276v-2.5a.5.5,0,0,0-1,0v2.5a.5.5,0,1,0,1,0Zm1.425.976L21.158,14.5a.5.5,0,0,0-.707-.707l-1.767,1.768a.5.5,0,0,0,.707.707Zm3.317,1.2a.5.5,0,0,0-.5-.5h-2.5a.5.5,0,0,0,0,1h2.5A.5.5,0,0,0,22.708,17.466Zm-1.5,3.692a.5.5,0,0,0,0-.707l-1.768-1.767a.5.5,0,0,0-.707.707L20.5,21.158a.5.5,0,0,0,.707,0Zm-3.173,1.05v-2.5a.5.5,0,0,0-1,0v2.5a.5.5,0,0,0,1,0Zm-3.485-1,1.767-1.768a.5.5,0,0,0-.707-.707L13.842,20.5a.5.5,0,1,0,.707.707Zm1.243-3.673a.5.5,0,0,0-.5-.5h-2.5a.5.5,0,0,0,0,1h2.5A.5.5,0,0,0,15.792,17.534Zm.476-1.218a.5.5,0,0,0,0-.707L14.5,13.842a.5.5,0,1,0-.707.707l1.768,1.767a.5.5,0,0,0,.707,0Z" class="aw-theme-iconOutline" fill="#464646"/>
</svg>
