<svg id="svg874" xmlns="http://www.w3.org/2000/svg" viewBox="0 0 24 24">
  <g id="layer1">
    <g id="g888">
      <path id="path826" d="M16.969,4.538v-3.5h4.048V8.041H16.969Zm3.069,0V2.014h-2.09v2.51c0,1.38.006,2.516.014,2.524s.479.015,1.046.015h1.03Z" class="aw-theme-iconOutline" fill="#464646" stroke="#464646" stroke-linecap="round" stroke-width="0.022"/>
      <path id="path824" d="M5.981,5.539v-3.5H10.03V9.042H5.981Zm3.07,0V3.015H6.96V8.064H9.051Z" class="aw-theme-iconOutline" fill="#464646" stroke="#464646" stroke-linecap="round" stroke-width="0.022"/>
      <path id="path822" d="M2.979,14.458v-3.5H7.027v7.006H2.979Zm3.069,0V11.934H3.957v5.049H6.048Z" class="aw-theme-iconOutline" fill="#464646" stroke="#464646" stroke-linecap="round" stroke-width="0.022"/>
      <path id="path2" d="M17.482,24.052a6.5,6.5,0,1,1,6.5-6.5A6.487,6.487,0,0,1,17.482,24.052Zm0-12a5.5,5.5,0,1,0,5.5,5.5A5.549,5.549,0,0,0,17.482,12.052Z" class="aw-theme-iconOutline" fill="#464646"/>
      <path id="polygon4" d="M14.582,19.652l.8.8,2.1-2.2,2.1,2.2.8-.8-2.2-2.1,2.2-2.1-.8-.8-2.1,2.2-2.1-2.2-.8.8,2.2,2.1Z" class="aw-theme-iconOutline" fill="#464646"/>
      <path id="path828" d="M2.045.524V.034H6.026v.979H2.045Z" class="aw-theme-iconOutline" fill="#464646" stroke="#464646" stroke-linecap="round" stroke-width="0.022"/>
      <path id="path830" d="M7.049.524V.034H8.256c.663,0,1.559-.006,1.99-.014L11.03.005V.984L10.393,1c-.351.008-1.247.015-1.991.015H7.049Z" class="aw-theme-iconOutline" fill="#464646" stroke="#464646" stroke-linecap="round" stroke-width="0.022"/>
      <path id="path832" d="M12.054,7.021V5.044l.069-.014c.038-.007.258-.013.489-.013h.42V9h-.978Z" class="aw-theme-iconOutline" fill="#464646" stroke="#464646" stroke-linecap="round" stroke-width="0.022"/>
      <path id="path834" d="M12.068,11.585c-.008-.008-.014-.363-.014-.789v-.775h.978v.239c0,.132.007.487.015.79l.015.55h-.49A4.588,4.588,0,0,1,12.068,11.585Z" class="aw-theme-iconOutline" fill="#464646" stroke="#464646" stroke-linecap="round" stroke-width="0.022"/>
      <path id="path836" d="M.021,6.985V4.994H1V8.976H.021Z" class="aw-theme-iconOutline" fill="#464646" stroke="#464646" stroke-linecap="round" stroke-width="0.022"/>
      <path id="path838" d="M.021,11.989V10H1V13.98H.021Z" class="aw-theme-iconOutline" fill="#464646" stroke="#464646" stroke-linecap="round" stroke-width="0.022"/>
      <path id="path840" d="M.021,16.994V15H1v3.981H.021Z" class="aw-theme-iconOutline" fill="#464646" stroke="#464646" stroke-linecap="round" stroke-width="0.022"/>
      <path id="path842" d="M1,19.5v-.489H4.981v.978H1Z" class="aw-theme-iconOutline" fill="#464646" stroke="#464646" stroke-linecap="round" stroke-width="0.022"/>
      <path id="path844" d="M6,19.5V19l.37.014c.2.008,1.1.015,1.991.015h1.62v.979H6Z" class="aw-theme-iconOutline" fill="#464646" stroke="#464646" stroke-linecap="round" stroke-width="0.022"/>
      <path id="rect846" d="M0,0H1V4H0Z" class="aw-theme-iconOutline" fill="#464646"/>
      <path id="rect846-4" d="M12,.025h1v4H12Z" class="aw-theme-iconOutline" fill="#464646"/>
    </g>
  </g>
</svg>
