<svg version="1.1" id="Livello_3" xmlns="http://www.w3.org/2000/svg" xmlns:xlink="http://www.w3.org/1999/xlink" x="0px" y="0px"
	  viewBox="0 0 24 24" enable-background="new 0 0 24 24" xml:space="preserve">
<path id="rect819" class="aw-theme-iconOutline" fill="#464646" d="M12,0c-0.277,0-0.5,0.253-0.5,0.566v10.191L4.277,3.494C4.045,3.26,3.707,3.243,3.518,3.457
	S3.363,4.032,3.596,4.266l7.193,7.234H0.566C0.253,11.5,0,11.723,0,12c0,0.277,0.253,0.5,0.566,0.5h10.234l-7.195,7.18
	c-0.233,0.232-0.267,0.588-0.078,0.801s0.527,0.197,0.76-0.035l7.213-7.197v10.186C11.5,23.747,11.723,24,12,24
	c0.277,0,0.5-0.253,0.5-0.566V13.221l7.236,7.279c0.232,0.234,0.57,0.249,0.76,0.035s0.154-0.574-0.078-0.809L13.232,12.5h10.201
	C23.747,12.5,24,12.277,24,12c0-0.277-0.253-0.5-0.566-0.5H13.256l7.188-7.172c0.232-0.232,0.268-0.59,0.078-0.803
	s-0.527-0.197-0.76,0.035L12.5,10.807V0.566C12.5,0.253,12.277,0,12,0z"/>
</svg>
