<svg id="Layer_1" data-name="Layer 1" xmlns="http://www.w3.org/2000/svg" viewBox="0 0 24 24">
  <g id="g878">
    <path id="rect843" d="M0,23H11l0,0v1l0,0H0l0,0V23Z" class="aw-theme-iconOutline" fill="#464646"/>
    <path id="rect843-6" d="M7,9h4l0,0v1l0,0H7l0,0V9Z" class="aw-theme-iconOutline" fill="#464646"/>
    <path id="rect860" d="M0,10H1l0,0V23l0,0H0l0,0V10Z" class="aw-theme-iconOutline" fill="#464646"/>
    <path id="rect860-6" d="M10,10h1v9H10V10Z" class="aw-theme-iconOutline" fill="#464646"/>
    <path id="rect917" d="M2,14H6l0,0v1l0,0H2l0,0V14Z" class="aw-theme-iconOutline" fill="#464646"/>
    <path id="rect919" d="M2,17H8l0,0v1l0,0H2l0,0V17Z" class="aw-theme-iconOutline" fill="#464646"/>
    <path id="rect921" d="M2,20H7l0,0v1l0,0H2l0,0V20Z" class="aw-theme-iconOutline" fill="#464646"/>
    <path id="rect919-8" d="M2,11H9l0,0v1l0,0H2l0,0V11Z" class="aw-theme-iconOutline" fill="#464646"/>
    <path id="path4" d="M18.874,16.106V14.273l1.71,1.716a.4.4,0,0,0,.563-.566l-2.386-2.4a.4.4,0,0,0-.562,0l-2.385,2.4a.4.4,0,0,0,.563.566l1.7-1.715v1.832a3.957,3.957,0,0,1-.708,2.3A4.014,4.014,0,0,1,15.625,19.8a2.9,2.9,0,0,1-1.085.284H8.874v.8h5.753a3.473,3.473,0,0,0,1.3-.341,4.824,4.824,0,0,0,2.1-1.673A4.744,4.744,0,0,0,18.874,16.106Z" class="aw-theme-iconOutline" fill="#464646"/>
    <path id="rect843-9" d="M22,14h2l0,0v1l0,0H22l0,0V14Z" class="aw-theme-iconOutline" fill="#464646"/>
    <path id="rect843-6-3" d="M13,0H24l0,0V1l0,0H13l0,0V0Z" class="aw-theme-iconOutline" fill="#464646"/>
    <path id="rect860-9" d="M13,4h1l0,0V14l0,0H13l0,0V4Z" class="aw-theme-iconOutline" fill="#464646"/>
    <path id="rect860-6-7" d="M23,1h1l0,0V14l0,0H23l0,0V1Z" class="aw-theme-iconOutline" fill="#464646"/>
    <path id="rect917-4" d="M15,2h4l0,0V3l0,0H15l0,0V2Z" class="aw-theme-iconOutline" fill="#464646"/>
    <path id="rect919-7" d="M15.032,8h5.975l0,0V9l0,0H15.032l0,0V8Z" class="aw-theme-iconOutline" fill="#464646"/>
    <path id="rect919-8-2" d="M15,5h7l0,0V6l0,0H15l0,0V5Z" class="aw-theme-iconOutline" fill="#464646"/>
    <path id="rect843-9-6" d="M13,14h2l0,0v1l0,0H13l0,0V14Z" class="aw-theme-iconOutline" fill="#464646"/>
    <path id="path4-1" d="M9.981,2.352h1.833L10.1.642a.4.4,0,0,1,.565-.563l2.4,2.386a.4.4,0,0,1,0,.562l-2.4,2.386A.4.4,0,0,1,10.1,4.85l1.714-1.7H9.981a6.976,6.976,0,0,0-3.1.709A4.013,4.013,0,0,0,5.49,5.6L4.752,5.3A4.824,4.824,0,0,1,6.425,3.2,7.684,7.684,0,0,1,9.981,2.352Z" class="aw-theme-iconOutline" fill="#464646"/>
    <path id="path4-2" d="M4.371,7.215V9.048L2.661,7.332A.4.4,0,0,0,2.1,7.9l2.385,2.4a.4.4,0,0,0,.563,0L7.431,7.9a.4.4,0,0,0-.563-.565l-1.7,1.714V7.215a3.951,3.951,0,0,1,.708-2.3A4.019,4.019,0,0,1,7.62,3.524l-.3-.738A4.811,4.811,0,0,0,5.221,4.459,4.742,4.742,0,0,0,4.371,7.215Z" class="aw-theme-iconOutline" fill="#464646"/>
    <path id="rect843-6-2" d="M0,9.046h2.27l0,0v1l0,0H0l0,0v-1Z" class="aw-theme-iconOutline" fill="#464646"/>
    <path id="rect860-6-2" d="M10,22h1v1H10V22Z" class="aw-theme-iconOutline" fill="#464646"/>
  </g>
</svg>
