<svg id="Layer_1" data-name="Layer 1" xmlns="http://www.w3.org/2000/svg" viewBox="0 0 24 24">
  <g id="g818">
    <path id="path4" d="M19.164,19.132a.5.5,0,1,0,.7.706l1.985-1.988a.5.5,0,0,0,0-.706l-1.993-2a.5.5,0,0,0-.7.706L20.3,17H8v1H20.3Z" class="aw-theme-iconOutline" fill="#464646"/>
    <path id="path825" d="M9.589,1.129v.725A5.355,5.355,0,0,0,5.8,7.126V8.941a.87.87,0,0,1-.828.906H4.141a.436.436,0,0,0-.414.451v2.267A.434.434,0,0,0,4.035,13H20a.434.434,0,0,0,.312-.435V10.3a.435.435,0,0,0-.417-.453h-.832a.87.87,0,0,1-.828-.906V7.124a5.355,5.355,0,0,0-3.791-5.272V1.129Zm1.187,1.7h2.488c.021,0,.04.006.06.006V9.855h1.122v-6.8a4.251,4.251,0,0,1,2.621,3.9c0,.056.014.106.014.167V8.941a2.079,2.079,0,0,0,.46,1.3,1.951,1.951,0,0,0,1.526.754h.088l0,.391v.493H4.885v-.886h.087A1.948,1.948,0,0,0,6.5,10.234a2.067,2.067,0,0,0,.46-1.295V7.124c0-.058.015-.112.017-.169A4.247,4.247,0,0,1,9.6,3.055v6.8h1.12V2.834c.02,0,.039-.006.06-.006Z" class="aw-theme-iconOutline" fill="#464646"/>
    <path id="path4-0" d="M4.856,22.132a.5.5,0,1,1-.71.706l-2-1.988a.5.5,0,0,1,0-.706l2.007-2a.5.5,0,0,1,.71.706L3.7,20H16v1H3.7Z" class="aw-theme-iconOutline" fill="#464646"/>
  </g>
</svg>
