<svg id="Layer_1" data-name="Layer 1" xmlns="http://www.w3.org/2000/svg" viewBox="0 0 24 24">
  <g id="g872">
    <path id="rect1195" d="M2,1V6H5V7H6V8H5v3H6v1H5v1H2v6.9l1-1V14H5v1H6v.9l1-1V4h5V9.891L13.889,8H13V7h1V4H13V3H6V4H5V5H3V2H19v.885l1-1V1H2ZM17,3V4l.332.555L18.885,3Zm4.834,1.293L18.129,8H19v3H18v5h1v2.1l-1,.886v-.926H17V20H6.139l-1,1H17v2h1V21.6l1.172,1.043-.336.365,1.035.3,1.033.3L20.521,22.6,20.139,21.6l-.289.312L18.035,20.3l1.947-1.729-.007-.009H20V16h1V11H20V8h2V7H20.137ZM19,12h1v3H19Zm-5,.133-2,2V15h-.865l-1,1H13V15h1Z" class="aw-theme-iconOutline" fill="#464646"/>
    <path id="rect1091" d="M23.341.034,24,.726.656,24,0,23.309Z" class="aw-theme-iconOutline" fill="#464646"/>
  </g>
</svg>
