<svg id="Layer_1" data-name="Layer 1" xmlns="http://www.w3.org/2000/svg" viewBox="0 0 24 24">
  <g id="g856">
    <path id="path1052" d="M3.5,22A1.5,1.5,0,1,0,2,20.5,1.5,1.5,0,0,0,3.5,22Zm0-1a.5.5,0,1,1,.5-.5A.5.5,0,0,1,3.5,21Z" class="aw-theme-iconOutline" fill="#464646"/>
    <path id="path1052-2-1-8" d="M19.5,20A1.5,1.5,0,1,0,18,18.5,1.5,1.5,0,0,0,19.5,20Zm0-1a.5.5,0,1,1,.5-.5A.5.5,0,0,1,19.5,19Z" class="aw-theme-iconOutline" fill="#464646"/>
    <path id="path1052-2-3" d="M8.531,11.045a1.5,1.5,0,1,0-1.5-1.5A1.5,1.5,0,0,0,8.531,11.045Zm0-1a.5.5,0,1,1,.5-.5A.5.5,0,0,1,8.531,10.045Z" class="aw-theme-iconOutline" fill="#464646"/>
    <path id="path1052-2-1-5" d="M19.482,16a1.5,1.5,0,0,0,0-3h0a1.5,1.5,0,0,0-1.5,1.5h0A1.5,1.5,0,0,0,19.482,16Zm0-1a.5.5,0,1,1,.5-.5h0a.5.5,0,0,1-.5.5Z" class="aw-theme-iconOutline" fill="#464646"/>
    <path id="rect1193" d="M18.219,15H14.894V14h3.325Z" class="aw-theme-iconOutline" fill="#464646"/>
    <path id="rect1195" d="M9.027,13.84H8V10.748H9.027Z" class="aw-theme-iconOutline" fill="#464646"/>
    <path id="path1354" d="M14,18.5V19H5.178l-.433.432-.432.433-.047-.086a1.592,1.592,0,0,0-.488-.528,1.231,1.231,0,0,0-.136-.081l-.028-.01.534-.533c.571-.569.563-.561.693-.6.046-.015.313-.016,4.6-.02L14,18Z" class="aw-theme-iconOutline" fill="#464646"/>
    <path id="rect1356" d="M18.153,19H13.919V18h4.234Z" class="aw-theme-iconOutline" fill="#464646"/>
    <path id="path1354-4" d="M18.388,14.5V14H9.566l-.433-.432L8.7,13.135l-.047.086a1.6,1.6,0,0,1-.488.528,1.231,1.231,0,0,1-.136.081L8,13.84l.534.533c.571.569.563.561.693.6.046.015.313.016,4.6.02L18.388,15Z" class="aw-theme-iconOutline" fill="#464646"/>
    <path id="path873" d="M13.7,18.923c-.2.189-2.271-1.226-2.44-1.458s-1.494-1.088-1.376-1.4,3.608-1.548,3.769-1.772,1.377.317,1.651.538-1.217,1.878-1.44,2.108S13.9,18.735,13.7,18.923Z" class="aw-theme-iconOutline" fill="#464646"/>
    <path id="path2" d="M14.061,13a.325.325,0,0,1-.231-.4l1.323-4.459a.332.332,0,0,1,.543-.135l.723.656,1.186-2.725-1.147-.332a.322.322,0,0,1-.2-.471L19.239.2a.33.33,0,0,1,.376-.141l4.146,1.2a.319.319,0,0,1,.174.507l-2.625,3.2,1.234.357a.318.318,0,0,1,.141.543l-4.721,4.213.769.731a.311.311,0,0,1-.1.522L14.278,12.99a.336.336,0,0,1-.217.01Zm1.587-4.172-.988,3.327,3.253-1.241-.656-.623a.311.311,0,0,1,0-.463L21.806,5.77l-1.15-.332a.32.32,0,0,1-.173-.508l2.625-3.2L19.687.739,17.048,5.114l1.1.317a.324.324,0,0,1,.221.435L16.853,9.342a.335.335,0,0,1-.531.1Z" class="aw-theme-iconOutline" fill="#464646"/>
    <path id="rect924-0-2" d="M21,24V22h3c0-2.309,0-4.506,0-6.681H23c-.013,1.894-.025,3.787,0,5.681H20v2H1V4.788a20.037,20.037,0,0,0,2.23-1.78A11.879,11.879,0,0,0,4.538,1H5.914V0H3.592A4.306,4.306,0,0,1,2.318,2.242,11.1,11.1,0,0,1,0,3.958V24H21Z" class="aw-theme-iconOutline" fill="#464646"/>
  </g>
</svg>
