<svg id="Layer_1" data-name="Layer 1" xmlns="http://www.w3.org/2000/svg" viewBox="0 0 24 24">
  <g id="g867">
    <g id="g854">
      <path id="path1052" d="M20.5,2A1.5,1.5,0,1,0,22,3.5,1.5,1.5,0,0,0,20.5,2Zm0,1a.5.5,0,1,1-.5.5A.5.5,0,0,1,20.5,3Z" class="aw-theme-iconOutline" fill="#464646"/>
      <path id="path1052-2-1-8" d="M4.5,4A1.5,1.5,0,0,0,3,5.5H3A1.5,1.5,0,0,0,4.5,7h0a1.5,1.5,0,0,0,0-3Zm0,1a.5.5,0,1,1-.5.5H4A.5.5,0,0,1,4.5,5Z" class="aw-theme-iconOutline" fill="#464646"/>
      <path id="path1052-2-3" d="M18.525,16.969a1.5,1.5,0,1,0,1.5,1.5A1.5,1.5,0,0,0,18.525,16.969Zm0,1a.5.5,0,1,1-.5.5A.5.5,0,0,1,18.525,17.969Z" class="aw-theme-iconOutline" fill="#464646"/>
      <path id="path1052-2-1-5" d="M4.518,9a1.5,1.5,0,0,0-1.5,1.5h0a1.5,1.5,0,0,0,1.5,1.5h0a1.5,1.5,0,1,0,0-3Zm0,1a.5.5,0,1,1-.5.5.5.5,0,0,1,.5-.5Z" class="aw-theme-iconOutline" fill="#464646"/>
      <path id="rect1193" d="M5.781,10H9.106v1H5.781Z" class="aw-theme-iconOutline" fill="#464646"/>
      <path id="rect1195" d="M18.025,12h1v5.969h-1Z" class="aw-theme-iconOutline" fill="#464646"/>
      <path id="path1354" d="M10,5.5V5h8.822l.433-.432.432-.433.047.086a1.592,1.592,0,0,0,.488.528,1.231,1.231,0,0,0,.136.081l.028.01-.534.533c-.571.569-.563.561-.693.6-.046.015-.313.016-4.6.02L10,6Z" class="aw-theme-iconOutline" fill="#464646"/>
      <path id="rect1356" d="M5.847,5h4.234V6H5.847Z" class="aw-theme-iconOutline" fill="#464646"/>
      <path id="path4" d="M8.521,13.68l4.023-.181L4.486,22.362l1.1,1.084,8-8.855.02,3.994,1.322-.016.047-5.575a1.351,1.351,0,0,0-.216-.85,1.05,1.05,0,0,0-.752-.193l-5.571.357Z" class="aw-theme-iconOutline" fill="#464646"/>
      <path id="rect924-0-2" d="M3,0V2H0c0,2.31,0,4.507,0,6.682H1.046V6.533L1,3H3.993V1l8.031.035L22.955,1,23,12.031l-.047,7.181a20.942,20.942,0,0,0-2.185,1.78,11.927,11.927,0,0,0-1.308,2L18.086,23v1h2.322a4.306,4.306,0,0,1,1.274-2.242A11.1,11.1,0,0,1,24,20.042V0L12.024.035Z" class="aw-theme-iconOutline" fill="#464646"/>
    </g>
  </g>
</svg>
