<svg id="Image" xmlns="http://www.w3.org/2000/svg" viewBox="0 0 24 24">
  <g id="g820">
    <path id="path2" d="M2,1V5.448H.5a.5.5,0,0,0,0,1H2V17.157H.5a.5.5,0,0,0,0,1H2V23H23V1ZM22,22H3V18.157H5.1a.5.5,0,0,0,0-1H3V6.448H5.1a.5.5,0,0,0,0-1H3V2H22ZM20.167,10.99h-.778a.822.822,0,0,1-.778-.86V8.41a5.072,5.072,0,0,0-3.557-5V2.724H10.5v.689a5.074,5.074,0,0,0-3.558,5v1.72a.822.822,0,0,1-.777.86H5.389A.411.411,0,0,0,5,11.42v2.15a.411.411,0,0,0,.389.43h.047v.739a.5.5,0,0,0,.332.472l2.054.728L6.891,17.9a.5.5,0,0,0,.1.569L8.2,19.676a.5.5,0,0,0,.568.1l1.957-.928.73,2.07a.5.5,0,0,0,.472.334h1.708a.5.5,0,0,0,.472-.333l.732-2.074,1.955.928a.5.5,0,0,0,.568-.1l1.208-1.208a.5.5,0,0,0,.1-.569l-.931-1.958,2.053-.728a.5.5,0,0,0,.333-.472V14h.047a.412.412,0,0,0,.389-.43V11.42a.411.411,0,0,0-.391-.43Zm-1.047,3.4-1.953.693a.784.784,0,0,0-.459.435.77.77,0,0,0,.016.627l.886,1.867-.709.709-1.868-.888a.762.762,0,0,0-.622-.018.784.784,0,0,0-.439.475l-.694,1.964h-1l-.693-1.965a.794.794,0,0,0-.438-.467.772.772,0,0,0-.623.015l-1.868.887-.71-.71.888-1.868a.773.773,0,0,0-.444-1.063L6.437,14.39V14h3.935a2.408,2.408,0,0,0,4.813,0H19.12ZM11.371,14h2.813a1.409,1.409,0,0,1-2.813,0Zm8.1-1.552v.467H6.085v-.84h.082A1.824,1.824,0,0,0,7.6,11.36a1.977,1.977,0,0,0,.432-1.23V8.41c0-.055.012-.106.014-.16a4.028,4.028,0,0,1,2.459-3.7V11h1.052V4.341c.019,0,.037-.006.057-.006h2.333c.02,0,.038.006.057.006V11h1.053V4.554a4.032,4.032,0,0,1,2.459,3.7c0,.053.014.1.014.158v1.72a1.984,1.984,0,0,0,.431,1.23,1.822,1.822,0,0,0,1.431.715h.082Z" class="aw-theme-iconOutline" fill="#464646"/>
  </g>
</svg>
