<svg id="Image" xmlns="http://www.w3.org/2000/svg" viewBox="0 0 24 24">
  <path d="M10.98,14.752V13.569a.5.5,0,0,0-.5-.5l-.01,0H9.029a.5.5,0,0,0-.453.712.65.65,0,0,1,.065.278.68.68,0,0,1-1.36,0,.656.656,0,0,1,.065-.278.5.5,0,0,0-.453-.712H5.441a.5.5,0,0,0-.5.5V18.59a.5.5,0,0,0,.5.5H10.48a.5.5,0,0,0,.5-.5V17.418a1.334,1.334,0,0,0,0-2.666Zm-.244,1.616a.493.493,0,0,0-.5-.006.5.5,0,0,0-.253.435V18.09H5.941V14.07h.34a1.68,1.68,0,0,0,3.36,0H9.98v1.3a.5.5,0,0,0,.759.428.337.337,0,1,1,0,.567Zm7.885-3.3H17.459a1.33,1.33,0,0,0-2.659,0H13.628l-.016,0-.007,0a.5.5,0,0,0-.5.5v1.451a.5.5,0,0,0,.713.453.674.674,0,1,1,0,1.231.5.5,0,0,0-.711.453v1.43a.5.5,0,0,0,.5.5l.011,0,.012,0h4.995a.5.5,0,0,0,.5-.5v-5.02A.5.5,0,0,0,18.621,13.069ZM14.1,18.089v-.318a1.68,1.68,0,0,0,0-3.36v-.342h1.317a.5.5,0,0,0,.434-.253.5.5,0,0,0,0-.5.335.335,0,1,1,.608-.18.35.35,0,0,1-.052.18.5.5,0,0,0,.43.756h1.283v4.02Zm-8.725-7.16H6.542a1.329,1.329,0,0,0,2.657,0h1.173l.015,0H10.4a.5.5,0,0,0,.5-.5V8.976a.5.5,0,0,0-.713-.453.673.673,0,1,1,0-1.231A.5.5,0,0,0,10.9,6.84V5.411a.5.5,0,0,0-.5-.5h0l-.011,0-.012,0H5.378a.5.5,0,0,0-.5.5v5.019A.5.5,0,0,0,5.379,10.929ZM9.9,5.91v.318a1.68,1.68,0,0,0,0,3.36v.341H8.579a.5.5,0,0,0-.43.756.351.351,0,0,1,.052.181.331.331,0,1,1-.661,0,.351.351,0,0,1,.052-.181.5.5,0,0,0-.43-.756H5.879V5.91Zm8.726-1H13.63a.5.5,0,0,0-.5.5V6.582a1.335,1.335,0,0,0,0,2.667v1.182a.2.2,0,0,0,0,.024.386.386,0,0,0-.012.059.5.5,0,0,0,.5.5h1.433a.5.5,0,0,0,.453-.711.661.661,0,0,1-.065-.279.681.681,0,0,1,1.361,0,.641.641,0,0,1-.065.276.5.5,0,0,0,.452.714h1.43a.5.5,0,0,0,.5-.5c0-.014-.007-.026-.008-.04s.008-.026.008-.041V5.41a.5.5,0,0,0-.5-.5Zm-2.5,3.445a1.677,1.677,0,0,0-1.68,1.659H14.13V8.627a.5.5,0,0,0-.756-.429.337.337,0,1,1,0-.565.5.5,0,0,0,.756-.43V5.911h3.992v4.1h-.317A1.677,1.677,0,0,0,16.124,8.355ZM12,0A12,12,0,1,0,24,12,12,12,0,0,0,12,0Zm0,23A11,11,0,1,1,23,12,11.013,11.013,0,0,1,12,23Z" class="aw-theme-iconOutline" fill="#464646"/>
</svg>
