<svg id="Layer_1" data-name="Layer 1" xmlns="http://www.w3.org/2000/svg" viewBox="0 0 24 24">
  <g id="g874">
    <path id="rect1187" d="M5,19.758H15.273v1.363H5Z" class="aw-theme-iconOutline" fill="#464646"/>
    <path id="path1189" d="M15.009,22.994l.037-2.5V18l2.079,1.281,2.1,1.247-2.116,1.215Z" class="aw-theme-iconOutline" fill="#464646"/>
    <path id="rect912-1" d="M3,2H7.5V3H3Z" class="aw-theme-iconOutline" fill="#464646"/>
    <path id="rect912-1-4" d="M3,4H7.5V5H3Z" class="aw-theme-iconOutline" fill="#464646"/>
    <path id="rect912-1-5" d="M3,6H7.5V7H3Z" class="aw-theme-iconOutline" fill="#464646"/>
    <path id="path954" d="M6.75,10a1.5,1.5,0,1,1-1.5-1.5h0A1.5,1.5,0,0,1,6.75,10Z" class="aw-theme-iconOutline" fill="#464646"/>
    <path id="path954-0" d="M6.25,14a1,1,0,1,1-1-1A1,1,0,0,1,6.25,14Z" class="aw-theme-iconOutline" fill="#464646"/>
    <path id="rect971" d="M0,0V17H10.5V0ZM1,1H9.5V16H1Z" class="aw-theme-iconOutline" fill="#464646"/>
    <path id="rect912-1-2" d="M16.5,2H21V3H16.5Z" class="aw-theme-iconOutline" fill="#464646"/>
    <path id="rect912-1-4-9" d="M16.5,4H21V5H16.5Z" class="aw-theme-iconOutline" fill="#464646"/>
    <path id="rect912-1-5-5" d="M16.5,6H21V7H16.5Z" class="aw-theme-iconOutline" fill="#464646"/>
    <path id="path954-3" d="M20.25,10a1.5,1.5,0,1,1-1.5-1.5h0A1.5,1.5,0,0,1,20.25,10Z" class="aw-theme-iconOutline" fill="#464646"/>
    <path id="path954-0-9" d="M19.75,14a1,1,0,1,1-1-1A1,1,0,0,1,19.75,14Z" class="aw-theme-iconOutline" fill="#464646"/>
    <path id="rect971-9" d="M13.5,0V17H24V0Zm1,1H23V16H14.5Z" class="aw-theme-iconOutline" fill="#464646"/>
  </g>
</svg>
