<svg version="1.1" id="Livello_2" xmlns="http://www.w3.org/2000/svg" xmlns:xlink="http://www.w3.org/1999/xlink" x="0px" y="0px"
	  viewBox="0 0 24 24" enable-background="new 0 0 24 24" xml:space="preserve">
<path id="path833" class="aw-theme-iconOutline" fill="#464646" d="M7.789,2.5C7.352,2.5,7,2.856,7,3.299v2.402C7,6.144,7.352,6.5,7.789,6.5h2.422
	C10.648,6.5,11,6.144,11,5.701V3.299C11,2.856,10.648,2.5,10.211,2.5H7.789z M1,4v1h5V4H1z M12,4v1h11V4H12z M12.791,10
	C12.354,10,12,10.356,12,10.799v2.402C12,13.644,12.354,14,12.791,14h2.42C15.648,14,16,13.645,16,13.201v-2.402
	C16,10.356,15.648,10,15.211,10H12.791z M1,11.5v1h10v-1H1z M17,11.5v1h6v-1H17z M9.799,17.5C9.356,17.5,9,17.856,9,18.299v2.402
	C9,21.144,9.356,21.5,9.799,21.5h2.402c0.442,0,0.799-0.356,0.799-0.799v-2.402c0-0.442-0.356-0.799-0.799-0.799H9.799z M1,19v1h7
	v-1H1z M14,19v1h9v-1H14z"/>
</svg>
