<svg id="Layer_1" data-name="Layer 1" xmlns="http://www.w3.org/2000/svg" viewBox="0 0 24 24">
  <path d="M15,15H14V14h1Zm0-6H14V8h1Z" class="aw-theme-iconOutline" fill="#464646"/>
  <path d="M23,3V2H21V0H20V2H3V0H2V2H0V3H2V20H0v1H2v2H3V21H20v2h1V21h2V20H21V3ZM20,20H3V3H20Z" class="aw-theme-iconOutline" fill="#464646"/>
  <rect x="8" width="1" height="1" class="aw-theme-iconOutline" fill="#464646"/>
  <rect x="8" y="4" width="1" height="1" class="aw-theme-iconOutline" fill="#464646"/>
  <rect x="8" y="6" width="1" height="1" class="aw-theme-iconOutline" fill="#464646"/>
  <rect x="8" y="8" width="1" height="1" class="aw-theme-iconOutline" fill="#464646"/>
  <rect x="8" y="10" width="1" height="1" class="aw-theme-iconOutline" fill="#464646"/>
  <rect x="8" y="12" width="1" height="1" class="aw-theme-iconOutline" fill="#464646"/>
  <rect x="8" y="14" width="1" height="1" class="aw-theme-iconOutline" fill="#464646"/>
  <rect x="8" y="16" width="1" height="1" class="aw-theme-iconOutline" fill="#464646"/>
  <rect x="8" y="18" width="1" height="1" class="aw-theme-iconOutline" fill="#464646"/>
  <path d="M9,23H8V22H9Z" class="aw-theme-iconOutline" fill="#464646"/>
  <rect x="6" y="14" width="1" height="1" class="aw-theme-iconOutline" fill="#464646"/>
  <rect x="4" y="14" width="1" height="1" class="aw-theme-iconOutline" fill="#464646"/>
  <rect y="14" width="1" height="1" class="aw-theme-iconOutline" fill="#464646"/>
  <rect y="8" width="1" height="1" class="aw-theme-iconOutline" fill="#464646"/>
  <rect x="4" y="8" width="1" height="1" class="aw-theme-iconOutline" fill="#464646"/>
  <rect x="6" y="8" width="1" height="1" class="aw-theme-iconOutline" fill="#464646"/>
  <rect x="10" y="8" width="1" height="1" class="aw-theme-iconOutline" fill="#464646"/>
  <rect x="12" y="8" width="1" height="1" class="aw-theme-iconOutline" fill="#464646"/>
  <rect x="16" y="8" width="1" height="1" class="aw-theme-iconOutline" fill="#464646"/>
  <rect x="18" y="8" width="1" height="1" class="aw-theme-iconOutline" fill="#464646"/>
  <path d="M23,9H22V8h1Z" class="aw-theme-iconOutline" fill="#464646"/>
  <rect x="22" y="14" width="1" height="1" class="aw-theme-iconOutline" fill="#464646"/>
  <rect x="18" y="14" width="1" height="1" class="aw-theme-iconOutline" fill="#464646"/>
  <rect x="16" y="14" width="1" height="1" class="aw-theme-iconOutline" fill="#464646"/>
  <rect x="12" y="14" width="1" height="1" class="aw-theme-iconOutline" fill="#464646"/>
  <path d="M11,15H10V14h1Z" class="aw-theme-iconOutline" fill="#464646"/>
  <rect x="14" width="1" height="1" class="aw-theme-iconOutline" fill="#464646"/>
  <rect x="14" y="4" width="1" height="1" class="aw-theme-iconOutline" fill="#464646"/>
  <rect x="14" y="6" width="1" height="1" class="aw-theme-iconOutline" fill="#464646"/>
  <rect x="14" y="10" width="1" height="1" class="aw-theme-iconOutline" fill="#464646"/>
  <rect x="14" y="12" width="1" height="1" class="aw-theme-iconOutline" fill="#464646"/>
  <rect x="14" y="16" width="1" height="1" class="aw-theme-iconOutline" fill="#464646"/>
  <rect x="14" y="18" width="1" height="1" class="aw-theme-iconOutline" fill="#464646"/>
  <rect x="14" y="22" width="1" height="1" class="aw-theme-iconOutline" fill="#464646"/>
</svg>
