<svg id="Livello_3" data-name="Livello 3" xmlns="http://www.w3.org/2000/svg" viewBox="0 0 24 24">
  <g id="g841">
    <path id="rect843-9" d="M10.867,14.008l-1.219,0a.725.725,0,0,0-.638.73v1.6a.638.638,0,0,0,.6.674l.412,0a7.641,7.641,0,0,1,.133-1.022c-.1-.026-.146-.115-.148-.24l-.01-.48c-.007-.37.229-.229.229-.258V15h.212A7.568,7.568,0,0,1,10.867,14.008Z" class="aw-theme-iconOutline" fill="#464646"/>
    <path id="rect884" d="M2,2V6L3.818,7.953l.743-.693,0-.006L5.977,6.01,5.967,6H18.023l1.42,1.244,0,.006.742.693L21.99,6H22V2ZM3,3H5V5.535l-1.127.986L3,5.584ZM6,3H18V5H6ZM19,3h2V5.574l-.875.938L19,5.525V3Z" class="aw-theme-iconOutline" fill="#464646"/>
    <path id="rect983" d="M4.539,9a.675.675,0,0,0-.738.594v1.812A.676.676,0,0,0,4.539,12H12.41A7.53,7.53,0,0,1,13.8,10.986V9.594A.679.679,0,0,0,13.059,9Zm.578,1,7.457.008a.231.231,0,0,1,.24.252v.445a.273.273,0,0,1-.25.291L5.1,10.99a.264.264,0,0,1-.286-.244l-.009-.494C4.8,10.091,4.98,10,5.117,10Z" class="aw-theme-iconOutline" fill="#464646"/>
    <path id="rect2694" d="M0,0V24H13.793a7.519,7.519,0,0,1-1.359-1H1V1H23V12.393a7.519,7.519,0,0,1,1,1.359V0Z" class="aw-theme-iconOutline" fill="#464646"/>
    <path id="path837" d="M17.224,11.006A6.491,6.491,0,1,0,17.493,11C17.4,11,17.314,11,17.224,11.006Zm.27.994a5.5,5.5,0,0,1,5.5,5.5h0a5.5,5.5,0,1,1-5.5-5.5Z" class="aw-theme-iconOutline" fill="#464646"/>
    <path id="path833" d="M17.96,15.276v-2.5a.5.5,0,0,0-1,0v2.5a.5.5,0,1,0,1,0Z" class="aw-theme-iconOutline" fill="#464646"/>
    <path id="path831" d="M19.385,16.252l1.767-1.768a.5.5,0,0,0-.707-.707l-1.767,1.768a.5.5,0,0,0,.707.707Z" class="aw-theme-iconOutline" fill="#464646"/>
    <path id="path829" d="M22.7,17.452a.5.5,0,0,0-.5-.5H19.7a.5.5,0,0,0,0,1h2.5a.5.5,0,0,0,.5-.5v0Z" class="aw-theme-iconOutline" fill="#464646"/>
    <path id="path827" d="M21.2,21.144a.5.5,0,0,0,0-.707L19.434,18.67a.5.5,0,0,0-.707.707l1.767,1.765a.5.5,0,0,0,.707,0Z" class="aw-theme-iconOutline" fill="#464646"/>
    <path id="path825" d="M18.029,22.194v-2.5a.5.5,0,0,0-1,0v2.5a.5.5,0,0,0,1,0Z" class="aw-theme-iconOutline" fill="#464646"/>
    <path id="path823" d="M14.544,21.194l1.767-1.768a.5.5,0,0,0-.707-.707l-1.768,1.765a.5.5,0,1,0,.694.72l.013-.013Z" class="aw-theme-iconOutline" fill="#464646"/>
    <path id="path821" d="M15.787,17.521a.5.5,0,0,0-.5-.5h-2.5a.5.5,0,1,0,0,1h2.5a.5.5,0,0,0,.5-.5v0Z" class="aw-theme-iconOutline" fill="#464646"/>
    <path id="path2" d="M16.263,16.3a.5.5,0,0,0,0-.707l-1.769-1.77a.5.5,0,0,0-.72.7l.013.012L15.555,16.3a.5.5,0,0,0,.707,0Z" class="aw-theme-iconOutline" fill="#464646"/>
  </g>
</svg>
