<svg xmlns="http://www.w3.org/2000/svg" viewBox="0 0 24 24">
  <g id="Verb_Zone">
    <path d="M2.488,16.347l1.387-.826v.489a.5.5,0,0,0,.246.43L10.505,20.2a7.407,7.407,0,0,1-.385-1.387L4.875,15.724V7.885l4.959,2.924.982.579.684.4v1.238a7.557,7.557,0,0,1,1-1.092v-.146l.687-.405a7.5,7.5,0,0,1,1.017-.6l4.921-2.9V10.2a7.491,7.491,0,0,1,1,.3V7a.5.5,0,0,0-.246-.431L12.254,2.076a.5.5,0,0,0-.508,0L4.121,6.571A.5.5,0,0,0,3.875,7v7.355L1.243,15.925a.493.493,0,0,0,0,.852l10.464,6.14a.569.569,0,0,0,.592,0h0a7.513,7.513,0,0,1-1.215-1.522ZM12,3.087l6.648,3.919-5.456,3.217-.982.578-.21.128-.2-.124-.982-.579L5.352,7.006Zm5.5,7.929a6.5,6.5,0,1,0,6.5,6.5A6.5,6.5,0,0,0,17.5,11.016Zm0,12a5.5,5.5,0,1,1,5.5-5.5A5.5,5.5,0,0,1,17.5,23.016Zm-.534-7.724v-2.5a.5.5,0,0,1,1,0v2.5a.5.5,0,1,1-1,0Zm1.718.976a.5.5,0,0,1,0-.707l1.767-1.768a.5.5,0,0,1,.707.707l-1.767,1.768a.5.5,0,0,1-.707,0Zm4.024,1.2a.5.5,0,0,1-.5.5h-2.5a.5.5,0,0,1,0-1h2.5A.5.5,0,0,1,22.708,17.466Zm-1.5,2.985a.5.5,0,1,1-.707.707l-1.768-1.767a.5.5,0,0,1,.707-.707Zm-3.173-.743v2.5a.5.5,0,0,1-1,0v-2.5a.5.5,0,0,1,1,0Zm-1.718-.976a.5.5,0,0,1,0,.707l-1.767,1.768a.5.5,0,1,1-.707-.707l1.767-1.768A.5.5,0,0,1,16.316,18.732Zm-1.024-.7h-2.5a.5.5,0,0,1,0-1h2.5a.5.5,0,1,1,0,1Zm-1.5-3.485a.5.5,0,1,1,.707-.707l1.768,1.767a.5.5,0,0,1-.354.854.5.5,0,0,1-.353-.147Z" class="aw-theme-iconOutline" fill="#464646"/>
  </g>
</svg>
