<svg version="1.1" id="Livello_2" xmlns="http://www.w3.org/2000/svg" xmlns:xlink="http://www.w3.org/1999/xlink" x="0px" y="0px"
	  viewBox="0 0 24 24" enable-background="new 0 0 24 24" xml:space="preserve">
<path id="rect815"  class="aw-theme-iconOutline" fill="#464646" d="M9,15v6h6v-6H9z M10,16h4v4h-4V16z"/>
<rect id="rect815-5" x="1" y="15" class="aw-theme-iconOutline" fill="#464646" width="6" height="6"/>
<rect id="rect815-5-6" x="17" y="15" class="aw-theme-iconOutline" fill="#464646" width="6" height="6"/>
<path id="path890"  class="aw-theme-iconOutline" fill="#464646" d="M11.564,5
	c-4.547,0.008-8.312,4.306-8.778,8.891l1-0.008C4.249,9.851,7.56,6.003,11.564,6c4.002,0.004,7.368,3.047,7.83,7.076h1.002
	C19.929,8.488,16.115,5.001,11.564,5L11.564,5z"/>
<rect id="rect911" x="16.484" y="12.014" transform="matrix(-0.8914 -0.4533 0.4533 -0.8914 29.2879 32.047)" class="aw-theme-iconOutline" fill="#464646" width="4" height="1"/>
<rect id="rect911-2" x="19.049" y="11.569"  transform="matrix(0.6866 -0.7271 0.7271 0.6866 -2.1772 19.0875)" class="aw-theme-iconOutline" fill="#464646" width="4" height="1">
</rect>
</svg>
