<svg version="1.1" id="Livello_3" xmlns="http://www.w3.org/2000/svg" xmlns:xlink="http://www.w3.org/1999/xlink" x="0px" y="0px"
	  viewBox="0 0 24 24" enable-background="new 0 0 24 24" xml:space="preserve">
<path id="rect843" class="aw-theme-iconOutline" fill="#464646" d="M12.878,19
	c-0.38,0-0.678,0.298-0.678,0.68v1.631c0,0.382,0.307,0.689,0.688,0.689h6.625c0.38,0,0.688-0.309,0.688-0.689V19.68
	c0-0.381-0.335-0.68-0.716-0.68H12.878z M13.483,19.994h5.434c0.156,0,0.283,0.117,0.283,0.264v0.475
	c0,0.146-0.127,0.246-0.283,0.246l-5.425,0.007c-0.156,0.001-0.292-0.108-0.292-0.255v-0.475c0-0.146,0.126-0.264,0.283-0.264
	V19.994z"/>
<path id="rect843-9" class="aw-theme-iconOutline" fill="#464646" d="M9.649,14.012
	c-0.333,0.002-0.639,0.357-0.639,0.73v1.596c0,0.373,0.269,0.676,0.602,0.674l5.796-0.019c0.334-0.001,0.602-0.282,0.602-0.655
	v-1.596c0-0.373-0.318-0.75-0.651-0.749L9.649,14.012z M10.227,15l4.547,0.002c0.138,0,0.235,0.172,0.229,0.314l-0.02,0.465
	c-0.006,0.143-0.1,0.23-0.236,0.23l-4.551-0.002c-0.137,0-0.187-0.115-0.189-0.26l-0.009-0.482c-0.007-0.37,0.229-0.229,0.229-0.258
	V15z"/>
<path id="rect884" class="aw-theme-iconOutline" fill="#464646" d="M2,2v1v3l1.818,1.953L4.561,7.26L4.557,7.254l1.42-1.244L5.967,6H6h12h0.023l1.42,1.244
	L19.439,7.25l0.742,0.693L21.99,6H22V2H2z M3,3h2v2v0.535L3.873,6.521L3,5.584V3z M6,3h12v2H6V3z M19,3h2v2.574l-0.875,0.938
	L19,5.525V5V3z"/>
<path id="rect983" class="aw-theme-iconOutline" fill="#464646" d="M4.54,9
	C4.129,9,3.8,9.265,3.8,9.594v1.813C3.8,11.734,4.129,12,4.54,12h8.518c0.411,0,0.742-0.266,0.742-0.594V9.594
	C13.8,9.265,13.469,9,13.058,9H4.54z M5.118,10l7.457,0.007c0.137,0,0.239,0.092,0.239,0.253v0.446c0,0.162-0.112,0.291-0.249,0.291
	L5.099,10.99c-0.137,0-0.281-0.082-0.285-0.244l-0.009-0.494C4.802,10.091,4.981,10,5.118,10L5.118,10z"/>
<path id="rect2694" class="aw-theme-iconOutline" fill="#464646" d="M0,0v24h24V0H0z M1,1h22v22H1V1z"/>
</svg>
