<svg id="Image" xmlns="http://www.w3.org/2000/svg" viewBox="0 0 24 24">
  <g id="g895">
    <path id="path835" d="M12.5,7.9V3.279c0-.51-.224-.923-.5-.923s-.5.413-.5.923V7.9c0,.509.224.923.5.923S12.5,8.4,12.5,7.9Z" class="aw-theme-iconOutline" fill="#464646"/>
    <path id="path831" d="M21.614,12c0-.276-.414-.5-.924-.5H16.072c-.51,0-.923.224-.923.5s.413.5.923.5H20.69c.51,0,.924-.224.924-.5v0Z" class="aw-theme-iconOutline" fill="#464646"/>
    <path id="path827" d="M12.5,20.666V16.051c0-.51-.224-.923-.5-.923s-.5.413-.5.923v4.615c0,.51.224.924.5.924S12.5,21.176,12.5,20.666Z" class="aw-theme-iconOutline" fill="#464646"/>
    <path id="path823" d="M8.841,12c0-.276-.413-.5-.923-.5H3.3c-.51,0-.923.224-.923.5s.413.5.923.5H7.918c.51,0,.922-.225.921-.5v0Z" class="aw-theme-iconOutline" fill="#464646"/>
    <path id="path823-2" d="M9.719,9.785c.2-.194.065-.645-.293-1.009L6.183,5.489c-.358-.363-.808-.5-1-.307s-.066.646.292,1.009L8.714,9.479c.359.362.808.5,1,.3h0Z" class="aw-theme-iconOutline" fill="#464646"/>
    <path id="path823-2-9" d="M18.809,18.823c.2-.193.066-.645-.293-1.008h0l-3.242-3.288c-.359-.363-.808-.5-1-.306s-.066.645.293,1.008L17.8,18.517c.359.363.808.5,1,.3h0Z" class="aw-theme-iconOutline" fill="#464646"/>
    <path id="path823-2-9-7" d="M5.179,18.823c-.2-.194-.065-.645.293-1.008h0l3.242-3.288c.359-.363.808-.5,1-.306s.065.645-.293,1.008L6.184,18.517c-.359.363-.808.5-1,.3h0Z" class="aw-theme-iconOutline" fill="#464646"/>
    <path id="path823-2-9-7-4" d="M14.269,9.785c-.2-.193-.065-.645.293-1.008h0L17.8,5.489c.359-.363.808-.5,1.005-.3s.065.645-.293,1.007L15.274,9.479c-.359.363-.808.5-1,.3h0Z" class="aw-theme-iconOutline" fill="#464646"/>
    <path id="path881" d="M12,0A12,12,0,1,0,24,12,12,12,0,0,0,12,0Zm0,1A11,11,0,1,1,1,12,11,11,0,0,1,12,1Z" class="aw-theme-iconOutline" fill="#464646"/>
  </g>
</svg>
