<svg id="Livello_3" data-name="Livello 3" xmlns="http://www.w3.org/2000/svg" viewBox="0 0 24 24">
  <g id="g835">
    <path id="rect841" d="M2.055,0A.054.054,0,0,0,2,.055v23.89A.054.054,0,0,0,2.055,24h19.89A.054.054,0,0,0,22,23.945V.055A.054.054,0,0,0,21.945,0Zm1,1h17.9A.051.051,0,0,1,21,1.051v21.9a.051.051,0,0,1-.051.051H3.051A.051.051,0,0,1,3,22.949V1.051A.051.051,0,0,1,3.051,1Z" class="aw-theme-iconOutline" fill="#464646"/>
    <g id="g903">
      <path id="rect2-5" d="M10.721,14.924l3.527-3.531.356.356L11.072,15.28Z" class="aw-theme-iconOutline" fill="#464646" stroke="#464646" stroke-width="0.3"/>
      <path id="rect4-2" d="M11.721,15.934,14.75,12.9l.356.356-3.029,3.034Z" class="aw-theme-iconOutline" fill="#464646" stroke="#464646" stroke-width="0.3"/>
      <path id="rect6-8" d="M12.731,16.94l3.527-3.532.356.356L13.087,17.3Z" class="aw-theme-iconOutline" fill="#464646" stroke="#464646" stroke-width="0.3"/>
      <path id="path8-4" d="M13.167,19.8,8.121,14.75l6.647-6.657h4.046l1,1v4.052ZM8.83,14.75l4.337,4.336,6.143-6.152V9.3l-.7-.7H14.981ZM17.5,11.264a.89.89,0,0,1-.626-1.521.864.864,0,0,1,1.222-.03l.029.03a.958.958,0,0,1,.016,1.236L18.128,11A.882.882,0,0,1,17.5,11.264Zm0-1.285a.409.409,0,0,0-.387.391.387.387,0,0,0,.117.27.366.366,0,0,0,.517.021l.015-.014a.464.464,0,0,0,.007-.549A.381.381,0,0,0,17.5,9.979Z" class="aw-theme-iconOutline" fill="#464646" stroke="#464646" stroke-width="0.25"/>
      <path id="rect2-2-7" d="M6.813,12.172l3.492-3.529L10.658,9l-3.5,3.53Z" class="aw-theme-iconOutline" fill="#464646" stroke="#464646" stroke-width="0.3"/>
      <path id="rect4-3-8" d="M7.808,13.183l3-3.03.353.356-3,3.03Z" class="aw-theme-iconOutline" fill="#464646" stroke="#464646" stroke-width="0.3"/>
      <path id="path8-7-0" d="M10.832,5.348,4.251,12l4.994,5.05.58-.587L9.473,16.1l-.229.232L4.954,12l6.08-6.146h3.592l.7.705L15.3,8.187h.524V6.349l-.991-1Zm2.705,1.38A.868.868,0,0,0,12.918,7a.882.882,0,0,0-.006,1.247l.006.006a.849.849,0,0,0,1.2.038.454.454,0,0,0,.038-.038l.016-.015A.969.969,0,0,0,14.156,7a.87.87,0,0,0-.619-.268Zm0,.5a.378.378,0,0,1,.266.119A.461.461,0,0,1,13.8,7.9a.357.357,0,0,1-.506.014l-.019-.019a.392.392,0,0,1-.118-.27.4.4,0,0,1,.118-.271.374.374,0,0,1,.266-.111Z" class="aw-theme-iconOutline" fill="#464646" stroke="#464646" stroke-width="0.25"/>
      <path id="path847" d="M6.747,14.489,4.286,12,6.94,9.309C8.4,7.83,9.877,6.337,10.216,5.991l.616-.629h3.959l.508.507.507.506V8.083h-.5l.031-.757.031-.757-.384-.381-.382-.38H11.04L7.981,8.9l-3.058,3.09,2.14,2.177c1.179,1.2,2.156,2.176,2.173,2.176a.349.349,0,0,0,.122-.1c.092-.1.092-.1.256.059l.165.16-.258.262a2,2,0,0,1-.285.26C9.221,16.982,8.1,15.86,6.747,14.489Z" class="aw-theme-iconOutline" fill="#464646" stroke="#464646" stroke-linecap="round" stroke-width="0.25"/>
    </g>
  </g>
</svg>
