<svg version="1.1" id="Livello_3" xmlns="http://www.w3.org/2000/svg" xmlns:xlink="http://www.w3.org/1999/xlink" x="0px" y="0px"
	  viewBox="0 0 24 24" enable-background="new 0 0 24 24" xml:space="preserve">
<path id="path814" class="aw-theme-iconOutline" fill="#464646" d="M12,0C5.373,0,0,5.373,0,12c0,6.627,5.373,12,12,12c6.627,0,12-5.373,12-12
	C24,5.373,18.627,0,12,0z M12,1c6.075,0,11,4.925,11,11s-4.925,11-11,11S1,18.075,1,12S5.925,1,12,1z"/>
<path id="path832" class="aw-theme-iconOutline" fill="#464646" d="M12.258,1.943C8.854,1.856,5.641,3.506,3.729,6.322l16.547,11.234
	c2.007-2.955,2.284-6.757,0.729-9.973c-1.557-3.216-4.711-5.357-8.273-5.617C12.573,1.955,12.416,1.947,12.258,1.943z M14.479,4
	h0.043C14.787,4,15,4.261,15,4.586V7h2.299c0.326,0,0.588,0.213,0.588,0.479v0.043C17.887,7.787,17.625,8,17.299,8H15v2.414
	C15,10.739,14.787,11,14.521,11h-0.043C14.213,11,14,10.739,14,10.414V8h-2.553c-0.326,0-0.588-0.213-0.588-0.479V7.479
	C10.859,7.213,11.122,7,11.447,7H14V4.586C14,4.261,14.213,4,14.479,4z"/>
<path id="rect834-6-6" class="aw-theme-iconOutline" fill="#464646" d="M12,15.479v0.043C12,15.785,11.738,16,11.415,16H5.585C5.262,16,5,15.785,5,15.521v-0.043
	C5,15.215,5.262,15,5.585,15h5.829C11.738,15,12,15.215,12,15.479z"/>
</svg>
