<svg id="svg8" xmlns="http://www.w3.org/2000/svg" viewBox="0 0 24 24">
  <g id="layer1">
    <g id="g840">
      <path id="rect815" d="M1.722,0A1.485,1.485,0,0,0,.25,1.5V22.5A1.485,1.485,0,0,0,1.722,24H22.278a1.485,1.485,0,0,0,1.472-1.5V1.5A1.485,1.485,0,0,0,22.278,0Zm.486,1H21.792a1.034,1.034,0,0,1,.979,1V22a1.034,1.034,0,0,1-.979,1H2.208a1.034,1.034,0,0,1-.979-1V2A1.034,1.034,0,0,1,2.208,1Z" class="aw-theme-iconOutline" fill="#464646" fill-rule="evenodd"/>
      <path id="path834" d="M7.553,2.5a2,2,0,0,0-2,2h0a2,2,0,0,0,2,2h0a2,2,0,0,0,2-2h0a2,2,0,0,0-2-2Zm0,1a1,1,0,0,1,1,1h0a1,1,0,0,1-1,1h0a1,1,0,0,1-1-1h0a1,1,0,0,1,1-1Z" class="aw-theme-iconOutline" fill="#464646" fill-rule="evenodd"/>
      <path id="path834-0" d="M16.553,2.5a2,2,0,0,0-2,2h0a2,2,0,0,0,2,2h0a2,2,0,0,0,2-2h0a2,2,0,0,0-2-2Zm0,1a1,1,0,0,1,0,2h0a1,1,0,0,1-1-1h0A1,1,0,0,1,16.553,3.5Z" class="aw-theme-iconOutline" fill="#464646" fill-rule="evenodd"/>
      <path id="path831" d="M1.09,7.928V9H4.75v3.967H1.121V14H4.75v4H1.186v1H4.75v4h.783v.244H9.512V23h.736V19.4H8.775V18H5.754V9h3.5v.389h1V9h3.5v.389h1V9h1.239l1.06-1.072Z" class="aw-theme-iconOutline" fill="#464646" fill-rule="evenodd"/>
      <path id="path829" d="M21.471,7.928,20.389,9H23.25V7.928Z" class="aw-theme-iconOutline" fill="#464646" fill-rule="evenodd"/>
      <path id="path827" d="M21.9,18v1H23.25V18Z" class="aw-theme-iconOutline" fill="#464646" fill-rule="evenodd"/>
      <path id="path825" d="M18.254,19.266V23h1V19.266Z" class="aw-theme-iconOutline" fill="#464646" fill-rule="evenodd"/>
      <path id="rect854" d="M13.75,19.4V23h1V19.4Z" class="aw-theme-iconOutline" fill="#464646" fill-rule="evenodd"/>
      <path id="polygon2-7" d="M20.6,5.6l.8.8L11.7,16H15v1H10V12h1v3.3Z" class="aw-theme-iconOutline" fill="#464646"/>
      <path id="rect859" d="M8.684,18h1.558v1.63H8.684Z" class="aw-theme-iconOutline" fill="#464646"/>
      <path id="rect861" d="M10.242,18H22v1H10.242Z" class="aw-theme-iconOutline" fill="#464646"/>
      <path id="rect863" d="M13.747,18.64h1v1.024h-1Z" class="aw-theme-iconOutline" fill="#464646"/>
      <path id="rect863-5" d="M18.253,18.538h1v1.024h-1Z" class="aw-theme-iconOutline" fill="#464646"/>
    </g>
  </g>
</svg>
