<svg id="Image" xmlns="http://www.w3.org/2000/svg" viewBox="0 0 24 24">
  <path d="M17.6,16.123c1.3,0,2.3-1.6,2.3-2.969a2.3,2.3,0,1,0-4.6,0C15.3,14.527,16.308,16.123,17.6,16.123Zm0-4.36a1.313,1.313,0,0,1,1.289,1.391c0,.878-.711,1.956-1.289,1.956s-1.29-1.078-1.29-1.956A1.313,1.313,0,0,1,17.6,11.763Zm2.513,4.19-.325-.108-.177.181a3.456,3.456,0,0,1-3.989.03l-.211-.211-.335.112a3.09,3.09,0,0,0-1.83,2.687v4.4h8.707v-4.4A3.011,3.011,0,0,0,20.117,15.953ZM21,22.035h-.578V18.957H19.405v3.078H15.8V18.957H14.789v3.078h-.526V18.644a1.94,1.94,0,0,1,1.019-1.659,4.334,4.334,0,0,0,2.165.68L16.9,20l.708.707L18.311,20l-.551-2.334a4.519,4.519,0,0,0,2.21-.68A2.053,2.053,0,0,1,21,18.644ZM1,22V9H23v2.7a7.977,7.977,0,0,1,1,1.147V5H20.6l-.8-3.6L8.2,4,7.4,2.6A1.425,1.425,0,0,0,6.2,2H1.4A1.367,1.367,0,0,0,0,3.4V23H11.7a8.059,8.059,0,0,1-.814-1ZM23,6V8H21.2l-.4-2ZM19,2.6,20.2,8H3.8L3.4,6.1ZM1,3.4A.43.43,0,0,1,1.4,3H6.3a1.007,1.007,0,0,1,.3.1l.6,1.1-5,1.1L2.8,8H1Z" class="aw-theme-iconOutline" fill="#464646"/>
</svg>
