<svg id="Image" xmlns="http://www.w3.org/2000/svg" viewBox="0 0 24 24">
  <path d="M8.249,14.787l4.392-5.409.817.659L8.242,16.529,5.409,13.1l.826-.692ZM9.433,2.959a.5.5,0,1,0,.5.5A.5.5,0,0,0,9.433,2.959Zm8.433.328v6.731c-.122-.005-.242-.018-.366-.018-.214,0-.424.014-.634.032V4.287H13.787V6.074H5.08V4.287H2V22.053h8.55a7.522,7.522,0,0,0,.921,1H1V3.287H5.461A1.405,1.405,0,0,1,6.487,2.84H6.9A1.852,1.852,0,0,1,8.753,1.053h1.36a1.854,1.854,0,0,1,1.86,1.787h.407a1.405,1.405,0,0,1,1.026.447Zm-5.079.947a.4.4,0,0,0-.407-.394H10.974V2.894a.852.852,0,0,0-.861-.841H8.753a.851.851,0,0,0-.859.841V3.84H6.487a.4.4,0,0,0-.407.394v.84h6.707v-.84ZM15.5,16a.5.5,0,0,1-.354-.146l-2-2a.5.5,0,0,1,.707-.707l2,2A.5.5,0,0,1,15.5,16Zm-.5.5a.5.5,0,0,0-.5-.5h-2a.5.5,0,0,0,0,1h2A.5.5,0,0,0,15,16.5Zm7.852,6.354a.5.5,0,0,0,0-.707l-2-2a.5.5,0,0,0-.707.707l2,2a.5.5,0,0,0,.706,0ZM20,23.5v-2a.5.5,0,0,0-1,0v2a.5.5,0,0,0,1,0Zm4-4a.5.5,0,0,0-.5-.5h-2a.5.5,0,0,0,0,1h2A.5.5,0,0,0,24,19.5Zm-1.773-1.139.8-.8h0a3.242,3.242,0,0,0,0-4.585,3.308,3.308,0,0,0-4.6.015l-.77.838h0a.478.478,0,1,0,.7.646l.755-.823a2.339,2.339,0,0,1,3.232,0h0a2.285,2.285,0,0,1,0,3.231l-.8.8a.479.479,0,0,0,.678.677Zm-4.672,4.664.812-.812a.478.478,0,1,0-.676-.677l-.813.812a2.341,2.341,0,0,1-3.232,0,2.286,2.286,0,0,1-.014-3.218l.847-.778a.508.508,0,0,0,.054-.05.478.478,0,0,0-.7-.65l-.861.792a3.24,3.24,0,1,0,4.584,4.581ZM17,14.5v-2a.5.5,0,0,0-1,0v2a.5.5,0,0,0,1,0Z" class="aw-theme-iconOutline" fill="#464646"/>
</svg>
