<svg id="Livello_3" data-name="Livello 3" xmlns="http://www.w3.org/2000/svg" viewBox="0 0 24 24">
  <g id="g853">
    <path id="path62" d="M16.378,4.264A7.959,7.959,0,0,0,12,2.91,8.282,8.282,0,0,0,8.507,3.7l-.359-.842a8.471,8.471,0,0,1,3.846-.887,8.712,8.712,0,0,1,4.875,1.5Z" class="aw-theme-iconOutline" fill="#464646"/>
    <path id="path64" d="M15.483,20.334l-.358-.888a8.362,8.362,0,0,0,4.7-5.232l.85.28A9.427,9.427,0,0,1,15.483,20.334Z" class="aw-theme-iconOutline" fill="#464646"/>
    <path id="path66" d="M6.448,19.072A9.6,9.6,0,0,1,2.87,11.5h.9A8.52,8.52,0,0,0,7.03,18.325Z" class="aw-theme-iconOutline" fill="#464646"/>
    <path id="path841" d="M5.063,1.008a2,2,0,0,0-1.547.654,2.179,2.179,0,0,0-.7,1.676,3.012,3.012,0,0,0,.348,1.4,2.47,2.47,0,0,0,1.59,1.418,1.175,1.175,0,0,0,.58,0A2.862,2.862,0,0,0,7.3,3.479a2.179,2.179,0,0,0-.686-1.817A2,2,0,0,0,5.063,1.008Zm-.075.939a1.226,1.226,0,0,1,.965.373,1.67,1.67,0,0,1,.139,2.049,2.141,2.141,0,0,1-.68.777c-.382.2-.8.05-1.146-.406A2.1,2.1,0,0,1,3.854,2.8a1.432,1.432,0,0,1,.765-.777A1.453,1.453,0,0,1,4.988,1.947Z" class="aw-theme-iconOutline" fill="#464646"/>
    <path id="path837" d="M19.012,3.807a2.178,2.178,0,0,0-1.655.662,2.4,2.4,0,0,0-.595,2.363,3.156,3.156,0,0,0,.843,1.51,2,2,0,0,0,.969.6,1.647,1.647,0,0,0,.869-.05,2.621,2.621,0,0,0,1.371-1.348,2.844,2.844,0,0,0,.319-1.883A2.278,2.278,0,0,0,19.012,3.807Zm-.088.943a1.269,1.269,0,0,1,.521.105,1.4,1.4,0,0,1,.787,1.174,2.244,2.244,0,0,1-1,1.924.569.569,0,0,1-.63-.01,2.24,2.24,0,0,1-.983-1.968,1.426,1.426,0,0,1,.781-1.12A1.277,1.277,0,0,1,18.924,4.75Z" class="aw-theme-iconOutline" fill="#464646"/>
    <path id="path845" d="M10.773,13.609a2.043,2.043,0,0,0-.435.065,2.361,2.361,0,0,0-1.649,1.711,3,3,0,0,0,1.8,3.353,1.747,1.747,0,0,0,1.725-.588,2.341,2.341,0,0,0,.545-.791,4.771,4.771,0,0,0,.3-.75,3.344,3.344,0,0,0,0-1.265A2.315,2.315,0,0,0,10.773,13.609Zm.039.957a.922.922,0,0,1,.571.1,1.369,1.369,0,0,1,.8,1.275,2.222,2.222,0,0,1-.969,1.809.632.632,0,0,1-.641.025,2.247,2.247,0,0,1-.957-1.394,1.961,1.961,0,0,1,.078-1.043A1.258,1.258,0,0,1,10.812,14.566Z" class="aw-theme-iconOutline" fill="#464646"/>
    <path id="path864" d="M1.007,10.355c-.007-.007,0-1.488,0-1.6A3.215,3.215,0,0,1,1.6,7.132a3.077,3.077,0,0,1,.932-.871c.075-.044.431-.226.441-.226s.08.054.168.119.2.143.24.172a2.971,2.971,0,0,0,1.966.52A3.039,3.039,0,0,0,6.75,6.331C6.8,6.3,6.91,6.219,7,6.153s.164-.119.167-.119.333.163.406.205a3.121,3.121,0,0,1,1.009.952,3.476,3.476,0,0,1,.4.827,3.289,3.289,0,0,1,.126.569,8.431,8.431,0,0,1,.022,1.036l0,.733-.49,0-.489,0,0-.751A3.951,3.951,0,0,0,8.1,8.483,2.243,2.243,0,0,0,7.265,7.2l-.02-.014-.03.013c-.016.007-.069.036-.118.065a3.9,3.9,0,0,1-4.061,0c-.048-.028-.1-.057-.115-.064l-.029-.012-.02.014a2.109,2.109,0,0,0-.232.2,2.513,2.513,0,0,0-.252.3A2.273,2.273,0,0,0,2,8.668a6.541,6.541,0,0,0-.017.892l0,.8H1.494c-.265,0-.485,0-.487,0Z" class="aw-theme-iconOutline" fill="#464646"/>
    <path id="rect866" d="M2.994,8.964H4.007v1.4H2.994Z" class="aw-theme-iconOutline" fill="#464646"/>
    <path id="rect866-4" d="M5.981,8.972H6.994v1.4H5.981Z" class="aw-theme-iconOutline" fill="#464646"/>
    <path id="path864-9" d="M14.871,13.149c-.007-.007-.005-1.489,0-1.6a3.213,3.213,0,0,1,.588-1.628,3.077,3.077,0,0,1,.932-.871c.075-.044.431-.226.44-.226s.08.053.168.119.2.143.24.172a2.965,2.965,0,0,0,1.966.52,3.04,3.04,0,0,0,1.406-.514c.048-.033.16-.112.249-.178s.163-.119.167-.119.333.163.406.205a3.107,3.107,0,0,1,1.008.952,3.48,3.48,0,0,1,.4.827,3.373,3.373,0,0,1,.126.568A8.576,8.576,0,0,1,23,12.416l0,.734H22.5l-.49,0,0-.752a3.875,3.875,0,0,0-.052-1.125,2.273,2.273,0,0,0-.838-1.285l-.021-.014-.03.013c-.017.007-.069.036-.117.065a3.9,3.9,0,0,1-4.061,0c-.048-.029-.1-.058-.115-.064l-.028-.013-.021.015a2.329,2.329,0,0,0-.231.2,2.6,2.6,0,0,0-.252.3,2.323,2.323,0,0,0-.393.968,6.529,6.529,0,0,0-.017.891l0,.8h-.482c-.266,0-.485,0-.488,0Z" class="aw-theme-iconOutline" fill="#464646"/>
    <path id="rect866-8" d="M16.858,11.758h1.014v1.4H16.858Z" class="aw-theme-iconOutline" fill="#464646"/>
    <path id="rect866-4-3" d="M19.845,11.766h1.014v1.4H19.845Z" class="aw-theme-iconOutline" fill="#464646"/>
    <path id="path864-1" d="M6.805,22.974c-.007-.008,0-1.489,0-1.6a3.231,3.231,0,0,1,.587-1.628,3.085,3.085,0,0,1,.932-.87c.075-.044.431-.227.441-.227s.08.054.168.119.2.143.24.172a2.97,2.97,0,0,0,1.966.521,3.031,3.031,0,0,0,1.406-.515c.048-.032.16-.112.248-.178s.164-.119.168-.119.333.163.405.2a3.11,3.11,0,0,1,1.009.952,3.458,3.458,0,0,1,.4.827,3.28,3.28,0,0,1,.127.568,8.542,8.542,0,0,1,.021,1.035l0,.734h-.489l-.49,0,.005-.752A3.88,3.88,0,0,0,13.9,21.1a2.319,2.319,0,0,0-.6-1.077,2.274,2.274,0,0,0-.238-.207l-.021-.015-.03.013c-.017.007-.069.036-.117.065a3.9,3.9,0,0,1-4.062,0c-.048-.028-.1-.058-.116-.064L8.69,19.8l-.021.015a2.226,2.226,0,0,0-.232.2,2.421,2.421,0,0,0-.251.3,2.287,2.287,0,0,0-.393.967,6.529,6.529,0,0,0-.017.891l0,.8H7.292c-.266,0-.485,0-.487,0Z" class="aw-theme-iconOutline" fill="#464646"/>
    <path id="rect866-48" d="M8.792,21.582H9.806v1.4H8.792Z" class="aw-theme-iconOutline" fill="#464646"/>
    <path id="rect866-4-2" d="M11.778,21.59h1.014v1.4H11.778Z" class="aw-theme-iconOutline" fill="#464646"/>
  </g>
</svg>
