<svg id="Image" xmlns="http://www.w3.org/2000/svg" viewBox="0 0 24 24">
  <g id="g818">
    <path id="path829" d="M12,2.571a.39.39,0,1,0,.282.13A.378.378,0,0,0,12,2.571Z" class="aw-theme-iconOutline" fill="#464646"/>
    <path id="path827" d="M11.482,1A1.531,1.531,0,0,0,9.955,2.359h-.2a1.2,1.2,0,0,0-.832.34H5.461V14.414L1.246,16.926a.493.493,0,0,0,0,.851l10.461,6.141a.571.571,0,0,0,.594,0l10.453-6.141a.492.492,0,0,0,.18-.673.485.485,0,0,0-.176-.178l-4.215-2.514V2.7H15.076a1.2,1.2,0,0,0-.832-.34h-.2A1.531,1.531,0,0,0,12.518,1Zm0,1h1.036a.53.53,0,0,1,.537.521v.84h1.189a.187.187,0,0,1,.192.181h0v.52H9.564v-.52a.187.187,0,0,1,.191-.182h1.19v-.84A.53.53,0,0,1,11.482,2ZM6.457,3.7H8.564V5.063h6.872V3.7h2.107V16.992H6.457ZM18.543,15.576l2.969,1.772-9.506,5.584L2.488,17.348l2.969-1.77v2.414H18.543Z" class="aw-theme-iconOutline" fill="#464646"/>
    <path id="path825" d="M10.555,7v.406a3,3,0,0,0-2.124,2.952v1.016a.487.487,0,0,1-.464.507H7.505a.244.244,0,0,0-.233.252V13.4a.244.244,0,0,0,.173.244h8.939a.248.248,0,0,0,.175-.244v-1.27a.243.243,0,0,0-.233-.253h-.467a.488.488,0,0,1-.464-.508V10.357a3,3,0,0,0-2.122-2.952V7Zm.664.951h1.393c.012,0,.022,0,.034,0v3.931h.628V8.08a2.379,2.379,0,0,1,1.467,2.185c0,.031.008.062.008.093v1.016a1.164,1.164,0,0,0,.258.726,1.093,1.093,0,0,0,.854.422h.047v.494H7.921v-.5H7.97a1.09,1.09,0,0,0,.854-.422,1.153,1.153,0,0,0,.257-.725V10.357c0-.033.009-.062.01-.095a2.377,2.377,0,0,1,1.468-2.184v3.808h.627V7.955c.011,0,.021,0,.033,0Z" class="aw-theme-iconOutline" fill="#464646"/>
  </g>
</svg>
