<svg id="Image" xmlns="http://www.w3.org/2000/svg" viewBox="0 0 24 24">
  <path d="M5.409,13.042l.826-.692,2.014,2.383L12.64,9.325l.818.659L8.242,16.476ZM23.9,19.722l-1.579-2.244-.818.576h0l-1.522,1.071.577.818.714-.5a4.072,4.072,0,0,1-7.687-1.758l-1,.027a5.086,5.086,0,0,0,4.21,4.865,5.18,5.18,0,0,0,.883.076,5.048,5.048,0,0,0,4.736-3.3l.668.949ZM13.248,16.389h0L15.511,14.8l-.576-.819-.715.5a4.071,4.071,0,0,1,7.686,1.758l1-.027a5.073,5.073,0,0,0-9.828-1.639l-.669-.95-.818.576,1.579,2.244ZM17.866,3.234v7.1c-.163-.011-.325-.025-.491-.025s-.34.014-.509.026v-6.1H13.787V6.021H5.08V4.234H2V22h9.909a7.178,7.178,0,0,0,1.025,1H1V3.234H5.461a1.405,1.405,0,0,1,1.026-.447H6.9A1.852,1.852,0,0,1,8.753,1h1.36a1.852,1.852,0,0,1,1.859,1.787h.408a1.408,1.408,0,0,1,1.027.447h4.459ZM5.181,3.668l0-.007Zm7.606.513a.4.4,0,0,0-.407-.394H10.973V2.84a.851.851,0,0,0-.86-.84H8.753a.851.851,0,0,0-.859.84v.947H6.487a.4.4,0,0,0-.407.394v.84h6.707Zm.9-.513,0-.007ZM9.433,2.906a.5.5,0,1,0,.5.5A.5.5,0,0,0,9.433,2.906Z" class="aw-theme-iconOutline" fill="#464646"/>
</svg>
