<svg id="Livello_2" data-name="Livello 2" xmlns="http://www.w3.org/2000/svg" viewBox="0 0 24 24">
  <g id="g835">
    <path id="path2" d="M6.453,1.871A3.545,3.545,0,0,0,2.848,5.336c0,2.047,1.6,4.408,3.605,4.408s3.608-2.361,3.608-4.408A3.547,3.547,0,0,0,6.453,1.871Zm0,.789A2.749,2.749,0,0,1,9.26,5.336c0,1.574-1.284,3.621-2.807,3.621s-2.8-2.047-2.8-3.621A2.748,2.748,0,0,1,6.453,2.66ZM2.842,9.039a3.048,3.048,0,0,0-.852.373,6.024,6.024,0,0,0-1.23,1.16A4.062,4.062,0,0,0,.072,12.1a29.109,29.109,0,0,0-.06,3.316L0,18.492H.844l.008-3.1.007-3.1.08-.271a3.561,3.561,0,0,1,.977-1.526,5.006,5.006,0,0,1,.8-.582l.092-.049L3.057,10a7.148,7.148,0,0,0,6.273.262c.208-.094.473-.222.584-.286l.2-.115.115.063a4.914,4.914,0,0,1,.881.66,3.62,3.62,0,0,1,.881,1.437l.022.069a6.775,6.775,0,0,1,.66-.6,3.93,3.93,0,0,0-.742-1.215,5.925,5.925,0,0,0-.973-.857,3.021,3.021,0,0,0-.867-.383c-.115-.012-.147,0-.4.152a6.354,6.354,0,0,1-2.591.868,8.75,8.75,0,0,1-1.624-.042,6.246,6.246,0,0,1-2.267-.839C2.986,9.04,2.955,9.027,2.842,9.039Zm-.395,5.49v3.963h.8V14.529Z" class="aw-theme-iconOutline" fill="#464646"/>
    <path id="path2-4" d="M14.533-.006a3.545,3.545,0,0,0-3.6,3.465c0,2.047,1.6,4.408,3.6,4.408s3.608-2.361,3.608-4.408A3.547,3.547,0,0,0,14.533-.006Zm0,.787a2.749,2.749,0,0,1,2.805,2.678c0,1.574-1.282,3.619-2.805,3.619s-2.8-2.045-2.8-3.619A2.75,2.75,0,0,1,14.533.781ZM10.922,7.16l-.008,0V8l.223.127a7.148,7.148,0,0,0,6.273.262c.209-.094.473-.222.584-.285l.2-.116.117.061a4.915,4.915,0,0,1,.879.662,3.62,3.62,0,0,1,.881,1.437l.067.211.017.017c.368,0,.371,0,.8.015-.041-.255-.009-.079-.041-.266a3.914,3.914,0,0,0-.9-1.721,5.9,5.9,0,0,0-.973-.855,3.038,3.038,0,0,0-.867-.385c-.115-.012-.147,0-.4.152a6.357,6.357,0,0,1-2.591.87,8.823,8.823,0,0,1-1.623-.043,6.264,6.264,0,0,1-2.268-.84C11.066,7.161,11.035,7.148,10.922,7.16Z" class="aw-theme-iconOutline" fill="#464646"/>
    <path id="rect2" d="M15.7,19.4l3.172-3.176.321.32L16.016,19.72Z" class="aw-theme-iconOutline" fill="#464646" stroke="#464646" stroke-width="0.3"/>
    <path id="rect4" d="M16.6,20.308l2.724-2.728.32.321L16.92,20.629Z" class="aw-theme-iconOutline" fill="#464646" stroke="#464646" stroke-width="0.3"/>
    <path id="rect6" d="M17.508,21.213l3.172-3.177.32.321-3.172,3.177Z" class="aw-theme-iconOutline" fill="#464646" stroke="#464646" stroke-width="0.3"/>
    <path id="path8" d="M17.9,23.788l-4.538-4.545,5.978-5.987h3.639l.9.9V17.8Zm-3.9-4.545,3.9,3.9,5.525-5.533V14.345l-.634-.634H19.532Zm7.8-3.135a.8.8,0,0,1-.563-1.368.777.777,0,0,1,1.125,0,.862.862,0,0,1,.014,1.112l-.014.015A.789.789,0,0,1,21.8,16.108Zm0-1.155a.367.367,0,0,0-.348.351.347.347,0,0,0,.105.243.329.329,0,0,0,.478.006.415.415,0,0,0,.007-.493.34.34,0,0,0-.242-.107Z" class="aw-theme-iconOutline" fill="#464646" stroke="#464646" stroke-width="0.25"/>
    <path id="rect2-2" d="M12.186,16.925l3.14-3.174.318.32L12.5,17.246Z" class="aw-theme-iconOutline" fill="#464646" stroke="#464646" stroke-width="0.3"/>
    <path id="rect4-3" d="M13.081,17.834l2.7-2.725.318.32-2.7,2.725Z" class="aw-theme-iconOutline" fill="#464646" stroke="#464646" stroke-width="0.3"/>
    <path id="path8-7" d="M15.8,10.788,9.882,16.769l4.491,4.542.522-.528-.317-.322-.206.209-3.858-3.9,5.468-5.527h3.23l.627.634-.022,1.464h.471V11.688l-.891-.9Zm2.433,1.241a.78.78,0,0,0-.557.241.793.793,0,0,0,0,1.127.764.764,0,0,0,1.114,0l.014-.014a.871.871,0,0,0-.014-1.111.78.78,0,0,0-.557-.241Zm0,.454a.339.339,0,0,1,.239.107.415.415,0,0,1-.006.492.322.322,0,0,1-.472-.005.346.346,0,0,1-.106-.242.352.352,0,0,1,.106-.244.334.334,0,0,1,.239-.1Z" class="aw-theme-iconOutline" fill="#464646" stroke="#464646" stroke-width="0.25"/>
    <path id="path847" d="M12.126,19.009,9.913,16.767,12.3,14.35c1.316-1.33,2.641-2.673,2.946-2.984L15.8,10.8h3.561l.457.456.456.455v1.536H19.82l.028-.68.028-.681-.345-.343-.344-.342h-3.2l-2.751,2.78-2.75,2.779,1.925,1.958c1.06,1.076,1.939,1.957,1.954,1.957a.321.321,0,0,0,.11-.09c.082-.09.082-.09.23.053l.148.144-.232.236a1.884,1.884,0,0,1-.256.234C14.351,21.251,13.344,20.242,12.126,19.009Z" class="aw-theme-iconOutline" fill="#464646" stroke="#464646" stroke-linecap="round" stroke-width="0.25"/>
  </g>
</svg>
