<svg id="Image" xmlns="http://www.w3.org/2000/svg" viewBox="0 0 24 24">
  <path d="M21.545,20.506c0-.023-.007-.045-.009-.068a1.446,1.446,0,0,0-.034-.275c0-.01-.007-.019-.01-.029-.01-.038-.027-.075-.04-.112L21.442,20a1.626,1.626,0,0,0-.058-.165L15.707,7.993V4.114a1.09,1.09,0,0,0,.486-.872V1.785c0-1.179-2.15-1.716-4.148-1.716S7.9.606,7.9,1.785V3.242a1.1,1.1,0,0,0,.486.873V7.993L6.487,11.949l-.01.021-1.75,3.654-2.063,4.3,0,.009,0,.006,0,.01c-.012.029-.018.059-.028.089s-.024.072-.034.109a1.54,1.54,0,0,0-.05.36c0,2.22,4.895,3.419,9.5,3.419.863,0,1.737-.043,2.587-.126,3.682-.36,6.913-1.489,6.913-3.293v-.006ZM7.72,12.116a2.763,2.763,0,0,1,.287-.152l.049-.022c.139-.061.3-.122.475-.181l.043-.014c.17-.054.362-.106.566-.155l.132-.031c.179-.04.377-.075.58-.108.082-.013.16-.028.246-.04.194-.027.406-.047.62-.067.1-.009.2-.021.3-.028.322-.022.661-.036,1.023-.036s.7.014,1.023.036c.108.007.205.02.309.029.211.019.421.039.613.066.088.012.168.027.252.041.2.033.4.067.576.107l.129.031c.208.049.4.1.577.157l.025.009a5.148,5.148,0,0,1,.5.189l.02.009a2.688,2.688,0,0,1,.313.166c.036.022.071.044.1.066a1.28,1.28,0,0,1,.11.088.635.635,0,0,1,.1.12c.017.031.044.063.044.089,0,.349-1.644,1.2-4.694,1.2s-4.694-.854-4.694-1.2c0-.025.027-.057.043-.086a.6.6,0,0,1,.106-.124A1.21,1.21,0,0,1,7.6,12.2C7.632,12.171,7.675,12.143,7.72,12.116Zm-.854,1.36c.963.826,3.129,1.212,5.179,1.212s4.215-.386,5.179-1.212l2.351,4.9a19.773,19.773,0,0,0-7.53-1.283,19.786,19.786,0,0,0-7.528,1.282ZM15.2,3.218a.634.634,0,0,1-.221.184,6.631,6.631,0,0,1-2.954.556A6.588,6.588,0,0,1,9.374,3.5V3.484l-.29-.1A1.339,1.339,0,0,1,8.9,3.242v-.3a8,8,0,0,0,3.15.56A7.985,7.985,0,0,0,15.2,2.94ZM12.045,1.069c1.972,0,3.031.514,3.14.707-.123.218-1.18.725-3.14.725S9.014,1.988,8.9,1.794C9.027,1.576,10.084,1.069,12.045,1.069ZM9.333,8.323l.041-3.747a7.4,7.4,0,0,0,2.336.389c.1,0,.209,0,.312-.007a7.516,7.516,0,0,0,2.685-.384V8.106l1.3,2.744a10.171,10.171,0,0,0-2.18-.466h-.01c-.283-.033-.57-.057-.86-.074l-.074,0c-.281-.015-.562-.024-.842-.024s-.562.009-.843.024l-.076,0c-.289.017-.576.042-.859.074h-.013a10.379,10.379,0,0,0-2.123.446Zm2.712,14.608c-5.267,0-8.5-1.41-8.5-2.415a.568.568,0,0,1,.037-.19l.023-.047c.442-.981,3.569-2.186,8.441-2.186s8.015,1.212,8.444,2.193a.538.538,0,0,1,.056.226C20.545,21.521,17.312,22.931,12.045,22.931Z" class="aw-theme-iconOutline" fill="#464646"/>
</svg>
