<svg id="Image" xmlns="http://www.w3.org/2000/svg" viewBox="0 0 24 24">
  <path d="M13.406,3.234h0a1.406,1.406,0,0,0-1.027-.447h-.407A1.852,1.852,0,0,0,10.113,1H8.753A1.852,1.852,0,0,0,6.894,2.787H6.486a1.405,1.405,0,0,0-1.026.447H1V23H12.418a7.659,7.659,0,0,1-.9-1H2V4.234H5.08V6.021h8.707V4.234h3.08v5.8c.209-.018.419-.032.633-.032.124,0,.244.013.367.019V3.234Zm-8.223.427,0,.007Zm7.6,1.36H6.08v-.84a.4.4,0,0,1,.406-.394H7.893V2.84A.851.851,0,0,1,8.753,2h1.36a.851.851,0,0,1,.86.84v.947h1.406a.4.4,0,0,1,.408.394Zm.9-1.36,0,.007Zm-3.75-.255a.5.5,0,1,1-.5-.5A.5.5,0,0,1,9.933,3.406ZM5.409,13.042l.826-.692,2.014,2.383L12.64,9.325l.817.659L8.242,16.476ZM17.5,24A6.5,6.5,0,1,1,24,17.5,6.508,6.508,0,0,1,17.5,24Zm0-12A5.5,5.5,0,1,0,23,17.5,5.506,5.506,0,0,0,17.5,12Zm2,8.418v.006h-.063c-.017,0-.032,0-.049,0v0l-4.181.023,1.04.966-.707.707L13.647,20.3a.5.5,0,0,1,0-.707l1.911-1.884.707.707-1.057,1.031,4.2-.023a1.107,1.107,0,0,0,1.083-1.1h1A2.1,2.1,0,0,1,19.5,20.418ZM15.5,15V15h.063c.017,0,.032-.005.049-.005V15l4.181-.023-1.04-.966.707-.707,1.893,1.82a.5.5,0,0,1,0,.707L19.443,17.71,18.736,17l1.057-1.03-4.2.023a1.106,1.106,0,0,0-1.083,1.1h-1A2.105,2.105,0,0,1,15.5,15Z" class="aw-theme-iconOutline" fill="#464646"/>
</svg>
