<svg id="Layer_1" data-name="Layer 1" xmlns="http://www.w3.org/2000/svg" viewBox="0 0 24 24">
  <g id="g862">
    <path id="rect827" d="M0,0H24V1H0Z" class="aw-theme-iconOutline" fill="#464646"/>
    <path id="rect827-9" d="M0,15H5v1H0Z" class="aw-theme-iconOutline" fill="#464646"/>
    <path id="rect827-9-3" d="M0,0V16H1V0Z" class="aw-theme-iconOutline" fill="#464646"/>
    <path id="rect827-9-3-7" d="M23,.847v9.227h1V.847Z" class="aw-theme-iconOutline" fill="#464646"/>
    <path id="rect827-6" d="M2,2H22V3H2Z" class="aw-theme-iconOutline" fill="#464646"/>
    <path id="rect827-9-7" d="M2,13H5v1H2Z" class="aw-theme-iconOutline" fill="#464646"/>
    <path id="rect827-9-3-1" d="M2,2V14H3V2Z" class="aw-theme-iconOutline" fill="#464646"/>
    <path id="rect827-9-3-7-9" d="M21,2V9.305h1V2Z" class="aw-theme-iconOutline" fill="#464646"/>
    <path id="rect4" d="M7.572,14.032a8.654,8.654,0,0,1,6,0V15a9.385,9.385,0,0,0-6,0Z" class="aw-theme-iconOutline" fill="#464646"/>
    <path id="rect8" d="M7.572,17.2a8.23,8.23,0,0,1,6,0v.934a8.24,8.24,0,0,0-6,0Z" class="aw-theme-iconOutline" fill="#464646"/>
    <path id="rect10" d="M16.143,13.985a9.421,9.421,0,0,1,6,0V15a9.779,9.779,0,0,0-6,0Z" class="aw-theme-iconOutline" fill="#464646"/>
    <path id="rect14" d="M7.572,20.3a9.013,9.013,0,0,1,4.365-.135l-.012.9a9.817,9.817,0,0,0-4.353.144Z" class="aw-theme-iconOutline" fill="#464646"/>
    <path id="rect16" d="M16.143,17.128a9.42,9.42,0,0,1,6,0v1.009a9.492,9.492,0,0,0-6,0Z" class="aw-theme-iconOutline" fill="#464646"/>
    <path id="rect1036" d="M6,11.179H7v12H6Z" class="aw-theme-iconOutline" fill="#464646"/>
    <path id="rect1040" d="M6,23c1.275-.138,2.456-.225,3.995-.379,1.572-.158,3.562.464,5,.528.885.04,3.549-.648,5.017-.568s2.353.264,3.984.46V24A82.684,82.684,0,0,0,6,24Z" class="aw-theme-iconOutline" fill="#464646"/>
    <path id="rect1042" d="M23,11.2h1v12H23Z" class="aw-theme-iconOutline" fill="#464646"/>
    <path id="rect1044" d="M14.471,11.132h1V23.27h-1Z" class="aw-theme-iconOutline" fill="#464646"/>
    <path id="rect1001" d="M6.005,23.251H24V24H6.005Z" class="aw-theme-iconOutline" fill="#464646"/>
    <path id="rect4-9" d="M6,11.126a20.768,20.768,0,0,1,9.381,0v.963a22.585,22.585,0,0,0-9.381,0Z" class="aw-theme-iconOutline" fill="#464646"/>
    <path id="rect4-9-2" d="M14.669,11.1A20.536,20.536,0,0,1,24,11.1v.963a22.33,22.33,0,0,0-9.331,0Z" class="aw-theme-iconOutline" fill="#464646"/>
  </g>
</svg>
