<svg id="Image" xmlns="http://www.w3.org/2000/svg" viewBox="0 0 24 24">
  <path d="M17.5,16.615a.885.885,0,1,1-.885.885A.885.885,0,0,1,17.5,16.615Zm.5-.961V13a.5.5,0,0,0-1,0v2.654a.5.5,0,0,0,1,0ZM18,22V19.346a.5.5,0,0,0-1,0V22a.5.5,0,0,0,1,0Zm1.472-5.765,1.251-1.251a.5.5,0,0,0-.707-.707l-1.251,1.251a.5.5,0,1,0,.707.707Zm-4.488,4.488,1.251-1.251a.5.5,0,0,0-.707-.707l-1.251,1.251a.5.5,0,0,0,.707.707ZM22.5,17.5A.5.5,0,0,0,22,17H19.346a.5.5,0,0,0,0,1H22A.5.5,0,0,0,22.5,17.5Zm-6.346,0a.5.5,0,0,0-.5-.5H13a.5.5,0,0,0,0,1h2.654A.5.5,0,0,0,16.154,17.5Zm4.569,3.223a.5.5,0,0,0,0-.707l-1.251-1.251a.5.5,0,0,0-.707.707l1.251,1.251a.5.5,0,0,0,.707,0Zm-4.488-4.488a.5.5,0,0,0,0-.707l-1.251-1.251a.5.5,0,0,0-.707.707l1.251,1.251a.5.5,0,0,0,.707,0Zm-5.419-1.5,4.391-5.408.817.659-5.216,6.492L7.976,13.042,8.8,12.35Zm9.618-11.5v8.312a6.592,6.592,0,0,0-1-.4V4.234h-3.08V6.021H7.646V4.234H4.567V22h8.057a6.655,6.655,0,0,0,1.151,1H3.567V3.234h4.46a1.405,1.405,0,0,1,1.026-.447h.408A1.852,1.852,0,0,1,11.32,1h1.36a1.852,1.852,0,0,1,1.859,1.787h.407a1.408,1.408,0,0,1,1.027.447Zm-5.08.947a.4.4,0,0,0-.408-.394H13.54V2.84A.851.851,0,0,0,12.68,2H11.32a.851.851,0,0,0-.86.84v.947H9.053a.4.4,0,0,0-.407.394v.84h6.708v-.84ZM12,2.906a.5.5,0,1,0,.5.5A.5.5,0,0,0,12,2.906Z" class="aw-theme-iconOutline" fill="#464646"/>
</svg>
