<svg id="Image" xmlns="http://www.w3.org/2000/svg" viewBox="0 0 24 24">
  <path d="M14.443,7.459l.622.5-3.972,4.945L8.935,10.29l.629-.527L11.1,11.578ZM12,2.571a.39.39,0,1,0,.282.13A.378.378,0,0,0,12,2.571ZM22.754,17.777,12.3,23.917a.569.569,0,0,1-.592,0L1.246,17.777a.493.493,0,0,1,0-.852l4.215-2.51V2.7H8.924a1.191,1.191,0,0,1,.832-.34h.2A1.531,1.531,0,0,1,11.482,1h1.036a1.531,1.531,0,0,1,1.527,1.361h.2a1.191,1.191,0,0,1,.832.34h3.466V14.412l4.215,2.513A.493.493,0,0,1,22.754,17.777ZM9.565,4.062h4.87v-.52a.186.186,0,0,0-.191-.181h-1.19v-.84A.53.53,0,0,0,12.518,2H11.482a.53.53,0,0,0-.536.521v.84H9.756a.186.186,0,0,0-.191.181v.52ZM6.458,16.993H17.542V3.7H15.435V5.062H8.565V3.7H6.458Zm15.054.354-2.97-1.771v2.417H5.458V15.579l-2.97,1.768,9.518,5.585Z" class="aw-theme-iconOutline" fill="#464646"/>
</svg>
