<svg version="1.1" id="Livello_3" xmlns="http://www.w3.org/2000/svg" xmlns:xlink="http://www.w3.org/1999/xlink" x="0px" y="0px"
	  viewBox="0 0 24 24" enable-background="new 0 0 24 24" xml:space="preserve">
<path id="rect822-7" class="aw-theme-iconOutline" fill="#464646" d="M0,0v24h24V0H0z M1,1h22v22H1V1z M3,3v4h5V3H3z M10,3v12h5V3H10z M17,3v4h4V3H17z M4,4h3v2H4
	V4z M11,4h3v10h-3V4z M18,4h2v2h-2V4z M3,9v4h5V9H3z M17,9v12h4V9H17z M4,10h3v2H4V10z M18,10h2v10h-2V10z M3,17v4h12v-4H3z M4,18
	h10v2H4V18z"/>
</svg>
