<svg id="Livello_2" data-name="Livello 2" xmlns="http://www.w3.org/2000/svg" viewBox="0 0 24 24">
  <g id="g830">
    <path id="path820-9" d="M11.592,10.952l-.018.8-.065.2h0a44.912,44.912,0,0,0,4.567,3.07,1.271,1.271,0,0,0,.5.219,1.132,1.132,0,0,0,.5-.169c.833-.386,2.76-1.423,2.76-1.423l.757.967a23.432,23.432,0,0,1-3.286,1.92,2.207,2.207,0,0,1-.557.126,1.351,1.351,0,0,1-.435,0,2.9,2.9,0,0,1-.657-.311C14.583,15.8,12.5,14.56,12.5,14.56c-.33-.186-.688-.433-1.032-.591-.038-.016.018.007,0,0v1.077s2.489,1.46,3.769,2.124a4.368,4.368,0,0,0,.937.415,1.854,1.854,0,0,0,.785.025,5.367,5.367,0,0,0,.694-.2,30.789,30.789,0,0,0,4.32-2.522l-1.909-2.441s-2.326,1.3-3.374,1.792a.149.149,0,0,1-.066.023.273.273,0,0,1-.115-.05A49.958,49.958,0,0,1,11.592,10.952Z" class="aw-theme-iconOutline" fill="#464646"/>
    <path id="path829" d="M7.412,2.569A4.105,4.105,0,0,0,3.27,6.618c0,2.393,1.841,5.155,4.142,5.155s4.141-2.762,4.141-5.155A4.105,4.105,0,0,0,7.412,2.569Zm0,.921a3.181,3.181,0,0,1,3.221,3.128c0,1.841-1.473,4.235-3.221,4.235S4.19,8.459,4.19,6.618A3.182,3.182,0,0,1,7.412,3.49Z" class="aw-theme-iconOutline" fill="#464646"/>
    <path id="path825" d="M3.263,10.948a3.412,3.412,0,0,0-.977.435A6.957,6.957,0,0,0,.873,12.741a4.8,4.8,0,0,0-.79,1.786,34.277,34.277,0,0,0-.07,3.88L0,22H.968l.009-3.625.01-3.626.092-.316A4.171,4.171,0,0,1,2.2,12.649a5.742,5.742,0,0,1,.922-.679l.1-.058.284.163a8.081,8.081,0,0,0,7.2.308c.239-.11.541-.26.669-.334l.234-.135.133.072c-.059.16.025.036-.16-1.034-.131-.014-.169,0-.458.179a7.194,7.194,0,0,1-2.977,1.014A9.845,9.845,0,0,1,6.294,12.1a7.128,7.128,0,0,1-2.6-.983C3.43,10.948,3.393,10.934,3.263,10.948Z" class="aw-theme-iconOutline" fill="#464646"/>
    <path id="path823" d="M2.81,17.367v4.6h.92v-4.6Z" class="aw-theme-iconOutline" fill="#464646"/>
    <path id="path2" d="M11.468,14.489v7.456h.92V14.489Z" class="aw-theme-iconOutline" fill="#464646"/>
    <path id="rect856" d="M14.873,5.331l.744-.588,7.441,9.308-.744.588Z" class="aw-theme-iconOutline" fill="#464646"/>
    <path id="rect858-0" d="M15.216,5.068,20.842.543l-.07,3.265,3.2.632L18.349,8.965Z" class="aw-theme-iconOutline" fill="#464646"/>
  </g>
</svg>
