<svg id="Image" xmlns="http://www.w3.org/2000/svg" viewBox="0 0 24 24">
  <g id="g818">
    <path id="path853" d="M5.615,4.684a.5.5,0,0,0-.5.5v6.433l-3.621.01a.5.5,0,0,0-.494.5v5.82a.5.5,0,0,0,.5.5H3a2.139,2.139,0,0,0,4.272,0H9.9a2.139,2.139,0,0,0,4.272,0h.6a.5.5,0,0,0,.5-.5V14.371a.5.5,0,0,0-.5-.5h-.64L11.314,5.031a.5.5,0,0,0-.476-.347Zm4.856,1,2.609,8.179L10.4,13.85,8.66,12.871,7.2,12.047A.45.45,0,0,0,7.082,12H7.07l-.515-.143-.44-.121V5.684ZM2,12.619H5.549l.035.012,1.164.32,1.6.9,1.671.941h.012l.041.021a.512.512,0,0,0,.244.065h3.453c.014,0,.025-.01.038-.01h.464v2.578h0a2.472,2.472,0,0,0-4.45,0H7.375a2.471,2.471,0,0,0-4.449,0H2ZM5.1,17.15a1.15,1.15,0,0,1,1.183,1.116V18.3A1.142,1.142,0,1,1,5.1,17.15Zm6.906,0a1.15,1.15,0,0,1,1.183,1.116c0,.012,0,.023,0,.035A1.143,1.143,0,1,1,12,17.15Z" class="aw-theme-iconOutline" fill="#464646"/>
    <path id="path843" d="M22.981,16.3a.5.5,0,0,0-.617-.346h0l-4.551,1.285L13.818,2.817a.5.5,0,1,0-.973.232l.01.035,4.129,14.9a.5.5,0,0,0,.482.367.48.48,0,0,0,.136-.019l5.034-1.422A.5.5,0,0,0,22.981,16.3Z" class="aw-theme-iconOutline" fill="#464646"/>
    <path id="path841" d="M7.172,6.365a.5.5,0,0,0-.5.5v4a.5.5,0,0,0,.5.5h4.121a.5.5,0,0,0,.5-.5.514.514,0,0,0-.025-.156l-1.321-4a.5.5,0,0,0-.474-.344Zm.5,1H9.609l.991,3H7.672Z" class="aw-theme-iconOutline" fill="#464646"/>
  </g>
</svg>
