<svg id="Image" xmlns="http://www.w3.org/2000/svg" viewBox="0 0 24 24">
  <g id="g842">
    <path id="path828" d="M17.535.691c-.09,0-.181,0-.269.006A5.819,5.819,0,0,0,13.3,2.441C11.636,4.108,11.97,7.136,12.127,8c0,.062,0,.124-.066.127L11,9.156l.373.387,1-.967a.637.637,0,0,0,.3-.561.476.476,0,0,0-.01-.113c-.063-.351-.576-3.471,1.03-5.076a5.264,5.264,0,0,1,3.6-1.588c.085,0,.17-.006.254-.006a1.883,1.883,0,0,1,.3.02c.028.023.065.06.121.117L15.828,3.5a.522.522,0,0,0-.107.156c-1.14,2.5-1.115,2.522-.815,2.822L16.824,8.4a.541.541,0,0,0,.571.123l2.144-.8a.536.536,0,0,0,.193-.125c.018-.018,1.536-1.547,2.243-2.231a.987.987,0,0,1,.1.117,5.453,5.453,0,0,1-1.607,4.2,4.734,4.734,0,0,1-3.211,1.139c-.1,0-.213.006-.324.006a11.411,11.411,0,0,1-1.62-.117.529.529,0,0,0-.08-.006h-.019a.656.656,0,0,0-.494.228l-1.008,1.037.375.389L15.111,11.3c.065-.064.065-.064.127-.066a11.793,11.793,0,0,0,1.7.123c.116,0,.231,0,.341-.006a5.251,5.251,0,0,0,3.575-1.3,6,6,0,0,0,1.757-4.721c-.006-.141-.317-.439-.506-.6a.187.187,0,0,0-.123-.047.211.211,0,0,0-.148.061c-.537.5-2.48,2.459-2.48,2.459L17.2,8,15.287,6.1c-.06-.06.924-2.216.924-2.216L18.52,1.57a.287.287,0,0,0,.072-.313c-.06-.059-.458-.521-.584-.521a2.191,2.191,0,0,0-.471-.043Z" class="aw-theme-iconOutline" fill="#464646"/>
    <path id="path826" d="M10.178,9.951.268,19.58a1.448,1.448,0,0,0-.231,1.168,2.829,2.829,0,0,0,2.547,2.5,2.631,2.631,0,0,0,.281.015,1.271,1.271,0,0,0,.918-.3L13.3,13.173l-.375-.386L3.4,22.584a.8.8,0,0,1-.535.136,1.6,1.6,0,0,1-.228-.011A2.3,2.3,0,0,1,.574,20.683a1.075,1.075,0,0,1,.071-.717l9.908-9.627Z" class="aw-theme-iconOutline" fill="#464646"/>
    <path id="path824" d="M3.057,19.3a.961.961,0,0,0-.674.3,1,1,0,0,0-.3.671.941.941,0,0,0,.279.7.9.9,0,0,0,.662.279h.038a1.043,1.043,0,0,0,.671-.3.99.99,0,0,0,.3-.672.934.934,0,0,0-.277-.7.914.914,0,0,0-.664-.279Zm-.018.541h.025a.379.379,0,0,1,.288.121.413.413,0,0,1-.01.594l-.014.011a.527.527,0,0,1-.316.143H3a.379.379,0,0,1-.285-.121A.456.456,0,0,1,3.039,19.842Z" class="aw-theme-iconOutline" fill="#464646"/>
    <path id="polygon26" d="M7.908,5.627l-.162.166L6.8,6.771,14,14.215l1.105-1.147Zm0,.646,6.574,6.8-.482.5-6.574-6.8Z" class="aw-theme-iconOutline" fill="#464646"/>
    <path id="path28" d="M16.072,12.533a.77.77,0,0,0-1.082.028L13.91,13.68l-.289.3.01-.008a1.043,1.043,0,0,0-.266.429.86.86,0,0,0,.08.764l.01.018.168.191,0,0,.131.148.033.038.192.22,6.238,7.166.008.006a.581.581,0,0,0,.048.051,1.463,1.463,0,0,0,2.057-.053l0,0,1.24-1.281a1.564,1.564,0,0,0,.02-2.133l-.008-.008-7.353-6.851,0,0-.153-.145Zm-.371.391v0l.151.14-.385.4L14,14.982l-.1-.115a.321.321,0,0,1-.029-.281l0-.008,0-.008A.5.5,0,0,1,14,14.361l0,0,.291-.3,1.084-1.119v0a.22.22,0,0,1,.318-.008Zm.547.51L23.191,19.9a1.017,1.017,0,0,1-.011,1.4l-1.241,1.281h0a.911.911,0,0,1-1.294.033h0l-.024-.023-.014-.014L14.353,15.4v0l1.477-1.528Z" class="aw-theme-iconOutline" fill="#464646"/>
    <path id="path860" d="M11.99.752l-.021,0a19.03,19.03,0,0,0-2.629.58l-.024.008A9.745,9.745,0,0,0,7.5,2.285a.27.27,0,0,0-.047.414l.6.621.6.618A.271.271,0,0,0,9.1,3.854a4.485,4.485,0,0,1,1.449-1.592,14.153,14.153,0,0,1,1.59-1A.27.27,0,0,0,11.99.752Zm-1.422.863c-.134.091-.2.113-.339.215A5.28,5.28,0,0,0,8.854,3.365l-.409-.422L8.1,2.582a9.206,9.206,0,0,1,1.41-.734C9.854,1.745,10.215,1.7,10.568,1.615Z" class="aw-theme-iconOutline" fill="#464646"/>
    <path id="path858" d="M7.568,2.023a.725.725,0,0,0-1.021.024L3.324,5.379h0a.764.764,0,0,0,0,1.049l0,0,.123.127L4.934,8.1l.123.127.006.007a.737.737,0,0,0,1.027,0l0-.005,2.09-2.159.222-.23.918-.945v0a.762.762,0,0,0,0-1.049v0L7.59,2.045l0,0-.016-.016Zm-.375.389.01.01L8.936,4.213a.217.217,0,0,1,0,.3l-.916.945-.225.23L5.711,7.844a.19.19,0,0,1-.27,0l-.117-.123h0L3.836,6.182h0l-.121-.127a.216.216,0,0,1,0-.3v0L6.936,2.42h0A.176.176,0,0,1,7.193,2.412Z" class="aw-theme-iconOutline" fill="#464646"/>
    <path id="path856" d="M3.936,6.4a.275.275,0,0,0-.2.082L2.5,7.771a.27.27,0,0,0,0,.377l.449.465.451.465a.27.27,0,0,0,.387,0L5.029,7.793a.27.27,0,0,0,0-.375l-.9-.932A.272.272,0,0,0,3.936,6.4Zm0,.659.523.542-.869.9-.256-.266-.268-.277Z" class="aw-theme-iconOutline" fill="#464646"/>
    <path id="path30" d="M2.506,7.439a.847.847,0,0,0-1.188.026l-.343.353a.27.27,0,0,0,0,.375l2.388,2.471a.27.27,0,0,0,.387,0l.344-.353,0,0a.894.894,0,0,0,0-1.227l0-.006-.037-.035-.742-.768-.78-.808-.01-.01-.015-.016Zm-.371.391v0l.013.012.776.8h0l.742.77,0,0,.033.033a.346.346,0,0,1,0,.483l-.146.15L1.545,8.006l.16-.166,0,0A.3.3,0,0,1,2.135,7.83Z" class="aw-theme-iconOutline" fill="#464646"/>
  </g>
</svg>
