<svg version="1.1" id="Artwork" xmlns="http://www.w3.org/2000/svg" xmlns:xlink="http://www.w3.org/1999/xlink" x="0px" y="0px"
	 width="24px" height="24px" viewBox="0 0 24 24" enable-background="new 0 0 24 24" xml:space="preserve">
<path class="aw-theme-iconOutline" fill="#464646" d="M21,3h-5V1.5C16,0.7,15.3,0,14.5,0h-6C7.7,0,7,0.7,7,1.5V3H2v1h1l0.9,18.2C4,23.2,4.8,24,5.9,24h11.3
	c1,0,1.9-0.8,1.9-1.8L20,4h1V3z M8,1.5C8,1.2,8.2,1,8.5,1h6C14.8,1,15,1.2,15,1.5V3H8V1.5z M18.1,22.1c0,0.5-0.4,0.9-0.9,0.9H5.9
	c-0.5,0-0.9-0.4-0.9-0.9L4,4H19L18.1,22.1z"/>
<polygon class="aw-theme-iconOutline" fill="#464646" points="8.5,21 8,6 7,6 7.5,21 "/>
<rect x="11" y="6" class="aw-theme-iconOutline" fill="#464646" width="1" height="15"/>
<polygon class="aw-theme-iconOutline" fill="#464646" points="15.5,21 16,6 15,6 14.5,21 "/>
</svg>
