<svg id="Layer_1" data-name="Layer 1" xmlns="http://www.w3.org/2000/svg" viewBox="0 0 24 24">
  <g id="g824">
    <path id="polygon4" d="M12.472,3.756h-1v8.208l.146.354L16.91,17.61l.708-.708-5.146-5.145Z" class="aw-theme-iconOutline" fill="#464646"/>
    <path id="path822" d="M12,0A12,12,0,1,0,24,12,12,12,0,0,0,12,0Zm0,1A11,11,0,1,1,1,12,11,11,0,0,1,12,1Z" class="aw-theme-iconOutline" fill="#464646"/>
    <path id="rect827" d="M.661,11.5H2v1H.661Z" class="aw-theme-iconOutline" fill="#464646"/>
    <path id="rect827-9" d="M22,11.5h1.339v1H22Z" class="aw-theme-iconOutline" fill="#464646"/>
    <path id="rect827-9-6" d="M12.5,21.91v1.5h-1v-1.5Z" class="aw-theme-iconOutline" fill="#464646"/>
    <path id="rect827-9-6-7" d="M12.484.5V2h-1V.5Z" class="aw-theme-iconOutline" fill="#464646"/>
  </g>
</svg>
