<svg version="1.1" id="Livello_3" xmlns="http://www.w3.org/2000/svg" xmlns:xlink="http://www.w3.org/1999/xlink" x="0px" y="0px"
	  viewBox="0 0 24 24" enable-background="new 0 0 24 24" xml:space="preserve">
<path id="rect2" class="aw-theme-iconOutline" fill="#464646" d="M10.131,15.415l4.997-5.14l0.505,0.519l-4.997,5.141L10.131,15.415z"/>
<path id="rect4" class="aw-theme-iconOutline" fill="#464646" d="M11.555,16.886l4.29-4.413l0.505,0.52l-4.29,4.413L11.555,16.886z"/>
<path id="rect6" class="aw-theme-iconOutline" fill="#464646" d="M12.986,18.351l4.997-5.14l0.504,0.519l-4.996,5.141L12.986,18.351z"/>
<path id="path8" class="aw-theme-iconOutline" fill="#464646" d="M13.61,22.517l-7.148-7.354l9.416-9.687h5.732l1.416,1.458
	v5.895L13.61,22.517z M7.471,15.163l6.139,6.315l8.703-8.952V7.239l-0.998-1.027h-5.141L7.471,15.163z M19.751,10.091
	c-0.316,0-0.635-0.13-0.887-0.39c-0.242-0.25-0.376-0.573-0.376-0.912c0-0.339,0.134-0.663,0.376-0.912
	c0.504-0.519,1.268-0.52,1.772,0c0.432,0.443,0.44,1.283,0.021,1.8l-0.021,0.024C20.384,9.961,20.067,10.091,19.751,10.091
	L19.751,10.091z M19.751,8.223c-0.135,0-0.27,0.058-0.382,0.174c-0.108,0.111-0.167,0.25-0.167,0.393s0.059,0.282,0.166,0.393
	c0.221,0.226,0.526,0.231,0.752,0.01c0.188-0.245,0.165-0.639,0.012-0.797c-0.111-0.115-0.246-0.173-0.381-0.173V8.223z"/>
<path id="rect2-2" class="aw-theme-iconOutline" fill="#464646" d="M4.604,11.413l4.946-5.136l0.5,0.519l-4.946,5.137L4.604,11.413z"/>
<path id="rect4-3" class="aw-theme-iconOutline" fill="#464646" d="M6.013,12.884l4.246-4.41l0.5,0.519l-4.247,4.409L6.013,12.884z"/>
<path id="path8-7" class="aw-theme-iconOutline" fill="#464646" d="
	M10.292,1.483l-9.318,9.677l7.074,7.35l0.822-0.855l-0.498-0.521l-0.325,0.338l-6.077-6.311l8.613-8.943h5.088l0.988,1.026
	l-0.036,2.369h0.743V2.94l-1.404-1.456L10.292,1.483z M14.124,3.491c-0.313,0-0.627,0.13-0.877,0.39
	c-0.239,0.249-0.371,0.575-0.371,0.913s0.131,0.661,0.371,0.911c0.25,0.26,0.563,0.389,0.877,0.389c0.313,0,0.627-0.128,0.877-0.389
	l0.022-0.023c0.415-0.516,0.404-1.355-0.022-1.798c-0.25-0.26-0.563-0.39-0.877-0.39V3.491z M14.124,4.226
	c0.134,0,0.266,0.059,0.377,0.173c0.151,0.159,0.177,0.551-0.01,0.796c-0.223,0.221-0.525,0.215-0.744-0.008
	c-0.106-0.111-0.167-0.249-0.167-0.391s0.06-0.283,0.167-0.395c0.111-0.115,0.244-0.17,0.377-0.17V4.226z"/>
</svg>
