<svg id="Layer_1" data-name="Layer 1" xmlns="http://www.w3.org/2000/svg" viewBox="0 0 24 24">
  <path d="M24,11.988V7.317C24,6.5,23.134,6,22.367,6.011H1.633A1.494,1.494,0,0,0,0,7.317v4.677m22.911-.989H1.089V7.562a.6.6,0,0,1,.567-.543H22.331a.6.6,0,0,1,.58.524Z" class="aw-theme-iconOutline" fill="#474747"/>
  <path d="M7.618,6.969V4.511A.544.544,0,0,1,8.19,4h7.567a.543.543,0,0,1,.571.51V6.969h1.09V4.511A1.592,1.592,0,0,0,15.758,3H8.19A1.592,1.592,0,0,0,6.53,4.511V6.969Z" class="aw-theme-iconOutline" fill="#474747"/>
  <path d="M23.259,11.258H.717c-.382-.01-.7.207-.717.484l.026,8.551a.9.9,0,0,0,.973.7H22.985c.553,0,.994-.263,1.015-.65V11.865A.756.756,0,0,0,23.259,11.258Zm-.294,8.285c.02.28-.326.454-.68.438l-.035,0L2,19.967c-.523.015-1-.23-1-.576a.271.271,0,0,0,0-.04l.041-7.367H22.985Z" class="aw-theme-iconOutline" fill="#474747"/>
  <path d="M13.994,15.2c.564-.019,1.015-.254,1.013-.814,0-.04,0-.081,0-.121V11.38H13.994L14,13.914a.426.426,0,0,1-.469.392H10.383a.442.442,0,0,1-.407-.435l.018-2.491H9v2.892c0,.556.225.929.788.929" class="aw-theme-iconOutline" fill="#474747"/>
  <rect x="11.581" y="11.724" width="0.898" height="1.989" class="aw-theme-iconOutline" fill="#474747"/>
</svg>
