<svg id="Image" xmlns="http://www.w3.org/2000/svg" viewBox="0 0 24 24">
  <path d="M15.973,3.234h0a1.408,1.408,0,0,0-1.027-.447h-.407A1.852,1.852,0,0,0,12.68,1H11.32A1.852,1.852,0,0,0,9.461,2.787H9.053a1.405,1.405,0,0,0-1.026.447H3.567V23H20.434V3.234Zm.279.434,0-.007Zm-7.606.513a.4.4,0,0,1,.407-.394H10.46V2.84A.851.851,0,0,1,11.32,2h1.36a.851.851,0,0,1,.86.84v.947h1.406a.4.4,0,0,1,.408.394v.84H8.646Zm-.9-.52,0,.007ZM19.434,22H4.567V4.234H7.646V6.021h8.708V4.234h3.08ZM12.5,3.406a.5.5,0,1,1-.5-.5A.5.5,0,0,1,12.5,3.406Zm2.707,5.919.817.659-5.216,6.492L7.976,13.042,8.8,12.35l2.014,2.383Z" class="aw-theme-iconOutline" fill="#464646"/>
</svg>
