<svg version="1.1" id="Layer_1" xmlns="http://www.w3.org/2000/svg" xmlns:xlink="http://www.w3.org/1999/xlink" x="0px" y="0px"
	 viewBox="0 0 24 24" enable-background="new 0 0 24 24" xml:space="preserve">
<path class="aw-theme-iconOutline" fill="#464646" d="M22,8.1l-6-6c-0.2-0.2-0.6-0.3-0.9-0.3c-0.3,0.1-0.6,0.3-0.8,0.6C13.9,3.1,13.8,4.1,14,5L9.7,9.4
	c-2.8-0.8-5.4-0.4-7,1.3c-0.1,0.1-0.1,0.2-0.1,0.4s0.1,0.3,0.1,0.4L7.3,16l-5.6,5.7l0.7,0.7L8,16.7l4.6,4.6c0.1,0.1,0.2,0.1,0.4,0.1
	s0.3,0,0.4-0.1c1.6-1.6,2.1-4.3,1.3-7L19,10c0.9,0.2,1.9,0.2,2.7-0.3C22,9.6,22.2,9.3,22.3,9S22.2,8.3,22,8.1z M19,8.9
	c-0.2-0.1-0.4,0-0.5,0.1l-4.8,4.8c-0.1,0.1-0.2,0.3-0.1,0.5c0.8,2.3,0.5,4.5-0.6,5.9L3.7,11c1.5-1.2,3.6-1.4,5.9-0.6
	c0.2,0.1,0.4,0,0.5-0.1L15,5.5c0.1-0.1,0.2-0.3,0.1-0.5c-0.3-0.7-0.2-1.6,0.2-2.3l6,6.1C20.6,9.2,19.8,9.2,19,8.9z"/>
</svg>
