<svg id="Image" xmlns="http://www.w3.org/2000/svg" viewBox="0 0 24 24">
  <g id="g816">
    <path id="path2" d="M1.258,0A1.232,1.232,0,0,0,.031,1.236V14.42a1.232,1.232,0,0,0,1.227,1.236H5.234l.1.088a16.187,16.187,0,0,0,4.623,2.727l.473.181a1.207,1.207,0,0,0,.683.053,6.47,6.47,0,0,1-.1-.82.39.39,0,0,1-.287,0l-.473-.182a15.37,15.37,0,0,1-3.686-2.049c-.238-.178-.478-.353-.707-.545l-.338-.279-.168-.139A.6.6,0,0,1,5.5,13.605a.6.6,0,0,1,.465.067l.951.494a.4.4,0,0,0,.186.049h.033a.413.413,0,0,0,.164-.047.423.423,0,0,0,.047-.025.462.462,0,0,0,.064-.061.361.361,0,0,0,.049-.062.428.428,0,0,0,.031-.069.45.45,0,0,0,.022-.082.388.388,0,0,0,0-.076.448.448,0,0,0-.01-.082.489.489,0,0,0-.027-.076.472.472,0,0,0-.016-.045L4.588,8.855a.6.6,0,0,1,.237-.8.588.588,0,0,1,.771.19l2.291,3.781a.408.408,0,0,0,.556.161.413.413,0,0,0,.159-.56l-.018-.03a.482.482,0,0,1,.145-.663.474.474,0,0,1,.657.146l.01.017.348.572,0,.008a.407.407,0,0,0,.568.112.414.414,0,0,0,.129-.542l-.154-.256a.481.481,0,0,1,.154-.659.475.475,0,0,1,.364-.057.468.468,0,0,1,.289.207c.563.982.577.988.767,1.031a.409.409,0,0,0,.492-.307.415.415,0,0,0-.048-.308l-.1-.161a.484.484,0,0,1,.165-.663.515.515,0,0,1,.1-.048.524.524,0,0,1,.573.258l.095.159a9.857,9.857,0,0,1,.8,1.623,6.47,6.47,0,0,1,.721-.407A10.777,10.777,0,0,0,13.85,10l-.1-.158a1.333,1.333,0,0,0-1.52-.612,1.294,1.294,0,0,0-.683.514,1.289,1.289,0,0,0-2.008.412,1.285,1.285,0,0,0-1.584.395L6.293,7.807a1.408,1.408,0,0,0-1.938-.473,1.427,1.427,0,0,0-.466,1.951l2.142,3.531a1.377,1.377,0,0,0-.748-.007,1.416,1.416,0,0,0-.993,1.734v0a1.517,1.517,0,0,0,.111.285H1.258A.41.41,0,0,1,.85,14.42V4.121H17.213V11.01c.1-.006.191-.009.287-.01.177,0,.355.011.531.027V1.236A1.231,1.231,0,0,0,16.805,0ZM1.23.824H16.805a.411.411,0,0,1,.408.412V3.3H.85V1.236A.41.41,0,0,1,1.23.824Zm.842.824a.412.412,0,1,0,.414.413.411.411,0,0,0-.414-.413h0Zm1.637,0a.412.412,0,1,0,.414.413.411.411,0,0,0-.414-.413h0Zm1.635,0a.411.411,0,1,0,.006,0Z" class="aw-theme-iconOutline" fill="#464646"/>
    <path id="path2-6" d="M23.124,18.272a4.755,4.755,0,1,1-4.754-4.848h2.42l-1.9,1.939.6.617,2.94-3-2.853-3-.692.705,1.9,1.851H18.37a5.73,5.73,0,1,0,5.619,5.729Z" class="aw-theme-iconOutline" fill="#464646"/>
  </g>
</svg>
