<svg version="1.1" id="Livello_2" xmlns="http://www.w3.org/2000/svg" xmlns:xlink="http://www.w3.org/1999/xlink" x="0px" y="0px"
	 viewBox="0 0 24 24" enable-background="new 0 0 24 24" xml:space="preserve">
<path id="rect3291" class="aw-theme-iconOutline" fill="#464646" d="M1,2v20h22V2H1z M2,3h20v18H2V3z M3,5v14h1h10h1V5h-1H4H3z M16,5v3h5V5H16z M4,6h10v12H4V6z
	 M17,6h3v1h-3V6z M8.883,7.295C8.737,7.301,8.59,7.324,8.445,7.361C7.653,7.568,6.991,8.254,6.799,9.07
	c-0.314,1.332,0.586,3.018,1.793,3.355c0.577,0.162,1.194-0.05,1.727-0.59c0.265-0.269,0.35-0.393,0.545-0.791
	c0.127-0.26,0.259-0.596,0.295-0.748c0.082-0.344,0.085-0.97,0.006-1.268C10.881,7.967,9.901,7.254,8.883,7.295z M8.92,8.254
	C9.198,8.238,9.265,8.249,9.49,8.35c0.492,0.221,0.796,0.706,0.799,1.275c0.003,0.701-0.454,1.552-0.969,1.809v-0.002
	c-0.254,0.128-0.404,0.135-0.641,0.027c-0.385-0.174-0.824-0.816-0.957-1.395C7.651,9.753,7.688,9.258,7.801,9.021
	C8.029,8.542,8.408,8.284,8.92,8.254z M16,11v1h3.146v-1H16z M6.885,12.35l-0.313,0.16c-0.395,0.203-0.947,0.737-1.189,1.152
	c-0.199,0.341-0.361,0.807-0.418,1.199c-0.022,0.155-0.042,0.621-0.043,1.035v0.752h4.063h4.061l-0.02-0.957
	c-0.021-1.03-0.049-1.204-0.275-1.703c-0.311-0.684-0.882-1.271-1.512-1.555l-0.17-0.078l-0.262,0.193
	c-0.566,0.414-1.159,0.611-1.828,0.611c-0.652,0-1.235-0.197-1.826-0.619L6.885,12.35z M11.188,13.455l0.262,0.275
	c0.436,0.457,0.641,0.98,0.641,1.643v0.328H8.979H5.869v-0.299c0.001-0.627,0.205-1.188,0.584-1.613
	c0.309-0.347,0.313-0.349,0.697-0.148C7.792,13.975,8.305,14.102,9,14.1c0.683-0.002,1.306-0.166,1.945-0.514L11.188,13.455z M16,14
	v1h5v-1H16z M16,17v1h5.068v-1H16z"/>
</svg>
