<svg id="Livello_2" data-name="Livello 2" xmlns="http://www.w3.org/2000/svg" viewBox="0 0 24 24">
  <g id="g816">
    <path id="rect814" d="M1.5,1a.5.5,0,0,0-.5.5V21c0,.353,1,.413,1-.059V2H20.926C21.4,2,21.4.983,21.061.984,15.3,1,1.5,1,1.5,1ZM23,5.026c0-.35-1.045-.325-1.047.025C21.916,10.24,22,22,22,22H12V13.992l2.5-.006-1.414-2.375-2.381,2.383H11v8.451a.227.227,0,0,0,.006.03c0,.009-.006.015-.006.025a.5.5,0,0,0,.5.5h11a.5.5,0,0,0,.5-.5ZM11.533,9,8.5,14l.438,0,3.49-3.492Z" class="aw-theme-iconOutline" fill="#464646"/>
    <path id="rect4553-6" d="M23.068,1.161C16.5,7.687,7.032,17,1.063,23.024c-.289.291.533,1.209.822.918C9.337,16.454,17.036,8.768,23.836,1.969,24.119,1.687,23.351.879,23.068,1.161Z" class="aw-theme-iconOutline" fill="#464646" stroke="#0000f4" stroke-width="0.004"/>
  </g>
</svg>
