<svg id="Image" xmlns="http://www.w3.org/2000/svg" viewBox="0 0 24 24">
  <path d="M22.958,8.367V22.5a.5.5,0,0,1-.5.5H1.511a.5.5,0,0,1-.5-.5V4.042a.5.5,0,0,1,1,0V22H21.958V8.367a.5.5,0,1,1,1,0ZM6.008,10.042H4.85V21.617H6.008Zm.967,0H6.589V21.617h.386Zm1.352,0H7.942V21.617h.385Zm1.546,0H9.1V21.617h.772Zm1.16,0h-.386V21.617h.386ZM12,21.617h.386V10.042H12Zm1.739,0V10.042h-.386V21.617Zm2.319,0h.386V10.042h-.386Zm1.353,0H17.8V10.042h-.386Zm1.739,0V10.042h-.386V21.617Zm-3.866,0V10.042h-.771V21.617ZM13.058,5.36c1.026-1,3.454-.834,5.8-.669l.067,0L16.958,6.757l.676.707L20.42,4.548a.412.412,0,0,0,0-.562L17.6,1.03l-.676.707,1.859,1.946c-.885-.061-1.754-.12-2.564-.12a5.329,5.329,0,0,0-3.81,1.066,3.2,3.2,0,0,0-.874,2.387h.956A2.2,2.2,0,0,1,13.058,5.36Z" class="aw-theme-iconOutline" fill="#474647"/>
</svg>
