<svg id="Livello_2" data-name="Livello 2" xmlns="http://www.w3.org/2000/svg" viewBox="0 0 24 24">
  <g id="g829">
    <path id="rect25" d="M7.842,15.745,8.589,15l3.288,3.279-.748.745Z" class="aw-theme-iconOutline" fill="#464646"/>
    <path id="rect29" d="M18.305,5.31l.746-.745,3.288,3.28-.747.745Z" class="aw-theme-iconOutline" fill="#464646"/>
    <path id="path850" d="M20.438,2.73a1.339,1.339,0,0,0-.951.422L7.652,14.957l-.105.211L5.928,19.973a1.072,1.072,0,0,0,.045.531.624.624,0,0,0,.363.285.979.979,0,0,0,.365-.034l4.861-1.58.211-.105L23.5,7.16a1.528,1.528,0,0,0,0-2.215L21.6,3.153A1.6,1.6,0,0,0,20.438,2.73Zm0,1.055A.552.552,0,0,1,20.862,4l1.8,1.791c.211.211.211.422-.105.738l-11.624,11.7-3.7,1.264L8.5,15.7l11.728-11.8C20.332,3.785,20.332,3.785,20.438,3.785Z" class="aw-theme-iconOutline" fill="#464646"/>
    <path id="path2" d="M18.916,15c0,5-3.916,8-8.916,8A9,9,0,0,1,10,5h3.061l-3.3,3.1.7.7,4.5-4.4L10.46,0l-.7.7L13.06,4H10a10,10,0,0,0,0,20c5.5,0,9.916-3.5,9.916-9Z" class="aw-theme-iconOutline" fill="#464646"/>
  </g>
</svg>
