<svg version="1.1" id="Livello_2" xmlns="http://www.w3.org/2000/svg" xmlns:xlink="http://www.w3.org/1999/xlink" x="0px" y="0px"
	  viewBox="0 0 24 24" enable-background="new 0 0 24 24" xml:space="preserve">
<path id="path2" class="aw-theme-iconOutline" fill="#464646" d="M11.993,1.444c-2.5,0-4.5,2-4.5,4.4c0,2.6,2,5.6,4.5,5.6s4.5-3,4.5-5.6
	C16.493,3.445,14.493,1.444,11.993,1.444z M11.993,2.444c1.9,0,3.5,1.5,3.5,3.4c0,2-1.6,4.6-3.5,4.6c-1.9,0-3.5-2.6-3.5-4.6
	C8.493,3.945,10.093,2.444,11.993,2.444z M7.485,10.548c-0.19,0.021-0.674,0.235-1.061,0.473c-0.401,0.246-1.234,1.046-1.535,1.475
	c-0.431,0.614-0.722,1.271-0.859,1.941c-0.058,0.28-0.064,0.67-0.076,4.215L3.94,22.556h0.527h0.525l0.01-3.939l0.01-3.939
	l0.1-0.344c0.198-0.684,0.654-1.406,1.219-1.938c0.253-0.238,0.727-0.587,1.002-0.738l0.113-0.063l0.309,0.178
	c2.332,1.331,5.364,1.46,7.828,0.334c0.26-0.119,0.588-0.282,0.727-0.363l0.254-0.146l0.145,0.078
	c0.286,0.154,0.84,0.578,1.098,0.84c0.501,0.509,0.898,1.169,1.1,1.826l0.082,0.268l0.01,3.975l0.012,3.973h0.525h0.525
	l-0.012-3.957c-0.012-3.941-0.014-3.957-0.094-4.289c-0.199-0.828-0.575-1.559-1.125-2.184c-0.333-0.378-0.91-0.897-1.213-1.088
	c-0.381-0.24-0.887-0.467-1.082-0.488c-0.143-0.015-0.184,0.001-0.498,0.195c-0.959,0.593-2.074,0.972-3.234,1.102
	c-0.462,0.052-1.6,0.022-2.025-0.053c-1.054-0.185-1.986-0.537-2.828-1.068C7.667,10.548,7.626,10.533,7.485,10.548z M6.993,17.522
	v5h1v-5H6.993z M15.993,17.522v5h1v-5H15.993z"/>
</svg>
