<svg version="1.1" id="Artwork" xmlns="http://www.w3.org/2000/svg" xmlns:xlink="http://www.w3.org/1999/xlink" x="0px" y="0px"
	 width="24px" height="24px" viewBox="0 0 24 24" enable-background="new 0 0 24 24" xml:space="preserve">
<path class="aw-theme-iconOutline" fill="#464646" d="M6.5,22.9c-1.4,0-2.8-0.5-3.9-1.6c-2.1-2.1-2.1-5.6,0-7.7l3-3l0.7,0.7l-3,3c-1.7,1.7-1.7,4.6,0,6.3
	c1.7,1.7,4.6,1.7,6.3,0l3-3l0.7,0.7l-3,3C9.3,22.4,7.9,22.9,6.5,22.9z"/>
<path class="aw-theme-iconOutline" fill="#464646" d="M18.4,13.4l-0.7-0.7l3-3c1.7-1.7,1.7-4.6,0-6.3c-1.7-1.7-4.6-1.7-6.3,0l-3,3l-0.7-0.7l3-3
	c2.1-2.1,5.6-2.1,7.7,0s2.1,5.6,0,7.7L18.4,13.4z"/>
<path class="aw-theme-iconOutline" fill="#464646" d="M6.4,6.9c-0.1,0-0.3,0-0.4-0.1l-3-3C2.8,3.5,2.8,3.2,3,3s0.5-0.2,0.7,0l3,3c0.2,0.2,0.2,0.5,0,0.7
	C6.6,6.8,6.5,6.9,6.4,6.9z"/>
<path class="aw-theme-iconOutline" fill="#464646" d="M5.2,8.8c0,0-0.1,0-0.1,0l-3.9-1C0.9,7.7,0.7,7.4,0.8,7.1c0.1-0.3,0.3-0.4,0.6-0.4l3.9,1
	c0.3,0.1,0.4,0.3,0.4,0.6C5.6,8.6,5.4,8.8,5.2,8.8z"/>
<path class="aw-theme-iconOutline" fill="#464646" d="M8.2,5.7C8,5.7,7.8,5.6,7.8,5.4l-1-4C6.7,1.1,6.9,0.9,7.1,0.8c0.3-0.1,0.5,0.1,0.6,0.4l1,4
	c0.1,0.3-0.1,0.5-0.4,0.6C8.3,5.7,8.3,5.7,8.2,5.7z"/>
<path class="aw-theme-iconOutline" fill="#464646" d="M20.6,21.1c-0.1,0-0.3,0-0.4-0.1l-3-3c-0.2-0.2-0.2-0.5,0-0.7s0.5-0.2,0.7,0l3,3c0.2,0.2,0.2,0.5,0,0.7
	C20.8,21.1,20.7,21.1,20.6,21.1z"/>
<path class="aw-theme-iconOutline" fill="#464646" d="M16.7,23.2c-0.2,0-0.4-0.1-0.5-0.4l-1-3.9c-0.1-0.3,0.1-0.5,0.4-0.6c0.3-0.1,0.5,0.1,0.6,0.4l1,3.9
	c0.1,0.3-0.1,0.5-0.4,0.6C16.8,23.2,16.8,23.2,16.7,23.2z"/>
<path class="aw-theme-iconOutline" fill="#464646" d="M22.7,17.2c0,0-0.1,0-0.1,0l-4-1c-0.3-0.1-0.4-0.3-0.4-0.6c0.1-0.3,0.3-0.4,0.6-0.4l4,1
	c0.3,0.1,0.4,0.3,0.4,0.6C23.1,17.1,22.9,17.2,22.7,17.2z"/>
</svg>
