<svg id="Image" xmlns="http://www.w3.org/2000/svg" viewBox="0 0 24 24">
  <path d="M22.444,10.743a.5.5,0,0,1-.487.386.5.5,0,0,1-.114-.013l-4.316-1.009-5.275,3.075h0c-.008,0-.017,0-.026.008A.481.481,0,0,1,12,13.25h0a.485.485,0,0,1-.221-.059c-.009,0-.018,0-.025-.008h0L6.453,10.1,2.086,11.116a.5.5,0,1,1-.228-.973L5.2,9.362,2.029,7.517a.5.5,0,0,1,.5-.865L5.711,8.505,4.847,5.19a.5.5,0,0,1,.967-.252L6.93,9.216,11.5,11.88V6.537L8.392,3.349a.5.5,0,1,1,.716-.7L11.5,5.1V1.5a.5.5,0,0,1,1,0V5.1l2.392-2.453a.5.5,0,0,1,.716.7L12.5,6.537V11.88l4.487-2.616,1.128-4.326a.5.5,0,0,1,.967.252L18.2,8.554l3.262-1.9a.5.5,0,0,1,.5.865L18.784,9.374l3.287.769A.5.5,0,0,1,22.444,10.743ZM6.718,17.382a2.518,2.518,0,1,1-4.841.006A.463.463,0,0,1,1.9,17.3l.038-.09.118-.28,1.786-4.247a.5.5,0,0,1,.922,0l1.783,4.24.124.3L6.7,17.3A.4.4,0,0,1,6.718,17.382Zm-.9.657a1.5,1.5,0,0,0-.072-.437,1.483,1.483,0,0,0-.122-.29L4.9,15.6l-.6-1.438-.6,1.438-.719,1.71-.121.288a1.483,1.483,0,0,0-.072.438,1.518,1.518,0,1,0,3.035,0Zm16.306-.652a2.464,2.464,0,0,1,.1.652,2.517,2.517,0,1,1-5.034,0,2.457,2.457,0,0,1,.1-.651.4.4,0,0,1,.018-.09l.037-.09.119-.281,1.786-4.246a.5.5,0,0,1,.922,0l1.784,4.243.121.288.036.087A.382.382,0,0,1,22.122,17.387Zm-.9.652a1.5,1.5,0,0,0-.073-.442,1.549,1.549,0,0,0-.119-.281l-.72-1.713-.6-1.438L19.1,15.6l-.719,1.71-.121.288a1.483,1.483,0,0,0-.072.438,1.517,1.517,0,1,0,3.034,0Zm-6.786,1.813a2.513,2.513,0,1,1-4.938.653,2.494,2.494,0,0,1,.1-.656.609.609,0,0,1,.017-.085l.036-.086.122-.288,1.785-4.244a.5.5,0,0,1,.922,0l1.783,4.243.122.288.036.087A.517.517,0,0,1,14.433,19.852Zm-.9.653a1.5,1.5,0,0,0-.073-.442,1.478,1.478,0,0,0-.118-.281l-.721-1.713-.6-1.438-.605,1.438-.718,1.707-.125.3a1.514,1.514,0,1,0,2.964.434Z" class="aw-theme-iconOutline" fill="#464646"/>
</svg>
