<svg id="Image" xmlns="http://www.w3.org/2000/svg" viewBox="0 0 24 24">
  <path d="M20.989,2.719H3.011a2,2,0,0,0-2,2V18.875a2,2,0,0,0,2,2H20.989a2,2,0,0,0,2-2V4.719A2,2,0,0,0,20.989,2.719Zm-17.978,1H20.989a1,1,0,0,1,1,1V5.8H2.011V4.719A1,1,0,0,1,3.011,3.719ZM20.989,19.875H3.011a1,1,0,0,1-1-1V6.8H21.989V18.875A1,1,0,0,1,20.989,19.875ZM3.877,4.63A.478.478,0,1,1,3.4,4.152.477.477,0,0,1,3.877,4.63Zm1.912,0a.478.478,0,1,1-.478-.478A.478.478,0,0,1,5.789,4.63Zm1.911,0a.478.478,0,1,1-.478-.478A.478.478,0,0,1,7.7,4.63ZM5.522,9.516v7.031H4.4V9.516H5.522m1-1H3.4v9.031H6.522V8.516Zm12.969,1v1H8.835v-1H19.491m1-1H7.835v3H20.491v-3ZM11,13.547v3H8.835v-3H11m1-1H7.835v5H12v-5Zm7.491,1v3H14.037v-3h5.454m1-1H13.037v5h7.454v-5Z" class="aw-theme-iconOutline" fill="#464646"/>
</svg>
