<svg version="1.1" id="Artwork" xmlns="http://www.w3.org/2000/svg" xmlns:xlink="http://www.w3.org/1999/xlink" x="0px" y="0px"
	 width="24px" height="24px" viewBox="0 0 24 24" enable-background="new 0 0 24 24" xml:space="preserve">
<path class="aw-theme-iconOutline" fill="#464646" d="M6,9V6.5C6,3.5,8.5,1,11.5,1c2.2,0,4.2,1.3,5.1,3.3l0.9-0.4c-1-2.4-3.4-3.9-6-3.9C7.9,0,5,2.9,5,6.5V9H2
	v13.5C2,23.3,2.7,24,3.5,24h16c0.8,0,1.5-0.7,1.5-1.5V9H6z M20,22.5c0,0.3-0.2,0.5-0.5,0.5h-16C3.2,23,3,22.8,3,22.5V10h17V22.5z"/>
<path class="aw-theme-iconOutline" fill="#464646" d="M13,15.5c0-0.8-0.7-1.5-1.5-1.5S10,14.7,10,15.5c0,0.7,0.4,1.2,1,1.4V19h1v-2.1C12.6,16.7,13,16.2,13,15.5z
	 M11.5,16c-0.3,0-0.5-0.2-0.5-0.5s0.2-0.5,0.5-0.5s0.5,0.2,0.5,0.5S11.8,16,11.5,16z"/>
</svg>
