<svg version="1.1" id="Livello_2" xmlns="http://www.w3.org/2000/svg" xmlns:xlink="http://www.w3.org/1999/xlink" x="0px" y="0px"
	  viewBox="0 0 16 16" enable-background="new 0 0 16 16" xml:space="preserve">
<path id="path4" class="aw-theme-iconOutline" fill="#464646" d="M3.871,6.735v0.002c-0.063-0.008-0.126,0-0.18,0.029C2.004,7.471,1,8.821,1,10.386v5.373h1.002
	l0.016-5.387c0.003-1.258,0.575-2.025,1.939-2.639C5.25,8.469,6.256,9.011,7.656,9.011c1.472,0,2.91-0.502,4.131-1.208
	c1.508,0.674,2.243,1.387,2.238,2.553l-0.021,5.402H15v-5.373c0-1.473-1.149-2.853-3.088-3.62c-0.107-0.03-0.25-0.029-0.357,0.031
	c-1.113,0.705-2.513,1.301-3.877,1.301c-1.292,0-2.406-0.565-3.627-1.301C3.997,6.767,3.934,6.743,3.871,6.735z"/>
<path id="path2-0" class="aw-theme-iconOutline" fill="#464646" d="M7.836,7.43
	c-1.712,0-3.279-2.23-3.279-3.991c0-1.703,1.523-3.198,3.266-3.198s3.238,1.458,3.238,3.161C11.061,5.163,9.548,7.43,7.836,7.43z
	 M7.78,1.255c-1.412,0-2.206,0.791-2.206,2.171c0,1.468,0.888,3.062,2.24,3.062s2.259-1.614,2.259-3.082
	C10.072,2.027,9.191,1.255,7.78,1.255z"/>
<rect id="rect836" x="3.447" y="10.726" class="aw-theme-iconOutline" fill="#464646" width="1.053" height="5.01"/>
<rect id="rect836-2" x="11.455" y="10.735" class="aw-theme-iconOutline" fill="#464646" width="1.053" height="5"/>
</svg>
