<svg id="Image" xmlns="http://www.w3.org/2000/svg" viewBox="0 0 24 24">
  <g id="g863">
    <path id="path835" d="M12.5,7.9V3.279c0-.51-.224-.923-.5-.923s-.5.413-.5.923V7.9c0,.509.224.923.5.923S12.5,8.4,12.5,7.9Z" class="aw-theme-iconOutline" fill="#464646"/>
    <path id="path831" d="M21.614,12c0-.276-.414-.5-.924-.5H16.072c-.51,0-.923.224-.923.5s.413.5.923.5H20.69c.51,0,.924-.224.924-.5v0Z" class="aw-theme-iconOutline" fill="#464646"/>
    <path id="path827" d="M12.5,20.666V16.051c0-.51-.224-.923-.5-.923s-.5.413-.5.923v4.615c0,.51.224.924.5.924S12.5,21.176,12.5,20.666Z" class="aw-theme-iconOutline" fill="#464646"/>
    <path id="path823" d="M8.841,12c0-.276-.413-.5-.923-.5H3.3c-.51,0-.923.224-.923.5s.413.5.923.5H7.918c.51,0,.922-.225.921-.5v0Z" class="aw-theme-iconOutline" fill="#464646"/>
    <path id="path823-2" d="M9.719,9.785c.2-.194.065-.645-.293-1.009L6.183,5.489c-.358-.363-.808-.5-1-.307s-.066.646.292,1.009L8.714,9.479c.359.362.808.5,1,.3h0Z" class="aw-theme-iconOutline" fill="#464646"/>
    <path id="path823-2-9" d="M18.809,18.823c.2-.193.066-.645-.293-1.008h0l-3.242-3.288c-.359-.363-.808-.5-1-.306s-.066.645.293,1.008L17.8,18.517c.359.363.808.5,1,.3h0Z" class="aw-theme-iconOutline" fill="#464646"/>
    <path id="path881" d="M12,0A11.982,11.982,0,0,0,2.539,19.357l.709-.709a10.986,10.986,0,0,1,15.391-15.4l.718-.719A12,12,0,0,0,12,0Zm9.508,4.7-.711.711A10.985,10.985,0,0,1,5.424,20.8l-.719.717A11.986,11.986,0,0,0,21.508,4.7Z" class="aw-theme-iconOutline" fill="#464646"/>
    <path id="rect821" d="M.013,23.279,23.256.019l.73.721L.743,24Z" class="aw-theme-iconOutline" fill="#464646"/>
  </g>
</svg>
