<svg id="Image" xmlns="http://www.w3.org/2000/svg" viewBox="0 0 24 24">
  <path d="M21.5,1H2.5A1.5,1.5,0,0,0,1,2.5V18.5A1.5,1.5,0,0,0,2.5,20H7.359l.126.105a19.814,19.814,0,0,0,5.652,3.31l.577.221a1.491,1.491,0,0,0,1.3-.118L18.8,21.191A1.537,1.537,0,0,0,19.646,20H21.5A1.5,1.5,0,0,0,23,18.5V2.5A1.5,1.5,0,0,0,21.5,1ZM2,2.5A.5.5,0,0,1,2.5,2H21.5a.5.5,0,0,1,.5.5V5H2ZM18.583,20a.642.642,0,0,1-.219.3l-3.876,2.369a.473.473,0,0,1-.416.038l-.579-.221A18.8,18.8,0,0,1,8.99,20c-.291-.216-.584-.429-.864-.662L7.713,19l-.206-.169A.721.721,0,0,1,7.68,17.51a.738.738,0,0,1,.568.081l1.161.6h0a.5.5,0,0,0,.227.058c.014,0,.028,0,.042,0a.488.488,0,0,0,.2-.056.518.518,0,0,0,.057-.031.543.543,0,0,0,.078-.073.481.481,0,0,0,.06-.075.517.517,0,0,0,.038-.083.5.5,0,0,0,.027-.1.469.469,0,0,0,.005-.092.525.525,0,0,0-.012-.1.5.5,0,0,0-.034-.093.405.405,0,0,0-.02-.055L6.568,11.747A.721.721,0,0,1,7.8,11l2.8,4.588a.5.5,0,1,0,.853-.521.582.582,0,1,1,.993-.607l.424.694h0l.006.01a.5.5,0,0,0,.853-.521l-.19-.312a.581.581,0,0,1,.632-.868.573.573,0,0,1,.354.251c.689,1.192.707,1.2.939,1.252a.5.5,0,0,0,.542-.748l-.119-.194a.587.587,0,0,1,.329-.863.638.638,0,0,1,.7.313l.117.191a12,12,0,0,1,1.526,3.754A7.506,7.506,0,0,1,18.747,19,2.531,2.531,0,0,1,18.583,20ZM22,18.5a.5.5,0,0,1-.5.5H19.751a8.648,8.648,0,0,0-.211-1.792,13.006,13.006,0,0,0-1.65-4.068l-.118-.192a1.633,1.633,0,0,0-1.857-.742,1.579,1.579,0,0,0-.837.624,1.575,1.575,0,0,0-2.454.5,1.576,1.576,0,0,0-1.934.479L8.653,10.474A1.727,1.727,0,0,0,6.286,9.9a1.726,1.726,0,0,0-.572,2.368l2.619,4.285a1.688,1.688,0,0,0-.914-.009,1.718,1.718,0,0,0-1.213,2.108A1.814,1.814,0,0,0,6.342,19H2.5a.5.5,0,0,1-.5-.5V6H22ZM4,3.5A.5.5,0,1,1,3.5,3,.5.5,0,0,1,4,3.5Zm2,0A.5.5,0,1,1,5.5,3,.5.5,0,0,1,6,3.5Zm2,0A.5.5,0,1,1,7.5,3,.5.5,0,0,1,8,3.5Z" class="aw-theme-iconOutline" fill="#464646"/>
</svg>
