<svg version="1.1" id="Verb_x5F_Zone" xmlns="http://www.w3.org/2000/svg" xmlns:xlink="http://www.w3.org/1999/xlink" x="0px"
	 y="0px"  viewBox="0 0 24 24" enable-background="new 0 0 24 24" xml:space="preserve">
<path id="path2" class="aw-theme-iconOutline" fill="#464646" d="M7.5,0C5,0,3,2,3,4.4C3,7,5,10,7.5,10S12,7,12,4.4C12,2,10,0,7.5,0z M7.5,1C9.4,1,11,2.5,11,4.4
	C11,6.4,9.4,9,7.5,9S4,6.4,4,4.4C4,2.5,5.6,1,7.5,1z"/>
<path id="rect4" class="aw-theme-iconOutline" fill="#464646" d="M3,17h1v5H3V17z"/>
<path id="path821" class="aw-theme-iconOutline" fill="#464646" d="M3.387,10.025C3.299,10.025,3.2,10.05,3.1,10.1C1.2,11,0,12.799,0,14.699V22h1v-7.301
	c0-1.4,0.901-2.8,2.301-3.6c2.6,1.7,6,1.7,8.6,0c0.195,0.098,0.484,0.291,0.684,0.486c0.28-0.225,0.578-0.428,0.889-0.607
	c-0.396-0.388-0.883-0.683-1.373-0.879c-0.2-0.1-0.4-0.1-0.5,0c-2.4,1.7-5.6,1.7-8,0C3.55,10.05,3.474,10.025,3.387,10.025z"/>
<path id="path10"  class="aw-theme-iconOutline" fill="#464646" d="M17.5,11c-3.575,0-6.5,2.925-6.5,6.5s2.925,6.5,6.5,6.5
	s6.5-2.925,6.5-6.5S21.075,11,17.5,11z M17.5,12c3.025,0,5.5,2.475,5.5,5.5S20.525,23,17.5,23S12,20.525,12,17.5S14.475,12,17.5,12z
	"/>
<path id="polygon2-5" class="aw-theme-iconOutline" fill="#464646" d="M17.001,17.076h-3v1h3v3h1v-3h3v-1h-3v-3h-1V17.076z"/>
</svg>
