<svg id="svg8" xmlns="http://www.w3.org/2000/svg" viewBox="0 0 24 24">
  <g id="layer1">
    <g id="g888">
      <path id="rect864" d="M1,8.5v7H8v-7ZM2.167,9.667H6.833v4.666H2.167Z" class="aw-theme-iconOutline" fill="#464646"/>
      <path id="rect882" d="M3,11.5H6v1H3Z" class="aw-theme-iconOutline" fill="#464646"/>
      <path id="rect899" d="M4,7H5V9H4Z" class="aw-theme-iconOutline" fill="#464646"/>
      <path id="rect973" d="M4,1H6V2H4Z" class="aw-theme-iconOutline" fill="#464646"/>
      <path id="rect899-83" d="M4,3H5V5H4Z" class="aw-theme-iconOutline" fill="#464646"/>
      <path id="rect973-1" d="M8,1h2V2H8Z" class="aw-theme-iconOutline" fill="#464646"/>
      <path id="rect973-16" d="M12,1h2V2H12Z" class="aw-theme-iconOutline" fill="#464646"/>
      <path id="rect973-3" d="M16,1h2V2H16Z" class="aw-theme-iconOutline" fill="#464646"/>
      <path id="rect899-2" d="M4,15H5v2H4Z" class="aw-theme-iconOutline" fill="#464646"/>
      <path id="rect899-83-9" d="M4,19H5v2H4Z" class="aw-theme-iconOutline" fill="#464646"/>
      <path id="rect973-4" d="M4,22H6v1H4Z" class="aw-theme-iconOutline" fill="#464646"/>
      <path id="rect973-1-8" d="M8,22h2v1H8Z" class="aw-theme-iconOutline" fill="#464646"/>
      <path id="rect973-16-6" d="M12,22h2v1H12Z" class="aw-theme-iconOutline" fill="#464646"/>
      <path id="rect973-3-9" d="M16,22h2v1H16Z" class="aw-theme-iconOutline" fill="#464646"/>
      <path id="path828" d="M12,4v7H22V4Zm1,1h8v5H13Z" class="aw-theme-iconOutline" fill="#464646"/>
      <path id="rect943" d="M14,7h6V8H14Z" class="aw-theme-iconOutline" fill="#464646"/>
      <path id="path828-7" d="M12,13v7H22V13Zm1,1h8v5H13Z" class="aw-theme-iconOutline" fill="#464646"/>
      <path id="rect943-5" d="M14,16h6v1H14Z" class="aw-theme-iconOutline" fill="#464646"/>
    </g>
  </g>
</svg>
