<svg version="1.1" id="Layer_1" xmlns="http://www.w3.org/2000/svg" xmlns:xlink="http://www.w3.org/1999/xlink" x="0px" y="0px"
	 viewBox="0 0 24 24" enable-background="new 0 0 24 24" xml:space="preserve">
<polygon class="aw-theme-iconOutline" fill="#464646" points="17,10 14,10 14,7 13,7 13,10 10,10 10,11 13,11 13,14 14,14 14,11 17,11 "/>
<polygon class="aw-theme-iconOutline" fill="#464646" points="1,6 0,6 0,0 6,0 6,1 1,1 "/>
<polygon class="aw-theme-iconOutline" fill="#464646" points="24,6 23,6 23,1 18,1 18,0 24,0 "/>
<polygon class="aw-theme-iconOutline" fill="#464646" points="24,24 18,24 18,23 23,23 23,18 24,18 "/>
<polygon class="aw-theme-iconOutline" fill="#464646" points="6,24 0,24 0,18 1,18 1,23 6,23 "/>
<path class="aw-theme-iconOutline" fill="#464646" d="M13.5,4C9.9,4,7,6.9,7,10.5c0,1.1,0.3,2.1,0.8,3l-4.1,4.1C3.3,18,3.1,18.5,3.1,19s0.2,1,0.6,1.4
	C4,20.7,4.5,20.9,5,20.9c0.5,0,1-0.2,1.4-0.6l4.1-4.1c0.9,0.5,1.9,0.8,3,0.8c3.6,0,6.5-2.9,6.5-6.5S17.1,4,13.5,4z M5.6,19.7
	c-0.4,0.4-0.9,0.4-1.3,0c-0.2-0.2-0.3-0.4-0.3-0.6c0-0.2,0.1-0.5,0.3-0.6l3.9-4c0.4,0.5,0.8,0.9,1.3,1.3L5.6,19.7z M13.5,16
	c-3,0-5.5-2.5-5.5-5.5S10.5,5,13.5,5S19,7.5,19,10.5S16.5,16,13.5,16z"/>
</svg>
