<svg id="Image" xmlns="http://www.w3.org/2000/svg" viewBox="0 0 24 24">
  <path d="M23.084,20.3l-.668-.949a5.048,5.048,0,0,1-4.736,3.3,5.18,5.18,0,0,1-.883-.076,5.086,5.086,0,0,1-4.21-4.865l1-.027a4.063,4.063,0,0,0,7.687,1.758l-.714.5-.577-.818,1.522-1.071h0l.818-.576L23.9,19.722Zm-10.4-3.108h0L14.948,15.6l-.576-.819-.715.5a4.072,4.072,0,0,1,7.687,1.758l1-.027a5.074,5.074,0,0,0-9.829-1.639l-.669-.95L11.029,15l1.578,2.243Zm-.7-14.426h0a1.283,1.283,0,0,0-.968-.453h-.3A1.689,1.689,0,0,0,9.03.742H7.837a1.69,1.69,0,0,0-1.69,1.569h-.3a1.281,1.281,0,0,0-.968.453H1.033V20.109h9.709a7.046,7.046,0,0,1-.275-.878H1.911V3.641H4.552v1.63h7.763V3.641h2.642v7.077a7.23,7.23,0,0,1,.877-.268V2.764Zm-.672,1.507H5.552V3.6a.29.29,0,0,1,.3-.284h1.3V2.418a.685.685,0,0,1,.693-.676H9.03a.686.686,0,0,1,.694.676v.893h1.3a.29.29,0,0,1,.295.284ZM8.872,2.915a.439.439,0,1,1-.438-.439A.439.439,0,0,1,8.872,2.915Zm1.975,11.706V12.65h.439v1.13a7.272,7.272,0,0,1,.877-1.175V10.9h.878v.9a7.228,7.228,0,0,1,.877-.59V10.017H11.286v1.755h-.439V8.262H9.531V6.946H7.337V8.262H6.021v3.51H5.582V10.017H2.949v4.388H5.582V12.65h.439v3.51H7.337v1.316H9.531V16.16h.848A7.2,7.2,0,0,1,10.847,14.621ZM4.7,13.527H3.827V10.9H4.7Zm3.51-5.7h.439V9.579H8.214ZM8.653,16.6H8.214V14.844h.439Zm1.316-1.317H9.531V13.966H7.337v1.316H6.9V12.65H9.969Zm-.658-3.51H6.9V9.14h.439v1.316H9.531V9.14h.438v2.632Z" class="aw-theme-iconOutline" fill="#464646"/>
</svg>
