<svg id="Layer_1" data-name="Layer 1" xmlns="http://www.w3.org/2000/svg" viewBox="0 0 24 24">
  <g id="g869">
    <path id="path2" d="M12,1,.1,7.1l.521.752,1.328-.616L2,24H4V23H3V6.922L11.975,2.3,21,6.719V23H20v1h2l.127-16.865,1.227.64L23.9,7Z" class="aw-theme-iconOutline" fill="#464646"/>
    <path id="rect830-4" d="M4,10H20v1H4Z" class="aw-theme-iconOutline" fill="#464646"/>
    <path id="rect847" d="M4.127,12v1.4h5.9v.8h4v-.8H19.67V12Zm6.916.67h2v1h-2Z" class="aw-theme-iconOutline" fill="#464646"/>
    <path id="rect1012" d="M9,19h1v5H9Z" class="aw-theme-iconOutline" fill="#464646"/>
    <path id="rect1016" d="M10,19h7v1H10Z" class="aw-theme-iconOutline" fill="#464646"/>
    <path id="rect1018" d="M13,15h1v8H13Z" class="aw-theme-iconOutline" fill="#464646"/>
    <path id="rect1020" d="M10,23h8v1H10Z" class="aw-theme-iconOutline" fill="#464646"/>
    <path id="rect1022" d="M14,15h3v1H14Z" class="aw-theme-iconOutline" fill="#464646"/>
    <path id="rect1024" d="M17,15h1v8H17Z" class="aw-theme-iconOutline" fill="#464646"/>
    <path id="rect1026" d="M6,21H9v1H6Z" class="aw-theme-iconOutline" fill="#464646"/>
    <path id="rect1028" d="M6,17H7v4H6Z" class="aw-theme-iconOutline" fill="#464646"/>
    <path id="rect1030" d="M6.763,17H11v1H6.763Z" class="aw-theme-iconOutline" fill="#464646"/>
    <path id="rect1032" d="M10.025,17.949H11v1.144h-.975Z" class="aw-theme-iconOutline" fill="#464646"/>
    <path id="rect849" d="M4,8H5V24H4Z" class="aw-theme-iconOutline" fill="#464646"/>
    <path id="rect849-0" d="M19,8.11h1V24H19Z" class="aw-theme-iconOutline" fill="#464646"/>
    <path id="rect847-5" d="M4,7H20V9H4Z" class="aw-theme-iconOutline" fill="#464646"/>
  </g>
</svg>
