<svg id="Image" xmlns="http://www.w3.org/2000/svg" viewBox="0 0 24 24">
  <path d="M15.973,3.234a1.408,1.408,0,0,0-1.027-.447h-.407A1.852,1.852,0,0,0,12.68,1H11.32A1.852,1.852,0,0,0,9.461,2.787H9.053a1.405,1.405,0,0,0-1.026.447H3.567V23H20.434V3.234Zm-7.327,1V4.181a.4.4,0,0,1,.407-.394H10.46V2.84A.851.851,0,0,1,11.32,2h1.36a.851.851,0,0,1,.86.84v.947h1.406a.4.4,0,0,1,.408.394v.84H8.646ZM19.434,22H4.567V4.234H7.646V6.021h8.708V4.234h3.08ZM12,2.906a.5.5,0,1,1-.5.5A.5.5,0,0,1,12,2.906ZM15.25,11.5v2h-.5v-4h-1.5V8h-2.5V9.5H9.25v4h-.5v-2h-3v5h3v-2h.5v4h1.5V20h2.5V18.5h1.5v-4h.5v2h3v-5Zm-7.5,4h-1v-3h1Zm4-6.5h.5v2h-.5Zm.5,10h-.5V17h.5Zm1.5-1.5h-.5V16h-2.5v1.5h-.5v-3h3.5Zm0-4h-3.5v-3h.5V12h2.5V10.5h.5Zm3.5,2h-1v-3h1Z" class="aw-theme-iconOutline" fill="#464646"/>
</svg>
