<svg id="Layer_1" data-name="Layer 1" xmlns="http://www.w3.org/2000/svg" viewBox="0 0 24 24">
  <g id="g834">
    <path id="path2" d="M10,15.721a5.717,5.717,0,0,0,8.4,5.051l2.736,2.736a1.678,1.678,0,0,0,2.374,0,1.683,1.683,0,0,0,0-2.374L20.774,18.4A5.72,5.72,0,1,0,10,15.721Zm9.113,4.571a5.761,5.761,0,0,0,1.146-1.146l2.6,2.6a.811.811,0,0,1,0,1.146.826.826,0,0,1-1.146,0Zm-8.266-4.571a4.842,4.842,0,1,1,4.841,4.84A4.847,4.847,0,0,1,10.847,15.721Z" class="aw-theme-iconOutline" fill="#464646"/>
    <path id="rect814" d="M.037,1A.038.038,0,0,0,0,1.037V3.963A.038.038,0,0,0,.037,4H2.963A.038.038,0,0,0,3,3.963V1.037A.038.038,0,0,0,2.963,1Zm.975,1h.976A.012.012,0,0,1,2,2.012v.976A.012.012,0,0,1,1.988,3H1.012A.012.012,0,0,1,1,2.988V2.012A.012.012,0,0,1,1.012,2Z" class="aw-theme-iconOutline" fill="#464646"/>
    <path id="rect814-0" d="M3.037,6A.038.038,0,0,0,3,6.037V8.963A.038.038,0,0,0,3.037,9H5.963A.038.038,0,0,0,6,8.963V6.037A.038.038,0,0,0,5.963,6Zm.975,1h.976A.012.012,0,0,1,5,7.012v.976A.012.012,0,0,1,4.988,8H4.012A.012.012,0,0,1,4,7.988V7.012A.012.012,0,0,1,4.012,7Z" class="aw-theme-iconOutline" fill="#464646"/>
    <path id="rect814-0-9" d="M3.037,11A.038.038,0,0,0,3,11.037v2.926A.038.038,0,0,0,3.037,14H5.963A.038.038,0,0,0,6,13.963V11.037A.038.038,0,0,0,5.963,11Zm.975,1h.976A.012.012,0,0,1,5,12.012v.976A.012.012,0,0,1,4.988,13H4.012A.012.012,0,0,1,4,12.988v-.976A.012.012,0,0,1,4.012,12Z" class="aw-theme-iconOutline" fill="#464646"/>
    <path id="rect814-0-99" d="M.037,16A.038.038,0,0,0,0,16.037v2.926A.038.038,0,0,0,.037,19H2.963A.038.038,0,0,0,3,18.963V16.037A.038.038,0,0,0,2.963,16Zm.975,1h.976A.012.012,0,0,1,2,17.012v.976A.012.012,0,0,1,1.988,18H1.012A.012.012,0,0,1,1,17.988v-.976A.012.012,0,0,1,1.012,17Z" class="aw-theme-iconOutline" fill="#464646"/>
    <path id="rect814-0-5" d="M3.037,21A.038.038,0,0,0,3,21.037v2.926A.038.038,0,0,0,3.037,24H5.963A.038.038,0,0,0,6,23.963V21.037A.038.038,0,0,0,5.963,21Zm.975,1h.976A.012.012,0,0,1,5,22.012v.976A.012.012,0,0,1,4.988,23H4.012A.012.012,0,0,1,4,22.988v-.976A.012.012,0,0,1,4.012,22Z" class="aw-theme-iconOutline" fill="#464646"/>
    <path id="rect874" d="M5.039,2H21.961A.04.04,0,0,1,22,2.039v.922A.04.04,0,0,1,21.961,3H5.039A.04.04,0,0,1,5,2.961V2.039A.04.04,0,0,1,5.039,2Z" class="aw-theme-iconOutline" fill="#464646"/>
    <path id="rect874-9" d="M8.039,7H21.961A.04.04,0,0,1,22,7.039v.922A.04.04,0,0,1,21.961,8H8.039A.04.04,0,0,1,8,7.961V7.039A.04.04,0,0,1,8.039,7Z" class="aw-theme-iconOutline" fill="#464646"/>
    <path id="rect874-9-9" d="M5.039,17H8.961A.04.04,0,0,1,9,17.039v.922A.04.04,0,0,1,8.961,18H5.039A.04.04,0,0,1,5,17.961v-.922A.04.04,0,0,1,5.039,17Z" class="aw-theme-iconOutline" fill="#464646"/>
    <path id="rect874-9-8" d="M8.039,22h4.922a.04.04,0,0,1,.039.039v.922a.04.04,0,0,1-.039.039H8.039A.04.04,0,0,1,8,22.961v-.922A.04.04,0,0,1,8.039,22Z" class="aw-theme-iconOutline" fill="#464646"/>
    <path id="rect874-9-9-0" d="M8.039,12H9.461a.04.04,0,0,1,.039.039v.922A.04.04,0,0,1,9.461,13H8.039A.04.04,0,0,1,8,12.961v-.922A.04.04,0,0,1,8.039,12Z" class="aw-theme-iconOutline" fill="#464646"/>
  </g>
</svg>
