<svg id="Image" xmlns="http://www.w3.org/2000/svg" viewBox="0 0 24 24">
  <g id="g824">
    <g id="g875">
      <path id="path852" d="M6.409,12.147a1.162,1.162,0,1,0,1.164,1.162A1.163,1.163,0,0,0,6.409,12.147Zm-.015.784a.378.378,0,0,1,.393.363v.015a.382.382,0,1,1-.393-.378Z" class="aw-theme-iconOutline" fill="#464646"/>
      <path id="path848" d="M12.08,13.776a1.162,1.162,0,1,0,1.164,1.161,1.162,1.162,0,0,0-1.164-1.161Zm-.015.783a.379.379,0,0,1,.393.364v.014a.374.374,0,1,1-.393-.378Z" class="aw-theme-iconOutline" fill="#464646"/>
      <path id="path844" d="M17.609,12.147a1.162,1.162,0,1,0,1.163,1.162A1.163,1.163,0,0,0,17.609,12.147Zm-.015.784a.378.378,0,0,1,.393.363v.015a.382.382,0,1,1-.393-.378Z" class="aw-theme-iconOutline" fill="#464646"/>
      <path id="path840" d="M9.861.816v.575a5.078,5.078,0,0,0-3.577,5v1.72a.822.822,0,0,1-.781.858H4.728a.41.41,0,0,0-.392.428v1.551l-.384.384a.394.394,0,0,0-.077.444l.283.6-.627.221a.391.391,0,0,0-.259.37v.688a.392.392,0,0,0,.259.369l.627.217-.283.6a.394.394,0,0,0,.077.446l.484.484a.4.4,0,0,0,.446.077l.594-.283.227.635a.4.4,0,0,0,.37.261h.688a.393.393,0,0,0,.356-.261l.223-.631.6.281a.392.392,0,0,0,.444-.077l.484-.486a.372.372,0,0,0,.068-.129v.125a.389.389,0,0,0,.261.369l.626.219-.284.594a.393.393,0,0,0,.078.446l.484.484a.391.391,0,0,0,.446.079l.6-.282.222.632a.391.391,0,0,0,.37.261h.688a.393.393,0,0,0,.369-.261l.223-.632.595.282a.392.392,0,0,0,.446-.076l.484-.487a.391.391,0,0,0,.078-.443l-.284-.6.628-.219a.384.384,0,0,0,.24-.308l.435.436a.4.4,0,0,0,.446.074l.6-.282.216.634a.4.4,0,0,0,.372.262h.686a.392.392,0,0,0,.369-.262l.225-.632.592.282a.393.393,0,0,0,.446-.076l.487-.487a.394.394,0,0,0,.076-.445l-.282-.6.628-.225a.388.388,0,0,0,.259-.367v-.688a.393.393,0,0,0-.257-.376l0,0-.624-.219.282-.594a.393.393,0,0,0-.076-.446l-.121-.121V9.4a.412.412,0,0,0-.387-.435h-.785A.824.824,0,0,1,18,8.107V6.4A5.053,5.053,0,0,0,14.225,1.34V.816Zm1.113,1.272H13.38V9.466h.847V2.215A4.239,4.239,0,0,1,17.152,6.4V8.113A1.672,1.672,0,0,0,18.783,9.82h.327v1.31H5.18V9.818h.325a1.671,1.671,0,0,0,1.63-1.707V6.4A4.284,4.284,0,0,1,9.866,2.272V9.466h.849V2.1C10.8,2.1,10.886,2.088,10.974,2.088Zm1.76,9.883h2.437l.183.395-.624.217a.382.382,0,0,0-.242.31l-.435-.436a.392.392,0,0,0-.446-.076l-.6.284-.216-.618C12.782,12.015,12.753,12,12.734,11.971Zm-7.9.009H7.98l-.159.333a.512.512,0,0,0-.008.408.5.5,0,0,0,.3.278l.652.235v.134L8.11,13.6a.5.5,0,0,0-.308.637h0a.389.389,0,0,0,.021.051l.3.631-.1.093-.628-.3a.5.5,0,0,0-.406-.009.514.514,0,0,0-.285.3l-.233.66H6.343L6.11,15a.506.506,0,0,0-.283-.3.489.489,0,0,0-.405.011l-.631.3L4.7,14.912l.3-.631a.505.505,0,0,0-.244-.671l-.045-.017-.651-.229v-.132L4.708,13a.507.507,0,0,0,.3-.281A.494.494,0,0,0,5,12.311Zm4.013,0h2.579c-.018.027-.048.045-.059.078l-.217.618-.6-.285a.394.394,0,0,0-.444.079l-.486.484a.386.386,0,0,0-.068.13v-.128a.394.394,0,0,0-.264-.369l0,0-.626-.217Zm7.189,0h3.146l-.157.333a.5.5,0,0,0,.237.666h0a.425.425,0,0,0,.049.021l.658.233,0,.134-.652.234a.5.5,0,0,0-.313.632v0a.252.252,0,0,0,.021.054l.3.63-.1.094-.629-.3a.5.5,0,0,0-.405-.008.51.51,0,0,0-.282.3l-.234.661h-.136l-.231-.661a.51.51,0,0,0-.283-.3.5.5,0,0,0-.41.01l-.628.3-.093-.1.3-.626a.5.5,0,0,0-.285-.69l-.658-.234v-.132L15.91,13a.5.5,0,0,0,.306-.637.384.384,0,0,0-.019-.051Zm-4.017.605h.133l.234.654a.5.5,0,0,0,.278.29.509.509,0,0,0,.41-.008l.628-.3.094.093-.3.631a.5.5,0,0,0,.244.67h0l.044.017.658.233-.006.123-.652.234a.5.5,0,0,0-.31.635v0a.487.487,0,0,0,.021.053l.3.628-.094.1-.626-.3a.5.5,0,0,0-.406-.013.514.514,0,0,0-.291.3l-.231.663H12.01l-.231-.663a.507.507,0,0,0-.285-.3.5.5,0,0,0-.4.01l-.631.3-.093-.1.3-.626a.5.5,0,0,0-.233-.669.549.549,0,0,0-.051-.021L9.728,15v-.132l.658-.233a.509.509,0,0,0,.3-.283.5.5,0,0,0-.01-.408l-.3-.628.094-.093.63.3a.5.5,0,0,0,.667-.236.382.382,0,0,0,.021-.046Zm-2.47.84L9.825,14l-.626.218a.4.4,0,0,0-.259.372l0-.008v.225l-.274-.569.628-.219a.387.387,0,0,0,.259-.367Zm4.93.264a.391.391,0,0,0,.249.325l.624.218-.146.306a.387.387,0,0,0-.247-.327l-.626-.217Z" class="aw-theme-iconOutline" fill="#464646"/>
    </g>
    <path id="path825-2" d="M19.532,14.974l-.959.585,2.941,1.756L12.008,22.9,2.49,17.315l2.945-1.756-.947-.6-3.241,1.93a.493.493,0,0,0,0,.852l10.462,6.14a.567.567,0,0,0,.594,0l10.453-6.14a.493.493,0,0,0,0-.852Z" class="aw-theme-iconOutline" fill="#464646"/>
  </g>
</svg>
