<svg id="Image" xmlns="http://www.w3.org/2000/svg" viewBox="0 0 24 24">
  <g id="g829">
    <path id="path2" d="M15.135,2.57a1.1,1.1,0,0,0-.8-.349h-.318A1.445,1.445,0,0,0,12.564.826H11.5a1.445,1.445,0,0,0-1.451,1.4H9.733a1.1,1.1,0,0,0-.8.349H5.45V18H18.617V2.57Zm-5.72.781V3.309A.311.311,0,0,1,9.732,3h1.1v-.74a.664.664,0,0,1,.671-.655h1.062a.663.663,0,0,1,.671.655V3h1.1a.311.311,0,0,1,.318.306h0v.656H9.415Zm8.421,13.868H6.231V3.351h2.4v1.4h6.8v-1.4h2.4Zm-5.8-14.9a.391.391,0,1,1-.39.39.39.39,0,0,1,.39-.39ZM14.57,9.023v1.561h-.39V7.461H13.009V6.29H11.057V7.461H9.886v3.123H9.5V9.023H7.154v3.9H9.5V11.365h.39v3.122h1.171v1.171h1.952V14.487H14.18V11.365h.39v1.561h2.342v-3.9ZM8.715,12.145h-.78V9.8h.78Zm3.123-5.074h.39V8.632h-.39Zm.39,7.806h-.39V13.316h.39ZM13.4,13.706h-.39v-1.17H11.057v1.17h-.39V11.365H13.4Zm0-3.122H10.667V8.242h.39V9.413h1.952V8.242h.39Zm2.732,1.561h-.78V9.8h.78Z" class="aw-theme-iconOutline" fill="#464646"/>
    <path id="path825-2" d="M18.57,14.426V15.59l2.941,1.756L12.005,22.93,2.487,17.346,5.432,15.59V14.428l-4.188,2.5a.494.494,0,0,0-.177.675.5.5,0,0,0,.177.177l10.462,6.14a.567.567,0,0,0,.594,0l10.454-6.14a.493.493,0,0,0,0-.852Z" class="aw-theme-iconOutline" fill="#464646"/>
  </g>
</svg>
