<svg id="Image" xmlns="http://www.w3.org/2000/svg" viewBox="0 0 24 24">
  <g id="g843">
    <path id="rect859-6" d="M1.5,22h18a.5.5,0,0,1,0,1H1.5a.5.5,0,0,1,0-1Z" class="aw-theme-iconOutline" fill="#464646"/>
    <path id="rect861-9" d="M1.5,1a.5.5,0,0,1,.5.5v21a.5.5,0,0,1-1,0V1.5A.5.5,0,0,1,1.5,1Z" class="aw-theme-iconOutline" fill="#464646"/>
    <path id="rect863-8" d="M1.414,1H19.5a.462.462,0,0,1,.414.5A.462.462,0,0,1,19.5,2H1.414A.462.462,0,0,1,1,1.5.462.462,0,0,1,1.414,1Z" class="aw-theme-iconOutline" fill="#464646"/>
    <path id="rect865-0" d="M19.5,9.867a.512.512,0,0,1,.5.525V22.475a.5.5,0,1,1-1,0V10.392A.512.512,0,0,1,19.5,9.867Z" class="aw-theme-iconOutline" fill="#464646"/>
    <path id="rect869-44" d="M3.565,12.348H17.633a.5.5,0,0,1,0,1H3.565a.5.5,0,1,1,0-1Z" class="aw-theme-iconOutline" fill="#464646"/>
    <path id="rect869-4-3" d="M3.5,15.291H17.565a.5.5,0,0,1,0,1H3.5a.5.5,0,0,1,0-1Z" class="aw-theme-iconOutline" fill="#464646"/>
    <path id="rect869-2-4" d="M3.565,18.277H17.633a.5.5,0,0,1,0,1H3.565a.5.5,0,1,1,0-1Z" class="aw-theme-iconOutline" fill="#464646"/>
    <path id="rect869-5-6" d="M5.036,3.965H18.048a.5.5,0,0,1,0,1H5.036a.5.5,0,0,1,0-1Z" class="aw-theme-iconOutline" fill="#464646"/>
    <path id="rect869-0-5" d="M14.628,6.785h4.416a.5.5,0,0,1,0,1H14.628a.5.5,0,0,1,0-1Z" class="aw-theme-iconOutline" fill="#464646"/>
    <path id="path922-5" d="M14.592,9.518,13.907,9.5l-.37-.321c-.154-.135-.479-.421-.67-.583-.431-.366-.779-.677-1.2-1.082L11.344,7.2l-1.212.176c-2.562.374-3.618.517-4.014.631-.1.027-.114.018-.368-.179-.324-.25-.613-.592-.561-.592.021,0,.854-.123,1.851-.273a34.29,34.29,0,0,1,4.523-.6,4.137,4.137,0,0,1,1.015.786,33.018,33.018,0,0,0,2.935,2.455l-.086-.027c-.141,0-.458-.055-.835-.064Z" class="aw-theme-iconOutline" fill="#464646"/>
    <path id="path996" d="M9.354,10.264A7.3,7.3,0,0,1,6.7,9.326a5.511,5.511,0,0,1-.952-.583c-.239-.173-.593-.454-.787-.624a4.529,4.529,0,0,1-.68-.71A10.051,10.051,0,0,1,3.269,5.866c-.689-1.142-.994-1.682-1.652-2.92-.373-.7-.423-.8-.4-.817s.934-.22.942-.212.181.333.39.729c.666,1.256.935,1.732,1.589,2.811A10.2,10.2,0,0,0,5.053,6.85,6.248,6.248,0,0,0,6.327,8a5.294,5.294,0,0,0,.858.526,8.072,8.072,0,0,0,1.72.68,14.321,14.321,0,0,0,2.056.223c.1-.016,2.133,0,3.28.009.419,0,6.32.013,7.019.024,1.158.018.7-.063.788-.088.034-.01-.046-.119-.5-.687-.5-.624-1.125-1.481-1.508-2.08a6.389,6.389,0,0,1-.712-1.529A5.7,5.7,0,0,1,19,3.5c-.038-.441-.09-2.035-.064-2.052.006,0,.215,0,.476,0l.5,0,.015,1a12.654,12.654,0,0,0,.093,1.461,10.216,10.216,0,0,0,.412,1.443,4.951,4.951,0,0,0,.363.7c.375.577,1.012,1.451,1.53,2.1l.565.709c.1.121.28.341.408.489a2.58,2.58,0,0,1,.272.369.68.68,0,0,1,.1.176.539.539,0,0,1-.047.329c-.063.127-.267.171-.269.173s-1.556-.025-4.259,0c-.954.009-2.075.01-2.757,0s-.881,0-1.335,0c-1.379.008-1.183-.008-1.232,0-.076.014-3.478-.018-3.9-.085Z" class="aw-theme-iconOutline" fill="#464646"/>
  </g>
</svg>
