<svg version="1.1" id="Livello_3" xmlns="http://www.w3.org/2000/svg" xmlns:xlink="http://www.w3.org/1999/xlink" x="0px" y="0px"
	  viewBox="0 0 24 24" enable-background="new 0 0 24 24" xml:space="preserve">
<path id="path835" class="aw-theme-iconOutline" fill="#464646" d="M8.5,0C7.497,0.002,6.31,0.922,6,1.877L0.498,12.871C0.277,13.233,0.001,14.257,0,14.682
	C0,15.962,1.038,17,2.318,17H10c0.002-0.335,0.029-0.669,0.08-1H4.174H2.5C1.671,16,1,15.328,1,14.5
	c0.001-0.225,0.052-0.446,0.15-0.648V13.85l0.078-0.191H1.225l0.201-0.479l1.238-2.43l0.008,0.002l3.301-6.58L5.967,4.17
	l1.252-2.463c0.268-0.434,0.746-0.694,1.256-0.703V1C8.483,1,8.482,1,8.49,1C9.067,1.001,9.601,1.333,9.85,1.854h0.01l0.734,1.471
	c0.002-0.004,0.004-0.009,0.006-0.014l3.52,7.338c0.266-0.115,0.662-0.288,0.939-0.369L11,1.861C10.683,0.919,9.495,0,8.5,0z M8,4v8
	h1V4H8z M17.5,11c-3.59,0-6.5,2.91-6.5,6.5s2.91,6.5,6.5,6.5s6.5-2.91,6.5-6.5S21.09,11,17.5,11z M17.5,12
	c3.037,0,5.5,2.463,5.5,5.5S20.537,23,17.5,23S12,20.537,12,17.5S14.463,12,17.5,12z M8.5,13c-0.414,0-0.75,0.336-0.75,0.75
	S8.086,14.5,8.5,14.5l0,0c0.414,0,0.75-0.336,0.75-0.75l0,0C9.25,13.336,8.914,13,8.5,13z M19.414,14.02
	c-0.461-0.007-0.924,0.161-1.281,0.508l-1.008,0.979l0.76,0.656l0.945-0.918c0.318-0.309,0.824-0.301,1.133,0.016
	c0.309,0.318,0.3,0.822-0.02,1.131v0.002l-1.363,1.322c-0.277,0.27-0.689,0.283-0.996,0.076c-0.02,0.004-0.03,0.016-0.049,0.02
	l-1.088,0.197c0.076,0.139,0.169,0.27,0.285,0.389c0.348,0.357,0.806,0.54,1.266,0.547H18c0.46,0.008,0.922-0.161,1.279-0.508
	l1.361-1.324c0.715-0.695,0.734-1.83,0.039-2.545C20.332,14.209,19.875,14.026,19.414,14.02z M17.154,16.221
	c-0.46-0.008-0.922,0.161-1.279,0.508l-1.361,1.324c-0.715,0.695-0.734,1.83-0.039,2.545s1.832,0.732,2.547,0.039l1.008-0.979
	l-0.76-0.656l-0.945,0.918c-0.318,0.309-0.824,0.301-1.133-0.016c-0.309-0.318-0.301-0.822,0.018-1.131v-0.002l1.363-1.322
	c0.277-0.27,0.688-0.283,0.996-0.076c0.018-0.004,0.031-0.016,0.049-0.02l1.088-0.197c-0.076-0.139-0.17-0.27-0.285-0.389
	C18.072,16.41,17.614,16.228,17.154,16.221z"/>
<path id="path829" class="aw-theme-iconOutline" fill="#464646" d="M7.936,3.727C7.935,3.729,7.934,3.734,7.933,3.734c0,0.008,0.001,0.011,0.002,0.019
	c0.001,0,0.001-0.001,0.003-0.001c0-0.008,0.002-0.012,0.003-0.019C7.939,3.732,7.938,3.731,7.936,3.73V3.727z"/>
<path id="path827" class="aw-theme-iconOutline" fill="#464646" d="M2.353,12.812l-0.032,0.063c0.004,0,0.008-0.001,0.012,0
	C2.341,12.844,2.349,12.824,2.353,12.812z"/>
<path id="path825" class="aw-theme-iconOutline" fill="#464646" d="M14.727,12.868v0.038c0-0.008,0-0.012,0.002-0.02v-0.001c0-0.001-0.002-0.003,0-0.008
	c0.003-0.001,0,0.001,0.003,0l0.001-0.001L14.727,12.868z"/>
</svg>
