<svg id="Image" xmlns="http://www.w3.org/2000/svg" viewBox="0 0 24 24">
  <g id="g905">
    <path id="rect869-44" d="M3.565,12.348h9.481a.5.5,0,0,1,0,1H3.565a.5.5,0,1,1,0-1Z" class="aw-theme-iconOutline" fill="#464646"/>
    <path id="rect869-4-3" d="M3.5,15.291h9.866a.5.5,0,0,1,0,1H3.5a.5.5,0,0,1,0-1Z" class="aw-theme-iconOutline" fill="#464646"/>
    <path id="rect869-2-4" d="M3.565,18.277H13.4a.5.5,0,1,1,0,1H3.565a.5.5,0,1,1,0-1Z" class="aw-theme-iconOutline" fill="#464646"/>
    <path id="path40-4" d="M14,21.244a.308.308,0,0,0-.187.063,1.65,1.65,0,0,0-.68,1.314,1.378,1.378,0,1,0,2.756,0c0-.014,0-.029,0-.043l-.153-1.066a.312.312,0,0,0-.31-.268Zm.154.625h1l.11.756a.75.75,0,0,1-1.5,0A1,1,0,0,1,14.152,21.869Z" class="aw-theme-iconOutline" fill="#464646"/>
    <path id="path60-8" d="M15.789,11.871a1.379,1.379,0,0,0-1.381,1.379l0,.029.85,9.344a.731.731,0,0,1-.75.75.314.314,0,1,0,0,.627H22.6a1.379,1.379,0,0,0,1.377-1.379l0-.031-.852-8.307A.312.312,0,0,0,22.816,14l-1.722,0H18.785l-1.81-.025.006-.014a2.241,2.241,0,0,0,.191-.774,1.609,1.609,0,0,0-.277-.783c-.065-.113-.128-.211-.18-.287-.026-.038-.049-.069-.07-.1s-.02-.026-.036-.043a.3.3,0,0,0-.035-.033.475.475,0,0,0-.045-.031l-.052-.023-.1-.02Zm0,.627.428,0c.039.059.088.133.137.219a2.052,2.052,0,0,1,.2.48,3.458,3.458,0,0,1-.152.551c-.041.112-.081.217-.112.295-.015.039-.029.07-.039.1s-.009.025-.015.046a.245.245,0,0,0-.012.057c0,.009,0,.035,0,.035l.008.071.019.058.051.082.105.076.125.03,2.256.033h0l2.313,0h1.439l.82,7.994a.73.73,0,0,1-.75.75H15.574a1.322,1.322,0,0,0,.313-.752l0-.027-.85-9.344A.73.73,0,0,1,15.785,12.5Z" class="aw-theme-iconOutline" fill="#464646"/>
    <path id="path73-6" d="M15.787,11.861a.314.314,0,0,0,0,.627c.16,0,.262,0,.3,0s.04,0,.1.065a1.547,1.547,0,0,1,.233.34,1.015,1.015,0,0,1,.113.355.731.731,0,0,1-.752.752.314.314,0,0,0,0,.627H22.6a1.379,1.379,0,0,0,0-2.758Zm1.113.629,5.7.008a.752.752,0,0,1,0,1.5h-5.75a1.325,1.325,0,0,0,.31-.752,1.412,1.412,0,0,0-.18-.641c-.023-.047-.058-.075-.084-.119Z" class="aw-theme-iconOutline" fill="#464646"/>
    <path id="line75-0" d="M16.639,20.393v.625h5.113v-.625Z" class="aw-theme-iconOutline" fill="#464646"/>
    <path id="line77-2" d="M16.426,19.113v.627h5.111v-.627Z" class="aw-theme-iconOutline" fill="#464646"/>
    <path id="line79-9" d="M16.213,17.836v.627h5.111v-.627Z" class="aw-theme-iconOutline" fill="#464646"/>
    <path id="line81-3" d="M16,16.559v.625h2.982v-.625Z" class="aw-theme-iconOutline" fill="#464646"/>
    <path id="rect859-6-6" d="M1.391,22h9.453c.145,0,.262.223.262.5s-.117.5-.262.5H1.391c-.145,0-.263-.223-.263-.5S1.246,22,1.391,22Z" class="aw-theme-iconOutline" fill="#464646"/>
    <path id="rect861-9-7" d="M1.628,1a.5.5,0,0,1,.5.5v21a.5.5,0,0,1-1,0V1.5A.5.5,0,0,1,1.628,1Z" class="aw-theme-iconOutline" fill="#464646"/>
    <path id="rect863-8-2" d="M1.543,1H19.65a.462.462,0,0,1,.414.5.462.462,0,0,1-.414.5H1.543a.462.462,0,0,1-.415-.5A.462.462,0,0,1,1.543,1Z" class="aw-theme-iconOutline" fill="#464646"/>
    <path id="rect865-0" d="M19.186,9.867h.885a.056.056,0,0,1,.057.057v1.33a.057.057,0,0,1-.057.058h-.885a.058.058,0,0,1-.058-.058V9.924A.057.057,0,0,1,19.186,9.867Z" class="aw-theme-iconOutline" fill="#464646"/>
    <path id="rect869-5-6-4" d="M5.164,3.965H18.177a.5.5,0,0,1,0,1H5.164a.5.5,0,0,1,0-1Z" class="aw-theme-iconOutline" fill="#464646"/>
    <path id="rect869-0-5-2" d="M14.756,6.785h4.416a.5.5,0,0,1,0,1H14.756a.5.5,0,0,1,0-1Z" class="aw-theme-iconOutline" fill="#464646"/>
    <path id="path922-5-0" d="M14.736,9.608l-.519.015-.552-.442c-.154-.135-.479-.421-.67-.583-.43-.366-.814-.674-1.241-1.071l-.33-.307-1.163.16c-2.565.354-3.618.517-4.014.631-.1.027-.115.018-.369-.179-.324-.25-.612-.592-.56-.592.021,0,.853-.123,1.85-.273a34.263,34.263,0,0,1,4.524-.6,4.093,4.093,0,0,1,1.036.786c1.257,1.038,2.627,2.38,2.913,2.455L15.45,9.59c-.141,0-.292.012-.669,0Z" class="aw-theme-iconOutline" fill="#464646"/>
    <path id="path996-7" d="M9.376,10.21a8.838,8.838,0,0,1-2.544-.884,5.511,5.511,0,0,1-.952-.583c-.238-.173-.592-.454-.787-.624a4.575,4.575,0,0,1-.68-.71A10.133,10.133,0,0,1,3.4,5.866C2.708,4.724,2.4,4.184,1.745,2.946c-.373-.7-.423-.8-.4-.817s.935-.22.943-.212.18.333.39.729c.666,1.256.935,1.732,1.588,2.811A10.06,10.06,0,0,0,5.182,6.85,6.213,6.213,0,0,0,6.455,8a5.823,5.823,0,0,0,.858.526,9.835,9.835,0,0,0,2.619.833,23.824,23.824,0,0,0,4.321.088,7.507,7.507,0,0,1,.9.008c.42,0,5.535,0,6.233.007,1.158.018.7-.063.788-.088.034-.01-.046-.119-.5-.687-.5-.624-1.125-1.481-1.507-2.08a6.35,6.35,0,0,1-.713-1.529A5.656,5.656,0,0,1,19.133,3.5c-.039-.441-.091-2.035-.064-2.052.006,0,.214,0,.476,0l.5,0,.015,1a12.859,12.859,0,0,0,.094,1.461,10.084,10.084,0,0,0,.412,1.443,4.749,4.749,0,0,0,.363.7c.374.577,1.012,1.451,1.529,2.1l.566.709c.1.121.279.341.407.489a2.7,2.7,0,0,1,.273.369.686.686,0,0,1,.1.176.539.539,0,0,1-.047.329c-.063.127-.266.171-.269.173s-1.556-.025-4.258,0c-.955.009-2.076.01-2.757,0s-.881,0-1.335,0c-1.38.008-1.183-.008-1.232,0-.076.014-1.87.027-2.8-.021A10.662,10.662,0,0,1,9.376,10.21Z" class="aw-theme-iconOutline" fill="#464646"/>
    <path id="rect894" d="M9.534,22H11.24v1H9.534V22Z" class="aw-theme-iconOutline" fill="#464646"/>
  </g>
</svg>
