<svg id="Image" xmlns="http://www.w3.org/2000/svg" viewBox="0 0 24 24">
  <g id="g816">
    <path id="path2" d="M13.826,7.938a1,1,0,0,0-.73-.319h-.29a1.318,1.318,0,0,0-1.323-1.271h-.967A1.318,1.318,0,0,0,9.193,7.619H8.9a1,1,0,0,0-.73.319H5V22H17V7.938Zm-5.213.711V8.611a.285.285,0,0,1,.289-.28h1V7.657a.6.6,0,0,1,.612-.6h.967a.6.6,0,0,1,.612.6v.674h1a.285.285,0,0,1,.29.279h0v.6H8.613Zm7.676,12.64H5.711V8.649H7.9V9.92H14.1V8.649h2.192ZM11,7.7a.356.356,0,1,1-.356.356A.355.355,0,0,1,11,7.7Zm2.312,6.114v1.423h-.356V12.4H11.889V11.328H10.11V12.4H9.043v2.846H8.687V13.818H6.553v3.558H8.687V15.953h.356V18.8H10.11v1.068h1.779V18.8h1.067V15.953h.356v1.423h2.134V13.818ZM7.976,16.664H7.265V14.53h.711Zm2.846-4.624h.356v1.423h-.356Zm.356,7.114h-.356V17.731h.356Zm1.067-1.067h-.356V17.02H10.11v1.067H9.755V15.953h2.49Zm0-2.846H9.755V13.107h.355v1.067h1.779V13.107h.356Zm2.49,1.423h-.712V14.53h.712Z" class="aw-theme-iconOutline" fill="#464646"/>
    <path id="path827" d="M2,.029v24l19.983-.008V6.029h-.009L22,6.015,15.324.039H14.209ZM3.1,1.037H14.212V7.029h6.66V23H3.158ZM15.323,1.5l5.062,4.534H15.322Z" class="aw-theme-iconOutline" fill="#464646"/>
  </g>
</svg>
