<svg id="Image" xmlns="http://www.w3.org/2000/svg" viewBox="0 0 24 24">
  <path d="M17.486,5H4.819a.5.5,0,1,1,0-1H17.486a.5.5,0,0,1,0,1Zm-14.1,8.375H11.5a.5.5,0,0,0,0-1H3.381a.5.5,0,0,0,0,1ZM9.5,15.333H3.381a.5.5,0,1,0,0,1H9.5a.5.5,0,0,0,0-1Zm-1,2.959H3.381a.5.5,0,0,0,0,1H8.5a.5.5,0,0,0,0-1ZM18.569,6.875H14.486a.5.5,0,0,0,0,1h4.083a.5.5,0,0,0,0-1ZM24,17.5a6.49,6.49,0,0,1-10.008,5.464.511.511,0,0,1-.18.036H1.5a.5.5,0,0,1-.5-.5V1.5c0-.011.008-.021.009-.032a.486.486,0,0,1,.05-.187.363.363,0,0,1,.028-.051.483.483,0,0,1,.163-.161l.007-.007h0l.012-.009A.338.338,0,0,1,1.569,1H19.411a.44.44,0,0,1,.089.019.571.571,0,0,1,.1.022.47.47,0,0,1,.059.04.526.526,0,0,1,.1.068.569.569,0,0,1,.04.06.5.5,0,0,1,.066.1.58.58,0,0,1,.019.094.531.531,0,0,1,.019.1c0,.08,0,.3.021.6v.008c.009.143.021.307.038.483l.006.06c.017.169.039.35.066.539,0,.032.009.064.014.1.028.187.062.38.1.577.007.035.016.07.023.1.043.2.093.4.151.6.008.028.018.056.026.085.063.208.133.414.215.613l.021.046a4.725,4.725,0,0,0,.3.6A31.882,31.882,0,0,0,23.6,9.6a.5.5,0,0,1-.378.827H19.905v1.039A6.505,6.505,0,0,1,24,17.5ZM19.405,9.428H22.16a28.854,28.854,0,0,1-2.131-2.994c-.1-.163-.183-.334-.265-.509L19.7,5.8c-.075-.172-.145-.345-.207-.523-.008-.022-.014-.045-.022-.068-.053-.158-.1-.317-.145-.475-.015-.057-.031-.114-.045-.17-.043-.168-.083-.334-.117-.5-.01-.052-.018-.1-.028-.153-.024-.123-.046-.245-.065-.364-.01-.065-.021-.129-.03-.192-.021-.145-.039-.285-.054-.419-.007-.057-.012-.108-.017-.163-.01-.1-.019-.19-.026-.28,0-.048-.008-.1-.011-.14-.009-.119-.015-.228-.02-.325V2H2.3c.375.668.932,1.742,1.817,3.45A7.69,7.69,0,0,0,5.3,7.139l6.327-.963a.5.5,0,0,1,.435.147c.761.786,2.956,2.861,4.053,3.105ZM11.526,7.2,6.26,8a7.3,7.3,0,0,0,4.171,1.425h3.637A23.51,23.51,0,0,1,11.526,7.2ZM2,22h10.82a6.489,6.489,0,0,1,6.084-10.843v-.729H10.453c-.014,0-.054,0-.118,0A8.114,8.114,0,0,1,3.229,5.913C2.7,4.894,2.3,4.129,2,3.546Zm21-4.5A5.5,5.5,0,1,0,17.5,23,5.507,5.507,0,0,0,23,17.5ZM18,14H17v3H14v1h3v3h1V18h3V17H18Z" class="aw-theme-iconOutline" fill="#464646"/>
</svg>
