<svg id="Layer_1" data-name="Layer 1" xmlns="http://www.w3.org/2000/svg" viewBox="0 0 24 24">
  <g id="g1150">
    <path id="path864" d="M12.027,15.974l-4.2-5.725.986-.756L12,13.845l5.682-8.134,1,.734Z" class="aw-theme-iconOutline" fill="#464646"/>
    <path id="rect819" d="M11.5,0h1V6h-1Z" class="aw-theme-iconOutline" fill="#464646"/>
    <path id="rect819-8" d="M0,12.5v-1H6v1Z" class="aw-theme-iconOutline" fill="#464646"/>
    <path id="rect819-8-8" d="M12.5,24h-1V18h1Z" class="aw-theme-iconOutline" fill="#464646"/>
    <path id="rect819-8-8-2" d="M3.887,20.844l-.711-.7L7.4,15.875l.711.7Z" class="aw-theme-iconOutline" fill="#464646"/>
    <path id="rect819-8-8-2-7" d="M20.083,20.866l.711-.7L16.575,15.9l-.711.7Z" class="aw-theme-iconOutline" fill="#464646"/>
    <path id="rect819-8-8-2-7-6" d="M7.371,8.156l.711-.7L3.863,3.187l-.711.7Z" class="aw-theme-iconOutline" fill="#464646"/>
    <path id="rect819-8-8-2-3" d="M7.687,23.214l-.914-.4L9.2,17.321l.914.4Z" class="aw-theme-iconOutline" fill="#464646"/>
    <path id="rect819-8-8-2-7-8" d="M16,23.316l.93-.368L14.719,17.37l-.93.368Z" class="aw-theme-iconOutline" fill="#464646"/>
    <path id="rect819-8-8-2-7-8-5" d="M9.31,6.622l.929-.37L8.02.677l-.929.37Z" class="aw-theme-iconOutline" fill="#464646"/>
    <path id="rect819-8-8-2-7-6-9" d="M1.045,16.927.671,16l5.563-2.246.375.927Z" class="aw-theme-iconOutline" fill="#464646"/>
    <path id="rect819-8-8-2-7-6-9-6" d="M1.026,7.162l-.364.931,5.586,2.188.365-.931Z" class="aw-theme-iconOutline" fill="#464646"/>
    <path id="rect819-8-8-2-7-6-9-6-1" d="M17.792,13.725l-.378.926,5.555,2.269.378-.926Z" class="aw-theme-iconOutline" fill="#464646"/>
  </g>
</svg>
