<svg version="1.1" id="Artwork" xmlns="http://www.w3.org/2000/svg" xmlns:xlink="http://www.w3.org/1999/xlink" x="0px" y="0px"
	 width="24px" height="24px" viewBox="0 0 24 24" enable-background="new 0 0 24 24" xml:space="preserve">
<rect x="9" y="9" class="aw-theme-iconOutline" fill="#464646" width="11" height="1"/>
	<path class="aw-theme-iconOutline" fill="#464646" d="M14.5,0C9.3,0,5,4.3,5,9.5c0,1.9,0.6,3.7,1.6,5.2l-5.9,5.9c-0.7,0.7-0.7,2,0,2.7C1,23.8,1.5,24,2,24
		c0,0,0,0,0,0c0.5,0,1-0.2,1.3-0.6l5.9-6c1.5,1,3.3,1.6,5.2,1.6c5.2,0,9.5-4.3,9.5-9.5S19.7,0,14.5,0z M2.7,22.7
		c-0.2,0.2-0.4,0.3-0.6,0.3h0c-0.2,0-0.5-0.1-0.7-0.3c-0.4-0.4-0.4-0.9,0-1.3l5.8-5.8C7.6,16,8,16.4,8.5,16.8L2.7,22.7z M14.5,18
		C9.8,18,6,14.2,6,9.5S9.8,1,14.5,1S23,4.8,23,9.5S19.2,18,14.5,18z"/>
</svg>
