<svg id="Layer_1" data-name="Layer 1" xmlns="http://www.w3.org/2000/svg" width="80" height="80" viewBox="0 0 80 80">
  <title>grahCircleLoader80</title>
  <path d="M40,80A40,40,0,1,1,80,40,40.045,40.045,0,0,1,40,80ZM40,2A38,38,0,1,0,78,40,38.043,38.043,0,0,0,40,2Z" fill="#e6e6e6"/>
  <path d="M39.994,79.754A40.357,40.357,0,0,1,11.7,68.314a1,1,0,1,1,1.4-1.429,38.7,38.7,0,0,0,53.8,0A38.7,38.7,0,0,0,66.885,13.1a1,1,0,1,1,1.429-1.4,40.716,40.716,0,0,1,0,56.6A40.394,40.394,0,0,1,39.994,79.754Z" fill="#3396b9"/>
</svg>
