<svg version="1.1" id="Livello_2" xmlns="http://www.w3.org/2000/svg" xmlns:xlink="http://www.w3.org/1999/xlink" x="0px" y="0px"
	  viewBox="0 0 24 24" enable-background="new 0 0 24 24" xml:space="preserve">
<path id="path2" class="aw-theme-iconOutline" fill="#464646" d="M1.432,2C0.619,2,0.014,2.693,0.014,3.471C0.014,28.712,0,15.79,0,22h19v-1h-1H1V10.43V9V8V7.699
	h0.004l0.041-4.158c0.004-0.37,0.015-0.545,0.402-0.545h5.551c0.232,0,0.687,0.368,0.803,0.516L9.527,6H18v1.699V8v1v1.43V12h1V5h-9
	L8.416,2.777C8.145,2.407,7.548,2,7.045,2H1.432z"/>
<path id="path2-2" class="aw-theme-iconOutline" fill="#464646" d="M4.5,11c-0.2,0-0.4,0.101-0.5,0.301l-3,7.6l-1,2.26V22h19.5
	c0.2,0,0.4-0.101,0.5-0.301l4-10c0-0.2,0-0.3-0.1-0.5c-0.1-0.1-0.2-0.199-0.4-0.199H4.5z M4.801,12h17.9l-3.5,9h-18L4.801,12z"/>
</svg>
