<svg id="Image" xmlns="http://www.w3.org/2000/svg" viewBox="0 0 63.996 64.003">
  <path d="M41.782,31.789l-3.026.008-.006-2a1,1,0,0,0-1-1h0a1,1,0,0,0-1,1l.006,2-1.493,0,0-2a1,1,0,0,0-1-1h0a1,1,0,0,0-1,1l0,2-1.493,0,0-2.008a1.015,1.015,0,0,0-1-1,1,1,0,0,0-1,1l0,2.009-1.492,0-.006-2.014a1,1,0,0,0-1-1h0a1,1,0,0,0-1,1l.006,2.015-1.493,0-.006-2.02a1,1,0,0,0-1-1h0a1,1,0,0,0-1,1l.006,2.019-3.04.009.064,23.262,22.038-.061ZM21.8,53.106,21.75,33.844l1.069,0a.987.987,0,0,0,.971.855h0a.987.987,0,0,0,.969-.86l1.549,0a.989.989,0,0,0,.972.859h0a.987.987,0,0,0,.97-.865l1.546,0a.989.989,0,0,0,.973.866h0a.989.989,0,0,0,.971-.871l1.546-.005a.989.989,0,0,0,.974.871h0a.989.989,0,0,0,.972-.876l1.543,0a.988.988,0,0,0,.975.876h0a.99.99,0,0,0,.973-.882l1.051,0,.053,19.262Zm1.188-8.033-.006-2,6.809-.018.006,2Zm8.428-1.061.68-.574L33.77,45.4l3.615-4.478.677.543-4.294,5.375ZM22.976,39.36l-.006-2,6.808-.019.006,2ZM31.4,38.3l.681-.574,1.669,1.965,3.616-4.478.676.542-4.294,5.376Zm-8.4,12.489-.006-2,6.809-.018,0,2Zm8.428-1.062.68-.574,1.67,1.965L37.4,46.638l.677.542-4.294,5.375Zm20.58-34.977L49.462,4.255l-26.2,6.378L20.981,7.22a3.307,3.307,0,0,0-2.75-1.472H4.449A3.449,3.449,0,0,0,1,9.2V59.748H63v-45ZM24.437,12.4,47.991,6.671l1.967,8.077.487,2,1.947,8H14.312l-2.27-9.326,10.327-2.514ZM3,9.2A1.451,1.451,0,0,1,4.449,7.748H18.231a1.3,1.3,0,0,1,1.086.581l1.871,2.807L9.625,13.951l2.628,10.8H3ZM61,57.748H3v-31H61Zm0-33H54.451l-1.948-8H61Z" class="aw-theme-iconOutline" fill="#474647"/>
</svg>
