<svg xmlns="http://www.w3.org/2000/svg" viewBox="0 0 63.996 64.003">
  <g id="Verb_Zone">
    <path d="M55,6V1a1,1,0,0,0-2,0V6H47.665V1a1,1,0,0,0-2,0V6H40.331V1a1,1,0,0,0-2,0V6H33V1a1,1,0,1,0-2,0V6H25.664V1a1,1,0,1,0-2,0V6H18.332V1a1,1,0,0,0-2,0V6H11V1A1,1,0,0,0,9,1V6H5V63H59V6Zm2,55H7V8H9v2.5a1,1,0,0,0,2,0V8h5.334v2.5a1,1,0,0,0,2,0V8h5.333v2.5a1,1,0,1,0,2,0V8H31v2.5a1,1,0,1,0,2,0V8h5.333v2.5a1,1,0,0,0,2,0V8h5.334v2.5a1,1,0,0,0,2,0V8H53v2.5a1,1,0,0,0,2,0V8h2ZM32,37H11V35H32Zm-6.682,4H11V39H25.316Zm10.658-5.094,1.671-1.4,4.077,4.825,8.89-10.948,1.654,1.334L41.708,42.857ZM32,23H11V21H32Zm-6.682,4H11V25H25.316Zm10.658-5.094,1.671-1.4,4.077,4.825,8.89-10.948,1.654,1.334L41.708,28.857ZM32,51H11V49H32Zm-6.682,4H11V53H25.316Zm10.658-5.094,1.671-1.4,4.077,4.825,8.89-10.948,1.654,1.334L41.708,56.857Z" class="aw-theme-iconOutline" fill="#474647"/>
  </g>
</svg>
