<svg xmlns="http://www.w3.org/2000/svg" viewBox="0 0 63.996 64.003">
  <g id="Verb_Zone">
    <path d="M20,37H7V35H20Zm0,2H7v2H20Zm8-18H7v2H28Zm-6.682,4H7v2H21.318ZM36.71,46.857,47.268,33.715l-1.654-1.334-8.89,10.948L32.647,38.5l-1.671,1.4Zm25.828,8.616L54.02,46.955a17.014,17.014,0,1,0-7.074,7.069l8.521,8.52a5,5,0,0,0,7.071-7.071ZM45.446,52.524A14.752,14.752,0,1,1,51.5,47.268a14.791,14.791,0,0,1-6.058,5.256ZM61.123,61.13a3.013,3.013,0,0,1-4.242,0L48.7,52.95a17.1,17.1,0,0,0,4.243-4.241l8.179,8.179a3.013,3.013,0,0,1,0,4.242ZM55,30.071V6H51V1a1,1,0,0,0-2,0V6H43.667V1a1,1,0,0,0-2,0V6H36.333V1a1,1,0,0,0-2,0V6H29V1a1,1,0,0,0-2,0V6H21.667V1a1,1,0,0,0-2,0V6H14.333V1a1,1,0,0,0-2,0V6H7V1A1,1,0,0,0,5,1V6H1V63H53.653c-.029-.028-.064-.047-.092-.075L51.636,61H3V8H5v2.5a1,1,0,0,0,2,0V8h5.333v2.5a1,1,0,0,0,2,0V8h5.334v2.5a1,1,0,0,0,2,0V8H27v2.5a1,1,0,0,0,2,0V8h5.333v2.5a1,1,0,0,0,2,0V8h5.334v2.5a1,1,0,0,0,2,0V8H49v2.5a1,1,0,0,0,2,0V8h2V27.149A18.545,18.545,0,0,1,55,30.071ZM23.251,49H7v2H24.736A18.3,18.3,0,0,1,23.251,49ZM7,55H21.318V53H7Z" class="aw-theme-iconOutline" fill="#474647"/>
  </g>
</svg>
