<svg id="Image" xmlns="http://www.w3.org/2000/svg" viewBox="0 0 16 16">
  <g id="g841">
    <path id="rect4" d="M1,1H15V15H1Z" fill="#fff7cd"/>
    <path id="rect819" d="M0,0H1V16H0Z" fill="#db780b"/>
    <path id="rect819-5" d="M15,0h1V16H15Z" fill="#db780b"/>
    <path id="rect836" d="M1,15H15v1H1Z" fill="#db780b"/>
    <path id="rect838" d="M1,0H15V1H1Z" fill="#db780b"/>
    <g id="text827">
      <path id="path830" d="M11.926,5.125a3.908,3.908,0,0,1-.236,1.407,3.109,3.109,0,0,1-.652,1.053,4.685,4.685,0,0,1-1.022.8,8.887,8.887,0,0,1-1.336.644v1.792H5.914V8.174q.558-.149,1.006-.306a3.775,3.775,0,0,0,.951-.511,2.463,2.463,0,0,0,.723-.731,1.708,1.708,0,0,0,.267-.943A1.225,1.225,0,0,0,8.35,4.567a2.537,2.537,0,0,0-1.422-.338,4.041,4.041,0,0,0-1.281.244,5.8,5.8,0,0,0-1.3.629H4.036v-2.4a9.421,9.421,0,0,1,1.548-.44,9.625,9.625,0,0,1,2.122-.236,5,5,0,0,1,3.08.857A2.672,2.672,0,0,1,11.926,5.125ZM8.9,13.966H5.725V11.891H8.9Z" fill="#db780b"/>
    </g>
  </g>
</svg>
