<svg id="svg42" xmlns="http://www.w3.org/2000/svg" viewBox="0 0 16 16">
  <g id="g849">
    <path id="path843" d="M16,8A8,8,0,1,1,8,0,8,8,0,0,1,16,8Z" class="aw-theme-iconOutline" fill="#464646"/>
    <path id="path845" d="M15,8A7,7,0,1,1,8,1,7,7,0,0,1,15,8Z" fill="#eb780a"/>
    <path id="rect843" d="M5.034,4H6.966A.034.034,0,0,1,7,4.034v7.932A.034.034,0,0,1,6.966,12H5.034A.034.034,0,0,1,5,11.966V4.034A.034.034,0,0,1,5.034,4Z" fill="#fff"/>
    <path id="rect845" d="M9.033,4h1.934A.033.033,0,0,1,11,4.033v7.934a.033.033,0,0,1-.033.033H9.033A.033.033,0,0,1,9,11.967V4.033A.033.033,0,0,1,9.033,4Z" fill="#fff"/>
  </g>
</svg>
