<svg id="Image" xmlns="http://www.w3.org/2000/svg" viewBox="0 0 16 16">
  <g>
    <path d="M15.774,12.551,9.041,1.891A1.536,1.536,0,0,0,7.788,1.21a1.453,1.453,0,0,0-1.236.713L.208,12.584A1.46,1.46,0,0,0,1.462,14.79H14.54a1.459,1.459,0,0,0,1.234-2.239Z" fill="#a03228"/>
    <path d="M7.773,2.211a.558.558,0,0,1,.422.214l6.734,10.66a.46.46,0,0,1-.389.7H1.462a.46.46,0,0,1-.395-.695L7.411,2.436a.453.453,0,0,1,.362-.225m.015-1a1.455,1.455,0,0,0-1.236.713L.208,12.584A1.46,1.46,0,0,0,1.462,14.79H14.54a1.459,1.459,0,0,0,1.234-2.239L9.041,1.891A1.536,1.536,0,0,0,7.788,1.21Z" fill="#464646"/>
  </g>
</svg>
