<svg id="svg42" xmlns="http://www.w3.org/2000/svg" viewBox="0 0 16 16">
  <g id="g846">
    <path id="path841" d="M7.421,15.051a7.412,7.412,0,0,1-1.983-.469,7.117,7.117,0,0,1-4.38-5.253A5.705,5.705,0,0,1,.94,7.964,5.715,5.715,0,0,1,1.058,6.6,7.118,7.118,0,0,1,7.4.884a9.6,9.6,0,0,1,1.269,0,7.109,7.109,0,0,1,.106,14.15A12.262,12.262,0,0,1,7.421,15.051Z" fill="#f0f0f0"/>
    <path id="path852" d="M8,0a8,8,0,1,0,8,8A8,8,0,0,0,8,0ZM8,1A7,7,0,1,1,1,8,7,7,0,0,1,8,1Z" class="aw-theme-iconOutline" fill="#464646"/>
  </g>
</svg>
