<svg id="svg42" xmlns="http://www.w3.org/2000/svg" viewBox="0 0 16 16">
  <g id="g849">
    <path id="path843" d="M16,8A8,8,0,1,1,8,0,8,8,0,0,1,16,8Z" class="aw-theme-iconOutline" fill="#464646"/>
    <path id="path845" d="M15,8A7,7,0,1,1,8,1,7,7,0,0,1,15,8Z" fill="#f5f146"/>
    <path id="path853" d="M5.129,2.828a1.254,1.254,0,0,0-.922.545,2.211,2.211,0,0,0-.344,1.048,1.108,1.108,0,0,0-.9.581,1.334,1.334,0,0,0-.129,1.156L3,6.346A1.181,1.181,0,0,0,2.356,7.4a1.156,1.156,0,0,0,.655.966h.028a1.356,1.356,0,0,0-.337.882,1.271,1.271,0,0,0,1.266,1.3H6.587c-.6,1.69-.183,2.6.16,2.99a1.488,1.488,0,0,0,1.111.517A1.228,1.228,0,0,0,8.219,14a.812.812,0,0,0,.589-.679,3.98,3.98,0,0,1,3.018-3.343h.263l.133-.021c.24-.077,1.021-.5,1.021-2.756,0-1.95-.357-2.995-.657-3.171l-.1-.059H11.7a1.373,1.373,0,0,1-.717-.154,10.639,10.639,0,0,0-4.9-.992Zm.212.874h.727a9.518,9.518,0,0,1,4.461.867,2.238,2.238,0,0,0,1.166.279h.446a7.942,7.942,0,0,1,.23,2.352c0,1.381-.319,1.806-.4,1.9h-.14a4.714,4.714,0,0,0-3.857,4.054.508.508,0,0,1-.5-.125c-.174-.144-.555-.853.087-2.485h.007c.044-.111.1-.218.158-.338L8,9.684,3.968,9.667a.4.4,0,0,1-.4-.42.465.465,0,0,1,.442-.458H6.154V7.842L3.67,7.854a.39.39,0,0,1-.442-.369.445.445,0,0,1,.431-.449H5.816V6.158H4.047a.439.439,0,0,1,0-.878H5.8V4.4l-.865.011c-.029-.041-.163-.063-.09-.342A.531.531,0,0,1,5.341,3.7Z" fill="#464646"/>
    <path id="path861" d="M7.7,13.148a.588.588,0,0,1-.339-.29,2.792,2.792,0,0,1,.108-2.033,4.589,4.589,0,0,1,.331-.742c.1-.2.185-.379.187-.388s-.7-.02-2.047-.026a16.026,16.026,0,0,1-2.12-.038.427.427,0,0,1-.207-.189.523.523,0,0,1-.008-.366.609.609,0,0,1,.231-.239c.071-.036.079-.037,1.2-.041l1.126,0V7.833l-1.284.009c-.923.006-1.3,0-1.355-.01a.553.553,0,0,1-.141-.068A.407.407,0,0,1,3.5,7.08a4.6,4.6,0,0,1,1.2-.04l1.126,0V6.16l-.942,0A4.416,4.416,0,0,1,3.875,6.12a.445.445,0,0,1-.017-.794c.069-.036.085-.037,1.011-.042l.942,0V4.4l-.45,0-.451,0-.042-.06c-.036-.051-.04-.072-.032-.163a.5.5,0,0,1,.317-.421c.087-.039.1-.04.579-.04a11.161,11.161,0,0,1,4.626.777,2.38,2.38,0,0,0,1.37.366l.407.009.017.053a7.123,7.123,0,0,1,.211,1.535A12.609,12.609,0,0,1,12.319,8a2.773,2.773,0,0,1-.246.932c-.087.162-.094.169-.193.169a4.216,4.216,0,0,0-1.2.358A4.731,4.731,0,0,0,8,12.934a.633.633,0,0,1-.058.215A.566.566,0,0,1,7.7,13.148Z" fill="#fff" stroke="#fff" stroke-linejoin="round" stroke-width="0.11"/>
  </g>
</svg>
