<svg version="1.1" id="Verb_x5F_Zone" xmlns="http://www.w3.org/2000/svg" xmlns:xlink="http://www.w3.org/1999/xlink" x="0px"
	 y="0px" viewBox="0 0 16 16" enable-background="new 0 0 16 16" xml:space="preserve">
<path id="path5886"  fill="#0F789B" d="M8.219,7.756C4.645,4.344,4.571,4.272,4.6,4.242
	c0.068-0.071,0.475-0.366,0.673-0.488c0.915-0.563,2.003-0.854,3.012-0.811c0.965,0.043,1.857,0.332,2.643,0.859
	c0.281,0.188,0.908,0.787,1.109,1.059c1.154,1.559,1.318,3.625,0.432,5.416c-0.133,0.268-0.367,0.65-0.523,0.857l-0.08,0.104
	L8.219,7.756z"/>
<path id="path3836"  fill="#464646" d="M7,0C4.128,0.363,1.677,2.256,0.588,4.95h1.098
	C2.69,2.827,4.685,1.349,7,1.01V0z M9,0v1.012c2.316,0.338,4.311,1.815,5.316,3.938h1.094C14.322,2.257,11.871,0.364,9,0z
	 M0.072,6.959C0.027,7.292,0.003,7.627,0,7.965c0.003,2.365,1.044,4.609,2.846,6.135l0.676-0.732C1.924,12.031,1,10.053,1,7.965
	c0.003-0.338,0.029-0.674,0.08-1.006H0.072z M14.922,6.959C14.971,7.291,14.998,7.627,15,7.965c-0.004,2.076-0.92,4.047-2.506,5.381
	l0.684,0.742c1.789-1.527,2.82-3.766,2.822-6.123c-0.002-0.337-0.025-0.673-0.07-1.006H14.922z M10.754,14.418
	C9.885,14.797,8.947,14.992,8,14.996c-0.941,0-1.873-0.191-2.738-0.561l-0.711,0.77C5.627,15.727,6.806,15.998,8,16
	c1.203-0.004,2.389-0.279,3.471-0.807L10.754,14.418z"/>
<path id="path4665" fill="#464646" d="M8,2C4.686,2,2,4.687,2,8c0,3.314,2.686,6,6,6c3.314,0,6-2.686,6-6C14,4.687,11.314,2,8,2z
	 M8,3c2.762,0,5,2.238,5,5s-2.238,5-5,5c-2.761,0-5-2.238-5-5S5.239,3,8,3z"/>
<path id="rect4720" fill="#464646" d="M4,4.826l0.694-0.719L12,11.152l-0.695,0.721L4,4.826z"/>
</svg>
