<svg id="svg42" xmlns="http://www.w3.org/2000/svg" viewBox="0 0 16 16">
  <g id="g853">
    <path id="path851" d="M7.837,4.521V.9h.244a7.611,7.611,0,0,1,1.955.33A7.317,7.317,0,0,1,15.18,7.776l.021.363H7.837Z" fill="#f0f0f0"/>
    <path id="path853" d="M7.479,15.1a7.328,7.328,0,0,1-3.816-1.526,9.207,9.207,0,0,1-1.218-1.209A7.548,7.548,0,0,1,.82,8.1L.8,7.709H8.134v7.429l-.2,0c-.107,0-.314-.016-.46-.03Z" fill="#f0f0f0"/>
    <path id="path935" d="M8.005,11.525V7.975H15.1l-.014.324A7.086,7.086,0,0,1,8.2,15.069l-.2.007Z" fill="#464646"/>
    <path id="path933" d="M.908,7.8a7.19,7.19,0,0,1,3.018-5.61,7.419,7.419,0,0,1,1.865-.945A7.286,7.286,0,0,1,7.835.891H8V8H.9Z" fill="#464646"/>
    <path id="path852" d="M8,0a8,8,0,1,0,8,8A8,8,0,0,0,8,0ZM8,1A7,7,0,1,1,1,8,7,7,0,0,1,8,1Z" class="aw-theme-iconOutline" fill="#464646"/>
    <path id="path847" d="M1.837,11.312A7.006,7.006,0,0,1,1,8.105v-.1l3.5,0L8,8V11.38H1.875Z" fill="#f0f0f0" fill-opacity="0"/>
  </g>
</svg>
