<svg id="Image" xmlns="http://www.w3.org/2000/svg" viewBox="0 0 16 16">
  <g id="g860">
    <path id="rect4" d="M1,1H15V15H1Z" fill="#e3faff"/>
    <path id="rect819" d="M0,0H1V16H0Z" fill="#005f87"/>
    <path id="rect819-5" d="M15,0h1V16H15Z" fill="#005f87"/>
    <path id="rect836" d="M1,15H15v1H1Z" fill="#005f87"/>
    <path id="rect838" d="M1,0H15V1H1Z" fill="#005f87"/>
    <path id="rect826" d="M2,7.5h8.027v1H2Z" fill="#005f87"/>
    <path id="rect826-6" d="M10,7.5h4v1H10Z" fill="#005f87"/>
    <path id="rect826-8-9-6-9" d="M2,10.858,5.847,7.667l.648.761L2.648,11.62Z" fill="#005f87"/>
    <path id="rect826-8-9-6-9-5" d="M2,5.121,5.647,8.313,6.3,7.551,2.648,4.359Z" fill="#005f87"/>
    <path id="rect826-8-9-6-9-3" d="M14.059,10.858,10.312,7.667l-.648.761,3.747,3.192Z" fill="#005f87"/>
    <path id="rect826-8-9-6-9-5-6" d="M14.059,5.121,10.312,8.313l-.648-.762,3.747-3.192Z" fill="#005f87"/>
    <path id="rect826-2" d="M7.51,14V5.973h1V14Z" fill="#005f87"/>
    <path id="rect826-6-5" d="M7.51,6V2h1V6Z" fill="#005f87"/>
    <path id="rect826-8-9-6-9-4" d="M10.769,14,7.677,10.353l.762-.648,3.092,3.647Z" fill="#005f87"/>
    <path id="rect826-8-9-6-9-5-4" d="M5.132,14l3.191-3.647-.761-.648L4.37,13.352Z" fill="#005f87"/>
    <path id="rect826-8-9-6-9-3-2" d="M10.869,2.041,7.677,5.688l.762.648,3.192-3.647Z" fill="#005f87"/>
    <path id="rect826-8-9-6-9-5-6-0" d="M5.132,2.041,8.323,5.688l-.761.648L4.37,2.689Z" fill="#005f87"/>
  </g>
</svg>
