<svg id="svg42" xmlns="http://www.w3.org/2000/svg" viewBox="0 0 16 16">
  <g id="g849">
    <path id="path843" d="M7.552,15.156a7.644,7.644,0,0,1-2.042-.484A7.335,7.335,0,0,1,1,9.261,5.929,5.929,0,0,1,.877,7.855,5.948,5.948,0,0,1,1,6.448a7.34,7.34,0,0,1,1.421-3.1l.12-.151.1.095c.073.07,8.708,8.563,10.124,9.958l.181.179-.179.142a7.28,7.28,0,0,1-3.818,1.571,12.767,12.767,0,0,1-1.395.018Z" fill="#f0f0f0"/>
    <path id="path891" d="M8.3,7.7,3.144,2.66l.095-.085a7.881,7.881,0,0,1,.832-.6A7.335,7.335,0,0,1,7.232.915,10.049,10.049,0,0,1,8.96.958a7.294,7.294,0,0,1,3.685,1.67,9.279,9.279,0,0,1,.943.969,7.455,7.455,0,0,1,1.324,2.572,7.179,7.179,0,0,1-1.028,6.047,3.781,3.781,0,0,1-.416.525C13.459,12.741,11.132,10.472,8.3,7.7Z" fill="#0f789b"/>
    <path id="path852" d="M8,0a8,8,0,1,0,8,8A8,8,0,0,0,8,0ZM8,1A7,7,0,1,1,1,8,7,7,0,0,1,8,1Z" class="aw-theme-iconOutline" fill="#464646"/>
    <path id="rect4720-1" d="M2.438,3.357,3.21,2.54,13.4,12.568l-.771.817Z" fill="#464646"/>
  </g>
</svg>
