<svg version="1.1" xmlns="http://www.w3.org/2000/svg" xmlns:xlink="http://www.w3.org/1999/xlink" x="0px" y="0px"
	 viewBox="0 0 16 16" enable-background="new 0 0 16 16" xml:space="preserve">

	<path fill="#AF463C" d="M7.518,0.642L0.318,14.774c-0.08,0.169-0.08,0.395,0,0.564c0.107,0.169,0.267,0.282,0.453,0.282
		H15.17c0.187,0,0.373-0.113,0.453-0.282c0.08-0.169,0.107-0.367,0-0.564L8.451,0.642c-0.107-0.197-0.267-0.31-0.48-0.31
		S7.624,0.445,7.518,0.642L7.518,0.642z"/>
	<rect x="7.25" y="5" fill="#FFFFFF" width="1.5" height="6"/>
	<circle fill="#FFFFFF" cx="8" cy="13" r="1"/>

		<path class="aw-theme-iconOutline" fill="#464646" d="M14.863,16H1.137c-0.405,0-0.77-0.221-0.977-0.592c-0.206-0.371-0.214-0.817-0.02-1.195v-0.001
			L7.125,0.628C7.326,0.237,7.713,0.005,8.131,0c0.419,0.003,0.8,0.251,0.996,0.644l6.741,13.584
			c0.188,0.378,0.176,0.822-0.032,1.188C15.628,15.782,15.265,16,14.863,16z M1.451,14.81l13.06,0.016
			c0.16,0,0.263-0.18,0.188-0.331L8.334,1.566c-0.079-0.16-0.293-0.162-0.375-0.004L1.265,14.475
			C1.187,14.626,1.289,14.81,1.451,14.81z"/>

</svg>
