<svg id="svg42" xmlns="http://www.w3.org/2000/svg" viewBox="0 0 16 16">
  <g id="g847">
    <path id="path843" d="M16,8A8,8,0,1,1,8,0,8,8,0,0,1,16,8Z" class="aw-theme-iconOutline" fill="#464646"/>
    <path id="path845" d="M15,8A7,7,0,1,1,8,1,7,7,0,0,1,15,8Z" fill="#147391"/>
    <path id="path836" d="M3.371,8.411c.621-.613.433-.437.953-.946,2.737,2.592,1.289,1.246,3.075,2.9,2.012-3.389,2.243-3.8,4.08-6.777.555.327.591.344,1.1.616C11.188,6.515,7.93,11.938,7.51,12.608,5.458,10.529,3.526,8.584,3.371,8.411Z" fill="#fff"/>
  </g>
</svg>
