<svg id="svg42" xmlns="http://www.w3.org/2000/svg" viewBox="0 0 16 16">
  <g id="g845">
    <path id="path852" d="M8,0a8,8,0,1,0,8,8A8,8,0,0,0,8,0ZM8,1A7,7,0,1,1,1,8,7,7,0,0,1,8,1Z" class="aw-theme-iconOutline" fill="#464646"/>
    <path id="path912" d="M7.265,15.105a7.183,7.183,0,0,1-6.4-8.138A7.181,7.181,0,0,1,7.329.828a9.762,9.762,0,0,1,1.28,0,7.185,7.185,0,0,1,6.477,6.258,9.887,9.887,0,0,1,0,1.763,7.189,7.189,0,0,1-5.608,6.129,5.769,5.769,0,0,1-1.407.141C7.728,15.122,7.365,15.116,7.265,15.105Z" fill="#464646"/>
  </g>
</svg>
