<svg id="Layer_1" data-name="Layer 1" xmlns="http://www.w3.org/2000/svg" viewBox="0 0 16 16">
  <g id="g926">
    <path id="rect4" d="M1,1H15V15H1Z" fill="#e3faff"/>
    <path id="rect819" d="M0,0H1V16H0Z" fill="#005f87"/>
    <path id="rect819-5" d="M15,0h1V16H15Z" fill="#005f87"/>
    <path id="rect836" d="M1,15H15v1H1Z" fill="#005f87"/>
    <path id="rect838" d="M1,0H15V1H1Z" fill="#005f87"/>
    <path id="rect876" d="M5.846,2A3.837,3.837,0,0,0,2,5.846V8.154A3.837,3.837,0,0,0,5.846,12l1.059,1.978.016.053L9.077,12h1.077A3.837,3.837,0,0,0,14,8.154V5.846A3.837,3.837,0,0,0,10.154,2Zm.23,1H9.924A3.069,3.069,0,0,1,13,6.076V7.924A3.069,3.069,0,0,1,9.924,11H8.962L7.209,12.672l.007-.018L6.538,11H6.076A3.069,3.069,0,0,1,3,7.924V6.076A3.069,3.069,0,0,1,6.076,3Z" fill="#005f87"/>
    <path id="rect894" d="M5.5,5h5a.5.5,0,0,1,0,1h-5a.5.5,0,0,1,0-1Z" fill="#005f87"/>
    <path id="rect894-5" d="M5.5,8h3a.5.5,0,0,1,0,1h-3a.5.5,0,0,1,0-1Z" fill="#005f87"/>
  </g>
</svg>
