<svg id="svg13" xmlns="http://www.w3.org/2000/svg" viewBox="0 0 16 16">
  <g id="g838">
    <path id="path2" d="M.78,7.479H9.366v5.934c0,.383-.137.5-.533.5H1.062c-.395,0-.395-.055-.395-.438l.113-6Z" fill="#3c91af"/>
    <path id="rect4" d="M4.683,9.04h.78v3.122h-.78Z" class="aw-theme-iconOutline" fill="#464646"/>
    <path id="path8" d="M12.1,2.016a3.9,3.9,0,0,0-3.9,3.9V6.7H0v6.634A1.171,1.171,0,0,0,1.171,14.5H8.976a1.172,1.172,0,0,0,1.17-1.171V6.7H8.976V5.918a3.122,3.122,0,0,1,6.243-.112c0,.038,0,.075,0,.112V6.7H16V5.918a3.9,3.9,0,0,0-3.9-3.9ZM9.366,7.479v5.854a.392.392,0,0,1-.39.39H1.171a.391.391,0,0,1-.39-.39h0V7.479Z" class="aw-theme-iconOutline" fill="#464646"/>
  </g>
</svg>
