<svg id="svg8" xmlns="http://www.w3.org/2000/svg" viewBox="0 0 16 16">
  <g id="layer1">
    <g id="g840">
      <path id="path821-8" d="M14.122,9.48,11.029,7.294,7.954,9.505,9.077,5.887,6.024,3.646,9.811,3.6,11,0l1.217,3.587,3.788.019L12.97,5.872Z" class="aw-theme-iconOutline" fill="#464646"/>
      <path id="rect817" d="M0,1H9V2H0Z" class="aw-theme-iconOutline" fill="#464646"/>
      <path id="path821" d="M13.081,8.066,11.01,6.6,8.951,8.083,9.7,5.661l-2.044-1.5L10.2,4.126l.8-2.407.815,2.4,2.536.011L12.309,5.648Z" fill="#ffcd50"/>
      <path id="rect823" d="M0,1.972H1V16H0Z" class="aw-theme-iconOutline" fill="#464646"/>
      <path id="rect825" d="M0,15H16v1H0Z" class="aw-theme-iconOutline" fill="#464646"/>
      <path id="rect827" d="M15,8.95h1v6.2H15Z" class="aw-theme-iconOutline" fill="#464646"/>
    </g>
  </g>
</svg>
