<svg id="svg42" xmlns="http://www.w3.org/2000/svg" viewBox="0 0 16 16">
  <g id="g849">
    <path id="path843" d="M15.8,7.937A7.75,7.75,0,1,1,8.047.187,7.75,7.75,0,0,1,15.8,7.937Z" fill="#f0f0f0"/>
    <path id="path852" d="M8,0a8,8,0,1,0,8,8A8,8,0,0,0,8,0ZM8,1A7,7,0,1,1,1,8,7,7,0,0,1,8,1Z" class="aw-theme-iconOutline" fill="#464646"/>
    <path id="path955" d="M5.1,10.884,2.178,8,5.1,5.115C6.7,3.529,8.023,2.234,8.033,2.238,8.082,2.26,13.747,7.982,13.74,8s-5.329,5.386-5.608,5.652l-.118.113Z" fill="#f5f146"/>
    <path id="rect937" d="M8,1,1,8,8,15l7-7ZM8,2.3,13.6,8,8,13.7,2.3,8Z" fill="#464646"/>
  </g>
</svg>
