<svg id="svg42" xmlns="http://www.w3.org/2000/svg" viewBox="0 0 16 16">
  <g id="g849">
    <path id="path843" d="M16,8A8,8,0,1,1,8,0,8,8,0,0,1,16,8Z" class="aw-theme-iconOutline" fill="#464646"/>
    <path id="path845" d="M15,8A7,7,0,1,1,8,1,7,7,0,0,1,15,8Z" fill="#eb780a"/>
    <path id="rect845" d="M3.675,4.418l.649-.66a.047.047,0,0,1,.066,0l7.894,7.83a.048.048,0,0,1,0,.067l-.649.659a.047.047,0,0,1-.067,0L3.675,4.484A.046.046,0,0,1,3.675,4.418Z" fill="#fff"/>
    <path id="rect845-6" d="M12.312,4.463l-.65-.659a.046.046,0,0,0-.066,0L3.7,11.634a.046.046,0,0,0,0,.066l.65.66a.046.046,0,0,0,.066,0l7.893-7.83A.047.047,0,0,0,12.312,4.463Z" fill="#fff"/>
  </g>
</svg>
