<svg version="1.1" id="Image" xmlns="http://www.w3.org/2000/svg" xmlns:xlink="http://www.w3.org/1999/xlink" x="0px" y="0px"
	 viewBox="0 0 16 16" style="enable-background:new 0 0 16 16;" xml:space="preserve">
<style type="text/css">
	.st0{fill:#EB780A;}
	.st1{fill:#464646;}
</style>
<g>
	<path class="st0" d="M15.8,12.6L9,1.9C8.8,1.5,8.3,1.2,7.8,1.2c-0.5,0-1,0.3-1.2,0.7L0.2,12.6c-0.4,0.7-0.2,1.6,0.5,2
		c0.2,0.1,0.5,0.2,0.7,0.2h13.1c0.8,0,1.5-0.7,1.5-1.5C16,13.1,15.9,12.8,15.8,12.6z"/>
	<path class="st1" d="M7.8,2.2c0.2,0,0.3,0.1,0.4,0.2l6.7,10.7c0.1,0.2,0.1,0.5-0.2,0.6c-0.1,0-0.2,0.1-0.2,0.1H1.5
		c-0.3,0-0.5-0.2-0.5-0.5c0-0.1,0-0.2,0.1-0.2L7.4,2.4C7.5,2.3,7.6,2.2,7.8,2.2 M7.8,1.2c-0.5,0-1,0.3-1.2,0.7L0.2,12.6
		c-0.4,0.7-0.2,1.6,0.5,2c0.2,0.1,0.5,0.2,0.7,0.2h13.1c0.8,0,1.5-0.7,1.5-1.5c0-0.3-0.1-0.5-0.2-0.8L9,1.9C8.8,1.5,8.3,1.2,7.8,1.2
		L7.8,1.2z"/>
</g>
</svg>
