<svg id="Image" xmlns="http://www.w3.org/2000/svg" viewBox="0 0 16 16">
  <g id="g850">
    <path id="rect4" d="M1,1H15V15H1Z" fill="#fff7cd"/>
    <path id="rect819" d="M0,0H1V16H0Z" fill="#db780b"/>
    <path id="rect819-5" d="M15,0h1V16H15Z" fill="#db780b"/>
    <path id="rect836" d="M1,15H15v1H1Z" fill="#db780b"/>
    <path id="rect838" d="M1,0H15V1H1Z" fill="#db780b"/>
    <path id="rect825" d="M12,3h1V13H12Z" fill="#db780b"/>
    <g id="g868">
      <path id="rect827" d="M6.984,3.729l.746-.743,4.279,5-.746.743Z" fill="#db780b"/>
      <path id="rect827-0" d="M6.988,12.264l.744.742,4.268-5-.744-.742Z" fill="#db780b"/>
    </g>
    <g id="g864">
      <path id="rect827-9" d="M2.719,3.729l.747-.743,4.28,5L7,8.729Z" fill="#db780b"/>
      <path id="rect827-0-7" d="M2.723,12.264l.744.742,4.271-5-.745-.742Z" fill="#db780b"/>
    </g>
  </g>
</svg>
