<svg id="Image" xmlns="http://www.w3.org/2000/svg" viewBox="0 0 16 16">
  <g id="g833">
    <path id="rect4" d="M1,1H15V15H1Z" fill="#edfbf5"/>
    <path id="path836" d="M3.747,8.434c.637-.657.227-.252.762-.8,2.5,2.659,1.555,1.647,3.274,3.474C9.85,7.474,10.37,6.45,12.257,3.257c.494.365.441.3.956.661C11.779,6.4,8.432,12.219,8,12.937,5.891,10.706,3.906,8.619,3.747,8.434Z" fill="#0b9b01"/>
    <path id="rect819" d="M0,0H1V16H0Z" fill="#0b9b01"/>
    <path id="rect819-5" d="M15,0h1V16H15Z" fill="#0b9b01"/>
    <path id="rect836" d="M1,15H15v1H1Z" fill="#0b9b01"/>
    <path id="rect838" d="M1,0H15V1H1Z" fill="#0b9b01"/>
  </g>
</svg>
