<svg id="Image" xmlns="http://www.w3.org/2000/svg" xmlns:xlink="http://www.w3.org/1999/xlink" viewBox="0 0 16 16">
  <defs>
    <linearGradient id="linear-gradient" x1="-4.164" y1="37.227" x2="7.542" y2="25.532" gradientTransform="translate(17.139 -34.818) scale(1.054 1.071)" gradientUnits="userSpaceOnUse">
      <stop offset="0" stop-color="#afd7e1"/>
      <stop offset="1" stop-color="#54a4bc"/>
    </linearGradient>
  </defs>
  <g id="g820">
    <path id="path838" d="M2.306,13.7c0-1.5.055-1.922.116-1.9a5.091,5.091,0,0,0,1.247.043A1.891,1.891,0,0,0,5.405,9.88a2.1,2.1,0,0,0-.244-1.07c-.21-.442-.473-.526-.914-.736a3.278,3.278,0,0,0-.506-.193,4.463,4.463,0,0,0-1.146-.2l-.213.03L2.255,6.091,2.331,4.32,4.41,4.3c1.928-.024,1.658.053,1.778-.2.07-.147.065-.175-.1-.618a2.512,2.512,0,0,1-.2-1.11A3.153,3.153,0,0,1,7.453.582,2.024,2.024,0,0,1,8.6.5a2.06,2.06,0,0,1,1.2.378,2.472,2.472,0,0,1,1.189,2.65c-.135.376-.148.482-.075.622.112.216-.133.122,1.322.122h1.313l.254,5.574-.2,5.649H8.057l-5.675.026Z" fill="url(#linear-gradient)"/>
    <path id="path825" d="M8.566,0A3.048,3.048,0,0,0,5.43,2.958c0,.03,0,.06,0,.089a2.951,2.951,0,0,0,.09.737H2.381A.382.382,0,0,0,2,4.165H2V8.28a.382.382,0,0,0,.579.326,1.5,1.5,0,0,1,.784-.225,1.524,1.524,0,0,1,0,3.048,1.5,1.5,0,0,1-.784-.228.383.383,0,0,0-.524.127.387.387,0,0,0-.055.2v4.092A.382.382,0,0,0,2.381,16H13.909a.281.281,0,0,0,.282-.281V4.164a.381.381,0,0,0-.381-.381H11.43a2.947,2.947,0,0,0,.094-.736A3.048,3.048,0,0,0,8.566,0ZM8.409.763a2.286,2.286,0,0,1,2.352,2.218c0,.022,0,.044,0,.066A2.277,2.277,0,0,1,10.545,4a.382.382,0,0,0,.346.541h2.538V15.238H2.762V12.107a2.224,2.224,0,0,0,.6.083,2.286,2.286,0,1,0,0-4.571,2.22,2.22,0,0,0-.6.08V4.545h3.3A.381.381,0,0,0,6.408,4a2.247,2.247,0,0,1-.217-.957A2.285,2.285,0,0,1,8.409.763Z" class="aw-theme-iconOutline" fill="#464646"/>
  </g>
</svg>
