<svg id="svg42" xmlns="http://www.w3.org/2000/svg" viewBox="0 0 16 16">
  <g id="g849">
    <path id="path910" d="M.889,7.466A7.188,7.188,0,0,1,7.382.933a9.732,9.732,0,0,1,1.278,0,7.173,7.173,0,0,1,6.216,5.093,7.889,7.889,0,0,1,.28,1.49v.063H.878Z" fill="#00c800"/>
    <path id="path843" d="M7.314,15.156A7.268,7.268,0,0,1,.85,9.2a7.927,7.927,0,0,1-.111-.822V8.313h14.41l-.011.061c-.006.034-.018.131-.025.217a7.633,7.633,0,0,1-.329,1.542A7.267,7.267,0,0,1,8.69,15.138a12.419,12.419,0,0,1-1.376.018Z" fill="#f0f0f0"/>
    <path id="path852" d="M8,0a8,8,0,1,0,8,8A8,8,0,0,0,8,0ZM8,1A7,7,0,1,1,1,8,7,7,0,0,1,8,1Z" class="aw-theme-iconOutline" fill="#464646"/>
    <path id="rect908" d="M.5,7.5h15v1H.5Z" fill="#464646"/>
  </g>
</svg>
