<svg id="svg8" xmlns="http://www.w3.org/2000/svg" viewBox="0 0 16 16">
  <g id="layer1">
    <g id="g891">
      <path id="rect864" d="M0,0H16V1H0Z" class="aw-theme-iconOutline" fill="#464646"/>
      <path id="rect864-5" d="M0,4H15V5H0Z" class="aw-theme-iconOutline" fill="#464646"/>
      <path id="rect881" d="M0,0H1V16H0Z" class="aw-theme-iconOutline" fill="#464646"/>
      <path id="rect881-4" d="M15,0h1V6.106H15Z" class="aw-theme-iconOutline" fill="#464646"/>
      <path id="rect864-5-7" d="M0,15.048H5.837v1H0Z" class="aw-theme-iconOutline" fill="#464646"/>
      <path id="rect864-5-3" d="M2,7H3.937V8H2Z" class="aw-theme-iconOutline" fill="#464646"/>
      <path id="rect864-5-3-0" d="M2,10H3.469v1H2Z" class="aw-theme-iconOutline" fill="#464646"/>
      <path id="rect864-5-3-0-1-0" d="M13,2h1V3H13Z" class="aw-theme-iconOutline" fill="#464646"/>
      <path id="rect864-5-3-0-1-0-4" d="M11,2h1V3H11Z" class="aw-theme-iconOutline" fill="#464646"/>
      <path id="rect864-5-3-0-1-0-4-1" d="M9,2h1V3H9Z" class="aw-theme-iconOutline" fill="#464646"/>
      <path id="path837" d="M16,10a6,6,0,1,1-6-6A6,6,0,0,1,16,10Z" class="aw-theme-iconOutline" fill="#464646"/>
      <path id="path1424" d="M9.315,14.957a5.087,5.087,0,0,1-4.25-5.684A4.984,4.984,0,0,1,13.394,6.35a5.076,5.076,0,0,1,1.369,2.113,5.154,5.154,0,0,1,.044,2.942,5.415,5.415,0,0,1-2.173,2.831,5.248,5.248,0,0,1-3.319.721Z" fill="#eb780a"/>
      <path id="rect864-5-3-0-3" d="M2,13H4.406v1H2Z" class="aw-theme-iconOutline" fill="#464646"/>
      <path id="path830-1-2" d="M10,5.978,8.131,8.538l-.805,1.1H8.439L9,8.827l.99-1.42.986,1.42.567.813h1.127l-.8-1.1Z" fill="#fff"/>
      <path id="path830-1-76" d="M10.006,9.418,8.137,11.979l-.805,1.1H8.445l.565-.812.99-1.42.986,1.42.567.812H12.68l-.8-1.1Z" fill="#fff"/>
    </g>
  </g>
</svg>
