<svg id="Image" xmlns="http://www.w3.org/2000/svg" viewBox="0 0 16 16">
  <g id="g823">
    <path id="path2" d="M15.728,12.52,9.224,1.86A1.493,1.493,0,0,0,7.99,1.179a1.471,1.471,0,0,0-1.24.713L.257,12.553a1.452,1.452,0,0,0,.471,2,1.434,1.434,0,0,0,.737.205h13A1.486,1.486,0,0,0,15.939,13.3,1.442,1.442,0,0,0,15.728,12.52Z" fill="#eb780a"/>
    <path id="path4" d="M8.005,1.18a1.475,1.475,0,0,0-1.24.713L.271,12.553a1.452,1.452,0,0,0,.473,2,1.433,1.433,0,0,0,.737.2h13A1.484,1.484,0,0,0,15.953,13.3a1.449,1.449,0,0,0-.21-.78L9.239,1.86A1.492,1.492,0,0,0,8.005,1.18Zm-.032,1a.541.541,0,0,1,.416.215L14.9,13.055a.467.467,0,0,1-.164.632.461.461,0,0,1-.237.067H1.5a.449.449,0,0,1-.451-.459.46.46,0,0,1,.069-.236L7.608,2.4A.461.461,0,0,1,7.973,2.18Z" class="aw-theme-iconOutline" fill="#464646"/>
    <path id="rect827" d="M7.228,8.018H8.771V13H7.228Z" fill="#fff"/>
    <path id="path831" d="M8,4.5,9.113,6.261l1.113,1.763H5.774L6.887,6.261Z" fill="#fff"/>
  </g>
</svg>
