<svg id="Image" xmlns="http://www.w3.org/2000/svg" viewBox="0 0 16 16">
  <g id="g834">
    <path id="rect4" d="M1,1H15V15H1Z" fill="#fbeeed"/>
    <path id="rect819" d="M0,0H1V16H0Z" fill="#dc0000"/>
    <path id="rect819-5" d="M15,0h1V16H15Z" fill="#dc0000"/>
    <path id="rect836" d="M1,15H15v1H1Z" fill="#dc0000"/>
    <path id="rect838" d="M1,0H15V1H1Z" fill="#dc0000"/>
    <path id="path2" d="M13.607,4.246H10.62V3.573A1.148,1.148,0,0,0,9.5,2.453H6.514a1.148,1.148,0,0,0-1.12,1.12v.673H2.407v.747h.747l.3,7.062a1.207,1.207,0,0,0,1.2,1.045h6.72a1.085,1.085,0,0,0,1.12-1.045l.373-7.062h.747ZM6.14,3.573A.353.353,0,0,1,6.514,3.2H9.5a.353.353,0,0,1,.374.373v.673H6.14Zm5.6,8.407a.352.352,0,0,1-.373.373H4.647a.353.353,0,0,1-.374-.373L3.9,4.993h8.214Z" fill="#dc0000"/>
    <path id="polygon4" d="M6,6.015,6.231,11.4H7L6.769,6.015Z" fill="#dc0000"/>
    <path id="polygon4-9" d="M9,11.4,9.231,6H10l-.231,5.4Z" fill="#dc0000"/>
  </g>
</svg>
