<svg version="1.1" id="Livello_2" xmlns="http://www.w3.org/2000/svg" xmlns:xlink="http://www.w3.org/1999/xlink" x="0px" y="0px"
	  viewBox="0 0 24 24" enable-background="new 0 0 24 24" xml:space="preserve">
<path id="path829"  fill="#AF463C" d="M3.463,22.068c-1.029-0.178-1.771-1.096-1.715-2.125
	c0.019-0.34,0.049-0.445,0.328-1.133c0.226-0.556,0.674-1.467,2.174-4.423c0.24-0.473,1.353-2.715,2.473-4.982
	c2.418-4.896,3.405-6.863,3.539-7.049c0.139-0.194,0.301-0.361,0.476-0.488l0.151-0.109h1.031h1.03l0.126,0.086
	c0.167,0.113,0.345,0.291,0.483,0.483c0.063,0.086,0.354,0.641,0.647,1.232s0.546,1.093,0.563,1.113
	c0.064,0.08,6.168,12.452,6.408,12.991c0.141,0.314,0.382,0.824,0.536,1.133c0.353,0.705,0.388,0.833,0.37,1.318
	c-0.01,0.275-0.023,0.375-0.076,0.537c-0.207,0.64-0.682,1.121-1.32,1.34l-0.233,0.08l-8.465,0.004
	C7.333,22.077,3.497,22.074,3.463,22.068L3.463,22.068z M3.758,17.639c0-0.02-0.004-0.039-0.009-0.039s-0.016,0.016-0.024,0.039
	c-0.008,0.019-0.003,0.039,0.01,0.039S3.758,17.662,3.758,17.639z"/>
<path id="rect820-3"  fill="#464646" d="M12,1c-1.299,0.002-2.449,0.839-2.85,2.074L1.439,18.443
	C1.153,18.912,1.001,19.451,1,20c0,1.657,1.343,3,3,3l0,0h16c1.656,0,3-1.343,3-3l0,0c-0.002-0.34-0.061-0.676-0.174-0.996
	L22.844,19l-0.07-0.139c-0.054-0.13-0.116-0.256-0.188-0.377L14.84,3.042C14.429,1.822,13.286,1.001,12,1L12,1z M11.967,2
	C11.979,2,11.988,2,12,2c0.769,0.001,1.469,0.443,1.801,1.137h0.012L14.791,5.1c0.002-0.006,0.005-0.012,0.008-0.019l6.039,12.041
	c-0.005-0.001-0.01-0.003-0.014-0.004l0.617,1.342l0.205,0.408C21.876,19.201,22,19.596,22,20.001c0,1.104-0.896,2-2,2l0,0h-2.232
	H6.23H4c-1.104,0-2-0.896-2-2l0,0c0.001-0.3,0.07-0.596,0.201-0.865l-0.002-0.002l0.105-0.254l-0.004-0.002l0.268-0.637H2.566
	l1.652-3.24l0.01,0.004l4.4-8.773L8.621,6.228l1.67-3.283l0.01,0.007c0.357-0.579,0.985-0.937,1.666-0.949V2z M11.219,5.838
	c-0.002,0.004-0.003,0.008-0.004,0.012c0,0.007,0.002,0.015,0.002,0.022c0.002,0,0.002-0.001,0.004-0.002
	c0.001-0.008,0.003-0.015,0.004-0.026c-0.002-0.001-0.004-0.002-0.006-0.004V5.838z M4,17.631l-0.041,0.082c0.005,0,0.01,0,0.016,0
	C3.984,17.674,3.994,17.648,4,17.631z M20,17.705v0.049c0-0.008-0.001-0.016,0.002-0.022v-0.002c0-0.002-0.002-0.004,0-0.008
	c0.004-0.002,0,0.002,0.004,0l0.002-0.002L20,17.705z"/>
<path id="circle6-3" fill="#FFFFFF" d="M12.758,18.242c0,0.414-0.336,0.75-0.75,0.75s-0.75-0.336-0.75-0.75s0.336-0.75,0.75-0.75
	S12.758,17.828,12.758,18.242z"/>
<path id="rect4-7" fill="#FFFFFF" d="M11.508,5.992h1v10h-1V5.992z"/>
</svg>
