<svg id="Image" xmlns="http://www.w3.org/2000/svg" viewBox="0 0 16 16">
  <g>
    <circle cx="8" cy="8" r="5" fill="#14915a"/>
    <path d="M8,4A4,4,0,1,1,4,8,4,4,0,0,1,8,4M8,3a5,5,0,1,0,5,5A5,5,0,0,0,8,3Z" fill="#4e4a48"/>
  </g>
  <g>
    <path d="M12,1a2.991,2.991,0,0,1,.857,5.86,4.943,4.943,0,0,1,.129,1A3.992,3.992,0,1,0,8.137,3.014a4.943,4.943,0,0,1,1,.129A3,3,0,0,1,12,1Z" fill="#4e4a48"/>
    <path d="M1,4a2.991,2.991,0,0,1,5.86-.857,4.943,4.943,0,0,1,1-.129A3.992,3.992,0,1,0,3.014,7.863a4.943,4.943,0,0,1,.129-1A3,3,0,0,1,1,4Z" fill="#4e4a48"/>
    <path d="M12.986,8.137a4.943,4.943,0,0,1-.129,1A2.991,2.991,0,1,1,9.14,12.857a4.943,4.943,0,0,1-1,.129,3.992,3.992,0,1,0,4.849-4.849Z" fill="#4e4a48"/>
    <path d="M4,15a2.991,2.991,0,0,1-.857-5.86,4.943,4.943,0,0,1-.129-1,3.992,3.992,0,1,0,4.849,4.849,4.943,4.943,0,0,1-1-.129A3,3,0,0,1,4,15Z" fill="#4e4a48"/>
  </g>
</svg>
