<svg version="1.1" id="Livello_3" xmlns="http://www.w3.org/2000/svg" xmlns:xlink="http://www.w3.org/1999/xlink" x="0px" y="0px"
	  viewBox="0 0 16 16" enable-background="new 0 0 16 16" xml:space="preserve">
<path id="path5886"  fill="#01C800" d="M8.03,7.703c-4.941,0-5.043-0.002-5.043-0.043
	c0-0.1,0.09-0.594,0.149-0.818c0.273-1.038,0.858-2,1.62-2.666C5.484,3.539,6.329,3.134,7.26,2.973c0.333-0.058,1.201-0.058,1.535,0
	c1.91,0.33,3.455,1.711,4.051,3.619c0.089,0.285,0.184,0.724,0.213,0.981l0.015,0.13H8.03z"/>
<path id="path3836"  fill="#464646" d="M7,0C4.128,0.363,1.677,2.256,0.588,4.95h1.098
	C2.69,2.827,4.685,1.349,7,1.01V0z M9,0v1.012c2.316,0.338,4.311,1.815,5.316,3.938h1.094C14.322,2.257,11.871,0.364,9,0z
	 M0.072,6.959C0.027,7.292,0.003,7.627,0,7.964c0.003,2.366,1.044,4.61,2.846,6.135l0.676-0.731C1.924,12.031,1,10.052,1,7.964
	c0.003-0.337,0.029-0.673,0.08-1.005H0.072z M14.922,6.959c0.05,0.332,0.076,0.668,0.078,1.005c-0.003,2.077-0.92,4.048-2.506,5.382
	l0.684,0.741c1.789-1.526,2.821-3.765,2.822-6.123c-0.002-0.336-0.025-0.672-0.07-1.005H14.922z M10.754,14.418
	C9.885,14.796,8.947,14.992,8,14.996c-0.941-0.001-1.873-0.191-2.738-0.562l-0.711,0.771C5.627,15.726,6.806,15.997,8,16
	c1.203-0.004,2.389-0.279,3.471-0.807L10.754,14.418z"/>
<path id="path4665" fill="#464646" d="M8,2C4.686,2,2,4.687,2,8s2.686,6,6,6c3.314,0,6-2.687,6-6S11.314,2,8,2z M8,3
	c2.762,0,5,2.238,5,5s-2.238,5-5,5c-2.761,0-5-2.238-5-5S5.239,3,8,3z"/>
<path id="rect4720" fill="#464646" d="M2.925,8.5v-1h10.149v1H2.925z"/>
</svg>
