<svg id="Image" xmlns="http://www.w3.org/2000/svg" viewBox="0 0 16 16">
  <g>
    <path d="M11.516,16A4.484,4.484,0,1,1,16,11.516,4.484,4.484,0,0,1,11.516,16Zm0-8.278a3.794,3.794,0,1,0,3.794,3.794A3.793,3.793,0,0,0,11.516,7.722Zm.321,2.26V8.257a.345.345,0,0,0-.69,0V9.982a.345.345,0,0,0,.69,0Zm.983.673,1.22-1.22a.345.345,0,0,0-.488-.487l-1.22,1.219a.345.345,0,0,0,.488.488Zm2.289.826a.345.345,0,0,0-.345-.344H13.039a.345.345,0,1,0,0,.689h1.725A.345.345,0,0,0,15.109,11.481Zm-1.036,2.548a.345.345,0,0,0,0-.488l-1.219-1.219a.345.345,0,0,0-.488.487l1.22,1.22a.344.344,0,0,0,.487,0Zm-2.189.724V13.028a.345.345,0,1,0-.69,0v1.725a.345.345,0,0,0,.69,0Zm-2.4-.691L10.7,12.843a.345.345,0,1,0-.487-.488l-1.22,1.22a.345.345,0,1,0,.488.487Zm.858-2.533a.345.345,0,0,0-.345-.345H8.268a.345.345,0,0,0,0,.69H9.993A.346.346,0,0,0,10.338,11.529Zm.328-.84a.346.346,0,0,0,0-.488l-1.22-1.22a.345.345,0,0,0-.487.488l1.219,1.22a.345.345,0,0,0,.488,0Z" fill="#464646"/>
    <g>
      <polygon points="5.016 6.042 2.508 3.534 0 6.042 2.508 8.55 5.016 11.058 7.524 8.55 12.54 3.534 10.032 1.026 5.016 6.042" fill="#14915a"/>
      <path d="M10.032,2.28l1.253,1.254L6.9,7.923,5.016,9.8,3.135,7.923,1.254,6.042,2.508,4.788,4.389,6.669l.627.627.627-.627L10.032,2.28m0-1.254L5.016,6.042,2.508,3.534,0,6.042,2.508,8.55l2.508,2.508L7.524,8.55,12.54,3.534,10.032,1.026Z" fill="#464646"/>
    </g>
  </g>
</svg>
