<svg id="Image" xmlns="http://www.w3.org/2000/svg" viewBox="0 0 16 16">
  <g id="g859">
    <path id="rect4-0" d="M4.22,4.254H15.9V15.881H4.22Z" fill="#e3faff"/>
    <path id="rect4" d="M0,0H11.678V11.627H0Z" fill="#e3faff"/>
    <path id="rect819" d="M4,4H5V15H4Z" fill="#005f87"/>
    <path id="rect819-5" d="M15,4h1V16H15Z" fill="#005f87"/>
    <path id="rect836" d="M4,15H15v1H4Z" fill="#005f87"/>
    <path id="rect838" d="M5,4H15V5H5Z" fill="#005f87"/>
    <path id="rect819-1" d="M0,0H1V12H0Z" fill="#005f87"/>
    <path id="rect819-5-6" d="M11,0h1V4H11Z" fill="#005f87"/>
    <path id="rect836-7" d="M0,11H4v1H0Z" fill="#005f87"/>
    <path id="rect838-7" d="M1,0H11V1H1Z" fill="#005f87"/>
    <path id="path836" d="M6.348,10.385c.5-.518.179-.2.6-.629,1.975,2.1,1.226,1.3,2.582,2.74C11.162,9.628,11.571,8.82,13.06,6.3c.39.288.348.238.754.521C12.683,8.78,10.043,13.37,9.7,13.937,8.039,12.177,6.473,10.531,6.348,10.385Z" fill="#005f87"/>
  </g>
</svg>
