<svg id="svg42" xmlns="http://www.w3.org/2000/svg" viewBox="0 0 16 16">
  <g id="g849">
    <path id="path843" d="M7.54,15.135a7.754,7.754,0,0,1-2.032-.471A7.186,7.186,0,0,1,1.019,9.39,5.631,5.631,0,0,1,.9,8.02a5.649,5.649,0,0,1,.121-1.371A7.147,7.147,0,0,1,4.453,1.884a7.236,7.236,0,0,1,2.5-.9c.173-.029.4-.059.5-.066L7.638.905V8.027c0,3.918,0,7.121,0,7.119A.772.772,0,0,0,7.54,15.135Z" fill="#f0f0f0"/>
    <path id="path910" d="M8.519.9a7.273,7.273,0,0,1,3.537,1.288,7.149,7.149,0,0,1,3.016,5.186,9.338,9.338,0,0,1,0,1.274,7.161,7.161,0,0,1-5.108,6.2,7.96,7.96,0,0,1-1.5.28H8.4V.891Z" fill="#b93932"/>
    <path id="path852" d="M8,0a8,8,0,1,0,8,8A8,8,0,0,0,8,0ZM8,1A7,7,0,1,1,1,8,7,7,0,0,1,8,1Z" class="aw-theme-iconOutline" fill="#464646"/>
    <path id="rect908" d="M8.5.5v15h-1V.5Z" fill="#464646"/>
  </g>
</svg>
