<svg id="Layer_1" data-name="Layer 1" xmlns="http://www.w3.org/2000/svg" viewBox="0 0 16 16">
  <path d="M1.5,6.5h12a0,0,0,0,1,0,0v8a1,1,0,0,1-1,1H2.5a1,1,0,0,1-1-1v-8A0,0,0,0,1,1.5,6.5Z" fill="#3c91af"/>
  <path d="M12.5,6V5a5,5,0,0,0-10,0V6H1v8.5A1.5,1.5,0,0,0,2.5,16h10A1.5,1.5,0,0,0,14,14.5V6Zm-9-1a4,4,0,0,1,8,0V6h-8ZM13,14.5a.5.5,0,0,1-.5.5H2.5a.5.5,0,0,1-.5-.5V7H13Z" class="aw-theme-iconOutline" fill="#464646"/>
  <rect x="7" y="9" width="1" height="4" class="aw-theme-iconOutline" fill="#464646"/>
</svg>
