<svg id="Artwork" xmlns="http://www.w3.org/2000/svg" xmlns:xlink="http://www.w3.org/1999/xlink" viewBox="0 0 16 16">
  <defs>
    <linearGradient id="linear-gradient" x1="-0.029" y1="10.877" x2="14.495" y2="10.877" gradientTransform="matrix(1.054, 0, 0, -1.071, 0.388, 19.686)" gradientUnits="userSpaceOnUse">
      <stop offset="0" stop-color="#afd7e1"/>
      <stop offset="1" stop-color="#54a4bc"/>
    </linearGradient>
  </defs>
  <g id="g856">
    <path id="path844" d="M2.122,12.855A2.948,2.948,0,0,1,.556,11.267a2.352,2.352,0,0,1-.2-1.272A2.2,2.2,0,0,1,.605,8.633a3.283,3.283,0,0,1,.764-1c.488-.46.52-.513.61-.983A4.723,4.723,0,0,1,2.659,4.9,3.619,3.619,0,0,1,8.2,3.913c.316.232.394.253,1.061.284a2.318,2.318,0,0,1,1.158.253,3.424,3.424,0,0,1,1.6,2.074l.087.307.68.008A2.043,2.043,0,0,1,13.9,7.06a3.266,3.266,0,0,1,1.725,2.417A3.182,3.182,0,0,1,13.881,12.8l-.417.2-5.455.018-5.455.019Z" fill="url(#linear-gradient)"/>
    <path id="path2" d="M5.7,2.762a4.224,4.224,0,0,0-1.056.213A4.958,4.958,0,0,0,1.512,6.9,3.73,3.73,0,0,0,.178,11.035,3.384,3.384,0,0,0,3.311,13.5H12.5a3.6,3.6,0,0,0,3.465-3.6,3.488,3.488,0,0,0-1.2-2.73,3.384,3.384,0,0,0-2.332-.867A3.485,3.485,0,0,0,8.707,3.84,4.05,4.05,0,0,0,5.7,2.762Zm.051.646a3.947,3.947,0,0,1,2.623.965l.133.133h.133a2.8,2.8,0,0,1,3.2,2.2l.066.266h.266a2.522,2.522,0,0,1,2.133.666,2.984,2.984,0,0,1,1,2.265,2.89,2.89,0,0,1-2.8,2.932H3.311a2.684,2.684,0,0,1-2.534-2,2.993,2.993,0,0,1,1.2-3.4l.2-.133V7.172a4.206,4.206,0,0,1,2.664-3.6A3.27,3.27,0,0,1,5.75,3.408Z" class="aw-theme-iconOutline" fill="#464646"/>
  </g>
</svg>
