<svg id="Livello_2" data-name="Livello 2" xmlns="http://www.w3.org/2000/svg" xmlns:xlink="http://www.w3.org/1999/xlink" viewBox="0 0 16 16">
  <defs>
    <linearGradient id="linear-gradient" x1="14.402" y1="1.043" x2="-0.85" y2="12.636" gradientTransform="matrix(1, 0, 0, -1, 0, 18)" gradientUnits="userSpaceOnUse">
      <stop offset="0" stop-color="#147391"/>
      <stop offset="1" stop-color="#147391" stop-opacity="0"/>
    </linearGradient>
    <linearGradient id="linear-gradient-2" x1="4.637" y1="16.647" x2="10.155" y2="11.886" gradientTransform="matrix(1.007, 0, 0, -0.988, 0.068, 17.609)" gradientUnits="userSpaceOnUse">
      <stop offset="0" stop-color="#fff"/>
      <stop offset="1" stop-color="#bebebe"/>
    </linearGradient>
  </defs>
  <title>IndicatorUser16</title>
  <g id="g879">
    <path id="path862" d="M1.476,14.046c0-.716.016-2.069.03-3.006a7.632,7.632,0,0,1,.109-1.977,3.052,3.052,0,0,1,1.61-1.879L3.564,7l.4.242A6.233,6.233,0,0,0,7.547,8.458a7.846,7.846,0,0,0,3.779-1.022l.66-.351.392.212A3.293,3.293,0,0,1,14.3,9.454a15.176,15.176,0,0,1,.054,2v1.729l.295,2.3a1.158,1.158,0,0,1-1-.011l-1.467.059-.043-2.924.194-1.331-.259.1-.225-.17-.255,1.668-.018,2.447-3.7.01-3.7.01V12.881L4.1,11.058l-.243.1.232.237L4,12.881l-.153,2.5-1.611-.034H1.472Z" fill="url(#linear-gradient)"/>
    <path id="path852" d="M7.35,6.617A3,3,0,0,1,5.455,4.188a4.37,4.37,0,0,1,0-1.381,1.978,1.978,0,0,1,1.68-1.546,4.734,4.734,0,0,1,1.5.038,2.041,2.041,0,0,1,1.61,2.144A3.178,3.178,0,0,1,8.266,6.616,2.176,2.176,0,0,1,7.35,6.617Z" fill="url(#linear-gradient-2)"/>
    <path id="path4" d="M3.871,6.735v0a.3.3,0,0,0-.18.029A3.974,3.974,0,0,0,1,10.386v5.373H2l.016-5.387A2.687,2.687,0,0,1,3.957,7.733a7.12,7.12,0,0,0,3.7,1.278A8.394,8.394,0,0,0,11.787,7.8c1.508.674,2.243,1.387,2.238,2.553L14,15.758h1V10.385c0-1.473-1.149-2.853-3.088-3.62a.494.494,0,0,0-.357.031A7.591,7.591,0,0,1,7.678,8.1,7.031,7.031,0,0,1,4.051,6.8.533.533,0,0,0,3.871,6.735Z" class="aw-theme-iconOutline" fill="#464646"/>
    <path id="path2-0" d="M7.836,7.43c-1.712,0-3.279-2.23-3.279-3.991A3.315,3.315,0,0,1,7.823.241,3.258,3.258,0,0,1,11.061,3.4C11.061,5.163,9.548,7.43,7.836,7.43ZM7.78,1.255A1.988,1.988,0,0,0,5.574,3.426c0,1.468.888,3.062,2.24,3.062s2.259-1.614,2.259-3.082A2.041,2.041,0,0,0,7.78,1.255Z" class="aw-theme-iconOutline" fill="#464646"/>
    <path id="rect836" d="M3.447,10.726H4.5v5.01H3.447Z" fill="#147391"/>
    <path id="rect836-2" d="M11.455,10.735h1.053v5H11.455Z" fill="#147391"/>
    <path id="rect820" d="M1,15H15v1H1Z" class="aw-theme-iconOutline" fill="#464646"/>
  </g>
</svg>
