<svg id="Image" xmlns="http://www.w3.org/2000/svg" viewBox="0 0 16 16">
  <path d="M12.986,8.137c0-.046.014-.09.014-.137A4.992,4.992,0,0,0,9.14,3.143,2.991,2.991,0,0,1,15,4a.5.5,0,0,0,1,0,3.992,3.992,0,0,0-7.863-.986C8.091,3.012,8.047,3,8,3A4.992,4.992,0,0,0,3.143,6.86,2.991,2.991,0,0,1,4,1,.5.5,0,0,0,4,0a3.992,3.992,0,0,0-.986,7.863C3.013,7.909,3,7.953,3,8a4.992,4.992,0,0,0,3.86,4.857A2.991,2.991,0,0,1,1,12a.5.5,0,0,0-1,0,3.992,3.992,0,0,0,7.863.986c.046,0,.09.014.137.014a4.992,4.992,0,0,0,4.857-3.86A2.991,2.991,0,0,1,12,15a.5.5,0,0,0,0,1,3.992,3.992,0,0,0,.986-7.863ZM8,12a4,4,0,1,1,4-4A4,4,0,0,1,8,12Z" fill="#4e4a48"/>
  <circle cx="8" cy="8" r="4" fill="#ffcd50"/>
</svg>
