<svg id="Image" xmlns="http://www.w3.org/2000/svg" viewBox="0 0 16 16">
  <g id="g837">
    <path id="rect4" d="M1,1H15V15H1Z" fill="#fbeeed"/>
    <path id="rect819" d="M0,0H1V16H0Z" fill="#dc0000"/>
    <path id="rect819-5" d="M15,0h1V16H15Z" fill="#dc0000"/>
    <path id="rect836" d="M1,15H15v1H1Z" fill="#dc0000"/>
    <path id="rect838" d="M1,0H15V1H1Z" fill="#dc0000"/>
    <path id="path822" d="M13,8a5,5,0,0,1-5,5H8A5,5,0,0,1,3,8H3A5,5,0,0,1,13,8Z" fill="#dc0000"/>
    <path id="path822-6" d="M12,8A4,4,0,1,1,8,4,4,4,0,0,1,12,8Z" fill="#fbeeed"/>
    <path id="rect820" d="M4.687,10.678l6.058-6.1.662.7-6.058,6.1Z" fill="#dc0000"/>
  </g>
</svg>
