<svg version="1.1" id="Layer_1" xmlns="http://www.w3.org/2000/svg" xmlns:xlink="http://www.w3.org/1999/xlink" x="0px" y="0px"
	 viewBox="0 0 16 16" enable-background="new 0 0 16 16" xml:space="preserve">
<path class="aw-theme-iconOutline" fill="#464646" d="M15.5,2c0-1.944-6.732-2-7.5-2S0.5,0.056,0.5,2c0,0.188,0.079,0.354,0.194,0.508L6,10.649V15.5
	c0,0.185,0.102,0.354,0.264,0.441C6.338,15.98,6.419,16,6.5,16c0.097,0,0.194-0.028,0.277-0.084l3-2C9.917,13.823,10,13.667,10,13.5
	v-2.851l5.305-8.14C15.42,2.355,15.5,2.189,15.5,2z M8,1c3.7,0,6.024,0.611,6.458,1C14.024,2.389,11.7,3,8,3S1.976,2.389,1.542,2
	C1.976,1.611,4.3,1,8,1z M9.082,10.226C9.028,10.308,9,10.403,9,10.5v2.732l-2,1.333V10.5c0-0.097-0.028-0.192-0.082-0.274
	L2.471,3.432C4.522,3.973,7.504,4,8,4c0.496,0,3.482-0.027,5.534-0.569L9.082,10.226z"/>
</svg>
