<svg id="svg53" xmlns="http://www.w3.org/2000/svg" xmlns:xlink="http://www.w3.org/1999/xlink" viewBox="0 0 48 48">
  <defs>
    <linearGradient id="linear-gradient" x1="10.74" y1="25.506" x2="39.425" y2="2.573" gradientTransform="matrix(1, 0, 0, -1, 0, 48)" gradientUnits="userSpaceOnUse">
      <stop offset="0" stop-color="#fff"/>
      <stop offset="1" stop-color="#dadada"/>
    </linearGradient>
    <linearGradient id="linear-gradient-2" x1="12.578" y1="38.337" x2="26.078" y2="17.635" gradientTransform="matrix(1, 0, 0, -1, 0, 48)" gradientUnits="userSpaceOnUse">
      <stop offset="0" stop-color="#fff"/>
      <stop offset="1" stop-color="#dcdcdc"/>
    </linearGradient>
    <linearGradient id="linear-gradient-3" x1="28.839" y1="38.093" x2="41.924" y2="19.686" xlink:href="#linear-gradient-2"/>
    <linearGradient id="linear-gradient-4" x1="27.844" y1="36.196" x2="46.268" y2="28.863" gradientTransform="matrix(0.879, 0.477, 0.477, -0.879, -13.29, 39.104)" gradientUnits="userSpaceOnUse">
      <stop offset="0" stop-color="#cde6eb"/>
      <stop offset="1" stop-color="#8cc3d2"/>
    </linearGradient>
  </defs>
  <g id="g912">
    <g id="Plane">
      <g id="g35">
        <path id="path31" d="M24.013,46.5a.677.677,0,0,1-.358-.1L1.767,33.557A.539.539,0,0,1,1.5,33.1a.547.547,0,0,1,.272-.468L23.643,19.607a.693.693,0,0,1,.37-.107.672.672,0,0,1,.36.1L46.236,32.635a.54.54,0,0,1,.264.462.549.549,0,0,1-.276.465L24.378,46.4A.689.689,0,0,1,24.013,46.5Z" fill="url(#linear-gradient)"/>
        <path id="path33" d="M24.012,20a.211.211,0,0,1,.114.036L45.964,33.054c.013.009.036.025.036.041s-.022.031-.021.031h0L24.108,45.975a.193.193,0,0,1-.1.025.207.207,0,0,1-.113-.036L2.037,33.136C2.023,33.127,2,33.11,2,33.1s.02-.03.02-.03h0l21.9-13.039a.185.185,0,0,1,.1-.026m0-1a1.189,1.189,0,0,0-.625.177L1.508,32.205a1.033,1.033,0,0,0,.006,1.783L23.393,46.827a1.192,1.192,0,0,0,1.238,0L46.486,33.988a1.034,1.034,0,0,0,.006-1.783L24.638,19.177A1.192,1.192,0,0,0,24.012,19Z" fill="#4f4b49"/>
      </g>
    </g>
    <g id="g51">
      <g id="g43">
        <g id="g27">
          <g id="g19">
            <path id="path15" d="M23.955,6.324c0-2.651-9.368-4.211-16.4-4.211V23.1c7.034,0,16.4,1.559,16.4,4.21Z" fill="url(#linear-gradient-2)"/>
            <path id="path17" d="M23.955,27.7a.388.388,0,0,1-.38-.395c0-1.961-7.787-3.816-16.022-3.816a.388.388,0,0,1-.381-.395V2.113a.388.388,0,0,1,.381-.395c5.258,0,16.783,1.16,16.783,4.606V27.305A.389.389,0,0,1,23.955,27.7Zm-16.022-5c4.554.045,13.062.892,15.642,3.167V6.324c0-1.931-7.549-3.758-15.642-3.815Z" fill="#474647"/>
          </g>
          <g id="g25">
            <path id="path21" d="M24.094,6.384c0-2.651,9.368-4.211,16.4-4.211V23.155c-7.034,0-16.4,1.559-16.4,4.21Z" fill="url(#linear-gradient-3)"/>
            <path id="path23" d="M24.094,27.764a.389.389,0,0,1-.381-.395V6.384c0-3.446,11.526-4.606,16.783-4.606a.389.389,0,0,1,.381.4V23.155a.389.389,0,0,1-.381.395c-8.235,0-16.022,1.854-16.022,3.815a.387.387,0,0,1-.376.4ZM40.116,2.57c-8.093.056-15.641,1.882-15.641,3.814V25.926c2.58-2.273,11.086-3.12,15.641-3.164Z" fill="#474647"/>
          </g>
        </g>
        <path id="path29" d="M21.24,8.837a.378.378,0,0,1-.29-.139c-.034-.041-2.359-2.693-10.275-2.693a.4.4,0,0,1,0-.79c8.351,0,10.76,2.851,10.859,2.971a.405.405,0,0,1-.045.557.371.371,0,0,1-.247.094Z" fill="#474647"/>
        <path id="path31-7" d="M21.24,13.244a.378.378,0,0,1-.29-.139c-.035-.041-2.359-2.692-10.275-2.692a.4.4,0,0,1,0-.79c8.351,0,10.76,2.851,10.859,2.972a.4.4,0,0,1-.046.556h0A.37.37,0,0,1,21.24,13.244Z" fill="#474647"/>
        <path id="path33-0" d="M21.24,17.653a.378.378,0,0,1-.29-.139c-.034-.041-2.359-2.693-10.275-2.693a.4.4,0,0,1,0-.79c8.351,0,10.76,2.851,10.859,2.972a.406.406,0,0,1-.046.557h0A.375.375,0,0,1,21.24,17.653Z" fill="#474647"/>
        <path id="path35" d="M15.449,19.605a.339.339,0,0,1-.064-.007,27.849,27.849,0,0,0-4.719-.37.4.4,0,0,1,0-.79,28.571,28.571,0,0,1,4.842.381.393.393,0,0,1,.317.452.385.385,0,0,1-.379.334Z" fill="#474647"/>
        <path id="path37" d="M27.07,8.835a.389.389,0,0,1-.381-.4.415.415,0,0,1,.089-.254c.1-.12,2.512-2.971,10.859-2.971a.4.4,0,0,1,0,.79C29.7,6.005,27.382,8.671,27.362,8.7A.375.375,0,0,1,27.07,8.835Z" fill="#474647"/>
        <path id="path39" d="M27.07,13.242a.388.388,0,0,1-.38-.4.4.4,0,0,1,.088-.251c.1-.121,2.512-2.972,10.859-2.972a.4.4,0,0,1,0,.79c-7.937,0-10.255,2.666-10.275,2.693A.371.371,0,0,1,27.07,13.242Z" fill="#474647"/>
        <path id="path41" d="M27.07,17.653a.389.389,0,0,1-.38-.4.4.4,0,0,1,.088-.252c.1-.121,2.512-2.972,10.859-2.972a.4.4,0,0,1,0,.79c-7.937,0-10.255,2.666-10.275,2.693A.375.375,0,0,1,27.07,17.653Z" fill="#474647"/>
      </g>
      <g id="g49">
        <path id="path45" d="M41.751,25.162v.325a18.763,18.763,0,0,1-.957,6.047c-1.44,4.229-2.995,3.9-2.995,3.9H31.446a1.35,1.35,0,0,1-1.08-.553l-.529-.711A28.551,28.551,0,0,1,25.614,26l-.32-.98a1.809,1.809,0,0,1,.68-2.407,1.678,1.678,0,0,1,2.32.706l.96,1.636V15.192a1.71,1.71,0,1,1,3.418,0V23A1.514,1.514,0,1,1,35.7,23v.657a1.514,1.514,0,1,1,3.026.015s-.041,1.687,0,1.73v-.334a1.546,1.546,0,0,1,1.521-1.57,1.494,1.494,0,0,1,.364.046A1.635,1.635,0,0,1,41.751,25.162Z" fill="url(#linear-gradient-4)"/>
        <path id="path47" d="M30.6,35.647a1.8,1.8,0,0,1-.561-.495l-.533-.711a28.881,28.881,0,0,1-4.288-8.3L24.9,25.2a2.249,2.249,0,0,1,.99-2.954,2.091,2.091,0,0,1,2.765.87l.171.293V15.191a2.133,2.133,0,1,1,4.263,0v6.153a1.874,1.874,0,0,1,2.459.237,2.044,2.044,0,0,1,.389.576,1.887,1.887,0,0,1,2.73.2,2.049,2.049,0,0,1,.46,1.068,1.881,1.881,0,0,1,1.578-.3,2.079,2.079,0,0,1,1.463,2.045v.326a19.176,19.176,0,0,1-.982,6.191c-1.424,4.182-3.062,4.236-3.421,4.193H31.446A1.743,1.743,0,0,1,30.6,35.647ZM27.411,23a1.267,1.267,0,0,0-1.751.534,1.385,1.385,0,0,0,0,1.283.423.423,0,0,1,.03.069l.323.98a27.984,27.984,0,0,0,4.156,8.042l.533.711a.92.92,0,0,0,.747.381H37.8a.4.4,0,0,1,.083.009h0s1.255.079,2.511-3.62a18.27,18.27,0,0,0,.937-5.9v-.326a1.2,1.2,0,0,0-.82-1.2,1.094,1.094,0,0,0-1.332.826,1.209,1.209,0,0,0-.034.274v.33a.427.427,0,0,1-.418.437.41.41,0,0,1-.3-.13c-.152-.158-.168-.175-.122-2.047a1.113,1.113,0,0,0-1.1-1.123,1.075,1.075,0,0,0-.764.333,1.121,1.121,0,0,0-.319.79h0a.433.433,0,0,1-.375.48.425.425,0,0,1-.462-.389.347.347,0,0,1,0-.091V23A1.093,1.093,0,1,0,33.1,23h0a.421.421,0,0,1-.841,0V15.192a1.288,1.288,0,1,0-2.576,0v9.769a.429.429,0,0,1-.422.435.414.414,0,0,1-.357-.209l-.966-1.636A1.347,1.347,0,0,0,27.411,23Z" fill="#177491"/>
      </g>
    </g>
  </g>
</svg>
