<svg id="Image" xmlns="http://www.w3.org/2000/svg" xmlns:xlink="http://www.w3.org/1999/xlink" viewBox="0 0 48 48">
  <defs>
    <linearGradient id="Siemens_-_Mid_blue" data-name="Siemens - Mid blue" x1="-0.102" y1="3.354" x2="40.148" y2="43.604" gradientUnits="userSpaceOnUse">
      <stop offset="0" stop-color="#afd7e1"/>
      <stop offset="1" stop-color="#73b4c8"/>
    </linearGradient>
    <linearGradient id="Siemens_-_Dark_blue" data-name="Siemens - Dark blue" x1="13.467" y1="10.039" x2="27.138" y2="23.71" gradientUnits="userSpaceOnUse">
      <stop offset="0" stop-color="#73b4c8"/>
      <stop offset="1" stop-color="#177491"/>
    </linearGradient>
  </defs>
  <g>
    <g>
      <g>
        <path d="M38.5,45.252l.091-25.908v-.136H46.5a66.78,66.78,0,0,1-5.727-7.772c-2.092-3.488-2.18-8.855-2.182-9.591V1.754H1.5v43.5h37" fill="url(#Siemens_-_Mid_blue)"/>
        <path d="M38.5,45.752H1.5a.5.5,0,0,1-.5-.5V1.776a.5.5,0,0,1,.238-.452.492.492,0,0,1,.311-.07h37.04a.5.5,0,0,1,.5.5c0,.688.074,6.032,2.11,9.424a66.528,66.528,0,0,0,5.676,7.7.5.5,0,0,1-.378.827H39.091L39,45.254A.5.5,0,0,1,38.5,45.752Zm-36.5-1H38l.09-25.544a.5.5,0,0,1,.5-.5h6.837a63.567,63.567,0,0,1-5.084-7.015C38.421,8.487,38.137,3.868,38.1,2.254H2Z" fill="#464646"/>
      </g>
      <path d="M19.909,19.71a16.526,16.526,0,0,1-14.35-9.067C1.7,3.2,1.152,2.157,1.075,2.014,1.068,2,1.062,1.99,1.056,1.978A.5.5,0,0,1,1.273,1.3c.286-.146.388-.2.66.236l.017-.008a.4.4,0,0,1,.036.1c.144.243.332.605.608,1.134.592,1.137,1.718,3.3,3.853,7.422a15.453,15.453,0,0,0,13.577,8.525H38.592a.5.5,0,0,1,0,1H20.047S19.994,19.71,19.909,19.71Z" fill="#464646"/>
      <g>
        <path d="M31.637,19.211c-3.068-.611-9-6.753-9-6.753L8.968,14.539s4.949,4.632,10.157,4.672S31.637,19.211,31.637,19.211Z" fill="url(#Siemens_-_Dark_blue)"/>
        <path d="M24.67,19.728c-1.856,0-3.822,0-5.549-.018C13.779,19.67,8.834,15.1,8.626,14.9a.5.5,0,0,1,.267-.86l13.669-2.08a.5.5,0,0,1,.435.147c.059.06,5.858,6.035,8.738,6.609a.5.5,0,0,1-.094.99C31.592,19.711,28.351,19.728,24.67,19.728ZM10.132,14.867c1.59,1.264,5.258,3.816,9,3.843,3.343.026,7.59.019,10.174.01a42.777,42.777,0,0,1-6.843-5.729Z" fill="#464646"/>
      </g>
    </g>
    <g>
      <rect x="8.208" y="8.25" width="29.25" height="3" rx="1" ry="1" fill="#fff"/>
      <path d="M32.433,13.906H26.87a16.608,16.608,0,0,0,1.569,1.678,12.313,12.313,0,0,0,1.719,1.322h2.275a1,1,0,0,0,1-1v-1A1,1,0,0,0,32.433,13.906Z" fill="#fff"/>
    </g>
    <g>
      <rect x="3.875" y="30.708" width="26" height="3" rx="1" ry="1" fill="#fff"/>
      <rect x="3.875" y="24.5" width="32.125" height="3" rx="1" ry="1" fill="#fff"/>
      <rect x="3.875" y="36.917" width="18.5" height="3" rx="1" ry="1" fill="#fff"/>
    </g>
  </g>
</svg>
