<svg id="Image" xmlns="http://www.w3.org/2000/svg" xmlns:xlink="http://www.w3.org/1999/xlink" viewBox="0 0 48 48">
  <defs>
    <linearGradient id="Siemens_-_Light_gray" data-name="Siemens - Light gray" x1="7.567" y1="14.164" x2="35.58" y2="42.177" gradientUnits="userSpaceOnUse">
      <stop offset="0" stop-color="#fff"/>
      <stop offset="1" stop-color="#dcdcdc"/>
    </linearGradient>
    <linearGradient id="Siemens_-_Dark_blue" data-name="Siemens - Dark blue" x1="15.512" y1="11.879" x2="32.368" y2="24.354" gradientTransform="translate(4.695 -4.497) rotate(12.274)" gradientUnits="userSpaceOnUse">
      <stop offset="0" stop-color="#73b4c8"/>
      <stop offset="1" stop-color="#177491"/>
    </linearGradient>
    <linearGradient id="Siemens_-_Light_blue" data-name="Siemens - Light blue" x1="28.793" y1="17.277" x2="36.792" y2="25.276" gradientUnits="userSpaceOnUse">
      <stop offset="0" stop-color="#cde6eb"/>
      <stop offset="1" stop-color="#8cc3d2"/>
    </linearGradient>
    <linearGradient id="Siemens_-_Light_gray-2" x1="-123.183" y1="59.415" x2="-132.192" y2="68.424" gradientTransform="matrix(-0.856, -0.517, -0.517, 0.856, -63.652, -107.933)" xlink:href="#Siemens_-_Light_gray"/>
    <linearGradient id="Siemens_-_Dark_gray" data-name="Siemens - Dark gray" x1="37.405" y1="72.076" x2="33.575" y2="75.906" gradientTransform="matrix(0.856, 0.517, -0.517, 0.856, 23.485, -55.3)" gradientUnits="userSpaceOnUse">
      <stop offset="0" stop-color="#f2f2f2"/>
      <stop offset="1" stop-color="#999"/>
    </linearGradient>
    <linearGradient id="Siemens_-_Dark_gray-2" x1="26.212" y1="51.58" x2="14.826" y2="62.966" xlink:href="#Siemens_-_Dark_gray"/>
    <linearGradient id="Siemens_-_Dark_gray-3" x1="25.297" y1="32.969" x2="39.239" y2="32.969" gradientTransform="matrix(1, 0, 0, 1, 0, 0)" xlink:href="#Siemens_-_Dark_gray"/>
    <linearGradient id="Siemens_-_Light_gray-3" x1="5.843" y1="23.429" x2="27.085" y2="44.671" xlink:href="#Siemens_-_Light_gray"/>
  </defs>
  <g>
    <g>
      <path d="M25.369,31.9,7.6,21.671l.156,14.46L25.32,46.483l13.919-7.965V24.06L21.616,13.781,13.441,8.87a1.089,1.089,0,0,0-1.106.617L7.6,21.671" stroke="#464646" stroke-linejoin="round" fill="url(#Siemens_-_Light_gray)"/>
      <path d="M15.227,11.463a1.553,1.553,0,0,1,.134.658,2.755,2.755,0,0,1-.13.809,3.915,3.915,0,0,1-.345.807,4.064,4.064,0,0,1-.519.7,2.893,2.893,0,0,1-.638.52,1.56,1.56,0,0,1-.639.217.931.931,0,0,1-.522-.1.909.909,0,0,1-.349-.4,1.533,1.533,0,0,1-.134-.658,2.873,2.873,0,0,1,.13-.81,3.812,3.812,0,0,1,.865-1.5,2.846,2.846,0,0,1,.638-.52,1.612,1.612,0,0,1,.639-.217.95.95,0,0,1,.522.1A.938.938,0,0,1,15.227,11.463ZM14.523,13a1.4,1.4,0,0,0,.068-.431.734.734,0,0,0-.071-.342.4.4,0,0,0-.188-.211.435.435,0,0,0-.271-.059.887.887,0,0,0-.34.116,1.647,1.647,0,0,0-.34.277,1.886,1.886,0,0,0-.27.371,1.762,1.762,0,0,0-.187.427,1.328,1.328,0,0,0-.068.423.761.761,0,0,0,.07.351.464.464,0,0,0,.46.262.79.79,0,0,0,.34-.117,1.394,1.394,0,0,0,.34-.276A2.211,2.211,0,0,0,14.523,13" fill="#464646" stroke="#464646" stroke-miterlimit="10" stroke-width="0"/>
      <line x1="21.616" y1="13.781" x2="21.616" y2="28.219" fill="none" stroke="#464646" stroke-linejoin="round"/>
    </g>
    <g>
      <path d="M20.121,34.981a2.912,2.912,0,0,1-2.448-1.346,1.351,1.351,0,0,1-.317-.954l6.659-18.559a.6.6,0,0,0,.023-.632.5.5,0,0,0-.054-.1c-.26-.352-2.511-3.519-1.6-6.179a6.5,6.5,0,0,1,3.128-3.709,3.362,3.362,0,0,1,.676-.3,2.978,2.978,0,0,1,.385.127L25.351,6.9a.5.5,0,0,0-.027.176c.086,3.2.133,3.22.51,3.349l3.095,1.061a.505.505,0,0,0,.162.027.5.5,0,0,0,.363-.157l1.9-2.009a.49.49,0,0,0,.11-.183c.01-.029.923-2.72,1.3-3.752a2.443,2.443,0,0,1,.372.154,6.745,6.745,0,0,1,.519,5.578,5.862,5.862,0,0,1-2.943,3.009,13.654,13.654,0,0,1-2.189.919.687.687,0,0,0-.422.451l-6.09,18.642a1.369,1.369,0,0,1-.848.625A2.981,2.981,0,0,1,20.121,34.981Zm.153-4.229a.942.942,0,0,0-.455.12,1,1,0,0,0-.5.593,1.047,1.047,0,0,0,.041.805.98.98,0,0,0,.569.5,1,1,0,0,0,.331.058.942.942,0,0,0,.456-.12,1.083,1.083,0,0,0,.5-.6,1.04,1.04,0,0,0-.042-.8.973.973,0,0,0-.569-.5A1,1,0,0,0,20.274,30.752Z" fill="url(#Siemens_-_Dark_blue)"/>
      <path d="M25.854,3.893l-.977,2.848a.976.976,0,0,0-.053.351c.086,3.215.095,3.551.849,3.81l3.094,1.06a.983.983,0,0,0,.324.054,1,1,0,0,0,.728-.313l1.9-2.01a1,1,0,0,0,.219-.365c.008-.024.61-1.8,1.037-3.013a6.37,6.37,0,0,1,.211,4.659,5.382,5.382,0,0,1-2.707,2.741,13.2,13.2,0,0,1-2.106.884.969.969,0,0,0-.167.07,1.14,1.14,0,0,0-.582.711L21.541,33.991a1.181,1.181,0,0,1-.555.333,2.461,2.461,0,0,1-.864.157,2.416,2.416,0,0,1-2.029-1.118,1.51,1.51,0,0,1-.252-.554L24.465,14.35a1.123,1.123,0,0,0,.029-1.068.974.974,0,0,0-.108-.184c-.884-1.2-2.2-3.754-1.528-5.72a6,6,0,0,1,2.89-3.429l.106-.056m-5.59,29.435a1.451,1.451,0,0,0,.689-.177,1.6,1.6,0,0,0,.736-.874,1.547,1.547,0,0,0-.045-1.142,1.47,1.47,0,0,0-.877-.8,1.489,1.489,0,0,0-.493-.086,1.466,1.466,0,0,0-.689.177,1.531,1.531,0,0,0,.679,2.9M33.305,5.386h0M26.162,2.7a.138.138,0,0,0-.06.01,3.621,3.621,0,0,0-.824.354,7.022,7.022,0,0,0-3.366,3.988c-.921,2.688,1.042,5.787,1.669,6.638.031.068.062.136,0,.171L16.883,32.519a1.749,1.749,0,0,0,.37,1.387,3.408,3.408,0,0,0,2.869,1.575,3.486,3.486,0,0,0,1.212-.219,1.791,1.791,0,0,0,1.149-.939L28.57,15.69c.036-.1.036-.1.1-.138a14.243,14.243,0,0,0,2.272-.954,6.338,6.338,0,0,0,3.184-3.3,7.227,7.227,0,0,0-.6-6.041c-.081-.15-.577-.307-.869-.387a.236.236,0,0,0-.058-.007.248.248,0,0,0-.228.166c-.316.826-1.384,3.978-1.384,3.978l-1.9,2.009L26,9.956c-.1-.034-.174-2.891-.174-2.891L27.1,3.343a.342.342,0,0,0-.087-.376,3.991,3.991,0,0,0-.85-.265Zm-5.9,29.626A.532.532,0,0,1,20.1,32.3a.55.55,0,0,1-.04-.985.462.462,0,0,1,.219-.06.522.522,0,0,1,.169.031.508.508,0,0,1,.3.67.611.611,0,0,1-.259.315.457.457,0,0,1-.22.06Z" fill="#464646"/>
    </g>
    <g>
      <path d="M41.915,5.462l-.87-.559-.655-.421-.569.532L37.087,7.57,36.631,8l.184.6.329,1.07L30.533,20.74l-1.108-.712-.87-.559-.53.888-.466.783-.341.571.4.536a.414.414,0,0,1,.069.152.393.393,0,0,1-.042.3l-.034.057a.335.335,0,0,1-.277.154l-.694-.139-.408.6-5.1,8.554a2.5,2.5,0,0,0,.79,3.364l2.2,1.415a2.376,2.376,0,0,0,3.341-.787l5.1-8.555.341-.572-.4-.535a.4.4,0,0,1-.069-.153.393.393,0,0,1,.041-.3l.036-.06a.337.337,0,0,1,.276-.152l.694.14.408-.6.458-.768.491-.823-.8-.525-1.157-.76,6.632-11.121,1.032-.165.64-.1.168-.626.985-3.679.189-.706Z" fill="#464646"/>
      <path d="M40.39,9.983l-1.276.2c-.008,0-.015.005-.023.006l-.025.007a.479.479,0,0,0-.147.067l-.014.012a.46.46,0,0,0-.115.126l-.007.008L31.532,22.571l.407.261,0,0h0l1.545,1.015-.457.767a1.254,1.254,0,0,0-.244-.024,1.339,1.339,0,0,0-1.137.642l-.033.057a1.4,1.4,0,0,0-.157,1.038,1.425,1.425,0,0,0,.239.519l-5.1,8.555a1.384,1.384,0,0,1-.874.646,1.4,1.4,0,0,1-.315.036,1.385,1.385,0,0,1-.752-.224l-2.2-1.415a1.5,1.5,0,0,1-.473-2.01l5.1-8.555a1.236,1.236,0,0,0,.243.024,1.336,1.336,0,0,0,1.136-.642l.034-.056a1.4,1.4,0,0,0,.157-1.039,1.425,1.425,0,0,0-.239-.519l.466-.783,1.978,1.271L38.116,9.984l.005-.014a.5.5,0,0,0,.054-.152l.006-.03a.51.51,0,0,0-.008-.16L38.168,9.6c0-.008,0-.016-.005-.024L37.77,8.3,40.5,5.744l.871.559Z" fill="url(#Siemens_-_Light_blue)"/>
    </g>
    <g>
      <polygon points="11.884 6.412 10.466 6.787 13.308 19.184 14.726 18.807 11.884 6.412" stroke="#474647" stroke-miterlimit="10" fill="url(#Siemens_-_Light_gray-2)"/>
      <path d="M12.291,20.675l3.98-1.053,3.407,11.952a1.641,1.641,0,0,1-1.176,1.91l-2.194.581a1.512,1.512,0,0,1-1.873-1.132Zm.185-1.218a.968.968,0,0,1,.434-.218l.509-.135,1.914-.507a.629.629,0,0,1,.77.438l.168.587-3.98,1.053-.105-.6A.756.756,0,0,1,12.476,19.457Z" stroke="#474647" stroke-miterlimit="10" fill="url(#Siemens_-_Dark_gray)"/>
      <path d="M14.35,4.632l-.244-1.065L13.86,2.5a12.117,12.117,0,0,1,2.525.159,23.93,23.93,0,0,1,3.2,1.085C18.657,3.705,15.751,3.607,14.35,4.632Zm-6.737,2.3-.05-.219L6.955,4.057l-.05-.219A.623.623,0,0,1,7.35,3.1l5.7-1.509a.577.577,0,0,1,.447.063.571.571,0,0,1,.264.367l.709,3.093a.614.614,0,0,1-.075.456.608.608,0,0,1-.369.279l-1.618.429h0l-.393.1L8.326,7.36A.589.589,0,0,1,7.613,6.929Zm-.17-.743-2.2.583-.184-.8-.184-.8,2.2-.583ZM3.189,4.213,3.8,4.052a.728.728,0,0,1,.9.544l.319,1.392.3,1.327h0l.015.065a.787.787,0,0,1-.562.93l-.606.161Z" stroke="#474647" stroke-linejoin="round" fill="url(#Siemens_-_Dark_gray-2)"/>
    </g>
    <path d="M25.32,31.849,30.954,20.1a1.087,1.087,0,0,1,1.1-.617l7.182,4.575V38.518L25.3,46.46V31.849h.023" stroke="#464646" stroke-linejoin="round" fill="url(#Siemens_-_Dark_gray-3)"/>
    <path d="M33.649,22.393a1.536,1.536,0,0,1,.134.657,2.787,2.787,0,0,1-.129.81,3.974,3.974,0,0,1-.346.807,4.1,4.1,0,0,1-.519.7,2.893,2.893,0,0,1-.638.52,1.575,1.575,0,0,1-.639.217.939.939,0,0,1-.522-.1.912.912,0,0,1-.349-.406,1.54,1.54,0,0,1-.134-.657,2.867,2.867,0,0,1,.13-.81,4.049,4.049,0,0,1,.346-.8,4.1,4.1,0,0,1,.519-.7,2.846,2.846,0,0,1,.638-.52,1.6,1.6,0,0,1,.639-.217.81.81,0,0,1,.87.5Zm-.7,1.533a1.4,1.4,0,0,0,.068-.431.729.729,0,0,0-.071-.343.4.4,0,0,0-.188-.21.427.427,0,0,0-.271-.059.893.893,0,0,0-.34.116,1.609,1.609,0,0,0-.34.276,1.923,1.923,0,0,0-.27.372,1.745,1.745,0,0,0-.187.427,1.324,1.324,0,0,0-.068.423.763.763,0,0,0,.07.351.465.465,0,0,0,.46.261.774.774,0,0,0,.34-.116,1.394,1.394,0,0,0,.34-.276,1.706,1.706,0,0,0,.27-.372,1.731,1.731,0,0,0,.187-.419" fill="#3b3b3b"/>
    <polygon points="25.297 31.85 25.297 46.46 7.683 36.302 7.6 21.671 25.297 31.85" stroke="#464646" stroke-linecap="round" stroke-linejoin="round" fill="url(#Siemens_-_Light_gray-3)"/>
  </g>
</svg>
