<svg id="Image" xmlns="http://www.w3.org/2000/svg" xmlns:xlink="http://www.w3.org/1999/xlink" viewBox="0 0 48 48">
  <defs>
    <linearGradient id="linear-gradient" x1="4.75" y1="48.75" x2="43.25" y2="10.25" gradientTransform="matrix(1, 0, 0, -1, 0, 50)" gradientUnits="userSpaceOnUse">
      <stop offset="0" stop-color="#f8f8f9"/>
      <stop offset="0.5" stop-color="#d5d4d4"/>
      <stop offset="0.63" stop-color="#d1cfce"/>
      <stop offset="0.779" stop-color="#c4c1c1"/>
      <stop offset="0.938" stop-color="#aba8a7"/>
      <stop offset="0.99" stop-color="#a29f9d"/>
    </linearGradient>
    <linearGradient id="linear-gradient-2" x1="7.25" y1="47.25" x2="40.75" y2="13.75" gradientTransform="matrix(1, 0, 0, -1, 0, 50)" gradientUnits="userSpaceOnUse">
      <stop offset="0" stop-color="#d9ecf1"/>
      <stop offset="0.221" stop-color="#d3e8ee"/>
      <stop offset="0.542" stop-color="#c3dfe8"/>
      <stop offset="0.921" stop-color="#a2ccdb"/>
      <stop offset="1" stop-color="#9bc8d7"/>
    </linearGradient>
    <linearGradient id="linear-gradient-3" x1="24" y1="6.5" x2="24" y2="13.5" gradientTransform="matrix(1, 0, 0, -1, 0, 50)" gradientUnits="userSpaceOnUse">
      <stop offset="0" stop-color="#bcb9b8"/>
      <stop offset="0.26" stop-color="#b7b4b3"/>
      <stop offset="0.567" stop-color="#a7a4a3"/>
      <stop offset="0.897" stop-color="#8f8b89"/>
      <stop offset="1" stop-color="#868281"/>
    </linearGradient>
    <linearGradient id="Siemens_-_Mid_gray" data-name="Siemens - Mid gray" x1="14.077" y1="9.328" x2="29.046" y2="24.298" gradientUnits="userSpaceOnUse">
      <stop offset="0" stop-color="#fff"/>
      <stop offset="1" stop-color="#bebdbd"/>
    </linearGradient>
    <linearGradient id="New_Gradient_Swatch_2" data-name="New Gradient Swatch 2" x1="18.037" y1="23.115" x2="28.904" y2="33.981" gradientUnits="userSpaceOnUse">
      <stop offset="0" stop-color="#73b4c8"/>
      <stop offset="1" stop-color="#177492"/>
    </linearGradient>
    <linearGradient id="New_Gradient_Swatch_2-2" x1="13.297" y1="10.108" x2="18.196" y2="15.007" xlink:href="#New_Gradient_Swatch_2"/>
    <linearGradient id="linear-gradient-4" x1="25.153" y1="10.41" x2="29.483" y2="14.74" xlink:href="#New_Gradient_Swatch_2"/>
    <linearGradient id="Siemens_-_Mid_gray-2" x1="29.086" y1="11.443" x2="32.563" y2="14.919" xlink:href="#Siemens_-_Mid_gray"/>
    <linearGradient id="Siemens_-_Mid_gray-3" x1="29.183" y1="10.293" x2="32.466" y2="13.576" xlink:href="#Siemens_-_Mid_gray"/>
  </defs>
  <g>
    <g id="Monitor">
      <rect x="1.5" y="4.5" width="45" height="32" fill="url(#linear-gradient)"/>
      <g>
        <rect x="3.5" y="6.5" width="41" height="26" fill="url(#linear-gradient-2)"/>
        <path d="M45,33H3V6H45ZM4,32H44V7H4Z" fill="#4e4a48"/>
      </g>
      <g>
        <polygon points="34.5 43.5 13.5 43.5 13.5 40.72 20.159 36.5 27.841 36.5 34.5 40.72 34.5 43.5" fill="url(#linear-gradient-3)"/>
        <path d="M47,4H1V37H18.436L13,40.444V44H35V40.444L29.564,37H47ZM34,41V43H14V41L20.305,37H27.7ZM46,36H2V5H46Z" fill="#4e4a48"/>
      </g>
      <rect x="18" y="40" width="12" height="1" fill="#767271"/>
    </g>
    <g>
      <path d="M26.725,10.826H18.743a3.4,3.4,0,0,0-.242-.362l-.012-.016a3.476,3.476,0,0,0-.609-.615l-.034-.026a3.45,3.45,0,0,0-.31-.211l-.061-.037a3.433,3.433,0,0,0-.767-.327c-.034-.01-.07-.018-.1-.027-.1-.026-.207-.048-.313-.064-.039-.007-.078-.013-.119-.018a3.312,3.312,0,0,0-.426-.029,3.464,3.464,0,0,0-3.464,3.464,3.367,3.367,0,0,0,.026.4c.005.041.012.082.019.123.014.091.03.182.051.271.011.044.022.088.034.132.025.088.053.174.084.259.014.037.026.075.041.112a3.5,3.5,0,0,0,.161.345v0a3.428,3.428,0,0,0,.2.327c.021.029.043.057.064.085.056.075.114.148.175.218.027.031.054.061.082.091.064.067.13.132.2.194.027.024.053.049.08.072a3.276,3.276,0,0,0,.3.233L20.3,26.7h6.351L19.5,14.29h7.23Z" fill="url(#Siemens_-_Mid_gray)"/>
      <path d="M16.265,25.848H30.676A2.32,2.32,0,0,1,33,28.168v1.721a0,0,0,0,1,0,0H13.945a0,0,0,0,1,0,0V28.168A2.32,2.32,0,0,1,16.265,25.848Z" fill="url(#New_Gradient_Swatch_2)"/>
      <path d="M19.21,12.558a3.464,3.464,0,1,1-3.464-3.464A3.463,3.463,0,0,1,19.21,12.558Zm-3.464-.992a.992.992,0,1,0,.992.992A.992.992,0,0,0,15.746,11.566Z" fill="url(#New_Gradient_Swatch_2-2)"/>
      <rect x="25.875" y="9.689" width="2.887" height="5.773" fill="url(#linear-gradient-4)"/>
      <polygon points="33.081 14.401 31.144 15.462 28.237 13.877 28.237 12.291 31.144 13.877 32.38 13.2 34.098 13.172 33.081 14.401" fill="url(#Siemens_-_Mid_gray-2)"/>
      <g>
        <polygon points="33.081 10.714 31.144 9.653 28.237 11.239 28.237 12.824 31.144 11.239 32.38 11.916 34.098 11.943 33.081 10.714" fill="url(#Siemens_-_Mid_gray-3)"/>
        <g>
          <path d="M17.588,12.558A1.842,1.842,0,1,0,15.746,14.4,1.844,1.844,0,0,0,17.588,12.558Zm-2.834,0a.992.992,0,1,1,.992.991A.992.992,0,0,1,14.754,12.558Z" fill="#464646"/>
          <path d="M31.144,13.877l-2.383-1.3v-.039l2.383-1.3,1.236.677,1.718.027-1.017-1.229L31.144,9.653l-2.383,1.3V9.689H25.875v1.137H18.743c-.021-.037-.048-.07-.07-.105-.039-.062-.078-.121-.12-.18-.018-.025-.033-.052-.052-.077l-.012-.016c-.023-.03-.055-.051-.079-.08a3.471,3.471,0,0,0-.447-.452c-.03-.025-.052-.059-.083-.083l-.034-.026c-.028-.021-.059-.039-.087-.059-.051-.037-.1-.072-.154-.1-.024-.015-.045-.033-.069-.047l-.061-.037-.005.01h0l.006-.01c-.036-.021-.079-.03-.116-.05a3.562,3.562,0,0,0-.53-.226c-.042-.013-.078-.039-.121-.051s-.07-.018-.1-.027-.055-.01-.081-.017c-.052-.012-.1-.022-.156-.032-.026,0-.05-.011-.076-.015s-.078-.013-.119-.018a3.312,3.312,0,0,0-.426-.029,3.463,3.463,0,0,0-3.464,3.464h0a3.367,3.367,0,0,0,.026.4c.005.041.012.082.019.123s.012.065.018.1.015.086.025.129c0,.015.005.03.008.044.011.044.022.088.034.132.025.088.053.174.084.259.014.037.026.075.041.112l.008.017c.013.032.029.062.043.093.035.079.069.16.11.235v0c.043.079.093.153.142.228.018.028.034.058.053.085l.008.014c.021.029.043.057.064.085.056.075.114.148.175.218.027.031.054.061.082.091.011.012.024.022.035.034.032.033.064.063.1.095s.043.044.067.065.052.049.079.072a3.276,3.276,0,0,0,.3.233l6,10.423H15.917a1.972,1.972,0,0,0-1.972,1.972v2.069H33V27.82a1.972,1.972,0,0,0-1.972-1.972H26.156L19.5,14.289h6.38v1.173h2.886v-1.3l2.383,1.3L33.081,14.4,34.1,13.172,32.38,13.2Zm-17.272.495a2.567,2.567,0,0,1-.282-.341l-.027-.044a2.555,2.555,0,0,1-.21-.385l-.025-.061a2.592,2.592,0,0,1-.128-.412c-.008-.035-.014-.071-.021-.108a2.624,2.624,0,0,1-.047-.463h0A2.59,2.59,0,0,1,16.208,9.99c.043.008.086.017.128.027.079.018.152.046.228.071a2.643,2.643,0,0,1,.4.168c.062.034.127.064.187.1.038.024.08.054.122.084s.1.082.15.124a2.638,2.638,0,0,1,.347.353c.033.04.069.078.1.12s.059.086.087.13A2.524,2.524,0,0,1,18.2,13.44l-.067.181a2.6,2.6,0,0,1-4.189.818C13.917,14.417,13.894,14.4,13.872,14.372ZM26.646,26.7h4.378a1.123,1.123,0,0,1,1.122,1.122v1.219H14.8V27.82A1.123,1.123,0,0,1,15.917,26.7H26.646Zm-1.471-.85H20.787l-5.7-9.893a3.437,3.437,0,0,0,3.536-1.473l.134.232Zm.7-12.408H19.083a3.126,3.126,0,0,0,0-1.764h6.792Zm2.036,1.172H26.725V10.539h1.186Z" fill="#464646"/>
        </g>
      </g>
    </g>
  </g>
</svg>
