<svg id="Livello_2" data-name="Livello 2" xmlns="http://www.w3.org/2000/svg" xmlns:xlink="http://www.w3.org/1999/xlink" viewBox="0 0 48 48">
  <defs>
    <linearGradient id="linear-gradient" x1="36.24" y1="31.731" x2="28.376" y2="44.511" gradientTransform="matrix(1, 0, 0, -1, 0, 48)" gradientUnits="userSpaceOnUse">
      <stop offset="0" stop-color="#bebebe"/>
      <stop offset="0.045" stop-color="#c4c4c4"/>
      <stop offset="0.268" stop-color="#dedede"/>
      <stop offset="0.497" stop-color="#f0f0f0"/>
      <stop offset="0.736" stop-color="#fbfbfb"/>
      <stop offset="1" stop-color="#fff"/>
    </linearGradient>
    <linearGradient id="linear-gradient-2" x1="22.317" y1="45.227" x2="30.115" y2="35.979" gradientTransform="matrix(1, 0, 0, -1, 0, 48)" gradientUnits="userSpaceOnUse">
      <stop offset="0" stop-color="#fff"/>
      <stop offset="0.221" stop-color="#f8f8f8"/>
      <stop offset="0.541" stop-color="#e5e5e5"/>
      <stop offset="1" stop-color="#c6c6c6"/>
      <stop offset="1" stop-color="#bebebe"/>
    </linearGradient>
    <linearGradient id="linear-gradient-3" x1="7.619" y1="22.786" x2="7.623" y2="9.054" gradientTransform="matrix(0.722, -0.692, -0.692, -0.722, 33.225, 34.642)" gradientUnits="userSpaceOnUse">
      <stop offset="0" stop-color="#f3f3f3"/>
      <stop offset="0.5" stop-color="#cdcccc"/>
      <stop offset="0.63" stop-color="#c8c7c7"/>
      <stop offset="0.779" stop-color="#bababa"/>
      <stop offset="0.938" stop-color="#a2a2a1"/>
      <stop offset="0.99" stop-color="#989898"/>
    </linearGradient>
    <linearGradient id="linear-gradient-4" x1="275.658" y1="270.102" x2="287.862" y2="256.82" gradientTransform="translate(-318.757 -402.204) scale(1.467 1.339)" xlink:href="#linear-gradient-3"/>
    <linearGradient id="linear-gradient-5" x1="6.045" y1="22.333" x2="6.198" y2="8.823" xlink:href="#linear-gradient-3"/>
    <linearGradient id="linear-gradient-6" x1="4.272" y1="21.854" x2="4.266" y2="8.496" xlink:href="#linear-gradient-3"/>
    <linearGradient id="linear-gradient-7" x1="2.22" y1="21.34" x2="2.402" y2="7.997" xlink:href="#linear-gradient-3"/>
    <linearGradient id="linear-gradient-8" x1="0.182" y1="20.596" x2="0.127" y2="7.285" xlink:href="#linear-gradient-3"/>
    <linearGradient id="linear-gradient-9" x1="-1.833" y1="20.085" x2="-1.779" y2="6.834" xlink:href="#linear-gradient-3"/>
    <linearGradient id="linear-gradient-10" x1="-4.154" y1="19.379" x2="-4.139" y2="6.087" xlink:href="#linear-gradient-3"/>
    <linearGradient id="linear-gradient-11" x1="-6.14" y1="18.971" x2="-6.079" y2="5.636" xlink:href="#linear-gradient-3"/>
    <linearGradient id="linear-gradient-12" x1="-8.296" y1="18.101" x2="-8.217" y2="4.921" xlink:href="#linear-gradient-3"/>
    <linearGradient id="linear-gradient-13" x1="-10.251" y1="17.719" x2="-10.19" y2="4.34" xlink:href="#linear-gradient-3"/>
    <linearGradient id="linear-gradient-14" x1="-12.26" y1="17.136" x2="-12.115" y2="3.807" xlink:href="#linear-gradient-3"/>
    <linearGradient id="linear-gradient-15" x1="-14.211" y1="16.553" x2="-14.094" y2="3.338" xlink:href="#linear-gradient-3"/>
    <linearGradient id="linear-gradient-16" x1="-16.373" y1="15.923" x2="-16.227" y2="2.723" xlink:href="#linear-gradient-3"/>
    <linearGradient id="linear-gradient-17" x1="-18.237" y1="15.273" x2="-18.306" y2="2.165" xlink:href="#linear-gradient-3"/>
  </defs>
  <g id="g1088">
    <path id="path1259" d="M31.884,23.774a2.773,2.773,0,0,0,.993-.586,3.532,3.532,0,0,0,1.233-2.817A5.637,5.637,0,0,0,33.935,19a9.5,9.5,0,0,0-3.129-4.661c-.507-.459-1.786-1.708-2.089-1.957a11.044,11.044,0,0,0-3.576-1.676,4.052,4.052,0,0,0-1.664-.119c-.88.167-1.46.34-1.809.944a1.848,1.848,0,0,0-.3.933l.036,1.4-.532-1.709a9.318,9.318,0,0,1-.282-1.481c-.039-.485-.028-2.08,0-2.131.021-.035-.021.178.207.265a5.079,5.079,0,0,0,1.762.1,6.928,6.928,0,0,0,2.659-.656c.427-.156.837-.3.917-.329l.078-.033L23.309,3.965l.337-.682,2.741-.68,2.8.039A12.516,12.516,0,0,1,31.818,4a14.456,14.456,0,0,1,5.49,5.7l.912,2.139.622,3.263,0,3.294c0,.016.14-.369-.553,1.068-1.218,2.525-2.628-2.2-2.659-1.981a15.974,15.974,0,0,0-.091,2.152,13.334,13.334,0,0,0,.71,3.63.7.7,0,0,1,.131.145c-.008.008-.019.109-.041.194a.892.892,0,0,1-.292.477c-.048.019-.785,0-2.188.01l-2.09-.11-.709.058Zm4.451-9.693c.729-1.32,1.292-2.385,1.3-2.413s-.169-.527-.229-.722c-1-2.488-2.787-4.264-5.8-6.49a9.46,9.46,0,0,0-1.56-.912c-.022,0-3.164,4.925-3.195,5.006-.023.062.069.209.664,1.132,2.241,3.159,4.084,5.1,6.549,6.305a5.075,5.075,0,0,0,.944.384C35.024,16.367,35.6,15.4,36.335,14.081Z" fill="#74b5c8"/>
    <path id="path1315" d="M34.444,16.162a12.077,12.077,0,0,1-3.836-2.679,25.7,25.7,0,0,1-3.224-4.117l-.517-.81,1.546-2.449c.83-1.316,1.644-2.438,1.651-2.447a17.081,17.081,0,0,1,2.73,1.714c2.117,1.724,3.844,3.272,4.5,5.6l.332.743L36.34,13.969c-.714,1.249-1.271,2.372-1.285,2.373A2.853,2.853,0,0,1,34.444,16.162Z" fill="url(#linear-gradient)"/>
    <path id="path935" d="M30.09,3.575,26.867,8.556c1.946,3.185,4.309,6.312,8.133,7.819l2.617-4.751C36.386,7.743,33.373,5.48,30.09,3.575Z" fill="none" stroke="#464646" stroke-width="0.2"/>
    <path id="path1325" d="M21.82,9.1a3.179,3.179,0,0,1-1.026-.427c0-.021.861-1.586,1.624-2.867C24,3.152,23.61,3.726,24.761,3.345A8.7,8.7,0,0,1,27.3,2.884,3.844,3.844,0,0,1,28.93,3.1l.3.168L27.8,5.624,26.21,8.141l-.867.288c-.513.17-1.2.451-1.473.523A5.273,5.273,0,0,1,21.82,9.1Z" fill="url(#linear-gradient-2)"/>
    <path id="path937" d="M23.664,3.655,20.611,8.727c2.292,1.093,3.877.035,5.68-.533l3.051-4.951C28.077,2.715,26.188,2.881,23.664,3.655Z" fill="none" stroke="#464646" stroke-width="0.2"/>
    <path id="path1313" d="M35.9,23.17a16.544,16.544,0,0,1-.528-4.986l.124-.775.45-.881c.247-.485.78-1.694,1.233-2.607A16.3,16.3,0,0,1,38,12.337a26.911,26.911,0,0,1,.516,5.4l.109.933-1.2,2.337c-.618,1.207-1.133,2.3-1.188,2.4l-.147.048Z" fill="#bebebe"/>
    <path id="path939" d="M35.5,17.39c-.369.284.027,6.4.681,6.138l2.36-4.739a24.812,24.812,0,0,0-.583-6.5Z" fill="none" stroke="#464646" stroke-width="0.2"/>
    <g id="g991-7-9-7-1">
      <path id="path945-3-3-7-2-6" d="M22.863,14.286a2.523,2.523,0,0,1,.326-1.19,1.466,1.466,0,0,1,1.32-.173,4.079,4.079,0,0,1,1.417.521,13.8,13.8,0,0,1,1.516.882,7.742,7.742,0,0,1,1.607,1.228,9.969,9.969,0,0,1,2.089,2.431,8.383,8.383,0,0,1,.794,1.482,2.691,2.691,0,0,1,.3,1.338,1.933,1.933,0,0,1-.355.764l-.3.105" fill="none" stroke="#f90000" stroke-width="0.029"/>
      <path id="path945-2-6-6-6-3-1" d="M23.738,14.506a3.136,3.136,0,0,1,2.289.422,11.475,11.475,0,0,1,5.536,6.7" fill="none" stroke="#000" stroke-width="0.029"/>
    </g>
    <path id="path1343" d="M29.342,15.714C31.7,18.175,32.755,21,31.691,22.027s-3.842-.135-6.206-2.594-3.422-5.288-2.364-6.32,3.834.122,6.2,2.579" stroke="#464646" stroke-linecap="square" stroke-width="0.31" fill="url(#linear-gradient-3)"/>
    <path id="path2447" d="M30.148,23.619c0-.117.223-.142.368-.217a1.194,1.194,0,0,0,.619-.775c.026-.125.066-.367.24-.432a.972.972,0,0,0,.573-.445,1.653,1.653,0,0,0,.222-.95,2.419,2.419,0,0,0-.084-.81,10.944,10.944,0,0,0-3.106-4.727,8.576,8.576,0,0,0-4.466-2.612,1.556,1.556,0,0,0-1.647.619,1.387,1.387,0,0,0-.145.613c0,.08-.21.152-.3.191a1.13,1.13,0,0,0-.585.731l-.064.2-.17-.585a5.392,5.392,0,0,1-.126-2.063c.058-1.21.679-1.57,1.939-1.729a8.07,8.07,0,0,1,6.047,2.353,15.313,15.313,0,0,1,4.352,5.862,4.905,4.905,0,0,1-.023,3.126c-.405,1.115-1.658,1.881-3.414,2.133a.347.347,0,0,1-.341-.284Z" fill="url(#linear-gradient-4)"/>
    <path id="path1343-1" d="M28.877,16.539c2.138,2.228,3.136,4.741,2.23,5.615s-3.374-.222-5.514-2.448-3.143-4.741-2.242-5.621,3.366.211,5.508,2.435" fill="#3c91af" stroke="#464646" stroke-linecap="square" stroke-width="0.11"/>
    <path id="path1343-4" d="M28.307,17.038c2.362,2.462,3.464,5.239,2.463,6.2s-3.727-.245-6.091-2.7S21.206,15.3,22.2,14.328s3.719.232,6.086,2.689" stroke="#464646" stroke-linecap="square" stroke-width="0.11" fill="url(#linear-gradient-5)"/>
    <path id="path1343-1-6" d="M27.959,18.13c2.137,2.228,3.135,4.741,2.229,5.615s-3.374-.222-5.513-2.448-3.144-4.741-2.243-5.621,3.366.21,5.508,2.434" fill="#3c91af" stroke="#464646" stroke-linecap="square" stroke-width="0.11"/>
    <path id="path1343-4-2" d="M27.333,18.689c2.361,2.462,3.464,5.238,2.463,6.2s-3.728-.245-6.092-2.7-3.473-5.239-2.478-6.211,3.719.232,6.086,2.69" stroke="#464646" stroke-linecap="square" stroke-width="0.11" fill="url(#linear-gradient-6)"/>
    <path id="path1343-1-6-6" d="M26.869,19.957C29.007,22.186,30,24.7,29.1,25.572s-3.373-.221-5.513-2.447-3.143-4.742-2.242-5.621,3.366.21,5.508,2.434" fill="#3c91af" stroke="#464646" stroke-linecap="square" stroke-width="0.11"/>
    <path id="rect2491" d="M22.829,10.25h1.8a.19.19,0,0,1,0,.379h-1.8a.19.19,0,0,1,0-.379Z" fill="#74b5c8"/>
    <path id="path943" d="M21.774,15.558a6.448,6.448,0,0,1-.213-1.121c-.07-.444-.131-.7-.161-1.042a5.38,5.38,0,0,1-.008-.911,2.8,2.8,0,0,1,.137-.68,1.69,1.69,0,0,1,.261-.487,1.481,1.481,0,0,1,.361-.33,1.943,1.943,0,0,1,.439-.207,3.476,3.476,0,0,1,.5-.122,7.467,7.467,0,0,1,6.082,2.122c2.241,1.963,4.494,4.44,4.828,6.729.361,2.475-.527,4.19-3.868,4.614l5.678-.037c.281.049.488-.085.567-.538l2.458-5.094c0-1.047.024-2.206-.048-3.305A15.51,15.51,0,0,0,38.6,13.57c-.078-.467-.183-.931-.307-1.389q-.126-.462-.293-.911c-.1-.277-.2-.456-.343-.817-1.115-2.8-4.13-5.659-7.107-7.289a6.583,6.583,0,0,0-3.1-.642,18.49,18.49,0,0,0-3.743.717L20.532,8.564a21.53,21.53,0,0,0,.113,2.719c.064.4.179.88.315,1.386s.293,1.032.443,1.51.263,1.08.367,1.389,0-.007,0-.007Z" fill="none" stroke="#464646" stroke-width="0.2"/>
    <path id="path1343-4-2-2" d="M26.281,20.43c2.362,2.462,3.464,5.238,2.463,6.2s-3.727-.245-6.091-2.7-3.473-5.239-2.478-6.211,3.719.232,6.086,2.69" stroke="#464646" stroke-linecap="square" stroke-width="0.11" fill="url(#linear-gradient-7)"/>
    <path id="path1343-1-6-2" d="M25.749,21.9c2.138,2.228,3.136,4.741,2.23,5.615s-3.374-.221-5.514-2.448-3.143-4.741-2.242-5.62,3.366.21,5.508,2.434" fill="#3c91af" stroke="#464646" stroke-linecap="square" stroke-width="0.11"/>
    <path id="path1343-4-2-0" d="M25.169,22.375c2.362,2.461,3.464,5.238,2.463,6.2s-3.727-.244-6.092-2.7-3.473-5.239-2.477-6.21,3.718.232,6.085,2.689" stroke="#464646" stroke-linecap="square" stroke-width="0.11" fill="url(#linear-gradient-8)"/>
    <path id="path1343-1-6-6-5" d="M24.742,23.606c2.138,2.228,3.136,4.741,2.23,5.615S23.6,29,21.458,26.773s-3.143-4.741-2.242-5.621,3.366.21,5.508,2.434" fill="#3c91af" stroke="#464646" stroke-linecap="square" stroke-width="0.11"/>
    <path id="path1343-4-2-2-3" d="M24.117,24.116c2.362,2.462,3.464,5.238,2.463,6.2s-3.727-.245-6.091-2.705-3.474-5.239-2.478-6.21,3.719.232,6.085,2.689" stroke="#464646" stroke-linecap="square" stroke-width="0.11" fill="url(#linear-gradient-9)"/>
    <path id="path1343-1-6-69" d="M23.476,25.731c2.138,2.228,3.136,4.741,2.229,5.615s-3.373-.221-5.513-2.447-3.143-4.742-2.242-5.621,3.366.21,5.508,2.434" fill="#3c91af" stroke="#464646" stroke-linecap="square" stroke-width="0.11"/>
    <path id="path1343-4-2-3" d="M22.9,26.222c2.362,2.462,3.464,5.238,2.463,6.2s-3.728-.245-6.092-2.7-3.473-5.239-2.477-6.211,3.718.232,6.085,2.69" stroke="#464646" stroke-linecap="square" stroke-width="0.11" fill="url(#linear-gradient-10)"/>
    <path id="path1343-1-6-6-6" d="M22.469,27.472c2.138,2.228,3.136,4.741,2.23,5.615s-3.374-.222-5.514-2.448-3.143-4.741-2.242-5.621,3.366.21,5.508,2.434" fill="#3c91af" stroke="#464646" stroke-linecap="square" stroke-width="0.11"/>
    <path id="path1343-4-2-2-3-5" d="M21.844,27.963c2.362,2.462,3.464,5.239,2.463,6.2s-3.727-.245-6.091-2.7-3.474-5.239-2.478-6.21,3.719.232,6.085,2.689" stroke="#464646" stroke-linecap="square" stroke-width="0.11" fill="url(#linear-gradient-11)"/>
    <path id="path1343-1-6-2-6" d="M21.313,29.435c2.137,2.228,3.135,4.741,2.229,5.615s-3.374-.221-5.513-2.448-3.144-4.741-2.243-5.62,3.366.21,5.508,2.434" fill="#3c91af" stroke="#464646" stroke-linecap="square" stroke-width="0.11"/>
    <path id="path1343-4-2-0-1" d="M20.732,29.907c2.362,2.462,3.464,5.239,2.463,6.2s-3.727-.244-6.092-2.7-3.473-5.239-2.477-6.21,3.719.232,6.085,2.689" stroke="#464646" stroke-linecap="square" stroke-width="0.11" fill="url(#linear-gradient-12)"/>
    <path id="path1343-1-6-6-5-9" d="M20.287,31.176c2.138,2.228,3.135,4.741,2.229,5.615S19.143,36.569,17,34.343,13.86,29.6,14.761,28.722s3.366.21,5.508,2.434" fill="#3c91af" stroke="#464646" stroke-linecap="square" stroke-width="0.11"/>
    <path id="path1343-4-2-2-3-5-9" d="M19.681,31.648c2.362,2.462,3.464,5.238,2.463,6.2s-3.727-.244-6.091-2.7-3.474-5.239-2.478-6.21,3.719.232,6.085,2.689" stroke="#464646" stroke-linecap="square" stroke-width="0.11" fill="url(#linear-gradient-13)"/>
    <path id="path1343-1-6-1" d="M19.241,32.956c2.137,2.228,3.135,4.741,2.229,5.615s-3.373-.221-5.513-2.448-3.144-4.741-2.243-5.62,3.366.21,5.508,2.434" fill="#3c91af" stroke="#464646" stroke-linecap="square" stroke-width="0.11"/>
    <path id="path1343-4-2-6" d="M18.642,33.41c2.362,2.462,3.464,5.238,2.463,6.2s-3.728-.245-6.092-2.7S11.54,31.671,12.536,30.7s3.718.232,6.085,2.69" stroke="#464646" stroke-linecap="square" stroke-width="0.11" fill="url(#linear-gradient-14)"/>
    <path id="path1343-1-6-6-2" d="M18.234,34.678c2.137,2.229,3.135,4.741,2.229,5.615s-3.373-.221-5.513-2.447-3.144-4.742-2.243-5.621,3.366.21,5.508,2.434" fill="#3c91af" stroke="#464646" stroke-linecap="square" stroke-width="0.11"/>
    <path id="path1343-4-2-2-3-5-9-2" d="M17.59,35.151c2.362,2.462,3.464,5.239,2.463,6.2s-3.727-.245-6.091-2.7-3.474-5.239-2.478-6.21,3.719.232,6.085,2.689" stroke="#464646" stroke-linecap="square" stroke-width="0.11" fill="url(#linear-gradient-15)"/>
    <path id="path1343-1-6-2-9" d="M17.059,36.678c2.137,2.229,3.135,4.741,2.229,5.615s-3.374-.221-5.513-2.447-3.144-4.742-2.243-5.621,3.366.21,5.508,2.434" fill="#3c91af" stroke="#464646" stroke-linecap="square" stroke-width="0.11"/>
    <path id="path1343-4-2-0-8" d="M16.478,37.1c2.362,2.462,3.464,5.239,2.463,6.2s-3.727-.244-6.092-2.7-3.473-5.239-2.477-6.21,3.719.232,6.085,2.689" stroke="#464646" stroke-linecap="square" stroke-width="0.11" fill="url(#linear-gradient-16)"/>
    <path id="path1343-1-6-6-5-5" d="M16.07,38.364c2.138,2.228,3.135,4.741,2.229,5.615s-3.373-.222-5.513-2.448-3.143-4.742-2.242-5.621,3.365.21,5.507,2.434" fill="#3c91af" stroke="#464646" stroke-linecap="square" stroke-width="0.11"/>
    <path id="path1343-4-2-2-3-5-9-2-3" d="M15.427,38.836c2.362,2.462,3.464,5.238,2.463,6.2s-3.727-.245-6.091-2.7S8.325,37.1,9.321,36.125s3.719.232,6.085,2.689" stroke="#464646" stroke-linecap="square" stroke-width="0.11" fill="url(#linear-gradient-17)"/>
    <path id="path1343-1-6-6-5-5-4" d="M16.787,45.378a1.246,1.246,0,0,0,.677-1.246,4.86,4.86,0,0,0-.662-2.121,14.211,14.211,0,0,0-4.423-4.374L12.1,37.5l.076.252.087.057a14.046,14.046,0,0,1,4.353,4.3,4.692,4.692,0,0,1,.638,2.024,1.015,1.015,0,0,1-.553,1.052l-.1.044.086.191Z" fill="#464646"/>
    <path id="path1343-1-6-6-5-5-4-0" d="M16.6,45.3a1.246,1.246,0,0,0,.675-1.246,4.867,4.867,0,0,0-.662-2.122,14.173,14.173,0,0,0-4.422-4.373l-.215-.1.11.22.093.118a13.491,13.491,0,0,1,4.248,4.231,4.692,4.692,0,0,1,.638,2.025,1.017,1.017,0,0,1-.551,1.053l-.1.042-.161.071Z" fill="#3c91af"/>
  </g>
</svg>
