<svg version="1.1" id="Livello_3" xmlns="http://www.w3.org/2000/svg" xmlns:xlink="http://www.w3.org/1999/xlink" x="0px" y="0px"
	  viewBox="0 0 48 48" enable-background="new 0 0 48 48" xml:space="preserve">
<path id="path1610" fill="none" stroke="#474747" stroke-width="1" d="M9.309,17.059c0.062,3.531,0.122,7.064,1.295,8.905
	s3.456,1.988,5.457-0.798c2.002-2.786,3.74-8.566,5.217-12.407c1.478-3.841,2.701-5.774,4.089-6.562
	c1.387-0.786,2.941-0.429,4.254,2.631c1.313,3.061,2.388,8.833,3.463,14.604"/>
<linearGradient id="polyline26_1_" gradientUnits="userSpaceOnUse" x1="-327.1904" y1="-953.8457" x2="-347.191" y2="-933.8451" gradientTransform="matrix(-0.7429 0 0 0.7417 -216.9429 725.3896)">
	<stop  offset="0" style="stop-color:#F3F3F3"/>
	<stop  offset="0.5" style="stop-color:#CDCCCC"/>
	<stop  offset="0.63" style="stop-color:#C8C7C7"/>
	<stop  offset="0.779" style="stop-color:#BABABA"/>
	<stop  offset="0.938" style="stop-color:#A2A2A1"/>
	<stop  offset="0.99" style="stop-color:#989898"/>
</linearGradient>
<path id="polyline26" fill="url(#polyline26_1_)" d="M20.542,27.225v-3.708h26v3.708"/>
<linearGradient id="polyline28_1_" gradientUnits="userSpaceOnUse" x1="-322.1904" y1="-943.8467" x2="-352.1914" y2="-913.8458" gradientTransform="matrix(-0.7429 0 0 0.7417 -216.9429 725.3896)">
	<stop  offset="0" style="stop-color:#FFFFFF"/>
	<stop  offset="0.232" style="stop-color:#FAFAFA"/>
	<stop  offset="0.496" style="stop-color:#EDEDED"/>
	<stop  offset="0.775" style="stop-color:#D7D6D6"/>
	<stop  offset="1" style="stop-color:#BFBEBE"/>
</linearGradient>
<path id="polyline28" fill="url(#polyline28_1_)" d="M46.542,27.225v18.542h-26V27.225"/>
<path id="rect36" fill="#6F6F6F" d="M43.941,24.629h1.486v1.483h-1.486V24.629z"/>
<path id="rect38" fill="#6F6F6F" d="M40.97,24.629h1.486v1.483H40.97V24.629z"/>
<path id="rect40" fill="#6F6F6F" d="M37.999,24.629h1.485v1.483h-1.485V24.629z"/>
<path id="line42" fill="none" stroke="#6F6F6F" stroke-width="1" stroke-miterlimit="10" d="M20.913,27.225H46.17"/>
<path id="rect46" fill="none" stroke="#474747" stroke-width="1" stroke-miterlimit="10" d="M20.67,23.475h26v22.25h-26V23.475z"/>
<linearGradient id="path15-5_1_" gradientUnits="userSpaceOnUse" x1="419.9873" y1="-497.6504" x2="407.6361" y2="-485.4927" gradientTransform="matrix(0.6788 0 0 -0.6726 -248.2334 -295.0229)">
	<stop  offset="0" style="stop-color:#B9B9B9"/>
	<stop  offset="1" style="stop-color:#B9B9B9;stop-opacity:0"/>
</linearGradient>
<path id="path15-5"  fill="url(#path15-5_1_)" d="M33.544,29.501c-3.761,0-6.839,3.135-6.839,6.966
	c0,3.832,3.078,6.966,6.839,6.966c3.762,0,6.84-3.134,6.84-6.966C40.384,32.636,37.306,29.501,33.544,29.501z"/>
<path id="path984"  fill="#6F6F6F" stroke="#6F6F6F" stroke-width="0.0189" d="
	M30.565,41.796c-0.031-0.327-0.067-0.63-0.079-0.673c-0.012-0.042-0.174-0.145-0.359-0.227l-0.339-0.149l-0.348-0.771l-0.349-0.771
	l0.204-0.38l0.204-0.38l-0.125-0.264l-0.124-0.263l-0.399-0.106c-0.339-0.089-0.454-0.147-0.754-0.381
	c-0.285-0.222-0.36-0.307-0.384-0.434c-0.075-0.404-0.17-0.63-0.297-0.705c-0.129-0.076-0.129-0.076-0.091-0.431
	c0.021-0.194,0.044-0.36,0.053-0.369c0.008-0.008,0.18,0.107,0.382,0.257l0.367,0.271l0.091,0.369
	c0.085,0.345,0.193,0.536,0.303,0.536c0.028,0,0.046-0.257,0.046-0.678V35.57h0.534h0.534l0.349-0.735l0.35-0.735l0.764-0.234
	c0.421-0.128,0.785-0.246,0.812-0.261c0.059-0.035-0.159-0.549-0.245-0.579c-0.033-0.012-0.507-0.188-1.052-0.39l-0.99-0.368
	l0.52-0.407c0.493-0.387,0.546-0.416,1.05-0.57l0.529-0.164l0.544,0.123c0.299,0.067,0.594,0.135,0.654,0.149
	c0.108,0.027,0.109,0.023,0.09-0.258c-0.012-0.167-0.051-0.319-0.094-0.368c-0.067-0.077-0.054-0.11,0.181-0.446l0.244-0.431
	l0.4-0.021l0.421,0.021l-0.285,0.436l-0.255,0.367l0.029,0.374c0.037,0.486-0.002,0.679-0.175,0.853
	c-0.184,0.185-0.349,0.185-1.131,0.004l-0.597-0.139l-0.409,0.124c-0.225,0.067-0.393,0.137-0.373,0.154
	c0.02,0.017,0.311,0.133,0.646,0.258l0.61,0.228l0.281,0.682c0.155,0.374,0.281,0.702,0.281,0.729s-0.443,0.185-0.984,0.352
	l-0.985,0.304l-0.406,0.803l-0.407,0.803h-0.416H29.17v0.488v0.488l0.274,0.101c0.26,0.096,0.279,0.114,0.395,0.371
	c0.119,0.269,0.122,0.271,0.294,0.252c0.095-0.011,0.38-0.039,0.632-0.063l0.46-0.044l0.514,0.483
	c0.492,0.462,0.535,0.49,1.013,0.679c0.572,0.225,0.787,0.396,0.865,0.69c0.066,0.248,0.051,0.316-0.26,1.117L33.1,41.448
	l-0.308,0.076c-0.796,0.197-0.765,0.18-0.977,0.54l-0.293,0.446l-0.399-0.119h-0.5L30.565,41.796z M31.44,41.436
	c0.079-0.14,0.18-0.265,0.223-0.278c0.044-0.013,0.275-0.076,0.514-0.141c0.239-0.064,0.44-0.122,0.448-0.13
	c0.056-0.06,0.39-1.003,0.372-1.05c-0.027-0.07-0.418-0.253-0.804-0.375c-0.221-0.07-0.337-0.154-0.711-0.516
	c-0.491-0.476-0.463-0.465-1.049-0.402l-0.279,0.029l-0.174,0.332l-0.173,0.333l0.23,0.504l0.231,0.503l0.389,0.189
	c0.214,0.104,0.396,0.197,0.405,0.206c0.01,0.01,0.045,0.255,0.079,0.546c0.035,0.29,0.063,0.534,0.064,0.542
	C31.215,41.781,31.317,41.652,31.44,41.436L31.44,41.436z"/>
<path id="path986"  fill="#6F6F6F" stroke="#6F6F6F" stroke-width="0.0189" d="M35.171,33.747
	v-0.711l0.336-0.092l0.336-0.092l0.07-0.335c0.073-0.352,0.128-0.421,0.331-0.422c0.269-0.002,0.273-0.02,0.127-0.449
	c-0.074-0.218-0.135-0.419-0.135-0.447c0-0.063,0.356-0.545,0.418-0.566c0.023-0.008,0.157,0.053,0.296,0.136l0.253,0.149
	l-0.137,0.188l-0.137,0.189l0.21,0.609c0.116,0.335,0.2,0.625,0.188,0.646c-0.012,0.021-0.133,0.051-0.267,0.067
	c-0.577,0.072-0.534,0.042-0.596,0.419l-0.055,0.337l-0.237,0.056c-0.35,0.081-0.399,0.117-0.399,0.287
	c0,0.122-0.054,0.201-0.302,0.444l-0.301,0.296V33.747z"/>
<path id="path988"  fill="#6F6F6F" stroke="#6F6F6F" stroke-width="0.0189" d="M34.451,36.502
	c-0.019-0.03-0.035-0.182-0.036-0.337c-0.002-0.332,0.115-0.63,0.372-0.94l0.172-0.207l0.144,0.315l0.145,0.315l-0.113,0.201
	c-0.081,0.143-0.106,0.243-0.089,0.349c0.023,0.145,0.017,0.151-0.215,0.233c-0.132,0.046-0.263,0.093-0.292,0.104
	C34.509,36.547,34.47,36.531,34.451,36.502L34.451,36.502z"/>
<path id="path990"  fill="#6F6F6F" stroke="#6F6F6F" stroke-width="0.0189" d="M36.539,33.997
	c-0.179-0.087-0.303-0.157-0.276-0.157s0.168-0.145,0.315-0.321l0.267-0.321h0.419h0.42l-0.03,0.116
	c-0.056,0.221-0.252,0.688-0.255,0.606c-0.006-0.145-0.241-0.1-0.397,0.077l-0.139,0.156L36.539,33.997z"/>
<path id="path1265"  fill="#B3B3B3" stroke="#6F6F6F" stroke-width="0.0189" d="
	M36.199,33.496c0.183-0.065,0.284-0.294,0.357-0.542c0.105-0.354,0.083-0.211,0.479-0.269c0.169-0.024,0.319-0.079,0.335-0.121
	c0.016-0.043-0.209-0.666-0.296-0.937c-0.162-0.502,0.013-0.508,0.109-0.508s0.346,0.145,0.911,0.727
	c0.603,0.62,0.938,0.872,0.399,0.874c-0.26,0-0.688,0.036-0.846,0.177c-0.136,0.12-0.296,0.186-0.505,0.206
	c-0.243,0.024-0.347,0.077-0.512,0.255c-0.161,0.175-0.188,0.32-0.362,0.317l-0.292-0.101L36.199,33.496z"/>
<path id="path32-8" fill="none" stroke="#474747" stroke-miterlimit="10" d="M33.621,29.389
	c-3.762,0-6.839,3.135-6.839,6.966c0,3.832,3.077,6.967,6.839,6.967s6.84-3.135,6.84-6.967
	C40.461,32.523,37.383,29.389,33.621,29.389z"/>
<linearGradient id="path127-6_1_" gradientUnits="userSpaceOnUse" x1="852.3037" y1="-1010.6021" x2="869.9593" y2="-1028.2576" gradientTransform="matrix(0.3302 0 0 -0.3363 -245.769 -305.3591)">
	<stop  offset="0" style="stop-color:#F3F3F3"/>
	<stop  offset="0.5" style="stop-color:#CDCCCC"/>
	<stop  offset="0.6296" style="stop-color:#C8C7C7"/>
	<stop  offset="0.7792" style="stop-color:#BABABA"/>
	<stop  offset="0.9383" style="stop-color:#A2A2A1"/>
	<stop  offset="0.99" style="stop-color:#989898"/>
</linearGradient>
<path id="path127-6" fill="url(#path127-6_1_)" stroke="#474747" stroke-linejoin="round" stroke-miterlimit="10" d="
	M41.306,38.493l1.379-0.498v-1.05l-1.379-0.498c-0.099-0.035-0.138-0.143-0.097-0.23l0.627-1.344l-0.729-0.741l-1.319,0.639
	c-0.092,0.045-0.195-0.003-0.227-0.092l-0.489-1.398h-1.03l-0.489,1.397c-0.031,0.088-0.139,0.134-0.227,0.092l-1.319-0.639
	l-0.729,0.742l0.627,1.343c0.04,0.087,0.001,0.196-0.096,0.231l-1.38,0.498v1.049l1.379,0.499c0.1,0.036,0.138,0.144,0.097,0.23
	l-0.627,1.344l0.729,0.743l1.319-0.638c0.083-0.04,0.19-0.001,0.227,0.104l0.489,1.411h1.03l0.489-1.411
	c0.039-0.111,0.14-0.147,0.227-0.105l1.319,0.639l0.729-0.742l-0.626-1.344C41.169,38.637,41.209,38.528,41.306,38.493
	L41.306,38.493z"/>
<linearGradient id="circle140-9_1_" gradientUnits="userSpaceOnUse" x1="858.6582" y1="-1016.9946" x2="863.6086" y2="-1021.9451" gradientTransform="matrix(0.3302 0 0 -0.3363 -245.769 -305.3591)">
	<stop  offset="0" style="stop-color:#FFFFFF"/>
	<stop  offset="0.2214" style="stop-color:#F7F8F8"/>
	<stop  offset="0.5415" style="stop-color:#E5E5E5"/>
	<stop  offset="0.92" style="stop-color:#C7C6C6"/>
	<stop  offset="1" style="stop-color:#BFBEBE"/>
</linearGradient>
<path id="circle140-9" fill="url(#circle140-9_1_)" stroke="#474747" stroke-miterlimit="10" d="M39.713,37.484
	c0,0.649-0.518,1.177-1.155,1.177l0,0c-0.639,0-1.156-0.527-1.156-1.177c0-0.65,0.518-1.178,1.156-1.178
	C39.195,36.307,39.713,36.834,39.713,37.484L39.713,37.484z"/>
<path id="path1297"  fill="#FFFFFF" stroke="#6F6F6F" stroke-width="0.0189" d="
	M28.393,36.702c-0.031-0.063-0.023,0-0.066-0.165c-0.066-0.256-0.196-0.588-0.487-0.787c-0.188-0.129-0.418-0.273-0.451-0.285
	c-0.038-0.014-0.011-0.223,0.068-0.559c0.146-0.622,0.819-2.188,0.895-2.062c0.03,0.051,0.226-0.373,0.689-0.909
	c0.392-0.453,0.903-0.872,0.924-0.838s-0.154,0.175,0.017-0.008c0.553-0.592,1.762-0.993,3.072-1.153l0.293-0.009l-0.185,0.322
	c-0.285,0.381-0.342,0.521-0.267,0.667c0.035,0.069,0.064,0.214,0.064,0.32v0.193l-0.518-0.122
	c-0.654-0.154-0.726-0.154-1.245,0.008c-0.473,0.146-1.646,0.914-1.551,1.014c0.019,0.02,0.56,0.175,1.106,0.381
	c0.808,0.305,0.885,0.32,0.959,0.458c0.051,0.093,0.124,0.329,0.104,0.383c-0.021,0.058-0.336,0.188-0.771,0.319l-0.735,0.223
	l-0.353,0.738l-0.352,0.738h-0.519h-0.52v0.586c0,0.575-0.025,0.883-0.137,0.652L28.393,36.702z"/>
<path id="path1299"  fill="#E3E3E3" stroke="#6F6F6F" stroke-width="0.0189" d="
	M31.247,41.585c-0.004-0.019-0.04-0.242-0.079-0.497l-0.071-0.464l-0.402-0.201c-0.363-0.183-0.421-0.24-0.587-0.585
	c-0.147-0.306-0.169-0.402-0.108-0.479s0.056-0.088-0.028-0.054c-0.187,0.075-0.206-0.076,0.108-0.42
	c0.464-0.505,0.693-0.535,1.434,0.145c0.225,0.205,0.577,0.426,0.924,0.566c0.286,0.115,0.521,0.237,0.521,0.271
	c0,0.034-0.075,0.259-0.167,0.5c-0.183,0.479-0.247,0.529-0.889,0.687c-0.183,0.045-0.333,0.101-0.334,0.125
	C31.564,41.235,31.257,41.627,31.247,41.585z"/>
<path id="path1614"  fill="#474747" stroke="#6F6F6F" stroke-width="0.0189" d="M5.824,2.233
	c-0.276,0-0.499,0.259-0.499,0.58v4.341c0,0.028,0.01,0.053,0.014,0.08H1.792c-0.256,0-0.462,0.206-0.462,0.463v0.074
	c0,0.256,0.206,0.463,0.462,0.463h0.571l0.002,0.004v4.803v0.016h0.008c0.919,2.49,3.76,4.159,6.984,4.158
	c3.228-0.003,6.08-1.662,6.991-4.158V8.238V8.234h0.5c0.256,0,0.462-0.207,0.462-0.463V7.697c0-0.257-0.206-0.463-0.462-0.463
	h-3.547c0.003-0.027,0.014-0.052,0.014-0.08V2.813c0-0.321-0.223-0.58-0.499-0.58c-0.277,0-0.5,0.259-0.5,0.58v4.341
	c0,0.028,0.011,0.053,0.014,0.08h-6.02c0.003-0.027,0.013-0.052,0.013-0.08V2.813C6.323,2.492,6.101,2.233,5.824,2.233z"/>
<linearGradient id="path1614-9_1_" gradientUnits="userSpaceOnUse" x1="210.8018" y1="-234.6436" x2="219.8022" y2="-234.6436" gradientTransform="matrix(1.3297 0 0 -1.3635 -276.917 -307.7217)">
	<stop  offset="0" style="stop-color:#74B5C8"/>
	<stop  offset="0.175" style="stop-color:#6BAEC3"/>
	<stop  offset="0.457" style="stop-color:#539EB5"/>
	<stop  offset="0.809" style="stop-color:#2F849F"/>
	<stop  offset="1" style="stop-color:#187491"/>
</linearGradient>
<path id="path1614-9"  fill="url(#path1614-9_1_)" d="M3.383,8.205
	l-0.019,4.776c0.805,2.255,3.254,3.232,5.993,3.233c2.736-0.004,5.188-0.963,5.993-3.216v0.011V8.205H3.383z"/>
</svg>
