<svg id="Image" xmlns="http://www.w3.org/2000/svg" xmlns:xlink="http://www.w3.org/1999/xlink" viewBox="0 0 48 48">
  <defs>
    <linearGradient id="linear-gradient" x1="23.998" y1="7.625" x2="23.998" y2="-0.046" gradientTransform="translate(0 2)" gradientUnits="userSpaceOnUse">
      <stop offset="0" stop-color="#c9c6c5"/>
      <stop offset="0.045" stop-color="#cecccc"/>
      <stop offset="0.268" stop-color="#e7e6e6"/>
      <stop offset="0.497" stop-color="#f6f6f7"/>
      <stop offset="0.736" stop-color="#fefefe"/>
      <stop offset="1" stop-color="#fff"/>
    </linearGradient>
    <linearGradient id="linear-gradient-2" x1="6.031" y1="6.427" x2="41.969" y2="42.365" gradientTransform="translate(0 2)" gradientUnits="userSpaceOnUse">
      <stop offset="0" stop-color="#fff"/>
      <stop offset="0.221" stop-color="#fbfbfc"/>
      <stop offset="0.541" stop-color="#ececec"/>
      <stop offset="0.92" stop-color="#d0cecd"/>
      <stop offset="1" stop-color="#c9c6c5"/>
    </linearGradient>
    <linearGradient id="linear-gradient-3" x1="8.906" y1="9.302" x2="39.094" y2="39.49" gradientTransform="translate(0 2)" gradientUnits="userSpaceOnUse">
      <stop offset="0" stop-color="#fff"/>
      <stop offset="0.335" stop-color="#fbfbfc"/>
      <stop offset="0.82" stop-color="#ececec"/>
      <stop offset="1" stop-color="#e4e3e4"/>
    </linearGradient>
    <linearGradient id="linear-gradient-4" x1="53.35" y1="-55.508" x2="63.661" y2="-55.603" gradientTransform="matrix(0.707, 0.707, 0.756, -0.756, 23.22, -55.823)" gradientUnits="userSpaceOnUse">
      <stop offset="0" stop-color="#73b4c8"/>
      <stop offset="1" stop-color="#177491"/>
    </linearGradient>
    <linearGradient id="linear-gradient-5" x1="28.887" y1="26.774" x2="20.543" y2="19.284" gradientTransform="translate(48 48) rotate(180)" gradientUnits="userSpaceOnUse">
      <stop offset="0" stop-color="#fff"/>
      <stop offset="1" stop-color="#dcdcdc"/>
    </linearGradient>
    <linearGradient id="linear-gradient-6" x1="20.82" y1="18.833" x2="12.82" y2="10.699" gradientTransform="translate(48 48) rotate(180)" gradientUnits="userSpaceOnUse">
      <stop offset="0" stop-color="#f2f2f2"/>
      <stop offset="1" stop-color="#999"/>
    </linearGradient>
    <linearGradient id="linear-gradient-7" x1="21.863" y1="19.996" x2="12.764" y2="10.898" xlink:href="#linear-gradient-6"/>
    <linearGradient id="linear-gradient-8" x1="30.713" y1="30.23" x2="28.375" y2="27.561" xlink:href="#linear-gradient-6"/>
  </defs>
  <g id="g865">
    <path id="path37" d="M32.146,5.792a2.5,2.5,0,0,0-1.917-.959H28.792V4.354A3.4,3.4,0,0,0,25.437,1H22.562a3.4,3.4,0,0,0-3.354,3.354v.479H17.771a2.5,2.5,0,0,0-1.917.959H6.75V47h34.5V5.792Z" fill="#4e4a48"/>
    <path id="path39" d="M16.333,9.625H31.667v-2.4a1.473,1.473,0,0,0-1.438-1.437h-2.4V4.354a2.372,2.372,0,0,0-2.344-2.4H22.562A2.372,2.372,0,0,0,20.167,4.3V5.792h-2.4a1.473,1.473,0,0,0-1.438,1.437Z" fill="url(#linear-gradient)"/>
    <path id="circle41" d="M24.958,4.833A.958.958,0,0,1,24,5.791h0a.958.958,0,0,1-.958-.958h0A.958.958,0,0,1,24,3.875h0a.958.958,0,0,1,.958.958Z" fill="#4e4a48"/>
    <path id="path43" d="M32.529,6.75a.859.859,0,0,1,.1.479v3.354H15.375V7.229a.859.859,0,0,1,.1-.479H7.708V46.042H40.292V6.75Z" fill="url(#linear-gradient-2)"/>
    <path id="polygon45" d="M15.375,10.583V8.667H9.625V44.125h28.75V8.667h-5.75v1.916Z" fill="#c9c6c5"/>
    <path id="polygon47" d="M15.375,10.583V9.625H10.583V43.167H37.417V9.625H32.625v.958Z" fill="url(#linear-gradient-3)"/>
    <path id="path20" d="M14.474,38.237c-.087,0-.176-.008-.266-.014a2.671,2.671,0,0,1-2.4-2.354,1.269,1.269,0,0,1,.159-.985L24.2,23a.379.379,0,0,0,.2-.37.288.288,0,0,0-.006-.059c-.069-.381-.625-3.766,1.148-5.537A5.764,5.764,0,0,1,29.482,15.3c.094-.005.184-.009.274-.009a2,2,0,0,1,.43.038h0a3,3,0,0,1,.406.4l-2.414,2.4a.263.263,0,0,0-.057.082c-1.106,2.424-1.071,2.459-.9,2.625l2,2a.281.281,0,0,0,.3.064l2.234-.839a.27.27,0,0,0,.1-.065c.019-.02,1.934-1.947,2.536-2.515a1.809,1.809,0,0,1,.385.42,5.956,5.956,0,0,1-1.758,4.674,5.208,5.208,0,0,1-3.531,1.264c-.112.005-.224.009-.343.009a12.106,12.106,0,0,1-1.732-.126.43.43,0,0,0-.371.148l-11.8,12.151a1.1,1.1,0,0,1-.758.222Zm.2-3.566a.756.756,0,0,0-.53,1.259.655.655,0,0,0,.492.208.824.824,0,0,0,.539-.229.76.76,0,0,0,.228-.535.7.7,0,0,0-.208-.5.655.655,0,0,0-.489-.208Z" fill="url(#linear-gradient-4)"/>
    <path id="path22" d="M29.758,15.57a1.906,1.906,0,0,1,.311.022c.028.023.068.062.127.122l-2.215,2.215a.529.529,0,0,0-.113.164c-1.188,2.6-1.162,2.626-.849,2.94l2,2a.561.561,0,0,0,.594.129l2.234-.837a.557.557,0,0,0,.2-.13c.018-.019,1.6-1.611,2.336-2.324.052.056.087.094.109.122a5.678,5.678,0,0,1-1.674,4.38,4.941,4.941,0,0,1-3.346,1.186c-.108.005-.221.009-.337.009a11.889,11.889,0,0,1-1.686-.123.478.478,0,0,0-.084-.008h-.02a.681.681,0,0,0-.515.238L15.036,37.813a.838.838,0,0,1-.558.143c-.078,0-.157-.006-.238-.012a2.4,2.4,0,0,1-2.15-2.11,1.119,1.119,0,0,1,.074-.747l12.21-11.865a.659.659,0,0,0,.309-.584.541.541,0,0,0-.01-.12c-.066-.365-.6-3.615,1.071-5.287a5.481,5.481,0,0,1,3.749-1.653c.088,0,.176-.009.264-.009M14.642,36.418h.039a1.082,1.082,0,0,0,.7-.311,1.037,1.037,0,0,0,.31-.7.971.971,0,0,0-.289-.728.945.945,0,0,0-.69-.291h-.039a1,1,0,0,0-.7.31,1.042,1.042,0,0,0-.31.7.97.97,0,0,0,.289.731.933.933,0,0,0,.69.29M34.617,19.644h0m-4.859-4.636c-.095,0-.189.005-.281.009a6.072,6.072,0,0,0-4.128,1.816c-1.736,1.736-1.389,4.89-1.225,5.786,0,.065-.007.129-.069.132L11.771,34.684a1.513,1.513,0,0,0-.24,1.217,2.946,2.946,0,0,0,2.652,2.6c.1.01.2.015.294.016a1.332,1.332,0,0,0,.955-.308l11.8-12.148c.067-.067.067-.067.131-.069a12.222,12.222,0,0,0,1.772.129c.121,0,.24,0,.354-.009a5.475,5.475,0,0,0,3.725-1.349,6.25,6.25,0,0,0,1.831-4.918c-.009-.147-.332-.457-.528-.63a.189.189,0,0,0-.128-.048.223.223,0,0,0-.154.062c-.559.521-2.585,2.562-2.585,2.562l-2.237.838-2-2c-.062-.062.963-2.309.963-2.309l2.405-2.4a.3.3,0,0,0,.075-.325c-.062-.062-.477-.543-.608-.543h0a2.247,2.247,0,0,0-.49-.045ZM14.642,35.857a.385.385,0,0,1-.293-.126.475.475,0,0,1,.343-.779h.019a.381.381,0,0,1,.293.126A.437.437,0,0,1,15,35.7l-.015.014a.534.534,0,0,1-.322.147Z" fill="#464646"/>
    <path id="polygon26" d="M26.144,28.837l.835-.864-7.242-7.487-.835.864Z" stroke="#474647" stroke-miterlimit="10" stroke-width="0.562" fill="url(#linear-gradient-5)"/>
    <path id="path858" d="M26.063,30.313l2.344-2.426,7.451,6.939a1.345,1.345,0,0,1-.017,1.838L34.549,38a1.238,1.238,0,0,1-1.749.045L32.755,38Z" stroke="#474647" stroke-miterlimit="10" stroke-width="0.562" fill="url(#linear-gradient-6)"/>
    <path id="path28" d="M25.677,29.381a.793.793,0,0,1,.212-.337l.3-.31,1.128-1.166a.515.515,0,0,1,.725-.019l.366.341-2.344,2.423-.33-.378a.618.618,0,0,1-.056-.553Z" stroke="#474647" stroke-miterlimit="10" stroke-width="0.562" fill="url(#linear-gradient-7)"/>
    <path id="path30" d="M20.713,18.194l-.623-.643-.626-.648a9.857,9.857,0,0,1,1.837-.955,19.5,19.5,0,0,1,2.7-.6C23.339,15.72,21.261,16.882,20.713,18.194Zm-3.75,4.466-.129-.135-1.55-1.6-.127-.132a.508.508,0,0,1,0-.7l3.358-3.472a.471.471,0,0,1,.665-.016l.016.016L21,18.482a.51.51,0,0,1,0,.7l-.956.985h0l-.234.241L17.642,22.66A.483.483,0,0,1,16.963,22.66Zm-.434-.45-1.3,1.339-.469-.484-.469-.485,1.3-1.34Zm-3.819.418.357-.369a.6.6,0,0,1,.843-.018l.018.018.813.843.775.8h0l.039.039a.647.647,0,0,1,0,.891L15.2,25.2Z" stroke="#474647" stroke-linejoin="round" stroke-width="0.562" fill="url(#linear-gradient-8)"/>
  </g>
</svg>
