<svg id="Image" xmlns="http://www.w3.org/2000/svg" xmlns:xlink="http://www.w3.org/1999/xlink" viewBox="0 0 48 48">
  <defs>
    <linearGradient id="linear-gradient" x1="33.29" y1="-61.692" x2="46.081" y2="-48.9" gradientTransform="translate(0 60)" gradientUnits="userSpaceOnUse">
      <stop offset="0" stop-color="#cde6eb"/>
      <stop offset="1" stop-color="#8cc3d2"/>
    </linearGradient>
    <linearGradient id="linear-gradient-2" x1="29.431" y1="-52" x2="42.431" y2="-52" xlink:href="#linear-gradient"/>
    <linearGradient id="linear-gradient-3" x1="0.818" y1="-1422.963" x2="41.394" y2="-1463.537" gradientTransform="matrix(1, 0, 0, -1, 0, -1416)" gradientUnits="userSpaceOnUse">
      <stop offset="0" stop-color="#fff"/>
      <stop offset="0.232" stop-color="#fdfdfe"/>
      <stop offset="0.496" stop-color="#f3f3f4"/>
      <stop offset="0.775" stop-color="#dfdede"/>
      <stop offset="1" stop-color="#c9c6c5"/>
    </linearGradient>
    <linearGradient id="linear-gradient-4" x1="26.181" y1="-1420.906" x2="39.181" y2="-1433.906" gradientTransform="matrix(1, 0, 0, -1, 0, -1416)" gradientUnits="userSpaceOnUse">
      <stop offset="0" stop-color="#fff"/>
      <stop offset="0.221" stop-color="#fbfbfc"/>
      <stop offset="0.541" stop-color="#ececec"/>
      <stop offset="0.92" stop-color="#d0cecd"/>
      <stop offset="1" stop-color="#c9c6c5"/>
    </linearGradient>
    <linearGradient id="linear-gradient-5" x1="7.427" y1="40.882" x2="46.346" y2="1.963" gradientTransform="matrix(0.668, 0, 0, -0.598, 8.567, 45.489)" gradientUnits="userSpaceOnUse">
      <stop offset="0" stop-color="#fff"/>
      <stop offset="1" stop-color="#bebdbd"/>
    </linearGradient>
    <linearGradient id="linear-gradient-6" x1="11.014" y1="26.964" x2="36.464" y2="1.514" gradientTransform="matrix(0.621, 0, 0, -0.557, 9.163, 45.02)" gradientUnits="userSpaceOnUse">
      <stop offset="0" stop-color="#f2f2f2"/>
      <stop offset="1" stop-color="#999"/>
    </linearGradient>
  </defs>
  <g id="g882">
    <g id="Layer_3" data-name="Layer 3">
      <path id="polygon52" d="M30.031,1.5l12.9,12.8V1.5Z" fill="url(#linear-gradient)"/>
      <path id="rect54" d="M29.431,1.5h13v13h-13Z" stroke="#4e4a48" stroke-miterlimit="10" fill="url(#linear-gradient-2)"/>
    </g>
    <g id="g61">
      <path id="polygon57" d="M6.281,46.5h36.15v-32L29.377,1.5H6.281Z" fill="url(#linear-gradient-3)"/>
      <path id="path59" d="M42.932,47H5.78V1h23.8L42.932,14.292ZM6.78,46H41.932V14.708L29.171,2H6.78Z" fill="#4e4a48"/>
    </g>
    <g id="g67">
      <path id="polygon63" d="M42.431,14.656l-13-13v13Z" fill="url(#linear-gradient-4)"/>
      <path id="path65" d="M42.432,15.156h-13a.5.5,0,0,1-.5-.5v-13a.5.5,0,0,1,.853-.354l13,13a.5.5,0,0,1-.353.854Zm-12.5-1H41.225L29.932,2.863Z" fill="#4e4a48"/>
    </g>
    <g id="g18">
      <path id="polygon14" d="M9.569,44.223V24.571l6.5,4.691h1.942V24.571l6.5,4.691h1.941V24.571l6.5,4.691h1.332v-11.6h5.341V44.223Z" stroke="#4e4a48" stroke-width="0.703" fill="url(#linear-gradient-5)"/>
      <path id="path16" d="M39.282,17.962V43.923H9.9V25.2l5.863,4.232.183.132h2.393V25.2L24.2,29.429l.183.132h2.393V25.2l5.862,4.232.184.132h1.783v-11.6h4.674m.667-.6H33.94v11.6h-.879l-6.949-5.017v5.017h-1.49l-6.949-5.017v5.017H16.184L9.235,23.946V44.522H39.949Z" fill="#464646" stroke="#4e4a48" stroke-width="0.703"/>
    </g>
    <g id="g24">
      <path id="path20" d="M16.62,42.514a2.491,2.491,0,0,1-.44-.039,2.286,2.286,0,0,1-.776-.294,2.226,2.226,0,0,1-.322-.237,1.811,1.811,0,0,1,0-2.757h0a2.233,2.233,0,0,1,.322-.238,2.288,2.288,0,0,1,.778-.294,2.468,2.468,0,0,1,.438-.039,2.206,2.206,0,0,1,1.918,1.051l.15.257h-.006l.052.2a1.753,1.753,0,0,1,.062.437,2.07,2.07,0,0,1-2.172,1.952ZM33.4,41.957a2.491,2.491,0,0,1-.44-.039,2.28,2.28,0,0,1-.775-.294,2.173,2.173,0,0,1-.322-.237,1.777,1.777,0,0,1-.57-1.838l.072-.261.009,0,.119-.2a1.944,1.944,0,0,1,.369-.463,2.316,2.316,0,0,1,.322-.239,2.286,2.286,0,0,1,.778-.293,2.379,2.379,0,0,1,.438-.04,1.961,1.961,0,1,1,0,3.9Zm-9.321-1.114a4.156,4.156,0,0,1-3.39-1.656l-.161-.223h0l-.118-.229a3.183,3.183,0,0,1-.311-2.107l.045-.244h0l.092-.259a4.15,4.15,0,0,1,5.077-2.346,4.025,4.025,0,0,1,2.142,1.455l.175.238-.006,0,.112.212a3.217,3.217,0,0,1,.252,2.452L27.9,38.4l.694.179-.692-.178-.107.227A4.066,4.066,0,0,1,24.076,40.843Zm-9.942-4.455a2.491,2.491,0,0,1-.44-.039,2.3,2.3,0,0,1-.775-.295,2.173,2.173,0,0,1-.322-.237,1.809,1.809,0,0,1,0-2.757h0a2.128,2.128,0,0,1,.322-.238,2.291,2.291,0,0,1,.777-.294,2.377,2.377,0,0,1,.438-.038,2.071,2.071,0,0,1,2.175,1.949h0a1.743,1.743,0,0,1-.118.6l-.1.272h0l-.124.176A2.238,2.238,0,0,1,14.134,36.388Zm16.778-1.114a2.491,2.491,0,0,1-.44-.039,2.286,2.286,0,0,1-.776-.294,2.226,2.226,0,0,1-.322-.237l-.186-.167-.241.1.221-.138-.178-.279a1.191,1.191,0,0,1-.084-.141,1.8,1.8,0,0,1,.466-2.137,2.167,2.167,0,0,1,.322-.239,2.31,2.31,0,0,1,.777-.293,2.175,2.175,0,0,1,2.548,1.544A1.97,1.97,0,0,1,31.3,35.239,2.366,2.366,0,0,1,30.912,35.274Z" stroke="#4e4a48" stroke-width="0.703" fill="url(#linear-gradient-6)"/>
      <path id="path22" d="M30.912,31.654a1.681,1.681,0,1,1,0,3.342,2.157,2.157,0,0,1-.377-.034,1.973,1.973,0,0,1-.665-.251,1.893,1.893,0,0,1-.255-.186l-.016-.018-.026-.024-.145-.135-.129-.2-.04-.063a.772.772,0,0,1-.065-.106,1.612,1.612,0,0,1,.991-2.189,2,2,0,0,1,.35-.1,2.157,2.157,0,0,1,.377-.034M14.134,32.768A1.775,1.775,0,0,1,16,34.439a1.492,1.492,0,0,1-.1.517l-.082.222-.114.158a1.914,1.914,0,0,1-1.565.774,2.256,2.256,0,0,1-.376-.034A1.686,1.686,0,0,1,12.305,34.1a1.777,1.777,0,0,1,1.453-1.3,2.155,2.155,0,0,1,.376-.034m9.942,1.114a3.851,3.851,0,0,1,3.113,1.5l.136.184.124.235a2.974,2.974,0,0,1,.231,2.264l-.076.262-.09.191A3.9,3.9,0,0,1,22.629,40.3a3.66,3.66,0,0,1-1.681-1.264l-.14-.2-.115-.222a2.939,2.939,0,0,1-.288-1.946l.048-.259.073-.2a3.7,3.7,0,0,1,3.55-2.327M33.4,38.337a1.681,1.681,0,1,1,0,3.342,2.155,2.155,0,0,1-.376-.034,1.727,1.727,0,0,1-1.488-1.637,1.507,1.507,0,0,1,.062-.394l.052-.191.119-.2a1.805,1.805,0,0,1,1.257-.853,2.232,2.232,0,0,1,.374-.034m-16.777.557a1.889,1.889,0,0,1,1.642.9l.121.206.048.188a1.651,1.651,0,0,1-1.352,2,2.087,2.087,0,0,1-.459.048,2.157,2.157,0,0,1-.377-.034,1.685,1.685,0,0,1-1.452-1.972,1.777,1.777,0,0,1,1.452-1.3,2.157,2.157,0,0,1,.377-.034m14.292-7.8a2.8,2.8,0,0,0-.5.045,2.246,2.246,0,0,0-1.935,2.63,2.047,2.047,0,0,0,.145.42,2.113,2.113,0,0,0,.138.227l-1.052.66h0a4.666,4.666,0,0,0-6.026-1.108,3.973,3.973,0,0,0-1.748,2.067l-3.448-.909h0a2,2,0,0,0,.135-.69,2.376,2.376,0,0,0-2.486-2.251,2.253,2.253,0,1,0-.026,4.479,2.585,2.585,0,0,0,2.114-1.027l3.567.94a3.468,3.468,0,0,0,.338,2.27l-1.314.687h0a2.526,2.526,0,0,0-2.193-1.2,2.8,2.8,0,0,0-.5.045,2.248,2.248,0,0,0-1.938,2.629,2.373,2.373,0,0,0,1.938,1.737,2.494,2.494,0,0,0,2.935-1.734,1.935,1.935,0,0,0-.017-.95l1.389-.724h0A4.661,4.661,0,0,0,26.44,40.5a4.043,4.043,0,0,0,1.646-1.758h0l2.9.744A2.219,2.219,0,0,0,32.8,42.171l.094.02a2.493,2.493,0,0,0,2.933-1.737,2.247,2.247,0,0,0-1.937-2.629,2.778,2.778,0,0,0-1,0,2.4,2.4,0,0,0-1.677,1.136l-2.936-.752a3.473,3.473,0,0,0-.27-2.641l1.115-.7c.01.01.018.021.029.031a2.583,2.583,0,0,0,1.256.608,2.493,2.493,0,0,0,2.933-1.737,2.247,2.247,0,0,0-1.937-2.629A2.759,2.759,0,0,0,30.912,31.1Z" fill="#464646" stroke="#4e4a48" stroke-width="0.703"/>
    </g>
  </g>
</svg>
