<svg id="Layer_1" data-name="Layer 1" xmlns="http://www.w3.org/2000/svg" xmlns:xlink="http://www.w3.org/1999/xlink" viewBox="0 0 48 48">
    <linearGradient id="linear-gradient" x1="0.5" y1="0.5" x2="39.5" y2="39.5" gradientUnits="userSpaceOnUse">
      <stop offset="0" stop-color="#fff"/>
      <stop offset="0.2284" stop-color="#fafafa"/>
      <stop offset="0.4881" stop-color="#ededed"/>
      <stop offset="0.7621" stop-color="#d7d6d6"/>
      <stop offset="1" stop-color="#bdbcbc"/>
    </linearGradient>
    <linearGradient id="linear-gradient-2" x1="3.5" y1="3.5" x2="36.5" y2="36.5" gradientUnits="userSpaceOnUse">
      <stop offset="0" stop-color="#73b4c8"/>
      <stop offset="0.1747" stop-color="#6aaec3"/>
      <stop offset="0.4567" stop-color="#529eb5"/>
      <stop offset="0.8089" stop-color="#2c839f"/>
      <stop offset="1" stop-color="#147391"/>
    </linearGradient>
    <linearGradient id="paper_gradient" data-name="paper gradient" x1="23.9898" y1="26.3755" x2="36.6233" y2="39.009" gradientUnits="userSpaceOnUse">
      <stop offset="0" stop-color="#fff"/>
      <stop offset="0.2214" stop-color="#f8f8f8"/>
      <stop offset="0.5415" stop-color="#e5e5e5"/>
      <stop offset="0.92" stop-color="#c6c6c6"/>
      <stop offset="1" stop-color="#bebebe"/>
    </linearGradient>
  <rect x="0.5" y="0.5" width="39" height="39" stroke="#464646" stroke-linecap="round" stroke-miterlimit="10" fill="url(#linear-gradient)"/>
  <path d="M18.5,18.5H3.5V3.5h15Zm18-15h-15v15h15Zm-18,18H3.5v15h15Zm18,0h-15v15h15Z" stroke="#147391" stroke-miterlimit="10" fill="url(#linear-gradient-2)"/>
    <path d="M20.3955,47.5a4.9,4.9,0,0,1-3.499-8.3257l13.73-11.9624A.2.2,0,0,0,30.69,27.02c-.2915-1.4311-1.042-6.3042,1.56-8.9048a8.8705,8.8705,0,0,1,6.3159-2.6162,8.9848,8.9848,0,0,1,1.2373.086.5.5,0,0,1,.2847.8486l-3.5625,3.563a.2073.2073,0,0,0-.0552.103l-.7832,3.78a.1993.1993,0,0,0,.0542.1821l3.1943,3.1939a.2007.2007,0,0,0,.1407.059L42.9,26.5273a.1968.1968,0,0,0,.1-.0537L46.5654,22.91a.5.5,0,0,1,.8487.2846A8.9883,8.9883,0,0,1,44.8828,30.75a7.8078,7.8078,0,0,1-5.6523,1.9043,16.35,16.35,0,0,1-3.253-.3457l-.0175-.0005a.2106.2106,0,0,0-.1734.0645L23.9009,46.02A4.9123,4.9123,0,0,1,20.3955,47.5Zm.771-7.168a1.5,1.5,0,1,0,1.0615.439A1.493,1.493,0,0,0,21.1665,40.332Z" fill="url(#paper_gradient)"/>
    <path d="M38.566,15.9991a8.4575,8.4575,0,0,1,1.1683.0811L36.1719,19.643a.7035.7035,0,0,0-.1909.3532l-.7837,3.7821a.7007.7007,0,0,0,.1909.6378l3.1936,3.1932a.7005.7005,0,0,0,.4944.2058A.6845.6845,0,0,0,39.22,27.8l3.7822-.7829a.6988.6988,0,0,0,.3531-.1907l3.5638-3.5631a8.4278,8.4278,0,0,1-2.3893,7.1327,7.33,7.33,0,0,1-5.2987,1.758,15.8336,15.8336,0,0,1-3.1518-.3357.7125.7125,0,0,0-.14-.0138.7006.7006,0,0,0-.53.24L23.5238,45.6907A4.3937,4.3937,0,0,1,16,42.603a4.347,4.347,0,0,1,1.25-3.0758L30.9546,27.5891A.7.7,0,0,0,31.18,26.92c-.2792-1.37-1.0033-6.0263,1.4229-8.4515a8.3749,8.3749,0,0,1,5.9627-2.47m-17.4,27.833a1.9955,1.9955,0,0,0,1.4138-.5848l.0014-.0014a2,2,0,0,0-2.83-2.8277l-.0007.0007a2,2,0,0,0,1.4155,3.4132m17.4-28.833a9.3683,9.3683,0,0,0-6.67,2.7628c-2.68,2.6787-2.05,7.5092-1.7293,9.1873L16.5936,38.7731c-.0176.0154-.0347.0313-.0512.0479A5.3977,5.3977,0,0,0,20.3954,48a5.392,5.392,0,0,0,3.8359-1.6027c.0161-.0161.0317-.0327.0466-.05L36.0487,32.8323a16.7642,16.7642,0,0,0,3.182.3216,8.2854,8.2854,0,0,0,6.0057-2.0508,9.489,9.489,0,0,0,2.6727-7.9779,1,1,0,0,0-1.6974-.5691l-3.5006,3.5-3.5364.732-2.9654-2.965.7326-3.5357,3.5-3.5a1,1,0,0,0-.5688-1.6975,9.4876,9.4876,0,0,0-1.3067-.0907Zm-17.4,27.833a1,1,0,1,1,.7077-.293.9938.9938,0,0,1-.7077.293Z" fill="#464646"/>
</svg>
