<svg id="Image" xmlns="http://www.w3.org/2000/svg" xmlns:xlink="http://www.w3.org/1999/xlink" viewBox="0 0 48 48">
  <defs>
    <linearGradient id="linear-gradient" x1="4" y1="46" x2="48" y2="2" gradientTransform="matrix(1, 0, 0, -1, 0, 48)" gradientUnits="userSpaceOnUse">
      <stop offset="0" stop-color="#fff"/>
      <stop offset="1" stop-color="#dcdcdc"/>
    </linearGradient>
    <linearGradient id="linear-gradient-2" x1="14.198" y1="16.552" x2="36.561" y2="38.915" gradientTransform="translate(0 2)" gradientUnits="userSpaceOnUse">
      <stop offset="0" stop-color="#f8f8f9"/>
      <stop offset="0.5" stop-color="#d5d4d4"/>
      <stop offset="0.63" stop-color="#d1cfce"/>
      <stop offset="0.779" stop-color="#c4c1c1"/>
      <stop offset="0.938" stop-color="#aba8a7"/>
      <stop offset="0.99" stop-color="#a29f9d"/>
    </linearGradient>
    <linearGradient id="linear-gradient-3" x1="15.359" y1="15.392" x2="37.721" y2="37.755" xlink:href="#linear-gradient-2"/>
    <linearGradient id="linear-gradient-4" x1="23.431" y1="23.464" x2="29.701" y2="29.735" gradientTransform="translate(0 2)" gradientUnits="userSpaceOnUse">
      <stop offset="0" stop-color="#fff"/>
      <stop offset="0.221" stop-color="#fbfbfc"/>
      <stop offset="0.541" stop-color="#ececec"/>
      <stop offset="0.92" stop-color="#d0cecd"/>
      <stop offset="1" stop-color="#c9c6c5"/>
    </linearGradient>
    <linearGradient id="linear-gradient-5" x1="14.991" y1="37.813" x2="40.494" y2="15.609" gradientTransform="matrix(1, 0, 0, -1, 0, 48)" gradientUnits="userSpaceOnUse">
      <stop offset="0" stop-color="#bedde8"/>
      <stop offset="1" stop-color="#7eb8cd"/>
    </linearGradient>
    <linearGradient id="linear-gradient-6" x1="20.691" y1="43.659" x2="33.72" y2="27.275" xlink:href="#linear-gradient-5"/>
  </defs>
  <g id="g871">
    <g id="g76">
      <path id="rect40" d="M5,1H47V47H5Z" fill="url(#linear-gradient)"/>
      <path id="path42" d="M5,1V11.062H1.5a.5.5,0,0,0,0,1H5v24H1.5a.5.5,0,0,0,0,1H5V47H47V1ZM46,46H6V37.062h5.312a.5.5,0,0,0,0-1H6v-24h5.312a.5.5,0,0,0,0-1H6V2H46Z" fill="#464646"/>
      <g id="g74">
        <g id="g60">
          <path id="path44" d="M27,33.05a4.885,4.885,0,0,1-4.875-4.8H11.616v1.521l4.99,1.772a1.077,1.077,0,0,1,.676,1.365,1.056,1.056,0,0,1-.049.121l-2.269,4.776,2.347,2.347,4.774-2.263a1.064,1.064,0,0,1,.865-.021,1.1,1.1,0,0,1,.62.664l1.772,5.018h3.317l1.771-5.016a1.124,1.124,0,0,1,.621-.682,1.049,1.049,0,0,1,.865.027l4.774,2.269L39.037,37.8,36.77,33.028a1.081,1.081,0,0,1,.514-1.44,1.057,1.057,0,0,1,.11-.045l4.99-1.771V28.25H31.875A4.885,4.885,0,0,1,27,33.05Z" fill="url(#linear-gradient-2)"/>
          <path id="path46" d="M42.834,30.09l-5.289,1.877h0a.633.633,0,0,0-.394.8c.008.022.016.043.026.064l2.4,5.061-2.8,2.8-5.06-2.405a.617.617,0,0,0-.826.285.59.59,0,0,0-.043.115L28.977,44H25.024l-1.877-5.318a.636.636,0,0,0-.8-.414c-.024.008-.048.017-.071.027l-5.061,2.4-2.8-2.8,2.406-5.062A.628.628,0,0,0,16.529,32a.728.728,0,0,0-.077-.031l-5.29-1.878V28.25h-.45v1.839a.45.45,0,0,0,.3.424l5.29,1.878a.2.2,0,0,1,.12.106.185.185,0,0,1,0,.146l-2.406,5.062a.45.45,0,0,0,.088.512l2.8,2.8a.452.452,0,0,0,.511.088l5.062-2.4a.165.165,0,0,1,.134,0,.205.205,0,0,1,.117.132L24.6,44.149a.45.45,0,0,0,.424.3h3.955a.45.45,0,0,0,.424-.3l1.876-5.315a.245.245,0,0,1,.118-.151.165.165,0,0,1,.134.009l5.06,2.408a.453.453,0,0,0,.512-.088l2.8-2.8a.45.45,0,0,0,.088-.512l-2.4-5.061a.183.183,0,0,1,0-.145.186.186,0,0,1,.114-.1h0L43,30.517a.45.45,0,0,0,.3-.424V28.25h-.45Z" fill="#464646"/>
          <path id="path48" d="M42.384,29.772l-4.99,1.771a1.081,1.081,0,0,0-.669,1.375,1.155,1.155,0,0,0,.045.11L39.037,37.8,36.69,40.148l-4.774-2.269a1.049,1.049,0,0,0-.865-.027,1.124,1.124,0,0,0-.621.682L28.659,43.55H25.342L23.57,38.532a1.1,1.1,0,0,0-.62-.664,1.064,1.064,0,0,0-.865.021l-4.774,2.263-2.347-2.347,2.269-4.776a1.077,1.077,0,0,0-.506-1.437,1.056,1.056,0,0,0-.121-.049l-4.99-1.772V28.25h-.45v1.839l5.29,1.878a.628.628,0,0,1,.4.792.728.728,0,0,1-.031.077L14.421,37.9l2.8,2.8,5.061-2.4a.637.637,0,0,1,.842.316c.01.023.019.047.027.071L25.024,44h3.953l1.878-5.317a.619.619,0,0,1,.754-.443.694.694,0,0,1,.115.043l5.06,2.405,2.8-2.8-2.4-5.061a.632.632,0,0,1,.3-.842.5.5,0,0,1,.064-.026h0l5.289-1.877V28.25h-.45Z" fill="#464646" stroke="#464646" stroke-width="0.1"/>
          <path id="path50" d="M27,32.149a3.983,3.983,0,0,0,3.975-3.9h-7.95A3.983,3.983,0,0,0,27,32.149Z" fill="url(#linear-gradient-3)"/>
          <path id="path52" d="M27,32.149a3.983,3.983,0,0,0,3.975-3.9h-7.95A3.983,3.983,0,0,0,27,32.149Z" fill="url(#linear-gradient-4)"/>
          <path id="path54" d="M27,32.6a4.428,4.428,0,0,1-4.425-4.349h-.45a4.876,4.876,0,0,0,9.75,0h-.45A4.428,4.428,0,0,1,27,32.6Z" fill="#4e4a48" stroke="#464646" stroke-width="0.1"/>
          <path id="path56" d="M27,32.6a4.428,4.428,0,0,0,4.425-4.349h-.45a3.976,3.976,0,0,1-7.95,0h-.45A4.428,4.428,0,0,0,27,32.6Z" fill="#4e4a48" stroke="#464646" stroke-width="0.1"/>
          <path id="path58" d="M44.1,28.25a.831.831,0,0,0,.35-.078A.831.831,0,0,1,44.1,28.25Z" fill="#177491"/>
        </g>
        <g id="g66">
          <path id="path62" d="M40.5,19.34V15.38C40.5,8.819,35.665,3.5,29.7,3.5H24.3c-5.965,0-10.8,5.319-10.8,11.88v3.96a1.9,1.9,0,0,1-1.8,1.98H9.9a.948.948,0,0,0-.9.99v4.95a.948.948,0,0,0,.9.99H44.1a.948.948,0,0,0,.9-.99V22.31a.948.948,0,0,0-.9-.99H42.3A1.9,1.9,0,0,1,40.5,19.34Z" fill="url(#linear-gradient-5)"/>
          <path id="path64" d="M29.7,4.474c5.418,0,9.826,4.892,9.826,10.906v3.96A2.872,2.872,0,0,0,42.3,22.294h1.73a.022.022,0,0,0,0,.016l-.01,4.966H9.97a.022.022,0,0,0,0-.016l.01-4.966H11.7a2.872,2.872,0,0,0,2.774-2.954V15.38c0-6.014,4.408-10.906,9.826-10.906h5.4m0-.974H24.3c-5.965,0-10.8,5.319-10.8,11.88v3.96a1.9,1.9,0,0,1-1.8,1.98H9.9a.948.948,0,0,0-.9.99v4.95a.948.948,0,0,0,.9.99H44.1a.948.948,0,0,0,.9-.99V22.31a.948.948,0,0,0-.9-.99H42.3a1.9,1.9,0,0,1-1.8-1.98V15.38C40.5,8.819,35.665,3.5,29.7,3.5Z" fill="#177491"/>
        </g>
        <g id="g72">
          <path id="polyline68" d="M22.95,21.05V3.5h8.1V21.05" fill="url(#linear-gradient-6)"/>
          <path id="polygon70" d="M31.519,21.05h-.938V3.968H23.419V21.05h-.938V3.032h9.038Z" fill="#177491"/>
        </g>
      </g>
    </g>
  </g>
</svg>
