<svg id="Image" xmlns="http://www.w3.org/2000/svg" xmlns:xlink="http://www.w3.org/1999/xlink" viewBox="0 0 48 48">
  <defs>
    <linearGradient id="linear-gradient" x1="0.023" y1="44.771" x2="40.273" y2="4.521" gradientTransform="matrix(1, 0, 0, -1, 0, 48)" gradientUnits="userSpaceOnUse">
      <stop offset="0" stop-color="#afd7e1"/>
      <stop offset="1" stop-color="#73b4c8"/>
    </linearGradient>
    <linearGradient id="linear-gradient-2" x1="13.593" y1="38.087" x2="27.264" y2="24.417" gradientTransform="matrix(1, 0, 0, -1, 0, 48)" gradientUnits="userSpaceOnUse">
      <stop offset="0" stop-color="#73b4c8"/>
      <stop offset="1" stop-color="#177491"/>
    </linearGradient>
    <linearGradient id="linear-gradient-3" x1="26.473" y1="17.859" x2="47.32" y2="0.673" gradientTransform="matrix(1, 0, 0, -1, 0.999, 49.252)" xlink:href="#linear-gradient"/>
  </defs>
  <g id="g44">
    <g id="g28">
      <g id="g18">
        <g id="g895">
          <path id="path14" d="M37.5,44l.091-25.908v-.136H45.5a66.81,66.81,0,0,1-5.727-7.772C37.682,6.7,37.594,1.329,37.592.593V.5H.5V44h37" fill="url(#linear-gradient)"/>
        </g>
        <path id="path16" d="M37.5,44.5H.5A.5.5,0,0,1,0,44V.524A.5.5,0,0,1,.239.072.492.492,0,0,1,.55,0H37.59a.5.5,0,0,1,.5.5c0,.688.074,6.032,2.11,9.424a66.539,66.539,0,0,0,5.676,7.7.5.5,0,0,1-.378.827H38.092L38,44A.5.5,0,0,1,37.5,44.5ZM1,43.5H37l.09-25.544a.5.5,0,0,1,.5-.5h6.837a63.6,63.6,0,0,1-5.084-7.015C37.422,7.235,37.138,2.616,37.1,1H1Z" fill="#464646"/>
      </g>
      <path id="path20" d="M18.91,18.458A16.524,16.524,0,0,1,4.56,9.391C.7,1.948.153.905.076.762L.057.726A.5.5,0,0,1,.268.051l.006,0C.56-.1.662-.152.934.284L.951.276a.4.4,0,0,1,.036.1c.144.243.332.605.608,1.134.592,1.137,1.718,3.3,3.853,7.422a15.452,15.452,0,0,0,13.577,8.525H37.593a.5.5,0,0,1,0,1H18.91Z" fill="#464646"/>
      <g id="g26">
        <path id="path22" d="M30.638,17.959c-3.068-.611-9-6.753-9-6.753L7.969,13.287s4.949,4.632,10.157,4.672S30.638,17.959,30.638,17.959Z" fill="url(#linear-gradient-2)"/>
        <path id="path24" d="M23.671,18.476c-1.856,0-3.822,0-5.549-.018-5.342-.04-10.287-4.61-10.495-4.81a.5.5,0,0,1,.267-.86l13.669-2.08a.5.5,0,0,1,.435.147c.059.06,5.858,6.035,8.738,6.609a.5.5,0,0,1-.094.99C30.593,18.459,27.352,18.476,23.671,18.476ZM9.133,13.615c1.59,1.264,5.258,3.816,9,3.843,3.343.026,7.59.019,10.174.01a42.809,42.809,0,0,1-6.843-5.729Z" fill="#464646"/>
      </g>
    </g>
    <g id="g34">
      <rect id="rect30" x="7.209" y="6.998" width="29.25" height="3" rx="1" fill="#fff"/>
      <path id="path32" d="M31.434,12.654H25.871a16.6,16.6,0,0,0,1.569,1.678,12.308,12.308,0,0,0,1.719,1.322h2.275a1,1,0,0,0,1-1v-1A1,1,0,0,0,31.434,12.654Z" fill="#fff"/>
    </g>
    <g id="g42">
      <rect id="rect36" x="2.876" y="29.456" width="26" height="3" rx="1" fill="#fff"/>
      <rect id="rect38" x="2.876" y="23.248" width="32.125" height="3" rx="1" fill="#fff"/>
      <rect id="rect40" x="2.876" y="35.665" width="18.5" height="3" rx="1" fill="#fff"/>
    </g>
  </g>
  <rect id="rect882" x="26.542" y="30.508" width="20.458" height="17.102" fill="url(#linear-gradient-3)"/>
  <path id="path841" d="M31.136,32.7H29.694V45.3h1.442Z" fill="#464646"/>
  <path id="path839" d="M32.341,32.7H31.86V45.3h.481Z" fill="#464646"/>
  <path id="path837" d="M34.025,32.7h-.48V45.3h.48Z" fill="#464646"/>
  <path id="path835" d="M35.951,32.7h-.963V45.3h.961Z" fill="#464646"/>
  <path id="path833" d="M37.4,32.7h-.481V45.3H37.4Z" fill="#464646"/>
  <path id="path827" d="M40.355,45.3h.48V32.7h-.48Z" fill="#464646"/>
  <path id="path825" d="M42.04,45.3h.484V32.7h-.48Z" fill="#464646"/>
  <path id="path823" d="M39.171,45.3V32.7H38.69V45.3Z" fill="#464646"/>
  <path id="path821" d="M44.394,45.3V32.7h-.96V45.3Z" fill="#464646"/>
  <path id="rect836" d="M26,30V48H48V30Zm1,.818H47V47.182H27Z" fill="#464646"/>
</svg>
