<svg id="Image" xmlns="http://www.w3.org/2000/svg" xmlns:xlink="http://www.w3.org/1999/xlink" viewBox="0 0 48 48">
  <defs>
    <linearGradient id="Sfumatura_senza_nome_10" data-name="Sfumatura senza nome 10" x1="10.673" y1="10.673" x2="31.639" y2="31.639" gradientUnits="userSpaceOnUse">
      <stop offset="0" stop-color="#73b4c8"/>
      <stop offset="1" stop-color="#177493"/>
      <stop offset="1" stop-color="#177491"/>
    </linearGradient>
  </defs>
  <g>
    <polygon points="19.845 1.5 33.78 1.5 27.899 15.818 33.652 15.818 22.209 34.858 26.237 37.04 14.22 46.5 14.328 30.817 18.526 32.966 20.101 20.292 15.03 20.292 19.845 1.5" fill="url(#Sfumatura_senza_nome_10)"/>
    <path d="M14.221,47a.5.5,0,0,1-.5-.5l.107-15.683a.5.5,0,0,1,.728-.442L18.118,32.2l1.416-11.4h-4.5a.5.5,0,0,1-.484-.624L19.36,1.376A.5.5,0,0,1,19.845,1H33.779a.5.5,0,0,1,.463.691l-5.6,13.627h5.006a.5.5,0,0,1,.429.758L22.907,34.667,26.476,36.6a.5.5,0,0,1,.071.832L14.53,46.893A.5.5,0,0,1,14.221,47Zm.6-15.369-.094,13.834,10.6-8.348L21.971,35.3a.5.5,0,0,1-.191-.7L32.769,16.318H27.9a.5.5,0,0,1-.415-.222.5.5,0,0,1-.047-.469L33.033,2h-12.8L15.675,19.792H20.1a.5.5,0,0,1,.5.562L19.022,33.028a.5.5,0,0,1-.261.38.5.5,0,0,1-.462,0Z" fill="#474647"/>
  </g>
</svg>
