<svg id="Layer_1" data-name="Layer 1" xmlns="http://www.w3.org/2000/svg" xmlns:xlink="http://www.w3.org/1999/xlink" viewBox="0 0 48 48">
  <defs>
    <linearGradient id="linear-gradient" x1="3.793" y1="38.793" x2="37.207" y2="5.378" gradientTransform="matrix(1.122, 0, 0, -1.122, 1, 54.854)" gradientUnits="userSpaceOnUse">
      <stop offset="0" stop-color="#fff"/>
      <stop offset="0.221" stop-color="#f8f8f8"/>
      <stop offset="0.541" stop-color="#e5e5e5"/>
      <stop offset="0.92" stop-color="#c6c6c6"/>
      <stop offset="1" stop-color="#bebebe"/>
    </linearGradient>
    <linearGradient id="linear-gradient-2" x1="7.793" y1="53.621" x2="33.207" y2="28.207" gradientTransform="matrix(1.122, 0, 0, -1.122, 1, 54.854)" gradientUnits="userSpaceOnUse">
      <stop offset="0" stop-color="#73b4c8"/>
      <stop offset="0.175" stop-color="#6aaec3"/>
      <stop offset="0.457" stop-color="#529eb5"/>
      <stop offset="0.809" stop-color="#2c839f"/>
      <stop offset="1" stop-color="#147391"/>
    </linearGradient>
  </defs>
  <g id="g854">
    <path id="path13" d="M1.561,15.024V44.2a2.243,2.243,0,0,0,2.244,2.244H44.2A2.243,2.243,0,0,0,46.439,44.2V15.024Z" fill="url(#linear-gradient)"/>
    <path id="path26" d="M46.439,15.024V3.805A2.243,2.243,0,0,0,44.2,1.561H3.805A2.244,2.244,0,0,0,1.561,3.805V15.024Z" stroke="#147391" stroke-miterlimit="10" stroke-width="1.122" fill="url(#linear-gradient-2)"/>
    <path id="line28" d="M10.537,15.585V45.878" fill="none" stroke="#6e6e6e" stroke-width="1.122"/>
    <path id="line30" d="M19.512,15.585V45.878" fill="none" stroke="#6e6e6e" stroke-width="1.122"/>
    <path id="circle42" d="M17.268,7.732a1.683,1.683,0,1,1-3.366,0h0a1.683,1.683,0,0,1,1.683-1.683h0A1.682,1.682,0,0,1,17.268,7.732Z" fill="#fff" stroke="#147391" stroke-miterlimit="10" stroke-width="1.122"/>
    <path id="circle44" d="M34.1,7.732a1.683,1.683,0,1,1-1.683-1.683A1.684,1.684,0,0,1,34.1,7.732Z" fill="#fff" stroke="#147391" stroke-miterlimit="10" stroke-width="1.122"/>
    <path id="rect881" d="M2,22.316H46v1.125H2Z" fill="#6e6e6e"/>
    <path id="rect881-0" d="M2,30.422H46v1.125H2Z" fill="#6e6e6e"/>
    <path id="rect881-0-4" d="M2,38.208H46v1.125H2Z" fill="#6e6e6e"/>
    <path id="rect913" d="M27.927,15.582h1.122V46H27.927Z" fill="#6e6e6e"/>
    <path id="rect913-6" d="M36.9,15.582h1.122V46H36.9Z" fill="#6e6e6e"/>
    <path id="path46" d="M46.439,44.2V3.805A2.243,2.243,0,0,0,44.2,1.561H3.805A2.243,2.243,0,0,0,1.561,3.805V44.2a2.243,2.243,0,0,0,2.244,2.244H44.2A2.243,2.243,0,0,0,46.439,44.2Z" fill="none" stroke="#464646" stroke-miterlimit="10" stroke-width="1.122"/>
  </g>
</svg>
