<svg id="Layer_1" data-name="Layer 1" xmlns="http://www.w3.org/2000/svg" xmlns:xlink="http://www.w3.org/1999/xlink" viewBox="0 0 48 48">
  <defs>
    <linearGradient id="linear-gradient" x1="0.45" y1="46.276" x2="14.586" y2="33.699" gradientTransform="matrix(1.481, 0, 0, -1.481, -0.11, 71.194)" gradientUnits="userSpaceOnUse">
      <stop offset="0" stop-color="#fff"/>
      <stop offset="1" stop-color="#bebebe"/>
    </linearGradient>
    <linearGradient id="linear-gradient-2" x1="9.721" y1="39.323" x2="21.846" y2="32.592" gradientTransform="matrix(1.489, 0, 0, -1.489, -0.12, 71.505)" xlink:href="#linear-gradient"/>
    <linearGradient id="linear-gradient-3" x1="24.215" y1="37.6" x2="27.336" y2="34.367" gradientTransform="matrix(1.481, 0, 0, -1.481, 0.027, 71.253)" xlink:href="#linear-gradient"/>
    <linearGradient id="linear-gradient-4" x1="17.484" y1="28.107" x2="43.651" y2="1.696" gradientTransform="matrix(0.577, 0, 0, -0.577, 20.016, 47.789)" gradientUnits="userSpaceOnUse">
      <stop offset="0" stop-color="#73b4c8"/>
      <stop offset="0.175" stop-color="#6aaec3"/>
      <stop offset="0.457" stop-color="#529eb5"/>
      <stop offset="0.809" stop-color="#2c839f"/>
      <stop offset="1" stop-color="#147391"/>
    </linearGradient>
    <linearGradient id="linear-gradient-5" x1="10.063" y1="41.833" x2="20.937" y2="30.961" gradientTransform="matrix(0.577, 0, 0, -0.577, 20.016, 47.789)" xlink:href="#linear-gradient"/>
    <linearGradient id="linear-gradient-6" x1="27.063" y1="44.835" x2="37.937" y2="33.961" gradientTransform="matrix(0.59, 0, 0, -0.59, 20.016, 47.789)" xlink:href="#linear-gradient"/>
    <linearGradient id="linear-gradient-7" x1="-4.75" y1="25.795" x2="31.551" y2="-1.871" gradientTransform="matrix(0.577, 0, 0, -0.577, 20.016, 47.789)" gradientUnits="userSpaceOnUse">
      <stop offset="0" stop-color="#afd7e1"/>
      <stop offset="1" stop-color="#54a4bc"/>
    </linearGradient>
  </defs>
  <g id="g876">
    <path id="path18" d="M34,18S29.389-1.326,12.63,2.635C-1.5,5.978.617,22.919.617,22.919S6.263,27.057,18.2,25.487C27.473,24.268,28.344,20.264,34,18Z" fill="none" stroke="#464646" stroke-miterlimit="10" stroke-width="1.045"/>
    <path id="path20" d="M34,18S29.386-1.326,12.628,2.635C-1.5,5.978.615,22.919.615,22.919S6.261,27.057,18.2,25.487C27.471,24.268,28.341,20.264,34,18Z" stroke="#464646" stroke-miterlimit="10" fill="url(#linear-gradient)"/>
    <path id="path24" d="M34.17,18.035h0c-5.688,2.275-6.563,6.3-15.882,7.525-.287.038-.554.057-.833.088A20.73,20.73,0,0,0,28.045,27.7c7.613-.438,12.819-8.926,17.632-8.314Z" stroke="#464646" stroke-miterlimit="10" fill="url(#linear-gradient-2)"/>
    <path id="path26" d="M45.588,19.409c-2.648-.338-5.42,2.1-8.647,4.411,6.747.748,9.9-.554,10.431-2.366C47.939,19.539,45.588,19.409,45.588,19.409Z" stroke="#464646" stroke-miterlimit="10" fill="url(#linear-gradient-3)"/>
    <path id="path28" d="M12.458,3.813a11.21,11.21,0,0,0-.168,1.506" fill="none" stroke="#464646" stroke-miterlimit="10"/>
    <path id="path30" d="M12.787,7.876c.332,3.134,1.517,7.719,4.762,13.95" fill="none" stroke="#464646" stroke-miterlimit="10" stroke-dasharray="2.578 2.578"/>
    <path id="path32" d="M18.186,22.912q.366.674.765,1.369" fill="none" stroke="#464646" stroke-miterlimit="10"/>
    <path id="path34" d="M15.3,3.584c.432.122.919.271,1.445.455" fill="none" stroke="#464646" stroke-miterlimit="10"/>
    <path id="path36" d="M20.84,4.824A19.2,19.2,0,0,1,30.566,15.25" fill="none" stroke="#464646" stroke-miterlimit="10" stroke-dasharray="2.54 2.54"/>
    <path id="path38" d="M31.023,16.5q.242.724.446,1.5" fill="none" stroke="#464646" stroke-miterlimit="10"/>
    <path id="path22" d="M11.622,2.478a16.37,16.37,0,0,1,2.706-.407l-.1-.732A.867.867,0,0,0,13.252.6L11.535.829a.866.866,0,0,0-.745.972v.01l.124.865c.233-.07.462-.141.707-.2Z" fill="#bebebe" stroke="#464646" stroke-miterlimit="10"/>
    <path id="path20-0" d="M47.427,45.769V36.978a5.748,5.748,0,0,0-3.466-5.059,8.646,8.646,0,0,1-10.38,0,5.745,5.745,0,0,0-3.466,5.059v8.791Z" stroke="#464646" stroke-miterlimit="10" fill="url(#linear-gradient-4)"/>
    <path id="line22" d="M43.388,45.48V38.555" fill="#464646" stroke="#464646" stroke-miterlimit="10"/>
    <path id="path24-5" d="M33,26.4c0,2.37-1.809,5.518-4.04,5.518s-4.039-3.148-4.039-5.518A4.047,4.047,0,1,1,33,26.4Z" stroke="#464646" stroke-miterlimit="10" fill="url(#linear-gradient-5)"/>
    <path id="path26-1" d="M43.3,24.169c0,2.422-1.848,5.638-4.127,5.638s-4.127-3.216-4.127-5.638a4.135,4.135,0,1,1,8.254,0Z" stroke="#464646" stroke-miterlimit="10" fill="url(#linear-gradient-6)"/>
    <path id="path28-8" d="M37.617,47.5V38.709A5.747,5.747,0,0,0,34.15,33.65a8.645,8.645,0,0,1-10.379,0A5.747,5.747,0,0,0,20.3,38.709V47.5Z" stroke="#464646" stroke-miterlimit="10" fill="url(#linear-gradient-7)"/>
    <path id="line30" d="M24.344,47.211V40.287" fill="none" stroke="#464646" stroke-linejoin="round"/>
    <path id="line32" d="M33.577,47.211V40.287" fill="#464646" stroke="#464646" stroke-linejoin="round"/>
  </g>
</svg>
