<svg id="Layer_1" data-name="Layer 1" xmlns="http://www.w3.org/2000/svg" xmlns:xlink="http://www.w3.org/1999/xlink" viewBox="0 0 48 48">
  <defs>
    <linearGradient id="linear-gradient" x1="191.484" y1="-1410.962" x2="154.885" y2="-1400.72" gradientTransform="matrix(-1, 0, 0, 1, 202, 1415)" gradientUnits="userSpaceOnUse">
      <stop offset="0" stop-color="#73b4c8"/>
      <stop offset="1" stop-color="#177492"/>
    </linearGradient>
    <linearGradient id="linear-gradient-2" x1="200.919" y1="-1410.081" x2="170.919" y2="-1380.081" gradientTransform="matrix(-1, 0, 0, 1, 202, 1415)" gradientUnits="userSpaceOnUse">
      <stop offset="0" stop-color="#fff"/>
      <stop offset="0.232" stop-color="#fafafa"/>
      <stop offset="0.496" stop-color="#ededed"/>
      <stop offset="0.775" stop-color="#d6d6d6"/>
      <stop offset="1" stop-color="#bebebe"/>
    </linearGradient>
    <linearGradient id="linear-gradient-3" x1="38.377" y1="22.538" x2="45.932" y2="14.84" gradientTransform="matrix(1, 0, 0, -1, 0, 50)" gradientUnits="userSpaceOnUse">
      <stop offset="0" stop-color="#f8f8f9"/>
      <stop offset="0.5" stop-color="#d5d4d4"/>
      <stop offset="0.63" stop-color="#d1cfce"/>
      <stop offset="0.779" stop-color="#c4c1c1"/>
      <stop offset="0.938" stop-color="#aba8a7"/>
      <stop offset="0.99" stop-color="#a29f9d"/>
    </linearGradient>
    <linearGradient id="linear-gradient-4" x1="40.665" y1="19.898" x2="43.693" y2="17.481" gradientTransform="matrix(1, 0, 0, -1, 0, 50)" gradientUnits="userSpaceOnUse">
      <stop offset="0" stop-color="#fff"/>
      <stop offset="0.221" stop-color="#fbfbfc"/>
      <stop offset="0.541" stop-color="#ececec"/>
      <stop offset="0.92" stop-color="#d0cecd"/>
      <stop offset="1" stop-color="#c9c6c5"/>
    </linearGradient>
    <linearGradient id="linear-gradient-5" x1="25.831" y1="20.972" x2="33.972" y2="12.849" gradientTransform="matrix(1, 0, 0, -1, 0, 48)" xlink:href="#linear-gradient-3"/>
    <linearGradient id="linear-gradient-6" x1="28.458" y1="18.34" x2="31.451" y2="15.348" gradientTransform="matrix(1, 0, 0, -1, 0, 48)" xlink:href="#linear-gradient-4"/>
    <linearGradient id="linear-gradient-7" x1="32.013" y1="17.086" x2="40.125" y2="8.849" gradientTransform="matrix(1, 0, 0, -1, 0, 48)" xlink:href="#linear-gradient-3"/>
    <linearGradient id="linear-gradient-8" x1="34.659" y1="14.335" x2="37.507" y2="11.558" gradientTransform="matrix(1, 0, 0, -1, 0, 48)" xlink:href="#linear-gradient-4"/>
    <linearGradient id="linear-gradient-9" x1="25.793" y1="19.479" x2="43.945" y2="31.253" gradientUnits="userSpaceOnUse">
      <stop offset="0" stop-color="#cde6eb"/>
      <stop offset="1" stop-color="#8cc3d2"/>
    </linearGradient>
    <linearGradient id="linear-gradient-10" x1="29.223" y1="33.387" x2="37.849" y2="23.558" gradientTransform="matrix(1, 0, 0, -1, 0, 48)" xlink:href="#linear-gradient-9"/>
    <linearGradient id="linear-gradient-11" x1="5.149" y1="27.852" x2="11.4" y2="21.701" gradientTransform="matrix(1, 0, 0, -1, 0, 48)" gradientUnits="userSpaceOnUse">
      <stop offset="0" stop-color="#fff"/>
      <stop offset="1" stop-color="#bebdbd"/>
    </linearGradient>
    <linearGradient id="linear-gradient-12" x1="4.521" y1="12.965" x2="21.966" y2="8.654" gradientTransform="matrix(1, 0, 0, -1, 0, 48)" xlink:href="#linear-gradient"/>
    <linearGradient id="linear-gradient-13" x1="-2.101" y1="34.255" x2="7.169" y2="24.985" gradientTransform="matrix(1, 0, 0, -1, 0, 48)" xlink:href="#linear-gradient"/>
    <linearGradient id="linear-gradient-14" x1="15.489" y1="29.289" x2="18.295" y2="23.957" gradientTransform="matrix(1, 0, 0, -1, 0, 48)" xlink:href="#linear-gradient"/>
    <linearGradient id="linear-gradient-15" x1="0.426" y1="32.08" x2="4.325" y2="28.181" xlink:href="#linear-gradient-11"/>
    <linearGradient id="linear-gradient-16" x1="2.127" y1="29.849" x2="22.667" y2="11.574" xlink:href="#linear-gradient-11"/>
    <linearGradient id="linear-gradient-17" x1="29.156" y1="41.955" x2="32.885" y2="38.002" xlink:href="#linear-gradient-11"/>
    <linearGradient id="linear-gradient-18" x1="35.009" y1="42.063" x2="38.922" y2="38.009" xlink:href="#linear-gradient-11"/>
    <linearGradient id="linear-gradient-19" x1="41.124" y1="41.881" x2="44.816" y2="38.179" xlink:href="#linear-gradient-11"/>
  </defs>
  <g id="g940">
    <rect id="rect49" x="0.644" y="4.454" width="47" height="6.794" fill="url(#linear-gradient)"/>
    <rect id="rect51" x="0.5" y="11.177" width="47" height="33.323" fill="url(#linear-gradient-2)"/>
    <line id="line67" x1="0.356" y1="11.5" x2="47.356" y2="11.5" fill="none" stroke="#6e6e6e" stroke-miterlimit="10" stroke-width="1"/>
    <rect id="rect69" x="0.536" y="4.49" width="47" height="39.938" fill="none" stroke="#464646" stroke-miterlimit="10"/>
    <path id="path40-1-9" d="M44.415,32.051l1.2-.43v-.907l-1.2-.431a.145.145,0,0,1-.091-.181l.008-.018.546-1.161-.637-.642-1.152.553a.143.143,0,0,1-.191-.067h0l-.006-.013-.425-1.208h-.9l-.425,1.207a.146.146,0,0,1-.19.082l-.01,0-1.154-.549-.636.643.545,1.161a.146.146,0,0,1-.07.194h0l-.013,0-1.2.431v.907l1.2.43a.145.145,0,0,1,.091.183c0,.006,0,.012-.007.017l-.546,1.161.636.642,1.151-.55a.143.143,0,0,1,.191.073h0l.006.016.427,1.22h.9L42.89,33.6a.14.14,0,0,1,.171-.1.148.148,0,0,1,.027.01l1.15.55.637-.642-.546-1.161a.145.145,0,0,1,.069-.193Z" stroke="#4e4a48" stroke-linecap="round" stroke-linejoin="round" stroke-width="0.774" fill="url(#linear-gradient-3)"/>
    <path id="circle42-8-4" d="M43.023,31.179A1.013,1.013,0,0,1,42.015,32.2h0a1.014,1.014,0,0,1-1.009-1.018h0a1.014,1.014,0,0,1,1.009-1.017h0A1.013,1.013,0,0,1,43.023,31.179Z" stroke="#4e4a48" stroke-miterlimit="10" stroke-width="0.774" fill="url(#linear-gradient-4)"/>
    <path id="path40-1" d="M32.38,32.053l1.2-.431v-.907l-1.2-.431a.144.144,0,0,1-.091-.182h0l.007-.017.546-1.161-.637-.642-1.151.553a.143.143,0,0,1-.192-.068l0-.015-.425-1.207h-.9l-.429,1.207a.144.144,0,0,1-.188.083h0l-.009,0-1.15-.55-.637.642.546,1.161a.148.148,0,0,1-.07.194l-.014.006-1.2.43v.907l1.2.431a.146.146,0,0,1,.091.182h0l-.008.017-.546,1.162.637.642,1.151-.551a.145.145,0,0,1,.192.074l.006.015.427,1.221h.9l.427-1.218a.139.139,0,0,1,.171-.1.148.148,0,0,1,.027.01l1.151.551.636-.642L32.3,32.251a.147.147,0,0,1,.069-.194Z" stroke="#4e4a48" stroke-linecap="round" stroke-linejoin="round" stroke-width="0.774" fill="url(#linear-gradient-5)"/>
    <path id="circle42-8" d="M30.99,31.183A1.012,1.012,0,0,1,29.982,32.2h0a1.012,1.012,0,0,1-1.008-1.017h0a1.012,1.012,0,0,1,1.008-1.017h0a1.012,1.012,0,0,1,1.009,1.016Z" stroke="#4e4a48" stroke-miterlimit="10" stroke-width="0.774" fill="url(#linear-gradient-6)"/>
    <path id="path40" d="M38.371,35.816l1.2-.431v-.907l-1.2-.43a.144.144,0,0,1-.091-.182l.007-.017.545-1.162-.636-.642-1.151.553a.144.144,0,0,1-.193-.067l0-.013-.424-1.207h-.9L35.1,32.519a.146.146,0,0,1-.19.082l-.009,0-1.151-.55-.637.642.546,1.161a.146.146,0,0,1-.07.194h0l-.014.006-1.2.43v.907l1.2.431a.144.144,0,0,1,.091.182l-.007.018-.546,1.161.636.644,1.152-.55a.143.143,0,0,1,.191.072h0l.006.016.427,1.22h.9l.426-1.219a.142.142,0,0,1,.172-.1.119.119,0,0,1,.026.011l1.151.55.636-.642-.547-1.162a.145.145,0,0,1,.068-.192h0Z" stroke="#4e4a48" stroke-linecap="round" stroke-linejoin="round" stroke-width="0.774" fill="url(#linear-gradient-7)"/>
    <path id="circle42" d="M36.981,34.944a1.014,1.014,0,0,1-1.009,1.018h0a1.014,1.014,0,0,1-1.009-1.018h0a1.014,1.014,0,0,1,1.009-1.018h0a1.015,1.015,0,0,1,1.009,1.018Z" stroke="#4e4a48" stroke-miterlimit="10" stroke-width="0.774" fill="url(#linear-gradient-8)"/>
    <g id="g58">
      <path id="path54" d="M27.311,30.175c-.075,0-.139-.085-.139-.186V27.455c0-.1.064-.186.139-.186h.913a1.286,1.286,0,0,0,1.234-1.334V23.909c0-3.176,2.315-5.759,5.161-5.759h2.74c2.845,0,5.161,2.583,5.161,5.759v2.026a1.286,1.286,0,0,0,1.228,1.335h.913c.075,0,.139.085.139.186v2.533c0,.1-.064.186-.139.186Z" fill="url(#linear-gradient-9)"/>
      <path id="path56" d="M37.356,18.47c2.67,0,4.843,2.44,4.843,5.439v2.026a1.606,1.606,0,0,0,1.549,1.654h.734v2.264H27.49V27.589h.734a1.606,1.606,0,0,0,1.549-1.654V23.909c0-3,2.174-5.439,4.843-5.439h2.74m0-.641h-2.74c-3.026,0-5.479,2.722-5.479,6.08v2.026a.966.966,0,0,1-.913,1.013h-.913a.482.482,0,0,0-.456.507v2.533a.483.483,0,0,0,.456.507h17.35a.486.486,0,0,0,.457-.507V27.455a.486.486,0,0,0-.457-.507h-.913a.967.967,0,0,1-.913-1.013V23.909C42.835,20.551,40.382,17.829,37.356,17.829Z" fill="#177491"/>
    </g>
    <g id="g64">
      <path id="polyline60" d="M33.931,26.81V17.829H38.04V26.81" fill="url(#linear-gradient-10)"/>
      <path id="polygon62" d="M37.734,18.137h-3.5V26.81h-.612V17.52h4.72v9.29h-.612Z" fill="#177491"/>
    </g>
    <g id="g40">
      <path id="path18" d="M15.383,19.47H8.239a3.6,3.6,0,0,0-.232-.363L8,19.091a3.391,3.391,0,0,0-.585-.617l-.032-.026a3.236,3.236,0,0,0-.3-.213L7.023,18.2a3.218,3.218,0,0,0-.74-.328c-.033-.01-.067-.018-.1-.027a3.016,3.016,0,0,0-.3-.064l-.114-.019a3.277,3.277,0,0,0-.408-.028,3.4,3.4,0,0,0-3.319,3.476,3.654,3.654,0,0,0,.025.405c0,.041.012.082.017.123.014.092.03.183.051.272.01.045.021.089.032.133.024.088.051.175.081.26.013.037.025.075.039.112a3.441,3.441,0,0,0,.152.347h0a3.421,3.421,0,0,0,.2.33c.019.029.04.056.061.085.053.075.108.148.167.219.026.031.052.061.079.091.061.068.125.132.19.2l.076.072a3.4,3.4,0,0,0,.29.233L9.725,35.4h6.089L8.957,22.946h6.426Z" fill="url(#linear-gradient-11)"/>
      <path id="path20" d="M4.811,34.917H20.728a1.2,1.2,0,0,1,1.175,1.23v2.826H3.635V36.149A1.205,1.205,0,0,1,4.81,34.917Z" fill="url(#linear-gradient-12)"/>
      <path id="path22" d="M8.684,21.208a3.4,3.4,0,0,1-3.321,3.477,3.48,3.48,0,0,1,0-6.953h0A3.4,3.4,0,0,1,8.684,21.208ZM5.363,19.76a1.451,1.451,0,0,0,0,2.9A1.419,1.419,0,0,0,6.747,21.21h0A1.418,1.418,0,0,0,5.363,19.76Z" fill="url(#linear-gradient-13)"/>
      <rect id="rect24" x="15.926" y="18.841" width="1.755" height="4.733" fill="url(#linear-gradient-14)"/>
      <g id="g38">
        <g id="g30">
          <path id="path26" d="M7,21.208a1.674,1.674,0,0,0-1.666-1.684,1.678,1.678,0,0,0-1.609,1.684,1.674,1.674,0,0,1,1.666-1.684A1.678,1.678,0,0,1,7,21.208Z" fill="url(#linear-gradient-15)"/>
          <path id="path28" d="M5.363,19.23a1.982,1.982,0,0,0,0,3.959A1.937,1.937,0,0,0,7.253,21.21h0A1.937,1.937,0,0,0,5.363,19.23Zm0,3.428a1.451,1.451,0,0,1,0-2.9,1.418,1.418,0,0,1,1.385,1.448h0a1.418,1.418,0,0,1-1.384,1.449Z" fill="#464646"/>
        </g>
        <g id="g36">
          <path id="path32" d="M3.889,36.149a.946.946,0,0,1,.922-.966H9.9L6.075,28.235l3.8,6.9h5.5L8.519,22.681l6.885,12.5h5.324a.944.944,0,0,1,.922.965.944.944,0,0,0-.922-.965H4.814a.945.945,0,0,0-.923.965h0ZM5.815,24.385a3.056,3.056,0,0,0,1.993-1.239A3.036,3.036,0,0,1,5.815,24.385Zm-2.052-.353L3.69,23.9l-.051-.034a3.12,3.12,0,0,1-.56-.518l-.008-.008.066.074c.047.053.1.106.149.154s.068.066.1.092c.061.055.121.1.179.146a3.129,3.129,0,0,0,.782.431ZM15.67,22.681h-.035V19.735H8.11l.087.245c-.039-.1-.083-.194-.13-.288l-.036-.064a3.58,3.58,0,0,0-.22-.348,3.663,3.663,0,0,0-.3-.364,3.156,3.156,0,0,1,.51.685l.073.133h7.582V18.576h0v4.105Zm2.262-.327V21.328l.132.115,2.406,1.373,1.251-.717,1.036-.017-.6.75-1.691.971Zm-14.943.884a3.1,3.1,0,0,1-.471-.823s-.041-.119-.051-.142l.051.149c.036.091.071.167.107.241s.065.127.1.188.071.123.107.178C2.837,23.027,2.962,23.2,2.989,23.238Zm5.2-.785-.027.075-.047.1c.028-.056.052-.113.076-.17Zm-5.821-.561A3.319,3.319,0,0,1,2.3,21.21h0a3.315,3.315,0,0,0,.022.372l.018.117C2.344,21.763,2.355,21.829,2.368,21.892Zm15.565-1.867,2.538-1.447,1.693.97.594.751-1.035-.017-1.252-.718-2.538,1.449ZM7.207,18.647a2.816,2.816,0,0,0-.25-.178l-.071-.046a2.973,2.973,0,0,0-.67-.3l-.029-.009.026.008a2.953,2.953,0,0,1,.68.3l.055.035a3.112,3.112,0,0,1,.274.2l.019.014ZM6.117,18.1c-.106-.027-.188-.045-.272-.058l-.1-.018L5.6,18.009C5.525,18,5.453,18,5.379,18A2.925,2.925,0,0,1,6.117,18.1Z" fill="url(#linear-gradient-16)"/>
          <path id="path34" d="M6.1,18.369h0m14.368.511L22,19.757l.212.268-.424-.007L20.714,19.4l-.243-.139-.243.139-2.042,1.166v-.382l.243-.139,2.042-1.166m-2.284,2.934,2.042,1.167.243.139.243-.14,1.073-.617.422-.008L22,22.624l-1.528.877L18.43,22.334l-.243-.138v-.383M5.363,17.729a3.4,3.4,0,0,0-3.322,3.476v0h0a3.738,3.738,0,0,0,.092.8h0l.021.085q.041.159.1.318c.011.034.022.069.036.1h0a3.441,3.441,0,0,0,.152.347h0a3.453,3.453,0,0,0,.424.636h0l.028.032a3.318,3.318,0,0,0,.608.559L9.459,34.917H4.814a1.2,1.2,0,0,0-1.176,1.23v2.826H21.9V36.149a1.2,1.2,0,0,0-1.175-1.231h-5.18L8.957,22.946h6.462v1.159h2.768V22.8l2.284,1.3,1.857-1.065.976-1.233-1.648.028-1.185.679-2.284-1.3v-.039l2.284-1.3,1.185.68,1.648.027-.976-1.233-1.857-1.065-2.284,1.3V18.311H15.419V19.47H8.236a3.439,3.439,0,0,0-.838-1l-.023-.017h0a3.208,3.208,0,0,0-.3-.213h0L7.02,18.2h0a3.238,3.238,0,0,0-.734-.328h0c-.033-.01-.067-.018-.1-.027h0a3.159,3.159,0,0,0-.82-.111Zm0,6.423a2.711,2.711,0,0,1-1.64-.557c-.056-.043-.112-.086-.175-.141-.03-.027-.058-.053-.087-.084-.047-.045-.094-.092-.138-.141-.029-.032-.057-.065-.085-.1-.042-.053-.082-.106-.121-.159-.024-.033-.051-.065-.071-.1-.038-.058-.067-.11-.1-.164s-.063-.113-.091-.172-.066-.138-.1-.221c-.013-.034-.024-.07-.037-.107-.024-.071-.047-.143-.067-.216-.01-.037-.019-.074-.027-.112q-.026-.114-.042-.231L2.578,21.6c0-.019-.007-.037-.009-.057a2.986,2.986,0,0,1-.02-.341h0a2.885,2.885,0,0,1,2.814-2.946c.072,0,.143.006.214.011.043,0,.085.007.132.014a.521.521,0,0,1,.069.01l.029,0c.086.014.17.032.253.053l.017,0,.07.018a2.736,2.736,0,0,1,.613.274c.023.013.044.028.066.042.079.051.156.105.23.164l.051.038a2.868,2.868,0,0,1,.491.523l.014.019a2.965,2.965,0,0,1,.182.283c.007.014.015.026.022.039l.031.056A3.016,3.016,0,0,1,6.7,23.8a2.718,2.718,0,0,1-1.332.35Zm10.563-.577V18.841H17.68v4.734ZM8.474,22.416a3.579,3.579,0,0,0,0-2.416h6.909v2.416ZM5.363,24.685A3.3,3.3,0,0,0,8.3,22.821l.215.39,6.42,11.658h-4.92l-5.7-10.364A3.182,3.182,0,0,0,5.363,24.685ZM4.142,38.442V36.149a.687.687,0,0,1,.669-.7H20.728a.687.687,0,0,1,.669.7v2.294Z" fill="#464646"/>
        </g>
      </g>
    </g>
    <rect id="rect65" x="29.5" y="6.5" width="3" height="3" stroke="#6e6e6e" stroke-width="1" fill="url(#linear-gradient-17)"/>
    <rect id="rect65-8" x="35.5" y="6.5" width="3" height="3" stroke="#6e6e6e" stroke-width="1" fill="url(#linear-gradient-18)"/>
    <rect id="rect65-4" x="41.5" y="6.5" width="3" height="3" stroke="#6e6e6e" stroke-width="1" fill="url(#linear-gradient-19)"/>
  </g>
</svg>
