<svg id="Image" xmlns="http://www.w3.org/2000/svg" xmlns:xlink="http://www.w3.org/1999/xlink" viewBox="0 0 48 48">
  <defs>
    <linearGradient id="linear-gradient" x1="-8.523" y1="22.271" x2="5.894" y2="-14.805" gradientTransform="matrix(0.809, -0.588, -0.57, -0.821, 27.372, 39.431)" gradientUnits="userSpaceOnUse">
      <stop offset="0" stop-color="#fff"/>
      <stop offset="1" stop-color="#dcdcdc"/>
    </linearGradient>
    <linearGradient id="linear-gradient-2" x1="23.998" y1="6.115" x2="23.998" y2="-0.042" gradientTransform="translate(0 2)" gradientUnits="userSpaceOnUse">
      <stop offset="0" stop-color="#c9c6c5"/>
      <stop offset="0.045" stop-color="#cecccc"/>
      <stop offset="0.268" stop-color="#e7e6e6"/>
      <stop offset="0.497" stop-color="#f6f6f7"/>
      <stop offset="0.736" stop-color="#fefefe"/>
      <stop offset="1" stop-color="#fff"/>
    </linearGradient>
    <linearGradient id="linear-gradient-3" x1="11.722" y1="3.667" x2="36.278" y2="33.278" gradientTransform="translate(0 2)" gradientUnits="userSpaceOnUse">
      <stop offset="0" stop-color="#fff"/>
      <stop offset="0.221" stop-color="#fbfbfc"/>
      <stop offset="0.541" stop-color="#ececec"/>
      <stop offset="0.92" stop-color="#d0cecd"/>
      <stop offset="1" stop-color="#c9c6c5"/>
    </linearGradient>
    <linearGradient id="linear-gradient-4" x1="13.889" y1="5.833" x2="34.111" y2="31.111" gradientTransform="translate(0 2)" gradientUnits="userSpaceOnUse">
      <stop offset="0" stop-color="#fff"/>
      <stop offset="0.335" stop-color="#fbfbfc"/>
      <stop offset="0.82" stop-color="#ececec"/>
      <stop offset="1" stop-color="#e4e3e4"/>
    </linearGradient>
    <linearGradient id="linear-gradient-5" x1="50.731" y1="-51.274" x2="58.561" y2="-51.168" gradientTransform="matrix(0.707, 0.707, 0.756, -0.756, 23.22, -55.823)" gradientUnits="userSpaceOnUse">
      <stop offset="0" stop-color="#73b4c8"/>
      <stop offset="1" stop-color="#177491"/>
    </linearGradient>
    <linearGradient id="linear-gradient-6" x1="27.539" y1="31.707" x2="22.107" y2="26.014" gradientTransform="translate(48 48) rotate(180)" xlink:href="#linear-gradient"/>
    <linearGradient id="linear-gradient-7" x1="22.127" y1="26.097" x2="15.65" y2="19.374" gradientTransform="translate(48 48) rotate(180)" gradientUnits="userSpaceOnUse">
      <stop offset="0" stop-color="#f2f2f2"/>
      <stop offset="1" stop-color="#999"/>
    </linearGradient>
    <linearGradient id="linear-gradient-8" x1="22.132" y1="26.058" x2="15.448" y2="19.375" xlink:href="#linear-gradient-7"/>
    <linearGradient id="linear-gradient-9" x1="29.057" y1="33.88" x2="26.878" y2="31.702" xlink:href="#linear-gradient-7"/>
  </defs>
  <g id="g880">
    <path id="rect864" d="M1.421,37l22.635-9.579,22.523,9.613L24.147,46.579Z" stroke="#464646" stroke-linejoin="round" stroke-width="0.841" fill="url(#linear-gradient)"/>
    <path id="path37" d="M30.139,4.945a1.884,1.884,0,0,0-1.445-.723H27.611V3.861a2.563,2.563,0,0,0-2.528-2.528H22.916a2.562,2.562,0,0,0-2.527,2.528v.361H19.306a1.884,1.884,0,0,0-1.445.723H11V36H37V4.945Z" fill="#4e4a48"/>
    <path id="path39" d="M18.222,7.833H29.778V6.025a1.109,1.109,0,0,0-1.084-1.083H26.886V3.861a1.789,1.789,0,0,0-1.767-1.809h-2.2a1.788,1.788,0,0,0-1.8,1.77V4.945H19.3a1.109,1.109,0,0,0-1.084,1.083Z" fill="url(#linear-gradient-2)"/>
    <path id="circle41" d="M24.722,4.222A.722.722,0,0,1,24,4.944h0a.722.722,0,0,1-.722-.722h0A.722.722,0,0,1,24,3.5h0a.722.722,0,0,1,.722.722Z" fill="#4e4a48"/>
    <path id="path43" d="M30.428,5.667a.655.655,0,0,1,.075.361V8.555h-13V6.028a.655.655,0,0,1,.075-.361H11.722V35.278H36.278V5.667Z" fill="url(#linear-gradient-3)"/>
    <path id="polygon45" d="M17.5,8.555V7.111H13.167V33.833H34.833V7.111H30.5V8.555Z" fill="#c9c6c5"/>
    <path id="polygon47" d="M17.5,8.555V7.833H13.889V33.111H34.111V7.833H30.5v.722Z" fill="url(#linear-gradient-4)"/>
    <path id="path20" d="M16.821,29.4c-.066,0-.132-.006-.2-.01a2.015,2.015,0,0,1-1.807-1.775.955.955,0,0,1,.12-.742l9.217-8.958a.288.288,0,0,0,.152-.279.23.23,0,0,0-.005-.045c-.052-.286-.471-2.838.866-4.172a4.34,4.34,0,0,1,2.968-1.307c.07,0,.138-.007.206-.007a1.526,1.526,0,0,1,.324.029h0a2.17,2.17,0,0,1,.306.3l-1.82,1.809a.219.219,0,0,0-.042.062c-.834,1.827-.808,1.853-.682,1.978l1.506,1.506a.209.209,0,0,0,.224.048l1.684-.632a.236.236,0,0,0,.076-.049c.014-.015,1.457-1.468,1.911-1.9a1.341,1.341,0,0,1,.29.316A4.487,4.487,0,0,1,30.79,19.1a3.924,3.924,0,0,1-2.661.953c-.084,0-.169.007-.258.007a9.211,9.211,0,0,1-1.306-.095.323.323,0,0,0-.279.111l-8.9,9.158a.833.833,0,0,1-.57.167Zm.154-2.688a.571.571,0,0,0-.4.95.5.5,0,0,0,.371.156.619.619,0,0,0,.406-.173.567.567,0,0,0,.172-.4.524.524,0,0,0-.157-.373A.49.49,0,0,0,17,26.708Z" fill="url(#linear-gradient-5)"/>
    <path id="path22" d="M28.339,12.314a1.4,1.4,0,0,1,.234.016,1.328,1.328,0,0,1,.1.092L27,14.091a.421.421,0,0,0-.085.124c-.895,1.96-.876,1.979-.64,2.215l1.506,1.507a.426.426,0,0,0,.449.1l1.683-.631a.437.437,0,0,0,.152-.1c.013-.014,1.206-1.214,1.76-1.752.039.043.066.072.082.092a4.276,4.276,0,0,1-1.262,3.3,3.72,3.72,0,0,1-2.521.894c-.082,0-.166.007-.254.007a9.014,9.014,0,0,1-1.271-.093.448.448,0,0,0-.063-.006h-.015a.509.509,0,0,0-.388.18l-8.889,9.149a.632.632,0,0,1-.42.107c-.059,0-.119-.005-.179-.009a1.8,1.8,0,0,1-1.62-1.59.841.841,0,0,1,.055-.563l9.2-8.941a.5.5,0,0,0,.233-.441.392.392,0,0,0-.008-.09c-.049-.275-.453-2.725.807-3.985a4.133,4.133,0,0,1,2.825-1.245c.067,0,.133-.007.2-.007M16.948,28.025h.029a.812.812,0,0,0,.527-.234.778.778,0,0,0,.234-.527.732.732,0,0,0-.218-.549A.717.717,0,0,0,17,26.5h-.029a.751.751,0,0,0-.527.234.785.785,0,0,0-.235.527.739.739,0,0,0,.219.551.706.706,0,0,0,.52.219M32,15.384h0M28.339,11.89c-.071,0-.142,0-.212.007a4.572,4.572,0,0,0-3.11,1.369c-1.309,1.308-1.047,3.685-.924,4.36,0,.049,0,.1-.052.1l-9.257,8.993a1.137,1.137,0,0,0-.181.917,2.221,2.221,0,0,0,2,1.962c.073.007.147.011.221.011a1,1,0,0,0,.72-.232l8.893-9.155c.051-.05.051-.05.1-.052a9.17,9.17,0,0,0,1.334.1c.092,0,.181,0,.268-.006a4.124,4.124,0,0,0,2.806-1.017,4.7,4.7,0,0,0,1.38-3.706c-.006-.111-.249-.345-.4-.475a.144.144,0,0,0-.1-.036.169.169,0,0,0-.116.047c-.421.392-1.948,1.93-1.948,1.93l-1.686.632L26.574,16.13c-.047-.047.725-1.74.725-1.74l1.812-1.812a.221.221,0,0,0,.057-.245c-.047-.047-.359-.409-.458-.409h0a1.7,1.7,0,0,0-.369-.034ZM16.948,27.6a.288.288,0,0,1-.221-.094.359.359,0,0,1,.258-.588H17a.287.287,0,0,1,.22.095.329.329,0,0,1-.007.466l-.011.01a.394.394,0,0,1-.242.111Z" fill="#464646"/>
    <path id="polygon26" d="M25.616,22.312l.629-.651-5.458-5.643-.629.651Z" stroke="#474647" stroke-miterlimit="10" stroke-width="0.424" fill="url(#linear-gradient-6)"/>
    <path id="path858" d="M25.555,23.424,27.321,21.6l5.615,5.23a1.013,1.013,0,0,1-.012,1.384l-.974,1.007a.933.933,0,0,1-1.318.034l-.034-.034Z" stroke="#474647" stroke-miterlimit="10" stroke-width="0.424" fill="url(#linear-gradient-7)"/>
    <path id="path28" d="M25.263,22.722a.594.594,0,0,1,.161-.254l.225-.234.85-.878a.389.389,0,0,1,.547-.015l.275.257-1.766,1.826-.249-.285a.466.466,0,0,1-.042-.417Z" stroke="#474647" stroke-miterlimit="10" stroke-width="0.424" fill="url(#linear-gradient-8)"/>
    <path id="path30" d="M21.523,14.291l-.47-.485-.472-.488a7.556,7.556,0,0,1,1.385-.72A14.76,14.76,0,0,1,24,12.15,6.067,6.067,0,0,0,21.523,14.291ZM18.7,17.657l-.1-.1-1.168-1.208-.1-.1a.386.386,0,0,1,0-.531L19.866,13.1a.354.354,0,0,1,.5-.011l.011.011,1.362,1.408a.384.384,0,0,1,0,.531l-.72.742h0l-.176.181-1.636,1.7A.366.366,0,0,1,18.7,17.657Zm-.327-.339-.977,1.009-.353-.365-.353-.365.977-1.011Zm-2.877.315.269-.279a.449.449,0,0,1,.635-.013l.013.013.613.636.585.6h0l.029.029a.486.486,0,0,1,0,.671l-.269.278Z" stroke="#474647" stroke-linejoin="round" stroke-width="0.424" fill="url(#linear-gradient-9)"/>
  </g>
</svg>
