<svg xmlns="http://www.w3.org/2000/svg" xmlns:xlink="http://www.w3.org/1999/xlink" viewBox="0 0 48 48">
  <defs>
    <linearGradient id="Siemens_-_Mid_gray" data-name="Siemens - Mid gray" x1="8.564" y1="18.827" x2="39.436" y2="49.7" gradientUnits="userSpaceOnUse">
      <stop offset="0" stop-color="#fff"/>
      <stop offset="1" stop-color="#bebdbd"/>
    </linearGradient>
    <linearGradient id="Siemens_-_Dark_blue" data-name="Siemens - Dark blue" x1="18.662" y1="19.016" x2="29.338" y2="29.693" gradientUnits="userSpaceOnUse">
      <stop offset="0" stop-color="#73b4c8"/>
      <stop offset="1" stop-color="#177491"/>
    </linearGradient>
    <linearGradient id="Siemens_-_Dark_blue-2" x1="21.879" y1="34.848" x2="26.121" y2="39.09" xlink:href="#Siemens_-_Dark_blue"/>
  </defs>
  <g id="Verb_Zone">
    <g>
      <path d="M22.268,5.222,1.74,40.778a2,2,0,0,0,1.732,3H44.528a2,2,0,0,0,1.732-3L25.732,5.222A2,2,0,0,0,22.268,5.222Z" fill="url(#Siemens_-_Mid_gray)"/>
      <path d="M44.528,44.277H3.472a2.5,2.5,0,0,1-2.164-3.75L21.835,4.972h0a2.5,2.5,0,0,1,4.33,0L46.692,40.527a2.5,2.5,0,0,1-2.164,3.75ZM22.7,5.472,2.173,41.027a1.5,1.5,0,0,0,1.3,2.25H44.528a1.5,1.5,0,0,0,1.3-2.25L25.3,5.472a1.5,1.5,0,0,0-2.6,0Z" fill="#464646"/>
    </g>
    <g>
      <g>
        <path d="M22.1,16.032H25.9a1.1,1.1,0,0,1,1.1,1.1v14.9a0,0,0,0,1,0,0H21a0,0,0,0,1,0,0v-14.9A1.1,1.1,0,0,1,22.1,16.032Z" fill="url(#Siemens_-_Dark_blue)"/>
        <path d="M25.9,17.032a.1.1,0,0,1,.1.1v13.9H22v-13.9a.1.1,0,0,1,.1-.1H25.9m0-1H22.1a1.1,1.1,0,0,0-1.1,1.1v14.9h6v-14.9a1.1,1.1,0,0,0-1.1-1.1Z" fill="#177491"/>
      </g>
      <g>
        <circle cx="24" cy="36.969" r="3" fill="url(#Siemens_-_Dark_blue-2)"/>
        <path d="M24,34.969a2,2,0,1,1-2,2,2,2,0,0,1,2-2m0-1a3,3,0,1,0,3,3,3,3,0,0,0-3-3Z" fill="#177491"/>
      </g>
    </g>
  </g>
</svg>
