<svg id="Layer_1" data-name="Layer 1" xmlns="http://www.w3.org/2000/svg" xmlns:xlink="http://www.w3.org/1999/xlink" viewBox="0 0 48 48">
  <defs>
    <linearGradient id="linear-gradient" x1="3.668" y1="39.168" x2="37.332" y2="5.503" gradientTransform="matrix(1.171, 0, 0, -1.121, -0.013, 54.837)" gradientUnits="userSpaceOnUse">
      <stop offset="0" stop-color="#fff"/>
      <stop offset="0.221" stop-color="#f8f8f8"/>
      <stop offset="0.541" stop-color="#e5e5e5"/>
      <stop offset="0.92" stop-color="#c6c6c6"/>
      <stop offset="1" stop-color="#bebebe"/>
    </linearGradient>
    <linearGradient id="linear-gradient-2" x1="7.793" y1="53.621" x2="33.207" y2="28.207" gradientTransform="matrix(1.171, 0, 0, -1.121, -0.013, 54.837)" gradientUnits="userSpaceOnUse">
      <stop offset="0" stop-color="#73b4c8"/>
      <stop offset="0.175" stop-color="#6aaec3"/>
      <stop offset="0.457" stop-color="#529eb5"/>
      <stop offset="0.809" stop-color="#2c839f"/>
      <stop offset="1" stop-color="#147391"/>
    </linearGradient>
    <linearGradient id="linear-gradient-3" x1="8.064" y1="19.067" x2="24.738" y2="21.391" gradientTransform="matrix(0.36, 0.457, 0.457, -0.36, -4.618, 27.508)" xlink:href="#linear-gradient-2"/>
    <linearGradient id="linear-gradient-4" x1="19.066" y1="20.735" x2="42.055" y2="9.262" gradientTransform="matrix(0.539, 0.218, 0.218, -0.539, -2.797, 34.299)" xlink:href="#linear-gradient-2"/>
    <linearGradient id="linear-gradient-5" x1="9.742" y1="20.527" x2="15.534" y2="18.951" gradientTransform="matrix(0.36, 0.457, 0.457, -0.36, -4.617, 27.509)" xlink:href="#linear-gradient"/>
    <linearGradient id="linear-gradient-6" x1="33.379" y1="14.62" x2="37.621" y2="10.378" gradientTransform="matrix(0.539, 0.218, 0.218, -0.539, -2.797, 34.299)" xlink:href="#linear-gradient"/>
  </defs>
  <g id="g877">
    <path id="path13" d="M.573,14.469V44.184a2.294,2.294,0,0,0,2.343,2.243H45.084a2.294,2.294,0,0,0,2.343-2.243V14.469Z" fill="url(#linear-gradient)"/>
    <path id="path26" d="M47.427,15.029V3.816a2.294,2.294,0,0,0-2.343-2.243H2.916A2.3,2.3,0,0,0,.573,3.816V15.029Z" stroke="#464646" stroke-miterlimit="10" stroke-width="1.146" fill="url(#linear-gradient-2)"/>
    <path id="path48" d="M47.427,44.184V3.816a2.294,2.294,0,0,0-2.343-2.243H2.916A2.294,2.294,0,0,0,.573,3.816V44.184a2.294,2.294,0,0,0,2.343,2.243H45.084A2.294,2.294,0,0,0,47.427,44.184Z" fill="none" stroke="#464646" stroke-miterlimit="10" stroke-width="1.146"/>
    <path id="path28" d="M10.368,30.5l1.919,1.211,1.256-.988-.726-2.15a.253.253,0,0,1,.151-.325A.168.168,0,0,1,13,28.237l2.21-.5L15.4,26.15l-2.031-1.006a.256.256,0,0,1-.116-.343l.011-.02,1.2-1.912-.989-1.259-2.142.72a.259.259,0,0,1-.322-.175l-.005-.015-.5-2.211L8.921,19.74l-1,2.032a.257.257,0,0,1-.344.117l-.025-.015-1.919-1.21-1.257.985L5.1,23.8a.253.253,0,0,1-.152.325l-.032.01-2.211.5-.189,1.587L4.54,27.23a.257.257,0,0,1,.11.346l-.016.027L3.416,29.529,4.4,30.784l2.159-.735a.251.251,0,0,1,.329.131.244.244,0,0,1,.014.046l.5,2.211,1.586.189L10,30.6a.256.256,0,0,1,.344-.113l.023.013Z" stroke="#464646" stroke-linecap="round" stroke-linejoin="round" stroke-width="0.582" fill="url(#linear-gradient-3)"/>
    <path id="path30" d="M22.455,38.321l2.266.1.6-1.483-1.7-1.5a.253.253,0,0,1-.029-.357l.021-.023,1.668-1.531-.621-1.475-2.263.135a.255.255,0,0,1-.27-.24.155.155,0,0,1,0-.022l.1-2.256-1.486-.6-1.5,1.69a.26.26,0,0,1-.367.007l-.009-.009-1.538-1.671-1.471.624.134,2.261a.256.256,0,0,1-.245.268h-.024l-2.266-.1-.6,1.481,1.7,1.5a.254.254,0,0,1,.028.358l-.02.022-1.669,1.532.621,1.481,2.26-.133a.257.257,0,0,1,.265.248v.028l-.105,2.276,1.481.6,1.507-1.709a.251.251,0,0,1,.351-.049.193.193,0,0,1,.033.031l1.545,1.672,1.472-.624-.134-2.261a.256.256,0,0,1,.243-.269Z" stroke="#464646" stroke-linecap="round" stroke-linejoin="round" stroke-width="0.582" fill="url(#linear-gradient-4)"/>
    <path id="circle36" d="M10.328,25.105a1.746,1.746,0,0,1-.292,2.452h0a1.745,1.745,0,0,1-2.451-.293h0a1.744,1.744,0,0,1,.292-2.451h0a1.746,1.746,0,0,1,2.451.292Z" stroke="#464646" stroke-linecap="round" stroke-miterlimit="10" stroke-width="0.582" fill="url(#linear-gradient-5)"/>
    <path id="circle38" d="M20.7,35.953a1.745,1.745,0,0,1-2.273.964h0a1.745,1.745,0,0,1-.964-2.272h0a1.745,1.745,0,0,1,2.273-.964h0a1.745,1.745,0,0,1,.964,2.272Z" stroke="#464646" stroke-linecap="round" stroke-miterlimit="10" stroke-width="0.582" fill="url(#linear-gradient-6)"/>
    <path id="line17" d="M34,22.456H44" fill="none" stroke="#147391" stroke-width="1.089"/>
    <path id="rect19" d="M29.5,21.5h2v2h-2Z" fill="none" stroke="#147391"/>
    <path id="rect23" d="M29.5,26.5h2v2h-2Z" fill="none" stroke="#147391"/>
    <path id="rect27" d="M29.5,31.5h2v2h-2Z" fill="none" stroke="#147391"/>
    <path id="rect31" d="M29.5,36.5h2v2h-2Z" fill="none" stroke="#147391"/>
    <path id="line17-6" d="M34,27.5H44" fill="none" stroke="#147391" stroke-width="1.089"/>
    <path id="line17-7" d="M34,32.5H44" fill="none" stroke="#147391" stroke-width="1.089"/>
    <path id="line17-64" d="M34,37.5H44" fill="none" stroke="#147391" stroke-width="1.089"/>
  </g>
</svg>
