<svg id="Image" xmlns="http://www.w3.org/2000/svg" xmlns:xlink="http://www.w3.org/1999/xlink" viewBox="0 0 48 48">
  <defs>
    <linearGradient id="linear-gradient" x1="27.721" y1="29.048" x2="43.279" y2="13.492" gradientTransform="matrix(1, 0, 0, -1, 0, 48.72)" gradientUnits="userSpaceOnUse">
      <stop offset="0" stop-color="#f2f2f2"/>
      <stop offset="1" stop-color="#999"/>
    </linearGradient>
    <linearGradient id="Siemens_-_Dark_gray" data-name="Siemens - Dark gray" x1="30.159" y1="13.429" x2="40.105" y2="3.483" xlink:href="#linear-gradient"/>
    <linearGradient id="linear-gradient-2" x1="30.901" y1="25.865" x2="40.096" y2="16.671" gradientTransform="matrix(1, 0, 0, -1, 0, 48.72)" gradientUnits="userSpaceOnUse">
      <stop offset="0" stop-color="#fff"/>
      <stop offset="1" stop-color="#dcdcdc"/>
    </linearGradient>
    <linearGradient id="Sfumatura_senza_nome_9" data-name="Sfumatura senza nome 9" x1="6.74" y1="14.812" x2="29.846" y2="37.918" gradientUnits="userSpaceOnUse">
      <stop offset="0" stop-color="#73b4c8"/>
      <stop offset="1" stop-color="#177491"/>
    </linearGradient>
    <linearGradient id="Sfumatura_senza_nome_9-2" x1="10.542" y1="11.01" x2="33.648" y2="34.116" xlink:href="#Sfumatura_senza_nome_9"/>
    <linearGradient id="Siemens_-_Mid_gray" data-name="Siemens - Mid gray" x1="14.405" y1="14.873" x2="22.475" y2="22.943" gradientUnits="userSpaceOnUse">
      <stop offset="0" stop-color="#fff"/>
      <stop offset="1" stop-color="#bebdbd"/>
    </linearGradient>
    <linearGradient id="Sfumatura_senza_nome_9-3" x1="5.622" y1="15.931" x2="28.727" y2="39.036" xlink:href="#Sfumatura_senza_nome_9"/>
    <linearGradient id="Siemens_-_Mid_gray-2" x1="16.675" y1="26.984" x2="19.912" y2="30.221" xlink:href="#Siemens_-_Mid_gray"/>
  </defs>
  <g>
    <path d="M44.654,28.078a.408.408,0,0,0-.054.541l1.476,2.04-2.359.875a.41.41,0,0,0-.257.479l.585,2.449-2.517-.1a.4.4,0,0,0-.42.345l-.4,2.485L38.422,36.15a.411.411,0,0,0-.52.158L36.583,38.45,34.87,36.6a.407.407,0,0,0-.54-.054l-2.038,1.476-.876-2.36a.406.406,0,0,0-.48-.256l-2.448.583.094-2.515a.412.412,0,0,0-.345-.421l-2.486-.4L26.8,30.373a.41.41,0,0,0-.158-.521L24.5,28.533l1.846-1.711a.409.409,0,0,0,.053-.541l-1.476-2.039,2.359-.875a.41.41,0,0,0,.257-.48l-.584-2.449,2.517.1a.409.409,0,0,0,.42-.345l.4-2.486,2.285,1.048a.411.411,0,0,0,.52-.158l1.319-2.142L36.129,18.3a.41.41,0,0,0,.54.053l2.039-1.475.875,2.359a.409.409,0,0,0,.48.257l2.449-.585-.095,2.517a.411.411,0,0,0,.345.42l2.486.4L44.2,24.528a.409.409,0,0,0,.158.52L46.5,26.367Z" fill="url(#linear-gradient)"/>
    <g>
      <path d="M37.009,38.712a.5.5,0,0,1-.377.236l-.049,0a.5.5,0,0,1-.366-.16L34.558,37l-1.973,1.429a.507.507,0,0,1-.438.073.5.5,0,0,1-.324-.3L31,35.984v7.858l4.2-3.151a.5.5,0,0,1,.6,0L40,43.842V37.423l-1.714-.785Z" fill="url(#Siemens_-_Dark_gray)"/>
      <path d="M30,36.148v8.694a.5.5,0,0,0,.8.4l4.7-3.525,4.7,3.525a.5.5,0,0,0,.3.1.508.508,0,0,0,.224-.053A.5.5,0,0,0,41,44.842V37.589c-.02.015.023-.013,0,0a.356.356,0,0,0,.2-.313l.388-2.406,2.437.092a.551.551,0,0,0,.406-.183.5.5,0,0,0,.1-.433l-.566-2.37,2.285-.848a.5.5,0,0,0,.231-.762l-1.429-1.974,1.788-1.659a.5.5,0,0,0-.077-.792l-2.075-1.277L45.7,22.451a.5.5,0,0,0-.375-.7l-2.407-.388.092-2.437a.5.5,0,0,0-.616-.506l-2.372.567L39.177,16.7a.5.5,0,0,0-.762-.231L36.44,17.9,34.782,16.11a.5.5,0,0,0-.792.078l-1.277,2.074L30.5,17.248a.5.5,0,0,0-.7.375l-.389,2.408-2.436-.093a.465.465,0,0,0-.406.183.5.5,0,0,0-.1.433l.565,2.372-2.285.847a.5.5,0,0,0-.231.763l1.429,1.974L24.16,28.167a.5.5,0,0,0,.078.792l2.074,1.277L25.3,32.449a.5.5,0,0,0,.013.445.5.5,0,0,0,.362.258l2.407.387-.091,2.437a.5.5,0,0,0,.616.5M40,43.842l-4.2-3.151a.5.5,0,0,0-.6,0L31,43.842V35.984l.823,2.217a.5.5,0,0,0,.324.3.507.507,0,0,0,.438-.073L34.558,37l1.659,1.786a.5.5,0,0,0,.366.16l.049,0a.5.5,0,0,0,.377-.236l1.277-2.074L40,37.423Zm4.314-16.13a.91.91,0,0,0-.12,1.2l1.091,1.507-1.74.645a.91.91,0,0,0-.571,1.065l.431,1.809-1.846-.07a.89.89,0,0,0-.944.765l-.3,1.836L38.631,35.7a.909.909,0,0,0-1.154.35L36.5,37.628,35.24,36.269a.9.9,0,0,0-1.2-.123l-1.506,1.09L31.887,35.5a.9.9,0,0,0-1.068-.573l-1.806.43.069-1.86a.918.918,0,0,0-.766-.932l-1.837-.294.775-1.687a.911.911,0,0,0-.351-1.156l-1.581-.974,1.363-1.263a.909.909,0,0,0,.12-1.2l-1.091-1.506,1.741-.646a.91.91,0,0,0,.57-1.065l-.431-1.809,1.859.071a.9.9,0,0,0,.932-.765l.3-1.837,1.688.774a.909.909,0,0,0,1.153-.351l.975-1.582,1.266,1.364a.912.912,0,0,0,1.2.118l1.506-1.089.645,1.739a.911.911,0,0,0,1.067.573l1.807-.433-.07,1.861a.912.912,0,0,0,.766.93l1.837.3-.774,1.687a.909.909,0,0,0,.35,1.156l1.582.974Z" fill="#474647"/>
    </g>
    <g>
      <path d="M37.986,33.457A6.5,6.5,0,1,1,41.5,24.964v0A6.5,6.5,0,0,1,37.986,33.457Z" fill="url(#linear-gradient-2)"/>
      <path d="M35.508,34.449a7,7,0,1,1,2.669-.533A7.009,7.009,0,0,1,35.508,34.449Zm-.018-13A6,6,0,1,0,37.8,33h0A6,6,0,0,0,35.49,21.449Z" fill="#6f6f6f"/>
    </g>
    <polygon points="31.5 28.45 32.5 27.95 35 29.45 38.5 23.95 39.5 24.45 35.5 31.95 31.5 28.45" fill="#6f6f6f"/>
  </g>
  <g>
    <path d="M25.31,32.894a.5.5,0,0,1-.013-.445l1.015-2.213-2.074-1.277a.5.5,0,0,1-.078-.792l1.787-1.657-1.429-1.974a.5.5,0,0,1,.231-.763l2.285-.847-.565-2.372a.5.5,0,0,1,.1-.433.465.465,0,0,1,.406-.183l1.07.041L19.593,5.34a1.5,1.5,0,0,0-2.6,0L2.151,31.048a1.5,1.5,0,0,0,1.3,2.25H26.578l-.906-.146A.5.5,0,0,1,25.31,32.894Zm-7.017-2A2.289,2.289,0,1,1,20.582,28.6,2.289,2.289,0,0,1,18.293,30.892Zm2.289-6.057H16V13.73a1.1,1.1,0,0,1,1.1-1.1H19.48a1.1,1.1,0,0,1,1.1,1.1Z" fill="url(#Sfumatura_senza_nome_9)"/>
    <path d="M3.451,33.8a2,2,0,0,1-1.732-3L16.561,5.09a2,2,0,0,1,3.464,0L28.634,20l.59.023L20.458,4.84a2.5,2.5,0,0,0-4.329,0L1.286,30.548A2.5,2.5,0,0,0,3.451,34.3h24.6l.018-.5Z" fill="#177491"/>
    <path d="M26.578,33.3H3.451a1.5,1.5,0,0,1-1.3-2.25L16.994,5.34a1.5,1.5,0,0,1,2.6,0l8.451,14.639.59.022L20.025,5.09a2,2,0,0,0-3.464,0L1.719,30.8a2,2,0,0,0,1.732,3H28.069l.01-.259ZM16.571,5.09h0Z" fill="#177491"/>
    <path d="M19.48,13.627H17.107a.1.1,0,0,0-.1.1V23.835h2.578V13.73A.1.1,0,0,0,19.48,13.627Z" fill="url(#Sfumatura_senza_nome_9-2)"/>
    <path d="M19.48,13.627H17.107a.1.1,0,0,0-.1.1V23.835h2.578V13.73A.1.1,0,0,0,19.48,13.627Z" fill="url(#Siemens_-_Mid_gray)"/>
    <path d="M16,13.73a1.1,1.1,0,0,1,.323-.78A1.1,1.1,0,0,0,16,13.73Z" fill="#6f6f6f"/>
    <path d="M20.582,13.73a1.1,1.1,0,0,0-.323-.78A1.1,1.1,0,0,1,20.582,13.73Z" fill="#6f6f6f"/>
    <path d="M19.48,12.627H17.107a1.1,1.1,0,0,0-1.1,1.1V24.835h4.578V13.73a1.1,1.1,0,0,0-1.1-1.1Zm.1,11.208H17V13.73a.1.1,0,0,1,.1-.1H19.48a.1.1,0,0,1,.1.1Z" fill="#6f6f6f"/>
    <path d="M18.293,27.314A1.289,1.289,0,1,0,19.582,28.6,1.291,1.291,0,0,0,18.293,27.314Z" fill="url(#Sfumatura_senza_nome_9-3)"/>
    <path d="M18.293,27.314A1.289,1.289,0,1,0,19.582,28.6,1.291,1.291,0,0,0,18.293,27.314Z" fill="url(#Siemens_-_Mid_gray-2)"/>
    <path d="M18.293,26.314A2.289,2.289,0,1,0,20.582,28.6,2.289,2.289,0,0,0,18.293,26.314Zm0,3.578A1.289,1.289,0,1,1,19.582,28.6,1.291,1.291,0,0,1,18.293,29.892Z" fill="#6f6f6f"/>
  </g>
</svg>
