<svg id="Image" xmlns="http://www.w3.org/2000/svg" xmlns:xlink="http://www.w3.org/1999/xlink" viewBox="0 0 48 48">
  <defs>
    <linearGradient id="Siemens_-_Light_gray" data-name="Siemens - Light gray" x1="4.437" y1="2" x2="48.437" y2="46" gradientUnits="userSpaceOnUse">
      <stop offset="0" stop-color="#fff"/>
      <stop offset="1" stop-color="#dcdcdc"/>
    </linearGradient>
    <linearGradient id="New_Gradient_Swatch_1" data-name="New Gradient Swatch 1" x1="12.155" y1="12.287" x2="24.052" y2="12.287" gradientUnits="userSpaceOnUse">
      <stop offset="0" stop-color="#7eb8cd"/>
      <stop offset="1" stop-color="#097091"/>
    </linearGradient>
    <linearGradient id="New_Gradient_Swatch_1-2" x1="33.071" y1="36.713" x2="44.968" y2="36.713" xlink:href="#New_Gradient_Swatch_1"/>
    <linearGradient id="Siemens_-_Light_gray-2" x1="26.005" y1="23.028" x2="42.041" y2="23.028" xlink:href="#Siemens_-_Light_gray"/>
  </defs>
  <g>
    <rect x="5.437" y="1" width="42" height="46" fill="url(#Siemens_-_Light_gray)"/>
    <path d="M5.438,1V11.062H1.5a.5.5,0,0,0,0,1H5.438v24H1.5a.5.5,0,0,0,0,1H5.438V47h42V1Zm41,45h-40V37.062h4.874a.5.5,0,0,0,0-1H6.438v-24h4.874a.5.5,0,0,0,0-1H6.438V2h40Z" fill="#464646"/>
    <rect x="12.155" y="8.142" width="11.897" height="8.29" fill="url(#New_Gradient_Swatch_1)"/>
    <rect x="33.071" y="32.568" width="11.897" height="8.29" fill="url(#New_Gradient_Swatch_1-2)"/>
    <rect x="26.005" y="17.049" width="16.035" height="11.957" fill="url(#Siemens_-_Light_gray-2)"/>
    <path d="M39.809,32.568a33.066,33.066,0,0,0-.283-3.561h2.515V17.049H34.817a15.97,15.97,0,0,0-10.765-5.522V8.142h-11.9v8.29h11.9v-3.9a15.245,15.245,0,0,1,9.407,4.514H26.005V29.007H38.5a33.607,33.607,0,0,1,.3,3.561H33.071v8.29h11.9v-8.29ZM23.052,15.432h-9.9V9.142h9.9Zm3.953,12.575V18.049H41.041v9.958ZM43.968,39.858h-9.9v-6.29h9.9Z" fill="#464646"/>
  </g>
</svg>
