<svg xmlns="http://www.w3.org/2000/svg" xmlns:xlink="http://www.w3.org/1999/xlink" viewBox="0 0 48 48">
  <defs>
    <linearGradient id="Siemens_-_Light_gray_5" data-name="Siemens - Light gray 5" x1="12.641" y1="21.736" x2="35.358" y2="44.453" gradientUnits="userSpaceOnUse">
      <stop offset="0" stop-color="#fff"/>
      <stop offset="1" stop-color="#dadada"/>
    </linearGradient>
    <linearGradient id="Sfumatura_senza_nome_16" data-name="Sfumatura senza nome 16" x1="9.056" y1="24.755" x2="38.944" y2="24.755" gradientTransform="matrix(1, 0, 0, -1, 0, 48.72)" gradientUnits="userSpaceOnUse">
      <stop offset="0" stop-color="#73b4c8"/>
      <stop offset="0.175" stop-color="#6caec3"/>
      <stop offset="0.457" stop-color="#549eb4"/>
      <stop offset="0.809" stop-color="#2f84a0"/>
      <stop offset="1" stop-color="#197492"/>
    </linearGradient>
    <linearGradient id="Sfumatura_senza_nome_2" data-name="Sfumatura senza nome 2" x1="14.466" y1="42.793" x2="37.966" y2="42.793" gradientTransform="matrix(1, 0, 0, -1, 0, 48.72)" gradientUnits="userSpaceOnUse">
      <stop offset="0" stop-color="#fff"/>
      <stop offset="0.232" stop-color="#fbfbfb"/>
      <stop offset="0.496" stop-color="#eeeded"/>
      <stop offset="0.775" stop-color="#d6d7d7"/>
      <stop offset="1" stop-color="#bebdbe"/>
    </linearGradient>
  </defs>
  <g id="Verb_Zone">
    <g>
      <g id="Plane">
        <g>
          <path d="M24.013,46.5a.673.673,0,0,1-.358-.1L1.767,33.557A.541.541,0,0,1,1.5,33.1a.547.547,0,0,1,.272-.468L23.643,19.607a.688.688,0,0,1,.37-.107.673.673,0,0,1,.36.1L46.236,32.635a.539.539,0,0,1,.264.462.548.548,0,0,1-.276.465L24.378,46.4A.688.688,0,0,1,24.013,46.5Z" fill="url(#Siemens_-_Light_gray_5)"/>
          <path d="M24.012,20a.207.207,0,0,1,.114.036L45.964,33.054c.013.009.036.025.036.041s-.022.031-.021.031h0L24.108,45.975a.191.191,0,0,1-.1.025.206.206,0,0,1-.113-.036L2.037,33.136C2.023,33.127,2,33.11,2,33.1s.02-.03.02-.03h0l21.9-13.039a.179.179,0,0,1,.1-.026m0-1a1.184,1.184,0,0,0-.625.177L1.508,32.205a1.033,1.033,0,0,0,.006,1.783L23.393,46.827a1.194,1.194,0,0,0,1.238,0L46.486,33.988a1.033,1.033,0,0,0,.006-1.783L24.638,19.177A1.187,1.187,0,0,0,24.012,19Z" fill="#4f4b49"/>
        </g>
      </g>
      <g>
        <polygon points="34.953 24.718 34.953 27.422 9.056 19.051 9.056 20.966 21.827 25.082 21.827 27.775 9.072 23.66 9.072 35.375 38.944 35.375 38.944 12.555 34.953 12.555 34.953 22.813 21.827 18.575 21.827 20.511 34.953 24.718" fill="url(#Sfumatura_senza_nome_16)"/>
        <path d="M39.444,35.875H8.572v-12.9l12.755,4.115V25.446L8.556,21.33V18.364l25.9,8.37V25.083L21.327,20.876V17.888l13.126,4.238V12.055h4.991Zm-29.872-1H38.444V13.055H35.453V23.5L22.327,19.262v.884l13.126,4.207v3.756l-25.9-8.371V20.6l12.771,4.116v3.744L9.572,24.347Z" fill="#474647"/>
      </g>
      <g>
        <path d="M34.944,5.569a5.4,5.4,0,0,0-.368-2.317,3.612,3.612,0,0,0-2.905-2.006,3.678,3.678,0,0,0-3.4,1.369,2.62,2.62,0,0,1-3.1.235,3.19,3.19,0,0,0-3.854.117c-1.455,1.2-1.955.285-3.4-.037a2.775,2.775,0,1,0,.2,5.33c1.251-.552,1.751-1.353,3.3-.087a3.062,3.062,0,0,0,4.16-.419,2.033,2.033,0,0,1,3.017-.046,3.246,3.246,0,0,0,2.705,1.083,4.051,4.051,0,0,0,2.439-.935c1.333,0,2.353,1.286,2.618,2.786h1.619A6.484,6.484,0,0,0,34.944,5.569Z" fill="url(#Sfumatura_senza_nome_2)"/>
        <path d="M38.453,11.143H35.926l-.072-.414c-.2-1.125-.934-2.265-1.974-2.366a4.546,4.546,0,0,1-2.6.928,3.729,3.729,0,0,1-3.053-1.232,1.74,1.74,0,0,0-1.3-.494,1.312,1.312,0,0,0-.966.5,3.564,3.564,0,0,1-4.87.5c-.981-.8-1.3-.625-2.071-.2-.216.119-.45.245-.714.362a3.107,3.107,0,0,1-2.8-.328,3.271,3.271,0,0,1-1.544-2.736,3.137,3.137,0,0,1,1.172-2.54,3.512,3.512,0,0,1,2.875-.672,6.428,6.428,0,0,1,1.127.379,1.388,1.388,0,0,0,1.851-.24,3.683,3.683,0,0,1,4.442-.153A2.134,2.134,0,0,0,27.9,2.273,4.167,4.167,0,0,1,31.731.75a4.089,4.089,0,0,1,3.307,2.311,5.719,5.719,0,0,1,.413,2.225,7.021,7.021,0,0,1,3.014,5.368Zm-1.705-1h.687a6.145,6.145,0,0,0-2.728-4.134l-.279-.15.016-.316a4.882,4.882,0,0,0-.328-2.094,3.121,3.121,0,0,0-2.508-1.707A3.187,3.187,0,0,0,28.63,2.959a3.108,3.108,0,0,1-3.729.317,2.724,2.724,0,0,0-3.269.074,2.351,2.351,0,0,1-2.874.4,5.731,5.731,0,0,0-.96-.327,2.524,2.524,0,0,0-2.036.477,2.165,2.165,0,0,0-.8,1.745,2.279,2.279,0,0,0,1.076,1.9A2.152,2.152,0,0,0,17.9,7.8c.236-.1.443-.218.636-.323.865-.474,1.681-.92,3.184.307a2.58,2.58,0,0,0,3.458-.349,2.29,2.29,0,0,1,1.679-.87,2.694,2.694,0,0,1,2.074.785,2.758,2.758,0,0,0,2.361.939h.036a3.614,3.614,0,0,0,2.1-.838l.132-.1h.165A3.352,3.352,0,0,1,36.748,10.143Z" fill="#474647"/>
      </g>
    </g>
  </g>
</svg>
