<svg id="Image" xmlns="http://www.w3.org/2000/svg" xmlns:xlink="http://www.w3.org/1999/xlink" viewBox="0 0 48 48">
  <defs>
    <linearGradient id="linear-gradient" x1="10.679" y1="39.459" x2="38.148" y2="14.253" gradientTransform="matrix(1, 0, 0, -1, 0, 48)" gradientUnits="userSpaceOnUse">
      <stop offset="0" stop-color="#bedde8"/>
      <stop offset="1" stop-color="#7eb8cd"/>
    </linearGradient>
    <linearGradient id="linear-gradient-2" x1="7.236" y1="17.364" x2="36.049" y2="40.838" gradientTransform="translate(0 2)" gradientUnits="userSpaceOnUse">
      <stop offset="0" stop-color="#f8f8f9"/>
      <stop offset="0.5" stop-color="#d5d4d4"/>
      <stop offset="0.63" stop-color="#d1cfce"/>
      <stop offset="0.779" stop-color="#c4c1c1"/>
      <stop offset="0.938" stop-color="#aba8a7"/>
      <stop offset="0.99" stop-color="#a29f9d"/>
    </linearGradient>
    <linearGradient id="linear-gradient-3" x1="15.93" y1="10.07" x2="40.777" y2="34.918" gradientTransform="matrix(1, 0, 0, -1, 0, 48)" xlink:href="#linear-gradient-2"/>
    <linearGradient id="linear-gradient-4" x1="20.04" y1="23.9" x2="27.006" y2="30.867" gradientTransform="translate(0 2)" gradientUnits="userSpaceOnUse">
      <stop offset="0" stop-color="#fff"/>
      <stop offset="0.221" stop-color="#fbfbfc"/>
      <stop offset="0.541" stop-color="#ececec"/>
      <stop offset="0.92" stop-color="#d0cecd"/>
      <stop offset="1" stop-color="#c9c6c5"/>
    </linearGradient>
    <linearGradient id="linear-gradient-5" x1="16.977" y1="46.535" x2="31.074" y2="26.895" xlink:href="#linear-gradient"/>
  </defs>
  <g id="g855">
    <g id="g39">
      <path id="path35" d="M5,28.459a.516.516,0,0,1-.459-.559V22.4A.516.516,0,0,1,5,21.841H7A2.65,2.65,0,0,0,9.541,19.1V14.7C9.541,7.72,14.682,2.041,21,2.041h6c6.318,0,11.459,5.679,11.459,12.659v4.4A2.65,2.65,0,0,0,41,21.841h2a.516.516,0,0,1,.459.559v5.5a.516.516,0,0,1-.459.559Z" fill="url(#linear-gradient)"/>
      <path id="path37" d="M27,2.582c6.02,0,10.918,5.436,10.918,12.118v4.4A3.19,3.19,0,0,0,41,22.382h1.917v5.536H5.083V22.382H7A3.19,3.19,0,0,0,10.082,19.1V14.7c0-6.682,4.9-12.118,10.918-12.118h6M27,1.5H21C14.373,1.5,9,7.41,9,14.7v4.4a2.107,2.107,0,0,1-2,2.2H5a1.053,1.053,0,0,0-1,1.1v5.5A1.053,1.053,0,0,0,5,29H43a1.053,1.053,0,0,0,1-1.1V22.4a1.053,1.053,0,0,0-1-1.1H41a2.107,2.107,0,0,1-2-2.2V14.7C39,7.41,33.627,1.5,27,1.5Z" fill="#177491"/>
    </g>
    <g id="g55">
      <path id="path41" d="M24,34.322a5.429,5.429,0,0,1-5.421-5.332H6.906v1.689l5.545,1.97a1.2,1.2,0,0,1,.754,1.521,1.26,1.26,0,0,1-.054.132L10.63,39.6l2.608,2.61,5.305-2.518a1.189,1.189,0,0,1,.962-.02,1.221,1.221,0,0,1,.688.736l1.965,5.58h3.686l1.968-5.573a1.243,1.243,0,0,1,.689-.758,1.181,1.181,0,0,1,.96.028l5.306,2.523L37.375,39.6l-2.52-5.3a1.2,1.2,0,0,1-.023-.975,1.215,1.215,0,0,1,.717-.677l5.545-1.968V28.99H29.421A5.429,5.429,0,0,1,24,34.322Z" stroke="#464646" stroke-width="0.1" fill="url(#linear-gradient-2)"/>
      <path id="path43" d="M41.594,31.034,35.717,33.12h0a.7.7,0,0,0-.441.886.528.528,0,0,0,.031.078l2.672,5.623-3.106,3.107L29.25,40.141a.687.687,0,0,0-.919.315.717.717,0,0,0-.047.127L26.2,46.49H21.8l-2.086-5.909a.705.705,0,0,0-.886-.46.582.582,0,0,0-.079.03L13.13,42.818,10.023,39.71,12.7,34.09a.7.7,0,0,0-.33-.933.638.638,0,0,0-.082-.033L6.406,31.033V28.99h-.5v2.043a.5.5,0,0,0,.333.471l5.878,2.086a.213.213,0,0,1,.134.118.2.2,0,0,1-.006.161L9.572,39.495a.5.5,0,0,0,.1.568l3.106,3.109a.5.5,0,0,0,.568.1L18.969,40.6a.179.179,0,0,1,.15,0,.232.232,0,0,1,.13.147l2.086,5.908a.5.5,0,0,0,.472.334H26.2a.5.5,0,0,0,.472-.334l2.085-5.9a.273.273,0,0,1,.132-.169.175.175,0,0,1,.148.01l5.622,2.672a.5.5,0,0,0,.569-.1l3.106-3.107a.5.5,0,0,0,.1-.568L35.758,33.87a.207.207,0,0,1,.126-.278h0l5.878-2.086a.5.5,0,0,0,.333-.472V28.99h-.5Z" fill="#4e4a48" stroke="#464646" stroke-width="0.1"/>
      <path id="path45" d="M41.094,30.68l-5.545,1.968a1.215,1.215,0,0,0-.717.677,1.2,1.2,0,0,0,.023.975l2.52,5.3-2.608,2.61-5.306-2.52a1.181,1.181,0,0,0-.96-.028,1.243,1.243,0,0,0-.689.758l-1.968,5.57H22.158l-1.969-5.576a1.221,1.221,0,0,0-.688-.736,1.189,1.189,0,0,0-.962.02l-5.305,2.518-2.608-2.61,2.521-5.3a1.2,1.2,0,0,0-.568-1.6,1.076,1.076,0,0,0-.132-.054L6.9,30.683V28.99H6.4v2.043L12.28,33.12a.7.7,0,0,1,.445.884.585.585,0,0,1-.033.082L10.023,39.71l3.107,3.108,5.623-2.667a.706.706,0,0,1,.935.351c.011.026.021.052.03.079L21.8,46.49h4.4l2.086-5.907a.687.687,0,0,1,.839-.489.646.646,0,0,1,.127.047l5.623,2.673,3.106-3.107-2.672-5.623a.7.7,0,0,1,.332-.933.667.667,0,0,1,.078-.031h0L41.6,31.034V28.99h-.5Z" fill="#464646" stroke="#464646" stroke-width="0.1"/>
      <path id="path47" d="M24,33.322a4.425,4.425,0,0,0,4.416-4.332H19.584A4.425,4.425,0,0,0,24,33.322Z" stroke="#464646" stroke-width="0.1" fill="url(#linear-gradient-3)"/>
      <path id="path49" d="M24,33.322a4.425,4.425,0,0,0,4.416-4.332H19.584A4.425,4.425,0,0,0,24,33.322Z" stroke="#464646" stroke-width="0.1" fill="url(#linear-gradient-4)"/>
      <path id="path51" d="M24,34.322a5.429,5.429,0,0,0,5.421-5.332h-.5a4.918,4.918,0,0,1-9.834,0h-.5A5.429,5.429,0,0,0,24,34.322Z" fill="#4e4a48" stroke="#464646" stroke-width="0.1"/>
      <path id="path53" d="M24,33.322a4.425,4.425,0,0,1-4.416-4.332h-.5a4.918,4.918,0,0,0,9.834,0h-.5A4.425,4.425,0,0,1,24,33.322Z" fill="#4e4a48" stroke="#464646" stroke-width="0.1"/>
    </g>
    <path id="polyline57" d="M19.5,21V1.5h9V21" stroke="#177491" stroke-miterlimit="10" stroke-width="1.041" fill="url(#linear-gradient-5)"/>
  </g>
</svg>
