<svg id="Image" xmlns="http://www.w3.org/2000/svg" xmlns:xlink="http://www.w3.org/1999/xlink" viewBox="0 0 48 48">
  <defs>
    <linearGradient id="Siemens_-_Light_gray_4" data-name="Siemens - Light gray 4" x1="12.641" y1="21.736" x2="35.358" y2="44.453" gradientUnits="userSpaceOnUse">
      <stop offset="0" stop-color="#fff"/>
      <stop offset="1" stop-color="#dbdbdb"/>
    </linearGradient>
    <linearGradient id="Sfumatura_senza_nome_3" data-name="Sfumatura senza nome 3" x1="15.219" y1="46.126" x2="32.781" y2="28.563" gradientTransform="matrix(1, 0, 0, -1, 0, 50)" gradientUnits="userSpaceOnUse">
      <stop offset="0" stop-color="#cee6eb"/>
      <stop offset="0.221" stop-color="#c6e2e8"/>
      <stop offset="0.542" stop-color="#b3d8e1"/>
      <stop offset="0.921" stop-color="#93c7d4"/>
      <stop offset="1" stop-color="#8dc3d2"/>
    </linearGradient>
    <linearGradient id="Sfumatura_senza_nome_2" data-name="Sfumatura senza nome 2" x1="3.235" y1="34.359" x2="27.202" y2="10.392" gradientTransform="matrix(1, 0, 0, -1, 0, 50)" gradientUnits="userSpaceOnUse">
      <stop offset="0" stop-color="#afd7e1"/>
      <stop offset="0.159" stop-color="#a5d1dc"/>
      <stop offset="0.706" stop-color="#82bdcf"/>
      <stop offset="1" stop-color="#73b4c8"/>
    </linearGradient>
    <linearGradient id="linear-gradient" x1="27.872" y1="22.128" x2="44.128" y2="5.872" gradientTransform="matrix(1, 0, 0, -1, 0, 50)" gradientUnits="userSpaceOnUse">
      <stop offset="0" stop-color="#7fb8cd"/>
      <stop offset="0.175" stop-color="#72b0c8"/>
      <stop offset="0.457" stop-color="#559eb8"/>
      <stop offset="0.809" stop-color="#2982a1"/>
      <stop offset="1" stop-color="#0e7191"/>
    </linearGradient>
  </defs>
  <g>
    <g id="Plane">
      <g>
        <path d="M24.013,46.5a.673.673,0,0,1-.358-.1L1.767,33.557A.541.541,0,0,1,1.5,33.1a.547.547,0,0,1,.272-.468L23.643,19.607a.688.688,0,0,1,.37-.107.673.673,0,0,1,.36.1L46.236,32.635a.539.539,0,0,1,.264.462.548.548,0,0,1-.276.465L24.378,46.4A.688.688,0,0,1,24.013,46.5Z" fill="url(#Siemens_-_Light_gray_4)"/>
        <path d="M24.012,20a.207.207,0,0,1,.114.036L45.964,33.054c.013.009.036.025.036.041s-.022.031-.021.031h0L24.108,45.975a.191.191,0,0,1-.1.025.206.206,0,0,1-.113-.036L2.037,33.136C2.023,33.127,2,33.11,2,33.1s.02-.03.02-.03h0l21.9-13.039a.179.179,0,0,1,.1-.026m0-1a1.184,1.184,0,0,0-.625.177L1.508,32.205a1.033,1.033,0,0,0,.006,1.783L23.393,46.827a1.194,1.194,0,0,0,1.238,0L46.486,33.988a1.033,1.033,0,0,0,.006-1.783L24.638,19.177A1.187,1.187,0,0,0,24.012,19Z" fill="#4f4b49"/>
      </g>
    </g>
    <polygon points="24 22.813 41.562 12.656 41.562 32.872 24 43.027 24 22.813" fill="#3f91af"/>
    <polygon points="6.437 12.655 23.97 2.5 41.562 12.656 24 22.813 6.437 12.655" fill="url(#Sfumatura_senza_nome_3)"/>
    <polygon points="24 22.596 24 42.811 6.437 32.654 6.437 12.439 24 22.596" fill="url(#Sfumatura_senza_nome_2)"/>
    <polygon points="41.812 13.089 41.312 12.224 34.296 16.281 34.287 16.266 24 22.215 13.713 16.266 13.704 16.281 6.687 12.223 6.187 13.088 23.5 23.101 23.5 34.922 23.5 43.027 24.5 43.027 24.5 34.922 24.5 23.101 41.812 13.089" fill="#0e7191"/>
    <path d="M24,43.527a.493.493,0,0,1-.25-.067L6.187,33.3a.5.5,0,0,1-.25-.432V12.655a.5.5,0,0,1,.25-.432L23.719,2.067a.5.5,0,0,1,.5,0L41.812,12.223a.5.5,0,0,1,.25.433V32.872a.5.5,0,0,1-.25.432L24.25,43.46A.5.5,0,0,1,24,43.527ZM6.937,32.582,24,42.45l17.062-9.866V12.945L23.97,3.077,6.937,12.944Z" fill="#4e4a48"/>
    <g>
      <g>
        <circle cx="36" cy="36" r="11.5" fill="url(#linear-gradient)"/>
        <path d="M36,25A11,11,0,1,1,25,36,11.013,11.013,0,0,1,36,25m0-1A12,12,0,1,0,48,36,12,12,0,0,0,36,24Z" fill="#4e4a48"/>
      </g>
      <g>
        <path d="M29.324,42.7a4.625,4.625,0,0,0,3.264,1.32h0a4.628,4.628,0,0,0,3.266-1.32l1.954-1.954a1.477,1.477,0,0,0,.413-1.2c1.154-.326,1.873-1.052,3.289-2.5.33-.338.692-.709,1.117-1.134a4.621,4.621,0,0,0-6.443-6.625l-.087.086-1.933,1.933a1.476,1.476,0,0,0-.412,1.207,4.518,4.518,0,0,0-1.959,1.174l-2.469,2.473A4.632,4.632,0,0,0,29.324,42.7Zm6.02-7.123a1.514,1.514,0,0,0-.107-.227,1.618,1.618,0,0,1,1.388,1.216,1.267,1.267,0,0,0,.055.132A1.589,1.589,0,0,1,35.344,35.577Zm4.017-4.528A1.6,1.6,0,0,1,40.5,33.79c-.436.436-.809.817-1.144,1.161l-.093.094a4.571,4.571,0,0,0-2.314-2.278L38.22,31.5A1.614,1.614,0,0,1,39.361,31.049Zm-7.913,7.236,1.248-1.25A4.607,4.607,0,0,0,35,39.314l-1.262,1.262a1.617,1.617,0,0,1-2.282-2.291Z" fill="#177491"/>
        <path d="M35.058,33.3a3.653,3.653,0,0,1,3.544,2.79.5.5,0,1,1-.975.224,2.642,2.642,0,0,0-2.57-2.01,2.527,2.527,0,0,0-1.822.771l-2.469,2.474a2.627,2.627,0,0,0,0,3.706,2.672,2.672,0,0,0,3.7,0L36.422,39.3a.5.5,0,1,1,.705.711l-1.955,1.955a3.693,3.693,0,0,1-5.112,0,3.632,3.632,0,0,1,0-5.124l2.468-2.474A3.51,3.51,0,0,1,35.058,33.3Z" fill="#fff"/>
        <path d="M39.388,28.993a3.627,3.627,0,0,1,2.557,6.186c-.431.431-.8.807-1.122,1.139-1.632,1.668-2.121,2.17-3.381,2.353a3.593,3.593,0,0,1-4-2.571.5.5,0,0,1,.956-.293l0,.017a2.606,2.606,0,0,0,2.9,1.855c.9-.13,1.222-.439,2.8-2.055.333-.341.7-.72,1.136-1.153a2.629,2.629,0,0,0,0-3.706,2.674,2.674,0,0,0-3.7,0L35.6,32.7a.5.5,0,0,1-.7-.706l1.93-1.938A3.591,3.591,0,0,1,39.388,28.993Z" fill="#fff"/>
      </g>
    </g>
  </g>
</svg>
