<svg id="Livello_2" data-name="Livello 2" xmlns="http://www.w3.org/2000/svg" xmlns:xlink="http://www.w3.org/1999/xlink" viewBox="0 0 48 48">
  <defs>
    <linearGradient id="linear-gradient" x1="261.528" y1="313.738" x2="231.385" y2="299.545" gradientTransform="translate(-278.807 -315.552) scale(1.168 1.09)" gradientUnits="userSpaceOnUse">
      <stop offset="0" stop-color="#c2c1c1"/>
      <stop offset="1" stop-color="#c2c1c1" stop-opacity="0"/>
    </linearGradient>
    <linearGradient id="linear-gradient-2" x1="279.633" y1="344.88" x2="245.303" y2="328.514" gradientTransform="translate(-274.925 -315.672) scale(1.057 1.023)" gradientUnits="userSpaceOnUse">
      <stop offset="0" stop-color="#74b5c8"/>
      <stop offset="1" stop-color="#74b5c8" stop-opacity="0"/>
    </linearGradient>
    <linearGradient id="linear-gradient-3" x1="14.452" y1="47.968" x2="35.715" y2="26.705" gradientTransform="matrix(0.572, -0.001, 0.001, -0.555, 0.114, 26.506)" gradientUnits="userSpaceOnUse">
      <stop offset="0" stop-color="#afd7e1"/>
      <stop offset="1" stop-color="#73b4c8"/>
    </linearGradient>
    <linearGradient id="linear-gradient-4" x1="18.047" y1="61.181" x2="47.27" y2="31.959" gradientTransform="matrix(0.669, 0, 0, -0.664, -3.366, 29.832)" gradientUnits="userSpaceOnUse">
      <stop offset="0" stop-color="#fff"/>
      <stop offset="1" stop-color="#bebdbd"/>
    </linearGradient>
    <linearGradient id="linear-gradient-5" x1="1.68" y1="44.814" x2="30.903" y2="15.592" gradientTransform="matrix(0.605, 0, 0, -0.592, -0.661, 27.481)" xlink:href="#linear-gradient-4"/>
    <linearGradient id="linear-gradient-6" x1="4.738" y1="36.425" x2="43.262" y2="-2.099" gradientTransform="matrix(0.605, 0, 0, -0.592, -0.661, 27.481)" gradientUnits="userSpaceOnUse">
      <stop offset="0" stop-color="#fff"/>
      <stop offset="1" stop-color="#dcdcdc"/>
    </linearGradient>
  </defs>
  <g id="g871">
    <path id="path853" d="M28,16.185v-.521l4.227.006,4.227.006-.694.509-.694.509-3.533.005L28,16.7Z" fill="#6baec3"/>
    <path id="path851" d="M27.559,20.29v-3.2h3.272c3.8,0,3.4-.15,3.067,1.148a11.874,11.874,0,0,0-.266,3.028l-.061,2.223H27.559Z" fill="#c2c1c1"/>
    <path id="rect842" d="M34.478,16.475l2.277-1.158a1.831,1.831,0,0,1,2.3.541L46.98,27.515a1.346,1.346,0,0,1-.571,2L44.132,30.67a1.83,1.83,0,0,1-2.3-.541L33.907,18.473A1.346,1.346,0,0,1,34.478,16.475Z" fill="#6baec3"/>
    <path id="path847" d="M.333,29.543c0-.031,2.89-5.317,3.445-6.3l.2-.354.914.038c.721.03.905.059.871.139-.024.057-.846,1.563-1.826,3.347L2.153,29.657l-.911-.037A5.326,5.326,0,0,1,.333,29.543Z" fill="#74b5c8"/>
    <path id="rect902-9-1" d="M4.1,22.111l.718.514-4.1,6.816L0,28.928Z" fill="#474747"/>
    <path id="path934" d="M15.534,31.211l-.483-1.726L8.406,29.3l-5.886-.02L4.344,26.16l1.824-3.12,13.555-.02L33.277,23l.022-1.865.022-1.865.463-1.942,3.385-.09s8.5,12.071,8.5,12.1-4.873.059-8.184.059h-6.02V31.98l-8.885.349-7.687.121Z" fill="url(#linear-gradient)"/>
    <path id="path954" d="M.551,39.441c0-4.6-.022-8.659-.05-9.03l-.049-.674H7.387l8.116-.11.088,2.615a29.148,29.148,0,0,0,.591,5.022,6.15,6.15,0,0,0,1.5.9c.1.011,11.972.2,12.046.094.031-.041,1.55-.877,1.6-.877a16.326,16.326,0,0,0,.744-2.25c.083-.081-.121-.055-.075-2.8v-2.6l8.588-.4,6.959.4V47.8h-47Z" fill="url(#linear-gradient-2)"/>
    <path id="path8" d="M25.311,14.851V15.8H38.29L47,28.952H46s-8.156-12.383-8.279-12.38-12.41,0-12.41,0l-.183.869h12.14L45,28.941l-13.582.011L31.4,31.985H16V29.859l-1,.051V34c0,1.448-.441,4.66,3.187,4.66H29.8c2.406,0,2.6-2.206,2.6-4.81L32.426,30H47V47.093H1V29.859H0V48H48V28.952L38.85,14.893ZM16,33H31.4v1.848H16Zm0,3H31.4c-.18.684-.606,1.66-1.4,1.66H18C16.868,37.66,15.92,36.861,16,36Z" fill="#474747"/>
    <path id="rect896" d="M0,28.952H16V30H0Z" fill="#474747"/>
    <path id="rect902-9-1-9" d="M5.718,22.576l.723.509L2.332,29.806,1.609,29.3Z" fill="#474747"/>
    <g id="g30">
      <path id="polygon20" d="M22.34.644l1.818,7.5H3.86L3.04,5.1Z" fill="url(#linear-gradient-3)"/>
      <path id="polygon22" d="M27.426,8.121V4.8H24l.8,3.321Z" fill="url(#linear-gradient-4)"/>
      <path id="path24" d="M9,3.229,8.552,2.18A1.933,1.933,0,0,0,6.765,1.013H1.549a.993.993,0,0,0-1,.981V8.121H3.33l-.821-3.37Z" fill="url(#linear-gradient-5)"/>
      <path id="rect26" d="M-.056,8.122H27.757V26.51H-.056Z" fill="url(#linear-gradient-6)"/>
      <path id="path28" d="M23.786,4l.266,1.018L27.362,5,27.34,8l-2.5-.027L22.8,0,2.509,4.756,3.09,7.983.735,8.015l.012-6C.748,1.47.953,1,1.507,1l5.263.013A1.616,1.616,0,0,1,8.311,2.18l.5,1.119.787-.21L9.115,1.952C8.721,1.025,7.856,0,6.83,0H1.507A1.512,1.512,0,0,0-.013,1.563L-.052,8.121h0L-.013,27H28.122V4ZM22.267,1.138,24.057,8H3.837L3.416,5.584ZM27.362,26H.747V8.963l2.592-.038h0l21.56.06L27.362,9Z" fill="#464646"/>
    </g>
  </g>
</svg>
