<svg xmlns="http://www.w3.org/2000/svg" xmlns:xlink="http://www.w3.org/1999/xlink" viewBox="0 0 48 48">
  <defs>
    <linearGradient id="linear-gradient" x1="4.083" y1="8.515" x2="35.053" y2="39.485" gradientUnits="userSpaceOnUse">
      <stop offset="0" stop-color="#73b4c8"/>
      <stop offset="1" stop-color="#177492"/>
    </linearGradient>
  </defs>
  <g id="Verb_Zone">
    <g>
      <g>
        <path d="M26,37.5c-6.463,0-12.064-4.094-15.625-7.528l-.326-.315L1.515,36.918V11.082l8.534,7.26.326-.314C13.936,14.594,19.538,10.5,26,10.5c11.3,0,20.5,6.056,20.5,13.5S37.3,37.5,26,37.5Z" fill="url(#linear-gradient)"/>
        <path d="M26,11c11.028,0,20,5.832,20,13S37.028,37,26,37c-6.3,0-11.783-4.018-15.278-7.388l-.652-.629-.69.587L2.015,35.836V12.164L9.38,18.43l.69.587.652-.629C14.217,15.018,19.7,11,26,11m0-1c-6.4,0-12.121,3.954-15.972,7.668L1.015,10V38l9.013-7.668C13.879,34.046,19.6,38,26,38c11.6,0,21-6.268,21-14S37.6,10,26,10Z" fill="#4e4a48"/>
      </g>
      <path d="M8.5,24h34m0-.036L36.136,17.6M33.5,23.964,27.136,17.6M24.5,23.964,18.136,17.6M42.5,24l-6.364,6.364M33.5,24l-6.364,6.364M24.5,24l-6.364,6.364" fill="none" stroke="#fff" stroke-linecap="round" stroke-miterlimit="10"/>
    </g>
  </g>
</svg>
