<svg id="svg8" xmlns="http://www.w3.org/2000/svg" xmlns:xlink="http://www.w3.org/1999/xlink" viewBox="0 0 48 48">
  <defs>
    <linearGradient id="linear-gradient" x1="5.393" y1="-236.676" x2="6.979" y2="-237.781" gradientTransform="matrix(3.78, 0, 0, -3.78, 0, -893.102)" gradientUnits="userSpaceOnUse">
      <stop offset="0" stop-color="#73b4c8"/>
      <stop offset="0.175" stop-color="#6aaec3"/>
      <stop offset="0.457" stop-color="#529eb5"/>
      <stop offset="0.809" stop-color="#2c839f"/>
      <stop offset="1" stop-color="#147391"/>
    </linearGradient>
    <linearGradient id="linear-gradient-2" x1="1.219" y1="-244.896" x2="11.173" y2="-248.212" gradientTransform="matrix(3.78, 0, 0, -3.78, 0, -893.102)" gradientUnits="userSpaceOnUse">
      <stop offset="0" stop-color="#fff"/>
      <stop offset="1" stop-color="#bebebe"/>
    </linearGradient>
    <linearGradient id="linear-gradient-3" x1="4.63" y1="-239.789" x2="7.616" y2="-241.027" xlink:href="#linear-gradient"/>
    <linearGradient id="linear-gradient-4" x1="3.472" y1="-242.875" x2="8.732" y2="-245.155" xlink:href="#linear-gradient"/>
    <linearGradient id="linear-gradient-5" x1="2.727" y1="-245.911" x2="10.443" y2="-246.915" xlink:href="#linear-gradient"/>
    <linearGradient id="linear-gradient-6" x1="66.846" y1="24.791" x2="50.468" y2="39.669" gradientTransform="matrix(-1.087, 0, 0, 1.087, 98.424, -0.475)" gradientUnits="userSpaceOnUse">
      <stop offset="0" stop-color="#fff"/>
      <stop offset="0.221" stop-color="#f8f8f8"/>
      <stop offset="0.541" stop-color="#e5e5e5"/>
      <stop offset="0.92" stop-color="#c6c6c6"/>
      <stop offset="1" stop-color="#bebebe"/>
    </linearGradient>
  </defs>
  <g id="layer1">
    <g id="g943">
      <path id="path1132" d="M20.933,4.713c0-.026.108-.665.291-1.573a3.223,3.223,0,0,1,.926-1.928,1.752,1.752,0,0,1,2.128-.023,1.954,1.954,0,0,1,.967,1.246,15.532,15.532,0,0,1,.376,2.274c-.024.038-4.752-.069-4.788-.069-.01,0,.04.079.04.076Z" fill="url(#linear-gradient)"/>
      <g id="g865">
        <g id="g867">
          <path id="rect828" d="M40.321,33.5a.7.7,0,0,0-.378-.072l-5.986,0,1.77,4.886L9.8,38.648l1.844-5.227L6.8,33.459l-4.24,9.8,39.539.166-1.669-9.658A.471.471,0,0,0,40.321,33.5Z" fill="#147391" stroke="#147391" stroke-linejoin="round" stroke-width="0.202"/>
        </g>
      </g>
      <path id="rect828-6" d="M39.6,34.051l-5.267-.034.964,5.124L10.476,38.78,11.6,34.048H7.538L4.076,42.41l36.915.135Z" fill="url(#linear-gradient-2)"/>
      <path id="path1122" d="M20.592,2.65,10.028,37.094l.415.145A37.93,37.93,0,0,0,35.05,37.2l.4-.145L26.1,2.71l-.546.015.014.913H25.4l8.924,32.776a37.058,37.058,0,0,1-23.141.03L21.256,3.6l-.277-.016.042-.913Z" fill="#147391"/>
      <path id="path855" d="M23.366.1A2.6,2.6,0,0,0,21.3,1.149a3.716,3.716,0,0,0-.595,1.107c-.061.182-.128.367-.179.574-.036.141-.128.431-.191.651l.879.253c.049-.173.15-.469.2-.686.037-.149.095-.31.159-.5a2.785,2.785,0,0,1,.443-.837,1.668,1.668,0,0,1,1.328-.7,1.7,1.7,0,0,1,1.321.747,2.833,2.833,0,0,1,.436.851c.058.182.116.374.166.56.069.256.151.521.173.64l.895-.151c-.05-.272-.133-.539-.182-.725-.055-.208-.118-.41-.18-.6A3.789,3.789,0,0,0,25.4,1.2,2.625,2.625,0,0,0,23.366.1Z" fill="#147391"/>
      <path id="path1130" d="M25.884,3.9a6.163,6.163,0,0,1-2.574.65A4.8,4.8,0,0,1,20.792,3.9l-.456.817a5.849,5.849,0,0,0,2.968.767,6.8,6.8,0,0,0,3.023-.767Z" fill="#147391"/>
      <path id="rect871" d="M34.9,36a1.846,1.846,0,0,1,1.641.034l.035.077-.207.271H35.119Z" fill="#147391"/>
      <path id="rect871-5" d="M10.846,35.987a1.847,1.847,0,0,0-1.64.034l-.036.08.207.27h1.249Z" fill="#147391"/>
      <path id="path860" d="M21.6,18.272a28.2,28.2,0,0,1-4.187-.9l-.34-.1.384-1.3c.212-.715.473-1.6.581-1.972.142-.489.223-.674.292-.674.053,0,.34.058.638.119a23.722,23.722,0,0,0,3.217.446,21.235,21.235,0,0,0,5.347-.441,4.126,4.126,0,0,1,.648-.1c.009.011.251.887.537,1.951a7.62,7.62,0,0,1,.446,1.983,22.994,22.994,0,0,1-3.656.874,20.57,20.57,0,0,1-3.907.117Z" stroke="#4d9ab2" stroke-linejoin="round" stroke-width="0.008" fill="url(#linear-gradient-3)"/>
      <path id="path862" d="M21.671,33.567c-4.057-.167-7.381-.772-8.588-1.562-.16-.1-.291-.232-.291-.278s.4-1.463.879-3.145l.878-3.056.277.085c.622.2,2.13.569,2.946.719a26.9,26.9,0,0,0,5.33.475,26.833,26.833,0,0,0,7.228-.967c.62-.153,1.137-.266,1.148-.253.037.042,1.592,5.975,1.592,6.073,0,.132-.29.373-.68.562a20.427,20.427,0,0,1-6.369,1.258c-.936.072-3.562.121-4.35.09Z" stroke="#4d9ab2" stroke-linejoin="round" stroke-width="0.008" fill="url(#linear-gradient-4)"/>
      <path id="path866" d="M21.973,40.529a46.511,46.511,0,0,1-11.5-1.959c-1.417-.43-1.354-.382-1.354-1.029,0-.811.015-.822.829-.526a38.609,38.609,0,0,0,10.266,2.146,58.226,58.226,0,0,0,6.481-.1,39.351,39.351,0,0,0,8.7-1.931c.7-.238.98-.314,1.035-.26a1.321,1.321,0,0,1,.077.637c0,.68.067.622-1.208,1.065a36.33,36.33,0,0,1-13.328,1.961Z" stroke="#4d9ab2" stroke-linejoin="round" stroke-width="0.008" fill="url(#linear-gradient-5)"/>
      <path id="rect1019" d="M9.827,36.015a1.018,1.018,0,0,0-1.037.3,1.321,1.321,0,0,0-.353.906v.8a1.159,1.159,0,0,0,.387.851,1.785,1.785,0,0,0,.713.368c8.781,2.506,18.059,2.9,26.682-.007a2.046,2.046,0,0,0,.692-.363,1.162,1.162,0,0,0,.394-.85v-.8a1.317,1.317,0,0,0-.353-.906,1.012,1.012,0,0,0-1.037-.3,41.054,41.054,0,0,1-26.088,0Zm-.311.913a41.98,41.98,0,0,0,26.71,0c-.007,0-.039-.019.014.044a.513.513,0,0,1,.1.253v.8c0,.071,0,.068-.062.115a1.231,1.231,0,0,1-.366.182c-8.4,2.829-17.481,2.457-26.115-.007a.944.944,0,0,1-.339-.16c-.058-.054-.062-.062-.062-.13v-.8a.463.463,0,0,1,.1-.253c.053-.061.021-.042.014-.044Z" fill="#147391"/>
      <path id="path857" d="M13.937,24.531l-2.089,7.091v.09a1.265,1.265,0,0,0,.435.829,3.1,3.1,0,0,0,.858.54,12.054,12.054,0,0,0,2.643.775,39.867,39.867,0,0,0,7.506.623,35.259,35.259,0,0,0,7.139-.706,10.156,10.156,0,0,0,2.38-.789,2.783,2.783,0,0,0,.754-.546,1.236,1.236,0,0,0,.352-.817v-.064L32.027,24.57l-.464.122a31.522,31.522,0,0,1-8.273,1.28,26.821,26.821,0,0,1-8.876-1.28ZM14.6,25.68a28.482,28.482,0,0,0,8.7,1.266,31.775,31.775,0,0,0,8.038-1.239l1.6,5.936c0,.026-.006.058-.083.137a2.045,2.045,0,0,1-.5.356,9.475,9.475,0,0,1-2.138.7,34.472,34.472,0,0,1-6.938.685,39.069,39.069,0,0,1-7.312-.609,11.571,11.571,0,0,1-2.422-.7,2.307,2.307,0,0,1-.608-.374c-.091-.081-.1-.12-.1-.152Z" fill="#147391"/>
      <path id="path874" d="M17.652,12.37l-1.7,5.555.443.13A21.542,21.542,0,0,0,23.31,19.2a23.082,23.082,0,0,0,6.5-1.149l.422-.138-1.529-5.5-.428.093a24.155,24.155,0,0,1-4.961.616,20.117,20.117,0,0,1-5.229-.643Zm.643,1.072a21.076,21.076,0,0,0,5.029.616,24.351,24.351,0,0,0,4.711-.582l1.052,3.778a21.9,21.9,0,0,1-5.79,1.024,20.437,20.437,0,0,1-6.171-1.024Z" fill="#147391"/>
      <path id="path933" d="M41.719,43.594c1.654-1.706,3.587-3.516,4.129-4.074l1.189-1.185-5.666-6.152L35.5,26.476l-3.62-.2-3.324.169-.977.638-.691.867.156,3.506-.03,3.689L32.6,40.96c3.02,3.144,5.615,5.619,5.7,5.713l.37.2ZM30.214,31.453a1.456,1.456,0,0,1-.515-2.584A1.362,1.362,0,0,1,32.036,29.9a1.386,1.386,0,0,1-.645,1.288c-.5.444-.557.452-1.177.266Z" stroke="#464646" stroke-linecap="round" stroke-width="0.021" fill="url(#linear-gradient-6)"/>
      <path id="path8" d="M38.682,47.982l9.352-9.622L35.716,25.686h-7.5L26.361,27.6v7.713Zm8.032-9.622-8.032,8.262L27.294,34.91V27.993L28.6,26.651h6.727Z" fill="#464646"/>
      <path id="rect2" d="M43.117,38.742l-6.538-6.728-.663.68,6.538,6.727Z" fill="#464646"/>
      <path id="rect4" d="M41.257,40.666,35.64,34.894l-.663.68,5.617,5.773Z" fill="#464646"/>
      <path id="rect6" d="M39.381,42.583l-6.538-6.727-.663.679,6.538,6.727Z" fill="#464646"/>
      <path id="path1050" d="M29.446,21.2a1.721,1.721,0,1,0,1.722,1.721A1.722,1.722,0,0,0,29.446,21.2Zm0,.949a.759.759,0,0,1,.759.759h0a.758.758,0,0,1-.758.759h0a.758.758,0,0,1-.758-.758h0a.758.758,0,0,1,.758-.759Z" fill="#464646"/>
      <path id="path1050-2" d="M30.623,28.317a1.722,1.722,0,1,0,1.721,1.721A1.721,1.721,0,0,0,30.623,28.317Zm0,.95a.758.758,0,0,1,.758.758h0a.758.758,0,0,1-.758.759h0a.758.758,0,0,1-.759-.758h0a.758.758,0,0,1,.758-.758Z" fill="#464646"/>
      <path id="path914" d="M29.469,22.466a.525.525,0,0,0-.5.369,8.439,8.439,0,0,0-.074,5.345,6.909,6.909,0,0,0,.686,1.454,5.528,5.528,0,0,0,.391.546.526.526,0,0,0,.82-.66c-.012-.014-.024-.028-.037-.041a2.533,2.533,0,0,1-.288-.4,5.908,5.908,0,0,1-.576-1.24,7.315,7.315,0,0,1,.081-4.68.527.527,0,0,0-.5-.694Z" fill="#6e6e6e"/>
    </g>
  </g>
</svg>
