<svg version="1.1" id="Livello_3" xmlns="http://www.w3.org/2000/svg" xmlns:xlink="http://www.w3.org/1999/xlink" x="0px" y="0px"
	  viewBox="0 0 48 48" enable-background="new 0 0 48 48" xml:space="preserve">
<linearGradient id="polygon58_1_" gradientUnits="userSpaceOnUse" x1="339.8711" y1="453.0195" x2="370.8719" y2="484.0204" gradientTransform="matrix(0.8441 0 0 0.7975 -267.2534 -340.395)">
	<stop  offset="0" style="stop-color:#FFFFFF"/>
	<stop  offset="0.232" style="stop-color:#FAFAFA"/>
	<stop  offset="0.496" style="stop-color:#EDEDED"/>
	<stop  offset="0.775" style="stop-color:#D7D6D6"/>
	<stop  offset="1" style="stop-color:#BFBEBE"/>
</linearGradient>
<path id="polygon58" fill="url(#polygon58_1_)" stroke="#474747" stroke-width="1.2188" stroke-miterlimit="10" d="M46.216,45.234
	V25.296l-8.441-7.976h-14.35v27.914H46.216z"/>
<linearGradient id="polygon60_1_" gradientUnits="userSpaceOnUse" x1="358.8711" y1="451.0195" x2="368.8714" y2="461.0198" gradientTransform="matrix(0.8441 0 0 0.7975 -267.2534 -340.395)">
	<stop  offset="0" style="stop-color:#FFFFFF"/>
	<stop  offset="0.221" style="stop-color:#F7F8F8"/>
	<stop  offset="0.541" style="stop-color:#E5E5E5"/>
	<stop  offset="0.92" style="stop-color:#C7C6C6"/>
	<stop  offset="1" style="stop-color:#BFBEBE"/>
</linearGradient>
<path id="polygon60" fill="url(#polygon60_1_)" stroke="#474747" stroke-width="1.2188" stroke-linejoin="round" d="M37.774,25.296
	h8.441l-8.441-7.976V25.296z"/>
<path id="line62" fill="none" stroke="#5B5B5B" d="M27.224,37.259h15.193"/>
<path id="line64" fill="none" stroke="#5B5B5B" d="M27.224,33.271h15.193"/>
<path id="line66" fill="none" stroke="#5B5B5B" d="M27.224,29.284h15.193"/>
<path id="line68" fill="none" stroke="#5B5B5B" d="M27.224,41.247h15.193"/>
<path id="path1610" fill="none" stroke="#474747" stroke-width="1" d="M9.782,17.619c0.062,3.531,0.122,7.063,1.295,8.904
	s3.456,1.989,5.457-0.797c2.001-2.785,3.74-8.566,5.217-12.407s2.701-5.774,4.088-6.561c1.388-0.787,2.942-0.43,4.075,1.487
	c1.134,1.918,1.851,5.401,2.566,8.885"/>
<path id="path1614"  fill="#474747" stroke="#6F6F6F" stroke-width="0.0189" d="M6.278,2.766
	c-0.276,0-0.499,0.258-0.499,0.58v4.34c0,0.028,0.011,0.053,0.014,0.08H2.246c-0.256,0-0.462,0.207-0.462,0.463v0.074
	c0,0.256,0.206,0.463,0.462,0.463h0.572L2.82,8.77v4.803v0.016h0.008c0.919,2.491,3.759,4.159,6.983,4.159
	c3.229-0.004,6.08-1.662,6.992-4.159V8.77V8.766h0.499c0.256,0,0.463-0.207,0.463-0.463V8.229c0-0.256-0.207-0.463-0.463-0.463
	h-3.547c0.004-0.027,0.014-0.052,0.014-0.08v-4.34c0-0.322-0.223-0.58-0.499-0.58s-0.499,0.258-0.499,0.58v4.34
	c0,0.028,0.01,0.053,0.014,0.08H6.765c0.003-0.027,0.014-0.052,0.014-0.08v-4.34C6.778,3.023,6.556,2.766,6.278,2.766z"/>
<linearGradient id="path1614-9_1_" gradientUnits="userSpaceOnUse" x1="211.2559" y1="-235.0342" x2="220.2568" y2="-235.0342" gradientTransform="matrix(1.3297 0 0 -1.3635 -277.0664 -307.7217)">
	<stop  offset="0" style="stop-color:#74B5C8"/>
	<stop  offset="0.175" style="stop-color:#6BAEC3"/>
	<stop  offset="0.457" style="stop-color:#539EB5"/>
	<stop  offset="0.809" style="stop-color:#2F849F"/>
	<stop  offset="1" style="stop-color:#187491"/>
</linearGradient>
<path id="path1614-9"  fill="url(#path1614-9_1_)" d="M3.838,8.737
	l-0.02,4.776c0.806,2.255,3.254,3.232,5.993,3.233c2.736-0.004,5.189-0.964,5.993-3.216v0.011V8.736L3.838,8.737z"/>
</svg>
