<svg id="Livello_3" data-name="Livello 3" xmlns="http://www.w3.org/2000/svg" xmlns:xlink="http://www.w3.org/1999/xlink" viewBox="0 0 48 48">
  <defs>
    <linearGradient id="linear-gradient" x1="191.315" y1="218.899" x2="203.787" y2="231.267" gradientTransform="translate(-325.132 -363.523) scale(1.706 1.773)" gradientUnits="userSpaceOnUse">
      <stop offset="0" stop-color="#74b5c8"/>
      <stop offset="0.175" stop-color="#6baec3"/>
      <stop offset="0.457" stop-color="#539eb5"/>
      <stop offset="0.809" stop-color="#2f849f"/>
      <stop offset="1" stop-color="#187491"/>
    </linearGradient>
    <linearGradient id="linear-gradient-2" x1="191.356" y1="215.966" x2="202.98" y2="223.592" gradientTransform="translate(-325.132 -363.523) scale(1.706 1.773)" gradientUnits="userSpaceOnUse">
      <stop offset="0" stop-color="#b0d8e1"/>
      <stop offset="1" stop-color="#74b5c8"/>
    </linearGradient>
    <linearGradient id="linear-gradient-3" x1="22.202" y1="41.76" x2="40.099" y2="31.623" gradientTransform="matrix(1, 0, 0, -1, 0, 48)" gradientUnits="userSpaceOnUse">
      <stop offset="0" stop-color="#afd7e1"/>
      <stop offset="1" stop-color="#73b4c8"/>
    </linearGradient>
    <linearGradient id="linear-gradient-4" x1="22.371" y1="43.462" x2="39.578" y2="37.657" gradientTransform="matrix(1, 0, 0, -1, 0, 48)" gradientUnits="userSpaceOnUse">
      <stop offset="0" stop-color="#73b4c8"/>
      <stop offset="1" stop-color="#177491"/>
    </linearGradient>
    <linearGradient id="linear-gradient-5" x1="5.178" y1="52.369" x2="18.868" y2="35.293" gradientTransform="matrix(0.964, 0, 0, -0.865, -0.903, 47.582)" gradientUnits="userSpaceOnUse">
      <stop offset="0" stop-color="#fff"/>
      <stop offset="0.221" stop-color="#f8f8f8"/>
      <stop offset="0.541" stop-color="#e5e5e5"/>
      <stop offset="0.92" stop-color="#c6c6c6"/>
      <stop offset="1" stop-color="#bebebe"/>
    </linearGradient>
  </defs>
  <g id="g958">
    <path id="path73" d="M21.631,25.954l-.039,15.524a5.616,5.616,0,0,1-3.088,4.6,15.662,15.662,0,0,1-15.011.009C1.4,44.8.354,43.111.358,41.425L.4,25.955" fill="url(#linear-gradient)"/>
    <path id="path75" d="M18.5,21.319c4.154,2.551,4.175,6.705.035,9.266a15.7,15.7,0,0,1-15.032.009c-4.168-2.562-4.19-6.715-.049-9.275a15.7,15.7,0,0,1,15.046,0Z" fill="url(#linear-gradient-2)"/>
    <path id="path77" d="M21.631,25.949c.009,1.663-1.022,3.327-3.092,4.6a15.82,15.82,0,0,1-15.032.008C1.423,29.284.379,27.62.367,25.956" fill="none" stroke="#187491" stroke-miterlimit="10" stroke-width="0.733"/>
    <path id="path79" d="M21.633,25.587a5.655,5.655,0,0,0-3.127-4.634,15.693,15.693,0,0,0-15.046,0C1.2,22.35.19,24.221.406,26.049L.367,41.059c0,1.691,1.04,3.38,3.134,4.663a15.656,15.656,0,0,0,15.012-.009,5.618,5.618,0,0,0,3.087-4.6Z" fill="none" stroke="#474747" stroke-miterlimit="10" stroke-width="0.733"/>
    <path id="path14" d="M43.359,24.72l.049-14.508v-.076h4.3a37.313,37.313,0,0,1-3.113-4.352A12.4,12.4,0,0,1,43.408.413V.362H23.249V24.721h20.11" fill="url(#linear-gradient-3)"/>
    <path id="path16" d="M43.359,25H23.249a.276.276,0,0,1-.272-.28V.375a.281.281,0,0,1,.13-.253.265.265,0,0,1,.169-.04H43.407a.277.277,0,0,1,.272.28A12.226,12.226,0,0,0,44.826,5.64a37.112,37.112,0,0,0,3.085,4.311.287.287,0,0,1-.028.395.269.269,0,0,1-.178.068H43.68l-.049,14.307A.277.277,0,0,1,43.359,25Zm-19.838-.56H43.087l.049-14.3a.277.277,0,0,1,.272-.28h3.716A35.592,35.592,0,0,1,44.36,5.928,12.171,12.171,0,0,1,43.141.642H23.521Z" fill="#464646"/>
    <path id="path20" d="M33.254,10.417a8.962,8.962,0,0,1-7.8-5.077C23.358,1.172,23.06.588,23.018.508l-.01-.02A.285.285,0,0,1,23.122.11l0,0c.155-.082.211-.112.358.132l.01,0a.218.218,0,0,1,.019.056c.078.136.181.339.331.635.321.637.933,1.848,2.094,4.156a8.381,8.381,0,0,0,7.379,4.774H43.409a.28.28,0,0,1,0,.56H33.254Z" fill="#464646"/>
    <path id="path22" d="M39.629,10.138c-1.668-.342-4.892-3.782-4.892-3.782L27.308,7.522s2.69,2.593,5.52,2.616S39.629,10.138,39.629,10.138Z" fill="url(#linear-gradient-4)"/>
    <path id="path24" d="M35.842,10.427c-1.009,0-2.147.007-3.085,0-2.9-.022-5.522-2.588-5.635-2.7a.283.283,0,0,1,.145-.482L34.7,6.077a.271.271,0,0,1,.237.083c.032.033,3.184,3.379,4.749,3.7a.281.281,0,0,1-.051.554C39.6,10.418,37.843,10.427,35.842,10.427Zm-7.9-2.722a8.654,8.654,0,0,0,4.872,2.16c1.864.039,4.144,0,5.549,0a23.4,23.4,0,0,1-3.719-3.208Z" fill="#464646"/>
    <path id="rect30" d="M27.438,4H42.249a.551.551,0,0,1,.543.56v.56a.551.551,0,0,1-.543.56H27.438a.551.551,0,0,1-.543-.56V4.56A.551.551,0,0,1,27.438,4Z" fill="#fff"/>
    <path id="path32" d="M40.061,7.167H37.038a9.273,9.273,0,0,0,.853.94,6.718,6.718,0,0,0,.934.74h1.236a.553.553,0,0,0,.544-.56v-.56A.553.553,0,0,0,40.061,7.167Z" fill="#fff"/>
    <path id="rect36" d="M25.083,16.576H38.128a.551.551,0,0,1,.543.56v.56a.551.551,0,0,1-.543.56H25.083a.551.551,0,0,1-.543-.56v-.56A.551.551,0,0,1,25.083,16.576Z" fill="#fff"/>
    <path id="rect38" d="M25.083,13.1H41.456a.55.55,0,0,1,.544.559v.56a.55.55,0,0,1-.544.56H25.083a.55.55,0,0,1-.543-.56v-.56A.55.55,0,0,1,25.083,13.1Z" fill="#fff"/>
    <path id="rect40" d="M25.083,20.053h8.968a.551.551,0,0,1,.544.56v.56a.551.551,0,0,1-.544.56H25.083a.551.551,0,0,1-.543-.56v-.56A.55.55,0,0,1,25.083,20.053Z" fill="#fff"/>
    <path id="path60" d="M15.785,12.233l-2.057-1.844L15.609,8.7h-.368c-4.016,0-7.27,2.922-7.275,6.522V17.4H5.056V15.224C5.062,10.183,9.619,6.1,15.241,6.093H15.6L13.725,4.414l2.056-1.847,5.4,4.83Z" stroke="#464646" stroke-miterlimit="10" stroke-width="1.006" fill="url(#linear-gradient-5)"/>
  </g>
</svg>
