<svg id="Layer_1" data-name="Layer 1" xmlns="http://www.w3.org/2000/svg" xmlns:xlink="http://www.w3.org/1999/xlink" viewBox="0 0 48 48">
  <defs>
    <linearGradient id="linear-gradient" x1="5.147" y1="31.347" x2="18.334" y2="17.589" gradientTransform="matrix(1, 0, 0, -1, 0, 48)" gradientUnits="userSpaceOnUse">
      <stop offset="0" stop-color="#bedde8"/>
      <stop offset="1" stop-color="#7eb8cd"/>
    </linearGradient>
    <linearGradient id="linear-gradient-2" x1="34.05" y1="29.917" x2="42.586" y2="17.333" gradientTransform="matrix(1, 0, 0, -1, 0, 48)" gradientUnits="userSpaceOnUse">
      <stop offset="0" stop-color="#fff"/>
      <stop offset="1" stop-color="#bebebe"/>
    </linearGradient>
    <linearGradient id="linear-gradient-3" x1="14.991" y1="7.359" x2="31.894" y2="7.177" xlink:href="#linear-gradient-2"/>
    <linearGradient id="linear-gradient-4" x1="-23.967" y1="6.3" x2="-10.055" y2="1.48" gradientTransform="matrix(1, 0, 0, -1, 42.86, 28.796)" gradientUnits="userSpaceOnUse">
      <stop offset="0" stop-color="#73b4c8"/>
      <stop offset="0.175" stop-color="#6aaec3"/>
      <stop offset="0.457" stop-color="#529eb5"/>
      <stop offset="0.809" stop-color="#2c839f"/>
      <stop offset="1" stop-color="#147391"/>
    </linearGradient>
  </defs>
  <path id="rect996-7" d="M28.22,11.087,0,2.426v38.5l18.371-3.353Z" fill="url(#linear-gradient)"/>
  <path id="rect873" d="M31.472,10.6c-7.291,0-13.23,2.743-13.341,6.157h0l-.06,20.967h26.8V16.753h0C44.761,13.339,38.764,10.6,31.472,10.6Z" fill="#177491" stroke="#177491" stroke-linecap="square"/>
  <path id="path882" d="M32.673,11.247a20.762,20.762,0,0,1,4.283,1.715A11.631,11.631,0,0,1,40.08,16.15a10.491,10.491,0,0,1,1.43,3.519C42.654,24.755,42.273,37,42.273,37H39.54s.015-11.656-.575-16.561a11.192,11.192,0,0,0-.577-2.406,13.829,13.829,0,0,0-1.393-2.888,8.3,8.3,0,0,0-1.3-1.54c-.871-.814-2.729-2.134-2.729-2.134l-.323-.238" fill="url(#linear-gradient-2)"/>
  <path id="rect871" d="M15.489,38.237H47.5V43.4H15.489Z" stroke="#4e4a48" stroke-linecap="square" fill="url(#linear-gradient-3)"/>
  <path id="path1026" d="M18.615,35.667c0-.721.03-5.424.063-10.449.067-10.34-.009-9.232.7-10.117a11.4,11.4,0,0,1,6.139-3.351,17.664,17.664,0,0,1,2.876-.37h.5l.216.378c.684,1.193,1.543,4.756,1.9,7.892.757,6.6-.475,12.694-3.394,16.772l-.4.558H18.611Z" fill="url(#linear-gradient-4)"/>
</svg>
