<svg id="Image" xmlns="http://www.w3.org/2000/svg" xmlns:xlink="http://www.w3.org/1999/xlink" viewBox="0 0 48 48">
  <defs>
    <linearGradient id="linear-gradient" x1="2.006" y1="6.5" x2="41.006" y2="45.5" gradientUnits="userSpaceOnUse">
      <stop offset="0" stop-color="#fff"/>
      <stop offset="1" stop-color="#dcdcdc"/>
    </linearGradient>
    <linearGradient id="Sfumatura_senza_nome_28" data-name="Sfumatura senza nome 28" x1="26.161" y1="22.559" x2="43.839" y2="4.881" gradientTransform="matrix(1, 0, 0, -1, 0, 48.72)" gradientUnits="userSpaceOnUse">
      <stop offset="0" stop-color="#73b4c8"/>
      <stop offset="1" stop-color="#177491"/>
    </linearGradient>
  </defs>
  <g>
    <rect x="3.006" y="5.5" width="37" height="41" fill="url(#linear-gradient)"/>
    <g>
      <path d="M21.538,16.058H5.958v-1h15.58Zm-4.957,1.968H5.958v1H16.581Z" fill="#177491"/>
      <g>
        <path d="M28.91,18.047,26.7,15.431l-2.225,1.844,4.407,5.416,7.7-9.5-2.2-1.8" fill="#0e7191"/>
        <polygon points="28.953 21.267 25.658 17.226 26.466 16.627 28.963 19.658 34.481 12.902 35.282 13.51 28.953 21.267" fill="#3b90b2"/>
      </g>
    </g>
    <path d="M21.538,26.564H5.958v-1h15.58Zm-4.957,1.968H5.958v1H16.581Z" fill="#177491"/>
    <path d="M21.538,37.058H5.958v-1h15.58Zm-4.957,1.967H5.958v1H16.581Z" fill="#177491"/>
    <path d="M37.506,5V.5a.5.5,0,0,0-1,0V5H32.339V.5a.5.5,0,0,0-1,0V5H27.173V.5a.5.5,0,0,0-1,0V5H22.006V.5a.5.5,0,0,0-1,0V5H16.839V.5a.5.5,0,1,0-1,0V5H11.672V.5a.5.5,0,0,0-1,0V5H6.506V.5a.5.5,0,0,0-1,0V5h-3V47h38V5Zm2,41h-36V6h2V8a.5.5,0,0,0,1,0V6h4.166V8a.5.5,0,0,0,1,0V6h4.167V8a.5.5,0,1,0,1,0V6h4.167V8a.5.5,0,0,0,1,0V6h4.167V8a.5.5,0,1,0,1,0V6h4.166V8a.5.5,0,0,0,1,0V6h4.167V8a.5.5,0,0,0,1,0V6h2Z" fill="#6f6e6e"/>
    <g>
      <circle cx="35" cy="35" r="12.5" fill="url(#Sfumatura_senza_nome_28)"/>
      <path d="M35,48A13,13,0,1,1,48,35,13.015,13.015,0,0,1,35,48Zm0-25A12,12,0,1,0,47,35,12.013,12.013,0,0,0,35,23Z" fill="#474647"/>
    </g>
    <path d="M35,40.5A1.5,1.5,0,0,1,33.5,39V37.27a4.415,4.415,0,0,1,2.547-4,2.5,2.5,0,0,0-.581-4.729A2.7,2.7,0,0,0,35,28.5a2.469,2.469,0,0,0-1.6.583A2.5,2.5,0,0,0,32.5,31a1.5,1.5,0,0,1-3,0A5.5,5.5,0,0,1,35,25.5h.007a5.626,5.626,0,0,1,.978.086,5.5,5.5,0,0,1,1.322,10.407,1.405,1.405,0,0,0-.807,1.276V39A1.5,1.5,0,0,1,35,40.5Z" fill="#fff"/>
    <path d="M35.006,26a5.114,5.114,0,0,1,.891.078,5,5,0,0,1,1.2,9.461,1.909,1.909,0,0,0-1.1,1.73V39a1,1,0,0,1-2,0V37.27a3.912,3.912,0,0,1,2.257-3.545,3,3,0,0,0-.7-5.676A3.293,3.293,0,0,0,35,28a3,3,0,0,0-3,3,1,1,0,0,1-2,0,5,5,0,0,1,5-5h.006m0-1h0A6,6,0,0,0,29,30.994V31a2,2,0,0,0,4,0,2,2,0,0,1,.715-1.533A1.975,1.975,0,0,1,35,29a2.222,2.222,0,0,1,.382.033,2,2,0,0,1,.456,3.782A4.917,4.917,0,0,0,33,37.269V39a2,2,0,0,0,4,0V37.27a.9.9,0,0,1,.517-.822A6,6,0,0,0,36.07,25.093,6.114,6.114,0,0,0,35.007,25Z" fill="#197492"/>
    <path d="M35,45a2.009,2.009,0,0,1-1.421-.6,2.006,2.006,0,0,1,2.84-2.834A2.017,2.017,0,0,1,35,45Z" fill="#fff"/>
    <path d="M35.005,41.5a1.492,1.492,0,0,1,1.059.419,1.562,1.562,0,1,1-1.059-.419m0-1A2.459,2.459,0,0,0,32.5,42.912v.079A2.518,2.518,0,1,0,35.045,40.5Z" fill="#197492"/>
  </g>
</svg>
