<svg id="Image" xmlns="http://www.w3.org/2000/svg" xmlns:xlink="http://www.w3.org/1999/xlink" viewBox="0 0 48 48">
  <defs>
    <linearGradient id="linear-gradient" x1="31.574" y1="22.786" x2="42.976" y2="34.116" gradientTransform="translate(0 2)" gradientUnits="userSpaceOnUse">
      <stop offset="0" stop-color="#f8f8f9"/>
      <stop offset="0.5" stop-color="#d5d4d4"/>
      <stop offset="0.63" stop-color="#d1cfce"/>
      <stop offset="0.779" stop-color="#c4c1c1"/>
      <stop offset="0.938" stop-color="#aba8a7"/>
      <stop offset="0.99" stop-color="#a29f9d"/>
    </linearGradient>
    <linearGradient id="linear-gradient-2" x1="35.528" y1="26.763" x2="38.916" y2="30.079" gradientTransform="translate(0 2)" gradientUnits="userSpaceOnUse">
      <stop offset="0" stop-color="#fff"/>
      <stop offset="0.221" stop-color="#fbfbfc"/>
      <stop offset="0.541" stop-color="#ececec"/>
      <stop offset="0.92" stop-color="#d0cecd"/>
      <stop offset="1" stop-color="#c9c6c5"/>
    </linearGradient>
    <linearGradient id="linear-gradient-3" x1="5.012" y1="22.634" x2="16.449" y2="33.999" xlink:href="#linear-gradient"/>
    <linearGradient id="linear-gradient-4" x1="8.958" y1="26.659" x2="12.525" y2="30.047" xlink:href="#linear-gradient-2"/>
    <linearGradient id="linear-gradient-5" x1="18.34" y1="30.987" x2="29.526" y2="42.173" xlink:href="#linear-gradient"/>
    <linearGradient id="linear-gradient-6" x1="22.367" y1="35.036" x2="25.5" y2="38.169" xlink:href="#linear-gradient-2"/>
    <linearGradient id="linear-gradient-7" x1="10.719" y1="39.032" x2="38.68" y2="14.625" gradientTransform="matrix(1, 0, 0, -1, 0, 48)" gradientUnits="userSpaceOnUse">
      <stop offset="0" stop-color="#cde6eb"/>
      <stop offset="1" stop-color="#8cc3d2"/>
    </linearGradient>
    <linearGradient id="linear-gradient-8" x1="16.634" y1="47.741" x2="31.244" y2="25.941" xlink:href="#linear-gradient-7"/>
  </defs>
  <g id="g879">
    <path id="path40-1-9" d="M42.486,32.323l2.64-.939V29.407l-2.64-.939a.314.314,0,0,1-.2-.4.239.239,0,0,1,.015-.037L43.5,25.5l-1.4-1.4-2.526,1.2a.315.315,0,0,1-.421-.147l-.012-.028L38.211,22.5H36.237L35.3,25.134a.32.32,0,0,1-.416.179l-.018-.007-2.525-1.2-1.4,1.4,1.2,2.531a.318.318,0,0,1-.153.422l-.031.013-2.64.939v1.977l2.639.939a.315.315,0,0,1,.2.4.25.25,0,0,1-.015.038l-1.2,2.532,1.4,1.4,2.525-1.2a.317.317,0,0,1,.42.16.2.2,0,0,1,.014.034l.936,2.66h1.973l.937-2.659a.309.309,0,0,1,.375-.222.419.419,0,0,1,.059.022l2.525,1.2,1.4-1.4-1.2-2.532a.318.318,0,0,1,.151-.421Z" stroke="#4e4a48" stroke-linecap="round" stroke-linejoin="round" stroke-width="0.999" fill="url(#linear-gradient)"/>
    <path id="circle42-8-4" d="M39.436,30.422A2.213,2.213,0,1,1,37.223,28.2,2.216,2.216,0,0,1,39.436,30.422Z" stroke="#4e4a48" stroke-miterlimit="10" stroke-width="0.999" fill="url(#linear-gradient-2)"/>
    <path id="path40-1" d="M16.079,32.325l2.639-.939V29.409l-2.639-.939a.314.314,0,0,1-.2-.4.239.239,0,0,1,.015-.037l1.2-2.531-1.4-1.4-2.526,1.2a.315.315,0,0,1-.421-.147l-.012-.028L11.8,22.5H9.83l-.937,2.634a.319.319,0,0,1-.415.179l-.019-.007-2.525-1.2-1.4,1.4,1.2,2.531a.318.318,0,0,1-.153.422l-.031.013-2.641.939V31.39l2.64.939a.315.315,0,0,1,.2.4.25.25,0,0,1-.015.038L4.539,35.3l1.4,1.4L8.46,35.5a.318.318,0,0,1,.421.16.2.2,0,0,1,.013.034l.937,2.66H11.8l.936-2.659a.31.31,0,0,1,.376-.222.366.366,0,0,1,.058.022l2.525,1.2,1.4-1.4-1.2-2.532a.318.318,0,0,1,.151-.421Z" stroke="#4e4a48" stroke-linecap="round" stroke-linejoin="round" stroke-width="0.999" fill="url(#linear-gradient-3)"/>
    <path id="circle42-8" d="M13.029,30.424a2.213,2.213,0,1,1-2.213-2.218A2.216,2.216,0,0,1,13.029,30.424Z" stroke="#4e4a48" stroke-miterlimit="10" stroke-width="0.999" fill="url(#linear-gradient-4)"/>
    <path id="path40" d="M29.223,40.53l2.64-.939V37.614l-2.64-.939a.314.314,0,0,1-.2-.4.25.25,0,0,1,.015-.038l1.2-2.531-1.4-1.4-2.526,1.2a.315.315,0,0,1-.421-.147l-.012-.028-.932-2.632H22.974l-.936,2.633a.321.321,0,0,1-.416.18l-.018-.008-2.525-1.2-1.4,1.4,1.2,2.531a.319.319,0,0,1-.153.423l-.031.012-2.64.939V39.6l2.639.939a.316.316,0,0,1,.2.4.239.239,0,0,1-.015.037l-1.2,2.532,1.4,1.4,2.525-1.2a.319.319,0,0,1,.421.16c0,.011.009.023.013.034l.936,2.661h1.973l.937-2.66a.307.307,0,0,1,.375-.221.319.319,0,0,1,.059.021l2.525,1.2,1.4-1.4-1.2-2.532a.316.316,0,0,1,.151-.42Z" stroke="#4e4a48" stroke-linecap="round" stroke-linejoin="round" stroke-width="0.999" fill="url(#linear-gradient-5)"/>
    <path id="circle42" d="M26.173,38.629a2.213,2.213,0,1,1-4.426,0h0a2.213,2.213,0,1,1,4.426,0Z" stroke="#4e4a48" stroke-miterlimit="10" stroke-width="0.999" fill="url(#linear-gradient-6)"/>
    <g id="g86">
      <g id="g82">
        <path id="path78" d="M5,28.459a.516.516,0,0,1-.459-.559V22.4A.516.516,0,0,1,5,21.841H7A2.65,2.65,0,0,0,9.541,19.1V14.7C9.541,7.72,14.682,2.041,21,2.041h6c6.318,0,11.459,5.679,11.459,12.659v4.4A2.65,2.65,0,0,0,41,21.841h2a.516.516,0,0,1,.459.559v5.5a.516.516,0,0,1-.459.559Z" fill="url(#linear-gradient-7)"/>
        <path id="path80" d="M27,2.582c6.02,0,10.918,5.436,10.918,12.118v4.4A3.19,3.19,0,0,0,41,22.382h1.917v5.536H5.083V22.382H7A3.19,3.19,0,0,0,10.082,19.1V14.7c0-6.682,4.9-12.118,10.918-12.118h6M27,1.5H21C14.373,1.5,9,7.41,9,14.7v4.4a2.107,2.107,0,0,1-2,2.2H5a1.053,1.053,0,0,0-1,1.1v5.5A1.053,1.053,0,0,0,5,29H43a1.053,1.053,0,0,0,1-1.1V22.4a1.053,1.053,0,0,0-1-1.1H41a2.107,2.107,0,0,1-2-2.2V14.7C39,7.41,33.627,1.5,27,1.5Z" fill="#177491"/>
      </g>
      <path id="polyline84" d="M19.5,21V1.5h9V21" stroke="#177491" stroke-miterlimit="10" stroke-width="1.082" fill="url(#linear-gradient-8)"/>
    </g>
  </g>
</svg>
