<svg id="Layer_1" data-name="Layer 1" xmlns="http://www.w3.org/2000/svg" xmlns:xlink="http://www.w3.org/1999/xlink" viewBox="0 0 48 48">
    <linearGradient id="linear-gradient" x1="6.46" y1="16.038" x2="25.627" y2="35.204" gradientUnits="userSpaceOnUse">
      <stop offset="0" stop-color="#afd7e1"/>
      <stop offset="1" stop-color="#54a4bc"/>
    </linearGradient>
    <linearGradient id="linear-gradient-2" x1="17.661" y1="31.873" x2="44.542" y2="31.873" gradientUnits="userSpaceOnUse">
      <stop offset="0" stop-color="#147391"/>
      <stop offset="0.191" stop-color="#2c839f"/>
      <stop offset="0.543" stop-color="#529eb5"/>
      <stop offset="0.825" stop-color="#6aaec3"/>
      <stop offset="1" stop-color="#73b4c8"/>
    </linearGradient>
  <path d="M33.583,27.25S29.167,8.75,13.125,12.542c-13.524,3.2-11.5,19.417-11.5,19.417s5.405,3.961,16.833,2.458C27.333,33.25,28.167,29.417,33.583,27.25Z" fill="none" stroke="#464646" stroke-miterlimit="10"/>
  <path d="M33.581,27.25S29.164,8.75,13.123,12.542c-13.524,3.2-11.5,19.417-11.5,19.417s5.405,3.961,16.833,2.458C27.331,33.25,28.164,29.417,33.581,27.25Z" stroke="#464646" stroke-miterlimit="10" fill="url(#linear-gradient)"/>
  <path d="M13.123,12.542a18.772,18.772,0,0,1,3.125-.47l-.121-.846a1,1,0,0,0-1.121-.849l-1.983.261a1,1,0,0,0-.859,1.133l.143,1C12.576,12.689,12.841,12.608,13.123,12.542Z" fill="#147391" stroke="#464646" stroke-miterlimit="10"/>
  <path d="M33.583,27.25h0c-5.416,2.167-6.25,6-15.124,7.166-.274.036-.528.055-.794.084A19.732,19.732,0,0,0,27.75,36.458c7.25-.417,12.208-8.5,16.792-7.917Z" stroke="#464646" stroke-miterlimit="10" fill="url(#linear-gradient-2)"/>
  <path d="M44.542,28.542c-2.535-.323-5.188,2.006-8.277,4.223,6.458.716,9.473-.531,9.985-2.265C46.792,28.667,44.542,28.542,44.542,28.542Z" fill="#147391" stroke="#464646" stroke-miterlimit="10"/>
    <path d="M13.353,13.5a10.961,10.961,0,0,0-.166,1.487" fill="none" stroke="#147391" stroke-miterlimit="10"/>
    <path d="M13.275,17.559c.318,3,1.452,7.389,4.558,13.353" fill="none" stroke="#147391" stroke-miterlimit="10" stroke-dasharray="2.578 2.578"/>
    <path d="M18.443,32.054q.351.644.732,1.31" fill="none" stroke="#147391" stroke-miterlimit="10"/>
    <path d="M17.212,13.219c.426.121.907.268,1.427.449" fill="none" stroke="#147391" stroke-miterlimit="10"/>
    <path d="M20.984,14.637a18.382,18.382,0,0,1,9.31,9.981" fill="none" stroke="#147391" stroke-miterlimit="10" stroke-dasharray="2.54 2.54"/>
    <path d="M30.731,25.814q.231.694.427,1.438" fill="none" stroke="#147391" stroke-miterlimit="10"/>
</svg>
