<svg id="Layer_1" data-name="Layer 1" xmlns="http://www.w3.org/2000/svg" xmlns:xlink="http://www.w3.org/1999/xlink" viewBox="0 0 48 48">
  <defs>
    <linearGradient id="linear-gradient" x1="3.635" y1="26.872" x2="19.303" y2="6.468" gradientTransform="matrix(1, 0, 0, -1, 0, 48)" gradientUnits="userSpaceOnUse">
      <stop offset="0" stop-color="#fff"/>
      <stop offset="0.221" stop-color="#f8f8f8"/>
      <stop offset="0.541" stop-color="#e5e5e5"/>
      <stop offset="0.92" stop-color="#c6c6c6"/>
      <stop offset="1" stop-color="#bebebe"/>
    </linearGradient>
    <linearGradient id="linear-gradient-2" x1="88.121" y1="76.477" x2="103.146" y2="48.846" gradientTransform="matrix(0.707, 0, 0, -0.694, -37.914, 62.417)" gradientUnits="userSpaceOnUse">
      <stop offset="0" stop-color="#73b4c8"/>
      <stop offset="0.175" stop-color="#6aaec3"/>
      <stop offset="0.457" stop-color="#529eb5"/>
      <stop offset="0.809" stop-color="#2c839f"/>
      <stop offset="1" stop-color="#147391"/>
    </linearGradient>
    <linearGradient id="linear-gradient-3" x1="103.009" y1="84.573" x2="118.034" y2="56.942" xlink:href="#linear-gradient-2"/>
    <linearGradient id="linear-gradient-4" x1="7.191" y1="6.972" x2="18.727" y2="1.804" gradientTransform="matrix(1, 0.005, 0.005, -1, -0.023, 47.947)" xlink:href="#linear-gradient-2"/>
    <linearGradient id="linear-gradient-5" x1="7.843" y1="29.925" x2="18.938" y2="24.737" gradientTransform="matrix(1, 0.005, 0.005, -1, -0.132, 47.947)" xlink:href="#linear-gradient-2"/>
  </defs>
  <g id="g1028">
    <path id="path19" d="M15,30.061a10.56,10.56,0,0,0,4.8-8.152.744.744,0,0,0-.711-.775H19.04l-15.147.076a.738.738,0,0,0-.744.733c0,.015,0,.03,0,.045A10.557,10.557,0,0,0,8.024,30.1a1.562,1.562,0,0,1,.012,2.623,10.56,10.56,0,0,0-4.8,8.153.744.744,0,0,0,.712.775h.043l15.144-.071a.742.742,0,0,0,.749-.737c0-.015,0-.03,0-.045a10.557,10.557,0,0,0-4.873-8.107A1.562,1.562,0,0,1,15,30.061Z" fill="url(#linear-gradient)"/>
    <rect id="rect959" x="24" y="2.74" width="8.519" height="27.26" rx="0.855" fill="#464646"/>
    <rect id="rect959-9" x="24.852" y="3.592" width="6.815" height="25.556" rx="0.801" fill="url(#linear-gradient-2)"/>
    <rect id="rect959-8" x="37.63" y="2.74" width="8.519" height="27.26" rx="0.855" fill="#464646"/>
    <rect id="rect959-9-0" x="38.482" y="3.592" width="6.815" height="25.556" rx="0.801" fill="url(#linear-gradient-3)"/>
    <path id="path21" d="M19.473,42.069a1.33,1.33,0,0,1-.333.045L4,42.182a1.3,1.3,0,0,1-.956-.411,1.234,1.234,0,0,1-.336-.939,11.153,11.153,0,0,1,5.041-8.564,1.027,1.027,0,0,0,.294-1.421,1.046,1.046,0,0,0-.3-.3,11.144,11.144,0,0,1-5.122-8.523,1.234,1.234,0,0,1,.328-.938,1.3,1.3,0,0,1,.947-.417L19.039,20.6a1.3,1.3,0,0,1,.953.406,1.236,1.236,0,0,1,.336.939,11.136,11.136,0,0,1-5.039,8.564h0A1.027,1.027,0,0,0,15,31.932a1.011,1.011,0,0,0,.3.3,11.147,11.147,0,0,1,5.12,8.519,1.234,1.234,0,0,1-.33.94,1.308,1.308,0,0,1-.614.381ZM3.837,21.748a.225.225,0,0,0-.106.063.166.166,0,0,0-.049.125,10.078,10.078,0,0,0,4.626,7.7,2.1,2.1,0,0,1,.016,3.525A10.075,10.075,0,0,0,3.77,40.9a.172.172,0,0,0,.049.131.236.236,0,0,0,.169.074l15.145-.068a.217.217,0,0,0,.166-.074.165.165,0,0,0,.05-.131,10.078,10.078,0,0,0-4.623-7.69,2.1,2.1,0,0,1-.018-3.526h0a10.067,10.067,0,0,0,4.555-7.738.179.179,0,0,0-.05-.132.229.229,0,0,0-.167-.072L3.9,21.74A.225.225,0,0,0,3.837,21.748Z" fill="#177491"/>
    <rect id="rect25" x="1.387" y="41.628" width="20.367" height="2.725" rx="1.072" transform="translate(-0.2 0.054) rotate(-0.266)" fill="url(#linear-gradient-4)"/>
    <path id="path27" d="M21.109,44.789a1.569,1.569,0,0,1-.42.056l-18.222.088a1.609,1.609,0,0,1-1.615-1.6l0-.582a1.608,1.608,0,0,1,1.6-1.614l18.223-.085a1.609,1.609,0,0,1,1.616,1.6v.583a1.608,1.608,0,0,1-1.181,1.558ZM2.315,42.225a.538.538,0,0,0-.394.519l0,.582a.535.535,0,0,0,.539.533l18.222-.084a.536.536,0,0,0,.533-.538v-.582a.537.537,0,0,0-.539-.533l-18.222.085a.52.52,0,0,0-.141.018Z" fill="#464646"/>
    <rect id="rect31" x="1.278" y="18.385" width="20.367" height="2.766" rx="1.072" transform="translate(-0.092 0.053) rotate(-0.266)" fill="url(#linear-gradient-5)"/>
    <path id="path33" d="M21,21.587a1.63,1.63,0,0,1-.417.056l-18.224.085a1.609,1.609,0,0,1-1.616-1.6h0v-.623a1.609,1.609,0,0,1,1.6-1.615l18.223-.085a1.609,1.609,0,0,1,1.614,1.6l0,.622A1.608,1.608,0,0,1,21,21.587ZM2.207,18.982a.531.531,0,0,0-.394.514v.623a.538.538,0,0,0,.54.533h0l18.223-.085a.536.536,0,0,0,.533-.535l0-.622a.536.536,0,0,0-.538-.53l-18.218.083A.507.507,0,0,0,2.207,18.982Z" fill="#464646"/>
  </g>
</svg>
