<svg id="Layer_1" data-name="Layer 1" xmlns="http://www.w3.org/2000/svg" xmlns:xlink="http://www.w3.org/1999/xlink" viewBox="0 0 48 48">
  <defs>
    <linearGradient id="linear-gradient" x1="3.5" y1="1326.5" x2="45" y2="1368" gradientTransform="translate(0 -1320)" gradientUnits="userSpaceOnUse">
      <stop offset="0" stop-color="#fff"/>
      <stop offset="0.232" stop-color="#fafafa"/>
      <stop offset="0.496" stop-color="#ededed"/>
      <stop offset="0.775" stop-color="#d6d6d6"/>
      <stop offset="1" stop-color="#bebebe"/>
    </linearGradient>
    <linearGradient id="linear-gradient-2" x1="29.25" y1="1323.75" x2="42.25" y2="1336.75" gradientTransform="translate(0 -1320)" gradientUnits="userSpaceOnUse">
      <stop offset="0" stop-color="#fff"/>
      <stop offset="0.221" stop-color="#f8f8f8"/>
      <stop offset="0.541" stop-color="#e5e5e5"/>
      <stop offset="0.92" stop-color="#c6c6c6"/>
      <stop offset="1" stop-color="#bebebe"/>
    </linearGradient>
    <linearGradient id="linear-gradient-3" x1="3.75" y1="47.75" x2="26.25" y2="25.25" gradientTransform="matrix(1, 0, 0, -1, 0, 48)" gradientUnits="userSpaceOnUse">
      <stop offset="0" stop-color="#73b4c8"/>
      <stop offset="0.175" stop-color="#6aaec3"/>
      <stop offset="0.457" stop-color="#529eb5"/>
      <stop offset="0.809" stop-color="#2c839f"/>
      <stop offset="1" stop-color="#147391"/>
    </linearGradient>
  </defs>
  <g id="g857">
    <path id="polygon13" d="M32.5.5H9.5v47h36v-34Z" stroke="#464646" stroke-miterlimit="10" fill="url(#linear-gradient)"/>
    <path id="polygon26" d="M32.5.5v13h13Z" stroke="#464646" stroke-linejoin="round" fill="url(#linear-gradient-2)"/>
    <path id="line28" d="M15,34.5H40" fill="none" stroke="#5a5a5a"/>
    <path id="line30" d="M15,28.5H40" fill="none" stroke="#5a5a5a"/>
    <path id="line32" d="M15,40.5H40" fill="none" stroke="#5a5a5a"/>
    <path id="rect45" d="M.5,3.5h29v16H.5Z" stroke="#464646" stroke-miterlimit="10" fill="url(#linear-gradient-3)"/>
    <g id="text870-9">
      <path id="path865" d="M20.781,16.96H18.6V9.638l-1.573,4.751h-1.51L13.949,9.638V16.96H11.886V6.025h2.541l1.909,5.486,1.9-5.486h2.542Z" fill="#fff"/>
    </g>
    <g id="text870-2">
      <path id="path868" d="M11.4,16.989H8.505l-2.089-3.6-2.129,3.6H1.527l3.437-5.516L1.6,6.038H4.483L6.5,9.451,8.577,6.038h2.767L7.959,11.363Z" fill="#fff"/>
    </g>
    <g id="text870">
      <path id="path871" d="M28.34,16.953H21.994V5.966h2.269v8.862H28.34Z" fill="#fff"/>
    </g>
  </g>
</svg>
