<svg id="Layer_1" data-name="Layer 1" xmlns="http://www.w3.org/2000/svg" viewBox="0 0 48 48">
  <g id="g1252">
    <path id="path938-6-6" d="M28.477,3.309,26.362,4.542l.967.576c.5-.294,1.807-1.065,1.815-1.069.076-.041-.048.05-.254-.338Zm-3.3,1.921-1.287.751.965.578c.555-.324.716-.416,1.289-.751ZM22.709,6.671l-1.224.713.966.574,1.222-.711ZM20.3,8.072l-1.21.706.963.574,1.21-.7ZM17.912,9.466l-1.349.787.959.575,1.3-.759.049-.029ZM15.38,10.941l-1.236.722.956.572c.338-.2.914-.533,1.239-.721Zm-2.417,1.41-1.412.823.952.57,1.414-.821Zm-2.595,1.513-1.6.932-.023.562c-.02.492-.012.562.057.536.011-.005,2-1.162,2.517-1.462Z" fill="#afd6e0"/>
    <path id="path938-6-5-5-5-3" d="M41.209,10.66l-2.115,1.234.967.576c.506-.294,2.168-1.245,2.175-1.249a.479.479,0,0,1-.542-.231Zm-3.3,1.922-1.288.75.965.579,1.29-.751Zm-2.469,1.44-1.224.714.965.574,1.222-.711Zm-2.405,1.4-1.211.705.964.575L34,16Zm-2.392,1.393-1.349.788.959.574,1.3-.758.048-.029Zm-2.533,1.476-1.235.721.955.572c.339-.2.914-.532,1.24-.721ZM25.7,19.7l-1.412.823.952.57,1.413-.821Zm-2.6,1.513-1.6.933-.024.562c-.02.491-.011.561.057.535.011,0,2-1.161,2.518-1.462Z" fill="#a5d0dc"/>
    <path id="path938-6-5-5-5" d="M38.7,9.135,36.58,10.368l.967.577c.506-.295,2.168-1.245,2.175-1.249a.479.479,0,0,1-.542-.231Zm-3.3,1.921-1.288.751.966.578,1.289-.75ZM32.928,12.5,31.7,13.21l.965.575,1.222-.712Zm-2.4,1.4-1.21.706.963.574c.625-.364.608-.352,1.21-.7Zm-2.392,1.394-1.349.788.959.574,1.3-.758.049-.03ZM25.6,16.768l-1.235.721.956.572,1.239-.721Zm-2.416,1.409L21.77,19l.952.57,1.413-.821ZM20.587,19.69l-1.6.932-.024.563c-.02.491-.011.561.058.535.01,0,2-1.162,2.517-1.462Z" fill="#afd6e0"/>
    <path id="path938-6-5-5" d="M36.028,7.73,33.912,8.964l.968.576c.5-.294,2.167-1.245,2.174-1.249a.477.477,0,0,1-.542-.231Zm-3.3,1.922-1.287.75.965.579L33.7,10.23Zm-2.469,1.44-1.224.714L30,12.38l1.221-.711Zm-2.405,1.4-1.21.705.963.575,1.21-.7Zm-2.392,1.393-1.349.788.959.574c.452-.262.592-.343,1.3-.758l.049-.029Zm-2.532,1.476-1.236.721.956.573,1.239-.722Zm-2.417,1.409L19.1,17.6l.952.57,1.413-.82Zm-2.595,1.513-1.6.933-.024.562c-.019.492-.011.562.058.535.011,0,2-1.161,2.517-1.462Z" fill="#b7dae2"/>
    <path id="path938-6-5" d="M33.6,6.269,31.488,7.5l.967.576c.505-.294,2.023-1.209,2.031-1.212.076-.042-.192.229-.4-.159Zm-3.3,1.921-1.288.751.965.578,1.29-.751ZM27.836,9.631l-1.224.713.965.574,1.222-.711Zm-2.406,1.4-1.21.706.963.574,1.211-.7Zm-2.391,1.394-1.35.787.96.575,1.3-.759c.026-.015.021-.014.048-.029ZM20.506,13.9l-1.236.722.956.572,1.239-.721Zm-2.417,1.41-1.411.823.951.57,1.414-.821Zm-2.595,1.513-1.6.932-.023.562c-.02.492-.012.562.057.536.011,0,2-1.162,2.517-1.462Z" fill="#afd6e0"/>
    <path id="path938-6" d="M31.057,4.763,28.942,6l.967.576c.506-.294,1.808-1.065,1.815-1.069.077-.041-.047.05-.254-.338Zm-3.3,1.921-1.288.751.965.578,1.29-.751ZM25.29,8.125l-1.224.713.965.574L26.253,8.7Zm-2.4,1.4-1.211.706.964.574,1.21-.7ZM20.493,10.92l-1.35.787.96.575,1.3-.759c.027-.015.022-.014.048-.029ZM17.96,12.4l-1.235.722.955.572c.339-.2.914-.533,1.24-.721Zm-2.417,1.41-1.411.823.952.57c.4-.235,1.048-.61,1.413-.821Zm-2.594,1.513-1.6.932-.024.562c-.02.492-.011.562.057.536.011,0,2-1.162,2.518-1.462Z" fill="#afd6e0"/>
    <path id="path2019" d="M24.171.8,23.682.53l-.811.572" fill="none" stroke="#919191" stroke-linejoin="round" stroke-width="0.973"/>
    <path id="path1363" d="M3.676,14.824a2.588,2.588,0,0,0-.44.83s1.647.953,1.993,1.155v-1.09C5.023,15.6,3.679,14.824,3.676,14.824Z" fill="#94c7d6"/>
    <path id="path1361" d="M6.229,16.3v1.09l1.6.926v-1.1Z" fill="#94c7d6"/>
    <path id="path1359" d="M8.826,17.793v1.1l1.529.886v-1.1Z" fill="#94c7d6"/>
    <path id="path1357" d="M3.838,17.852a2.6,2.6,0,0,0-.44.828l1.831,1.06V18.652C5.063,18.558,3.84,17.852,3.838,17.852Z" fill="#94c7d6"/>
    <path id="path1355" d="M6.229,19.229v1.089c.374.218,1.065.618,1.6.926V20.15C7.342,19.872,6.541,19.408,6.229,19.229Z" fill="#94c7d6"/>
    <path id="path1353" d="M11.355,19.252v1.1l1.5.872V20.119C12.064,19.659,12.082,19.672,11.355,19.252Z" fill="#94c7d6"/>
    <path id="path1351" d="M3.662,20.66a2.579,2.579,0,0,0-.437.83s1.654.957,2,1.16V21.563C5.02,21.443,3.665,20.66,3.662,20.66Z" fill="#94c7d6"/>
    <path id="path1349" d="M13.859,20.7v1.11l1.532.886V21.58Z" fill="#94c7d6"/>
    <path id="path1347" d="M8.826,20.727v1.095c.584.339.857.5,1.529.885v-1.1C9.688,21.222,9.378,21.045,8.826,20.727Z" fill="#94c7d6"/>
    <path id="path1345" d="M6.229,22.139V23.23c.393.229,1.051.607,1.6.924V23.061Z" fill="#94c7d6"/>
    <path id="path1343" d="M16.391,22.158v1.113c.7.4.938.545,1.554.9V23.059Z" fill="#94c7d6"/>
    <path id="path1341" d="M11.355,22.184v1.1l1.5.871V23.051C12.07,22.594,12.073,22.6,11.355,22.184Z" fill="#94c7d6"/>
    <path id="path1339" d="M13.859,23.627v1.109l1.532.887V24.514l-1.522-.881-.01-.006Z" fill="#94c7d6"/>
    <path id="path1337" d="M8.826,23.637v1.1c.6.346.849.491,1.529.885v-1.1C9.677,24.126,9.393,23.963,8.826,23.637Z" fill="#94c7d6"/>
    <path id="path1335" d="M18.945,23.637V24.75c.548.317,1.162.673,1.567.906V24.541Z" fill="#94c7d6"/>
    <path id="path1333" d="M3.977,23.781a2.588,2.588,0,0,0-.44.83s1.438.831,1.692.979V24.5C5.093,24.425,3.979,23.781,3.977,23.781Z" fill="#94c7d6"/>
    <path id="path1331" d="M6.229,25.08v1.09c.359.209,1.078.624,1.6.926V26Z" fill="#94c7d6"/>
    <path id="path1329" d="M16.391,25.092V26.2l1.554.9V25.99Z" fill="#94c7d6"/>
    <path id="path1327" d="M11.355,25.094v1.1l1.5.871V25.961C12.063,25.5,12.082,25.514,11.355,25.094Z" fill="#94c7d6"/>
    <path id="path1325" d="M21.512,25.119v1.117c.335.193,1.71.992,1.781,1.032a1.73,1.73,0,0,0,.377.173c.051,0,.062-.123.051-.525l-.014-.527Z" fill="#94c7d6"/>
    <path id="path1323" d="M13.859,26.539v1.109c.749.434.808.469,1.532.887V27.424Z" fill="#94c7d6"/>
    <path id="path1321" d="M18.945,26.568v1.114l1.567.906V27.475Z" fill="#94c7d6"/>
    <path id="path1319" d="M8.826,26.576v1.1c.575.333.864.5,1.529.885v-1.1Z" fill="#94c7d6"/>
    <path id="path1317" d="M3.861,26.637a2.57,2.57,0,0,0-.437.828s1.518.878,1.805,1.045V27.424C5.068,27.332,3.864,26.637,3.861,26.637Z" fill="#94c7d6"/>
    <path id="path1315" d="M6.229,28v1.09c.371.216,1.068.617,1.6.924V28.922C7.344,28.645,6.538,28.178,6.229,28Z" fill="#94c7d6"/>
    <path id="path1313" d="M16.391,28v1.111l1.554.9V28.9Z" fill="#94c7d6"/>
    <path id="path1311" d="M11.355,28.035v1.1l1.5.871V28.9C12.076,28.448,12.065,28.445,11.355,28.035Z" fill="#94c7d6"/>
    <path id="path1309" d="M21.512,28.053v1.115c.389.224,1.865,1.081,1.943,1.125a1.861,1.861,0,0,0,.377.176c.051,0,.062-.125.051-.528l-.014-.525Z" fill="#94c7d6"/>
    <path id="path1307" d="M13.859,29.479v1.109l1.532.887V30.363l-1.381-.8Z" fill="#94c7d6"/>
    <path id="path1305" d="M18.945,29.48v1.114l1.567.906V30.385Z" fill="#94c7d6"/>
    <path id="path1303" d="M8.826,29.5v1.1c.583.338.858.495,1.529.885v-1.1Z" fill="#94c7d6"/>
    <path id="path1301" d="M4.018,29.654a2.572,2.572,0,0,0-.438.828s1.407.815,1.649.956V30.352C5.1,30.279,4.02,29.654,4.018,29.654Z" fill="#94c7d6"/>
    <path id="path1299" d="M6.229,30.928v1.088l1.6.925V31.85C7.36,31.581,6.52,31.1,6.229,30.928Z" fill="#94c7d6"/>
    <path id="path1297" d="M16.391,30.941v1.114l1.554.9V31.84Z" fill="#94c7d6"/>
    <path id="path1295" d="M11.355,30.955v1.1l1.5.871V31.822Z" fill="#94c7d6"/>
    <path id="path1293" d="M21.512,30.963v1.115c.331.191,1.7.986,1.769,1.026a1.752,1.752,0,0,0,.377.173c.051,0,.062-.123.051-.525l-.014-.525Z" fill="#94c7d6"/>
    <path id="path1291" d="M13.859,32.4v1.11l1.532.887V33.283l-1.5-.865Z" fill="#94c7d6"/>
    <path id="path1289" d="M18.945,32.418v1.115c.572.33,1.131.655,1.567.906V33.324Z" fill="#94c7d6"/>
    <path id="path1287" d="M8.826,32.426V33.52l1.529.886v-1.1Z" fill="#94c7d6"/>
    <path id="path1285" d="M3.865,32.451a3.411,3.411,0,0,0-.084,1.059l1.448.838V33.26C5.14,33.209,3.867,32.451,3.865,32.451Z" fill="#94c7d6"/>
    <path id="path1283" d="M6.229,33.838v1.09c.331.192,1.1.635,1.6.924V34.758Z" fill="#94c7d6"/>
    <path id="path1281" d="M16.391,33.861v1.114c.706.409.927.535,1.554.9V34.762Z" fill="#94c7d6"/>
    <path id="path1279" d="M11.355,33.883v1.1l1.5.871v-1.1C12.077,34.3,12.063,34.291,11.355,33.883Z" fill="#94c7d6"/>
    <path id="path1277" d="M21.512,33.9V35.02c.438.252,2,1.158,2.082,1.2a1.708,1.708,0,0,0,.377.173c.05,0,.064-.123.052-.525l-.015-.527Z" fill="#94c7d6"/>
    <path id="path1275" d="M13.859,35.326v1.108l1.532.886V36.211l-1.34-.775Z" fill="#94c7d6"/>
    <path id="path1273" d="M8.826,35.334v1.1l1.529.884v-1.1C9.714,35.847,9.346,35.633,8.826,35.334Z" fill="#94c7d6"/>
    <path id="path1271" d="M18.945,35.34v1.113c.563.325,1.143.662,1.567.906V36.246Z" fill="#94c7d6"/>
    <path id="path1269" d="M16.391,36.789V37.9l1.554.9V37.688Z" fill="#94c7d6"/>
    <path id="path1267" d="M11.355,36.793v1.1l1.5.871V37.66C12.086,37.213,12.051,37.194,11.355,36.793Z" fill="#94c7d6"/>
    <path id="path1265" d="M21.512,36.824v1.115c.4.229,1.888,1.095,1.967,1.139a1.7,1.7,0,0,0,.376.174c.051,0,.064-.123.053-.525l-.015-.526Z" fill="#94c7d6"/>
    <path id="path1263" d="M13.859,38.236v1.11l1.532.886V39.121l-1.139-.658Z" fill="#94c7d6"/>
    <path id="path1261" d="M18.945,38.268v1.111c.575.332,1.127.654,1.567.908V39.172Z" fill="#94c7d6"/>
    <path id="path1259" d="M16.391,39.7v1.112l1.554.9V40.6Z" fill="#94c7d6"/>
    <path id="path1257" d="M21.512,39.752v1.113c.453.262,2.04,1.183,2.125,1.231a1.757,1.757,0,0,0,.375.175c.05,0,.064-.125.052-.527l-.015-.525Z" fill="#94c7d6"/>
    <path id="path1255" d="M18.945,41.176v1.115l1.567.906V42.082Z" fill="#94c7d6"/>
    <path id="path936" d="M21.512,42.66v1.115c.53.306,2.055,1.207,2.148,1.259.171.1-.054-.034-.017-.034s.076-.894.357-.457V44Z" fill="#94c7d6"/>
    <path id="path938" d="M26.174,1.809,24.037,3.041l.994.545L26.574,2.7c.078-.042.06-.093-.156-.467Zm-3.332,1.92-1.3.75.992.546,1.3-.75ZM20.348,5.168l-1.237.713.993.543,1.234-.711Zm-2.43,1.4L16.7,7.273l.991.543c.631-.363.614-.352,1.222-.7ZM15.5,7.961l-1.363.787.986.543,1.316-.758L16.49,8.5ZM12.943,9.436l-1.248.72.983.541c.341-.2.923-.532,1.252-.72ZM10.5,10.844l-1.426.822.979.539,1.427-.82ZM7.881,12.355l-1.615.932-.016.547c-.013.478,0,.546.066.52.011,0,2.019-1.161,2.543-1.461Z" fill="#afd6e0"/>
    <path id="path1361-0" d="M6.244,13.306v1.172c.392.245,1.052.655,1.6,1V14.3Z" fill="#919191"/>
    <path id="path1359-1" d="M8.769,14.8V15.95l1.53.932V15.724Z" fill="#919191"/>
    <path id="path1353-6" d="M11.35,16.25v1.1l1.5.872V17.117C12.058,16.657,12.076,16.67,11.35,16.25Z" fill="#919191"/>
    <path id="path1349-5" d="M13.866,17.7V18.81L15.4,19.7V18.586Z" fill="#919191"/>
    <path id="path1343-8" d="M16.32,19.218v1.113l1.555.9V20.118Z" fill="#919191"/>
    <path id="path1335-6" d="M18.933,20.675v1.113c.548.317,1.161.673,1.566.906V21.579Z" fill="#919191"/>
    <path id="path1325-1" d="M21.521,22.089v1.19c.335.206,1.71,1.057,1.781,1.1a1.727,1.727,0,0,0,.377.186c.051,0,.062-.132.051-.56l-.014-.562Z" fill="#919191"/>
    <path id="path1871" d="M3.475,34.831v.728l.141.082" fill="none" stroke="#919191" stroke-linejoin="round" stroke-width="1.016"/>
    <path id="path1876" d="M3.475,31.921v1.816" fill="none" stroke="#919191" stroke-linejoin="round" stroke-width="1.016"/>
    <path id="path1881" d="M3.475,29v1.826" fill="none" stroke="#919191" stroke-linejoin="round" stroke-width="1.016"/>
    <path id="path1886" d="M3.475,26.094v1.813" fill="none" stroke="#919191" stroke-linejoin="round" stroke-width="1.016"/>
    <path id="path1891" d="M3.475,23.227V25" fill="none" stroke="#919191" stroke-linejoin="round" stroke-width="1.016"/>
    <path id="path1896" d="M3.475,20.374v1.76" fill="none" stroke="#919191" stroke-linejoin="round" stroke-width="1.016"/>
    <path id="path1901" d="M3.475,17.53v1.75" fill="none" stroke="#919191" stroke-linejoin="round" stroke-width="1.016"/>
    <path id="path1906" d="M3.475,14.722v1.714" fill="none" stroke="#919191" stroke-linejoin="round" stroke-width="1.016"/>
    <path id="path2005" d="M5.14,11.326l-1.665.963v1.444" fill="none" stroke="#919191" stroke-linejoin="round" stroke-width="1.016"/>
    <path id="path1363-4" d="M4.021,12.114a3.548,3.548,0,0,0-.6.907s1.431.845,1.777,1.055l.05-1.14C5.038,12.813,4.2,12.28,4.021,12.114Z" fill="#919191"/>
    <path id="path1285-1" d="M4.154,35.334c-.472-.334-.888.686-.846.728,0,0,1.615.855,1.8.965l.051-1.113C5.073,35.864,3.724,35.054,4.154,35.334Z" fill="#919191"/>
    <path id="path1283-53" d="M6.162,36.492v1.09c.331.193,1.1.635,1.6.924V37.412Z" fill="#919191"/>
    <path id="path1273-10" d="M8.76,37.988v1.1c.557.323.876.506,1.529.885v-1.1Z" fill="#919191"/>
    <path id="path1267-0" d="M11.289,39.447v1.1l1.5.871V40.314C12.02,39.867,11.984,39.849,11.289,39.447Z" fill="#919191"/>
    <path id="path1263-7" d="M13.793,40.891V42l1.531.887V41.775l-1.138-.658Z" fill="#919191"/>
    <path id="path1259-2" d="M16.324,42.354v1.111l1.555.9V43.252Z" fill="#919191"/>
    <path id="path1255-2" d="M18.879,43.83v1.115l1.566.907V44.736Z" fill="#919191"/>
    <path id="path936-65" d="M21.42,45.34v1.115c.53.306,2.151,1.147,2.244,1.2.225.118.221.11.258.111s.165-.226.332-.6l-.45-.493Z" fill="#919191"/>
    <path id="path1363-8" d="M43.917,15.055a2.593,2.593,0,0,1,.429.823s-1.61.946-1.948,1.145V15.942C42.6,15.826,43.914,15.055,43.917,15.055Z" fill="#3c91af"/>
    <path id="path1361-2" d="M41.42,16.516V17.6l-1.563.918V17.428C40.346,17.143,41.1,16.7,41.42,16.516Z" fill="#3c91af"/>
    <path id="path1359-4" d="M38.879,18v1.089l-1.5.88V18.876Z" fill="#3c91af"/>
    <path id="path1357-8" d="M43.758,18.058a2.581,2.581,0,0,1,.43.822L42.4,19.932V18.853C42.56,18.759,43.755,18.058,43.758,18.058Z" fill="#3c91af"/>
    <path id="path1355-1" d="M41.42,19.424v1.081l-1.563.919V20.339C40.331,20.062,41.114,19.6,41.42,19.424Z" fill="#3c91af"/>
    <path id="path1353-5" d="M36.405,19.447v1.1l-1.471.864v-1.1C35.713,19.851,35.7,19.864,36.405,19.447Z" fill="#3c91af"/>
    <path id="path1351-9" d="M43.93,20.845a2.58,2.58,0,0,1,.428.823s-1.619.949-1.96,1.151V21.74C42.6,21.622,43.927,20.844,43.93,20.845Z" fill="#3c91af"/>
    <path id="path1349-6" d="M33.956,20.879v1.1l-1.5.88v-1.1Z" fill="#3c91af"/>
    <path id="path1347-3" d="M38.879,20.91V22c-.572.337-.838.492-1.5.878V21.784Z" fill="#3c91af"/>
    <path id="path1345-4" d="M41.42,22.311v1.083c-.385.227-1.029.6-1.563.917V23.226Z" fill="#3c91af"/>
    <path id="path1343-1" d="M31.48,22.331v1.1l-1.52.893v-1.1Z" fill="#3c91af"/>
    <path id="path1341-2" d="M36.405,22.356v1.095l-1.471.864v-1.1Z" fill="#3c91af"/>
    <path id="path1339-0" d="M33.956,23.788v1.1l-1.5.88v-1.1l1.489-.874.009-.006Z" fill="#3c91af"/>
    <path id="path1337-3" d="M38.879,23.8v1.088l-1.5.878V24.671Z" fill="#3c91af"/>
    <path id="path1335-62" d="M28.982,23.8v1.1l-1.532.9V24.7Z" fill="#3c91af"/>
    <path id="path1333-5" d="M43.622,23.941a2.576,2.576,0,0,1,.43.823s-1.406.825-1.654.971V24.656C42.53,24.579,43.62,23.941,43.622,23.941Z" fill="#3c91af"/>
    <path id="path1331-9" d="M41.42,25.229v1.082l-1.563.918V26.142Z" fill="#3c91af"/>
    <path id="path1329-1" d="M31.48,25.241v1.1l-1.52.893v-1.1Z" fill="#3c91af"/>
    <path id="path1327-0" d="M36.405,25.243v1.1l-1.471.864V26.1C35.713,25.647,35.694,25.66,36.405,25.243Z" fill="#3c91af"/>
    <path id="path1325-4" d="M26.471,25.268v1.109c-.328.191-1.672.983-1.742,1.023a1.723,1.723,0,0,1-.368.172c-.05,0-.061-.122-.05-.521l.013-.523Z" fill="#3c91af"/>
    <path id="path1323-1" d="M33.956,26.677v1.1l-1.5.879v-1.1Z" fill="#3c91af"/>
    <path id="path1321-2" d="M28.982,26.706v1.1l-1.532.9V27.605Z" fill="#3c91af"/>
    <path id="path1319-3" d="M38.879,26.714V27.8l-1.5.877V27.59Z" fill="#3c91af"/>
    <path id="path1317-1" d="M43.735,26.774a2.561,2.561,0,0,1,.428.821s-1.485.871-1.765,1.037V27.555C42.555,27.464,43.733,26.774,43.735,26.774Z" fill="#3c91af"/>
    <path id="path1315-7" d="M41.42,28.126v1.082c-.364.214-1.045.611-1.563.916V29.041C40.328,28.766,41.117,28.3,41.42,28.126Z" fill="#3c91af"/>
    <path id="path1313-0" d="M31.48,28.128v1.1l-1.52.893v-1.1Z" fill="#3c91af"/>
    <path id="path1311-1" d="M36.405,28.161v1.095l-1.471.864v-1.1C35.7,28.57,35.712,28.567,36.405,28.161Z" fill="#3c91af"/>
    <path id="path1309-8" d="M26.471,28.179v1.106c-.38.222-1.824,1.073-1.9,1.116a1.773,1.773,0,0,1-.369.175c-.05,0-.061-.125-.05-.524l.014-.521Z" fill="#3c91af"/>
    <path id="path1307-0" d="M33.956,29.593v1.1c-.733.43-.782.46-1.5.879v-1.1l1.351-.793Z" fill="#3c91af"/>
    <path id="path1305-7" d="M28.982,29.6V30.7c-.536.313-1.138.668-1.532.9V30.492Z" fill="#3c91af"/>
    <path id="path1303-6" d="M38.879,29.612V30.7l-1.5.877V30.486Z" fill="#3c91af"/>
    <path id="path1301-4" d="M43.582,29.767a2.566,2.566,0,0,1,.428.822s-1.376.808-1.612.948V30.459C42.522,30.388,43.58,29.767,43.582,29.767Z" fill="#3c91af"/>
    <path id="path1299-0" d="M41.42,31.031V32.11l-1.563.919V31.945C40.313,31.679,41.135,31.2,41.42,31.031Z" fill="#3c91af"/>
    <path id="path1297-8" d="M31.48,31.044v1.105l-1.52.891v-1.1Z" fill="#3c91af"/>
    <path id="path1295-1" d="M36.405,31.058v1.095l-1.471.864v-1.1C35.705,31.466,35.705,31.468,36.405,31.058Z" fill="#3c91af"/>
    <path id="path1293-9" d="M26.471,31.066v1.106c-.324.19-1.661.978-1.73,1.017a1.672,1.672,0,0,1-.369.173c-.05,0-.061-.122-.05-.521l.014-.522Z" fill="#3c91af"/>
    <path id="path1291-2" d="M33.956,32.49v1.1l-1.5.879v-1.1l1.464-.859Z" fill="#3c91af"/>
    <path id="path1289-3" d="M28.982,32.509v1.107c-.559.327-1.107.65-1.532.9V33.408Z" fill="#3c91af"/>
    <path id="path1287-6" d="M38.879,32.517V33.6l-1.5.88V33.391Z" fill="#3c91af"/>
    <path id="path1285-7" d="M43.732,32.542a3.418,3.418,0,0,1,.081,1.05s-1.231.723-1.415.832v-1.08C42.485,33.294,43.73,32.542,43.732,32.542Z" fill="#3c91af"/>
    <path id="path1283-2" d="M41.42,33.918V35c-.324.191-1.077.63-1.563.917V34.831Z" fill="#3c91af"/>
    <path id="path1281-7" d="M31.48,33.941v1.1l-1.52.891v-1.1Z" fill="#3c91af"/>
    <path id="path1279-8" d="M36.405,33.963v1.092l-1.471.865v-1.1Z" fill="#3c91af"/>
    <path id="path1277-3" d="M26.471,33.982V35.09c-.428.251-1.955,1.15-2.036,1.2a1.649,1.649,0,0,1-.369.172c-.049,0-.062-.122-.051-.521l.015-.523Z" fill="#3c91af"/>
    <path id="path1275-9" d="M33.956,35.394v1.1l-1.5.88v-1.1l1.311-.769Z" fill="#3c91af"/>
    <path id="path1273-4" d="M38.879,35.4v1.089c-.545.321-.857.5-1.5.878V36.278Z" fill="#3c91af"/>
    <path id="path1271-4" d="M28.982,35.408v1.1c-.551.322-1.118.656-1.532.9v-1.1Z" fill="#3c91af"/>
    <path id="path1269-0" d="M31.48,36.846v1.1l-1.52.894v-1.1Z" fill="#3c91af"/>
    <path id="path1267-4" d="M36.405,36.85v1.093l-1.471.864v-1.1Z" fill="#3c91af"/>
    <path id="path1265-5" d="M26.471,36.881v1.106c-.388.227-1.846,1.086-1.923,1.13a1.649,1.649,0,0,1-.369.172c-.05,0-.063-.122-.052-.521l.016-.521Z" fill="#3c91af"/>
    <path id="path1263-6" d="M33.956,38.282v1.1l-1.5.88v-1.1l1.114-.653Z" fill="#3c91af"/>
    <path id="path1261-1" d="M28.982,38.313v1.1c-.563.33-1.1.649-1.532.9V39.21Z" fill="#3c91af"/>
    <path id="path1259-26" d="M31.48,39.733v1.1l-1.52.894v-1.1Z" fill="#3c91af"/>
    <path id="path1257-3" d="M26.471,39.785V40.89c-.443.259-2,1.173-2.078,1.22a1.721,1.721,0,0,1-.367.175c-.049,0-.062-.124-.051-.523l.015-.522Z" fill="#3c91af"/>
    <path id="path1255-1" d="M28.982,41.2V42.3l-1.532.9V42.1Z" fill="#3c91af"/>
    <path id="path936-3" d="M26.471,42.67v1.107c-.518.3-2.01,1.2-2.1,1.249-.167.094.053-.035.017-.034s-.074-.887-.349-.454V44Z" fill="#3c91af"/>
    <path id="path2041-8" d="M24.038,46.092V47.4" fill="none" stroke="#919191" stroke-linejoin="round" stroke-width="0.999"/>
    <path id="path2036-2" d="M24.038,43.4v1.7" fill="none" stroke="#919191" stroke-linejoin="round" stroke-width="0.999"/>
    <path id="path2031-6" d="M24.038,40.646V42.4" fill="none" stroke="#919191" stroke-linejoin="round" stroke-width="0.999"/>
    <path id="path2026-1" d="M24.038,37.731v1.922" fill="none" stroke="#919191" stroke-linejoin="round" stroke-width="0.999"/>
    <path id="path2021-1" d="M24.038,34.805v1.934" fill="none" stroke="#919191" stroke-linejoin="round" stroke-width="0.999"/>
    <path id="path2016-3" d="M24.038,31.893v1.92" fill="none" stroke="#919191" stroke-linejoin="round" stroke-width="0.999"/>
    <path id="path2011-4" d="M24.038,29v1.9" fill="none" stroke="#919191" stroke-linejoin="round" stroke-width="0.999"/>
    <path id="path2006-0" d="M24.038,26.092v1.92" fill="none" stroke="#919191" stroke-linejoin="round" stroke-width="0.999"/>
    <path id="line39-0" d="M24.038,24.323V25.1" fill="none" stroke="#919191" stroke-linejoin="round" stroke-width="0.999"/>
    <path id="path1361-0-3" d="M41.405,13.548v1.163c-.384.244-1.029.65-1.563.988V14.53Z" fill="#919191"/>
    <path id="path1359-1-2" d="M38.935,15.027v1.144l-1.5.925V15.947Z" fill="#919191"/>
    <path id="path1353-6-7" d="M36.411,16.469v1.095l-1.471.864v-1.1C35.718,16.873,35.7,16.885,36.411,16.469Z" fill="#919191"/>
    <path id="path1349-5-6" d="M33.95,17.909v1.1l-1.5.88v-1.1Z" fill="#919191"/>
    <path id="path1343-8-4" d="M31.549,19.413v1.105l-1.52.893v-1.1Z" fill="#919191"/>
    <path id="path1335-6-8" d="M28.994,20.859v1.1l-1.532.9V21.756Z" fill="#919191"/>
    <path id="path1325-1-4" d="M26.463,22.262v1.181c-.328.2-1.673,1.048-1.743,1.09a1.608,1.608,0,0,1-.368.184c-.05,0-.061-.13-.05-.555l.013-.558Z" fill="#919191"/>
    <path id="path1871-4" d="M44.113,34.9v.723l-.138.08" fill="none" stroke="#919191" stroke-linejoin="round" stroke-width="1.001"/>
    <path id="path1876-2" d="M44.113,32.016v1.8" fill="none" stroke="#919191" stroke-linejoin="round" stroke-width="1.001"/>
    <path id="path1881-8" d="M44.113,29.119v1.812" fill="#3c91af" stroke="#919191" stroke-linejoin="round" stroke-width="1.001"/>
    <path id="path1886-5" d="M44.113,26.236v1.8" fill="#3c91af" stroke="#919191" stroke-linejoin="round" stroke-width="1.001"/>
    <path id="path1891-7" d="M44.113,23.391v1.76" fill="none" stroke="#919191" stroke-linejoin="round" stroke-width="1.001"/>
    <path id="path1896-8" d="M44.113,20.56v1.746" fill="#3c91af" stroke="#919191" stroke-linejoin="round" stroke-width="1.001"/>
    <path id="path1901-5" d="M44.113,17.739v1.736" fill="none" stroke="#919191" stroke-linejoin="round" stroke-width="1.001"/>
    <path id="path1906-0" d="M44.113,14.953v1.7" fill="none" stroke="#919191" stroke-linejoin="round" stroke-width="1.001"/>
    <path id="path1599-6" d="M24.24,47.255l-.02.011-.03-.018" fill="none" stroke="#919191" stroke-linejoin="round" stroke-width="1.001"/>
    <path id="path1363-4-8" d="M43.579,12.366a5.457,5.457,0,0,1,1.041.621s-1.849,1.117-2.187,1.326l-.05-1.132A14.244,14.244,0,0,0,43.579,12.366Z" fill="#919191"/>
    <path id="path1285-1-8" d="M43.448,35.4c.462-.331.87.681.828.723,0,0-1.579.848-1.764.957l-.049-1.1C42.55,35.928,43.869,35.125,43.448,35.4Z" fill="#919191"/>
    <path id="path1283-53-4" d="M41.485,36.551v1.082c-.324.191-1.077.63-1.563.916V37.464C40.357,37.21,41.223,36.7,41.485,36.551Z" fill="#919191"/>
    <path id="path1273-10-7" d="M38.944,38.036v1.089l-1.5.877V38.911Z" fill="#919191"/>
    <path id="path1267-0-1" d="M36.47,39.483v1.093L35,41.44v-1.1C35.755,39.9,35.79,39.881,36.47,39.483Z" fill="#919191"/>
    <path id="path1263-7-5" d="M34.021,40.915v1.1l-1.5.879v-1.1l1.114-.653Z" fill="#919191"/>
    <path id="path1259-2-4" d="M31.545,42.366v1.1c-.705.413-.885.52-1.52.893v-1.1Z" fill="#919191"/>
    <path id="path1255-2-0" d="M29.046,43.831v1.107l-1.532.9V44.73Z" fill="#919191"/>
    <path id="path936-65-6" d="M26.561,45.329v1.106c-.518.3-1.985,1.21-2.076,1.262-.167.094-.159.021-.2.021s.137-.064-.026-.438l-.035-.632Z" fill="#919191"/>
    <path id="path1599" d="M24.1,47.31l.02.011.031-.018" fill="none" stroke="#919191" stroke-linejoin="round" stroke-width="1.016"/>
    <path id="path1680" d="M25.537,23.438l-1.362.787-2.124-1.271" fill="none" stroke="#919191" stroke-linejoin="round" stroke-width="1.017"/>
    <path id="path1361-0-7" d="M25.667.967V2.133c.393.244,1.054.651,1.6.99V1.951C26.767,1.643,26,1.17,25.667.967Z" fill="#919191"/>
    <path id="path1359-1-1" d="M28.017,2.342V3.489l1.531.927V3.265Z" fill="#919191"/>
    <path id="path1353-6-9" d="M30.565,3.859v1.1l1.506.866v-1.1C31.274,4.264,31.292,4.276,30.565,3.859Z" fill="#919191"/>
    <path id="path1349-5-4" d="M33.3,5.392V6.5c.749.431.808.466,1.533.882v-1.1Z" fill="#919191"/>
    <path id="path1343-8-44" d="M35.794,6.829V7.936l1.557.895V7.724Z" fill="#919191"/>
    <path id="path1335-6-4" d="M38.425,8.331V9.439l1.568.9V9.231Z" fill="#919191"/>
    <path id="path1363-4-5" d="M24.072.18A6.844,6.844,0,0,0,22.89.666s1.433.769,1.779.978l.069-1.08A5.816,5.816,0,0,1,24.072.18Z" fill="#919191"/>
    <path id="path1343-8-44-5" d="M40.889,9.745v1.107c.7.4.94.542,1.557.9V10.641Z" fill="#919191"/>
    <path id="path1851" d="M43.572,12.816l-.005-.38-.921-.528c-.507-.29-.927-.533-.934-.54a3.713,3.713,0,0,1,.235-.44L42.2,10.5l.4.228,1.091.625c.381.218.715.418.743.444a.624.624,0,0,1,.1.146l.049.1.006.577,0,.576h-1.01Z" fill="#919191"/>
    <g id="g1998">
      <path id="path1361-0-3-7" d="M21.129,1.368l.006,1.15L19.579,3.5l-.007-1.156Z" fill="#919191"/>
      <path id="path1359-1-2-8" d="M18.667,2.845l.007,1.131L17.183,4.9l-.006-1.136Z" fill="#919191"/>
      <path id="path1353-6-7-4" d="M16.152,4.286l.006,1.082-1.466.863-.006-1.086C15.461,4.689,15.444,4.7,16.152,4.286Z" fill="#919191"/>
      <path id="path1349-5-6-6" d="M13.7,5.723l.007,1.089-1.493.878L12.207,6.6Z" fill="#919191"/>
      <path id="path1343-8-4-3" d="M11.308,7.225l.006,1.092L9.8,9.209,9.792,8.117Z" fill="#919191"/>
      <path id="path1335-6-8-0" d="M8.761,8.669l.006,1.092-1.526.9L7.234,9.565Z" fill="#919191"/>
      <path id="path1325-1-4-5" d="M6.238,10.071l.007,1.168c-.327.2-1.667,1.046-1.736,1.088a1.654,1.654,0,0,1-.368.184c-.049,0-.061-.129-.053-.549l.011-.551Z" fill="#919191"/>
      <path id="path1363-4-8-2" d="M23.3.187A5.475,5.475,0,0,1,24.34.8S22.5,1.91,22.161,2.118L22.105,1A14.368,14.368,0,0,0,23.3.187Z" fill="#919191"/>
    </g>
  </g>
</svg>
