<svg xmlns="http://www.w3.org/2000/svg" xmlns:xlink="http://www.w3.org/1999/xlink" viewBox="0 0 48 48">
  <defs>
    <linearGradient id="Siemens_-_Mid_gray" data-name="Siemens - Mid gray" x1="12.444" y1="25.197" x2="29.556" y2="42.309" gradientUnits="userSpaceOnUse">
      <stop offset="0" stop-color="#fff"/>
      <stop offset="1" stop-color="#bebdbd"/>
    </linearGradient>
    <linearGradient id="Siemens_-_Mid_gray-2" x1="13.399" y1="22.356" x2="27.84" y2="36.796" xlink:href="#Siemens_-_Mid_gray"/>
    <linearGradient id="linear-gradient" x1="18.444" y1="17.197" x2="35.556" y2="34.309" gradientUnits="userSpaceOnUse">
      <stop offset="0" stop-color="#afd7e1"/>
      <stop offset="1" stop-color="#73b4c8"/>
    </linearGradient>
    <linearGradient id="linear-gradient-2" x1="19.399" y1="14.356" x2="33.84" y2="28.796" xlink:href="#linear-gradient"/>
    <linearGradient id="linear-gradient-3" x1="12.444" y1="7.197" x2="29.556" y2="24.309" xlink:href="#Siemens_-_Mid_gray"/>
    <linearGradient id="linear-gradient-4" x1="13.399" y1="4.356" x2="27.84" y2="18.796" xlink:href="#Siemens_-_Mid_gray"/>
  </defs>
  <g id="Verb_Zone">
    <path d="M34.7,30.337v6.087c0,2.521-6.132,4.565-13.7,4.565S7.3,38.945,7.3,36.424V30.337" fill="url(#Siemens_-_Mid_gray)"/>
    <ellipse cx="20.62" cy="29.576" rx="13.696" ry="4.565" fill="url(#Siemens_-_Mid_gray-2)"/>
    <path d="M21,34.9c-7.008,0-14.457-1.866-14.457-5.326S13.992,24.25,21,24.25s14.457,1.867,14.457,5.326S28.008,34.9,21,34.9Zm0-9.13c-8.014,0-12.935,2.215-12.935,3.8s4.921,3.8,12.935,3.8,12.935-2.215,12.935-3.8S29.014,25.772,21,25.772Z" fill="#4e4a48"/>
    <g>
      <path d="M8.065,36.424c0,1.589,4.921,3.8,12.935,3.8s12.935-2.215,12.935-3.8v-3.8H8.065Z" fill="none"/>
      <path d="M34.589,29.584h-.654v6.84c0,1.589-4.921,3.8-12.935,3.8s-12.935-2.215-12.935-3.8v-6.84H7.414l-.871-.125v6.965c0,3.459,7.449,5.326,14.457,5.326s14.457-1.867,14.457-5.326V29.46Z" fill="#4e4a48"/>
    </g>
    <path d="M40.7,22.337v6.087c0,2.521-6.132,4.565-13.7,4.565s-13.7-2.044-13.7-4.565V22.337" fill="url(#linear-gradient)"/>
    <ellipse cx="26.62" cy="21.576" rx="13.696" ry="4.565" fill="url(#linear-gradient-2)"/>
    <path d="M27,26.9c-7.008,0-14.457-1.866-14.457-5.326S19.992,16.25,27,16.25s14.457,1.867,14.457,5.326S34.008,26.9,27,26.9Zm0-9.13c-8.014,0-12.935,2.216-12.935,3.8s4.921,3.8,12.935,3.8,12.935-2.215,12.935-3.8S35.014,17.772,27,17.772Z" fill="#177491"/>
    <g>
      <path d="M14.065,28.424c0,1.589,4.921,3.8,12.935,3.8s12.935-2.215,12.935-3.8v-3.8H14.065Z" fill="none"/>
      <path d="M40.589,21.583h-.654v6.841c0,1.589-4.921,3.8-12.935,3.8s-12.935-2.215-12.935-3.8V21.583h-.651l-.871-.124v6.965c0,3.459,7.449,5.326,14.457,5.326s14.457-1.867,14.457-5.326V21.46Z" fill="#177491"/>
    </g>
    <path d="M34.7,12.337v6.087c0,2.521-6.132,4.565-13.7,4.565S7.3,20.945,7.3,18.424V12.337" fill="url(#linear-gradient-3)"/>
    <ellipse cx="20.62" cy="11.576" rx="13.696" ry="4.565" fill="url(#linear-gradient-4)"/>
    <path d="M21,6.25c-7.008,0-14.457,1.867-14.457,5.326S13.992,16.9,21,16.9s14.456-1.866,14.456-5.326S28.008,6.25,21,6.25Zm0,9.13c-8.014,0-12.935-2.215-12.935-3.8s4.921-3.8,12.935-3.8,12.935,2.215,12.935,3.8S29.014,15.38,21,15.38Z" fill="#4e4a48"/>
    <g>
      <path d="M8.065,18.424c0,1.588,4.921,3.8,12.935,3.8s12.935-2.216,12.935-3.8v-3.8H8.065Z" fill="none"/>
      <path d="M34.589,11.583h-.654v6.841c0,1.588-4.921,3.8-12.935,3.8s-12.935-2.216-12.935-3.8V11.583H7.414l-.871-.124v6.965c0,3.459,7.449,5.326,14.457,5.326s14.457-1.867,14.457-5.326V11.46Z" fill="#4e4a48"/>
    </g>
  </g>
</svg>
