<svg id="Layer_1" data-name="Layer 1" xmlns="http://www.w3.org/2000/svg" xmlns:xlink="http://www.w3.org/1999/xlink" viewBox="0 0 48 48">
  <defs>
    <linearGradient id="linear-gradient" x1="4.75" y1="40.75" x2="43.25" y2="2.25" gradientTransform="matrix(1, 0, 0, -1, 0, 48)" gradientUnits="userSpaceOnUse">
      <stop offset="0" stop-color="#fff"/>
      <stop offset="0.221" stop-color="#f8f8f8"/>
      <stop offset="0.541" stop-color="#e5e5e5"/>
      <stop offset="0.92" stop-color="#c6c6c6"/>
      <stop offset="1" stop-color="#bebebe"/>
    </linearGradient>
    <linearGradient id="linear-gradient-2" x1="7.75" y1="37.75" x2="40.25" y2="5.25" gradientTransform="matrix(1, 0, 0, -1, 0, 48)" gradientUnits="userSpaceOnUse">
      <stop offset="0" stop-color="#fff"/>
      <stop offset="0.335" stop-color="#f8f8f8"/>
      <stop offset="0.82" stop-color="#e5e5e5"/>
      <stop offset="1" stop-color="#dcdcdc"/>
    </linearGradient>
    <linearGradient id="linear-gradient-3" x1="24" y1="38.5" x2="24" y2="47.5" gradientTransform="matrix(1, 0, 0, -1, 0, 48)" gradientUnits="userSpaceOnUse">
      <stop offset="0" stop-color="#bebebe"/>
      <stop offset="0.045" stop-color="#c4c4c4"/>
      <stop offset="0.268" stop-color="#dedede"/>
      <stop offset="0.497" stop-color="#f0f0f0"/>
      <stop offset="0.736" stop-color="#fbfbfb"/>
      <stop offset="1" stop-color="#fff"/>
    </linearGradient>
  </defs>
  <g id="g853">
    <path id="rect13" d="M6.5,5.5h35v42H6.5Z" stroke="#464646" stroke-miterlimit="10" fill="url(#linear-gradient)"/>
    <path id="rect24" d="M9.5,8.5h29v36H9.5Z" stroke="#bebebe" stroke-miterlimit="10" fill="url(#linear-gradient-2)"/>
    <path id="path39" d="M30.5,4.5h-2v-1a2.946,2.946,0,0,0-3-3h-3a2.946,2.946,0,0,0-3,3v1h-2a2.006,2.006,0,0,0-2,2v3h17v-3A2.006,2.006,0,0,0,30.5,4.5Z" stroke="#464646" stroke-miterlimit="10" fill="url(#linear-gradient-3)"/>
    <path id="circle41" d="M25,4a1,1,0,1,1-1-1A1,1,0,0,1,25,4Z" fill="#464646"/>
    <path id="rect43" d="M18.5,18.5h11v17h-11Z" fill="#3c91af" stroke="#147391" stroke-miterlimit="10"/>
    <path id="rect860" d="M13,26.5h5v1H13Z" fill="#147391"/>
    <path id="rect860-4" d="M30,26.5h5v1H30Z" fill="#147391"/>
  </g>
</svg>
