<svg id="Layer_1" data-name="Layer 1" xmlns="http://www.w3.org/2000/svg" xmlns:xlink="http://www.w3.org/1999/xlink" viewBox="0 0 48 48">
  <defs>
    <linearGradient id="linear-gradient" x1="73.202" y1="29.169" x2="95.961" y2="10.905" gradientTransform="matrix(1.034, 0, 0, -1.018, -62.798, 44.335)" gradientUnits="userSpaceOnUse">
      <stop offset="0" stop-color="#74b5c8"/>
      <stop offset="0.267" stop-color="#6baec3"/>
      <stop offset="0.532" stop-color="#539eb5"/>
      <stop offset="0.736" stop-color="#2f849f"/>
      <stop offset="1" stop-color="#187491"/>
    </linearGradient>
  </defs>
  <g id="g881">
    <path id="rect874" d="M23,0h2V48H23Z" fill="#969696"/>
    <path id="rect874-9" d="M48,23v2H0V23Z" fill="#969696"/>
    <g id="g910">
      <path id="path898" d="M17.073,35.191,10.2,31.325v-15.7l6.878-3.864C20.855,9.639,24,7.9,24.062,7.9s3.206,1.74,6.989,3.866l6.877,3.865.019,7.834.019,7.834-6.917,3.883c-3.8,2.135-6.958,3.88-7.008,3.878S20.855,37.317,17.073,35.191Z" fill="url(#linear-gradient)"/>
      <path id="path28-3" d="M24,39.957c-.1,0-.2,0-.2-.1l-14-8c-.2-.1-.3-.2-.3-.4v-16c0-.2.1-.3.3-.4l14-8a.454.454,0,0,1,.5,0l14,8a.536.536,0,0,1,.3.4v16c0,.2-.1.3-.3.4l-14,8A.367.367,0,0,1,24,39.957Zm-13.5-8.8,13.5,7.7,13.5-7.7v-15.4L24,8.057l-13.5,7.7Z" fill="#464646"/>
    </g>
  </g>
</svg>
