<svg id="Layer_1" data-name="Layer 1" xmlns="http://www.w3.org/2000/svg" xmlns:xlink="http://www.w3.org/1999/xlink" viewBox="0 0 48 48">
  <defs>
    <linearGradient id="linear-gradient" x1="4" y1="5" x2="44" y2="45" gradientTransform="translate(21.75 18) scale(0.625)" gradientUnits="userSpaceOnUse">
      <stop offset="0" stop-color="#fff"/>
      <stop offset="0.221" stop-color="#f8f8f8"/>
      <stop offset="0.541" stop-color="#e5e5e5"/>
      <stop offset="0.92" stop-color="#c6c6c6"/>
      <stop offset="1" stop-color="#bebebe"/>
    </linearGradient>
    <linearGradient id="linear-gradient-2" x1="-0.5" y1="-1.5" x2="45.5" y2="44.5" gradientTransform="matrix(0, 0.5, 0.522, 0, 0.777, 0.744)" gradientUnits="userSpaceOnUse">
      <stop offset="0" stop-color="#f2f2f2"/>
      <stop offset="0.217" stop-color="#eee"/>
      <stop offset="0.425" stop-color="#e3e3e3"/>
      <stop offset="0.628" stop-color="#cfcfcf"/>
      <stop offset="0.828" stop-color="#b5b5b5"/>
      <stop offset="0.99" stop-color="#999"/>
    </linearGradient>
    <linearGradient id="linear-gradient-3" x1="26.5" y1="34.5" x2="47.5" y2="13.5" gradientTransform="matrix(0.522, 0, 0, -0.5, -0.527, 23.995)" gradientUnits="userSpaceOnUse">
      <stop offset="0.01" stop-color="#999"/>
      <stop offset="0.295" stop-color="#bdbdbd"/>
      <stop offset="0.577" stop-color="#dadada"/>
      <stop offset="0.821" stop-color="#ececec"/>
      <stop offset="1" stop-color="#f2f2f2"/>
    </linearGradient>
    <linearGradient id="linear-gradient-4" x1="13.5" y1="34.5" x2="34.5" y2="13.5" xlink:href="#linear-gradient-3"/>
    <linearGradient id="linear-gradient-5" x1="0.5" y1="34.5" x2="21.5" y2="13.5" xlink:href="#linear-gradient-3"/>
    <linearGradient id="linear-gradient-6" x1="6.542" y1="19.958" x2="15.458" y2="11.042" gradientTransform="matrix(0.522, 0, 0, -0.5, -0.527, 23.995)" gradientUnits="userSpaceOnUse">
      <stop offset="0" stop-color="#73b4c8"/>
      <stop offset="0.175" stop-color="#6aaec3"/>
      <stop offset="0.457" stop-color="#529eb5"/>
      <stop offset="0.809" stop-color="#2c839f"/>
      <stop offset="1" stop-color="#147391"/>
    </linearGradient>
    <linearGradient id="linear-gradient-7" x1="19.542" y1="36.958" x2="28.458" y2="28.042" xlink:href="#linear-gradient-6"/>
    <linearGradient id="linear-gradient-8" x1="32.542" y1="17.958" x2="41.458" y2="9.042" xlink:href="#linear-gradient-6"/>
  </defs>
  <g id="g895">
    <path id="rect25" d="M25.813,19.562H47.688V47.688H25.813Z" stroke="#464646" stroke-miterlimit="10" stroke-width="0.625" fill="url(#linear-gradient)"/>
    <path id="rect28" d="M28.381,36.62h17.5v2.5h-17.5Z" fill="#fff" stroke="#147391" stroke-width="0.625"/>
    <path id="rect30" d="M28.381,32.245h17.5v2.5h-17.5Z" fill="#fff" stroke="#147391" stroke-width="0.625"/>
    <path id="rect32" d="M28.381,41h17.5v2.5h-17.5Z" fill="#fff" stroke="#147391" stroke-width="0.625"/>
    <path id="rect28-0" d="M28.3,28.066H45.8v2.5H28.3Z" fill="#fff" stroke="#147391" stroke-width="0.625"/>
    <path id="rect30-7" d="M28.3,23.691H45.8v2.5H28.3Z" fill="#fff" stroke="#147391" stroke-width="0.625"/>
    <path id="rect41" d="M23.734.244v23.5H.256V.244Z" stroke="#464646" stroke-miterlimit="10" stroke-width="0.511" fill="url(#linear-gradient-2)"/>
    <path id="rect43" d="M20.081,2.744v18.5H17.473V2.744Z" stroke="#6e6e6e" stroke-miterlimit="10" stroke-width="0.511" fill="url(#linear-gradient-3)"/>
    <path id="rect45" d="M13.3,2.744v18.5H10.69V2.744Z" stroke="#6e6e6e" stroke-miterlimit="10" stroke-width="0.511" fill="url(#linear-gradient-4)"/>
    <path id="rect47" d="M6.516,2.744v18.5H3.908V2.744Z" stroke="#6e6e6e" stroke-miterlimit="10" stroke-width="0.511" fill="url(#linear-gradient-5)"/>
    <path id="rect49" d="M7.56,14.244v4a.51.51,0,0,1-.522.5H3.386a.51.51,0,0,1-.522-.5v-4a.51.51,0,0,1,.522-.5H7.038A.51.51,0,0,1,7.56,14.244Z" stroke="#147391" stroke-miterlimit="10" stroke-width="0.511" fill="url(#linear-gradient-6)"/>
    <path id="line51" d="M3.647,16.244h3.13" fill="none" stroke="#fff" stroke-miterlimit="10" stroke-width="0.511"/>
    <path id="rect53" d="M14.342,5.744v4a.509.509,0,0,1-.521.5H10.168a.509.509,0,0,1-.521-.5v-4a.509.509,0,0,1,.521-.5h3.653A.509.509,0,0,1,14.342,5.744Z" stroke="#147391" stroke-miterlimit="10" stroke-width="0.511" fill="url(#linear-gradient-7)"/>
    <path id="line55" d="M10.429,7.744H13.56" fill="none" stroke="#fff" stroke-miterlimit="10" stroke-width="0.511"/>
    <path id="rect57" d="M21.125,15.244v4a.51.51,0,0,1-.522.5H16.951a.51.51,0,0,1-.522-.5v-4a.51.51,0,0,1,.522-.5H20.6A.51.51,0,0,1,21.125,15.244Z" stroke="#147391" stroke-miterlimit="10" stroke-width="0.511" fill="url(#linear-gradient-8)"/>
    <path id="line59" d="M17.212,17.244h3.13" fill="none" stroke="#fff" stroke-miterlimit="10" stroke-width="0.511"/>
    <path id="rect993" d="M11.079,23.7h.842a.079.079,0,0,1,.079.079V38.421a.079.079,0,0,1-.079.079h-.842A.079.079,0,0,1,11,38.421V23.778A.079.079,0,0,1,11.079,23.7Z" fill="#464646"/>
    <path id="rect993-3" d="M25.61,37.542v.88a.078.078,0,0,1-.078.078H11.078A.078.078,0,0,1,11,38.422v-.88a.078.078,0,0,1,.078-.078H25.532A.078.078,0,0,1,25.61,37.542Z" fill="#464646"/>
  </g>
</svg>
