<svg version="1.1" id="Livello_3" xmlns="http://www.w3.org/2000/svg" xmlns:xlink="http://www.w3.org/1999/xlink" x="0px" y="0px"
	  viewBox="0 0 48 48" enable-background="new 0 0 48 48" xml:space="preserve">
<polygon id="polygon2" fill="#474747" points="33.052,23 29.098,16.849 21.656,16.849 28.841,27.35 21.656,37.85 29.098,37.85 
	33.052,31.697 37.006,37.85 44.403,37.85 37.263,27.352 44.448,16.849 37.006,16.849 "/>
<path id="path4" fill="#474747" d="M20.153,5.525c-2.251,0-4.156,0.666-5.661,1.979c-1.503,1.311-2.42,3.09-2.724,5.287
	l-0.436,4.057h-2.78v6.001h1.865l-1.504,9.535c-0.427,2.83-1.267,4.262-2.497,4.262c-0.546,0-1.005-0.105-1.365-0.313l-1.499-0.865
	v6.381l0.766,0.213l0.143,0.033c0.29,0.07,0.589,0.143,0.894,0.217c0.438,0.107,0.876,0.162,1.305,0.162
	c2.352,0,4.33-0.871,5.879-2.59c1.485-1.648,2.451-3.941,2.871-6.816l1.593-10.219h3.549v-6.001h-2.638l0.415-3.52
	c0.107-0.662,0.344-1.163,0.72-1.493c0.369-0.324,0.81-0.481,1.347-0.481c0.357,0,0.736,0.061,1.127,0.18
	c0.216,0.065,0.42,0.143,0.622,0.232l1.407,0.628V6.116L22.841,5.9C22.015,5.652,21.11,5.525,20.153,5.525L20.153,5.525z"/>
<linearGradient id="path17_1_" gradientUnits="userSpaceOnUse" x1="282.333" y1="-315.6411" x2="310.323" y2="-343.6311" gradientTransform="matrix(1 0 0 -1 -273.5996 -300.9902)">
	<stop  offset="0" style="stop-color:#74B5C8"/>
	<stop  offset="0.1747" style="stop-color:#6BAEC3"/>
	<stop  offset="0.4567" style="stop-color:#539EB5"/>
	<stop  offset="0.8089" style="stop-color:#2F849F"/>
	<stop  offset="1" style="stop-color:#187491"/>
</linearGradient>
<path id="path17" fill="url(#path17_1_)" d="M36.052,27.35l6.462,9.5h-4.962l-4.5-7l-4.5,7h-5l6.5-9.5l-6.5-9.501h5l4.5,7.001
	l4.5-7.001h5L36.052,27.35z M22.552,6.849c-0.721-0.218-1.518-0.323-2.4-0.323c-2.013,0-3.68,0.577-5.004,1.732
	c-1.324,1.155-2.12,2.712-2.391,4.67l-0.526,4.921H9.552v4.001h2.036L9.901,32.539c-0.514,3.404-1.674,5.107-3.485,5.107
	c-0.729,0-1.35-0.15-1.864-0.447v3.891c0.337,0.08,0.686,0.166,1.043,0.254c0.357,0.086,0.712,0.131,1.064,0.131
	c2.067,0,3.779-0.752,5.136-2.258c1.357-1.508,2.231-3.604,2.624-6.291l1.728-11.076h3.405v-4.001h-2.763l0.547-4.637
	c0.149-0.932,0.499-1.641,1.054-2.127c0.555-0.486,1.223-0.729,2.006-0.729c0.458,0,0.932,0.075,1.418,0.224
	c0.284,0.087,0.523,0.175,0.738,0.271V6.849L22.552,6.849z"/>
</svg>
