<svg version="1.1" id="Livello_3" xmlns="http://www.w3.org/2000/svg" xmlns:xlink="http://www.w3.org/1999/xlink" x="0px" y="0px"
	  viewBox="0 0 48 48" enable-background="new 0 0 48 48" xml:space="preserve">
<linearGradient id="rect45_1_" gradientUnits="userSpaceOnUse" x1="505.0029" y1="-345.6167" x2="454.4155" y2="-328.5175" gradientTransform="matrix(0.598 0 0 -1 -254.5503 -300.9902)">
	<stop  offset="0" style="stop-color:#6F6F6F"/>
	<stop  offset="1" style="stop-color:#6F6F6F;stop-opacity:0"/>
</linearGradient>
<path id="rect45" fill="url(#rect45_1_)" stroke="#474747" stroke-width="1" stroke-miterlimit="10" d="M22.494,29.245h23.79v16
	h-23.79V29.245z"/>
<path id="path934" fill="#FFFFFF" d="M34.458,33.953h-3.33v8.602h-2.75v-8.602h-3.33v-2.063h9.41V33.953z"/>
<path id="path931" fill="#FFFFFF" d="M39.918,42.762c-0.792,0-1.525-0.116-2.198-0.351c-0.668-0.234-1.244-0.582-1.726-1.046
	c-0.482-0.463-0.857-1.04-1.125-1.732c-0.263-0.692-0.394-1.492-0.394-2.399c0-0.845,0.127-1.611,0.38-2.299s0.62-1.277,1.103-1.769
	c0.463-0.473,1.036-0.838,1.719-1.096c0.688-0.258,1.438-0.387,2.249-0.387c0.448,0,0.852,0.026,1.21,0.078
	c0.363,0.048,0.697,0.112,1.003,0.193c0.319,0.091,0.608,0.193,0.866,0.309c0.263,0.109,0.492,0.212,0.688,0.308v2.585h-0.315
	c-0.134-0.114-0.303-0.25-0.508-0.408c-0.201-0.157-0.43-0.313-0.688-0.465c-0.263-0.153-0.547-0.282-0.853-0.387
	c-0.306-0.105-0.633-0.158-0.981-0.158c-0.387,0-0.754,0.063-1.103,0.187c-0.349,0.119-0.671,0.32-0.967,0.602
	c-0.281,0.272-0.511,0.633-0.688,1.081c-0.172,0.449-0.258,0.993-0.258,1.633c0,0.669,0.093,1.228,0.279,1.676
	c0.191,0.449,0.43,0.803,0.716,1.061c0.292,0.263,0.616,0.451,0.975,0.565c0.357,0.109,0.711,0.165,1.06,0.165
	c0.334,0,0.664-0.051,0.988-0.15c0.329-0.101,0.633-0.236,0.909-0.408c0.234-0.139,0.451-0.287,0.652-0.444
	c0.2-0.157,0.365-0.294,0.494-0.408h0.286v2.55c-0.268,0.119-0.522,0.231-0.767,0.336c-0.243,0.105-0.499,0.196-0.766,0.272
	c-0.349,0.101-0.676,0.177-0.981,0.229C40.873,42.735,40.453,42.762,39.918,42.762L39.918,42.762z"/>
<path id="path1610"  fill="none" stroke="#474747" stroke-width="1" d="M9.67,17.58
	c0.151,3.258,0.304,6.517,1.522,8.107c1.218,1.591,3.501,1.511,5.462-1.154c1.96-2.664,3.599-7.914,5.029-11.504
	c1.432-3.59,2.655-5.523,4.043-6.311s2.941-0.43,4.269,3.443c1.326,3.873,2.431,11.274,3.534,18.673"/>
<path id="path1614"  fill="#474747" stroke="#6F6F6F" stroke-width="0.0189" d="M6.21,2.755
	c-0.276,0-0.499,0.258-0.499,0.58v4.34c0,0.028,0.011,0.053,0.014,0.08H2.178c-0.256,0-0.462,0.207-0.462,0.463v0.074
	c0,0.256,0.206,0.463,0.462,0.463H2.75l0.002,0.004v4.803v0.016H2.76c0.919,2.491,3.759,4.159,6.983,4.159
	c3.228-0.004,6.08-1.662,6.992-4.159V8.759V8.755h0.499c0.256,0,0.462-0.207,0.462-0.463V8.218c0-0.256-0.206-0.463-0.462-0.463
	h-3.547c0.004-0.027,0.014-0.052,0.014-0.08v-4.34c0-0.322-0.223-0.58-0.499-0.58s-0.499,0.258-0.499,0.58v4.34
	c0,0.028,0.01,0.053,0.013,0.08h-6.02C6.699,7.728,6.71,7.703,6.71,7.675v-4.34C6.71,3.013,6.487,2.755,6.21,2.755z"/>
<linearGradient id="path1614-9_1_" gradientUnits="userSpaceOnUse" x1="211.1299" y1="-235.0264" x2="220.1309" y2="-235.0264" gradientTransform="matrix(1.3297 0 0 -1.3635 -276.9668 -307.7217)">
	<stop  offset="0" style="stop-color:#74B5C8"/>
	<stop  offset="0.175" style="stop-color:#6BAEC3"/>
	<stop  offset="0.457" style="stop-color:#539EB5"/>
	<stop  offset="0.809" style="stop-color:#2F849F"/>
	<stop  offset="1" style="stop-color:#187491"/>
</linearGradient>
<path id="path1614-9"  fill="url(#path1614-9_1_)" d="M3.769,8.727
	L3.75,13.503c0.806,2.255,3.254,3.232,5.993,3.233c2.736-0.004,5.188-0.964,5.993-3.216v0.011V8.726L3.769,8.727z"/>
</svg>
