<svg version="1.1" id="Layer_1" xmlns="http://www.w3.org/2000/svg" xmlns:xlink="http://www.w3.org/1999/xlink" x="0px" y="0px"
	 viewBox="0 0 48 48" enable-background="new 0 0 48 48" xml:space="preserve">
	<linearGradient id="SVGID_1_" gradientUnits="userSpaceOnUse" x1="7.4064" y1="9.5385" x2="40.6286" y2="42.7608">
		<stop  offset="0" style="stop-color:#FFFFFF"/>
		<stop  offset="0.2323" style="stop-color:#FAFAFA"/>
		<stop  offset="0.4964" style="stop-color:#EDEDED"/>
		<stop  offset="0.775" style="stop-color:#D6D6D6"/>
		<stop  offset="1" style="stop-color:#BEBEBE"/>
	</linearGradient>
	<path fill="url(#SVGID_1_)" stroke="#464646" stroke-miterlimit="10" d="M10.5,45.5l5-5h17l5,5c5.8-4.2,10-11.7,10-19.4
		C47.5,13.2,37,2.5,24,2.5S0.5,13.4,0.5,26.3C0.5,34,4.7,41.3,10.5,45.5z"/>
	<line fill="none" stroke="#147391" x1="21.5" y1="23.5" x2="14" y2="16"/>
	<linearGradient id="SVGID_2_" gradientUnits="userSpaceOnUse" x1="21.5251" y1="23.5251" x2="26.4749" y2="28.4749">
		<stop  offset="0" style="stop-color:#73B4C8"/>
		<stop  offset="0.1747" style="stop-color:#6AAEC3"/>
		<stop  offset="0.4567" style="stop-color:#529EB5"/>
		<stop  offset="0.8089" style="stop-color:#2C839F"/>
		<stop  offset="1" style="stop-color:#147391"/>
	</linearGradient>
	<path fill="url(#SVGID_2_)" stroke="#147391" stroke-miterlimit="10" d="M24,29.5L24,29.5c-1.9,0-3.5-1.6-3.5-3.5v0
		c0-1.9,1.6-3.5,3.5-3.5h0c1.9,0,3.5,1.6,3.5,3.5v0C27.5,27.9,25.9,29.5,24,29.5z"/>
</svg>
