<svg version="1.1" id="Verb_x5F_Zone" xmlns="http://www.w3.org/2000/svg" xmlns:xlink="http://www.w3.org/1999/xlink" x="0px"
	 y="0px"  viewBox="0 0 48 48" enable-background="new 0 0 48 48" xml:space="preserve">
<linearGradient id="rect64_1_" gradientUnits="userSpaceOnUse" x1="329.2881" y1="-434.8315" x2="358.2885" y2="-463.8319" gradientTransform="matrix(0.8947 0 0 -0.7436 -298.6001 -319.1182)">
	<stop  offset="0" style="stop-color:#F3F3F3"/>
	<stop  offset="0.5" style="stop-color:#CDCCCC"/>
	<stop  offset="0.63" style="stop-color:#C8C7C7"/>
	<stop  offset="0.779" style="stop-color:#BABABA"/>
	<stop  offset="0.938" style="stop-color:#A2A2A1"/>
	<stop  offset="0.99" style="stop-color:#989898"/>
</linearGradient>
<path id="rect64" fill="url(#rect64_1_)" stroke="#474747" stroke-miterlimit="10" d="M0.5,0.5h17v29h-17V0.5z"/>
<linearGradient id="line66_1_" gradientUnits="userSpaceOnUse" x1="-423.8232" y1="-1043.9141" x2="-417.8232" y2="-1049.9141" gradientTransform="matrix(1 0 0 -1 -285.5996 -1757.9902)">
	<stop  offset="0" style="stop-color:#F3F3F3"/>
	<stop  offset="0.5" style="stop-color:#CDCCCC"/>
	<stop  offset="0.63" style="stop-color:#C8C7C7"/>
	<stop  offset="0.779" style="stop-color:#BABABA"/>
	<stop  offset="0.938" style="stop-color:#A2A2A1"/>
	<stop  offset="0.99" style="stop-color:#989898"/>
</linearGradient>
<path id="line66" fill="url(#line66_1_)" stroke="#6F6F6F" stroke-miterlimit="10" d="M3.509,4.016h10.316"/>
<linearGradient id="line68_1_" gradientUnits="userSpaceOnUse" x1="-423.3262" y1="-1047.2246" x2="-417.3254" y2="-1053.2255" gradientTransform="matrix(1 0 0 -1 -285.5996 -1757.9902)">
	<stop  offset="0" style="stop-color:#F3F3F3"/>
	<stop  offset="0.5" style="stop-color:#CDCCCC"/>
	<stop  offset="0.63" style="stop-color:#C8C7C7"/>
	<stop  offset="0.779" style="stop-color:#BABABA"/>
	<stop  offset="0.938" style="stop-color:#A2A2A1"/>
	<stop  offset="0.99" style="stop-color:#989898"/>
</linearGradient>
<path id="line68" fill="url(#line68_1_)" stroke="#6F6F6F" stroke-miterlimit="10" d="M3.509,6.828h10.316"/>
<linearGradient id="line70_1_" gradientUnits="userSpaceOnUse" x1="-422.6362" y1="-1050.7261" x2="-416.6362" y2="-1056.7261" gradientTransform="matrix(1 0 0 -1 -285.5996 -1757.9902)">
	<stop  offset="0" style="stop-color:#F3F3F3"/>
	<stop  offset="0.5" style="stop-color:#CDCCCC"/>
	<stop  offset="0.63" style="stop-color:#C8C7C7"/>
	<stop  offset="0.779" style="stop-color:#BABABA"/>
	<stop  offset="0.938" style="stop-color:#A2A2A1"/>
	<stop  offset="0.99" style="stop-color:#989898"/>
</linearGradient>
<path id="line70" fill="url(#line70_1_)" stroke="#6F6F6F" stroke-miterlimit="10" d="M3.509,9.641h10.316"/>
<path id="circle72" fill="none" stroke="#6F6F6F" stroke-miterlimit="10" d="M11.667,16.493c0,1.657-1.343,3-3,3
	c-1.657,0-3-1.343-3-3c0-1.657,1.343-3,3-3C10.324,13.493,11.667,14.835,11.667,16.493z"/>
<path id="circle74" fill="none" stroke="#6F6F6F" stroke-miterlimit="10" d="M10.667,23.772c0,1.104-0.896,2-2,2s-2-0.896-2-2
	s0.896-2,2-2S10.667,22.668,10.667,23.772z"/>
<linearGradient id="polyline26_1_" gradientUnits="userSpaceOnUse" x1="-314.6665" y1="-985.7632" x2="-334.6671" y2="-965.7626" gradientTransform="matrix(-0.7714 0 0 0.8 -216.457 806.1099)">
	<stop  offset="0" style="stop-color:#F3F3F3"/>
	<stop  offset="0.5" style="stop-color:#CDCCCC"/>
	<stop  offset="0.63" style="stop-color:#C8C7C7"/>
	<stop  offset="0.779" style="stop-color:#BABABA"/>
	<stop  offset="0.938" style="stop-color:#A2A2A1"/>
	<stop  offset="0.99" style="stop-color:#989898"/>
</linearGradient>
<path id="polyline26" fill="url(#polyline26_1_)" d="M20.5,27.5v-4h27v4"/>
<linearGradient id="polyline28_1_" gradientUnits="userSpaceOnUse" x1="-309.666" y1="-975.7637" x2="-339.667" y2="-945.7628" gradientTransform="matrix(-0.7714 0 0 0.8 -216.457 806.1099)">
	<stop  offset="0" style="stop-color:#FFFFFF"/>
	<stop  offset="0.232" style="stop-color:#FAFAFA"/>
	<stop  offset="0.496" style="stop-color:#EDEDED"/>
	<stop  offset="0.775" style="stop-color:#D7D6D6"/>
	<stop  offset="1" style="stop-color:#BFBEBE"/>
</linearGradient>
<path id="polyline28" fill="url(#polyline28_1_)" d="M47.5,27.5v20h-27v-20"/>
<path id="line30" fill="none" stroke="#A09F9F" stroke-width="1" stroke-miterlimit="10" d="M23.971,31.5h13.886"/>
<path id="line32" fill="none" stroke="#A09F9F" stroke-width="1" stroke-miterlimit="10" d="M23.971,35.5h10.8"/>
<path id="line34-5" fill="none" stroke="#A09F9F" stroke-width="1" stroke-miterlimit="10" d="M23.971,43.5h13.886"/>
<path id="rect36" fill="#6F6F6F" d="M44.8,24.7h1.543v1.6H44.8V24.7z"/>
<path id="rect38" fill="#6F6F6F" d="M41.715,24.7h1.543v1.6h-1.543V24.7z"/>
<path id="rect40" fill="#6F6F6F" d="M38.629,24.7h1.543v1.6h-1.543V24.7z"/>
<path id="line42" fill="none" stroke="#6F6F6F" stroke-width="1" stroke-miterlimit="10" d="M20.886,27.5h26.229"/>
<path id="line44" fill="none" stroke="#A09F9F" stroke-width="1" stroke-miterlimit="10" d="M23.971,39.5h9.257"/>
<path id="rect46" fill="none" stroke="#474747" stroke-width="1" stroke-miterlimit="10" d="M20.5,23.5h27v24h-27V23.5z"/>
<linearGradient id="path60_1_" gradientUnits="userSpaceOnUse" x1="285.7568" y1="-385.5684" x2="299.8182" y2="-399.6297" gradientTransform="matrix(0.9644 0 0 -0.8646 -274.5034 -301.4087)">
	<stop  offset="0" style="stop-color:#FFFFFF"/>
	<stop  offset="0.221" style="stop-color:#F7F8F8"/>
	<stop  offset="0.541" style="stop-color:#E5E5E5"/>
	<stop  offset="0.92" style="stop-color:#C7C6C6"/>
	<stop  offset="1" style="stop-color:#BFBEBE"/>
</linearGradient>
<path id="path60"  fill="url(#path60_1_)" stroke="#474747" stroke-width="1" stroke-miterlimit="10" d="
	M12.175,36.721l-2.045,1.834L12,40.232h-0.366c-3.993-0.004-7.229-2.904-7.233-6.484v-2.162H1.508v2.162
	c0.006,5.012,4.537,9.072,10.126,9.078h0.359l-1.866,1.669l2.044,1.837l5.369-4.803L12.175,36.721z"/>
<linearGradient id="path60-4_1_" gradientUnits="userSpaceOnUse" x1="-281.6157" y1="421.71" x2="-267.5544" y2="407.6486" gradientTransform="matrix(-0.9644 0 0 0.8646 -234.2949 -343.4722)">
	<stop  offset="0" style="stop-color:#FFFFFF"/>
	<stop  offset="0.221" style="stop-color:#F7F8F8"/>
	<stop  offset="0.541" style="stop-color:#E5E5E5"/>
	<stop  offset="0.92" style="stop-color:#C7C6C6"/>
	<stop  offset="1" style="stop-color:#BFBEBE"/>
</linearGradient>
<path id="path60-4"  fill="url(#path60-4_1_)" stroke="#474747" stroke-width="1" stroke-miterlimit="10" d="
	M26.226,16.378l2.046-1.834L26.4,12.867h0.366c3.993,0.004,7.229,2.905,7.233,6.485v2.161h2.894v-2.161
	c-0.007-5.012-4.536-9.073-10.127-9.079h-0.358l1.865-1.668L26.23,6.769l-5.369,4.802L26.226,16.378z"/>
</svg>
