<svg id="Image" xmlns="http://www.w3.org/2000/svg" xmlns:xlink="http://www.w3.org/1999/xlink" viewBox="0 0 48 48">
  <defs>
    <linearGradient id="Siemens_-_Light_gray_4" data-name="Siemens - Light gray 4" x1="12.641" y1="21.736" x2="35.358" y2="44.453" gradientUnits="userSpaceOnUse">
      <stop offset="0" stop-color="#fff"/>
      <stop offset="1" stop-color="#dadada"/>
    </linearGradient>
    <linearGradient id="Sfumatura_senza_nome_5" data-name="Sfumatura senza nome 5" x1="10.1" y1="42.315" x2="37.9" y2="14.515" gradientTransform="matrix(1, 0, 0, -1, 0, 48.72)" gradientUnits="userSpaceOnUse">
      <stop offset="0" stop-color="#fff"/>
      <stop offset="0.221" stop-color="#f9f9f9"/>
      <stop offset="0.541" stop-color="#e5e5e4"/>
      <stop offset="0.92" stop-color="#c7c6c6"/>
      <stop offset="1" stop-color="#bebdbe"/>
    </linearGradient>
    <linearGradient id="Sfumatura_senza_nome_2" data-name="Sfumatura senza nome 2" x1="12.266" y1="40.148" x2="35.734" y2="16.681" gradientTransform="matrix(1, 0, 0, -1, 0, 48.72)" gradientUnits="userSpaceOnUse">
      <stop offset="0" stop-color="#fff"/>
      <stop offset="0.335" stop-color="#f9f9f9"/>
      <stop offset="0.82" stop-color="#e5e5e4"/>
      <stop offset="1" stop-color="#dcdcdc"/>
    </linearGradient>
    <linearGradient id="Sfumatura_senza_nome_3" data-name="Sfumatura senza nome 3" x1="24" y1="40.69" x2="24" y2="47.189" gradientTransform="matrix(1, 0, 0, -1, 0, 48.72)" gradientUnits="userSpaceOnUse">
      <stop offset="0" stop-color="#bebdbe"/>
      <stop offset="0.045" stop-color="#c5c5c4"/>
      <stop offset="0.268" stop-color="#dedede"/>
      <stop offset="0.497" stop-color="#f0f0f0"/>
      <stop offset="0.736" stop-color="#fcfcfc"/>
      <stop offset="1" stop-color="#fff"/>
    </linearGradient>
  </defs>
  <g>
    <path d="M24.013,46.5a.673.673,0,0,1-.358-.1L1.767,33.557A.541.541,0,0,1,1.5,33.1a.547.547,0,0,1,.272-.468L23.643,19.607a.688.688,0,0,1,.37-.107.673.673,0,0,1,.36.1L46.236,32.635a.539.539,0,0,1,.264.462.548.548,0,0,1-.276.465L24.378,46.4A.688.688,0,0,1,24.013,46.5Z" fill="url(#Siemens_-_Light_gray_4)"/>
    <g>
      <rect x="11.364" y="5.142" width="25.273" height="30.327" fill="url(#Sfumatura_senza_nome_5)"/>
      <rect x="13.53" y="7.308" width="20.94" height="25.995" fill="url(#Sfumatura_senza_nome_2)"/>
      <g>
        <path d="M28.693,4.42H27.249V3.7a2.166,2.166,0,0,0-2.166-2.166H22.917A2.166,2.166,0,0,0,20.751,3.7V4.42H19.307a1.444,1.444,0,0,0-1.445,1.444V8.03H30.138V5.864A1.444,1.444,0,0,0,28.693,4.42Z" fill="url(#Sfumatura_senza_nome_3)"/>
        <g>
          <path d="M18.362,7.53H29.638V5.864a.912.912,0,0,0-.045-.222H18.407a.912.912,0,0,0-.045.222Z" fill="none"/>
          <path d="M26.749,3.7a1.668,1.668,0,0,0-1.666-1.666H22.917A1.668,1.668,0,0,0,21.251,3.7v.945h5.5Z" fill="none"/>
          <path d="M30.638,8.53H17.362V5.864a1.8,1.8,0,0,1,.023-.222H11.863V34.969H36.137V5.642H30.615a1.8,1.8,0,0,1,.023.222Z" fill="none"/>
          <g>
            <polygon points="17.362 8.53 17.362 7.808 14.03 7.808 14.03 32.803 33.97 32.803 33.97 7.808 30.638 7.808 30.638 8.53 17.362 8.53" fill="none"/>
            <polygon points="30.638 6.808 30.638 7.808 33.97 7.808 33.97 32.803 14.03 32.803 14.03 7.808 17.362 7.808 17.362 6.808 13.03 6.808 13.03 33.803 34.97 33.803 34.97 6.808 30.638 6.808" fill="#bebdbe"/>
          </g>
          <g>
            <path d="M24.012,19a1.187,1.187,0,0,1,.626.177l11.5,6.855V5.642H30.615a1.8,1.8,0,0,1,.023.222V8.53H17.362V5.864a1.8,1.8,0,0,1,.023-.222H11.863v20.4l11.524-6.862A1.184,1.184,0,0,1,24.012,19Z" fill="none"/>
            <path d="M10.863,35.969V27.8L2.02,33.065S2,33.08,2,33.1s.023.032.037.041L23.9,45.964a.206.206,0,0,0,.113.036.191.191,0,0,0,.1-.025L45.979,33.126S46,33.11,46,33.1s-.023-.032-.036-.041l-8.827-5.262v8.177Z" fill="none"/>
            <path d="M36.137,34.969V27.2l-12.011-7.16A.207.207,0,0,0,24.012,20a.179.179,0,0,0-.1.026L11.863,27.2v7.766Z" fill="none"/>
            <path d="M29.638,6.808V5.864a.912.912,0,0,0-.045-.222.934.934,0,0,0-.9-.723H26.749V3.7a1.668,1.668,0,0,0-1.666-1.666H22.917A1.668,1.668,0,0,0,21.251,3.7V4.919H19.307a.934.934,0,0,0-.9.723.912.912,0,0,0-.045.222V7.53H29.638Z" fill="none"/>
            <polygon points="2.019 33.065 2.02 33.065 2.02 33.065 2.019 33.065" fill="#4f4b49"/>
            <polygon points="45.979 33.126 45.979 33.126 45.979 33.126 45.979 33.126" fill="#4f4b49"/>
            <path d="M46.492,32.206l-9.355-5.578V4.642H30.193a1.934,1.934,0,0,0-1.5-.723h-.944V3.7a2.669,2.669,0,0,0-2.666-2.666H22.917A2.669,2.669,0,0,0,20.251,3.7v.222h-.944a1.934,1.934,0,0,0-1.5.723H10.863V26.635L1.508,32.206a1.032,1.032,0,0,0,.006,1.782L23.393,46.827a1.194,1.194,0,0,0,1.238,0L46.486,33.988A1.032,1.032,0,0,0,46.492,32.206Zm-28.13-25.4V5.864a.912.912,0,0,1,.045-.222.934.934,0,0,1,.9-.723h1.944V3.7a1.668,1.668,0,0,1,1.666-1.666h2.166A1.668,1.668,0,0,1,26.749,3.7V4.919h1.944a.934.934,0,0,1,.9.723.912.912,0,0,1,.045.222V7.53H18.362Zm-6.5-1.166h5.522a1.8,1.8,0,0,0-.023.222V8.53H30.638V5.864a1.8,1.8,0,0,0-.023-.222h5.522V34.969H11.863V5.642ZM45.979,33.126,24.108,45.975a.191.191,0,0,1-.1.025.206.206,0,0,1-.113-.036L2.037,33.136C2.023,33.127,2,33.11,2,33.1s.02-.03.02-.03L10.863,27.8v8.171H37.137V27.792l8.827,5.262c.013.009.036.025.036.041S45.979,33.126,45.979,33.126Z" fill="#474647"/>
          </g>
        </g>
      </g>
      <circle cx="24" cy="4.059" r="0.722" fill="#474647"/>
      <rect x="22.917" y="12.362" width="2.166" height="4.332" fill="#3f91af"/>
      <rect x="22.917" y="18.139" width="2.166" height="4.332" fill="#3f91af"/>
      <rect x="15.696" y="17.417" width="2.888" height="5.777" fill="#3f91af"/>
      <rect x="29.416" y="17.417" width="2.888" height="5.777" fill="#3f91af"/>
      <rect x="22.917" y="23.916" width="2.166" height="4.332" fill="#3f91af"/>
      <path d="M28.916,16.917v2.888H27.749V14.029H25.583V11.862H22.417v2.167H20.251v5.776H19.084V16.917H15.2v6.776h3.888V20.805h1.167v5.777h2.166v2.166h3.166V26.582h2.166V20.805h1.167v2.888H32.8V16.917ZM18.084,22.693H16.2V17.917h1.888Zm5.333-9.831h1.166V16.2H23.417Zm-2.166,2.167h1.166V17.2h3.166V15.029h1.166v4.776H25.583V17.639H22.417v2.166H21.251Zm3.332,3.61v3.332H23.417V18.639Zm0,9.109H23.417V24.416h1.166Zm2.166-2.166H25.583V23.416H22.417v2.166H21.251V20.805h1.166v2.166h3.166V20.805h1.166ZM31.8,22.693H29.916V17.917H31.8Z" fill="#197492"/>
    </g>
  </g>
</svg>
