<svg id="Image" xmlns="http://www.w3.org/2000/svg" xmlns:xlink="http://www.w3.org/1999/xlink" viewBox="0 0 48 48">
  <defs>
    <linearGradient id="Siemens_-_Light_gray" data-name="Siemens - Light gray" x1="2.109" y1="37.431" x2="9.689" y2="45.011" gradientUnits="userSpaceOnUse">
      <stop offset="0" stop-color="#fff"/>
      <stop offset="1" stop-color="#dcdcdc"/>
    </linearGradient>
    <linearGradient id="linear-gradient" x1="14.641" y1="2.989" x2="22.221" y2="10.569" xlink:href="#Siemens_-_Light_gray"/>
  </defs>
  <g>
    <polygon points="17.429 19.82 15.778 12.134 9.948 17.408 13.121 18.431 6.748 36.143 7.689 36.48 14.074 18.738 17.429 19.82" fill="#6f6e6e"/>
    <g>
      <circle cx="5.899" cy="41.221" r="5.362" fill="url(#Siemens_-_Light_gray)"/>
      <path d="M5.9,36.358a4.863,4.863,0,1,1-4.863,4.863A4.868,4.868,0,0,1,5.9,36.358m0-1a5.863,5.863,0,1,0,5.862,5.863A5.863,5.863,0,0,0,5.9,35.358Z" fill="#177491"/>
    </g>
    <polygon points="36.846 15.012 32.055 8.779 30.781 11.862 22.394 8.061 21.981 8.972 30.399 12.786 29.053 16.044 36.846 15.012" fill="#6f6e6e"/>
    <polygon points="38.367 21.784 37.807 20.957 17.373 34.815 15.298 31.966 12.109 39.151 19.926 38.32 17.962 35.624 38.367 21.784" fill="#6f6e6e"/>
    <g>
      <circle cx="42.101" cy="18.504" r="5.362" fill="#177491"/>
      <path d="M42.1,13.642A4.862,4.862,0,1,1,37.238,18.5,4.868,4.868,0,0,1,42.1,13.642m0-1A5.862,5.862,0,1,0,47.963,18.5,5.862,5.862,0,0,0,42.1,12.642Z" fill="#177491"/>
    </g>
    <g>
      <path d="M18.431,12.142a5.363,5.363,0,1,1,5.362-5.363A5.369,5.369,0,0,1,18.431,12.142Z" fill="url(#linear-gradient)"/>
      <path d="M18.431,1.917a4.863,4.863,0,1,1-4.863,4.862,4.867,4.867,0,0,1,4.863-4.862m0-1a5.863,5.863,0,1,0,5.862,5.862A5.862,5.862,0,0,0,18.431.917Z" fill="#177491"/>
    </g>
    <path d="M18.431.917a5.863,5.863,0,0,1,0,11.725" fill="#177491"/>
  </g>
</svg>
