<svg id="Image" xmlns="http://www.w3.org/2000/svg" xmlns:xlink="http://www.w3.org/1999/xlink" viewBox="0 0 48 48">
  <defs>
    <linearGradient id="linear-gradient" x1="-0.843" y1="3.813" x2="46.075" y2="44.109" gradientTransform="translate(0 2)" gradientUnits="userSpaceOnUse">
      <stop offset="0" stop-color="#fff"/>
      <stop offset="0.221" stop-color="#fbfbfc"/>
      <stop offset="0.541" stop-color="#ececec"/>
      <stop offset="0.92" stop-color="#d0cecd"/>
      <stop offset="1" stop-color="#c9c6c5"/>
    </linearGradient>
    <linearGradient id="linear-gradient-2" x1="8.562" y1="35.162" x2="38.338" y2="5.542" gradientTransform="matrix(1, 0, 0, -1, 0, 48)" gradientUnits="userSpaceOnUse">
      <stop offset="0" stop-color="#73b4c8"/>
      <stop offset="0.175" stop-color="#6aaec3"/>
      <stop offset="0.457" stop-color="#529eb5"/>
      <stop offset="0.809" stop-color="#2c839f"/>
      <stop offset="1" stop-color="#147391"/>
    </linearGradient>
    <linearGradient id="linear-gradient-3" x1="22.417" y1="6.621" x2="33.77" y2="28.667" gradientTransform="matrix(-0.194, 0.901, 0.713, 0.237, 25.531, -3.366)" gradientUnits="userSpaceOnUse">
      <stop offset="0" stop-color="#f8f8f9"/>
      <stop offset="0.5" stop-color="#d5d4d4"/>
      <stop offset="0.63" stop-color="#d1cfce"/>
      <stop offset="0.779" stop-color="#c4c1c1"/>
      <stop offset="0.938" stop-color="#aba8a7"/>
      <stop offset="0.99" stop-color="#a29f9d"/>
    </linearGradient>
  </defs>
  <g id="g874">
    <g id="g39">
      <path id="path35" d="M.522,44.475H47.478V9.825H19.3L15.75,4.461a2.081,2.081,0,0,0-1.736-.936H2.609a2.093,2.093,0,0,0-2.087,2.1Z" fill="url(#linear-gradient)"/>
      <path id="path37" d="M48,45H0V5.625A2.617,2.617,0,0,1,2.609,3H14.014a2.594,2.594,0,0,1,2.17,1.17l3.4,5.13H48ZM1.043,43.95H46.957V10.35H19.025l-3.709-5.6a1.562,1.562,0,0,0-1.3-.7H2.609A1.57,1.57,0,0,0,1.043,5.625Z" fill="#4e4a48"/>
    </g>
    <path id="circle13" d="M38.4,27.5A15.1,15.1,0,1,1,23.3,12.4,15.1,15.1,0,0,1,38.4,27.5Z" fill="url(#linear-gradient-2)"/>
    <path id="path909" d="M23.3,15.307A12.208,12.208,0,0,0,11.088,27.515h0A12.208,12.208,0,0,0,23.3,39.723h0a12.21,12.21,0,0,0,9.03-4.014l-1.065-.645a10.987,10.987,0,1,1,.366-14.691l1.049-.665A12.209,12.209,0,0,0,23.3,15.307ZM34.057,25.354a10.646,10.646,0,0,1-.378,5.717l1.532-.972a11.442,11.442,0,0,0,.214-3.915l-.029-.018Z" fill="#fff" stroke="#147391" stroke-linejoin="round" stroke-width="0.407"/>
    <path id="path907" d="M35.717,19.513v.081l-5.4,4.06-5.4,4.061,5.425,3.895,5.366,3.852V35.5c.008-.01.013-.019.019-.028l.041.03.2.009a13.529,13.529,0,0,0-.018-16.066Z" stroke="#147391" stroke-linejoin="round" stroke-width="0.384" fill="url(#linear-gradient-3)"/>
    <path id="path1055" d="M31.006,20.68c-.849-.1-1.553-.189-1.564-.2a3.869,3.869,0,0,1,.078-.85,4.99,4.99,0,0,1,1.247.089c.669.077,1.224.132,1.234.122s.054-.617.1-1.347l.079-1.329.426.016a1.957,1.957,0,0,1,.461.051c.019.02-.011.81-.067,1.756s-.1,1.757-.1,1.8c0,.109-.043.106-1.89-.109Z" fill="#fff"/>
    <path id="path1059" d="M31.847,18.748l.138-1.686,1.094.069-.185,3.812-3.534-.462.138-1.117,1.155.116H30.63" fill="none" stroke="#147391" stroke-width="0.386"/>
    <g id="g25">
      <path id="polygon23" d="M29.125,33.338l-1.613,1.614-5.954-6.216-.23-.555.064-9.223h2.284l-.064,8.6Z" fill="#fff" stroke="#147391"/>
    </g>
    <path id="path15" d="M23.3,42.915A15.42,15.42,0,1,1,38.716,27.5,15.438,15.438,0,0,1,23.3,42.915Zm0-30.2A14.778,14.778,0,1,0,38.074,27.5,14.795,14.795,0,0,0,23.3,12.717Z" fill="#464646"/>
  </g>
</svg>
