<svg id="Layer_1" data-name="Layer 1" xmlns="http://www.w3.org/2000/svg" xmlns:xlink="http://www.w3.org/1999/xlink" viewBox="0 0 48 48">
  <defs>
    <linearGradient id="linear-gradient" x1="4.75" y1="40.75" x2="43.25" y2="2.25" gradientTransform="matrix(1, 0, 0, -1, 0, 48)" gradientUnits="userSpaceOnUse">
      <stop offset="0" stop-color="#fff"/>
      <stop offset="0.221" stop-color="#f8f8f8"/>
      <stop offset="0.541" stop-color="#e5e5e5"/>
      <stop offset="0.92" stop-color="#c6c6c6"/>
      <stop offset="1" stop-color="#bebebe"/>
    </linearGradient>
    <linearGradient id="linear-gradient-2" x1="7.75" y1="37.75" x2="40.25" y2="5.25" gradientTransform="matrix(1, 0, 0, -1, 0, 48)" gradientUnits="userSpaceOnUse">
      <stop offset="0" stop-color="#fff"/>
      <stop offset="0.335" stop-color="#f8f8f8"/>
      <stop offset="0.82" stop-color="#e5e5e5"/>
      <stop offset="1" stop-color="#dcdcdc"/>
    </linearGradient>
    <linearGradient id="linear-gradient-3" x1="24" y1="38.5" x2="24" y2="47.5" gradientTransform="matrix(1, 0, 0, -1, 0, 48)" gradientUnits="userSpaceOnUse">
      <stop offset="0" stop-color="#bebebe"/>
      <stop offset="0.045" stop-color="#c4c4c4"/>
      <stop offset="0.268" stop-color="#dedede"/>
      <stop offset="0.497" stop-color="#f0f0f0"/>
      <stop offset="0.736" stop-color="#fbfbfb"/>
      <stop offset="1" stop-color="#fff"/>
    </linearGradient>
    <linearGradient id="linear-gradient-4" x1="23.72" y1="423.72" x2="48.314" y2="448.314" gradientTransform="translate(0 -424)" gradientUnits="userSpaceOnUse">
      <stop offset="0" stop-color="#73b4c8"/>
      <stop offset="0.175" stop-color="#6caec3"/>
      <stop offset="0.457" stop-color="#549eb4"/>
      <stop offset="0.809" stop-color="#2f84a0"/>
      <stop offset="1" stop-color="#197492"/>
    </linearGradient>
  </defs>
  <g id="g901">
    <path id="rect13" d="M6.5,5.5h35v42H6.5Z" stroke="#464646" stroke-miterlimit="10" fill="url(#linear-gradient)"/>
    <path id="rect24" d="M9.5,8.5h29v36H9.5Z" stroke="#bebebe" stroke-miterlimit="10" fill="url(#linear-gradient-2)"/>
    <path id="path39" d="M30.5,4.5h-2v-1a3,3,0,0,0-3-3h-3a3,3,0,0,0-3,3v1h-2a2,2,0,0,0-2,2v3h17v-3A2,2,0,0,0,30.5,4.5Z" stroke="#464646" stroke-miterlimit="10" fill="url(#linear-gradient-3)"/>
    <path id="circle41" d="M25,4a1,1,0,1,1-1-1A1,1,0,0,1,25,4Z" fill="#464646"/>
    <path id="rect43" d="M22.5,15.5h3v6h-3Z" fill="#3c91af" stroke="#147391" stroke-miterlimit="10"/>
    <path id="rect45" d="M22.5,23.5h3v6h-3Z" fill="#3c91af" stroke="#147391" stroke-miterlimit="10"/>
    <path id="rect47" d="M12.5,22.5h4v8h-4Z" fill="#3c91af" stroke="#147391" stroke-miterlimit="10"/>
    <path id="rect49" d="M31.5,22.5h4v8h-4Z" fill="#3c91af" stroke="#147391" stroke-miterlimit="10"/>
    <path id="rect51" d="M22.5,31.5h3v6h-3Z" fill="#3c91af" stroke="#147391" stroke-miterlimit="10"/>
    <path id="line53" d="M16,26.5h6" fill="none" stroke="#147391" stroke-miterlimit="10"/>
    <path id="line55" d="M25,26.5h6" fill="none" stroke="#147391" stroke-miterlimit="10"/>
    <path id="polyline57" d="M26,18.5h2.5v16H26" fill="none" stroke="#147391" stroke-miterlimit="10"/>
    <path id="polyline59" d="M22,18.5H19.5v16H22" fill="none" stroke="#147391" stroke-miterlimit="10"/>
    <g id="Verb_Zone" data-name="Verb Zone">
      <g id="g52">
        <g id="g44">
          <path id="circle40" d="M47.556,12A11.556,11.556,0,1,1,36,.444,11.556,11.556,0,0,1,47.556,12Z" fill="url(#linear-gradient-4)"/>
          <path id="path42" d="M36,24A12,12,0,1,1,48,12h0A12.019,12.019,0,0,1,36,24ZM36,.888A11.112,11.112,0,1,0,47.112,12,11.112,11.112,0,0,0,36,.888Z" fill="#474647"/>
        </g>
        <g id="g50">
          <path id="polygon46" d="M34.9,6.5l.061,2.772,1.849-.04-6.33,6.611,1.889,1.809L38.7,11.036l.041,1.848,2.773-.06-.142-6.471Z" fill="#fff"/>
          <path id="path48" d="M32.388,18.3l-2.557-2.448,5.878-6.139-1.2.027-.08-3.7,7.4-.161.161,7.4-3.7.08-.027-1.194Zm-1.25-2.476,1.221,1.168L39.143,9.91l.056,2.5,1.849-.04-.121-5.547-5.547.121.04,1.849,2.5-.053Z" fill="#197492"/>
        </g>
      </g>
    </g>
  </g>
</svg>
