<svg id="svg5" xmlns="http://www.w3.org/2000/svg" xmlns:xlink="http://www.w3.org/1999/xlink" viewBox="0 0 48 48">
  <defs>
    <linearGradient id="linear-gradient" x1="17.726" y1="35.563" x2="36.428" y2="18.377" gradientTransform="matrix(1, 0, 0, -1, 0, 48)" gradientUnits="userSpaceOnUse">
      <stop offset="0" stop-color="#73b4c8"/>
      <stop offset="0.175" stop-color="#6aaec3"/>
      <stop offset="0.457" stop-color="#529eb5"/>
      <stop offset="0.809" stop-color="#2c839f"/>
      <stop offset="1" stop-color="#147391"/>
    </linearGradient>
    <linearGradient id="linear-gradient-2" x1="31.403" y1="34.41" x2="36.895" y2="34.41" gradientTransform="matrix(1, 0, 0, -1, 0, 48)" gradientUnits="userSpaceOnUse">
      <stop offset="0" stop-color="#fff"/>
      <stop offset="0.221" stop-color="#f8f8f8"/>
      <stop offset="0.541" stop-color="#e5e5e5"/>
      <stop offset="0.92" stop-color="#c6c6c6"/>
      <stop offset="1" stop-color="#bebebe"/>
    </linearGradient>
    <linearGradient id="linear-gradient-3" x1="26.517" y1="39.249" x2="32.113" y2="39.249" xlink:href="#linear-gradient-2"/>
    <linearGradient id="linear-gradient-4" x1="21.726" y1="32.411" x2="22.887" y2="31.279" xlink:href="#linear-gradient-2"/>
    <linearGradient id="linear-gradient-5" x1="26.109" y1="28.093" x2="27.055" y2="27.086" xlink:href="#linear-gradient-2"/>
  </defs>
  <g id="g877">
    <path id="path948" d="M24.471,25.592a9.649,9.649,0,0,1-3.1-1,13.1,13.1,0,0,1-2.451-2.172,8.076,8.076,0,0,1-1.627-3.4,10.1,10.1,0,0,1-.1-1.615,5.581,5.581,0,0,1,.2-1.891,11.5,11.5,0,0,1,.472-1.338c.5-1.132.965-1.7,3.12-3.813,1.106-1.085,2.052-1.972,2.1-1.972s2.735,2.584,5.967,5.742l5.875,5.741-1.8,1.776c-2.364,2.332-2.946,2.784-4.3,3.349A9.467,9.467,0,0,1,24.471,25.592Z" fill="url(#linear-gradient)"/>
    <path id="path1610-8" d="M18.816,24.111c-2.62,2.421-5.242,4.842-5.849,6.957s.8,3.919,4.21,3.565,8.888-2.9,12.74-4.342,6.11-1.816,7.62-1.3,2.275,1.914,1.589,4.024-2.823,4.938-4.96,7.765" fill="none" stroke="#464646" stroke-width="2"/>
    <path id="path928" d="M31.8,15.851l-.777-.758,2.347-2.261c2.185-2.105,2.376-2.261,2.765-2.261a1.188,1.188,0,0,1,.774.29.793.793,0,0,1,.356.8v.515L34.985,14.4c-1.254,1.218-2.308,2.214-2.344,2.214A7.818,7.818,0,0,1,31.8,15.851Z" fill="url(#linear-gradient-2)"/>
    <path id="path930" d="M27.09,10.973l-.814-.8,2.3-2.222c1.981-1.915,2.346-2.222,2.642-2.222a1.2,1.2,0,0,1,1.095.566c.346.654.283.755-1.852,2.934-1.107,1.13-2.135,2.165-2.284,2.3l-.272.246Z" fill="url(#linear-gradient-3)"/>
    <path id="path831" d="M28.293,12.076l-.339-.34L30,9.679C31.34,8.325,32,7.62,32.057,7.511a1.084,1.084,0,0,0-.166-1.185.913.913,0,0,0-.734-.354c-.507-.03-.4-.119-2.678,2.155L26.4,10.2l-.34-.341-.34-.342,2.04-2.043c2.037-2.039,2.226-2.207,2.66-2.37a2.46,2.46,0,0,1,1.1-.073,2.1,2.1,0,0,1,1.584,1.717,2.026,2.026,0,0,1-.324,1.426c-.073.106-1.022,1.093-2.11,2.193l-2.041,2.051Z" fill="#464646"/>
    <path id="path833" d="M33.117,16.9l-.332-.333,2.058-2.045C37.08,12.3,37,12.381,37,11.9a.97.97,0,0,0-.308-.753.952.952,0,0,0-.732-.308c-.5,0-.383-.092-2.625,2.144l-2.09,2.072-.341-.343-.341-.343,2.072-2.052c1.133-1.122,2.082-2.046,2.2-2.121a2.046,2.046,0,0,1,2.939,2.615c-.112.247-.194.336-2.167,2.316-1.128,1.132-2.123,2.109-2.134,2.109A4.4,4.4,0,0,1,33.117,16.9Z" fill="#464646"/>
    <path id="rect835" d="M17.243,21.975a.5.5,0,0,1,.7.028L21,25.074a.485.485,0,0,1-.017.7.5.5,0,0,1-.7-.028l-3.056-3.072A.489.489,0,0,1,17.243,21.975Z" fill="#147391"/>
    <path id="path838" d="M18.271,22.387a3.137,3.137,0,0,1-.422-.513,9.087,9.087,0,0,1-1.082-3.02,11.41,11.41,0,0,1-.019-2.695,9.061,9.061,0,0,1,1.708-4.043c.191-.256.793-.888,2.07-2.171.99-1,1.846-1.843,1.9-1.883l.166-.125.356.355.356.354-.181.112c-.169.089-3.6,3.551-3.883,3.915a8.053,8.053,0,0,0-1.575,3.914,11.167,11.167,0,0,0,.055,2.143,7.523,7.523,0,0,0,1.2,3.05,10.1,10.1,0,0,0,.853,1.036l-.285.264-.285.284Z" fill="#147391"/>
    <path id="path840" d="M24.717,26.276a9.337,9.337,0,0,1-2.825-.74,3.519,3.519,0,0,1-1.291-.817l-1.428-1.381.268-.27c.158-.16.29-.3.319-.284A11.993,11.993,0,0,0,21.3,24.13,10.023,10.023,0,0,0,24.714,25.3a10.6,10.6,0,0,0,2.039-.054,8.274,8.274,0,0,0,3.681-1.614c.374-.292,3.7-3.619,3.773-3.772l.15-.184.374.376.374.375L33.291,22.2c-.958.941-1.878,1.859-2.066,2.017a8.993,8.993,0,0,1-4.4,1.991A16.762,16.762,0,0,1,24.717,26.276Z" fill="#147391"/>
    <path id="path958-9" d="M23.843,16.191a1.5,1.5,0,1,1-1.5-1.5A1.5,1.5,0,0,1,23.843,16.191Z" fill="#464646"/>
    <path id="path958-8-4" d="M22.843,16.191a.5.5,0,1,1-.5-.5A.5.5,0,0,1,22.843,16.191Z" fill="url(#linear-gradient-4)"/>
    <path id="path958-0" d="M28.086,20.415a1.5,1.5,0,1,1-1.5-1.5A1.5,1.5,0,0,1,28.086,20.415Z" fill="#464646"/>
    <path id="rect820" d="M22.333,6.905h0a.624.624,0,0,1,.879,0L36.126,19.8a.612.612,0,0,1,.005.87h0a.626.626,0,0,1-.879,0L22.339,7.775a.611.611,0,0,1-.006-.87Z" fill="#147391"/>
    <path id="path958-8-4-1" d="M27.086,20.415a.5.5,0,1,1-.5-.5A.5.5,0,0,1,27.086,20.415Z" fill="url(#linear-gradient-5)"/>
  </g>
</svg>
