<svg id="Layer_1" data-name="Layer 1" xmlns="http://www.w3.org/2000/svg" xmlns:xlink="http://www.w3.org/1999/xlink" viewBox="0 0 48 48">
  <defs>
    <linearGradient id="linear-gradient" x1="3.5" y1="1326.5" x2="45" y2="1368" gradientTransform="translate(0 -1320)" gradientUnits="userSpaceOnUse">
      <stop offset="0" stop-color="#fff"/>
      <stop offset="0.232" stop-color="#fafafa"/>
      <stop offset="0.496" stop-color="#ededed"/>
      <stop offset="0.775" stop-color="#d6d6d6"/>
      <stop offset="1" stop-color="#bebebe"/>
    </linearGradient>
    <linearGradient id="linear-gradient-2" x1="29.25" y1="1323.75" x2="42.25" y2="1336.75" gradientTransform="translate(0 -1320)" gradientUnits="userSpaceOnUse">
      <stop offset="0" stop-color="#fff"/>
      <stop offset="0.221" stop-color="#f8f8f8"/>
      <stop offset="0.541" stop-color="#e5e5e5"/>
      <stop offset="0.92" stop-color="#c6c6c6"/>
      <stop offset="1" stop-color="#bebebe"/>
    </linearGradient>
    <linearGradient id="linear-gradient-3" x1="3.75" y1="47.75" x2="26.25" y2="25.25" gradientTransform="matrix(1, 0, 0, -1, 0, 48)" gradientUnits="userSpaceOnUse">
      <stop offset="0" stop-color="#73b4c8"/>
      <stop offset="0.175" stop-color="#6aaec3"/>
      <stop offset="0.457" stop-color="#529eb5"/>
      <stop offset="0.809" stop-color="#2c839f"/>
      <stop offset="1" stop-color="#147391"/>
    </linearGradient>
  </defs>
  <g id="g854">
    <path id="polygon13" d="M32.5.5H9.5v47h36v-34Z" stroke="#464646" stroke-miterlimit="10" fill="url(#linear-gradient)"/>
    <path id="polygon26" d="M32.5.5v13h13Z" stroke="#464646" stroke-linejoin="round" fill="url(#linear-gradient-2)"/>
    <path id="line28" d="M15,34.5H40" fill="none" stroke="#5a5a5a"/>
    <path id="line30" d="M15,28.5H40" fill="none" stroke="#5a5a5a"/>
    <path id="line32" d="M15,40.5H40" fill="none" stroke="#5a5a5a"/>
    <path id="rect45" d="M.5,3.5h29v16H.5Z" stroke="#464646" stroke-miterlimit="10" fill="url(#linear-gradient-3)"/>
    <g id="text870-9">
      <path id="path862" d="M10.781,16.96H8.6V9.638L7.031,14.389H5.521L3.949,9.638V16.96H1.886V6.025H4.427l1.909,5.486,1.9-5.486h2.542Z" fill="#fff"/>
    </g>
    <g id="text870-2">
      <path id="path865" d="M28.022,14.467H26.7v2.552H24.311V14.467H19.618V12.393l4.537-6.355H26.7v6.428h1.322Zm-3.711-2V8.51l-2.818,3.956Z" fill="#fff"/>
    </g>
    <g id="text870">
      <path id="path868" d="M19.455,9.434a5.126,5.126,0,0,1-.206,1.446,3.41,3.41,0,0,1-.591,1.181,3.667,3.667,0,0,1-1.176.981,3.475,3.475,0,0,1-1.607.333H14.463v3.578H12.194V5.966h3.734a4.658,4.658,0,0,1,1.412.185,2.968,2.968,0,0,1,1.022.538,2.76,2.76,0,0,1,.81,1.114A4.229,4.229,0,0,1,19.455,9.434ZM17.11,9.5a1.51,1.51,0,0,0-.2-.8,1.172,1.172,0,0,0-.467-.473,1.7,1.7,0,0,0-.691-.191q-.338-.022-.9-.023h-.39v3.291h.65a4.223,4.223,0,0,0,.951-.088,1.245,1.245,0,0,0,.632-.354,1.384,1.384,0,0,0,.313-.561A2.8,2.8,0,0,0,17.11,9.5Z" fill="#fff"/>
    </g>
  </g>
</svg>
