<svg id="Layer_1" data-name="Layer 1" xmlns="http://www.w3.org/2000/svg" xmlns:xlink="http://www.w3.org/1999/xlink" viewBox="0 0 48 48">
  <defs>
    <linearGradient id="linear-gradient" x1="5.232" y1="29.251" x2="33.222" y2="1.261" gradientTransform="matrix(1, 0, 0, -1, 0, 48)" gradientUnits="userSpaceOnUse">
      <stop offset="0" stop-color="#73b4c8"/>
      <stop offset="0.175" stop-color="#6aaec3"/>
      <stop offset="0.457" stop-color="#529eb5"/>
      <stop offset="0.809" stop-color="#2c839f"/>
      <stop offset="1" stop-color="#147391"/>
    </linearGradient>
    <linearGradient id="linear-gradient-2" x1="81.609" y1="8.708" x2="86.641" y2="-5.255" gradientTransform="matrix(0.935, -0.498, -0.48, -0.974, -44.555, 73.011)" xlink:href="#linear-gradient"/>
  </defs>
  <g id="g857">
    <path id="rect969-0" d="M23,30V28H43v2H23Z" fill="#969696"/>
    <path id="rect969" d="M32,17h2V41H32V17Z" fill="#969696"/>
    <path id="path4" d="M17.7,6.172a8.339,8.339,0,0,0-5.661,1.979,8.281,8.281,0,0,0-2.724,5.287L8.879,17.5H6.1v6H7.964L6.46,33.03c-.427,2.83-1.267,4.262-2.5,4.262A2.719,2.719,0,0,1,2.6,36.98l-1.5-.865V42.5l.766.213.143.034.894.217a5.5,5.5,0,0,0,1.3.161,7.61,7.61,0,0,0,5.879-2.589,12.724,12.724,0,0,0,2.871-6.816L14.55,23.5H18.1v-6H15.461l.415-3.52a2.427,2.427,0,0,1,.72-1.493A1.952,1.952,0,0,1,17.943,12a3.885,3.885,0,0,1,1.127.179,5.375,5.375,0,0,1,.622.233l1.407.628V6.762l-.711-.215A9.319,9.319,0,0,0,17.7,6.172Z" fill="#464646"/>
    <path id="path17" d="M20.1,7.5a8.261,8.261,0,0,0-2.4-.323,7.335,7.335,0,0,0-5,1.732,7.277,7.277,0,0,0-2.391,4.67L9.778,18.5H7.1v4H9.135L7.448,33.186q-.771,5.106-3.485,5.106A3.666,3.666,0,0,1,2.1,37.846v3.89c.337.081.686.165,1.043.253a4.485,4.485,0,0,0,1.064.132,6.617,6.617,0,0,0,5.136-2.259,11.7,11.7,0,0,0,2.624-6.291L13.694,22.5h3.4v-4H14.336l.547-4.637a3.434,3.434,0,0,1,1.054-2.127A2.94,2.94,0,0,1,17.943,11a4.865,4.865,0,0,1,1.418.223,6.376,6.376,0,0,1,.738.271Z" fill="url(#linear-gradient)"/>
    <g id="text836">
      <path id="path841" d="M27.792,44.5H24.313a24.821,24.821,0,0,1-4.179-6.922,22.738,22.738,0,0,1-1.489-8.453,22.738,22.738,0,0,1,1.489-8.453,24.821,24.821,0,0,1,4.179-6.922h3.479v.156a19.776,19.776,0,0,0-2.355,2.641,21.1,21.1,0,0,0-2.066,3.469,22.649,22.649,0,0,0-1.49,4.234,21.777,21.777,0,0,0-.015,9.766,23.242,23.242,0,0,0,1.5,4.218A19.7,19.7,0,0,0,25.452,41.7a19.364,19.364,0,0,0,2.34,2.641Z" fill="#464646"/>
    </g>
    <path id="path863" d="M24,43.105a22.159,22.159,0,0,1-4.3-9.466,24.435,24.435,0,0,1,.975-12.519,25.834,25.834,0,0,1,3.3-6.023l.529-.69,1.309,0c.886,0,.381.024.381.056a7.137,7.137,0,0,1-.84,1.066c-2.457,2.647-3.776,6.314-4.441,10.132a26.48,26.48,0,0,0-.184,5.69A19.817,19.817,0,0,0,22.5,37.942a18.015,18.015,0,0,0,3.091,4.995l.91.927H24.573Z" fill="#5ba4ba"/>
    <g id="text836-1">
      <path id="path838" d="M37.925,44.5h3.48a24.817,24.817,0,0,0,4.178-6.922,22.738,22.738,0,0,0,1.489-8.453,22.738,22.738,0,0,0-1.489-8.453,24.817,24.817,0,0,0-4.178-6.922h-3.48v.156a19.638,19.638,0,0,1,2.355,2.641,21.1,21.1,0,0,1,2.067,3.469,22.72,22.72,0,0,1,1.489,4.234,21.777,21.777,0,0,1,.015,9.766,23.316,23.316,0,0,1-1.5,4.218A19.764,19.764,0,0,1,40.265,41.7a19.364,19.364,0,0,1-2.34,2.641Z" fill="#464646"/>
    </g>
    <path id="path863-1" d="M41.717,43.105a22.147,22.147,0,0,0,4.3-9.466,24.435,24.435,0,0,0-.975-12.519,25.834,25.834,0,0,0-3.3-6.023l-.529-.69-1.309,0c-.886,0-.381.024-.381.056a7.1,7.1,0,0,0,.841,1.066c2.457,2.647,3.775,6.314,4.44,10.132A26.544,26.544,0,0,1,45,31.349a19.817,19.817,0,0,1-1.773,6.593,18.042,18.042,0,0,1-3.092,4.995l-.91.927h1.923Z" fill="#5ba4ba"/>
    <path id="path967-7-8" d="M40.442,33.7l-7.456,4.456-7.449-4.5.007-8.959L33,20.233l7.449,4.5Z" stroke="#464646" stroke-linecap="round" stroke-width="1.087" fill="url(#linear-gradient-2)"/>
  </g>
</svg>
