<svg id="Image" xmlns="http://www.w3.org/2000/svg" xmlns:xlink="http://www.w3.org/1999/xlink" viewBox="0 0 48 48">
  <defs>
    <linearGradient id="Siemens_-_Dark_blue" data-name="Siemens - Dark blue" x1="46.845" y1="102.722" x2="65.7" y2="102.722" gradientTransform="matrix(0.707, 0.707, -0.756, 0.756, 59.508, -92.111)" gradientUnits="userSpaceOnUse">
      <stop offset="0" stop-color="#73b4c8"/>
      <stop offset="1" stop-color="#177491"/>
    </linearGradient>
    <linearGradient id="Siemens_-_Light_gray" data-name="Siemens - Light gray" x1="32.201" y1="13.697" x2="19.072" y2="26.826" gradientTransform="matrix(-1, 0, 0, 1, 48, 0)" gradientUnits="userSpaceOnUse">
      <stop offset="0" stop-color="#fff"/>
      <stop offset="1" stop-color="#dcdcdc"/>
    </linearGradient>
    <linearGradient id="Siemens_-_Dark_gray" data-name="Siemens - Dark gray" x1="19.502" y1="27.081" x2="3.788" y2="42.795" gradientTransform="matrix(-1, 0, 0, 1, 48, 0)" gradientUnits="userSpaceOnUse">
      <stop offset="0" stop-color="#f2f2f2"/>
      <stop offset="1" stop-color="#999"/>
    </linearGradient>
    <linearGradient id="Siemens_-_Dark_gray-2" x1="35.802" y1="8.234" x2="31.117" y2="12.92" xlink:href="#Siemens_-_Dark_gray"/>
  </defs>
  <g>
    <g>
      <path d="M7.3,44.413c-.155,0-.312-.009-.472-.024A4.756,4.756,0,0,1,2.562,40.2a2.264,2.264,0,0,1,.283-1.752L24.605,17.3a.675.675,0,0,0,.359-.658.535.535,0,0,0-.008-.106c-.123-.677-1.112-6.7,2.043-9.851A10.252,10.252,0,0,1,34.005,3.6c.166-.006.327-.011.488-.011a3.543,3.543,0,0,1,.765.068h0a5.214,5.214,0,0,1,.721.707L31.684,8.635a.512.512,0,0,0-.1.146c-1.969,4.314-1.907,4.375-1.61,4.67l3.554,3.555a.5.5,0,0,0,.53.115l3.975-1.493a.494.494,0,0,0,.179-.116c.035-.035,3.44-3.464,4.512-4.474a3.248,3.248,0,0,1,.685.748A10.592,10.592,0,0,1,40.281,20.1,9.268,9.268,0,0,1,34,22.35c-.2.006-.4.01-.611.01a21.547,21.547,0,0,1-3.082-.223.764.764,0,0,0-.66.262l-21,21.619A1.969,1.969,0,0,1,7.3,44.413Zm.364-6.345a1.346,1.346,0,0,0-.944,2.241,1.172,1.172,0,0,0,.876.37,1.463,1.463,0,0,0,.958-.408,1.348,1.348,0,0,0,.407-.952,1.243,1.243,0,0,0-.371-.882,1.163,1.163,0,0,0-.87-.37Z" fill="url(#Siemens_-_Dark_blue)"/>
      <path d="M34.492,4.087a3.451,3.451,0,0,1,.553.037c.051.043.123.111.226.217L31.33,8.282a.985.985,0,0,0-.2.292c-2.113,4.628-2.068,4.673-1.511,5.23l3.556,3.556a1,1,0,0,0,1.058.229L38.207,16.1a1,1,0,0,0,.358-.232c.032-.032,2.847-2.866,4.156-4.134.093.1.155.168.194.217a10.1,10.1,0,0,1-2.979,7.792,8.781,8.781,0,0,1-5.952,2.111c-.193.006-.393.01-.6.01a21.012,21.012,0,0,1-3-.218,1.053,1.053,0,0,0-.148-.011H30.2a1.212,1.212,0,0,0-.917.425L8.3,43.659a1.5,1.5,0,0,1-.993.254c-.138,0-.279-.008-.422-.022a4.259,4.259,0,0,1-3.825-3.754,1.992,1.992,0,0,1,.13-1.329L24.913,17.7a1.176,1.176,0,0,0,.551-1.04,1,1,0,0,0-.016-.212c-.118-.65-1.07-6.433,1.905-9.407A9.755,9.755,0,0,1,34.022,4.1c.157-.006.314-.011.47-.011M7.6,41.178h.068a1.929,1.929,0,0,0,1.245-.553,1.85,1.85,0,0,0,.553-1.245,1.735,1.735,0,0,0-.515-1.295,1.685,1.685,0,0,0-1.228-.517l-.068,0a1.774,1.774,0,0,0-1.245.552,1.852,1.852,0,0,0-.553,1.245,1.735,1.735,0,0,0,.515,1.3,1.663,1.663,0,0,0,1.228.516M43.137,11.334h0M34.492,3.087c-.168,0-.336.006-.5.011a10.793,10.793,0,0,0-7.343,3.231c-3.089,3.089-2.472,8.7-2.181,10.294,0,.115-.008.23-.123.234L2.491,38.091a2.69,2.69,0,0,0-.426,2.165,5.242,5.242,0,0,0,4.718,4.63,5.158,5.158,0,0,0,.522.027,2.367,2.367,0,0,0,1.7-.547L30,22.754c.119-.119.119-.119.234-.123a21.865,21.865,0,0,0,3.151.229c.216,0,.427,0,.631-.011a9.738,9.738,0,0,0,6.626-2.4A11.112,11.112,0,0,0,43.9,11.7c-.011-.262-.59-.814-.939-1.121a.34.34,0,0,0-.228-.086.4.4,0,0,0-.273.111c-.995.927-4.6,4.557-4.6,4.557L33.88,16.653,30.324,13.1c-.111-.111,1.713-4.108,1.713-4.108l4.278-4.277a.528.528,0,0,0,.134-.579c-.111-.111-.848-.966-1.082-.966h0a4.068,4.068,0,0,0-.872-.08ZM7.6,40.178a.679.679,0,0,1-.521-.223.846.846,0,0,1,.609-1.387h.035a.678.678,0,0,1,.52.224A.778.778,0,0,1,8.2,39.917a.936.936,0,0,1-.572.261Z" fill="#464646"/>
    </g>
    <polygon points="16.664 12.832 15.179 14.369 28.063 27.69 29.548 26.152 16.664 12.832" stroke="#474647" stroke-miterlimit="10" fill="url(#Siemens_-_Light_gray)"/>
    <path d="M27.919,30.315,32.088,26,45.344,38.345a2.392,2.392,0,0,1-.029,3.269l-2.3,2.376a2.2,2.2,0,0,1-3.19,0Zm-.688-1.657a1.409,1.409,0,0,1,.378-.6l.532-.552,2.006-2.074a.917.917,0,0,1,1.291-.034l.65.606-4.169,4.311-.587-.673A1.1,1.1,0,0,1,27.231,28.658Z" stroke="#474647" stroke-miterlimit="10" fill="url(#Siemens_-_Dark_gray)"/>
    <path d="M18.4,8.754,17.292,7.61,16.178,6.458a17.648,17.648,0,0,1,3.269-1.7A34.942,34.942,0,0,1,24.253,3.7C23.073,4.353,19.375,6.42,18.4,8.754ZM11.728,16.7,11.5,16.46,8.742,13.608l-.227-.235a.907.907,0,0,1,0-1.253l5.974-6.177a.838.838,0,0,1,1.212,0l3.215,3.324a.907.907,0,0,1,0,1.252l-1.7,1.753,0,0L16.8,12.7l-3.863,4A.859.859,0,0,1,11.728,16.7Zm-.772-.8L8.649,18.282l-.834-.862-.834-.862,2.307-2.385Zm-6.794.743.635-.657a1.061,1.061,0,0,1,1.532,0l1.447,1.5,1.379,1.426h0l.068.07a1.148,1.148,0,0,1,0,1.584l-.635.656Z" stroke="#474647" stroke-linejoin="round" fill="url(#Siemens_-_Dark_gray-2)"/>
  </g>
</svg>
