<svg id="svg68" xmlns="http://www.w3.org/2000/svg" xmlns:xlink="http://www.w3.org/1999/xlink" viewBox="0 0 48 48">
  <defs>
    <linearGradient id="linear-gradient" x1="2.05" y1="40.868" x2="39.644" y2="-0.98" gradientTransform="matrix(1, 0, 0, -1, 0, 48)" gradientUnits="userSpaceOnUse">
      <stop offset="0" stop-color="#fff"/>
      <stop offset="1" stop-color="#dcdcdc"/>
    </linearGradient>
    <linearGradient id="linear-gradient-2" x1="33.93" y1="14.02" x2="48.037" y2="-0.166" gradientTransform="matrix(1, 0, 0, -1, 0, 48)" gradientUnits="userSpaceOnUse">
      <stop offset="0" stop-color="#74b3c7"/>
      <stop offset="0.177" stop-color="#6badc2"/>
      <stop offset="0.464" stop-color="#539db4"/>
      <stop offset="0.822" stop-color="#2d839d"/>
      <stop offset="1" stop-color="#177490"/>
    </linearGradient>
    <linearGradient id="linear-gradient-3" x1="12.918" y1="31.059" x2="37.958" y2="5.772" gradientTransform="matrix(1, 0, 0, -1, 4, 48)" xlink:href="#linear-gradient"/>
  </defs>
  <g id="g894">
    <g id="g13">
      <path id="rect9" d="M.5,5.5h37v41H.5Z" stroke="#464646" fill="url(#linear-gradient)"/>
    </g>
    <path id="line15" d="M4,15.487H20" fill="none" stroke="#147391" stroke-miterlimit="10" stroke-width="1"/>
    <path id="line17" d="M4,18.5H15" fill="none" stroke="#147391" stroke-miterlimit="10"/>
    <path id="line27" d="M4,26.526H14" fill="none" stroke="#147391" stroke-miterlimit="10" stroke-width="1"/>
    <path id="line29" d="M4,29.529H14" fill="none" stroke="#147391" stroke-miterlimit="10"/>
    <path id="line39" d="M4,36.54H16" fill="none" stroke="#147391" stroke-miterlimit="10" stroke-width="1"/>
    <path id="line41" d="M4,39.529H14" fill="none" stroke="#147391" stroke-miterlimit="10"/>
    <path id="path939" d="M4.983,8a1,1,0,1,1-1-1A1,1,0,0,1,4.983,8Z" fill="#147391"/>
    <path id="rect941" d="M3.953,0h.06a.468.468,0,0,1,.47.47V7.53a.468.468,0,0,1-.47.47h-.06a.469.469,0,0,1-.47-.47V.47A.469.469,0,0,1,3.953,0Z" fill="#464646"/>
    <path id="path939-3" d="M29,8a1,1,0,1,1-1-1A1,1,0,0,1,29,8Z" fill="#147391"/>
    <path id="rect941-6" d="M27.973,0h.061A.468.468,0,0,1,28.5.47V7.53a.468.468,0,0,1-.469.47h-.061a.469.469,0,0,1-.47-.47V.47A.469.469,0,0,1,27.973,0Z" fill="#464646"/>
    <path id="path939-2" d="M23.2,8.047a1,1,0,1,1-1-1A1,1,0,0,1,23.2,8.047Z" fill="#147391"/>
    <path id="rect941-60" d="M22.174.047h.061a.469.469,0,0,1,.469.47V7.578a.468.468,0,0,1-.469.469h-.061a.469.469,0,0,1-.47-.469V.517A.469.469,0,0,1,22.174.047Z" fill="#464646"/>
    <path id="path939-1" d="M16.993,8a1,1,0,1,1-1-1A1,1,0,0,1,16.993,8Z" fill="#147391"/>
    <path id="rect941-82" d="M15.963,0h.061a.468.468,0,0,1,.469.47V7.53a.468.468,0,0,1-.469.47h-.061a.469.469,0,0,1-.47-.47V.47A.469.469,0,0,1,15.963,0Z" fill="#464646"/>
    <path id="path939-84" d="M10.988,8a1,1,0,1,1-1-1A1,1,0,0,1,10.988,8Z" fill="#147391"/>
    <path id="rect941-9" d="M9.958,0h.061a.468.468,0,0,1,.469.47V7.53a.468.468,0,0,1-.469.47H9.958a.469.469,0,0,1-.47-.47V.47A.469.469,0,0,1,9.958,0Z" fill="#464646"/>
    <path id="path939-4" d="M35.008,8a1,1,0,1,1-1-1A1,1,0,0,1,35.008,8Z" fill="#147391"/>
    <path id="rect941-89" d="M33.978,0h.061a.468.468,0,0,1,.469.47V7.53a.468.468,0,0,1-.469.47h-.061a.469.469,0,0,1-.47-.47V.47A.469.469,0,0,1,33.978,0Z" fill="#464646"/>
    <path id="path1079" d="M34.329,37.415l9.52,9.52a2.028,2.028,0,0,0,2.88,0l.16-.16a1.933,1.933,0,0,0,0-2.8l-9.6-9.6Z" fill="#4593ab" fill-rule="evenodd"/>
    <path id="path1081" d="M34.329,37.415l9.52,9.52a2.028,2.028,0,0,0,2.88,0l.16-.16a1.933,1.933,0,0,0,0-2.8l-9.6-9.6" stroke="#464646" stroke-miterlimit="10" stroke-width="1.04" fill="url(#linear-gradient-2)"/>
    <path id="path1083" d="M27.449,15.576a12,12,0,1,1-12,12A11.984,11.984,0,0,1,27.449,15.576Z" stroke="#464646" stroke-linecap="round" stroke-linejoin="round" stroke-width="1.04" fill="url(#linear-gradient-3)"/>
    <path id="path45" d="M25.544,29.576l-2.952-3.5-2.978,2.468,5.9,7.25L35.821,23.075l-2.945-2.409" fill="#147391"/>
    <path id="polygon47" d="M25.613,31.732,33,22.688l1.072.814L25.6,33.886l-4.412-5.409,1.082-.8Z" fill="#3b90b2"/>
  </g>
</svg>
