<svg id="Image" xmlns="http://www.w3.org/2000/svg" xmlns:xlink="http://www.w3.org/1999/xlink" viewBox="0 0 48 48">
  <defs>
    <linearGradient id="Siemens_-_Light_gray" data-name="Siemens - Light gray" x1="25.779" y1="24.485" x2="44.242" y2="6.022" gradientTransform="matrix(1, 0, 0, -1, 0, 50)" gradientUnits="userSpaceOnUse">
      <stop offset="0" stop-color="#fff"/>
      <stop offset="1" stop-color="#dcdcdc"/>
    </linearGradient>
    <linearGradient id="Sfumatura_senza_nome_9" data-name="Sfumatura senza nome 9" x1="6.74" y1="14.812" x2="29.846" y2="37.918" gradientUnits="userSpaceOnUse">
      <stop offset="0" stop-color="#73b4c8"/>
      <stop offset="1" stop-color="#177491"/>
    </linearGradient>
    <linearGradient id="Sfumatura_senza_nome_9-2" x1="10.542" y1="11.01" x2="33.648" y2="34.116" xlink:href="#Sfumatura_senza_nome_9"/>
    <linearGradient id="Siemens_-_Mid_gray" data-name="Siemens - Mid gray" x1="14.758" y1="15.226" x2="21.975" y2="22.443" gradientUnits="userSpaceOnUse">
      <stop offset="0" stop-color="#fff"/>
      <stop offset="1" stop-color="#bebdbd"/>
    </linearGradient>
    <linearGradient id="Sfumatura_senza_nome_9-3" x1="5.622" y1="15.931" x2="28.727" y2="39.036" xlink:href="#Sfumatura_senza_nome_9"/>
    <linearGradient id="Siemens_-_Mid_gray-2" x1="17.029" y1="27.338" x2="19.558" y2="29.867" xlink:href="#Siemens_-_Mid_gray"/>
  </defs>
  <g>
    <g>
      <path d="M44.457,26.577H25.564a2.042,2.042,0,0,0-2.042,2.042V40.874a2.043,2.043,0,0,0,2.042,2.043H44.457A2.043,2.043,0,0,0,46.5,40.874V28.619A2.042,2.042,0,0,0,44.457,26.577Z" fill="url(#Siemens_-_Light_gray)"/>
      <path d="M42.67,41.278H31.181v-1H42.67A1.033,1.033,0,0,0,43.7,39.246V33.374h1v5.872A2.035,2.035,0,0,1,42.67,41.278Z" fill="#464646"/>
      <g>
        <path d="M39.862,26.577H38.841V24.194A1.192,1.192,0,0,0,37.649,23H32.373a1.192,1.192,0,0,0-1.192,1.192v2.383H30.16V24.194a2.213,2.213,0,0,1,2.213-2.213h5.276a2.214,2.214,0,0,1,2.213,2.213Z" fill="#6f6f6e"/>
        <path d="M44.457,26.076h-4.1V24.194a2.716,2.716,0,0,0-2.713-2.713H32.373a2.717,2.717,0,0,0-2.713,2.713v1.882h-4.1a2.546,2.546,0,0,0-2.543,2.543V40.874a2.546,2.546,0,0,0,2.543,2.543h.255v.755h1.533v-.755H42.67v.755H44.2v-.755h.255A2.546,2.546,0,0,0,47,40.874V28.619A2.546,2.546,0,0,0,44.457,26.076ZM32.373,22.481h5.275a1.715,1.715,0,0,1,1.713,1.713v1.882h-.02V24.194A1.694,1.694,0,0,0,37.648,22.5H32.373a1.693,1.693,0,0,0-1.692,1.692v1.882l-.021-1.882A1.716,1.716,0,0,1,32.373,22.481Zm1.616,2.84v.755H31.681V24.194a.692.692,0,0,1,.692-.692h5.275a.693.693,0,0,1,.693.692v1.882H36.032v-.755ZM46,40.874a1.545,1.545,0,0,1-1.543,1.543H44.2v-.245H42.67v.245H27.352v-.245H25.819v.245h-.255a1.545,1.545,0,0,1-1.543-1.543V28.619a1.546,1.546,0,0,1,1.543-1.543h8.425v.245h2.043v-.245h8.425A1.545,1.545,0,0,1,46,28.619Z" fill="#474647"/>
      </g>
      <path d="M26.319,35.255h-1V30.4a2.035,2.035,0,0,1,2.033-2.032H38.841v1H27.352A1.033,1.033,0,0,0,26.319,30.4Z" fill="#464646"/>
    </g>
    <g>
      <path d="M25.564,26.076h4.1V24.194a2.7,2.7,0,0,1,.212-1.049L19.593,5.34a1.5,1.5,0,0,0-2.6,0L2.151,31.048a1.5,1.5,0,0,0,1.3,2.25h19.57V28.619A2.546,2.546,0,0,1,25.564,26.076Zm-7.271,4.816A2.289,2.289,0,1,1,20.582,28.6,2.289,2.289,0,0,1,18.293,30.892Zm2.289-6.057H16V13.73a1.1,1.1,0,0,1,1.1-1.1H19.48a1.1,1.1,0,0,1,1.1,1.1Z" fill="url(#Sfumatura_senza_nome_9)"/>
      <path d="M20.458,4.84a2.5,2.5,0,0,0-4.329,0L1.286,30.548A2.5,2.5,0,0,0,3.451,34.3h19.57v-1H3.451a1.5,1.5,0,0,1-1.3-2.25L16.994,5.34a1.5,1.5,0,0,1,2.6,0L29.872,23.145a2.814,2.814,0,0,1,.63-.907Z" fill="#177491"/>
      <path d="M19.48,13.627H17.107a.1.1,0,0,0-.1.1V23.835h2.578V13.73A.1.1,0,0,0,19.48,13.627Z" fill="url(#Sfumatura_senza_nome_9-2)"/>
      <path d="M19.48,13.627H17.107a.1.1,0,0,0-.1.1V23.835h2.578V13.73A.1.1,0,0,0,19.48,13.627Z" fill="url(#Siemens_-_Mid_gray)"/>
      <path d="M19.48,12.627H17.107a1.1,1.1,0,0,0-1.1,1.1V24.835h4.578V13.73A1.1,1.1,0,0,0,19.48,12.627ZM17,13.73a.1.1,0,0,1,.1-.1H19.48a.1.1,0,0,1,.1.1V23.835H17Z" fill="#6f6e6e"/>
      <path d="M18.293,27.314A1.289,1.289,0,1,0,19.582,28.6,1.291,1.291,0,0,0,18.293,27.314Z" fill="url(#Sfumatura_senza_nome_9-3)"/>
      <path d="M18.293,27.314A1.289,1.289,0,1,0,19.582,28.6,1.291,1.291,0,0,0,18.293,27.314Z" fill="url(#Siemens_-_Mid_gray-2)"/>
      <path d="M18.293,26.314A2.289,2.289,0,1,0,20.582,28.6,2.289,2.289,0,0,0,18.293,26.314Zm0,3.578A1.289,1.289,0,1,1,19.582,28.6,1.291,1.291,0,0,1,18.293,29.892Z" fill="#6f6e6e"/>
    </g>
  </g>
</svg>
