<svg id="svg854" xmlns="http://www.w3.org/2000/svg" viewBox="0 0 48 48">
  <g id="layer1">
    <g id="g829">
      <path id="path1403" d="M23,7a6,6,0,1,1-6-6A6,6,0,0,1,23,7Z" fill="#147391"/>
      <path id="path1403-8" d="M21,7a4,4,0,1,1-4-4A4,4,0,0,1,21,7Z" fill="#fff"/>
      <path id="rect1450" d="M15.036,11.449h3.928a.035.035,0,0,1,.036.034V37.834a.035.035,0,0,1-.036.034H15.036A.035.035,0,0,1,15,37.834V11.483A.035.035,0,0,1,15.036,11.449Z" fill="#147391"/>
      <path id="path1488" d="M17,34.869s1.377,2.119,1.89.157c.38-1.454,1.711-2.714,5.714-3.957s6.749-2.407,9.015-4.988a10.857,10.857,0,0,0,2.546-6.449c.035-1.087-3.324-1.2-3.358-.048a7.875,7.875,0,0,1-2.017,5.278c-1.964,1.82-3.1,2.055-5.927,2.9a32.334,32.334,0,0,0-4.977,1.828,12.543,12.543,0,0,0-2.976,2.578" fill="#147391" stroke="#147391" stroke-width="0.262"/>
      <path id="path1403-7" d="M23,41a6,6,0,1,1-6-6A6,6,0,0,1,23,41Z" fill="#147391"/>
      <path id="path1403-8-1" d="M21,41a4,4,0,1,1-4-4h0a4,4,0,0,1,4,4Z" fill="#fff"/>
      <path id="path1403-7-0" d="M40.385,13.84a6,6,0,1,1-6-6A6,6,0,0,1,40.385,13.84Z" fill="#147391"/>
      <path id="path1403-8-1-8" d="M38.385,13.84a4,4,0,0,1-4,4h0a4,4,0,0,1-4-4h0a4,4,0,0,1,8,0Z" fill="#fff"/>
    </g>
  </g>
</svg>
