<svg id="Image" xmlns="http://www.w3.org/2000/svg" xmlns:xlink="http://www.w3.org/1999/xlink" viewBox="0 0 48 48">
  <defs>
    <linearGradient id="linear-gradient" x1="0.865" y1="36.769" x2="24.631" y2="19.286" gradientTransform="matrix(0.956, 0, 0, -1.002, -0.945, 42.786)" gradientUnits="userSpaceOnUse">
      <stop offset="0" stop-color="#fff"/>
      <stop offset="1" stop-color="#dcdcdc"/>
    </linearGradient>
    <linearGradient id="linear-gradient-2" x1="26.25" y1="24.25" x2="48.75" y2="1.75" gradientTransform="matrix(1, 0, 0, -1, 0, 48)" gradientUnits="userSpaceOnUse">
      <stop offset="0" stop-color="#73b4c8"/>
      <stop offset="0.175" stop-color="#6aaec3"/>
      <stop offset="0.457" stop-color="#529eb5"/>
      <stop offset="0.809" stop-color="#2c839f"/>
      <stop offset="1" stop-color="#147391"/>
    </linearGradient>
    <linearGradient id="linear-gradient-3" x1="27.721" y1="18.951" x2="43.28" y2="34.508" gradientTransform="translate(-11.677 1.158) scale(0.653 0.646)" gradientUnits="userSpaceOnUse">
      <stop offset="0" stop-color="#a5cfdc"/>
      <stop offset="0.128" stop-color="#9cc9d7"/>
      <stop offset="0.335" stop-color="#84bacb"/>
      <stop offset="0.596" stop-color="#5ea2b7"/>
      <stop offset="0.896" stop-color="#28809b"/>
      <stop offset="1" stop-color="#147391"/>
    </linearGradient>
    <linearGradient id="linear-gradient-4" x1="46.071" y1="18.659" x2="56.017" y2="28.605" gradientTransform="matrix(0.653, 0, 0, -0.646, -11.677, 31.718)" gradientUnits="userSpaceOnUse">
      <stop offset="0" stop-color="#f2f2f2"/>
      <stop offset="1" stop-color="#999"/>
    </linearGradient>
    <linearGradient id="linear-gradient-5" x1="30.898" y1="22.136" x2="40.093" y2="31.33" gradientTransform="translate(-11.677 1.158) scale(0.653 0.646)" xlink:href="#linear-gradient"/>
    <linearGradient id="linear-gradient-6" x1="8.967" y1="33.737" x2="18.13" y2="27.427" gradientTransform="matrix(1.03, 0, 0, -1.146, -2.707, 61.849)" xlink:href="#linear-gradient-3"/>
  </defs>
  <g id="g896">
    <path id="path35" d="M.469,39.531H43.531V6.479H17.694L14.435,1.362A1.893,1.893,0,0,0,12.842.469H2.383a1.96,1.96,0,0,0-1.914,2h0Z" stroke="#464646" stroke-linejoin="round" stroke-width="0.938" fill="url(#linear-gradient)"/>
    <path id="rect25" d="M27.5,22.5h20v25h-20Z" stroke="#464646" stroke-miterlimit="10" fill="url(#linear-gradient-2)"/>
    <path id="line29" d="M32,38.5h2" fill="none" stroke="#fff" stroke-miterlimit="10"/>
    <path id="line31" d="M32,44.5h2" fill="none" stroke="#fff" stroke-miterlimit="10"/>
    <path id="line33" d="M32,35.5h2" fill="none" stroke="#fff" stroke-miterlimit="10"/>
    <path id="line35" d="M32,32.5h2" fill="none" stroke="#fff" stroke-miterlimit="10"/>
    <path id="line37" d="M32,29.5h4" fill="none" stroke="#fff" stroke-miterlimit="10"/>
    <path id="line39" d="M32,26.5h2" fill="none" stroke="#fff" stroke-miterlimit="10"/>
    <path id="polyline41" d="M40.5,39.5l2-1v6" fill="none" stroke="#fff" stroke-linejoin="round"/>
    <path id="path43" d="M40.5,27h0A1.5,1.5,0,0,1,42,25.5h1A1.5,1.5,0,0,1,44.5,27v.169a1.5,1.5,0,0,1-.7,1.272L41.44,29.913a2,2,0,0,0-.94,1.7V32.5H45" fill="none" stroke="#fff" stroke-miterlimit="10"/>
    <path id="line45" d="M41,44.5h3" fill="none" stroke="#fff" stroke-linejoin="round"/>
    <path id="path862" d="M31.733,35.494,29.87,36.8l-1.863,1.3.008-2.624.007-2.623,1.856,1.32Z" fill="#fff"/>
    <path id="line27" d="M32,41.5h4" fill="none" stroke="#fff" stroke-miterlimit="10"/>
    <path id="path28" d="M17.491,18.841a.263.263,0,0,0-.036.35l.965,1.319-1.541.565a.265.265,0,0,0-.168.31l.382,1.583L15.449,22.9a.26.26,0,0,0-.274.223l-.262,1.606-1.493-.673a.27.27,0,0,0-.34.1l-.861,1.384L11.1,24.35a.268.268,0,0,0-.353-.035l-1.331.954-.572-1.526a.266.266,0,0,0-.314-.165l-1.6.377.062-1.626a.268.268,0,0,0-.226-.272L5.144,21.8l.685-1.473a.265.265,0,0,0-.1-.337l-1.4-.853L5.532,18.03a.262.262,0,0,0,.035-.35L4.6,16.362,6.144,15.8a.263.263,0,0,0,.167-.31L5.93,13.9l1.644.065a.267.267,0,0,0,.274-.223l.262-1.607,1.492.677a.27.27,0,0,0,.34-.1l.861-1.384,1.119,1.192a.27.27,0,0,0,.353.035l1.332-.954.571,1.525a.268.268,0,0,0,.314.166l1.6-.378-.062,1.627a.264.264,0,0,0,.225.271l1.624.259-.685,1.475a.263.263,0,0,0,.1.336l1.4.852Z" fill="url(#linear-gradient-3)"/>
    <path id="path30" d="M12.5,25.715a.325.325,0,0,1-.246.152h-.032a.325.325,0,0,1-.239-.1L10.9,24.608l-1.289.924a.334.334,0,0,1-.286.047.324.324,0,0,1-.211-.194l-.538-1.434V29.03l2.743-2.036a.33.33,0,0,1,.392,0l2.744,2.036V24.882l-1.12-.508Z" fill="url(#linear-gradient-4)"/>
    <g id="g40">
      <path id="path36" d="M13.135,22.318a4.261,4.261,0,0,1-5.548-2.271,4.185,4.185,0,0,1,2.3-5.49,4.26,4.26,0,0,1,5.548,2.271h0A4.186,4.186,0,0,1,13.135,22.318Z" fill="url(#linear-gradient-5)"/>
      <path id="path38" d="M11.517,22.959a4.56,4.56,0,1,1,1.743-.344A4.628,4.628,0,0,1,11.517,22.959Zm-.012-8.4a3.878,3.878,0,1,0,.043,7.756,3.961,3.961,0,0,0,1.466-.29h0a3.864,3.864,0,0,0,2.138-5.06A3.918,3.918,0,0,0,11.505,14.557Z" fill="#6f6f6f"/>
    </g>
    <path id="polygon42" d="M14.124,16.5l-2.613,4.848L8.9,19.082l.653-.323,1.633.969,2.286-3.555Z" fill="#464646"/>
    <path id="path1062" d="M8.5,26.542c0-1.535.012-2.778.027-2.762s.135.355.267.752a7.438,7.438,0,0,0,.305.811c.15.209.433.094,1.1-.449l.664-.54.625.72c.595.686.754.8.947.659a6.485,6.485,0,0,0,.52-.838c.241-.429.452-.784.469-.788a4.71,4.71,0,0,1,.565.264l.534.271v2.307c0,1.269-.013,2.307-.03,2.307s-.661-.519-1.431-1.154a10.8,10.8,0,0,0-1.541-1.153,6.242,6.242,0,0,0-1.112.806L8.966,28.946l-.47.388Z" fill="url(#linear-gradient-6)"/>
    <path id="path32" d="M7.919,24.057v5.62a.327.327,0,0,0,.522.258l3.07-2.278,3.07,2.278a.332.332,0,0,0,.2.065.341.341,0,0,0,.147-.034.324.324,0,0,0,.18-.289V24.989c-.013.01.015-.009,0,0a.232.232,0,0,0,.131-.2l.253-1.556,1.592.06a.365.365,0,0,0,.265-.118.319.319,0,0,0,.065-.28l-.369-1.532,1.492-.548a.323.323,0,0,0,.193-.416.384.384,0,0,0-.042-.077l-.933-1.276,1.168-1.072a.321.321,0,0,0,.017-.457.328.328,0,0,0-.068-.055l-1.355-.825.661-1.431a.321.321,0,0,0-.163-.427.3.3,0,0,0-.082-.025L16.357,14.5l.06-1.575a.325.325,0,0,0-.314-.336.329.329,0,0,0-.088.009l-1.55.366-.552-1.478a.328.328,0,0,0-.42-.19.342.342,0,0,0-.078.041l-1.29.925-1.083-1.157a.329.329,0,0,0-.517.05L9.691,12.5l-1.445-.656A.33.33,0,0,0,7.813,12a.338.338,0,0,0-.025.082L7.534,13.64l-1.591-.06a.3.3,0,0,0-.265.118.319.319,0,0,0-.065.28l.369,1.533-1.493.548a.322.322,0,0,0-.193.415.326.326,0,0,0,.042.078l.934,1.276L4.1,18.9a.322.322,0,0,0-.017.457.328.328,0,0,0,.068.055l1.355.825-.661,1.431a.319.319,0,0,0,.008.287.329.329,0,0,0,.237.167l1.572.25-.059,1.575a.324.324,0,0,0,.317.332.3.3,0,0,0,.085-.009m7.442,4.761-2.744-2.036a.33.33,0,0,0-.392,0L8.572,29.03V23.951l.538,1.433a.322.322,0,0,0,.211.194.33.33,0,0,0,.286-.047l1.289-.923,1.084,1.155a.329.329,0,0,0,.239.1h.032a.324.324,0,0,0,.246-.153l.834-1.34,1.12.509Zm2.818-10.425a.583.583,0,0,0-.079.775l.713.974-1.137.417a.589.589,0,0,0-.373.689l.282,1.169-1.206-.045a.581.581,0,0,0-.617.494l-.2,1.187-1.1-.5a.6.6,0,0,0-.754.226l-.638,1.02-.823-.878a.592.592,0,0,0-.784-.08l-.984.7-.423-1.122a.588.588,0,0,0-.7-.371l-1.18.278.045-1.2a.6.6,0,0,0-.5-.6l-1.2-.19.506-1.091a.585.585,0,0,0-.229-.747l-1.033-.63.891-.816a.584.584,0,0,0,.078-.776l-.713-.973L6.257,16.1a.586.586,0,0,0,.372-.688l-.282-1.169,1.215.046A.585.585,0,0,0,8.17,13.8l.2-1.187,1.1.5a.6.6,0,0,0,.753-.227l.637-1.022.827.881a.6.6,0,0,0,.784.077l.983-.7.422,1.124a.6.6,0,0,0,.7.37l1.18-.28-.046,1.2a.591.591,0,0,0,.5.6l1.2.194-.5,1.091a.584.584,0,0,0,.229.747l1.033.629Z" fill="#474647"/>
  </g>
</svg>
