<svg id="Layer_1" data-name="Layer 1" xmlns="http://www.w3.org/2000/svg" xmlns:xlink="http://www.w3.org/1999/xlink" viewBox="0 0 48 48">
  <defs>
    <linearGradient id="linear-gradient" x1="18.657" y1="29.158" x2="47.136" y2="0.582" gradientTransform="matrix(1.097, 0, 0, -1.097, -5.084, 47.597)" gradientUnits="userSpaceOnUse">
      <stop offset="0" stop-color="#a5cfdc"/>
      <stop offset="0.128" stop-color="#9cc9d7"/>
      <stop offset="0.335" stop-color="#84bacb"/>
      <stop offset="0.596" stop-color="#5ea2b7"/>
      <stop offset="0.896" stop-color="#28809b"/>
      <stop offset="1" stop-color="#147391"/>
    </linearGradient>
    <linearGradient id="linear-gradient-2" x1="0.44" y1="47.615" x2="28.919" y2="19.111" xlink:href="#linear-gradient"/>
  </defs>
  <g id="g1002">
    <path id="path948-4" d="M44.658,18.823a3.556,3.556,0,0,1,2.176,1.916c.507,1.1.485.541.484,12.261,0,10.181-.007,10.6-.146,11.276a4.177,4.177,0,0,1-1.989,2.995l-.493.244H21.113l-.429-.174a3.6,3.6,0,0,1-1.918-2.353l-.174-.521-.021-7.4-.02-7.4,5.516-5.475,5.516-5.474,7.367.007c5.711,0,7.443.027,7.708.1Z" fill="url(#linear-gradient)"/>
    <path id="path948" d="M3.277,29.35A3.559,3.559,0,0,1,1.1,27.433c-.506-1.1-.484-.54-.483-12.26C.618,4.991.623,4.571.762,3.9A4.181,4.181,0,0,1,2.751.9L3.245.658H26.822l.429.174a3.6,3.6,0,0,1,1.917,2.353l.174.52.021,7.4.021,7.4-5.517,5.474-5.516,5.475-7.366-.007c-5.712,0-7.443-.028-7.708-.1Z" fill="url(#linear-gradient-2)"/>
    <path id="rect921" d="M32.944,27.667h1.9v1.9h-1.9Z" fill="#fff"/>
    <path id="rect923" d="M27.405,29.566H40.639v1.9H27.405Z" fill="#fff"/>
    <path id="path925" d="M36.652,31.466a5.667,5.667,0,0,1,.045.664c0,3.148-3.035,6.955-6.183,6.955a5.7,5.7,0,0,1-1.491-.208v1.952a7.623,7.623,0,0,0,1.491.156c4.2,0,8.082-4.658,8.082-8.855q0-.333-.033-.664Z" fill="#fff"/>
    <path id="path925-2" d="M33.342,33.462a5.906,5.906,0,0,0-.044.664c-.24,3.355,4.536,4.672,8.307,3.768v1.9c-4.843,1.024-10.574-.99-10.207-5.667,0-.221.013-.443.034-.664Z" fill="#fff"/>
    <g id="text919">
      <path id="path920" d="M21.178,21H17.651l-1.022-3.2h-5.11L10.507,21H7L12.23,6.632h3.838Zm-5.29-5.681-1.543-4.83A6.262,6.262,0,0,1,14.1,9.2h-.08a5.485,5.485,0,0,1-.251,1.252l-1.563,4.87Z" fill="#fff"/>
    </g>
    <path id="rect876-9" d="M29.473,18a.577.577,0,0,1,.07.264V19H43.7c2.068,0,3.3,1.716,3.3,4.3V42.7c0,2.585-1.383,4.3-3.451,4.3H22.5c-2.068,0-3.5-1.716-3.5-4.3V29.754h-.627A.565.565,0,0,1,18,29.609V43.018C18,45.889,19.7,48,22,48H43.854C46.151,48,48,45.872,48,43V23c0-2.872-1.7-5-4-5Z" fill="#464646"/>
    <path id="rect876-9-7" d="M4,0C1.7,0,0,2.128,0,5V25.018C0,27.889,1.7,30,4,30H18.465a.57.57,0,0,1-.033-.17V29H4.5C2.432,29,1,27.284,1,24.7V5.7C1,3.115,2.233,1,4.3,1H25.7C27.767,1,29,2.716,29,5.3V18.34h.6a.569.569,0,0,1,.4.162V5c0-2.872-1.7-5-4-5Z" fill="#464646"/>
    <path id="rect924" d="M18.256,29.034l11.033-11a.525.525,0,1,1,.735.751l-11.033,11a.525.525,0,0,1-.735-.751Z" fill="#464646"/>
  </g>
</svg>
