<svg id="Image" xmlns="http://www.w3.org/2000/svg" xmlns:xlink="http://www.w3.org/1999/xlink" viewBox="0 0 48 48">
  <defs>
    <linearGradient id="Siemens_-_Light_blue" data-name="Siemens - Light blue" x1="14.179" y1="27.033" x2="33.811" y2="27.033" gradientUnits="userSpaceOnUse">
      <stop offset="0" stop-color="#cde6eb"/>
      <stop offset="1" stop-color="#8cc3d2"/>
    </linearGradient>
    <linearGradient id="Siemens_-_Light_blue-2" x1="11.913" y1="37.488" x2="30.474" y2="37.488" gradientTransform="translate(-8.98 6.763) rotate(-15)" xlink:href="#Siemens_-_Light_blue"/>
    <linearGradient id="Siemens_-_Light_blue-3" x1="17.516" y1="16.561" x2="36.087" y2="16.561" gradientTransform="translate(-3.373 7.501) rotate(-15)" xlink:href="#Siemens_-_Light_blue"/>
    <linearGradient id="Siemens_-_Dark_blue" data-name="Siemens - Dark blue" x1="2.632" y1="24.105" x2="28.62" y2="24.105" gradientUnits="userSpaceOnUse">
      <stop offset="0" stop-color="#73b4c8"/>
      <stop offset="1" stop-color="#177491"/>
    </linearGradient>
    <linearGradient id="Siemens_-_Dark_blue-2" x1="41.634" y1="30.407" x2="45.163" y2="30.407" xlink:href="#Siemens_-_Dark_blue"/>
    <linearGradient id="Siemens_-_Dark_blue-3" x1="37.02" y1="38.437" x2="42.339" y2="38.437" xlink:href="#Siemens_-_Dark_blue"/>
    <linearGradient id="Siemens_-_Dark_blue-4" x1="27.606" y1="44.36" x2="35.58" y2="44.36" xlink:href="#Siemens_-_Dark_blue"/>
  </defs>
  <g>
    <g>
      <g>
        <path d="M27.455,26.694a9.849,9.849,0,0,0,6.32-6.158.694.694,0,0,0-.489-.884L19.635,16a.689.689,0,0,0-.86.517,9.85,9.85,0,0,0,2.394,8.5,1.458,1.458,0,0,1-.634,2.364,9.851,9.851,0,0,0-6.32,6.159.694.694,0,0,0,.489.883l13.647,3.656a.693.693,0,0,0,.865-.52,9.848,9.848,0,0,0-2.394-8.493A1.458,1.458,0,0,1,27.455,26.694Z" fill="url(#Siemens_-_Light_blue)"/>
        <path d="M28.533,38.6a1.219,1.219,0,0,1-.311-.041L14.575,34.9a1.216,1.216,0,0,1-.759-.605,1.151,1.151,0,0,1-.072-.927,10.407,10.407,0,0,1,6.64-6.47.957.957,0,0,0,.416-1.549,10.4,10.4,0,0,1-2.516-8.929,1.149,1.149,0,0,1,.526-.763,1.214,1.214,0,0,1,.955-.143l13.651,3.657a1.217,1.217,0,0,1,.758.6,1.151,1.151,0,0,1,.072.927,10.392,10.392,0,0,1-6.639,6.47h0a.959.959,0,0,0-.416,1.551,10.4,10.4,0,0,1,2.516,8.924,1.152,1.152,0,0,1-.528.765A1.218,1.218,0,0,1,28.533,38.6ZM19.452,16.471a.207.207,0,0,0-.111.031.154.154,0,0,0-.074.1,9.4,9.4,0,0,0,2.271,8.067,1.956,1.956,0,0,1-.851,3.177,9.4,9.4,0,0,0-6,5.845.166.166,0,0,0,.012.13.222.222,0,0,0,.134.108L28.48,37.588a.205.205,0,0,0,.168-.026.155.155,0,0,0,.077-.106A9.4,9.4,0,0,0,26.453,29.4a1.959,1.959,0,0,1,.85-3.178h0a9.39,9.39,0,0,0,6-5.845.165.165,0,0,0-.012-.131.214.214,0,0,0-.133-.106L19.506,16.478A.2.2,0,0,0,19.452,16.471Z" fill="#177491"/>
      </g>
      <g>
        <rect x="11.694" y="36.217" width="19" height="2.542" rx="1" ry="1" transform="translate(10.425 -4.208) rotate(15)" fill="url(#Siemens_-_Light_blue-2)"/>
        <path d="M29.337,41.45a1.463,1.463,0,0,1-.392-.053L12.524,37a1.5,1.5,0,0,1-1.06-1.837l.141-.524a1.5,1.5,0,0,1,1.837-1.06l16.421,4.4a1.5,1.5,0,0,1,1.061,1.835l-.142.525a1.5,1.5,0,0,1-1.445,1.112ZM13.053,34.526a.5.5,0,0,0-.482.37l-.141.525a.5.5,0,0,0,.354.612l16.42,4.4a.5.5,0,0,0,.612-.353l.142-.524a.5.5,0,0,0-.354-.612l-16.42-4.4A.5.5,0,0,0,13.053,34.526Z" fill="#177491"/>
      </g>
      <g>
        <rect x="17.301" y="15.271" width="19" height="2.58" rx="1" ry="1" transform="translate(5.199 -6.372) rotate(15)" fill="url(#Siemens_-_Light_blue-3)"/>
        <path d="M34.938,20.542a1.53,1.53,0,0,1-.389-.052l-16.422-4.4a1.5,1.5,0,0,1-1.061-1.837l.152-.561a1.5,1.5,0,0,1,1.837-1.06l16.421,4.4a1.5,1.5,0,0,1,1.06,1.837l-.151.56a1.5,1.5,0,0,1-1.447,1.113ZM18.665,13.581a.5.5,0,0,0-.249.066.493.493,0,0,0-.232.3l-.152.561a.5.5,0,0,0,.355.612l16.421,4.4a.5.5,0,0,0,.379-.05.5.5,0,0,0,.232-.3l.151-.561A.5.5,0,0,0,35.216,18L18.8,13.6A.484.484,0,0,0,18.665,13.581Z" fill="#177491"/>
      </g>
    </g>
    <g>
      <g>
        <path d="M23.869,47.417a21.232,21.232,0,0,1-.726-42.451l.49-.021.24,0L21.406,2.49l1.687-1.7L28.62,6.284l-5.553,5.552-1.691-1.691,2.463-2.463A18.751,18.751,0,0,0,5.373,26.18a18.517,18.517,0,0,0,18.5,18.5h.5v2.741Z" fill="url(#Siemens_-_Dark_blue)"/>
        <path d="M23.094,1.5l4.818,4.785L23.067,11.13l-.984-.985,2.988-2.989-1.2.026v0a19,19,0,0,0,0,37.992v1.741a20.732,20.732,0,0,1-.226-41.462v-.01l1.42-.029L22.113,2.487l.981-.987M23.089.086l-.7.709-.981.988-.7.709.71.705,1.275,1.267-.1,0,0,.025a21.732,21.732,0,0,0,1.287,43.426h1V44.176h-1a18.016,18.016,0,0,1-18-18A18.264,18.264,0,0,1,22.582,8.232L21.376,9.438l-.707.707.707.707.984.985.707.707.707-.707,4.845-4.845.709-.71-.711-.707L23.8.79l-.71-.7Z" fill="#177491"/>
      </g>
      <path d="M43.932,33.444a21.178,21.178,0,0,0,1.231-5.636l-2.479-.437a18.577,18.577,0,0,1-1.05,5.049Z" stroke="#177491" stroke-miterlimit="10" fill="url(#Siemens_-_Dark_blue-2)"/>
      <path d="M38.651,41.5a21.361,21.361,0,0,0,3.688-4.67L40.27,35.378a18.741,18.741,0,0,1-3.25,4.173Z" stroke="#177491" stroke-miterlimit="10" fill="url(#Siemens_-_Dark_blue-3)"/>
      <path d="M28.026,47a21.151,21.151,0,0,0,7.554-3.064l-1.275-2.207a18.561,18.561,0,0,1-6.7,2.727Z" stroke="#177491" stroke-miterlimit="10" fill="url(#Siemens_-_Dark_blue-4)"/>
    </g>
  </g>
</svg>
