<svg id="Image" xmlns="http://www.w3.org/2000/svg" xmlns:xlink="http://www.w3.org/1999/xlink" viewBox="0 0 48 48">
  <defs>
    <linearGradient id="Siemens_-_Light_gray" data-name="Siemens - Light gray" x1="9.693" y1="24.036" x2="38.307" y2="24.036" gradientUnits="userSpaceOnUse">
      <stop offset="0" stop-color="#fff"/>
      <stop offset="1" stop-color="#dcdcdc"/>
    </linearGradient>
    <linearGradient id="Sfumatura_senza_nome_8" data-name="Sfumatura senza nome 8" x1="6.5" y1="44.139" x2="41.5" y2="44.139" gradientUnits="userSpaceOnUse">
      <stop offset="0" stop-color="#73b4c8"/>
      <stop offset="1" stop-color="#177492"/>
    </linearGradient>
    <linearGradient id="Sfumatura_senza_nome_8-2" y1="3.896" y2="3.896" xlink:href="#Sfumatura_senza_nome_8"/>
    <linearGradient id="Sfumatura_senza_nome_3" data-name="Sfumatura senza nome 3" x1="26.157" y1="18.908" x2="44.343" y2="0.722" gradientTransform="matrix(1, 0, 0, -1, 0, 48.72)" gradientUnits="userSpaceOnUse">
      <stop offset="0" stop-color="#fff"/>
      <stop offset="0.221" stop-color="#f9f9f9"/>
      <stop offset="0.541" stop-color="#e5e5e4"/>
      <stop offset="0.92" stop-color="#c7c6c6"/>
      <stop offset="1" stop-color="#bebdbe"/>
    </linearGradient>
    <linearGradient id="Sfumatura_senza_nome_4" data-name="Sfumatura senza nome 4" x1="28.259" y1="26.006" x2="42.241" y2="12.023" gradientTransform="matrix(1, 0, 0, -1, 0, 48.72)" gradientUnits="userSpaceOnUse">
      <stop offset="0" stop-color="#73b4c8"/>
      <stop offset="0.175" stop-color="#6caec3"/>
      <stop offset="0.457" stop-color="#549eb4"/>
      <stop offset="0.809" stop-color="#2f84a0"/>
      <stop offset="1" stop-color="#197492"/>
    </linearGradient>
  </defs>
  <g>
    <g>
      <g>
        <path d="M30,21.762A18.317,18.317,0,0,0,38.3,7.675a1.284,1.284,0,0,0-1.291-1.349H10.98A1.276,1.276,0,0,0,9.7,7.668a18.322,18.322,0,0,0,8.31,14.1,2.719,2.719,0,0,1,0,4.545A18.32,18.32,0,0,0,9.7,40.4a1.283,1.283,0,0,0,1.29,1.35H37.013A1.284,1.284,0,0,0,38.3,40.4,18.319,18.319,0,0,0,30,26.309,2.721,2.721,0,0,1,30,21.762Z" fill="url(#Siemens_-_Light_gray)"/>
        <path d="M37.013,42.246H10.987a1.816,1.816,0,0,1-1.324-.578A1.72,1.72,0,0,1,9.2,40.36a18.918,18.918,0,0,1,8.536-14.471,2.22,2.22,0,0,0,0-3.706A18.925,18.925,0,0,1,9.2,7.7a1.718,1.718,0,0,1,.466-1.3,1.8,1.8,0,0,1,1.316-.574H37.013a1.811,1.811,0,0,1,1.323.577A1.723,1.723,0,0,1,38.8,7.711a18.925,18.925,0,0,1-8.536,14.472h0a2.219,2.219,0,0,0,0,3.706A18.918,18.918,0,0,1,38.8,40.36a1.723,1.723,0,0,1-.467,1.309A1.815,1.815,0,0,1,37.013,42.246ZM10.979,6.826a.8.8,0,0,0-.584.256.727.727,0,0,0-.2.55,17.913,17.913,0,0,0,8.082,13.711,3.221,3.221,0,0,1,0,5.386,17.909,17.909,0,0,0-8.081,13.7.727.727,0,0,0,.2.554.813.813,0,0,0,.591.259H37.013a.813.813,0,0,0,.591-.259.732.732,0,0,0,.2-.554,17.909,17.909,0,0,0-8.081-13.7,3.22,3.22,0,0,1,0-5.386,17.914,17.914,0,0,0,8.081-13.7.736.736,0,0,0-.2-.556.812.812,0,0,0-.591-.258Z" fill="#bebdbd"/>
      </g>
      <g>
        <rect x="6.5" y="41.779" width="35" height="4.721" rx="1" ry="1" fill="url(#Sfumatura_senza_nome_8)"/>
        <path d="M40.5,47H7.5A1.5,1.5,0,0,1,6,45.5V42.779a1.5,1.5,0,0,1,1.5-1.5h33a1.5,1.5,0,0,1,1.5,1.5V45.5A1.5,1.5,0,0,1,40.5,47Zm-33-4.721a.5.5,0,0,0-.5.5V45.5a.5.5,0,0,0,.5.5h33a.5.5,0,0,0,.5-.5V42.779a.5.5,0,0,0-.5-.5Z" fill="#177491"/>
      </g>
      <rect x="6.5" y="1.5" width="35" height="4.792" rx="1" ry="1" stroke="#177491" stroke-miterlimit="10" fill="url(#Sfumatura_senza_nome_8-2)"/>
    </g>
    <g>
      <path d="M24,31.969V45.375A1.125,1.125,0,0,0,25.125,46.5h20.25A1.125,1.125,0,0,0,46.5,45.375h0V31.969" stroke="#474647" stroke-miterlimit="10" fill="url(#Sfumatura_senza_nome_3)"/>
      <line x1="31.5" y1="32.906" x2="31.5" y2="46.031" fill="none" stroke="#6f6f6e"/>
      <line x1="39" y1="32.906" x2="39" y2="46.031" fill="none" stroke="#6f6f6e"/>
      <line x1="24.469" y1="41.813" x2="46.031" y2="41.813" fill="none" stroke="#6f6f6e"/>
      <line x1="24.469" y1="37.125" x2="46.031" y2="37.125" fill="none" stroke="#6f6f6e"/>
      <path d="M46.5,32.438V27.75a1.874,1.874,0,0,0-1.875-1.875H25.875A1.874,1.874,0,0,0,24,27.75v4.688Z" stroke="#197492" stroke-miterlimit="10" fill="url(#Sfumatura_senza_nome_4)"/>
      <circle cx="29.156" cy="29.156" r="1.406" fill="#fff" stroke="#197492" stroke-linecap="round" stroke-linejoin="round"/>
      <circle cx="41.344" cy="29.156" r="1.406" fill="#fff" stroke="#197492" stroke-linecap="round" stroke-linejoin="round"/>
    </g>
  </g>
</svg>
