<svg id="Layer_1" data-name="Layer 1" xmlns="http://www.w3.org/2000/svg" xmlns:xlink="http://www.w3.org/1999/xlink" viewBox="0 0 48 48">
    <linearGradient id="linear-gradient" x1="-0.5" y1="49.5" x2="45.5" y2="3.5" gradientTransform="translate(1.5 -2.5)" gradientUnits="userSpaceOnUse">
      <stop offset="0" stop-color="#f2f2f2"/>
      <stop offset="0.217" stop-color="#eee"/>
      <stop offset="0.425" stop-color="#e3e3e3"/>
      <stop offset="0.628" stop-color="#cfcfcf"/>
      <stop offset="0.828" stop-color="#b5b5b5"/>
      <stop offset="0.99" stop-color="#999"/>
    </linearGradient>
    <linearGradient id="linear-gradient-2" x1="26.5" y1="13.5" x2="47.5" y2="34.5" gradientTransform="translate(13 61) rotate(-90)" gradientUnits="userSpaceOnUse">
      <stop offset="0.01" stop-color="#999"/>
      <stop offset="0.295" stop-color="#bdbdbd"/>
      <stop offset="0.577" stop-color="#dadada"/>
      <stop offset="0.821" stop-color="#ececec"/>
      <stop offset="1" stop-color="#f2f2f2"/>
    </linearGradient>
    <linearGradient id="linear-gradient-3" x1="13.5" y1="13.5" x2="34.5" y2="34.5" gradientTransform="translate(0 48) rotate(-90)" xlink:href="#linear-gradient-2"/>
    <linearGradient id="linear-gradient-4" x1="0.5" y1="13.5" x2="21.5" y2="34.5" gradientTransform="translate(-13 35) rotate(-90)" xlink:href="#linear-gradient-2"/>
    <linearGradient id="Dark_Blue_Grad" data-name="Dark Blue Grad" x1="6.543" y1="28.043" x2="15.457" y2="36.957" gradientTransform="translate(-21.5 43.5) rotate(-90)" gradientUnits="userSpaceOnUse">
      <stop offset="0" stop-color="#73b4c8"/>
      <stop offset="0.175" stop-color="#6aaec3"/>
      <stop offset="0.457" stop-color="#529eb5"/>
      <stop offset="0.809" stop-color="#2c839f"/>
      <stop offset="1" stop-color="#147391"/>
    </linearGradient>
    <linearGradient id="Dark_Blue_Grad-2" x1="19.543" y1="11.043" x2="28.457" y2="19.957" gradientTransform="translate(8.5 39.5) rotate(-90)" xlink:href="#Dark_Blue_Grad"/>
    <linearGradient id="Dark_Blue_Grad-3" x1="32.543" y1="30.043" x2="41.457" y2="38.957" gradientTransform="translate(2.5 71.5) rotate(-90)" xlink:href="#Dark_Blue_Grad"/>
  <rect x="0.5" y="1.5" width="47" height="45" transform="translate(48) rotate(90)" stroke="#464646" stroke-miterlimit="10" fill="url(#linear-gradient)"/>
  <rect x="18.5" y="21.5" width="37" height="5" transform="translate(61 -13) rotate(90)" stroke="#6e6e6e" stroke-miterlimit="10" fill="url(#linear-gradient-2)"/>
  <rect x="5.5" y="21.5" width="37" height="5" transform="translate(48) rotate(90)" stroke="#6e6e6e" stroke-miterlimit="10" fill="url(#linear-gradient-3)"/>
  <rect x="-7.5" y="21.5" width="37" height="5" transform="translate(35 13) rotate(90)" stroke="#6e6e6e" stroke-miterlimit="10" fill="url(#linear-gradient-4)"/>
  <rect x="6" y="28" width="10" height="9" rx="1" ry="1" transform="translate(43.5 21.5) rotate(90)" stroke="#147391" stroke-miterlimit="10" fill="url(#Dark_Blue_Grad)"/>
  <line x1="8" y1="32.5" x2="14" y2="32.5" fill="none" stroke="#fff" stroke-miterlimit="10"/>
  <rect x="19" y="11" width="10" height="9" rx="1" ry="1" transform="translate(39.5 -8.5) rotate(90)" stroke="#147391" stroke-miterlimit="10" fill="url(#Dark_Blue_Grad-2)"/>
  <line x1="21" y1="15.5" x2="27" y2="15.5" fill="none" stroke="#fff" stroke-miterlimit="10"/>
  <rect x="32" y="30" width="10" height="9" rx="1" ry="1" transform="translate(71.5 -2.5) rotate(90)" stroke="#147391" stroke-miterlimit="10" fill="url(#Dark_Blue_Grad-3)"/>
  <line x1="34" y1="34.5" x2="40" y2="34.5" fill="none" stroke="#fff" stroke-miterlimit="10"/>
</svg>
