<svg id="Image" xmlns="http://www.w3.org/2000/svg" xmlns:xlink="http://www.w3.org/1999/xlink" viewBox="0 0 48 48">
  <defs>
    <linearGradient id="linear-gradient" x1="6.741" y1="33.186" x2="29.846" y2="10.081" gradientTransform="matrix(1, 0, 0, -1, 0, 48)" gradientUnits="userSpaceOnUse">
      <stop offset="0" stop-color="#73b4c8"/>
      <stop offset="1" stop-color="#177491"/>
    </linearGradient>
    <linearGradient id="linear-gradient-2" x1="14.68" y1="32.698" x2="21.892" y2="25.485" gradientTransform="matrix(1, 0, 0, -1, 0, 48)" gradientUnits="userSpaceOnUse">
      <stop offset="0" stop-color="#fff"/>
      <stop offset="1" stop-color="#bebdbd"/>
    </linearGradient>
    <linearGradient id="linear-gradient-3" x1="17.028" y1="20.662" x2="19.558" y2="18.132" xlink:href="#linear-gradient-2"/>
    <linearGradient id="linear-gradient-4" x1="25.107" y1="21.569" x2="34.127" y2="12.55" gradientTransform="matrix(1, 0, 0, -1, 0, 48)" gradientUnits="userSpaceOnUse">
      <stop offset="0" stop-color="#cde6eb"/>
      <stop offset="1" stop-color="#8cc3d2"/>
    </linearGradient>
    <linearGradient id="linear-gradient-5" x1="18.584" y1="21.853" x2="37.469" y2="2.969" gradientTransform="matrix(1, 0, 0, -1, 0, 48)" gradientUnits="userSpaceOnUse">
      <stop offset="0" stop-color="#73b4c8"/>
      <stop offset="1" stop-color="#177492"/>
    </linearGradient>
    <linearGradient id="linear-gradient-6" x1="16.713" y1="27.213" x2="25.829" y2="18.098" xlink:href="#linear-gradient-4"/>
    <linearGradient id="linear-gradient-7" x1="12.805" y1="23.305" x2="25.305" y2="10.805" gradientTransform="matrix(1, 0, 0, -1, 0, 48)" gradientUnits="userSpaceOnUse">
      <stop offset="0" stop-color="#afd7e1"/>
      <stop offset="1" stop-color="#73b4c8"/>
    </linearGradient>
    <linearGradient id="linear-gradient-8" x1="8.364" y1="49.486" x2="31.486" y2="26.364" gradientTransform="matrix(1, 0, 0, -1, 0, 48)" gradientUnits="userSpaceOnUse">
      <stop offset="0" stop-color="#fff"/>
      <stop offset="1" stop-color="#dcdcdc"/>
    </linearGradient>
    <linearGradient id="linear-gradient-9" x1="21.285" y1="39.721" x2="30.089" y2="30.916" xlink:href="#linear-gradient-8"/>
    <linearGradient id="linear-gradient-10" x1="25.065" y1="30.57" x2="28.12" y2="27.515" xlink:href="#linear-gradient-2"/>
    <linearGradient id="linear-gradient-11" x1="18.726" y1="39.726" x2="24.117" y2="34.335" xlink:href="#linear-gradient-2"/>
    <linearGradient id="linear-gradient-12" x1="27.056" y1="25.773" x2="30.111" y2="22.718" xlink:href="#linear-gradient-2"/>
    <linearGradient id="linear-gradient-13" x1="26.772" y1="27.878" x2="28.744" y2="25.906" xlink:href="#linear-gradient-8"/>
    <linearGradient id="linear-gradient-14" x1="29.01" y1="20.877" x2="31.564" y2="18.324" xlink:href="#linear-gradient-2"/>
    <linearGradient id="linear-gradient-15" x1="28.338" y1="22.582" x2="30.31" y2="20.61" xlink:href="#linear-gradient-8"/>
  </defs>
  <g id="g1073">
    <g id="g37">
      <path id="path21" d="M16.561,5.09,1.719,30.8a2,2,0,0,0,1.732,3H33.136a2,2,0,0,0,1.732-3L20.025,5.09a2,2,0,0,0-3.464,0Z" stroke="#177491" stroke-linecap="round" stroke-linejoin="round" fill="url(#linear-gradient)"/>
      <g id="g35">
        <g id="g27">
          <path id="path23" d="M16.5,24.335V13.73a.6.6,0,0,1,.6-.6h2.372a.6.6,0,0,1,.6.6h0V24.335Z" fill="url(#linear-gradient-2)"/>
          <path id="path25" d="M19.48,13.627a.1.1,0,0,1,.1.1h0V23.835H17V13.73a.1.1,0,0,1,.1-.1h2.38m0-1H17.107a1.1,1.1,0,0,0-1.1,1.1h0V24.835h4.578V13.73a1.1,1.1,0,0,0-1.1-1.1h0Z" fill="#6f6e6e"/>
        </g>
        <g id="g33">
          <path id="circle29" d="M20.082,28.6a1.789,1.789,0,1,1-1.789-1.789A1.789,1.789,0,0,1,20.082,28.6Z" fill="url(#linear-gradient-3)"/>
          <path id="path31" d="M18.293,27.314A1.289,1.289,0,1,1,17,28.6a1.289,1.289,0,0,1,1.293-1.286m0-1A2.289,2.289,0,1,0,20.582,28.6a2.289,2.289,0,0,0-2.293-2.289Z" fill="#6f6e6e"/>
        </g>
      </g>
    </g>
    <g id="g208">
      <g id="g80">
        <path id="path36" d="M42.089,40.705H37.2l-2.718-2.2h4.892S42.038,40.746,42.089,40.705Z" fill="url(#linear-gradient-4)"/>
        <path id="polygon38" d="M37.2,40.705V38.071H31.219v9.657h10.87V40.705Z" fill="url(#linear-gradient-5)"/>
        <path id="polygon40" d="M35.024,36.315H29.046l2.173,1.756H37.2Z" fill="url(#linear-gradient-6)"/>
        <g id="g78">
          <path id="polyline42" d="M29.046,36.315v9.657l2.173,1.756V38.071l-2.054-1.66" fill="url(#linear-gradient-7)"/>
          <g id="g76">
            <path id="path44" d="M37.1,40.957a.192.192,0,0,1-.031-.018.238.238,0,0,1-.041-.023l-2.717-2.2a.238.238,0,0,1-.074-.328.252.252,0,0,1,.046-.052H31.491v9.116H41.817v-6.48H37.2A.282.282,0,0,1,37.1,40.957Z" fill="none"/>
            <path id="path46" d="M41.261,40.433c-.418-.335-1.04-.857-1.988-1.651h-1.8v1.651Z" fill="none"/>
            <path id="polygon48" d="M29.317,45.842l1.631,1.317V38.2l-1.631-1.317Z" fill="none"/>
            <path id="polygon50" d="M35.249,38.782l1.677,1.354V38.782Z" fill="none"/>
            <path id="polygon52" d="M34.928,36.587H29.815l1.5,1.212h5.113Z" fill="none"/>
            <path id="path54" d="M37.1,40.957a.282.282,0,0,0,.1.02A.282.282,0,0,1,37.1,40.957Z" fill="#177491"/>
            <path id="path56" d="M42.346,40.615l0-.007a.155.155,0,0,1,0,.023C42.344,40.626,42.347,40.62,42.346,40.615Z" fill="#177491"/>
            <path id="path58" d="M39.273,38.782c.948.794,1.57,1.316,1.988,1.651h.828a.287.287,0,0,1,.1.02l-.005,0c-.217-.143-1.506-1.2-2.638-2.148a.273.273,0,0,0-.174-.064h-1.9v.544Z" fill="#177491"/>
            <path id="path60" d="M42.281,40.513l.008.011Z" fill="#177491"/>
            <path id="path62" d="M42.289,40.524a.257.257,0,0,1,.054.084A.257.257,0,0,0,42.289,40.524Z" fill="#177491"/>
            <path id="path64" d="M42.189,40.453a.271.271,0,0,1,.092.06A.271.271,0,0,0,42.189,40.453Z" fill="#177491"/>
            <path id="path66" d="M42.346,40.631a.272.272,0,0,1-.087.286.223.223,0,0,1-.145.069.2.2,0,0,1-.061-.009h-.236v6.48H31.491V38.342h2.791a.263.263,0,0,1,.2-.1h2.989v-.167a.254.254,0,0,0-.01-.055l-.006-.031a.286.286,0,0,0-.079-.118.009.009,0,0,0-.006-.008L35.194,36.1a.269.269,0,0,0-.17-.06H29.046a.274.274,0,0,0-.141.045.22.22,0,0,0-.025.017.271.271,0,0,0-.087.114l0,0v.017a.314.314,0,0,0-.015.074v9.658a.278.278,0,0,0,.1.211l2.174,1.756a.311.311,0,0,0,.04.022.211.211,0,0,0,.033.018.271.271,0,0,0,.1.02h10.87a.272.272,0,0,0,.272-.272V40.705A.314.314,0,0,0,42.346,40.631Zm-11.4,6.528-1.631-1.317V36.884L30.948,38.2ZM29.815,36.587h5.113l1.5,1.212H31.316Z" fill="#177491"/>
            <path id="path68" d="M37.068,40.939a.192.192,0,0,0,.031.018A.192.192,0,0,1,37.068,40.939Z" fill="#177491"/>
            <path id="polygon70" d="M37.469,40.433V38.782h-.543v1.354l.368.3Z" fill="#177491"/>
            <path id="path72" d="M41.261,40.433H37.294l-.368-.3v.569a.267.267,0,0,0,.142.234.192.192,0,0,0,.031.018.282.282,0,0,0,.1.02h4.855a.2.2,0,0,0,.061.009.223.223,0,0,0,.145-.069.272.272,0,0,0,.087-.286.037.037,0,0,0,0-.023.275.275,0,0,0-.054-.084l-.008-.011a.282.282,0,0,0-.092-.06.3.3,0,0,0-.1-.02Z" fill="#177491"/>
            <path id="path74" d="M34.282,38.342h2.644v.44h.543v-.544H34.48A.263.263,0,0,0,34.282,38.342Z" fill="#177491"/>
          </g>
        </g>
      </g>
      <path id="rect82" d="M24.154,24.9H46.98a.816.816,0,1,1,0,1.631H24.154a.816.816,0,0,1,0-1.631Z" fill="url(#linear-gradient-8)"/>
      <g id="g88">
        <path id="polyline84" d="M36.867,24.182h5.1l-.638-.639H36.111l.756.639" fill="#dbdbdb"/>
        <path id="path86" d="M36.867,24.453a.269.269,0,0,1-.176-.064l-.755-.638a.271.271,0,0,1,.175-.479h5.221a.271.271,0,0,1,.193.079l.638.638a.272.272,0,0,1,0,.384.268.268,0,0,1-.192.08Zm.1-.543h4.347l-.094-.095H36.854Z" fill="#464646"/>
      </g>
      <path id="polygon90" d="M40.006,30.226l-1.544.016-1.6-1.6V24.182h5.1v4.465Z" fill="url(#linear-gradient-9)"/>
      <g id="g98">
        <path id="path92" d="M38.6,30.7a1.759,1.759,0,0,0-.311.543v1.218c.483-.741,1.155-1.76,1.315-1.942a.647.647,0,0,0,.075-.289l-.754.008C38.786,30.438,38.671,30.6,38.6,30.7Z" fill="url(#linear-gradient-10)"/>
        <path id="path94" d="M39.952,30.228a.879.879,0,0,1-.144.472c-.236.268-1.79,2.679-1.79,2.679V31.212s0-.179.361-.67c.05-.069.125-.175.213-.3h-.13l-.119-.119c-.076.108-.139.2-.183.258a1.684,1.684,0,0,0-.413.83v2.17a.272.272,0,0,0,.5.148c.62-.963,1.6-2.462,1.765-2.648a1.4,1.4,0,0,0,.224-.836l-.23.185Z" fill="#464646"/>
        <path id="path96" d="M38.018,31.212V33.38s1.554-2.411,1.79-2.679a.879.879,0,0,0,.144-.472H39.68a.622.622,0,0,1-.075.289c-.159.183-.831,1.2-1.314,1.942V31.242A1.739,1.739,0,0,1,38.6,30.7c.071-.1.187-.264.326-.464l-.334,0c-.088.127-.163.232-.213.3C38.022,31.033,38.018,31.212,38.018,31.212Z" fill="#464646"/>
      </g>
      <g id="g162">
        <path id="path100" d="M36.111,23.543V24.9c.45,0,.543.365.543.815s-.093.816-.543.816v1.339l.756.775V24.182Z" fill="url(#linear-gradient-11)"/>
        <g id="g160">
          <path id="path102" d="M46.98,26.261a.544.544,0,1,0,0-1.087H42.242v1.087Z" fill="none"/>
          <path id="polygon104" d="M36.382,26.8v.957l.213.218V26.8Z" fill="none"/>
          <path id="polygon106" d="M38.573,29.97l1.336-.015,1.79-1.438V26.8h-4.56v1.731Z" fill="none"/>
          <path id="path108" d="M36.382,25.717c0-.543-.144-.543-.271-.543H24.154a.544.544,0,0,0,0,1.087H36.111C36.238,26.261,36.382,26.261,36.382,25.717Z" fill="none"/>
          <path id="rect110" d="M37.139,25.174H41.7v1.087h-4.56Z" fill="none"/>
          <path id="polygon112" d="M36.6,24.308l-.213-.18v.5H36.6Z" fill="none"/>
          <path id="rect114" d="M37.139,24.453H41.7v.177h-4.56Z" fill="none"/>
          <path id="path116" d="M36.382,24.667a.7.7,0,0,1,.213.109V24.63h-.213Z" fill="#464646"/>
          <path id="path118" d="M46.98,24.63H42.242v.544H46.98a.544.544,0,1,1,0,1.087H42.242V26.8H46.98a1.087,1.087,0,1,0,0-2.174Z" fill="#464646"/>
          <path id="path120" d="M36.382,26.767V26.8H36.6V26.66A.677.677,0,0,1,36.382,26.767Z" fill="#464646"/>
          <path id="path122" d="M36.111,26.261H24.154a.544.544,0,0,1,0-1.087H36.111a.272.272,0,0,1-.272-.272V24.63H24.154a1.087,1.087,0,0,0,0,2.174H35.839v-.271A.272.272,0,0,1,36.111,26.261Z" fill="#464646"/>
          <path id="rect124" d="M37.138,25.174h0v1.087h0Z" fill="#464646"/>
          <path id="rect126" d="M41.7,25.174h.543v1.087H41.7Z" fill="#464646"/>
          <path id="path128" d="M41.7,28.517l-1.79,1.44-1.336.014-1.434-1.435V26.8h0v1.843a.272.272,0,0,1-.464.192h0l1.6,1.6a.268.268,0,0,0,.191.08h0L40.01,30.5a.277.277,0,0,0,.167-.06l1.965-1.576a.273.273,0,0,0,.1-.212V26.8H41.7Z" fill="#464646"/>
          <path id="path130" d="M37.138,24.182v.448h0v-.177H41.7v.177h.544v-.448a.272.272,0,0,0-.272-.272h-5l.076.064A.27.27,0,0,1,37.138,24.182Z" fill="#464646"/>
          <path id="rect132" d="M37.138,24.63h0v.544h0Z" fill="#464646"/>
          <path id="rect134" d="M41.7,24.63h.543v.544H41.7Z" fill="#464646"/>
          <path id="rect136" d="M37.138,26.261h0V26.8h0Z" fill="#464646"/>
          <path id="rect138" d="M41.7,26.261h.543V26.8H41.7Z" fill="#464646"/>
          <path id="path140" d="M36.111,25.174c.127,0,.271,0,.271.543s-.144.544-.271.544H36.6V25.174Z" fill="#464646"/>
          <path id="path142" d="M36.6,26.8h0v1.175l-.213-.217V26.8H35.84v1.068a.27.27,0,0,0,.077.19l.755.775h0a.275.275,0,0,1-.079-.192Z" fill="#464646"/>
          <path id="path144" d="M36.382,24.128l.213.18v.322h0v-.448a.272.272,0,0,1,.272-.272h.1l-.679-.574a.272.272,0,0,0-.447.207V24.63h.543Z" fill="#464646"/>
          <path id="path146" d="M36.111,25.174H36.6V24.63h0v.145a.7.7,0,0,0-.213-.109V24.63H35.84V24.9A.271.271,0,0,0,36.111,25.174Z" fill="#464646"/>
          <path id="path148" d="M36.382,26.767a.68.68,0,0,0,.213-.108V26.8h0v-.543h-.484a.272.272,0,0,0-.272.272V26.8h.543Z" fill="#464646"/>
          <path id="path150" d="M36.969,28.9a.272.272,0,0,0,.169-.252V26.8H36.6v1.843a.275.275,0,0,0,.079.192.272.272,0,0,0,.192.08A.282.282,0,0,0,36.969,28.9Z" fill="#464646"/>
          <path id="path152" d="M36.6,24.182v.448h.543v-.448a.268.268,0,0,0-.1-.208l-.076-.064h-.1a.271.271,0,0,0-.272.271Z" fill="#464646"/>
          <path id="rect154" d="M36.6,25.174h.542v1.087H36.6Z" fill="#464646"/>
          <path id="rect156" d="M36.6,24.63h.542v.544H36.6Z" fill="#464646"/>
          <path id="rect158" d="M36.6,26.261h.542V26.8H36.6Z" fill="#464646"/>
        </g>
      </g>
      <g id="g206">
        <g id="g168">
          <path id="path164" d="M40.236,31.529v2.278a4.765,4.765,0,0,1-.428.58c-.236.268-1.79,2.679-1.79,2.679V34.9s0-.179.361-.67S40.236,31.529,40.236,31.529Z" fill="url(#linear-gradient-12)"/>
          <path id="path166" d="M38.019,37.338a.272.272,0,0,1-.272-.272V34.9a1.676,1.676,0,0,1,.413-.829c.35-.483,1.836-2.673,1.851-2.695a.271.271,0,0,1,.5.152v2.278a.274.274,0,0,1-.039.142,5.1,5.1,0,0,1-.456.618c-.163.186-1.145,1.685-1.765,2.647A.272.272,0,0,1,38.019,37.338Zm1.945-4.927c-.471.692-1.141,1.668-1.365,1.979a1.773,1.773,0,0,0-.311.544v1.217c.483-.741,1.155-1.759,1.315-1.941a4.429,4.429,0,0,0,.36-.481Z" fill="#464646"/>
        </g>
        <g id="g174">
          <path id="path170" d="M39.806,30.658a1.235,1.235,0,0,1,.157,1.7L38.378,34.23a1.476,1.476,0,0,1-.186-1.681.853.853,0,0,1,.115-.175Z" fill="url(#linear-gradient-13)"/>
          <path id="path172" d="M38.379,34.5a.272.272,0,0,1-.192-.08,1.738,1.738,0,0,1-.238-1.991,1.044,1.044,0,0,1,.157-.238l1.5-1.715a.272.272,0,0,1,.381-.029,1.494,1.494,0,0,1,.2,2.061l-1.6,1.894a.27.27,0,0,1-.2.1Zm1.427-3.432-1.294,1.482a.51.51,0,0,0-.077.118,1.248,1.248,0,0,0-.034,1.111l1.354-1.6A.923.923,0,0,0,39.806,31.071Z" fill="#464646"/>
        </g>
        <g id="g180">
          <path id="path176" d="M39.763,38.065a1.987,1.987,0,0,1,.473,1.155h-1.19Z" fill="#969696"/>
          <path id="path178" d="M40.236,39.491h-1.19a.272.272,0,0,1-.231-.415l.72-1.155a.269.269,0,0,1,.205-.126.277.277,0,0,1,.225.087,2.254,2.254,0,0,1,.544,1.329.272.272,0,0,1-.264.28h-.009Zm-.7-.543h.393a1.732,1.732,0,0,0-.152-.386Z" fill="#464646"/>
        </g>
        <g id="g186">
          <path id="path182" d="M38.379,37.953c-.357.489-.361.67-.361.67v.6h1.028c.344-.52.666-1,.765-1.11a4.592,4.592,0,0,0,.427-.581V35.253S38.736,37.462,38.379,37.953Z" fill="url(#linear-gradient-14)"/>
          <path id="path184" d="M39.046,39.491H38.019a.271.271,0,0,1-.272-.271v-.6a1.679,1.679,0,0,1,.413-.83h0c.337-.463,1.763-2.561,1.845-2.685a.271.271,0,0,1,.5.143v2.278a.274.274,0,0,1-.039.142,5.209,5.209,0,0,1-.456.618c-.106.12-.585.843-.743,1.08A.269.269,0,0,1,39.046,39.491Zm-.753-.543H38.9c.414-.622.622-.92.707-1.018a4.541,4.541,0,0,0,.359-.48v-1.3c-.56.835-1.353,1.947-1.365,1.965a1.756,1.756,0,0,0-.31.543Z" fill="#464646"/>
        </g>
        <g id="g192">
          <path id="path188" d="M39.806,34.387a1.235,1.235,0,0,1,.157,1.7L38.378,37.96a1.477,1.477,0,0,1-.186-1.682.853.853,0,0,1,.115-.175Z" fill="url(#linear-gradient-15)"/>
          <path id="path190" d="M38.379,38.231a.271.271,0,0,1-.192-.079,1.74,1.74,0,0,1-.238-1.991,1.044,1.044,0,0,1,.157-.238l1.5-1.715a.272.272,0,0,1,.381-.029,1.492,1.492,0,0,1,.2,2.061l-1.6,1.895a.271.271,0,0,1-.2.1Zm1.43-3.432-1.295,1.483a.49.49,0,0,0-.077.118,1.249,1.249,0,0,0-.034,1.11l1.354-1.6a.925.925,0,0,0,.049-1.109Z" fill="#464646"/>
        </g>
        <g id="g198">
          <path id="polygon194" d="M39.125,39.9l-1.107-.679h1.025Z" fill="#bebdbd"/>
          <path id="path196" d="M39.125,40.174a.274.274,0,0,1-.142-.04l-1.106-.683a.271.271,0,0,1,.142-.5h1.027a.271.271,0,0,1,.271.238l.083.68a.271.271,0,0,1-.123.262A.274.274,0,0,1,39.125,40.174Z" fill="#464646"/>
        </g>
        <g id="g204">
          <path id="polygon200" d="M40.236,39.22H39.043l.082.679Z" fill="#969696"/>
          <path id="path202" d="M39.125,40.174a.268.268,0,0,1-.118-.027.272.272,0,0,1-.151-.212l-.082-.685a.271.271,0,0,1,.237-.3.2.2,0,0,1,.035,0h1.2a.271.271,0,0,1,.142.5l-1.11.68A.277.277,0,0,1,39.125,40.174Z" fill="#464646"/>
        </g>
      </g>
    </g>
  </g>
</svg>
