<svg id="svg91" xmlns="http://www.w3.org/2000/svg" xmlns:xlink="http://www.w3.org/1999/xlink" viewBox="0 0 48 48">
  <defs>
    <linearGradient id="linear-gradient" x1="6.992" y1="41.008" x2="33.508" y2="14.492" gradientTransform="matrix(1, 0, 0, -1, 0, 48)" gradientUnits="userSpaceOnUse">
      <stop offset="0" stop-color="#a0d1db"/>
      <stop offset="1" stop-color="#6ab1c3"/>
    </linearGradient>
    <linearGradient id="linear-gradient-2" x1="10.307" y1="37.693" x2="30.193" y2="17.807" gradientTransform="matrix(1, 0, 0, -1, 0, 48)" gradientUnits="userSpaceOnUse">
      <stop offset="0" stop-color="#fff"/>
      <stop offset="1" stop-color="#b1b4b4"/>
    </linearGradient>
    <linearGradient id="linear-gradient-3" x1="25.801" y1="453.699" x2="45.199" y2="473.098" gradientTransform="translate(-9.5 -518.4) scale(1.2)" gradientUnits="userSpaceOnUse">
      <stop offset="0" stop-color="#fff"/>
      <stop offset="0.221" stop-color="#f4f4f4"/>
      <stop offset="0.541" stop-color="#dcdedd"/>
      <stop offset="0.92" stop-color="#bbbdbd"/>
      <stop offset="1" stop-color="#b1b4b4"/>
    </linearGradient>
    <linearGradient id="linear-gradient-4" x1="27.918" y1="446.254" x2="43.082" y2="461.418" gradientTransform="translate(-9.5 -518.4) scale(1.2)" gradientUnits="userSpaceOnUse">
      <stop offset="0" stop-color="#6ab1c3"/>
      <stop offset="0.175" stop-color="#64acbe"/>
      <stop offset="0.457" stop-color="#509cb0"/>
      <stop offset="0.809" stop-color="#31849d"/>
      <stop offset="1" stop-color="#1f7690"/>
    </linearGradient>
  </defs>
  <g id="g1019">
    <g id="g50">
      <g id="g42">
        <path id="circle38" d="M39,20.25A18.75,18.75,0,1,1,20.25,1.5,18.75,18.75,0,0,1,39,20.25Z" fill="url(#linear-gradient)"/>
        <path id="path40" d="M20.25,39.5A19.25,19.25,0,1,1,39.5,20.25,19.251,19.251,0,0,1,20.25,39.5Zm0-37.5A18.25,18.25,0,1,0,38.5,20.25,18.25,18.25,0,0,0,20.25,2Z" fill="#3f4143"/>
      </g>
      <g id="g48">
        <path id="circle44" d="M34.312,20.25A14.062,14.062,0,1,1,20.25,6.188,14.062,14.062,0,0,1,34.312,20.25Z" fill="url(#linear-gradient-2)"/>
        <path id="path46" d="M20.25,34.813A14.563,14.563,0,1,1,34.813,20.25h0A14.58,14.58,0,0,1,20.25,34.813Zm0-28.125A13.563,13.563,0,1,0,33.813,20.251h0A13.577,13.577,0,0,0,20.25,6.688Z" fill="#3f4143"/>
      </g>
    </g>
    <g id="g56">
      <path id="path52" d="M18.7,28.8V45.96a1.44,1.44,0,0,0,1.44,1.44H46.06a1.44,1.44,0,0,0,1.44-1.44h0V28.8" fill="url(#linear-gradient-3)"/>
      <path id="path54" d="M46.06,48H20.14a2.04,2.04,0,0,1-2.04-2.04h0V28.8h1.2V45.96a.84.84,0,0,0,.84.84H46.06a.84.84,0,0,0,.84-.84h0V28.8h1.2V45.96A2.04,2.04,0,0,1,46.06,48Z" fill="#3f4143"/>
    </g>
    <path id="rect58" d="M27.7,30h1.2V46.8H27.7Z" fill="#65696a"/>
    <path id="rect60" d="M37.3,30h1.2V46.8H37.3Z" fill="#65696a"/>
    <path id="rect62" d="M19.3,40.8H46.9V42H19.3Z" fill="#65696a"/>
    <path id="rect64" d="M19.3,34.8H46.9V36H19.3Z" fill="#65696a"/>
    <path id="path66" d="M47.5,30V23.4A2.4,2.4,0,0,0,45.1,21h-24a2.4,2.4,0,0,0-2.4,2.4V30" fill="url(#linear-gradient-4)"/>
    <path id="path68" d="M48.1,30H46.9V23.4a1.8,1.8,0,0,0-1.8-1.8h-24a1.8,1.8,0,0,0-1.8,1.8V30H18.1V23.4a3,3,0,0,1,3-3h24a3,3,0,0,1,3,3Z" fill="#3f4143"/>
    <g id="g76">
      <path id="circle72" d="M27.1,25.2A1.8,1.8,0,0,1,25.3,27h0a1.8,1.8,0,0,1-1.8-1.8h0a1.8,1.8,0,0,1,3.6,0Z" fill="#fff"/>
      <path id="path74" d="M25.3,27.6a2.4,2.4,0,1,1,2.4-2.4A2.4,2.4,0,0,1,25.3,27.6Zm0-3.6a1.2,1.2,0,1,0,1.2,1.2A1.2,1.2,0,0,0,25.3,24Z" fill="#1f7690"/>
    </g>
    <g id="g82">
      <path id="circle78" d="M42.7,25.2A1.8,1.8,0,0,1,40.9,27h0a1.8,1.8,0,0,1-1.8-1.8h0a1.8,1.8,0,0,1,3.6,0Z" fill="#fff"/>
      <path id="path80" d="M40.9,27.6a2.4,2.4,0,1,1,2.4-2.4A2.4,2.4,0,0,1,40.9,27.6Zm0-3.6a1.2,1.2,0,1,0,1.2,1.2A1.2,1.2,0,0,0,40.9,24Z" fill="#1f7690"/>
    </g>
    <path id="rect84" d="M19.3,28.8H46.9V30H19.3Z" fill="#1f7690"/>
  </g>
</svg>
