<svg id="Layer_1" data-name="Layer 1" xmlns="http://www.w3.org/2000/svg" xmlns:xlink="http://www.w3.org/1999/xlink" viewBox="0 0 48 48">
    <linearGradient id="New_Gradient_Swatch_1" data-name="New Gradient Swatch 1" x1="2.5" y1="45.5" x2="45.5" y2="2.5" gradientTransform="matrix(1, 0, 0, -1, 0, 48)" gradientUnits="userSpaceOnUse">
      <stop offset="0" stop-color="#cde6eb"/>
      <stop offset="0.221" stop-color="#c6e2e8"/>
      <stop offset="0.542" stop-color="#b3d8e1"/>
      <stop offset="0.921" stop-color="#93c7d5"/>
      <stop offset="1" stop-color="#8cc3d2"/>
    </linearGradient>
  <rect x="0.5" y="4.5" width="47" height="38.999" stroke="#464646" stroke-miterlimit="10" fill="url(#New_Gradient_Swatch_1)"/>
  <polyline points="4.5 13 4.5 10.5 7 10.5" fill="none" stroke="#147391" stroke-miterlimit="10"/>
  <polyline points="7 37.5 4.5 37.5 4.5 35" fill="none" stroke="#147391" stroke-miterlimit="10"/>
  <polyline points="41 10.5 43.5 10.5 43.5 13" fill="none" stroke="#147391" stroke-miterlimit="10"/>
  <polyline points="43.5 35 43.5 37.5 41 37.5" fill="none" stroke="#147391" stroke-miterlimit="10"/>
  <line x1="9" y1="10.5" x2="11" y2="10.5" fill="none" stroke="#147391" stroke-miterlimit="10"/>
  <line x1="4.5" y1="23" x2="4.5" y2="25" fill="none" stroke="#147391" stroke-miterlimit="10"/>
  <line x1="4.5" y1="29" x2="4.5" y2="27" fill="none" stroke="#147391" stroke-miterlimit="10"/>
  <line x1="4.5" y1="33" x2="4.5" y2="31" fill="none" stroke="#147391" stroke-miterlimit="10"/>
  <line x1="43.5" y1="23" x2="43.5" y2="25" fill="none" stroke="#147391" stroke-miterlimit="10"/>
  <line x1="4.5" y1="19" x2="4.5" y2="21" fill="none" stroke="#147391" stroke-miterlimit="10"/>
  <line x1="43.5" y1="19" x2="43.5" y2="21" fill="none" stroke="#147391" stroke-miterlimit="10"/>
  <line x1="4.5" y1="15" x2="4.5" y2="17" fill="none" stroke="#147391" stroke-miterlimit="10"/>
  <line x1="43.5" y1="15" x2="43.5" y2="17" fill="none" stroke="#147391" stroke-miterlimit="10"/>
  <line x1="43.5" y1="29" x2="43.5" y2="27" fill="none" stroke="#147391" stroke-miterlimit="10"/>
  <line x1="43.5" y1="33" x2="43.5" y2="31" fill="none" stroke="#147391" stroke-miterlimit="10"/>
  <line x1="13" y1="10.5" x2="15" y2="10.5" fill="none" stroke="#147391" stroke-miterlimit="10"/>
  <line x1="17" y1="10.5" x2="19" y2="10.5" fill="none" stroke="#147391" stroke-miterlimit="10"/>
  <line x1="21" y1="10.5" x2="23" y2="10.5" fill="none" stroke="#147391" stroke-miterlimit="10"/>
  <line x1="25" y1="10.5" x2="27" y2="10.5" fill="none" stroke="#147391" stroke-miterlimit="10"/>
  <line x1="29" y1="10.5" x2="31" y2="10.5" fill="none" stroke="#147391" stroke-miterlimit="10"/>
  <line x1="29" y1="37.5" x2="31" y2="37.5" fill="none" stroke="#147391" stroke-miterlimit="10"/>
  <line x1="33" y1="10.5" x2="35" y2="10.5" fill="none" stroke="#147391" stroke-miterlimit="10"/>
  <line x1="37" y1="10.5" x2="39" y2="10.5" fill="none" stroke="#147391" stroke-miterlimit="10"/>
  <line x1="33" y1="37.5" x2="35" y2="37.5" fill="none" stroke="#147391" stroke-miterlimit="10"/>
  <line x1="9" y1="37.5" x2="11" y2="37.5" fill="none" stroke="#147391" stroke-miterlimit="10"/>
  <line x1="13" y1="37.5" x2="15" y2="37.5" fill="none" stroke="#147391" stroke-miterlimit="10"/>
  <line x1="17" y1="37.5" x2="19" y2="37.5" fill="none" stroke="#147391" stroke-miterlimit="10"/>
  <line x1="21" y1="37.5" x2="23" y2="37.5" fill="none" stroke="#147391" stroke-miterlimit="10"/>
  <line x1="25" y1="37.5" x2="27" y2="37.5" fill="none" stroke="#147391" stroke-miterlimit="10"/>
  <line x1="37" y1="37.5" x2="39" y2="37.5" fill="none" stroke="#147391" stroke-miterlimit="10"/>
  <rect width="48" height="48" fill="none"/>
  <line x1="9.5" y1="15" x2="9.5" y2="33" fill="none" stroke="#147391" stroke-miterlimit="10"/>
  <line x1="13.5" y1="15" x2="13.5" y2="31" fill="none" stroke="#147391" stroke-miterlimit="10"/>
  <line x1="11.5" y1="15" x2="11.5" y2="31" fill="none" stroke="#147391" stroke-miterlimit="10"/>
  <line x1="17.5" y1="15" x2="17.5" y2="31" fill="none" stroke="#147391" stroke-miterlimit="10"/>
  <line x1="21" y1="15" x2="21" y2="31" fill="none" stroke="#147391" stroke-miterlimit="10" stroke-width="2"/>
  <line x1="25.5" y1="15" x2="25.5" y2="31" fill="none" stroke="#147391" stroke-miterlimit="10"/>
  <line x1="27.5" y1="15" x2="27.5" y2="31" fill="none" stroke="#147391" stroke-miterlimit="10"/>
  <line x1="23.5" y1="15" x2="23.5" y2="33" fill="none" stroke="#147391" stroke-miterlimit="10"/>
  <line x1="30.5" y1="15" x2="30.5" y2="31" fill="none" stroke="#147391" stroke-miterlimit="10"/>
  <line x1="33" y1="15" x2="33" y2="31" fill="none" stroke="#147391" stroke-miterlimit="10" stroke-width="2"/>
  <line x1="36.5" y1="15" x2="36.5" y2="33" fill="none" stroke="#147391" stroke-miterlimit="10"/>
  <line x1="38.499" y1="15" x2="38.499" y2="33" fill="none" stroke="#147391" stroke-miterlimit="10"/>
</svg>
