<svg id="Image" xmlns="http://www.w3.org/2000/svg" xmlns:xlink="http://www.w3.org/1999/xlink" viewBox="0 0 48 48">
  <defs>
    <linearGradient id="Siemens_-_Light_gray" data-name="Siemens - Light gray" x1="19.201" y1="14.958" x2="46.951" y2="14.958" gradientUnits="userSpaceOnUse">
      <stop offset="0" stop-color="#fff"/>
      <stop offset="1" stop-color="#dcdcdc"/>
    </linearGradient>
    <linearGradient id="linear-gradient" x1="23.524" y1="47.208" x2="26.809" y2="43.923" gradientTransform="matrix(1, 0, 0, -1, 0, 50)" gradientUnits="userSpaceOnUse">
      <stop offset="0" stop-color="#d9ecf1"/>
      <stop offset="0.221" stop-color="#d3e8ee"/>
      <stop offset="0.542" stop-color="#c3dfe8"/>
      <stop offset="0.921" stop-color="#a2ccdb"/>
      <stop offset="1" stop-color="#9bc8d7"/>
    </linearGradient>
    <linearGradient id="linear-gradient-2" x1="21.283" y1="44.967" x2="25.765" y2="40.484" gradientTransform="matrix(1, 0, 0, -1, 0, 50)" gradientUnits="userSpaceOnUse">
      <stop offset="0" stop-color="#bfdee8"/>
      <stop offset="0.159" stop-color="#b3d6e2"/>
      <stop offset="0.706" stop-color="#8ec1d3"/>
      <stop offset="1" stop-color="#7fb8cd"/>
    </linearGradient>
    <linearGradient id="linear-gradient-3" x1="23.524" y1="38.575" x2="26.809" y2="35.29" xlink:href="#linear-gradient"/>
    <linearGradient id="linear-gradient-4" x1="21.283" y1="36.333" x2="25.765" y2="31.851" xlink:href="#linear-gradient-2"/>
    <linearGradient id="linear-gradient-5" x1="23.524" y1="29.866" x2="26.809" y2="26.581" xlink:href="#linear-gradient"/>
    <linearGradient id="linear-gradient-6" x1="21.283" y1="27.625" x2="25.765" y2="23.142" xlink:href="#linear-gradient-2"/>
    <linearGradient id="linear-gradient-7" x1="9.074" y1="37.232" x2="24.205" y2="22.101" xlink:href="#linear-gradient"/>
    <linearGradient id="linear-gradient-8" x1="-1.251" y1="26.908" x2="19.399" y2="6.259" xlink:href="#linear-gradient-2"/>
  </defs>
  <g>
    <g>
      <rect x="19.201" y="1.083" width="27.75" height="27.75" stroke="#464646" stroke-miterlimit="10" fill="url(#Siemens_-_Light_gray)"/>
      <line x1="31.612" y1="14.958" x2="44.022" y2="14.958" fill="none" stroke="#464646" stroke-linecap="round" stroke-linejoin="round"/>
      <line x1="31.612" y1="23.667" x2="44.022" y2="23.667" fill="none" stroke="#464646" stroke-linecap="round" stroke-linejoin="round"/>
      <g>
        <line x1="31.612" y1="6.325" x2="44.022" y2="6.325" fill="none" stroke="#464646" stroke-linecap="round" stroke-linejoin="round"/>
        <g>
          <polygon points="25.167 6.334 28.451 4.435 28.451 8.216 25.167 10.115 25.167 6.334" fill="#3b90b2"/>
          <polygon points="21.882 4.434 25.161 2.535 28.451 4.435 25.167 6.334 21.882 4.434" fill="url(#linear-gradient)"/>
          <polygon points="25.167 6.334 25.167 10.115 21.882 8.215 21.882 4.434 25.167 6.334" fill="url(#linear-gradient-2)"/>
          <polyline points="28.451 4.435 25.167 6.334 21.882 4.434" fill="none" stroke="#0e7191" stroke-linejoin="round"/>
          <line x1="25.167" y1="6.334" x2="25.167" y2="10.115" fill="none" stroke="#0e7191" stroke-linejoin="round"/>
          <polygon points="25.161 2.535 21.882 4.434 21.882 8.215 25.167 10.115 28.451 8.216 28.451 4.435 25.161 2.535" fill="none" stroke="#4e4a48" stroke-linejoin="round"/>
        </g>
      </g>
      <g>
        <polygon points="25.167 14.968 28.451 13.068 28.451 16.849 25.167 18.748 25.167 14.968" fill="#3b90b2"/>
        <polygon points="21.882 13.068 25.161 11.168 28.451 13.068 25.167 14.968 21.882 13.068" fill="url(#linear-gradient-3)"/>
        <polygon points="25.167 14.968 25.167 18.748 21.882 16.849 21.882 13.068 25.167 14.968" fill="url(#linear-gradient-4)"/>
        <polyline points="28.451 13.068 25.167 14.968 21.882 13.068" fill="none" stroke="#0e7191" stroke-linejoin="round"/>
        <line x1="25.167" y1="14.968" x2="25.167" y2="18.748" fill="none" stroke="#0e7191" stroke-linejoin="round"/>
        <polygon points="25.161 11.168 21.882 13.068 21.882 16.849 25.167 18.748 28.451 16.849 28.451 13.068 25.161 11.168" fill="none" stroke="#4e4a48" stroke-linejoin="round"/>
      </g>
      <g>
        <polygon points="25.167 23.676 28.451 21.776 28.451 25.557 25.167 27.457 25.167 23.676" fill="#3b90b2"/>
        <polygon points="21.882 21.776 25.161 19.877 28.451 21.776 25.167 23.676 21.882 21.776" fill="url(#linear-gradient-5)"/>
        <polygon points="25.167 23.676 25.167 27.457 21.882 25.557 21.882 21.776 25.167 23.676" fill="url(#linear-gradient-6)"/>
        <polyline points="28.451 21.776 25.167 23.676 21.882 21.776" fill="none" stroke="#0e7191" stroke-linejoin="round"/>
        <line x1="25.167" y1="23.676" x2="25.167" y2="27.457" fill="none" stroke="#0e7191" stroke-linejoin="round"/>
        <polygon points="25.161 19.877 21.882 21.776 21.882 25.557 25.167 27.457 28.451 25.557 28.451 21.776 25.161 19.877" fill="none" stroke="#4e4a48" stroke-linejoin="round"/>
      </g>
    </g>
    <g>
      <polygon points="16.64 29.084 31.771 20.334 31.771 37.75 16.64 46.5 16.64 29.084" fill="#3b90b2"/>
      <polygon points="1.508 20.333 16.614 11.583 31.771 20.334 16.64 29.084 1.508 20.333" fill="url(#linear-gradient-7)"/>
      <polygon points="16.64 29.084 16.64 46.5 1.508 37.749 1.508 20.333 16.64 29.084" fill="url(#linear-gradient-8)"/>
      <polyline points="31.771 20.334 16.64 29.084 1.508 20.333" fill="none" stroke="#0e7191" stroke-linejoin="round"/>
      <line x1="16.64" y1="29.084" x2="16.64" y2="46.5" fill="none" stroke="#0e7191" stroke-linejoin="round"/>
      <polygon points="16.614 11.583 1.508 20.333 1.508 37.749 16.64 46.5 31.771 37.75 31.771 20.334 16.614 11.583" fill="none" stroke="#4e4a48" stroke-linejoin="round"/>
    </g>
  </g>
</svg>
