<svg id="Image" xmlns="http://www.w3.org/2000/svg" xmlns:xlink="http://www.w3.org/1999/xlink" viewBox="0 0 48 48">
  <defs>
    <linearGradient id="Sfumatura_senza_nome_11" data-name="Sfumatura senza nome 11" x1="4.041" y1="4.03" x2="40.617" y2="40.606" gradientUnits="userSpaceOnUse">
      <stop offset="0" stop-color="#73b4c8"/>
      <stop offset="1" stop-color="#177491"/>
    </linearGradient>
    <linearGradient id="Sfumatura_senza_nome_8" data-name="Sfumatura senza nome 8" x1="14.816" y1="12.394" x2="35.599" y2="33.177" xlink:href="#Sfumatura_senza_nome_11"/>
  </defs>
  <g>
    <g>
      <path d="M.973,19.284l1.764.541A21.6,21.6,0,1,0,39.226,8.763a21.684,21.684,0,0,0-30.37,0h0L7.873,9.7h4.778V11.75H4.459L4.471,3.6l2.035,0L6.49,8.3,7.647,7.192l.008.008A23.35,23.35,0,1,1,.973,19.284Z" fill="url(#Sfumatura_senza_nome_11)"/>
      <path d="M24,47.978A23.987,23.987,0,0,1,.483,19.184l.111-.54,2.719.835-.084.441a21.1,21.1,0,1,0,35.643-10.8,20.751,20.751,0,0,0-14.8-6.058h-.113A20.833,20.833,0,0,0,9.21,9.117L9.12,9.2h4.031V12.25H3.958L3.972,3.1l3.036.008L6.994,7.126l.671-.645.009.009A23.966,23.966,0,1,1,24,47.978ZM1.36,19.925A23.078,23.078,0,1,0,8.005,7.558l-.364.356L7.63,7.9,5.986,9.481,6,4.1,4.97,4.1,4.96,11.25h7.191V10.2H6.628L8.51,8.4a22.267,22.267,0,0,1,31.069.009A22.079,22.079,0,1,1,2.165,20.173Z" fill="#177491"/>
    </g>
    <g>
      <path d="M38.4,21.051l-1.767.471A12.943,12.943,0,1,1,33,14.95h0l.583.559H30.743l.007,2.138h6.141l-.016-6.392-1.935-.008.01,2.938-.724-.695,0,0A14.6,14.6,0,1,0,38.4,21.051Z" fill="url(#Sfumatura_senza_nome_8)"/>
      <path d="M24,39.182a15.181,15.181,0,1,1,10.194-26.4l0,0,.249.233-.008-2.265,2.936.011.018,7.39h-7.14l-.011-3.138h2.1a12.433,12.433,0,0,0-17.029.3,12.32,12.32,0,1,0,20.832,6.313l-.088-.458,2.73-.728.107.52A15.189,15.189,0,0,1,24,39.182ZM23.969,9.83A14.17,14.17,0,1,0,38.007,21.673l-.8.214A13.347,13.347,0,0,1,14.583,33.414,13.275,13.275,0,0,1,14.6,14.6a13.436,13.436,0,0,1,18.749,0l1.477,1.411H31.245l0,1.138H36.39l-.014-5.394-.934,0,.012,3.613-1.2-1.156,0,0-.376-.357A14.115,14.115,0,0,0,23.969,9.83Z" fill="#177491"/>
    </g>
  </g>
</svg>
