<svg id="Layer_1" data-name="Layer 1" xmlns="http://www.w3.org/2000/svg" xmlns:xlink="http://www.w3.org/1999/xlink"  viewBox="0 0 48 48">
  <defs>
    <linearGradient id="linear-gradient" x1="4" y1="5" x2="44" y2="45" gradientTransform="translate(-5.993 -1.853) scale(0.996 0.934)" gradientUnits="userSpaceOnUse">
      <stop offset="0" stop-color="#fff"/>
      <stop offset="0.221" stop-color="#f8f8f8"/>
      <stop offset="0.541" stop-color="#e5e5e5"/>
      <stop offset="0.92" stop-color="#c6c6c6"/>
      <stop offset="1" stop-color="#bebebe"/>
    </linearGradient>
    <linearGradient id="linear-gradient-2" x1="27.721" y1="18.951" x2="43.28" y2="34.508" gradientTransform="translate(-11.98 -7.342) scale(0.585 0.579)" gradientUnits="userSpaceOnUse">
      <stop offset="0" stop-color="#a5cfdc"/>
      <stop offset="0.128" stop-color="#9cc9d7"/>
      <stop offset="0.335" stop-color="#84bacb"/>
      <stop offset="0.596" stop-color="#5ea2b7"/>
      <stop offset="0.896" stop-color="#28809b"/>
      <stop offset="1" stop-color="#147391"/>
    </linearGradient>
    <linearGradient id="linear-gradient-3" x1="46.071" y1="18.659" x2="56.017" y2="28.605" gradientTransform="matrix(0.585, 0, 0, -0.579, -11.98, 20.034)" gradientUnits="userSpaceOnUse">
      <stop offset="0" stop-color="#f2f2f2"/>
      <stop offset="1" stop-color="#999"/>
    </linearGradient>
    <linearGradient id="linear-gradient-4" x1="30.898" y1="22.136" x2="40.093" y2="31.33" gradientTransform="translate(-11.98 -7.342) scale(0.585 0.579)" gradientUnits="userSpaceOnUse">
      <stop offset="0" stop-color="#fff"/>
      <stop offset="1" stop-color="#dcdcdc"/>
    </linearGradient>
    <linearGradient id="linear-gradient-5" x1="8.967" y1="33.737" x2="18.13" y2="27.427" gradientTransform="matrix(0.923, 0, 0, -1.027, -3.944, 47.026)" xlink:href="#linear-gradient-2"/>
    <linearGradient id="linear-gradient-6" x1="25.847" y1="23.847" x2="48.347" y2="1.347" gradientTransform="matrix(1, 0, 0, -1, 0, 48)" gradientUnits="userSpaceOnUse">
      <stop offset="0" stop-color="#73b4c8"/>
      <stop offset="0.175" stop-color="#6aaec3"/>
      <stop offset="0.457" stop-color="#529eb5"/>
      <stop offset="0.809" stop-color="#2c839f"/>
      <stop offset="1" stop-color="#147391"/>
    </linearGradient>
    <linearGradient id="linear-gradient-7" x1="49.718" y1="42.344" x2="67.66" y2="26.235" xlink:href="#linear-gradient"/>
    <linearGradient id="linear-gradient-8" x1="23.876" y1="23.118" x2="28.118" y2="18.876" xlink:href="#linear-gradient-6"/>
    <linearGradient id="linear-gradient-9" x1="30.437" y1="33.191" x2="44.145" y2="23.001" xlink:href="#linear-gradient"/>
    <linearGradient id="linear-gradient-10" x1="35.187" y1="43" x2="54.209" y2="23.642" xlink:href="#linear-gradient"/>
  </defs>
  <g id="g1065">
    <path id="rect25" d="M.482.482H35.351V42.518H.482Z" stroke="#464646" stroke-miterlimit="10" stroke-width="0.965" fill="url(#linear-gradient)"/>
    <path id="path28" d="M14.149,8.5a.234.234,0,0,0-.032.313l.864,1.181L13.6,10.5a.236.236,0,0,0-.151.277l.343,1.418-1.473-.058a.234.234,0,0,0-.246.2l-.234,1.439-1.338-.6a.241.241,0,0,0-.3.091L9.426,14.5l-1-1.071a.24.24,0,0,0-.316-.031l-1.193.855L6.4,12.89a.239.239,0,0,0-.281-.148l-1.432.337.055-1.456a.241.241,0,0,0-.2-.244l-1.455-.231L3.7,9.828a.236.236,0,0,0-.093-.3L2.356,8.762l1.08-.991a.234.234,0,0,0,.031-.313L2.6,6.278l1.38-.507a.236.236,0,0,0,.15-.278L3.793,4.075l1.472.058a.238.238,0,0,0,.246-.2l.234-1.439L7.082,3.1a.241.241,0,0,0,.3-.091l.772-1.24,1,1.068a.241.241,0,0,0,.316.031l1.193-.854.512,1.366a.238.238,0,0,0,.281.148L12.9,3.19,12.84,4.647a.238.238,0,0,0,.2.243l1.455.232-.614,1.321a.236.236,0,0,0,.093.3l1.253.764Z" fill="url(#linear-gradient-2)"/>
    <path id="path30" d="M9.676,14.656a.3.3,0,0,1-.221.137H9.426a.294.294,0,0,1-.214-.093l-.971-1.035-1.154.827a.3.3,0,0,1-.256.042.29.29,0,0,1-.19-.173l-.482-1.285v4.55L8.617,15.8a.3.3,0,0,1,.351,0l2.458,1.824V13.91l-1-.455Z" fill="url(#linear-gradient-3)"/>
    <g id="g40">
      <path id="path36" d="M10.247,11.613a3.817,3.817,0,0,1-4.97-2.034A3.75,3.75,0,0,1,7.333,4.66,3.818,3.818,0,0,1,12.3,6.7h0A3.749,3.749,0,0,1,10.247,11.613Z" fill="url(#linear-gradient-4)"/>
      <path id="path38" d="M8.8,12.188a4.087,4.087,0,1,1,1.562-.309A4.139,4.139,0,0,1,8.8,12.188ZM8.787,4.66a3.475,3.475,0,1,0,.038,6.949,3.552,3.552,0,0,0,1.313-.26h0a3.462,3.462,0,0,0,1.916-4.533A3.512,3.512,0,0,0,8.787,4.66Z" fill="#6f6f6f"/>
    </g>
    <path id="polygon42" d="M11.133,6.4l-2.34,4.343L6.452,8.714l.585-.289L8.5,9.293l2.048-3.184Z" fill="#464646"/>
    <path id="rect896" d="M19.745,3.583H28.63a.038.038,0,0,1,.037.037v.823a.037.037,0,0,1-.037.036H19.745a.037.037,0,0,1-.037-.036V3.62A.038.038,0,0,1,19.745,3.583Z" fill="#464646"/>
    <path id="rect898" d="M17.194,6.271H31.452a.038.038,0,0,1,.038.037v.821a.038.038,0,0,1-.038.038H17.194a.038.038,0,0,1-.038-.038V6.308A.038.038,0,0,1,17.194,6.271Z" fill="#464646"/>
    <path id="rect900" d="M11.684,20.6H24.15a.037.037,0,0,1,.037.038v.82a.037.037,0,0,1-.037.038H11.684a.038.038,0,0,1-.038-.038v-.82A.038.038,0,0,1,11.684,20.6Z" fill="#464646"/>
    <path id="rect902" d="M4.507,25.146H31.326a.027.027,0,0,1,.028.027v.841a.027.027,0,0,1-.028.027H4.507a.028.028,0,0,1-.028-.027v-.841A.028.028,0,0,1,4.507,25.146Z" fill="#464646"/>
    <path id="rect902-1" d="M4.507,32.475H31.326a.028.028,0,0,1,.028.028v.84a.027.027,0,0,1-.028.028H4.507a.028.028,0,0,1-.028-.028V32.5A.029.029,0,0,1,4.507,32.475Z" fill="#464646"/>
    <path id="rect902-11" d="M4.507,28.729H31.326a.027.027,0,0,1,.028.028v.84a.028.028,0,0,1-.028.028H4.507a.029.029,0,0,1-.028-.028v-.84A.028.028,0,0,1,4.507,28.729Z" fill="#464646"/>
    <path id="path1062" d="M6.091,15.4c0-1.375.011-2.489.024-2.474s.121.318.24.673a6.434,6.434,0,0,0,.273.727c.134.188.388.084.987-.4l.6-.483.56.644c.533.615.675.713.849.591a6.072,6.072,0,0,0,.465-.751c.216-.385.405-.7.42-.706a4.368,4.368,0,0,1,.507.236l.478.243v2.067c0,1.136-.012,2.066-.028,2.066s-.592-.465-1.282-1.033A9.582,9.582,0,0,0,8.8,15.762a5.547,5.547,0,0,0-1,.721L6.512,17.551l-.421.347Z" fill="url(#linear-gradient-5)"/>
    <path id="path1072" d="M17.649,39.816l.282-.193c0-.018-.011-.04,0-.056.059-.088.161-.14.225-.225a.8.8,0,0,0,.057-.113l.056-.113a1.971,1.971,0,0,0,.113-.225c.006-.018-.009-.04,0-.057s.044-.032.056-.056c.027-.053.03-.116.056-.169s.1-.062.113-.113c.012-.035-.017-.079,0-.113.009-.016.043.014.056,0s0-.075,0-.056-.008.256,0,.282c.059.176.038-.019.113.056.013.014-.013.043,0,.057s.043-.014.056,0-.016.048,0,.056c.034.017.076,0,.113,0h.789a.457.457,0,0,0,.169,0c.05-.02.07-.081.113-.113s.078-.033.113-.056c.111-.075.112-.168.112-.282,0-.019.014-.043,0-.056-.037-.038-.107.04-.112.056-.012.036.009.076,0,.113s-.047.072-.057.113a2.192,2.192,0,0,0,0,.281c0,.019-.013.043,0,.057s.043-.014.057,0-.014.043,0,.056.037,0,.056,0h.225c.014-.013,0-.038,0-.056v.338a.475.475,0,0,0,0,.113.459.459,0,0,0,.17.225c.033.025.077.033.112.056s.033.045.057.057.039-.009.056,0,.033.044.056.056.038,0,.057,0h.958a1.408,1.408,0,0,0,.225,0c.083-.014.146-.086.226-.113.017-.006.043.014.056,0s-.019-.056,0-.056-.019.056,0,.056.033-.044.056-.056.04.008.057,0c.1-.051.033-.043.056-.113.013-.04.043-.073.056-.112.006-.018-.013-.044,0-.057s.043.013.057,0-.014-.043,0-.056a.045.045,0,0,1,.056,0c.013.013-.013.043,0,.056s.038,0,.056,0h2.029c.019,0,.043.013.057,0s0-.037,0-.056.008-.04,0-.057-.038-.037-.057-.056-.029-.056-.056-.056,0,.037,0,.056-.013.043,0,.056.038,0,.056,0c.144,0,.075-.065.169-.112.166-.083-.074.13.113-.057" fill="none" stroke="#464646" stroke-width="0.448"/>
    <path id="path32" d="M5.574,13.171V18.2a.293.293,0,0,0,.468.232L8.793,16.4l2.75,2.041a.29.29,0,0,0,.175.058.294.294,0,0,0,.131-.031.289.289,0,0,0,.162-.259v-4.2c-.012.009.013-.008,0,0a.208.208,0,0,0,.117-.181l.227-1.394,1.426.054a.326.326,0,0,0,.238-.106.288.288,0,0,0,.058-.251l-.331-1.372,1.337-.491a.288.288,0,0,0,.172-.372.255.255,0,0,0-.037-.069l-.836-1.143,1.046-.961a.287.287,0,0,0,.016-.409.325.325,0,0,0-.061-.05l-1.214-.739.592-1.281a.288.288,0,0,0-.146-.384.308.308,0,0,0-.073-.022l-1.409-.224L13.187,3.2a.29.29,0,0,0-.281-.3.262.262,0,0,0-.079.008l-1.388.328-.495-1.324a.293.293,0,0,0-.376-.171.277.277,0,0,0-.07.037l-1.155.828L8.372,1.569a.294.294,0,0,0-.413-.015.319.319,0,0,0-.05.06l-.747,1.2L5.867,2.228a.293.293,0,0,0-.387.144.27.27,0,0,0-.023.073L5.23,3.839,3.8,3.785a.275.275,0,0,0-.237.106.289.289,0,0,0-.059.251l.331,1.374L2.5,6.006a.288.288,0,0,0-.173.372.28.28,0,0,0,.038.07L3.2,7.591,2.157,8.55a.288.288,0,0,0-.015.409.267.267,0,0,0,.061.05l1.213.739L2.824,11.03a.287.287,0,0,0,.008.257.293.293,0,0,0,.212.15l1.408.224L4.4,13.072a.29.29,0,0,0,.284.3.277.277,0,0,0,.076-.008m6.667,4.265L8.968,15.8a.3.3,0,0,0-.351,0L6.159,17.626v-4.55l.482,1.284a.294.294,0,0,0,.19.174.3.3,0,0,0,.256-.042l1.154-.827L9.212,14.7a.3.3,0,0,0,.214.093h.029a.3.3,0,0,0,.221-.137l.747-1.2,1,.456ZM13.95,8.287a.524.524,0,0,0-.07.695l.638.872-1.018.374a.525.525,0,0,0-.334.616l.252,1.048-1.08-.041a.519.519,0,0,0-.552.443l-.176,1.063-.985-.445a.536.536,0,0,0-.676.2l-.571.913-.738-.787a.531.531,0,0,0-.7-.071l-.881.631L6.678,12.8a.528.528,0,0,0-.624-.332L5,12.713l.04-1.077a.532.532,0,0,0-.448-.539l-1.075-.17.454-.977a.526.526,0,0,0-.206-.67l-.925-.564.8-.731a.524.524,0,0,0,.07-.7l-.639-.872,1.019-.374a.526.526,0,0,0,.334-.616L4.166,4.38l1.088.041A.526.526,0,0,0,5.8,3.978l.175-1.063.988.448a.536.536,0,0,0,.675-.2l.57-.916.741.789a.537.537,0,0,0,.7.069l.881-.631.378,1.007a.534.534,0,0,0,.624.332l1.057-.251L12.55,4.637A.53.53,0,0,0,13,5.175l1.075.174-.453.977a.524.524,0,0,0,.2.669l.926.564Z" fill="#474647"/>
    <path id="rect25-8" d="M16.387,13H47.5V47.5H16.387Z" stroke="#464646" stroke-miterlimit="10" fill="url(#linear-gradient-6)"/>
    <path id="line29" d="M20.887,33.4h2" fill="none" stroke="#fff" stroke-miterlimit="10"/>
    <path id="line31" d="M20.887,39.4h2" fill="none" stroke="#fff" stroke-miterlimit="10"/>
    <path id="line33" d="M20.887,30.4h2" fill="none" stroke="#fff" stroke-miterlimit="10"/>
    <path id="line35" d="M20.887,27.4h2" fill="none" stroke="#fff" stroke-miterlimit="10"/>
    <path id="line37" d="M20.887,24.4h4" fill="none" stroke="#fff" stroke-miterlimit="10"/>
    <path id="line39" d="M20.887,21.4h2" fill="none" stroke="#fff" stroke-miterlimit="10"/>
    <path id="path862" d="M20.62,30.393l-1.863,1.3L16.894,33l.007-2.623.008-2.624,1.855,1.32Z" fill="#fff"/>
    <path id="line27" d="M20.887,36.4h4" fill="none" stroke="#fff" stroke-miterlimit="10"/>
    <path id="path38-4-7" d="M36.47,45.381l1-.982H42.12l1,.982A5.754,5.754,0,0,0,45.443,40.8a5.65,5.65,0,0,0-11.3.033A5.69,5.69,0,0,0,36.47,45.381Z" stroke="#6e6e6e" stroke-miterlimit="10" stroke-width="1" fill="url(#linear-gradient-7)"/>
    <path id="line40-8" d="M39.128,40.145l-1.828-1.8" fill="none" stroke="#147391" stroke-width="0.8"/>
    <path id="circle53-6" d="M40.79,40.8a.99.99,0,0,1-1,.982h0a.99.99,0,0,1-1-.982h0a.989.989,0,0,1,1-.981h0a.989.989,0,0,1,1,.981Z" fill="url(#linear-gradient-8)"/>
    <path id="path1342" d="M33.942,18.718V16.824H45.2l-.04,1.614-.041,1.614-.234.28-.234.28H33.942Z" fill="url(#linear-gradient-9)"/>
    <path id="rect1309" d="M32.909,16v5H46V16ZM34,17H44.909v3H34Z" fill="#6e6e6e"/>
    <path id="rect1354" d="M35,18.969h1V20H35Z" fill="#147391"/>
    <path id="circle39" d="M45.4,28a5.53,5.53,0,1,1-5.53-5.529A5.529,5.529,0,0,1,45.4,28Z" stroke="#6e6e6e" stroke-miterlimit="10" stroke-width="0.942" fill="url(#linear-gradient-10)"/>
    <path id="polygon47" d="M39.272,28.171V24.137h.717v3.839l2.137,2.12-.484.469-2.3-2.219Z" fill="#147391"/>
    <path id="rect1354-1" d="M39.066,19h1v1.031h-1Z" fill="#147391"/>
    <path id="rect1354-1-4" d="M37,18h1v2H37Z" fill="#147391"/>
    <path id="rect1354-1-4-6" d="M41,18.046h1v2H41Z" fill="#147391"/>
    <path id="rect1354-1-7" d="M43.1,18.969h1V20h-1Z" fill="#147391"/>
    <path id="rect1416" d="M28,17v3h3V17Zm1,1h1v1H29Z" fill="#fff"/>
    <path id="rect1416-1" d="M28,27v3h3V27Zm1,1h1v1H29Z" fill="#fff"/>
    <path id="rect1416-1-2" d="M28,37.972v3h3v-3Zm1,1h1v1H29Z" fill="#fff"/>
    <path id="line33-7" d="M20.848,18.4h2" fill="none" stroke="#fff" stroke-miterlimit="10"/>
    <path id="line35-8" d="M20.848,15.4h2" fill="none" stroke="#fff" stroke-miterlimit="10"/>
    <path id="line29-8" d="M20.9,45.41h2" fill="none" stroke="#fff" stroke-miterlimit="10"/>
    <path id="line33-76" d="M20.9,42.41h2" fill="none" stroke="#fff" stroke-miterlimit="10"/>
  </g>
</svg>
