<svg id="Livello_2" data-name="Livello 2" xmlns="http://www.w3.org/2000/svg" xmlns:xlink="http://www.w3.org/1999/xlink" viewBox="0 0 48 48">
  <defs>
    <linearGradient id="linear-gradient" x1="5.939" y1="41.867" x2="34.599" y2="18.624" gradientTransform="matrix(1, 0, 0, -1, 0, 48)" gradientUnits="userSpaceOnUse">
      <stop offset="0" stop-color="#fff"/>
      <stop offset="1" stop-color="#bebdbd"/>
    </linearGradient>
    <linearGradient id="linear-gradient-2" x1="281.911" y1="340.102" x2="247.58" y2="323.736" gradientTransform="translate(-274.925 -315.672) scale(1.057 1.023)" gradientUnits="userSpaceOnUse">
      <stop offset="0" stop-color="#74b5c8"/>
      <stop offset="1" stop-color="#74b5c8" stop-opacity="0"/>
    </linearGradient>
  </defs>
  <g id="g861">
    <path id="rect842" d="M36.732,10.431l.023-1.114a1.831,1.831,0,0,1,2.3.541L46.98,21.515a1.346,1.346,0,0,1-.571,2L44.132,24.67a1.83,1.83,0,0,1-2.3-.541L33.907,12.473C33.428,11.77,35.937,10.834,36.732,10.431Z" fill="#74b5c8"/>
    <path id="path934-4" d="M15.534,25.363l-.483-1.725-6.645-.186L2.52,23.431l1.824-3.118,1.824-3.12,4.363-5.9,14.836-.142,8.417.328,3.385-.091s8.5,12.072,8.5,12.1-4.873.06-8.184.06h-6.02v2.583l-8.885.349-7.687.12Z" fill="url(#linear-gradient)"/>
    <path id="path847-2" d="M10.1,9.07c.032.181,13.929.045,25.574.208l1.579.42-.45.914c-.354.721-6.177.363-7.13.329-.51-.125-9.083.27-10.96.009l-8.726-.06.037-.911A5.393,5.393,0,0,1,10.1,9.07Z" fill="#74b5c8"/>
    <path id="path847" d="M.333,23.543c0-.031,8.4-12.553,8.958-13.539l.2-.355.914.038c.721.03.231.479.2.56-.024.056-5.685,8.379-6.665,10.163L2.153,23.657l-.911-.037A5.326,5.326,0,0,1,.333,23.543Z" fill="#74b5c8"/>
    <path id="path954" d="M.551,33.441c0-4.6-.022-8.659-.05-9.03l-.049-.674H7.387l8.116-.11.088,2.615a29.148,29.148,0,0,0,.591,5.022,6.15,6.15,0,0,0,1.5.9c.1.011,11.972.2,12.046.094.031-.041,1.55-.877,1.6-.877a16.326,16.326,0,0,0,.744-2.25c.083-.081-.121-.055-.075-2.8v-2.6l8.588-.4,6.959.4V41.8h-47Z" fill="url(#linear-gradient-2)"/>
    <path id="rect896" d="M0,22.952H16V24H0Z" fill="#464646"/>
    <path id="path846" d="M45,22.941c3,.011,3.051-.034,3.051-.034" fill="none" stroke="#f40000" stroke-width="0.01"/>
    <path id="path848" d="M5.281,16.367C7.657,12.743,9.618,9.83,9.639,9.805c.035-.043.377,0,6.516,0l9.256,0V8.851l-6.937,0c-2.289.009-5.331.036-6.759,0h-2.6l-4.555,7L0,22.952c.338.037.628-.005.961,0Z" fill="#464646"/>
    <path id="path850" d="M6.811,17.157l3.862-5.716H25.411v-.869c-.008-.008-5.585.007-8.988,0H10.236c-1.183,1.71-2.044,2.93-2.873,4.185C5.607,17.416,2.147,22.7,2,22.944c-.015.025.09.012.469.012H2.95Z" fill="#464646"/>
    <path id="path8" d="M25.311,8.851V9.8H38.29L47,22.952H46s-8.156-12.383-8.279-12.38-12.41,0-12.41,0v.869H37.268L45,22.941l-13.582.011L31.4,25.985H16V23.859l-1,.051V28c0,1.448-.441,4.66,3.187,4.66H29.8c2.406,0,2.6-2.206,2.6-4.81L32.426,24H47V41.093H1V23.859H0V42H48V22.952L38.85,8.893ZM16,27H31.4v1.848H16Zm0,3H31.4c-.18.684-.606,1.66-1.4,1.66H18C16.868,31.66,15.92,30.861,16,30Z" fill="#464646"/>
  </g>
</svg>
