<svg id="Image" xmlns="http://www.w3.org/2000/svg" xmlns:xlink="http://www.w3.org/1999/xlink" viewBox="0 0 48 48">
  <defs>
    <linearGradient id="linear-gradient" x1="0.617" y1="4.276" x2="45.035" y2="42.694" gradientTransform="translate(0 2)" gradientUnits="userSpaceOnUse">
      <stop offset="0" stop-color="#fff"/>
      <stop offset="0.221" stop-color="#fbfbfc"/>
      <stop offset="0.541" stop-color="#ececec"/>
      <stop offset="0.92" stop-color="#d0cecd"/>
      <stop offset="1" stop-color="#c9c6c5"/>
    </linearGradient>
    <linearGradient id="linear-gradient-2" x1="12.884" y1="35.582" x2="38.208" y2="8.834" gradientTransform="matrix(1, 0, 0, -1, 0, 48)" gradientUnits="userSpaceOnUse">
      <stop offset="0" stop-color="#73b4c8"/>
      <stop offset="0.175" stop-color="#6aaec3"/>
      <stop offset="0.457" stop-color="#529eb5"/>
      <stop offset="0.809" stop-color="#2c839f"/>
      <stop offset="1" stop-color="#147391"/>
    </linearGradient>
  </defs>
  <g id="g852">
    <g id="g39">
      <path id="path35" d="M1.5,43h45V10h-27L16.094,4.891A2,2,0,0,0,14.43,4H3.5a2,2,0,0,0-2,2Z" fill="url(#linear-gradient)"/>
      <path id="path37" d="M47,43.5H1V6A2.5,2.5,0,0,1,3.5,3.5H14.43a2.493,2.493,0,0,1,2.08,1.114L19.768,9.5H47Zm-45-1H46v-32H19.232L15.678,5.168A1.5,1.5,0,0,0,14.43,4.5H3.5A1.5,1.5,0,0,0,2,6Z" fill="#4e4a48"/>
    </g>
    <path id="path13" d="M33.091,33.818H25.136L19.455,39.5V33.818H14.909A3.419,3.419,0,0,1,11.5,30.409v-12.5A3.419,3.419,0,0,1,14.909,14.5H33.091A3.419,3.419,0,0,1,36.5,17.909v12.5A3.419,3.419,0,0,1,33.091,33.818Z" stroke="#464646" stroke-linecap="round" stroke-linejoin="round" fill="url(#linear-gradient-2)"/>
    <g id="text861">
      <path id="path843" d="M22.735,27.759a4.463,4.463,0,0,1-.177-.721,5.067,5.067,0,0,1-.078-.877,2.749,2.749,0,0,1,.266-1.221,5.294,5.294,0,0,1,.677-1.032q.411-.477.877-.921t.877-.866a4.472,4.472,0,0,0,.677-.887,1.959,1.959,0,0,0,.277-1.021,1.784,1.784,0,0,0-.2-.866,1.715,1.715,0,0,0-.555-.621,2.353,2.353,0,0,0-.8-.378,3.6,3.6,0,0,0-.954-.122A4.475,4.475,0,0,0,20.471,19.7V17.139a7.375,7.375,0,0,1,3.773-1.066,6.042,6.042,0,0,1,1.7.233,4.283,4.283,0,0,1,1.4.688,3.262,3.262,0,0,1,.943,1.132,3.442,3.442,0,0,1,.344,1.576,3.782,3.782,0,0,1-.289,1.521,5.576,5.576,0,0,1-.732,1.231,6.715,6.715,0,0,1-.943.988q-.5.434-.944.866a5,5,0,0,0-.721.9,1.927,1.927,0,0,0-.288,1.033,2.856,2.856,0,0,0,.122.865,5.544,5.544,0,0,0,.244.655ZM24,32.453a1.641,1.641,0,0,1-1.121-.433,1.353,1.353,0,0,1-.466-1.043,1.331,1.331,0,0,1,.466-1.043,1.623,1.623,0,0,1,2.231,0,1.328,1.328,0,0,1,.466,1.043,1.35,1.35,0,0,1-.466,1.043A1.624,1.624,0,0,1,24,32.453Z" fill="#fff" stroke="#147391" stroke-width="1.2"/>
    </g>
  </g>
</svg>
