<svg id="Image" xmlns="http://www.w3.org/2000/svg" xmlns:xlink="http://www.w3.org/1999/xlink" viewBox="0 0 48 48">
  <defs>
    <linearGradient id="New_Gradient_Swatch_1" data-name="New Gradient Swatch 1" x1="16.574" y1="11.034" x2="23.641" y2="3.966" gradientTransform="matrix(1, 0, 0, -1, 0, 50)" gradientUnits="userSpaceOnUse">
      <stop offset="0" stop-color="#7eb8cd"/>
      <stop offset="1" stop-color="#097091"/>
    </linearGradient>
    <linearGradient id="New_Gradient_Swatch_1-2" x1="0.615" y1="10.238" x2="5.448" y2="10.238" xlink:href="#New_Gradient_Swatch_1"/>
    <linearGradient id="New_Gradient_Swatch_1-3" x1="28.745" y1="13.968" x2="33.578" y2="13.968" xlink:href="#New_Gradient_Swatch_1"/>
    <linearGradient id="New_Gradient_Swatch_1-4" x1="19.497" y1="47.083" x2="24.33" y2="47.083" xlink:href="#New_Gradient_Swatch_1"/>
    <linearGradient id="New_Gradient_Swatch_1-5" x1="31.856" y1="38.644" x2="36.69" y2="38.644" xlink:href="#New_Gradient_Swatch_1"/>
    <linearGradient id="New_Gradient_Swatch_1-6" x1="42.667" y1="23.458" x2="47.5" y2="23.458" xlink:href="#New_Gradient_Swatch_1"/>
    <linearGradient id="New_Gradient_Swatch_1-7" x1="6.067" y1="25.052" x2="10.9" y2="25.052" xlink:href="#New_Gradient_Swatch_1"/>
    <linearGradient id="New_Gradient_Swatch_1-8" x1="51.554" y1="-7.182" x2="60.775" y2="-7.182" gradientTransform="matrix(0.9, 0, 0, -0.9, -40.091, 2.536)" xlink:href="#New_Gradient_Swatch_1"/>
    <linearGradient id="New_Gradient_Swatch_1-9" x1="18.817" y1="32.56" x2="26.817" y2="32.56" xlink:href="#New_Gradient_Swatch_1"/>
    <linearGradient id="New_Gradient_Swatch_1-10" x1="28.245" y1="11.825" x2="34.078" y2="11.825" xlink:href="#New_Gradient_Swatch_1"/>
    <linearGradient id="New_Gradient_Swatch_1-11" x1="28.245" y1="15.993" x2="34.078" y2="15.993" xlink:href="#New_Gradient_Swatch_1"/>
    <linearGradient id="New_Gradient_Swatch_1-12" x1="28.245" y1="12.219" x2="34.078" y2="12.219" xlink:href="#New_Gradient_Swatch_1"/>
    <linearGradient id="New_Gradient_Swatch_1-13" x1="18.997" y1="45.271" x2="24.83" y2="45.271" xlink:href="#New_Gradient_Swatch_1"/>
    <linearGradient id="New_Gradient_Swatch_1-14" x1="42.167" y1="26.22" x2="48" y2="26.22" xlink:href="#New_Gradient_Swatch_1"/>
    <linearGradient id="New_Gradient_Swatch_1-15" x1="42.167" y1="25.793" x2="48" y2="25.793" xlink:href="#New_Gradient_Swatch_1"/>
  </defs>
  <g>
    <g>
      <circle cx="20.107" cy="42.5" r="5" fill="url(#New_Gradient_Swatch_1)"/>
      <path d="M20.107,38a4.5,4.5,0,1,1-4.5,4.5,4.5,4.5,0,0,1,4.5-4.5m0-1a5.5,5.5,0,1,0,5.5,5.5,5.5,5.5,0,0,0-5.5-5.5Z" fill="#464646"/>
    </g>
    <g>
      <path d="M3.031,42.179a2.417,2.417,0,1,1,2.417-2.417A2.419,2.419,0,0,1,3.031,42.179Z" fill="url(#New_Gradient_Swatch_1-2)"/>
      <path d="M3.032,37.846a1.917,1.917,0,1,1-1.917,1.916,1.918,1.918,0,0,1,1.917-1.916m0-1a2.917,2.917,0,1,0,2.916,2.916,2.916,2.916,0,0,0-2.916-2.916Z" fill="#464646"/>
    </g>
    <g>
      <path d="M31.161,38.448a2.417,2.417,0,1,1,2.417-2.416A2.419,2.419,0,0,1,31.161,38.448Z" fill="url(#New_Gradient_Swatch_1-3)"/>
      <path d="M31.161,34.115a1.917,1.917,0,1,1-1.916,1.917,1.919,1.919,0,0,1,1.916-1.917m0-1a2.917,2.917,0,1,0,2.917,2.917,2.917,2.917,0,0,0-2.917-2.917Z" fill="#464646"/>
    </g>
    <g>
      <path d="M21.913,5.333A2.417,2.417,0,1,1,24.33,2.917,2.419,2.419,0,0,1,21.913,5.333Z" fill="url(#New_Gradient_Swatch_1-4)"/>
      <path d="M21.913,1A1.917,1.917,0,1,1,20,2.917,1.919,1.919,0,0,1,21.913,1m0-1A2.917,2.917,0,1,0,24.83,2.917,2.917,2.917,0,0,0,21.913,0Z" fill="#464646"/>
    </g>
    <g>
      <circle cx="34.273" cy="11.356" r="2.417" fill="url(#New_Gradient_Swatch_1-5)"/>
      <path d="M34.274,9.44a1.917,1.917,0,1,1-1.917,1.917A1.919,1.919,0,0,1,34.274,9.44m0-1a2.917,2.917,0,1,0,2.916,2.917A2.917,2.917,0,0,0,34.274,8.44Z" fill="#464646"/>
    </g>
    <g>
      <path d="M45.083,28.958A2.417,2.417,0,1,1,47.5,26.542,2.419,2.419,0,0,1,45.083,28.958Z" fill="url(#New_Gradient_Swatch_1-6)"/>
      <path d="M45.083,24.625a1.917,1.917,0,1,1-1.916,1.917,1.919,1.919,0,0,1,1.916-1.917m0-1A2.917,2.917,0,1,0,48,26.542a2.917,2.917,0,0,0-2.917-2.917Z" fill="#464646"/>
    </g>
    <g>
      <path d="M8.484,27.365A2.417,2.417,0,1,1,10.9,24.948,2.419,2.419,0,0,1,8.484,27.365Z" fill="url(#New_Gradient_Swatch_1-7)"/>
      <path d="M8.484,23.032a1.917,1.917,0,1,1-1.916,1.916,1.919,1.919,0,0,1,1.916-1.916m0-1A2.917,2.917,0,1,0,11.4,24.948a2.916,2.916,0,0,0-2.917-2.916Z" fill="#464646"/>
    </g>
    <circle cx="10.458" cy="9" r="4.15" stroke="#464646" stroke-linecap="round" stroke-linejoin="round" fill="url(#New_Gradient_Swatch_1-8)"/>
    <g>
      <circle cx="22.817" cy="17.44" r="4" fill="url(#New_Gradient_Swatch_1-9)"/>
      <path d="M22.818,13.94a3.5,3.5,0,1,1-3.5,3.5,3.5,3.5,0,0,1,3.5-3.5m0-1a4.5,4.5,0,1,0,4.5,4.5,4.5,4.5,0,0,0-4.5-4.5Z" fill="#464646"/>
    </g>
    <g>
      <path d="M5.946,39.74l0,.022a2.9,2.9,0,0,1-.175.963L14.622,42.2a5.548,5.548,0,0,1,.144-.989Z" fill="#969696"/>
      <path d="M28.938,37.9a2.919,2.919,0,0,1-.2-.237,2.952,2.952,0,0,1-.31-.627l-3.871,2.247a5.46,5.46,0,0,1,.509.861Z" fill="#969696"/>
      <path d="M16.74,38.158a5.52,5.52,0,0,1,.841-.54L10.5,27.052a2.918,2.918,0,0,1-.83.558Z" fill="#969696"/>
      <path d="M43.8,23.935,36.2,13.529a2.876,2.876,0,0,1-.851.533L42.987,24.52c.012-.013.021-.028.034-.041A2.927,2.927,0,0,1,43.8,23.935Z" fill="#969696"/>
      <path d="M14.539,11.181a4.635,4.635,0,0,1-.564.826l4.884,3.336a4.472,4.472,0,0,1,.564-.827Z" fill="#969696"/>
      <path d="M8.341,22.046c.048,0,.094-.014.143-.014a2.876,2.876,0,0,1,.849.14l1.058-8.529a4.628,4.628,0,0,1-.991-.126Z" fill="#969696"/>
      <path d="M19.794,4.91a2.9,2.9,0,0,1-.3-.363,2.879,2.879,0,0,1-.259-.476L14.364,6.5a4.621,4.621,0,0,1,.441.9Z" fill="#969696"/>
      <path d="M26.592,15a4.508,4.508,0,0,1,.438.9l5.125-2.551a2.923,2.923,0,0,1-.559-.839Z" fill="#969696"/>
      <path d="M28.938,37.9h0a2.982,2.982,0,0,0,.593.551A2.982,2.982,0,0,1,28.938,37.9Z" fill="url(#New_Gradient_Swatch_1-10)"/>
      <path d="M29.531,33.613a2.939,2.939,0,0,0-.788.788A2.939,2.939,0,0,1,29.531,33.613Z" fill="url(#New_Gradient_Swatch_1-11)"/>
      <path d="M28.743,37.663a2.919,2.919,0,0,0,.2.237h0A2.919,2.919,0,0,1,28.743,37.663Z" fill="#969696"/>
      <path d="M28.743,37.663a2.919,2.919,0,0,0,.2.237h0A2.919,2.919,0,0,1,28.743,37.663Z" fill="url(#New_Gradient_Swatch_1-12)"/>
      <path d="M19.5,4.547a2.9,2.9,0,0,0,.3.363h0A2.9,2.9,0,0,1,19.5,4.547Z" fill="#969696"/>
      <path d="M19.5,4.547a2.9,2.9,0,0,0,.3.363h0A2.9,2.9,0,0,1,19.5,4.547Z" fill="url(#New_Gradient_Swatch_1-13)"/>
      <path d="M45.083,23.625a2.888,2.888,0,0,0-1.284.31h0A2.888,2.888,0,0,1,45.083,23.625Z" fill="url(#New_Gradient_Swatch_1-14)"/>
      <path d="M43.8,23.935h0a2.927,2.927,0,0,0-.778.544A2.927,2.927,0,0,1,43.8,23.935Z" fill="#969696"/>
      <path d="M43.8,23.935h0a2.927,2.927,0,0,0-.778.544A2.927,2.927,0,0,1,43.8,23.935Z" fill="url(#New_Gradient_Swatch_1-15)"/>
      <path d="M10.547,22.886a2.907,2.907,0,0,0-1.214-.714h0A2.907,2.907,0,0,1,10.547,22.886Z" fill="#464646"/>
      <path d="M8.484,27.865a2.9,2.9,0,0,0,1.183-.255h0A2.9,2.9,0,0,1,8.484,27.865Z" fill="#464646"/>
      <path d="M10.5,27.052c.015-.015.034-.026.05-.041-.016.015-.035.026-.05.041Z" fill="#464646"/>
      <path d="M9.667,27.61h0a2.918,2.918,0,0,0,.83-.558h0A2.918,2.918,0,0,1,9.667,27.61Z" fill="#464646"/>
      <path d="M9.333,22.172h0a2.876,2.876,0,0,0-.849-.14A2.881,2.881,0,0,1,9.333,22.172Z" fill="#464646"/>
    </g>
  </g>
</svg>
