<svg id="Livello_2" data-name="Livello 2" xmlns="http://www.w3.org/2000/svg" xmlns:xlink="http://www.w3.org/1999/xlink" viewBox="0 0 48 48">
  <defs>
    <linearGradient id="linear-gradient" x1="-236.349" y1="1120.761" x2="-262.349" y2="1094.761" gradientTransform="translate(-225.6 1114.01) rotate(180)" gradientUnits="userSpaceOnUse">
      <stop offset="0" stop-color="#f3f3f3"/>
      <stop offset="0.5" stop-color="#cdcccc"/>
      <stop offset="0.63" stop-color="#c8c7c7"/>
      <stop offset="0.779" stop-color="#bababa"/>
      <stop offset="0.938" stop-color="#a2a2a1"/>
      <stop offset="0.99" stop-color="#989898"/>
    </linearGradient>
    <linearGradient id="linear-gradient-2" x1="-226.1" y1="1109.274" x2="-265.16" y2="1079.533" gradientTransform="translate(-225.6 1114.01) rotate(180)" gradientUnits="userSpaceOnUse">
      <stop offset="0" stop-color="#fff"/>
      <stop offset="0.232" stop-color="#fafafa"/>
      <stop offset="0.496" stop-color="#ededed"/>
      <stop offset="0.775" stop-color="#d7d6d6"/>
      <stop offset="1" stop-color="#bfbebe"/>
    </linearGradient>
    <linearGradient id="linear-gradient-3" x1="26.182" y1="23.339" x2="42.899" y2="3.564" gradientTransform="matrix(1, 0, 0, -1, 0, 48)" gradientUnits="userSpaceOnUse">
      <stop offset="0" stop-color="#73b4c8"/>
      <stop offset="0.175" stop-color="#6aaec3"/>
      <stop offset="0.457" stop-color="#529eb5"/>
      <stop offset="0.809" stop-color="#2c839f"/>
      <stop offset="1" stop-color="#147391"/>
    </linearGradient>
  </defs>
  <g id="g863">
    <path id="rect26" d="M39.583,4.583H.417V.417H39.583Z" stroke="#474747" stroke-miterlimit="10" stroke-width="0.833" fill="url(#linear-gradient)"/>
    <path id="rect28" d="M39.583,34.583H.417v-30H39.583Z" stroke="#474747" stroke-miterlimit="10" stroke-width="0.833" fill="url(#linear-gradient-2)"/>
    <path id="line30" d="M4.167,11.25h20" fill="none" stroke="#187491" stroke-miterlimit="10" stroke-width="0.833"/>
    <path id="line32" d="M4.167,15.417H20.833" fill="none" stroke="#187491" stroke-miterlimit="10" stroke-width="0.833"/>
    <path id="line34" d="M4.167,19.583h10" fill="none" stroke="#187491" stroke-miterlimit="10" stroke-width="0.833"/>
    <path id="line36" d="M4.167,23.75h15" fill="none" stroke="#187491" stroke-miterlimit="10" stroke-width="0.833"/>
    <path id="line38" d="M4.167,27.917h20" fill="none" stroke="#187491" stroke-miterlimit="10" stroke-width="0.833"/>
    <path id="rect40" d="M36.667,1.667h1.666V3.333H36.667Z" fill="#6f6f6f"/>
    <path id="rect42" d="M33.333,1.667H35V3.333H33.333Z" fill="#6f6f6f"/>
    <path id="rect44" d="M30,1.667h1.667V3.333H30Z" fill="#6f6f6f"/>
    <path id="circle90" d="M47.481,34.5A12.981,12.981,0,0,1,34.5,47.481h0A12.981,12.981,0,0,1,21.519,34.5h0a12.981,12.981,0,0,1,25.962,0Z" stroke="#464646" stroke-linecap="round" stroke-linejoin="round" stroke-width="1.038" fill="url(#linear-gradient-3)"/>
    <path id="path847" d="M35,24.021v3.006a7.513,7.513,0,0,1,3.035.877l1.772-2.439A10.5,10.5,0,0,0,35,24.021Zm6.4,2.588-1.768,2.434a7.5,7.5,0,0,1,2.008,3.168l2.965-.5A10.506,10.506,0,0,0,41.4,26.609Zm3.556,7.03-2.971.5c.009.12.015.24.018.361a7.5,7.5,0,0,1-1.06,3.826l2.279,2.008A10.5,10.5,0,0,0,45,34.5Q44.992,34.068,44.951,33.639Zm-20.926,1.3A10.5,10.5,0,0,0,33.086,44.9l-.035-3.041a7.5,7.5,0,0,1-6.033-6.918Zm15.7,4.937a7.491,7.491,0,0,1-4.72,2.107l.033,2.989a10.5,10.5,0,0,0,6.939-3.114Z" fill="#fff" stroke="#4d9ab2" stroke-linejoin="round" stroke-width="0.008"/>
  </g>
</svg>
