<svg id="Image" xmlns="http://www.w3.org/2000/svg" xmlns:xlink="http://www.w3.org/1999/xlink" viewBox="0 0 48 48">
  <defs>
    <linearGradient id="linear-gradient" x1="0.601" y1="4.298" x2="44.515" y2="42.212" gradientTransform="translate(0 2)" gradientUnits="userSpaceOnUse">
      <stop offset="0" stop-color="#fff"/>
      <stop offset="0.221" stop-color="#fbfbfc"/>
      <stop offset="0.541" stop-color="#ececec"/>
      <stop offset="0.92" stop-color="#d0cecd"/>
      <stop offset="1" stop-color="#c9c6c5"/>
    </linearGradient>
    <linearGradient id="linear-gradient-2" x1="9.567" y1="13.97" x2="31.163" y2="42.356" gradientUnits="userSpaceOnUse">
      <stop offset="0" stop-color="#fff"/>
      <stop offset="0.232" stop-color="#fafafa"/>
      <stop offset="0.496" stop-color="#ededed"/>
      <stop offset="0.775" stop-color="#d6d6d6"/>
      <stop offset="1" stop-color="#bebebe"/>
    </linearGradient>
    <linearGradient id="linear-gradient-3" x1="23.069" y1="14.505" x2="31.09" y2="22.527" gradientUnits="userSpaceOnUse">
      <stop offset="0" stop-color="#fff"/>
      <stop offset="0.221" stop-color="#f8f8f8"/>
      <stop offset="0.541" stop-color="#e5e5e5"/>
      <stop offset="0.92" stop-color="#c6c6c6"/>
      <stop offset="1" stop-color="#bebebe"/>
    </linearGradient>
    <linearGradient id="linear-gradient-4" x1="20.134" y1="14.895" x2="28.887" y2="5.854" gradientTransform="matrix(1, 0, 0, -1, 0, 48)" gradientUnits="userSpaceOnUse">
      <stop offset="0" stop-color="#74b3c7"/>
      <stop offset="0.177" stop-color="#6badc2"/>
      <stop offset="0.464" stop-color="#539db4"/>
      <stop offset="0.822" stop-color="#2d839d"/>
      <stop offset="1" stop-color="#177490"/>
    </linearGradient>
    <linearGradient id="linear-gradient-5" x1="30.731" y1="31.597" x2="45.808" y2="16.065" xlink:href="#linear-gradient-3"/>
  </defs>
  <g id="g39">
    <path id="path35" d="M1.5,43h45V10h-27L16.094,4.891A2,2,0,0,0,14.43,4H3.5a2,2,0,0,0-2,2Z" fill="url(#linear-gradient)"/>
    <path id="path37" d="M47,43.5H1V6A2.5,2.5,0,0,1,3.5,3.5H14.43a2.493,2.493,0,0,1,2.08,1.114L19.768,9.5H47Zm-45-1H46v-32H19.232L15.678,5.168A1.5,1.5,0,0,0,14.43,4.5H3.5A1.5,1.5,0,0,0,2,6Z" fill="#4e4a48"/>
  </g>
  <path id="polygon35" d="M11.5,40.886H33.1V20.522L25.074,12.5H11.5Z" stroke="#464646" stroke-miterlimit="10" stroke-width="0.972" fill="url(#linear-gradient-2)"/>
  <path id="polygon37" d="M25.074,12.5v8.023H33.1Z" stroke="#464646" stroke-linejoin="round" stroke-width="0.972" fill="url(#linear-gradient-3)"/>
  <path id="rect39" d="M14.585,35.332H30.011V37.8H14.585Z" fill="none" stroke="#464646" stroke-miterlimit="10"/>
  <path id="rect41" d="M14.585,31.012H30.011v2.469H14.585Z" fill="none" stroke="#464646" stroke-miterlimit="10"/>
  <path id="rect43" d="M14.585,26.693H30.011v2.468H14.585Z" fill="none" stroke="#464646" stroke-miterlimit="10"/>
  <path id="rect45" d="M14.585,22.373H30.011v2.468H14.585Z" fill="none" stroke="#464646" stroke-miterlimit="10"/>
  <path id="_Compound_Path_" data-name=" Compound Path " d="M27.032,33.375,21.117,39.29a1.235,1.235,0,0,0,0,1.746h0l.105.1a1.234,1.234,0,0,0,1.746,0h0l5.915-5.915" stroke="#464646" stroke-miterlimit="10" fill="url(#linear-gradient-4)"/>
  <path id="circle48" d="M40.5,29.161a7.4,7.4,0,1,1-7.4-7.405A7.4,7.4,0,0,1,40.5,29.161Z" stroke="#464646" stroke-linecap="round" stroke-linejoin="round" fill="url(#linear-gradient-5)"/>
</svg>
