<svg id="Image" xmlns="http://www.w3.org/2000/svg" xmlns:xlink="http://www.w3.org/1999/xlink" viewBox="0 0 48 48">
  <defs>
    <linearGradient id="Siemens_-_Mid_gray" data-name="Siemens - Mid gray" x1="6.975" y1="4.669" x2="35.302" y2="32.996" gradientUnits="userSpaceOnUse">
      <stop offset="0" stop-color="#fff"/>
      <stop offset="1" stop-color="#bebdbd"/>
    </linearGradient>
    <linearGradient id="New_Gradient_Swatch_1" data-name="New Gradient Swatch 1" x1="14.416" y1="30.296" x2="35.586" y2="51.466" gradientUnits="userSpaceOnUse">
      <stop offset="0" stop-color="#73b4c8"/>
      <stop offset="1" stop-color="#177492"/>
    </linearGradient>
    <linearGradient id="New_Gradient_Swatch_1-2" x1="5.749" y1="5.895" x2="15.019" y2="15.165" xlink:href="#New_Gradient_Swatch_1"/>
    <linearGradient id="linear-gradient" x1="29.864" y1="7.433" x2="36.058" y2="13.627" xlink:href="#New_Gradient_Swatch_1"/>
    <linearGradient id="Siemens_-_Mid_gray-2" x1="8.434" y1="7.912" x2="12.333" y2="11.811" xlink:href="#Siemens_-_Mid_gray"/>
    <linearGradient id="Siemens_-_Mid_gray-3" x1="7.367" y1="7.322" x2="40.635" y2="40.59" xlink:href="#Siemens_-_Mid_gray"/>
  </defs>
  <g>
    <path d="M30.16,7.252h-14.1a6.736,6.736,0,0,0-.458-.684l-.022-.03a6.548,6.548,0,0,0-1.153-1.164c-.021-.017-.043-.033-.065-.049a6.384,6.384,0,0,0-.587-.4c-.038-.023-.076-.048-.115-.07A6.484,6.484,0,0,0,12.2,4.236c-.065-.019-.132-.034-.2-.051-.194-.049-.39-.09-.591-.121-.075-.012-.149-.025-.225-.035a6.706,6.706,0,0,0-.806-.054A6.555,6.555,0,0,0,3.829,10.53a6.636,6.636,0,0,0,.048.763c.009.078.024.155.035.232.027.174.059.345.1.514.019.084.041.166.063.249.047.167.1.33.159.491.026.07.05.142.078.211a6.369,6.369,0,0,0,.3.654l0,0A6.336,6.336,0,0,0,5,14.266c.038.056.08.107.12.161.106.142.215.28.331.413q.076.087.156.171c.12.128.246.25.375.368.051.045.1.092.15.136a6.432,6.432,0,0,0,.572.44L18.992,37.288H31.01L17.478,13.807H30.16Z" fill="url(#Siemens_-_Mid_gray)"/>
    <path d="M9.295,36.378H40.707a2.32,2.32,0,0,1,2.32,2.32v5.327a0,0,0,0,1,0,0H6.975a0,0,0,0,1,0,0V38.7A2.32,2.32,0,0,1,9.295,36.378Z" fill="url(#New_Gradient_Swatch_1)"/>
    <path d="M16.939,10.53a6.555,6.555,0,1,1-6.555-6.555A6.555,6.555,0,0,1,16.939,10.53ZM10.384,7.8a2.732,2.732,0,1,0,2.731,2.732A2.731,2.731,0,0,0,10.384,7.8Z" fill="url(#New_Gradient_Swatch_1-2)"/>
    <rect x="31.23" y="6.067" width="3.463" height="8.925" fill="url(#linear-gradient)"/>
    <g>
      <g>
        <path d="M13.615,10.529a3.232,3.232,0,0,0-6.463,0,3.232,3.232,0,0,1,6.463,0Z" fill="url(#Siemens_-_Mid_gray-2)"/>
        <path d="M10.384,6.8a3.732,3.732,0,1,0,3.731,3.732A3.735,3.735,0,0,0,10.384,6.8Zm0,6.463a2.732,2.732,0,1,1,2.731-2.731,2.731,2.731,0,0,1-2.731,2.731Z" fill="#464646"/>
      </g>
      <g>
        <path d="M7.475,38.7a1.821,1.821,0,0,1,1.82-1.82H19.333l-7.544-13.1,7.492,13.009H30.145L16.612,13.307,30.2,36.878H40.707a1.821,1.821,0,0,1,1.82,1.82,1.821,1.821,0,0,0-1.82-1.82H9.3a1.821,1.821,0,0,0-1.82,1.82v0ZM10.39,16.585Zm.006,0Zm.007,0Zm.007,0Zm.007,0Zm.859-.065a6.067,6.067,0,0,0,3.933-2.336A6.038,6.038,0,0,1,11.276,16.52Zm-4.05-.665-.144-.25-.1-.064a6.1,6.1,0,0,1-1.106-.976l-.014-.015c.042.047.085.094.129.139.093.1.193.2.295.29.076.072.133.124.192.173.122.105.239.191.354.276a6.176,6.176,0,0,0,1.544.812Zm23.5-2.548h-.07V7.752H15.806l.172.462q-.117-.278-.258-.542l-.071-.121a6.633,6.633,0,0,0-.434-.657,6.8,6.8,0,0,0-.6-.685A5.917,5.917,0,0,1,15.622,7.5l.145.25H30.729V5.567h0v7.74Zm4.463-.617V10.756l.261.216,4.748,2.59,2.47-1.353,2.043-.032-1.173,1.415L40.2,15.422ZM5.7,14.357a5.906,5.906,0,0,1-.648-.951,5.828,5.828,0,0,1-.282-.6s-.081-.224-.1-.268l.1.28c.071.172.14.315.211.456.063.121.129.238.2.353.083.138.139.232.21.336C5.4,13.959,5.646,14.286,5.7,14.357Zm10.262-1.479-.053.141-.094.178C15.87,13.092,15.919,12.985,15.965,12.878ZM4.474,11.82a6.023,6.023,0,0,1-.145-1.286v0a6.23,6.23,0,0,0,.044.7l.035.221C4.427,11.576,4.448,11.7,4.474,11.82Zm11.964-1.282Zm0,0Zm0-.005Zm0-.007Zm0,0Zm0-.009ZM35.192,8.3,40.2,5.57,43.541,7.4l1.173,1.415-2.043-.032L40.2,7.43l-5.009,2.732ZM14.024,5.7c-.157-.117-.323-.231-.494-.335l-.14-.086a6.006,6.006,0,0,0-1.322-.562L12.01,4.7l.052.014a5.969,5.969,0,0,1,1.342.571l.108.066a6.024,6.024,0,0,1,.542.37c.012.008.024.018.037.028ZM11.873,4.668c-.21-.052-.372-.085-.537-.11l-.2-.033c-.106-.012-.2-.02-.285-.027-.146-.012-.289-.022-.436-.023A6.067,6.067,0,0,1,11.873,4.668Zm-1.66-.191Z" fill="url(#Siemens_-_Mid_gray-3)"/>
        <path d="M11.845,5.176h0M40.2,6.14l3.018,1.653.419.506L42.8,8.285,40.68,7.123,40.2,6.86l-.48.262-4.029,2.2V8.6l.479-.261L40.2,6.14m-4.507,5.532,4.029,2.2.48.262.479-.263L42.8,12.707l.833-.014-.418.506L40.2,14.853l-4.028-2.2-.479-.261v-.722m-25.308-7.7A6.555,6.555,0,0,0,3.829,10.53v0a6.6,6.6,0,0,0,.181,1.5h0c.013.054.028.107.042.16q.08.3.188.6c.023.065.045.13.071.194h0a6.588,6.588,0,0,0,.3.654h0a6.577,6.577,0,0,0,.838,1.2h0l.055.06a6.544,6.544,0,0,0,1.2,1.055L18.468,36.378H9.3a2.32,2.32,0,0,0-2.32,2.32v5.327H43.027V38.7a2.32,2.32,0,0,0-2.32-2.32H30.485L17.478,13.807H30.23v2.185h5.462V13.533L40.2,15.992l3.666-2.008,1.926-2.325-3.253.052L40.2,12.992l-4.508-2.459v-.074L40.2,8l2.339,1.281,3.253.052L43.866,7.008,40.2,5,35.692,7.459V5.067H30.23V7.252H16.055A6.591,6.591,0,0,0,14.4,5.357l-.044-.032h0a6.508,6.508,0,0,0-.586-.4h0c-.038-.023-.076-.048-.115-.07h0a6.477,6.477,0,0,0-1.45-.619h0c-.065-.019-.132-.034-.2-.051h0a6.535,6.535,0,0,0-1.618-.21Zm0,12.11a5.513,5.513,0,0,1-3.237-1.05c-.111-.081-.222-.162-.345-.266-.059-.05-.115-.1-.172-.157-.094-.086-.186-.175-.273-.267-.057-.06-.113-.122-.168-.184-.083-.1-.162-.2-.238-.3-.047-.062-.1-.123-.14-.187-.076-.109-.133-.208-.194-.309s-.124-.213-.18-.324c-.066-.129-.13-.26-.194-.418-.027-.064-.049-.131-.073-.2-.049-.134-.094-.27-.132-.408-.02-.07-.038-.14-.054-.211-.034-.143-.061-.288-.083-.435l-.014-.089c-.006-.036-.013-.071-.017-.108a5.691,5.691,0,0,1-.041-.643v0a5.561,5.561,0,0,1,5.555-5.555c.142,0,.282.011.421.021.085.007.168.014.262.026.046,0,.09.013.135.02l.057.009q.255.04.5.1l.034.009c.046.012.092.022.137.035a5.534,5.534,0,0,1,1.21.515c.045.025.088.053.131.08a5.4,5.4,0,0,1,.454.309l.1.071a5.607,5.607,0,0,1,.97.987l.027.035a5.421,5.421,0,0,1,.358.535c.014.025.03.048.044.073l.061.105a5.552,5.552,0,0,1-4.895,8.177ZM31.23,14.992V6.067h3.462v8.925ZM16.524,12.807a6.457,6.457,0,0,0,0-4.555H30.16v4.555H16.524Zm-6.14,4.278a6.55,6.55,0,0,0,5.8-3.514l.424.735L29.279,36.288H19.57L8.315,16.746a6.526,6.526,0,0,0,2.069.339ZM7.975,43.025V38.7a1.321,1.321,0,0,1,1.32-1.32H40.707a1.321,1.321,0,0,1,1.32,1.32v4.327Z" fill="#464646"/>
      </g>
    </g>
  </g>
</svg>
