<svg id="Image" xmlns="http://www.w3.org/2000/svg" xmlns:xlink="http://www.w3.org/1999/xlink" viewBox="0 0 48 48">
  <defs>
    <linearGradient id="Siemens_-_Mid_blue" data-name="Siemens - Mid blue" x1="41.821" y1="31.63" x2="46.011" y2="35.821" gradientUnits="userSpaceOnUse">
      <stop offset="0" stop-color="#afd7e1"/>
      <stop offset="1" stop-color="#73b4c8"/>
    </linearGradient>
    <linearGradient id="Siemens_-_Mid_blue-2" x1="11.859" y1="15.426" x2="34.173" y2="37.74" xlink:href="#Siemens_-_Mid_blue"/>
    <linearGradient id="Siemens_-_Mid_blue-3" x1="12.36" y1="7.504" x2="34.079" y2="29.223" xlink:href="#Siemens_-_Mid_blue"/>
  </defs>
  <g>
    <path d="M43.916,30.7a.5.5,0,0,1-.5-.5V19.391a.5.5,0,0,1,1,0V30.2A.5.5,0,0,1,43.916,30.7Z" fill="#177491"/>
    <g>
      <ellipse cx="43.916" cy="33.725" rx="2.584" ry="3.298" fill="url(#Siemens_-_Mid_blue)"/>
      <path d="M43.916,37.523c-1.7,0-3.085-1.7-3.085-3.8s1.384-3.8,3.085-3.8S47,31.631,47,33.726,45.616,37.523,43.916,37.523Zm0-6.6c-1.149,0-2.085,1.256-2.085,2.8s.936,2.8,2.085,2.8S46,35.269,46,33.726,45.065,30.927,43.916,30.927Z" fill="#177491"/>
    </g>
    <path d="M43.916,40.565a.5.5,0,0,1-.5-.5V37.023a.5.5,0,1,1,1,0v3.042A.5.5,0,0,1,43.916,40.565Z" fill="#177491"/>
    <g>
      <path d="M6.614,20.671V31.5A2,2,0,0,0,7.3,33.008l.976.853a19.264,19.264,0,0,0,7.9,4.265,28.846,28.846,0,0,0,13.305.186A19.361,19.361,0,0,0,38.914,33a1.983,1.983,0,0,0,.565-1.4V20.9" fill="url(#Siemens_-_Mid_blue-2)"/>
      <path d="M23.226,39.5a29.357,29.357,0,0,1-7.17-.885,19.862,19.862,0,0,1-8.111-4.373l-.976-.853A2.5,2.5,0,0,1,6.113,31.5V20.671h1V31.5a1.5,1.5,0,0,0,.514,1.13l.977.852a18.885,18.885,0,0,0,7.7,4.159,28.468,28.468,0,0,0,13.075.181,18.807,18.807,0,0,0,9.185-5.178,1.49,1.49,0,0,0,.419-1.049V20.9h1V31.6a2.5,2.5,0,0,1-.71,1.756A19.827,19.827,0,0,1,29.592,38.8,29.365,29.365,0,0,1,23.226,39.5Z" fill="#177491"/>
    </g>
    <g>
      <polygon points="1.5 18.364 22.987 9 44.939 18.364 23.219 29.413 1.5 18.364" fill="url(#Siemens_-_Mid_blue-3)"/>
      <path d="M23.22,29.912a.491.491,0,0,1-.227-.055L1.273,18.81a.5.5,0,0,1,.027-.9L22.787,8.542a.5.5,0,0,1,.4,0L45.135,17.9a.5.5,0,0,1,.03.906L23.446,29.857A.487.487,0,0,1,23.22,29.912ZM2.672,18.4,23.22,28.852,43.758,18.4,22.989,9.545Z" fill="#177491"/>
    </g>
  </g>
</svg>
