<svg id="Image" xmlns="http://www.w3.org/2000/svg" xmlns:xlink="http://www.w3.org/1999/xlink" viewBox="0 0 48 48">
  <defs>
    <linearGradient id="Siemens_-_Dark_gray" data-name="Siemens - Dark gray" x1="10.109" y1="18.451" x2="27.172" y2="18.451" gradientUnits="userSpaceOnUse">
      <stop offset="0" stop-color="#f2f2f2"/>
      <stop offset="1" stop-color="#999"/>
    </linearGradient>
    <linearGradient id="Siemens_-_Dark_gray-2" x1="4.223" y1="20.634" x2="24.196" y2="40.607" xlink:href="#Siemens_-_Dark_gray"/>
    <linearGradient id="Siemens_-_Light_gray" data-name="Siemens - Light gray" x1="11.152" y1="11.837" x2="22.377" y2="23.062" gradientUnits="userSpaceOnUse">
      <stop offset="0" stop-color="#fff"/>
      <stop offset="1" stop-color="#dcdcdc"/>
    </linearGradient>
    <linearGradient id="Siemens_-_Dark_gray-3" x1="6.876" y1="35.11" x2="11.321" y2="39.555" xlink:href="#Siemens_-_Dark_gray"/>
    <linearGradient id="Siemens_-_Dark_gray-4" x1="21.282" y1="35.11" x2="25.727" y2="39.555" xlink:href="#Siemens_-_Dark_gray"/>
  </defs>
  <g>
    <g>
      <polygon points="21.035 8.834 10.109 8.834 10.109 23.338 12.874 24.102 19.95 28.067 27.172 28.067 21.035 8.834" fill="url(#Siemens_-_Dark_gray)"/>
      <path d="M27.172,28.567H19.95a.493.493,0,0,1-.244-.063l-7.023-3.936L9.977,23.82a.5.5,0,0,1-.368-.482V8.834a.5.5,0,0,1,.5-.5H21.035a.5.5,0,0,1,.477.348l6.136,19.233a.5.5,0,0,1-.476.652Zm-7.091-1h6.406L20.67,9.334H10.609V22.958l2.4.662a.491.491,0,0,1,.111.046Z" fill="#464646"/>
    </g>
    <g>
      <path d="M29.267,28.053H27.172l-7.334-.039-6.932-3.9-2.8-.773H3.074L1.5,23.357v12.18H5.19a4.126,4.126,0,0,1,7.891,0h6.528a4.126,4.126,0,0,1,7.891,0h1.767Z" fill="url(#Siemens_-_Dark_gray-2)"/>
      <path d="M29.267,36.037H27.5a.5.5,0,0,1-.478-.35,3.625,3.625,0,0,0-6.935,0,.5.5,0,0,1-.478.35H13.081a.5.5,0,0,1-.477-.35,3.625,3.625,0,0,0-6.936,0,.5.5,0,0,1-.478.35H1.5a.5.5,0,0,1-.5-.5V23.357a.5.5,0,0,1,.494-.5l1.574-.019h7.041a.5.5,0,0,1,.133.018l2.8.773a.5.5,0,0,1,.112.047l6.819,3.84,9.3.037a.5.5,0,0,1,.5.5v7.484A.5.5,0,0,1,29.267,36.037Zm-1.414-1h.914V28.553l-8.932-.038a.49.49,0,0,1-.242-.065l-6.879-3.873-2.672-.739L2,23.851V35.037H4.838a4.624,4.624,0,0,1,8.6,0h5.823a4.624,4.624,0,0,1,8.6,0Z" fill="#464646"/>
    </g>
    <path d="M34.689,39.981a.5.5,0,0,1-.481-.366L24.52,4.652a.5.5,0,1,1,.962-.267l9.555,34.478,11.327-3.2a.5.5,0,0,1,.272.963L34.825,39.963A.48.48,0,0,1,34.689,39.981Z" fill="#464646"/>
    <g>
      <polygon points="11.98 11.009 19.725 11.009 23.374 22.066 11.98 22.066 11.98 11.009" fill="url(#Siemens_-_Light_gray)"/>
      <path d="M23.374,22.566H11.979a.5.5,0,0,1-.5-.5V11.009a.5.5,0,0,1,.5-.5h7.747a.5.5,0,0,1,.474.343l3.649,11.057a.5.5,0,0,1-.475.657Zm-10.895-1h10.2L19.364,11.509H12.479Z" fill="#464646"/>
    </g>
    <g>
      <circle cx="9.099" cy="37.333" r="3.143" fill="url(#Siemens_-_Dark_gray-3)"/>
      <path d="M9.1,40.976a3.644,3.644,0,1,1,3.643-3.643A3.648,3.648,0,0,1,9.1,40.976Zm0-6.287a2.644,2.644,0,1,0,2.643,2.644A2.647,2.647,0,0,0,9.1,34.689Z" fill="#464646"/>
    </g>
    <g>
      <circle cx="23.505" cy="37.333" r="3.143" fill="url(#Siemens_-_Dark_gray-4)"/>
      <path d="M23.505,40.976a3.644,3.644,0,1,1,3.642-3.643A3.648,3.648,0,0,1,23.505,40.976Zm0-6.287a2.644,2.644,0,1,0,2.642,2.644A2.647,2.647,0,0,0,23.505,34.689Z" fill="#464646"/>
    </g>
  </g>
</svg>
