<svg id="Livello_2" data-name="Livello 2" xmlns="http://www.w3.org/2000/svg" xmlns:xlink="http://www.w3.org/1999/xlink" viewBox="0 0 48 48">
  <defs>
    <linearGradient id="linear-gradient" x1="1.3" y1="34.676" x2="34.977" y2="12.873" gradientTransform="matrix(1, 0, 0, -1, 0, 48)" gradientUnits="userSpaceOnUse">
      <stop offset="0" stop-color="#fff"/>
      <stop offset="0.221" stop-color="#fbfbfc"/>
      <stop offset="0.541" stop-color="#ececec"/>
      <stop offset="0.92" stop-color="#d0cecd"/>
      <stop offset="1" stop-color="#c9c6c5"/>
    </linearGradient>
    <linearGradient id="linear-gradient-2" x1="16.47" y1="18.794" x2="31.451" y2="-0.824" xlink:href="#linear-gradient"/>
  </defs>
  <g id="g993">
    <g id="g987">
      <path id="rect1040" d="M.6,13.45H35.07V34.608H.6Z" stroke="#177491" stroke-linejoin="round" stroke-width="1.294" fill="url(#linear-gradient)"/>
      <path id="path1065-6-3" d="M19.98,25.278a.92.92,0,0,1-.925.916h0a.92.92,0,0,1-.925-.916h0a.921.921,0,0,1,.925-.917h0a.921.921,0,0,1,.925.917Z" fill="#177491"/>
      <path id="rect1105-9-2-1" d="M18.523,23.471V17.639h.926v5.832Z" fill="#177491"/>
      <path id="rect1105-9-2-1-8" d="M17.027,24.489,13.334,19.9l.727-.558,3.693,4.585Z" fill="#177491"/>
      <path id="rect1105-9-2-1-88" d="M10.705,26.237l5.9-.883.14.893-5.9.883Z" fill="#177491"/>
      <path id="rect1105-9-2-1-88-2" d="M21.1,25.7,27,26.579l.14-.893L21.236,24.8Z" fill="#177491"/>
      <path id="rect1105-9-2-1-8-6" d="M21.537,23.869l3.693-4.584-.727-.559L20.81,23.311Z" fill="#177491"/>
      <path id="rect1105-9-2-1-8-6-2" d="M14.484,32.12l3.694-4.584-.728-.559-3.693,4.585Z" fill="#177491"/>
      <path id="path1083" d="M25.618,43.64a14.45,14.45,0,0,0-2.033-3.062c-.047-.015-.721.668-1.822,1.653l-2.114,2.186-.031-.322c-.044-.451.258-14.548.331-15.4l.2-.971,3.078,2.93c1.486,1.435,4.319,4.189,6.3,6.119l4.019,3.739-3.813-.045c-1.942-.025-3.531-.032-3.531-.016s.487.784,1.2,2.043c2.087,3.706,2.425,4.435,2.342,4.509a11.437,11.437,0,0,1-2.108.494c-.178,0-.446-.456-2.105-3.586Z" fill="url(#linear-gradient-2)"/>
      <path id="path819" d="M26.3,47.545c-.457-.843-1.647-3.113-2.3-4.394l-.652-1.272-.187.2c-.4.43-1.7,1.972-3.008,3.572l-1.368,1.673-.011-.36c-.009-.32.43-20.878.457-21.3l.009-.168,8.1,7.942c4.457,4.368,8.094,7.952,8.083,7.963s-1.7,0-3.749-.032-3.736-.042-3.747-.032.735,1.372,1.656,3.026,1.662,3.012,1.645,3.017C31.18,47.4,26.663,48,26.6,48a1.709,1.709,0,0,1-.3-.455Zm1.97-1.024c.484-.062.9-.125.924-.139s-.6-1.188-1.618-3.013c-.915-1.642-1.71-3.066-1.768-3.164l-.105-.178,1.2.026c.658.014,2.155.038,3.327.053l2.132.027-5.936-5.825c-3.265-3.2-5.947-5.815-5.96-5.8s-.371,15.091-.346,15.14c.009.017.257-.3.6-.667,1.335-1.425,1.933-2.076,2.353-2.527.272-.291.221-.225.647-.635.246.518.65,1.269.906,1.754,1.223,2.309,2.64,5.1,2.707,5.078.034-.008.458-.066.942-.128Z" fill="#464646"/>
    </g>
    <g id="g931">
      <path id="path43" d="M40.188,2.417,42.531,4.76l-15.356.061a5.467,5.467,0,0,0-5.454,5.453l-.06,1.346h2.517l.06-1.346a2.993,2.993,0,0,1,2.937-2.936l15.356-.061L40.188,9.621,41.967,11.4l5.382-5.381L41.967.637Z" fill="#3c91af"/>
      <path id="path45" d="M23.829,11.266V10.31a3.364,3.364,0,0,1,3.356-3.356l16.309-.06L40.731,9.656l1.186,1.187,4.789-4.788L41.917,1.266,40.731,2.453l2.763,2.762-16.309.061a5.046,5.046,0,0,0-5.034,5.034v.956h1.678m.839.839H21.312V10.31a5.888,5.888,0,0,1,5.873-5.873l14.283-.061-1.33-1.33-.593-.593.593-.594L41.324.673,41.917.08l.593.593L47.3,5.461l.593.594-.593.593L42.51,11.436l-.593.593-.593-.593L40.138,10.25l-.593-.594.593-.593,1.33-1.33-14.283.06a2.524,2.524,0,0,0-2.517,2.517v1.8Z" fill="#147391"/>
    </g>
  </g>
</svg>
