<svg id="Image" xmlns="http://www.w3.org/2000/svg" xmlns:xlink="http://www.w3.org/1999/xlink" viewBox="0 0 48 48">
  <defs>
    <linearGradient id="Siemens_-_Light_gray" data-name="Siemens - Light gray" x1="19.246" y1="1.139" x2="46.956" y2="28.849" gradientUnits="userSpaceOnUse">
      <stop offset="0" stop-color="#fff"/>
      <stop offset="1" stop-color="#dcdcdc"/>
    </linearGradient>
    <linearGradient id="Siemens_-_Light_gray-2" x1="22.842" y1="3.972" x2="27.613" y2="8.744" xlink:href="#Siemens_-_Light_gray"/>
    <linearGradient id="New_Gradient_Swatch_1" data-name="New Gradient Swatch 1" x1="21.356" y1="5.976" x2="22.139" y2="6.76" gradientUnits="userSpaceOnUse">
      <stop offset="0" stop-color="#7eb8cd"/>
      <stop offset="1" stop-color="#097091"/>
    </linearGradient>
    <linearGradient id="New_Gradient_Swatch_1-2" x1="28.31" y1="5.976" x2="29.094" y2="6.76" xlink:href="#New_Gradient_Swatch_1"/>
    <linearGradient id="New_Gradient_Swatch_1-3" x1="26.571" y1="8.997" x2="27.355" y2="9.781" xlink:href="#New_Gradient_Swatch_1"/>
    <linearGradient id="New_Gradient_Swatch_1-4" x1="23.098" y1="8.997" x2="23.881" y2="9.78" xlink:href="#New_Gradient_Swatch_1"/>
    <linearGradient id="New_Gradient_Swatch_1-5" x1="26.571" y1="2.935" x2="27.355" y2="3.719" xlink:href="#New_Gradient_Swatch_1"/>
    <linearGradient id="New_Gradient_Swatch_1-6" x1="23.098" y1="2.935" x2="23.881" y2="3.719" xlink:href="#New_Gradient_Swatch_1"/>
    <linearGradient id="Siemens_-_Light_gray-3" x1="22.842" y1="12.578" x2="27.613" y2="17.35" xlink:href="#Siemens_-_Light_gray"/>
    <linearGradient id="New_Gradient_Swatch_1-7" x1="21.355" y1="14.582" x2="22.139" y2="15.366" xlink:href="#New_Gradient_Swatch_1"/>
    <linearGradient id="New_Gradient_Swatch_1-8" x1="28.31" y1="14.582" x2="29.094" y2="15.366" xlink:href="#New_Gradient_Swatch_1"/>
    <linearGradient id="New_Gradient_Swatch_1-9" x1="26.571" y1="17.603" x2="27.355" y2="18.387" xlink:href="#New_Gradient_Swatch_1"/>
    <linearGradient id="New_Gradient_Swatch_1-10" x1="23.098" y1="17.603" x2="23.881" y2="18.387" xlink:href="#New_Gradient_Swatch_1"/>
    <linearGradient id="New_Gradient_Swatch_1-11" x1="26.571" y1="11.541" x2="27.355" y2="12.325" xlink:href="#New_Gradient_Swatch_1"/>
    <linearGradient id="New_Gradient_Swatch_1-12" x1="23.098" y1="11.541" x2="23.882" y2="12.325" xlink:href="#New_Gradient_Swatch_1"/>
    <linearGradient id="Siemens_-_Light_gray-4" x1="22.842" y1="21.328" x2="27.613" y2="26.1" xlink:href="#Siemens_-_Light_gray"/>
    <linearGradient id="New_Gradient_Swatch_1-13" x1="21.356" y1="23.332" x2="22.139" y2="24.116" xlink:href="#New_Gradient_Swatch_1"/>
    <linearGradient id="New_Gradient_Swatch_1-14" x1="28.31" y1="23.332" x2="29.094" y2="24.116" xlink:href="#New_Gradient_Swatch_1"/>
    <linearGradient id="New_Gradient_Swatch_1-15" x1="26.571" y1="26.353" x2="27.355" y2="27.137" xlink:href="#New_Gradient_Swatch_1"/>
    <linearGradient id="New_Gradient_Swatch_1-16" x1="23.098" y1="26.353" x2="23.881" y2="27.137" xlink:href="#New_Gradient_Swatch_1"/>
    <linearGradient id="New_Gradient_Swatch_1-17" x1="26.571" y1="20.291" x2="27.355" y2="21.075" xlink:href="#New_Gradient_Swatch_1"/>
    <linearGradient id="New_Gradient_Swatch_1-18" x1="23.098" y1="20.291" x2="23.881" y2="21.075" xlink:href="#New_Gradient_Swatch_1"/>
    <linearGradient id="Siemens_-_Light_gray-5" x1="9.155" y1="20.511" x2="29.441" y2="40.797" xlink:href="#Siemens_-_Light_gray"/>
    <linearGradient id="New_Gradient_Swatch_1-19" x1="1.629" y1="27.878" x2="7.265" y2="33.514" xlink:href="#New_Gradient_Swatch_1"/>
    <linearGradient id="New_Gradient_Swatch_1-20" x1="31.304" y1="27.878" x2="36.94" y2="33.514" xlink:href="#New_Gradient_Swatch_1"/>
    <linearGradient id="New_Gradient_Swatch_1-21" x1="23.885" y1="40.696" x2="29.521" y2="46.333" xlink:href="#New_Gradient_Swatch_1"/>
    <linearGradient id="New_Gradient_Swatch_1-22" x1="9.065" y1="40.696" x2="14.702" y2="46.333" xlink:href="#New_Gradient_Swatch_1"/>
    <linearGradient id="New_Gradient_Swatch_1-23" x1="23.885" y1="14.975" x2="29.521" y2="20.611" xlink:href="#New_Gradient_Swatch_1"/>
    <linearGradient id="New_Gradient_Swatch_1-24" x1="9.065" y1="14.975" x2="14.702" y2="20.611" xlink:href="#New_Gradient_Swatch_1"/>
  </defs>
  <g>
    <g>
      <rect x="19.285" y="1.1" width="27.632" height="27.787" stroke="#464646" stroke-miterlimit="10" fill="url(#Siemens_-_Light_gray)"/>
      <line x1="31.642" y1="5.854" x2="44" y2="5.854" fill="none" stroke="#464646" stroke-linecap="round" stroke-linejoin="round"/>
      <line x1="31.642" y1="14.752" x2="44" y2="14.752" fill="none" stroke="#464646" stroke-linecap="round" stroke-linejoin="round"/>
      <line x1="31.642" y1="23.714" x2="44" y2="23.714" fill="none" stroke="#464646" stroke-linecap="round" stroke-linejoin="round"/>
      <g>
        <polygon points="26.968 3.327 23.487 3.327 21.747 6.358 23.487 9.389 26.968 9.389 28.708 6.358 26.968 3.327" stroke="#177491" stroke-linejoin="round" fill="url(#Siemens_-_Light_gray-2)"/>
        <g>
          <path d="M21.747,6.925a.538.538,0,0,1-.387-.161.56.56,0,0,1,0-.791.547.547,0,0,1,.777,0,.563.563,0,0,1,0,.79A.547.547,0,0,1,21.747,6.925Z" fill="url(#New_Gradient_Swatch_1)"/>
          <path d="M21.747,6.311l.034.014V6.41h-.068V6.325a.046.046,0,0,1,.034-.014m0-1A1.045,1.045,0,0,0,21,5.62a1.061,1.061,0,0,0,0,1.5A1.051,1.051,0,0,0,22.8,6.368a1.056,1.056,0,0,0-.308-.748,1.045,1.045,0,0,0-.743-.309Z" fill="#4e4a48"/>
        </g>
        <g>
          <path d="M28.7,6.925a.546.546,0,0,1-.388-.162.563.563,0,0,1,0-.79.548.548,0,0,1,.778,0,.563.563,0,0,1,0,.791A.547.547,0,0,1,28.7,6.925Z" fill="url(#New_Gradient_Swatch_1-2)"/>
          <path d="M28.7,5.311a1.058,1.058,0,1,0,1.051,1.057,1.06,1.06,0,0,0-.308-.748,1.045,1.045,0,0,0-.743-.309Z" fill="#4e4a48"/>
        </g>
        <g>
          <path d="M26.963,9.946a.538.538,0,0,1-.387-.161.558.558,0,0,1,0-.791.547.547,0,0,1,.777,0,.561.561,0,0,1,0,.789A.546.546,0,0,1,26.963,9.946Z" fill="url(#New_Gradient_Swatch_1-3)"/>
          <path d="M26.963,9.332,27,9.347v.084h-.068V9.347a.043.043,0,0,1,.034-.015m0-1a1.055,1.055,0,0,0-1.051,1.057,1.056,1.056,0,0,0,.308.748,1.048,1.048,0,0,0,1.486,0,1.061,1.061,0,0,0,0-1.5,1.042,1.042,0,0,0-.743-.31Z" fill="#4e4a48"/>
        </g>
        <g>
          <path d="M23.49,9.946a.547.547,0,0,1-.389-.162.563.563,0,0,1,0-.79.548.548,0,0,1,.777,0,.558.558,0,0,1,.163.4.55.55,0,0,1-.163.394A.536.536,0,0,1,23.49,9.946Z" fill="url(#New_Gradient_Swatch_1-4)"/>
          <path d="M23.49,8.332a1.055,1.055,0,0,0-1.051,1.057,1.056,1.056,0,0,0,.308.748,1.048,1.048,0,0,0,1.486,0,1.061,1.061,0,0,0,0-1.5,1.042,1.042,0,0,0-.743-.31Z" fill="#4e4a48"/>
        </g>
        <g>
          <path d="M26.963,3.884a.538.538,0,0,1-.387-.161.558.558,0,0,1,0-.791.539.539,0,0,1,.388-.162.545.545,0,0,1,.389.162.563.563,0,0,1,0,.79A.549.549,0,0,1,26.963,3.884Z" fill="url(#New_Gradient_Swatch_1-5)"/>
          <path d="M26.963,3.27,27,3.284v.085h-.068V3.284a.045.045,0,0,1,.034-.014m0-1a1.045,1.045,0,0,0-.743.309,1.061,1.061,0,0,0,0,1.495,1.051,1.051,0,0,0,1.794-.747,1.056,1.056,0,0,0-.308-.748,1.045,1.045,0,0,0-.743-.309Z" fill="#4e4a48"/>
        </g>
        <g>
          <path d="M23.49,3.884a.547.547,0,0,1-.389-.162.563.563,0,0,1,0-.79.547.547,0,0,1,.776,0,.56.56,0,0,1,0,.791A.539.539,0,0,1,23.49,3.884Z" fill="url(#New_Gradient_Swatch_1-6)"/>
          <path d="M23.49,2.27a1.045,1.045,0,0,0-.743.309,1.061,1.061,0,0,0,0,1.495,1.045,1.045,0,0,0,1.486,0,1.061,1.061,0,0,0,0-1.495,1.045,1.045,0,0,0-.743-.309Z" fill="#4e4a48"/>
        </g>
      </g>
      <g>
        <polygon points="26.968 11.933 23.487 11.933 21.747 14.964 23.487 17.995 26.968 17.995 28.708 14.964 26.968 11.933" stroke="#177491" stroke-linejoin="round" fill="url(#Siemens_-_Light_gray-3)"/>
        <g>
          <path d="M21.747,15.531a.538.538,0,0,1-.387-.161.56.56,0,0,1,0-.791.547.547,0,0,1,.777,0,.563.563,0,0,1,0,.79A.547.547,0,0,1,21.747,15.531Z" fill="url(#New_Gradient_Swatch_1-7)"/>
          <path d="M21.747,14.917l.034.014v.085h-.068v-.085a.046.046,0,0,1,.034-.014m0-1a1.045,1.045,0,0,0-.743.309,1.061,1.061,0,0,0,0,1.495,1.051,1.051,0,0,0,1.794-.747,1.056,1.056,0,0,0-.308-.748,1.045,1.045,0,0,0-.743-.309Z" fill="#4e4a48"/>
        </g>
        <g>
          <path d="M28.7,15.531a.546.546,0,0,1-.388-.162.563.563,0,0,1,0-.79.548.548,0,0,1,.778,0,.563.563,0,0,1,0,.791A.547.547,0,0,1,28.7,15.531Z" fill="url(#New_Gradient_Swatch_1-8)"/>
          <path d="M28.7,13.917a1.058,1.058,0,1,0,1.051,1.057,1.06,1.06,0,0,0-.308-.748,1.045,1.045,0,0,0-.743-.309Z" fill="#4e4a48"/>
        </g>
        <g>
          <path d="M26.963,18.552a.538.538,0,0,1-.387-.161.558.558,0,0,1,0-.791.543.543,0,0,1,.388-.162.549.549,0,0,1,.389.162.563.563,0,0,1,0,.79A.545.545,0,0,1,26.963,18.552Z" fill="url(#New_Gradient_Swatch_1-9)"/>
          <path d="M26.963,17.938l.034.015v.084h-.068v-.085a.043.043,0,0,1,.034-.015m0-1A1.055,1.055,0,0,0,25.912,18a1.056,1.056,0,0,0,.308.748,1.048,1.048,0,0,0,1.486,0,1.061,1.061,0,0,0,0-1.495,1.042,1.042,0,0,0-.743-.31Z" fill="#4e4a48"/>
        </g>
        <g>
          <path d="M23.49,18.552a.543.543,0,0,1-.389-.162.563.563,0,0,1,0-.79.547.547,0,0,1,.776,0,.56.56,0,0,1,0,.791A.539.539,0,0,1,23.49,18.552Z" fill="url(#New_Gradient_Swatch_1-10)"/>
          <path d="M23.49,16.938A1.055,1.055,0,0,0,22.439,18a1.056,1.056,0,0,0,.308.748,1.048,1.048,0,0,0,1.486,0,1.061,1.061,0,0,0,0-1.495,1.042,1.042,0,0,0-.743-.31Z" fill="#4e4a48"/>
        </g>
        <g>
          <path d="M26.963,12.49a.538.538,0,0,1-.387-.161.558.558,0,0,1,0-.791.547.547,0,0,1,.777,0,.563.563,0,0,1,0,.79A.549.549,0,0,1,26.963,12.49Z" fill="url(#New_Gradient_Swatch_1-11)"/>
          <path d="M26.963,11.876,27,11.89v.085h-.068V11.89a.045.045,0,0,1,.034-.014m0-1a1.045,1.045,0,0,0-.743.309,1.061,1.061,0,0,0,0,1.495,1.051,1.051,0,0,0,1.794-.747,1.056,1.056,0,0,0-.308-.748,1.045,1.045,0,0,0-.743-.309Z" fill="#4e4a48"/>
        </g>
        <g>
          <path d="M23.49,12.49a.547.547,0,0,1-.389-.162.563.563,0,0,1,0-.79.548.548,0,0,1,.777,0,.561.561,0,0,1,0,.791A.539.539,0,0,1,23.49,12.49Z" fill="url(#New_Gradient_Swatch_1-12)"/>
          <path d="M23.49,10.876a1.045,1.045,0,0,0-.743.309,1.061,1.061,0,0,0,0,1.495,1.045,1.045,0,0,0,1.486,0,1.061,1.061,0,0,0,0-1.495,1.045,1.045,0,0,0-.743-.309Z" fill="#4e4a48"/>
        </g>
      </g>
      <g>
        <polygon points="26.968 20.683 23.487 20.683 21.747 23.714 23.487 26.745 26.968 26.745 28.708 23.714 26.968 20.683" stroke="#177491" stroke-linejoin="round" fill="url(#Siemens_-_Light_gray-4)"/>
        <g>
          <path d="M21.747,24.281a.542.542,0,0,1-.387-.161.56.56,0,0,1,0-.791.547.547,0,0,1,.777,0,.563.563,0,0,1,0,.79A.547.547,0,0,1,21.747,24.281Z" fill="url(#New_Gradient_Swatch_1-13)"/>
          <path d="M21.747,23.667l.034.014v.085h-.068v-.085a.046.046,0,0,1,.034-.014m0-1a1.045,1.045,0,0,0-.743.309,1.061,1.061,0,0,0,0,1.5,1.051,1.051,0,0,0,1.794-.747,1.056,1.056,0,0,0-.308-.748,1.045,1.045,0,0,0-.743-.309Z" fill="#4e4a48"/>
        </g>
        <g>
          <path d="M28.7,24.281a.546.546,0,0,1-.388-.162.563.563,0,0,1,0-.79.548.548,0,0,1,.778,0,.563.563,0,0,1,0,.791A.547.547,0,0,1,28.7,24.281Z" fill="url(#New_Gradient_Swatch_1-14)"/>
          <path d="M28.7,22.667a1.058,1.058,0,1,0,1.051,1.057,1.06,1.06,0,0,0-.308-.748,1.045,1.045,0,0,0-.743-.309Z" fill="#4e4a48"/>
        </g>
        <g>
          <path d="M26.963,27.3a.538.538,0,0,1-.387-.161.558.558,0,0,1,0-.791.543.543,0,0,1,.388-.162.549.549,0,0,1,.389.162.563.563,0,0,1,0,.79A.545.545,0,0,1,26.963,27.3Z" fill="url(#New_Gradient_Swatch_1-15)"/>
          <path d="M26.963,26.688,27,26.7v.084h-.068V26.7a.043.043,0,0,1,.034-.015m0-1A1.045,1.045,0,0,0,26.22,26a1.062,1.062,0,0,0,0,1.5,1.048,1.048,0,0,0,1.486,0,1.062,1.062,0,0,0,0-1.5,1.045,1.045,0,0,0-.743-.309Z" fill="#4e4a48"/>
        </g>
        <g>
          <path d="M23.49,27.3a.543.543,0,0,1-.389-.162.563.563,0,0,1,0-.79.547.547,0,0,1,.776,0,.56.56,0,0,1,0,.791A.539.539,0,0,1,23.49,27.3Z" fill="url(#New_Gradient_Swatch_1-16)"/>
          <path d="M23.49,25.688a1.045,1.045,0,0,0-.743.309,1.062,1.062,0,0,0,0,1.5,1.048,1.048,0,0,0,1.486,0,1.062,1.062,0,0,0,0-1.5,1.045,1.045,0,0,0-.743-.309Z" fill="#4e4a48"/>
        </g>
        <g>
          <path d="M26.963,21.24a.542.542,0,0,1-.387-.161.558.558,0,0,1,0-.791.539.539,0,0,1,.388-.162.545.545,0,0,1,.389.162.563.563,0,0,1,0,.79A.549.549,0,0,1,26.963,21.24Z" fill="url(#New_Gradient_Swatch_1-17)"/>
          <path d="M26.963,20.626,27,20.64v.085h-.068V20.64a.045.045,0,0,1,.034-.014m0-1a1.045,1.045,0,0,0-.743.309,1.061,1.061,0,0,0,0,1.5,1.051,1.051,0,0,0,1.794-.747,1.056,1.056,0,0,0-.308-.748,1.045,1.045,0,0,0-.743-.309Z" fill="#4e4a48"/>
        </g>
        <g>
          <path d="M23.49,21.24a.547.547,0,0,1-.389-.162.563.563,0,0,1,0-.79.547.547,0,0,1,.776,0,.56.56,0,0,1,0,.791A.543.543,0,0,1,23.49,21.24Z" fill="url(#New_Gradient_Swatch_1-18)"/>
          <path d="M23.49,19.626a1.045,1.045,0,0,0-.743.309,1.061,1.061,0,0,0,0,1.5,1.045,1.045,0,0,0,1.486,0,1.061,1.061,0,0,0,0-1.5,1.045,1.045,0,0,0-.743-.309Z" fill="#4e4a48"/>
        </g>
      </g>
    </g>
    <g>
      <polygon points="26.723 17.793 11.873 17.793 4.447 30.654 11.873 43.514 26.723 43.514 34.148 30.654 26.723 17.793" stroke="#177491" stroke-linejoin="round" fill="url(#Siemens_-_Light_gray-5)"/>
      <g>
        <path d="M4.447,34.682a3.986,3.986,0,1,1,2.819-1.168A3.963,3.963,0,0,1,4.447,34.682Z" fill="url(#New_Gradient_Swatch_1-19)"/>
        <path d="M4.447,27.21a3.486,3.486,0,1,1-2.464,1.021A3.464,3.464,0,0,1,4.447,27.21m0-1a4.486,4.486,0,1,0,3.172,1.314A4.469,4.469,0,0,0,4.447,26.21Z" fill="#4e4a48"/>
      </g>
      <g>
        <path d="M34.122,34.682a3.986,3.986,0,1,1,2.818-1.168A3.96,3.96,0,0,1,34.122,34.682Z" fill="url(#New_Gradient_Swatch_1-20)"/>
        <path d="M34.122,27.21a3.486,3.486,0,1,1-2.465,1.021,3.462,3.462,0,0,1,2.465-1.021m0-1a4.485,4.485,0,1,0,3.172,1.314,4.471,4.471,0,0,0-3.172-1.314Z" fill="#4e4a48"/>
      </g>
      <g>
        <path d="M26.7,47.5a3.984,3.984,0,1,1,2.818-1.167A3.959,3.959,0,0,1,26.7,47.5Z" fill="url(#New_Gradient_Swatch_1-21)"/>
        <path d="M26.7,40.029a3.486,3.486,0,1,1-2.465,1.021A3.462,3.462,0,0,1,26.7,40.029m0-1a4.485,4.485,0,1,0,3.172,1.314A4.471,4.471,0,0,0,26.7,39.029Z" fill="#4e4a48"/>
      </g>
      <g>
        <path d="M11.884,47.5A3.984,3.984,0,1,1,14.7,46.333,3.96,3.96,0,0,1,11.884,47.5Z" fill="url(#New_Gradient_Swatch_1-22)"/>
        <path d="M11.883,40.029A3.486,3.486,0,1,1,9.419,41.05a3.464,3.464,0,0,1,2.464-1.021m0-1a4.486,4.486,0,1,0,3.172,1.314,4.469,4.469,0,0,0-3.172-1.314Z" fill="#4e4a48"/>
      </g>
      <g>
        <path d="M26.7,21.778a3.984,3.984,0,1,1,2.818-1.167A3.959,3.959,0,0,1,26.7,21.778Z" fill="url(#New_Gradient_Swatch_1-23)"/>
        <path d="M26.7,14.307a3.486,3.486,0,1,1-2.465,1.021A3.462,3.462,0,0,1,26.7,14.307m0-1a4.485,4.485,0,1,0,3.172,1.314A4.475,4.475,0,0,0,26.7,13.307Z" fill="#4e4a48"/>
      </g>
      <g>
        <path d="M11.884,21.778A3.984,3.984,0,1,1,14.7,20.611,3.96,3.96,0,0,1,11.884,21.778Z" fill="url(#New_Gradient_Swatch_1-24)"/>
        <path d="M11.883,14.307a3.486,3.486,0,1,1-2.464,1.021,3.464,3.464,0,0,1,2.464-1.021m0-1a4.486,4.486,0,1,0,3.172,1.314,4.473,4.473,0,0,0-3.172-1.314Z" fill="#4e4a48"/>
      </g>
    </g>
  </g>
</svg>
