<svg id="Image" xmlns="http://www.w3.org/2000/svg" xmlns:xlink="http://www.w3.org/1999/xlink" viewBox="0 0 48 48">
  <defs>
    <linearGradient id="linear-gradient" x1="2.009" y1="45.947" x2="15.464" y2="32.242" gradientTransform="matrix(1, 0, 0, -1, 0, 48)" gradientUnits="userSpaceOnUse">
      <stop offset="0" stop-color="#73b4c8"/>
      <stop offset="0.175" stop-color="#6aaec3"/>
      <stop offset="0.457" stop-color="#529eb5"/>
      <stop offset="0.809" stop-color="#2c839f"/>
      <stop offset="1" stop-color="#147391"/>
    </linearGradient>
    <linearGradient id="linear-gradient-2" x1="13.619" y1="-18.376" x2="19.132" y2="-8.129" gradientTransform="matrix(-0.194, 0.901, 0.713, 0.237, 25.531, -3.366)" gradientUnits="userSpaceOnUse">
      <stop offset="0" stop-color="#f8f8f9"/>
      <stop offset="0.5" stop-color="#d5d4d4"/>
      <stop offset="0.63" stop-color="#d1cfce"/>
      <stop offset="0.779" stop-color="#c4c1c1"/>
      <stop offset="0.938" stop-color="#aba8a7"/>
      <stop offset="0.99" stop-color="#a29f9d"/>
    </linearGradient>
    <linearGradient id="linear-gradient-3" x1="26.489" y1="45.92" x2="39.987" y2="32.266" xlink:href="#linear-gradient"/>
    <linearGradient id="linear-gradient-4" x1="5.246" y1="13.766" x2="10.824" y2="24.316" xlink:href="#linear-gradient-2"/>
    <linearGradient id="linear-gradient-5" x1="13.183" y1="25.3" x2="28.478" y2="9.562" xlink:href="#linear-gradient"/>
    <linearGradient id="linear-gradient-6" x1="31.242" y1="3.618" x2="37.65" y2="15.725" xlink:href="#linear-gradient-2"/>
    <linearGradient id="linear-gradient-7" x1="39.249" y1="0.87" x2="44.123" y2="13.757" xlink:href="#linear-gradient-2"/>
    <linearGradient id="linear-gradient-8" x1="67.575" y1="27.73" x2="46.425" y2="43.302" gradientTransform="matrix(-1.147, 0, 0, 1.147, 101.219, -3.248)" gradientUnits="userSpaceOnUse">
      <stop offset="0" stop-color="#afd7e1"/>
      <stop offset="1" stop-color="#54a4bc"/>
    </linearGradient>
  </defs>
  <g id="g935">
    <path id="rect885" d="M3.488.066A3.486,3.486,0,0,0,0,3.565V14.119a3.486,3.486,0,0,0,3.488,3.5H16.826L16.2,16.74H4.014A3.136,3.136,0,0,1,.875,13.592v-9.5A3.137,3.137,0,0,1,4.014.944H37.986a3.137,3.137,0,0,1,3.139,3.15v9.5a3.136,3.136,0,0,1-3.139,3.148H25.309l-.614.877H38.512A3.486,3.486,0,0,0,42,14.119V3.565a3.486,3.486,0,0,0-3.488-3.5Z" fill="#147391"/>
    <path id="path1068-4" d="M18.453,9.764a.875.875,0,0,1-.875.875h0a.875.875,0,1,1,.875-.875Z" fill="#464646"/>
    <path id="path1068-4-9" d="M21.6,9.764a.875.875,0,0,1-.875.875h0a.875.875,0,1,1,.875-.875Z" fill="#464646"/>
    <path id="path1068-4-5" d="M25.248,9.764a.875.875,0,0,1-1.75,0h0a.875.875,0,0,1,.875-.875h0A.874.874,0,0,1,25.248,9.764Z" fill="#464646"/>
    <path id="path978" d="M16.216,16.744l-1.4.007c1.814,1.623,4.024,3.255,5.913,4.769,2.145-1.56,3.894-3.108,5.978-4.771l-1.47-.009c-1.571,1.277-2.889,2.466-4.506,3.664-1.423-1.163-3.149-2.414-4.516-3.66Z" fill="#147391"/>
    <path id="circle13-7" d="M15.572,8.9a6.847,6.847,0,0,1-6.838,6.854h0A6.846,6.846,0,0,1,1.9,8.9h0a6.838,6.838,0,1,1,13.676,0Z" fill="url(#linear-gradient)"/>
    <path id="path909" d="M8.734,3.37a5.542,5.542,0,1,0,4.089,9.261l-.482-.292a4.988,4.988,0,1,1,.166-6.669l.475-.3A5.526,5.526,0,0,0,8.734,3.37Zm4.873,4.561a4.855,4.855,0,0,1-.171,2.6l.694-.442a5.5,5.5,0,0,0,.132-1.172,5.827,5.827,0,0,0-.035-.605L14.213,8.3Z" fill="#fff" stroke="#147391" stroke-linejoin="round" stroke-width="0.185"/>
    <path id="path907" d="M14.359,5.279v.037L11.913,7.159,9.468,9l2.457,1.768,2.43,1.749v.019l.009-.013.019.014.089,0a6.153,6.153,0,0,0-.009-7.293Z" stroke="#147391" stroke-linejoin="round" stroke-width="0.174" fill="url(#linear-gradient-2)"/>
    <path id="path1055" d="M12.225,5.809c-.384-.045-.7-.086-.708-.091a1.816,1.816,0,0,1,.035-.386,2.28,2.28,0,0,1,.565.04c.3.035.555.06.559.056s.024-.28.044-.612l.036-.6.193.007a.805.805,0,0,1,.208.024c.01.008-.005.367-.03.8s-.046.8-.046.817c0,.05-.019.048-.856-.05Z" fill="#fff"/>
    <path id="path1059" d="M12.606,4.932l.063-.766.495.032-.083,1.73-1.6-.21.062-.506.524.052h-.011" fill="none" stroke="#147391" stroke-width="0.175"/>
    <path id="polygon23-3" d="M11.374,11.555l-.731.732-2.7-2.821-.1-.252.029-4.187H8.906L8.877,8.933Z" fill="#fff" stroke="#147391" stroke-width="0.337"/>
    <path id="path15-0" d="M8.734,15.9a7,7,0,1,1,6.983-7A7,7,0,0,1,8.734,15.9Zm0-13.709A6.709,6.709,0,1,0,15.426,8.9,6.708,6.708,0,0,0,8.734,2.194Z" fill="#464646"/>
    <path id="circle13-7-7" d="M40.072,8.9a6.847,6.847,0,0,1-6.838,6.854h0A6.847,6.847,0,0,1,26.4,8.9h0a6.839,6.839,0,1,1,13.677,0Z" fill="url(#linear-gradient-3)"/>
    <path id="path909-1" d="M33.234,3.37a5.542,5.542,0,1,0,4.089,9.261l-.482-.292a4.988,4.988,0,1,1,.166-6.669l.475-.3A5.526,5.526,0,0,0,33.234,3.37Zm4.873,4.561a4.855,4.855,0,0,1-.171,2.6l.694-.442a5.5,5.5,0,0,0,.132-1.172,5.564,5.564,0,0,0-.036-.605L38.713,8.3Z" fill="#fff" stroke="#147391" stroke-linejoin="round" stroke-width="0.185"/>
    <path id="path907-9" d="M38.859,5.279v.037L36.413,7.159,33.968,9l2.457,1.768,2.43,1.749v.019l.009-.013.019.014.089,0a6.153,6.153,0,0,0-.009-7.293Z" stroke="#147391" stroke-linejoin="round" stroke-width="0.174" fill="url(#linear-gradient-4)"/>
    <path id="path1055-8" d="M36.725,5.809c-.384-.045-.7-.086-.708-.091a1.816,1.816,0,0,1,.035-.386,2.28,2.28,0,0,1,.565.04c.3.035.555.06.559.056s.024-.28.044-.612l.036-.6.193.007a.8.8,0,0,1,.208.024c.01.008,0,.367-.03.8s-.046.8-.046.817c0,.05-.019.048-.855-.05Z" fill="#fff"/>
    <path id="path1059-3" d="M37.106,4.932l.063-.766.5.032-.083,1.73-1.6-.21.062-.506.524.052h-.011" fill="none" stroke="#147391" stroke-width="0.175"/>
    <path id="polygon23-3-1" d="M35.874,11.555l-.731.732-2.7-2.821-.1-.252.029-4.187h1.034l-.028,3.906Z" fill="#fff" stroke="#147391" stroke-width="0.337"/>
    <path id="path15-0-6" d="M33.234,15.9a7,7,0,1,1,6.983-7A7,7,0,0,1,33.234,15.9Zm0-13.709A6.709,6.709,0,1,0,39.926,8.9,6.708,6.708,0,0,0,33.234,2.194Z" fill="#464646"/>
    <path id="circle13-7-1" d="M28.727,30.559a7.907,7.907,0,1,1-7.906-7.925A7.916,7.916,0,0,1,28.727,30.559Z" fill="url(#linear-gradient-5)"/>
    <path id="path907-2-6" d="M21.672,30.894l2.893,1.968,2.863,1.947v.021l.009-.014.022.015h.1a7.677,7.677,0,0,0-.144-8.607c-1.955,1.528-3.778,3.1-5.747,4.67Z" stroke="#147391" stroke-linejoin="round" stroke-width="0.201" fill="url(#linear-gradient-6)"/>
    <path id="path907-2-6-8" d="M21.579,30.96c-.8,2.2-1.585,5.228-2.158,7.319,2.949,1.016,6.162-.817,8.02-3.3C25.463,33.5,23.6,32.435,21.579,30.96Z" stroke="#147391" stroke-linejoin="round" stroke-width="0.2" fill="url(#linear-gradient-7)"/>
    <path id="path15-0-0" d="M20.84,38.653a8.113,8.113,0,1,1,8.094-8.113A8.113,8.113,0,0,1,20.84,38.653Zm0-15.888A7.775,7.775,0,1,0,28.6,30.54,7.774,7.774,0,0,0,20.84,22.765Z" fill="#464646"/>
    <path id="path909-5" d="M20.821,24.162A6.409,6.409,0,0,0,18.505,36.54l.162-.629a5.76,5.76,0,1,1,6.517-9.09l.548-.35A6.388,6.388,0,0,0,20.821,24.162Z" fill="#fff" stroke="#147391" stroke-linejoin="round" stroke-width="0.214"/>
    <path id="polygon23-3-2" d="M23.873,33.626l-.845.847L19.911,31.21l-.121-.291.034-4.841h1.2l-.034,4.516Z" fill="#fff" stroke="#147391" stroke-width="0.39"/>
    <path id="path1055-2" d="M24.858,26.982c-.445-.053-.813-.1-.819-.105a2.068,2.068,0,0,1,.041-.446,2.6,2.6,0,0,1,.653.046c.35.041.641.07.646.064s.028-.323.051-.706l.041-.7.223.01a.9.9,0,0,1,.241.027c.01.01,0,.425-.035.921s-.053.922-.053.946c0,.057-.023.055-.989-.058Z" fill="#fff"/>
    <path id="path1059-2" d="M25.3,25.968l.073-.885.573.036-.1,2L24,26.877l.073-.586.605.06h-.012" fill="none" stroke="#147391" stroke-width="0.202"/>
    <path id="path933" d="M44.69,42.41c.711-2.4,1.631-5.044,1.864-5.831l.532-1.69-8.311-2.976-8.287-2.457L27,31.037l-3.025,1.788-.6,1.074-.221,1.149,1.863,3.2L26.8,41.712l8.077,2.7c4.362,1.46,8,2.5,8.13,2.547l.447.009ZM27.987,36.7a1.537,1.537,0,0,1-1.746-2.163,1.437,1.437,0,0,1,2.689-.182,1.465,1.465,0,0,1,.028,1.52C28.705,36.531,28.658,36.565,27.987,36.7Z" stroke="#464646" stroke-linecap="round" stroke-width="0.082" fill="url(#linear-gradient-8)"/>
    <path id="path8" d="M44,48l4.03-13.576L30.306,28.609,23.3,32.283l-.8,2.7,3.778,7.21Zm2.8-12.929L43.334,46.729,26.952,41.358l-3.388-6.467L24.127,33,30.416,29.7Z" fill="#464646"/>
    <path id="rect2" d="M43.62,37.189,34.213,34.1l-.287.96,9.407,3.086Z" fill="#464646"/>
    <path id="rect4" d="M42.824,39.9l-8.078-2.644-.287.96,8.078,2.645Z" fill="#464646"/>
    <path id="rect6" d="M42.009,42.61,32.6,39.524l-.287.96,9.407,3.086Z" fill="#464646"/>
    <path id="path1050" d="M22.264,26.809a1.817,1.817,0,1,0,2.452.766A1.817,1.817,0,0,0,22.264,26.809Zm.469.886a.8.8,0,0,1,1.081.337h0a.8.8,0,0,1-.337,1.08h0a.8.8,0,0,1-1.08-.338h0a.8.8,0,0,1,.337-1.081Z" fill="#464646"/>
    <path id="path1050-2" d="M26.834,33.564a1.816,1.816,0,1,0,2.452.766A1.818,1.818,0,0,0,26.834,33.564Zm.469.886a.8.8,0,0,1,1.08.337h0a.8.8,0,0,1-.337,1.081h0a.8.8,0,0,1-1.081-.337h0A.8.8,0,0,1,27.3,34.45Z" fill="#464646"/>
    <path id="path914" d="M23.174,28.458c1.135,5.092,4.6,6.8,4.623,6.807" fill="none" stroke="#6e6e6e" stroke-linecap="round" stroke-width="1.15"/>
  </g>
</svg>
