<svg id="Image" xmlns="http://www.w3.org/2000/svg" xmlns:xlink="http://www.w3.org/1999/xlink" viewBox="0 0 48 48">
  <defs>
    <linearGradient id="Siemens_-_Light_blue" data-name="Siemens - Light blue" x1="33.29" y1="109.692" x2="46.081" y2="96.9" gradientTransform="matrix(1, 0, 0, -1, 0, 108)" gradientUnits="userSpaceOnUse">
      <stop offset="0" stop-color="#cde6eb"/>
      <stop offset="1" stop-color="#8cc3d2"/>
    </linearGradient>
    <linearGradient id="Siemens_-_Light_blue-2" x1="29.431" y1="8" x2="42.431" y2="8" gradientTransform="matrix(1, 0, 0, 1, 0, 0)" xlink:href="#Siemens_-_Light_blue"/>
    <linearGradient id="linear-gradient" x1="0.818" y1="1470.962" x2="41.394" y2="1511.538" gradientTransform="translate(0 -1464)" gradientUnits="userSpaceOnUse">
      <stop offset="0" stop-color="#fff"/>
      <stop offset="0.232" stop-color="#fdfdfe"/>
      <stop offset="0.496" stop-color="#f3f3f4"/>
      <stop offset="0.775" stop-color="#dfdede"/>
      <stop offset="1" stop-color="#c9c6c5"/>
    </linearGradient>
    <linearGradient id="linear-gradient-2" x1="26.181" y1="1468.906" x2="39.181" y2="1481.906" gradientTransform="translate(0 -1464)" gradientUnits="userSpaceOnUse">
      <stop offset="0" stop-color="#fff"/>
      <stop offset="0.221" stop-color="#fbfbfc"/>
      <stop offset="0.541" stop-color="#ececec"/>
      <stop offset="0.92" stop-color="#d0cecd"/>
      <stop offset="1" stop-color="#c9c6c5"/>
    </linearGradient>
    <linearGradient id="New_Gradient_Swatch_1" data-name="New Gradient Swatch 1" x1="11.6" y1="26.83" x2="15.121" y2="30.352" gradientUnits="userSpaceOnUse">
      <stop offset="0" stop-color="#7eb8cd"/>
      <stop offset="1" stop-color="#097091"/>
    </linearGradient>
    <linearGradient id="New_Gradient_Swatch_1-2" x1="31.379" y1="26.83" x2="34.9" y2="30.352" xlink:href="#New_Gradient_Swatch_1"/>
    <linearGradient id="New_Gradient_Swatch_1-3" x1="26.434" y1="35.374" x2="29.955" y2="38.896" xlink:href="#New_Gradient_Swatch_1"/>
    <linearGradient id="New_Gradient_Swatch_1-4" x1="16.556" y1="35.374" x2="20.077" y2="38.896" xlink:href="#New_Gradient_Swatch_1"/>
    <linearGradient id="New_Gradient_Swatch_1-5" x1="26.434" y1="18.229" x2="29.955" y2="21.75" xlink:href="#New_Gradient_Swatch_1"/>
    <linearGradient id="New_Gradient_Swatch_1-6" x1="16.556" y1="18.229" x2="20.077" y2="21.75" xlink:href="#New_Gradient_Swatch_1"/>
  </defs>
  <g>
    <g>
      <g id="Layer_3" data-name="Layer 3">
        <polygon points="42.931 14.3 42.931 1.5 30.031 1.5 42.931 14.3" fill="url(#Siemens_-_Light_blue)"/>
        <rect x="29.431" y="1.5" width="13" height="13" stroke="#4e4a48" stroke-miterlimit="10" fill="url(#Siemens_-_Light_blue-2)"/>
      </g>
      <polygon points="29.377 1.5 6.281 1.5 6.281 46.5 42.431 46.5 42.431 14.5 29.377 1.5" stroke="#4e4a48" stroke-miterlimit="10" fill="url(#linear-gradient)"/>
      <polygon points="29.431 1.656 29.431 14.656 42.431 14.656 29.431 1.656" stroke="#4e4a48" stroke-linejoin="round" fill="url(#linear-gradient-2)"/>
    </g>
    <g>
      <polygon points="28.208 19.99 18.309 19.99 13.36 28.563 18.309 37.135 28.208 37.135 33.158 28.563 28.208 19.99" fill="none" stroke="#177491" stroke-linejoin="round"/>
      <g>
        <path d="M13.36,31.08a2.487,2.487,0,1,1,1.761-.728A2.472,2.472,0,0,1,13.36,31.08Z" fill="url(#New_Gradient_Swatch_1)"/>
        <path d="M13.36,26.6a1.989,1.989,0,1,1-1.407.582A1.979,1.979,0,0,1,13.36,26.6m0-1a2.989,2.989,0,1,0,2.114.875A2.979,2.979,0,0,0,13.36,25.6Z" fill="#4e4a48"/>
      </g>
      <g>
        <path d="M33.14,31.08a2.489,2.489,0,1,1,1.76-.728A2.48,2.48,0,0,1,33.14,31.08Z" fill="url(#New_Gradient_Swatch_1-2)"/>
        <path d="M33.14,26.6a1.989,1.989,0,1,1-1.407.582A1.979,1.979,0,0,1,33.14,26.6m0-1a2.989,2.989,0,1,0,2.114.875A2.979,2.979,0,0,0,33.14,25.6Z" fill="#4e4a48"/>
      </g>
      <g>
        <path d="M28.194,39.625a2.491,2.491,0,1,1,1.761-.729A2.476,2.476,0,0,1,28.194,39.625Z" fill="url(#New_Gradient_Swatch_1-3)"/>
        <path d="M28.2,35.145a1.99,1.99,0,1,1-1.407.583,1.977,1.977,0,0,1,1.407-.583m0-1a2.991,2.991,0,1,0,2.114.876,2.98,2.98,0,0,0-2.114-.876Z" fill="#4e4a48"/>
      </g>
      <g>
        <path d="M18.316,39.625a2.491,2.491,0,1,1,1.761-.729A2.473,2.473,0,0,1,18.316,39.625Z" fill="url(#New_Gradient_Swatch_1-4)"/>
        <path d="M18.317,35.145a1.989,1.989,0,1,1-1.408.583,1.977,1.977,0,0,1,1.408-.583m0-1a2.989,2.989,0,1,0,2.114.876,2.982,2.982,0,0,0-2.114-.876Z" fill="#4e4a48"/>
      </g>
      <g>
        <path d="M28.194,22.48a2.492,2.492,0,1,1,1.761-.73A2.473,2.473,0,0,1,28.194,22.48Z" fill="url(#New_Gradient_Swatch_1-5)"/>
        <path d="M28.2,18a1.99,1.99,0,1,1-1.407.583A1.977,1.977,0,0,1,28.2,18m0-1a2.991,2.991,0,1,0,2.114.876A2.98,2.98,0,0,0,28.2,17Z" fill="#4e4a48"/>
      </g>
      <g>
        <path d="M18.316,22.48a2.492,2.492,0,1,1,1.761-.73A2.47,2.47,0,0,1,18.316,22.48Z" fill="url(#New_Gradient_Swatch_1-6)"/>
        <path d="M18.317,18a1.989,1.989,0,1,1-1.408.583A1.977,1.977,0,0,1,18.317,18m0-1a2.989,2.989,0,1,0,2.114.876A2.982,2.982,0,0,0,18.317,17Z" fill="#4e4a48"/>
      </g>
    </g>
  </g>
</svg>
