<svg id="Image" xmlns="http://www.w3.org/2000/svg" xmlns:xlink="http://www.w3.org/1999/xlink" viewBox="0 0 48 48">
  <defs>
    <linearGradient id="Siemens_-_Light_gray" data-name="Siemens - Light gray" x1="6.567" y1="14.164" x2="34.58" y2="42.177" gradientUnits="userSpaceOnUse">
      <stop offset="0" stop-color="#fff"/>
      <stop offset="1" stop-color="#dcdcdc"/>
    </linearGradient>
    <linearGradient id="Siemens_-_Light_blue" data-name="Siemens - Light blue" x1="20.902" y1="8.336" x2="32.898" y2="11.155" gradientTransform="translate(14.095 -1.199) rotate(31.772)" gradientUnits="userSpaceOnUse">
      <stop offset="0" stop-color="#cde6eb"/>
      <stop offset="1" stop-color="#8cc3d2"/>
    </linearGradient>
    <linearGradient id="Siemens_-_Light_gray-2" x1="-185.151" y1="42.43" x2="-194.161" y2="51.44" gradientTransform="matrix(-0.856, -0.517, -0.517, 0.856, -126.477, -125.434)" xlink:href="#Siemens_-_Light_gray"/>
    <linearGradient id="Siemens_-_Dark_gray" data-name="Siemens - Dark gray" x1="31.673" y1="55.092" x2="27.843" y2="58.922" gradientTransform="matrix(0.856, 0.517, -0.517, 0.856, 18.609, -37.798)" gradientUnits="userSpaceOnUse">
      <stop offset="0" stop-color="#f2f2f2"/>
      <stop offset="1" stop-color="#999"/>
    </linearGradient>
    <linearGradient id="Siemens_-_Dark_gray-2" x1="20.481" y1="34.596" x2="9.095" y2="45.982" xlink:href="#Siemens_-_Dark_gray"/>
    <linearGradient id="Siemens_-_Dark_gray-3" x1="20.491" y1="34.59" x2="9.105" y2="45.976" xlink:href="#Siemens_-_Dark_gray"/>
    <linearGradient id="Siemens_-_Dark_gray-4" x1="24.297" y1="32.969" x2="38.239" y2="32.969" gradientTransform="matrix(1, 0, 0, 1, 0, 0)" xlink:href="#Siemens_-_Dark_gray"/>
    <linearGradient id="Siemens_-_Dark_blue" data-name="Siemens - Dark blue" x1="13.761" y1="4.895" x2="30.617" y2="17.371" gradientTransform="translate(3.921 2.699) rotate(12.274)" gradientUnits="userSpaceOnUse">
      <stop offset="0" stop-color="#73b4c8"/>
      <stop offset="1" stop-color="#177491"/>
    </linearGradient>
    <linearGradient id="Siemens_-_Light_gray-3" x1="4.843" y1="23.429" x2="26.085" y2="44.671" xlink:href="#Siemens_-_Light_gray"/>
    <linearGradient id="linear-gradient" x1="27.872" y1="22.128" x2="44.128" y2="5.872" gradientTransform="matrix(1, 0, 0, -1, 0, 50)" gradientUnits="userSpaceOnUse">
      <stop offset="0" stop-color="#7fb8cd"/>
      <stop offset="0.175" stop-color="#72b0c8"/>
      <stop offset="0.457" stop-color="#559eb8"/>
      <stop offset="0.809" stop-color="#2982a1"/>
      <stop offset="1" stop-color="#0e7191"/>
    </linearGradient>
  </defs>
  <g>
    <g>
      <g>
        <path d="M24.369,31.9,6.6,21.671l.156,14.46L24.32,46.483l13.919-7.965V24.06L20.616,13.781,12.441,8.87a1.089,1.089,0,0,0-1.106.617L6.6,21.671" fill="url(#Siemens_-_Light_gray)"/>
        <path d="M24.32,46.983a.5.5,0,0,1-.254-.069L6.5,36.562a.5.5,0,0,1-.246-.425L6.1,21.677a.494.494,0,0,1,.034-.188L10.869,9.306A1.6,1.6,0,0,1,12.5,8.373a.516.516,0,0,1,.2.068l8.176,4.912L38.491,23.628a.5.5,0,0,1,.248.432V38.518a.5.5,0,0,1-.252.433L24.568,46.917A.5.5,0,0,1,24.32,46.983ZM7.253,35.844,24.324,45.905l13.415-7.677V24.347L20.364,14.213,12.291,9.364a.587.587,0,0,0-.5.336L7.222,21.452l17.4,10.012-.5.867L7.11,22.542Z" fill="#464646"/>
      </g>
      <path d="M14.227,11.463a1.553,1.553,0,0,1,.134.658,2.755,2.755,0,0,1-.13.809,3.915,3.915,0,0,1-.345.807,4.064,4.064,0,0,1-.519.7,2.893,2.893,0,0,1-.638.52,1.56,1.56,0,0,1-.639.217.931.931,0,0,1-.522-.1.909.909,0,0,1-.349-.4,1.533,1.533,0,0,1-.134-.658,2.873,2.873,0,0,1,.13-.81,3.78,3.78,0,0,1,.865-1.5,2.846,2.846,0,0,1,.638-.52,1.612,1.612,0,0,1,.639-.217.951.951,0,0,1,.522.1A.938.938,0,0,1,14.227,11.463ZM13.523,13a1.4,1.4,0,0,0,.068-.431.734.734,0,0,0-.071-.342.4.4,0,0,0-.188-.211.435.435,0,0,0-.271-.059.9.9,0,0,0-.341.116,1.642,1.642,0,0,0-.339.277,1.886,1.886,0,0,0-.27.371,1.762,1.762,0,0,0-.187.427,1.328,1.328,0,0,0-.068.423.761.761,0,0,0,.07.351.464.464,0,0,0,.46.262.79.79,0,0,0,.34-.117,1.394,1.394,0,0,0,.34-.276A2.211,2.211,0,0,0,13.523,13" fill="#464646" stroke="#464646" stroke-miterlimit="10" stroke-width="0"/>
      <rect x="20.116" y="13.781" width="1" height="14.438" fill="#464646"/>
    </g>
    <g>
      <path d="M24.433,36.589a1.9,1.9,0,0,1-1.024-.3l-2.2-1.416a2,2,0,0,1-.632-2.686l5.285-8.858.347.069a.706.706,0,0,0,.145.014h0a.836.836,0,0,0,.707-.4.943.943,0,0,0,.132-.726.891.891,0,0,0-.154-.335l-.2-.267.9-1.513,1.979,1.271L36.705,9.727l-.483-1.579,3.247-3.035,1.5.967L39.81,10.425l-1.6.256L31.236,22.4l.083.081L33.187,23.7,32.3,25.18l-.347-.071a.791.791,0,0,0-.145-.014.835.835,0,0,0-.707.4.936.936,0,0,0-.133.724.905.905,0,0,0,.154.336l.2.267-5.274,8.841a1.878,1.878,0,0,1-1.19.877A1.933,1.933,0,0,1,24.433,36.589Z" fill="url(#Siemens_-_Light_blue)"/>
      <path d="M39.525,5.744,40.4,6.3l-.986,3.68-1.275.2c-.008,0-.015.005-.023.006l-.025.007a.468.468,0,0,0-.147.067l-.015.012a.473.473,0,0,0-.114.126l-.007.008-7.2,12.066-.67-.431,7.2-12.064.005-.014a.5.5,0,0,0,.054-.152c0-.01,0-.02.005-.03a.481.481,0,0,0-.007-.16L37.189,9.6c0-.008,0-.016-.005-.024L36.791,8.3l2.734-2.556M27.905,20.869l1.562,1,.005,0,.006,0,1.482.952,0,0h0l1.546,1.015-.458.767a1.244,1.244,0,0,0-.243-.024,1.339,1.339,0,0,0-1.137.642l-.033.057a1.391,1.391,0,0,0-.157,1.038,1.425,1.425,0,0,0,.239.519l-5.1,8.555a1.384,1.384,0,0,1-.874.646,1.41,1.41,0,0,1-.315.036,1.385,1.385,0,0,1-.752-.224l-2.2-1.415A1.5,1.5,0,0,1,21,32.439l5.1-8.555a1.254,1.254,0,0,0,.244.024,1.336,1.336,0,0,0,1.136-.642l.034-.056a1.415,1.415,0,0,0-.083-1.558l.467-.783M39.411,4.482l-.569.532L36.108,7.569,35.652,8l.183.6.33,1.07L29.554,20.74l-1.108-.712-.87-.559-.53.888-.466.782-.342.572.4.536a.414.414,0,0,1,.069.152.393.393,0,0,1-.042.3l-.034.056a.334.334,0,0,1-.277.155l-.694-.14-.408.6-5.1,8.554a2.5,2.5,0,0,0,.79,3.364l2.2,1.415a2.377,2.377,0,0,0,3.341-.787l5.1-8.555.341-.572-.4-.535a.42.42,0,0,1-.07-.153.393.393,0,0,1,.042-.3l.036-.06a.336.336,0,0,1,.276-.152l.694.14.408-.6.458-.767.491-.823-.8-.525-1.157-.76,6.632-11.121,1.032-.165.64-.1.167-.626.986-3.679.189-.706-.615-.394-.87-.559-.655-.421Z" fill="#464646"/>
    </g>
    <g>
      <g>
        <polygon points="10.883 6.412 9.466 6.787 12.308 19.184 13.725 18.807 10.883 6.412" fill="url(#Siemens_-_Light_gray-2)"/>
        <path d="M11.936,19.8,8.87,6.427,11.256,5.8l3.065,13.37ZM10.062,7.147,12.68,18.568l.45-.12L10.512,7.028Z" fill="#474647"/>
      </g>
      <g>
        <path d="M11.291,20.675l3.979-1.053,3.408,11.952a1.641,1.641,0,0,1-1.176,1.91l-2.194.581a1.512,1.512,0,0,1-1.873-1.132Zm.185-1.218a.968.968,0,0,1,.434-.218l.509-.135,1.914-.507a.629.629,0,0,1,.77.438l.167.587-3.979,1.053-.105-.6A.756.756,0,0,1,11.476,19.457Z" fill="url(#Siemens_-_Dark_gray)"/>
        <path d="M14.907,34.617a1.983,1.983,0,0,1-1.036-.29,2.007,2.007,0,0,1-.924-1.282L10.693,20.157a1.273,1.273,0,0,1,.43-1.054l0,0a1.458,1.458,0,0,1,.656-.346l2.424-.641a1.13,1.13,0,0,1,1.38.785l3.573,12.539a2.14,2.14,0,0,1-1.528,2.53l-2.193.58A2.1,2.1,0,0,1,14.907,34.617ZM11.862,21.041l2.065,11.806a1.006,1.006,0,0,0,.46.624,1.024,1.024,0,0,0,.794.11L17.374,33a1.115,1.115,0,0,0,.671-.509,1.1,1.1,0,0,0,.145-.807L14.924,20.23Zm-.036-1.228c-.138.137-.145.176-.142.218l0,.022,2.963-.784-.027-.1c-.088-.094-.123-.1-.161-.09l-2.424.641A.551.551,0,0,0,11.826,19.813Z" fill="#474647"/>
      </g>
      <g>
        <path d="M13.35,4.632l-.245-1.065L12.86,2.5a12.117,12.117,0,0,1,2.525.159,23.93,23.93,0,0,1,3.2,1.085C17.657,3.705,14.751,3.607,13.35,4.632Zm-6.737,2.3-.05-.219L5.955,4.057l-.05-.219a.608.608,0,0,1,.075-.457A.614.614,0,0,1,6.35,3.1l5.7-1.509a.575.575,0,0,1,.711.43l.709,3.093a.614.614,0,0,1-.075.456.607.607,0,0,1-.37.279l-1.617.429h0l-.393.1L7.326,7.36A.589.589,0,0,1,6.613,6.929Zm-.17-.743-2.2.583-.184-.8-.184-.8,2.2-.583ZM2.189,4.213,2.8,4.052a.728.728,0,0,1,.9.544l.319,1.392.3,1.327h0l.015.065a.787.787,0,0,1-.562.93l-.606.161Z" fill="url(#Siemens_-_Dark_gray-2)"/>
        <path d="M13.362,4.632l-.244-1.065L12.872,2.5a12.126,12.126,0,0,1,2.526.159,24.028,24.028,0,0,1,3.2,1.085C17.669,3.705,14.764,3.607,13.362,4.632Zm-6.736,2.3-.05-.219L5.967,4.057l-.05-.219A.623.623,0,0,1,6.362,3.1l5.7-1.509a.576.576,0,0,1,.712.43l.709,3.093a.619.619,0,0,1-.075.456.61.61,0,0,1-.37.279l-1.618.429h0l-.392.1L7.338,7.36A.588.588,0,0,1,6.626,6.929Zm-.171-.743-2.2.583-.184-.8-.184-.8,2.2-.583ZM2.2,4.213l.606-.161a.73.73,0,0,1,.567.08.722.722,0,0,1,.333.464l.319,1.392.3,1.327h0l.015.065a.787.787,0,0,1-.562.93l-.606.161Z" fill="url(#Siemens_-_Dark_gray-3)"/>
        <path d="M3.165,8.971A.508.508,0,0,1,2.906,8.9a.5.5,0,0,1-.228-.316L1.7,4.325a.5.5,0,0,1,.36-.6l.606-.16a1.225,1.225,0,0,1,1.515.916l.017.077L5.48,4.223l-.063-.272a1.112,1.112,0,0,1,.135-.828,1.1,1.1,0,0,1,.671-.5l5.7-1.509a1.076,1.076,0,0,1,1.327.8l.018.078a12.122,12.122,0,0,1,2.217.176,23.72,23.72,0,0,1,3.284,1.111.5.5,0,0,1,.3.568.463.463,0,0,1-.508.4,9.771,9.771,0,0,0-4.637.621L13.959,5a1.126,1.126,0,0,1-.134.825,1.111,1.111,0,0,1-.67.506l-1.616.427a.274.274,0,0,1-.039.009L7.454,7.844a1.09,1.09,0,0,1-1.328-.8v0L6.071,6.8,4.79,7.141l.015.063a1.319,1.319,0,0,1-.138,1.011,1.272,1.272,0,0,1-.77.578l-.6.161A.506.506,0,0,1,3.165,8.971Zm-.381-4.4.753,3.283.106-.028a.287.287,0,0,0,.2-.336L3.207,4.708a.229.229,0,0,0-.1-.149.236.236,0,0,0-.181-.023Zm9.4-2.495-5.7,1.508m-.086.14.539,2.35v0l.169.738a.075.075,0,0,0,.039.048l5.758-1.5.086-.14L12.9,4.843a.551.551,0,0,1-.034-.1l-.49-2.138a.52.52,0,0,1-.013-.1l-.084-.366M4.47,5.524l.143.629,1.235-.326L5.7,5.2ZM13.5,2.989l.2.87a7.525,7.525,0,0,1,2.222-.551c-.231-.069-.448-.126-.634-.164A9.753,9.753,0,0,0,13.5,2.989Z" fill="#474647"/>
      </g>
    </g>
    <g>
      <path d="M24.32,31.849,29.954,20.1a1.087,1.087,0,0,1,1.1-.617l7.182,4.575V38.518L24.3,46.46V31.849h.023" fill="url(#Siemens_-_Dark_gray-4)"/>
      <path d="M24.3,46.96a.5.5,0,0,1-.251-.067.5.5,0,0,1-.249-.433V31.85a.5.5,0,0,1,.131-.337L29.5,19.886a1.589,1.589,0,0,1,1.609-.9.5.5,0,0,1,.214.075l7.183,4.575a.5.5,0,0,1,.231.422V38.518a.5.5,0,0,1-.253.434L24.544,46.9A.5.5,0,0,1,24.3,46.96Zm.5-14.948V45.6l12.942-7.373V24.334L30.9,19.979a.591.591,0,0,0-.5.336Z" fill="#464646"/>
    </g>
    <path d="M32.649,22.393a1.551,1.551,0,0,1,.134.657,2.756,2.756,0,0,1-.13.81,3.915,3.915,0,0,1-.345.807,4.1,4.1,0,0,1-.519.7,2.893,2.893,0,0,1-.638.52,1.575,1.575,0,0,1-.639.217.939.939,0,0,1-.522-.1.912.912,0,0,1-.349-.406,1.525,1.525,0,0,1-.134-.657,2.867,2.867,0,0,1,.13-.81,4.049,4.049,0,0,1,.346-.8,4.1,4.1,0,0,1,.519-.7,2.846,2.846,0,0,1,.638-.52,1.6,1.6,0,0,1,.639-.217.81.81,0,0,1,.87.5Zm-.7,1.533a1.4,1.4,0,0,0,.068-.431.741.741,0,0,0-.071-.343.4.4,0,0,0-.188-.21.428.428,0,0,0-.271-.059.887.887,0,0,0-.34.116,1.609,1.609,0,0,0-.34.276,1.923,1.923,0,0,0-.27.372,1.745,1.745,0,0,0-.187.427,1.324,1.324,0,0,0-.068.423.763.763,0,0,0,.07.351.465.465,0,0,0,.46.261.774.774,0,0,0,.34-.116,1.394,1.394,0,0,0,.34-.276,1.706,1.706,0,0,0,.27-.372,1.731,1.731,0,0,0,.187-.419" fill="#3b3b3b"/>
    <rect x="19.088" y="28.096" width="1.638" height="1.001" transform="translate(-11.622 13.766) rotate(-29.967)" fill="#464646"/>
    <g>
      <path d="M19.122,34.981a2.914,2.914,0,0,1-2.449-1.346,1.354,1.354,0,0,1-.318-.954l6.659-18.557a.605.605,0,0,0,.021-.641.434.434,0,0,0-.052-.088c-.259-.352-2.51-3.519-1.6-6.179a6.5,6.5,0,0,1,3.128-3.709,3.334,3.334,0,0,1,.675-.3,2.978,2.978,0,0,1,.385.127L24.351,6.9a.5.5,0,0,0-.028.176c.087,3.2.135,3.22.512,3.349l3.095,1.061a.5.5,0,0,0,.525-.13l1.9-2.009a.518.518,0,0,0,.11-.183c.01-.029.922-2.72,1.3-3.752a2.443,2.443,0,0,1,.372.154,6.745,6.745,0,0,1,.518,5.578,5.849,5.849,0,0,1-2.941,3.009,13.663,13.663,0,0,1-2.189.919.677.677,0,0,0-.424.455L21.008,34.168a1.366,1.366,0,0,1-.848.625A2.975,2.975,0,0,1,19.122,34.981Zm.152-4.229a.945.945,0,0,0-.456.12,1.031,1.031,0,0,0,.446,1.956.945.945,0,0,0,.456-.12,1.093,1.093,0,0,0,.5-.594,1.006,1.006,0,0,0-.612-1.3A.988.988,0,0,0,19.274,30.752Z" fill="url(#Siemens_-_Dark_blue)"/>
      <path d="M24.853,3.893l-.976,2.848a1,1,0,0,0-.054.351c.087,3.215.1,3.551.849,3.81l3.095,1.06a.983.983,0,0,0,.324.054,1,1,0,0,0,.728-.313l1.9-2.01a1,1,0,0,0,.219-.365c.008-.024.61-1.8,1.037-3.013a6.37,6.37,0,0,1,.211,4.659,5.38,5.38,0,0,1-2.708,2.741,13.194,13.194,0,0,1-2.105.884.969.969,0,0,0-.167.07,1.146,1.146,0,0,0-.583.711L20.54,33.991a1.167,1.167,0,0,1-.554.333,2.461,2.461,0,0,1-.864.157,2.415,2.415,0,0,1-2.029-1.118,1.51,1.51,0,0,1-.252-.554L23.465,14.35a1.123,1.123,0,0,0,.029-1.068.974.974,0,0,0-.108-.184c-.884-1.2-2.2-3.754-1.528-5.72a6,6,0,0,1,2.89-3.429l.105-.056M19.264,33.328a1.451,1.451,0,0,0,.689-.177,1.6,1.6,0,0,0,.736-.874,1.557,1.557,0,0,0-.045-1.142,1.47,1.47,0,0,0-.877-.8,1.489,1.489,0,0,0-.493-.086,1.463,1.463,0,0,0-.689.177,1.531,1.531,0,0,0,.679,2.9M32.305,5.386h0M16.84,32.791h0M25.162,2.7a.138.138,0,0,0-.06.01,3.621,3.621,0,0,0-.824.354,7.019,7.019,0,0,0-3.366,3.988c-.921,2.688,1.042,5.787,1.669,6.638.031.068.062.136,0,.171L15.883,32.519a1.749,1.749,0,0,0,.37,1.387,3.408,3.408,0,0,0,2.869,1.575,3.486,3.486,0,0,0,1.212-.219,1.791,1.791,0,0,0,1.149-.939L27.57,15.69c.035-.1.035-.1.1-.138a14.243,14.243,0,0,0,2.272-.954,6.338,6.338,0,0,0,3.184-3.3,7.227,7.227,0,0,0-.6-6.041c-.081-.15-.577-.307-.869-.387a.236.236,0,0,0-.058-.007.248.248,0,0,0-.228.166c-.316.826-1.384,3.978-1.384,3.978l-1.9,2.009L25,9.956c-.1-.034-.174-2.891-.174-2.891L26.1,3.343a.342.342,0,0,0-.087-.376,4.01,4.01,0,0,0-.85-.265Zm-5.9,29.626A.532.532,0,0,1,19.1,32.3a.55.55,0,0,1-.04-.985.462.462,0,0,1,.219-.06.522.522,0,0,1,.169.031.508.508,0,0,1,.3.67.611.611,0,0,1-.259.315.457.457,0,0,1-.22.06Z" fill="#464646"/>
    </g>
    <g>
      <polygon points="24.297 31.85 24.297 46.46 6.683 36.302 6.6 21.671 24.297 31.85" fill="url(#Siemens_-_Light_gray-3)"/>
      <path d="M24.3,46.96a.505.505,0,0,1-.25-.066L6.434,36.735a.5.5,0,0,1-.25-.43L6.1,21.674a.5.5,0,0,1,.749-.436l17.7,10.178a.5.5,0,0,1,.251.434V46.46a.5.5,0,0,1-.5.5ZM7.182,36.012,23.8,45.6V32.139l-16.692-9.6Z" fill="#464646"/>
    </g>
    <g>
      <circle cx="36" cy="36" r="11.5" fill="url(#linear-gradient)"/>
      <path d="M36,25A11,11,0,1,1,25,36,11.013,11.013,0,0,1,36,25m0-1A12,12,0,1,0,48,36,12,12,0,0,0,36,24Z" fill="#4e4a48"/>
    </g>
    <g>
      <path d="M29.324,42.7a4.625,4.625,0,0,0,3.264,1.32h0a4.628,4.628,0,0,0,3.266-1.32l1.954-1.954a1.477,1.477,0,0,0,.413-1.2c1.154-.326,1.873-1.052,3.289-2.5.33-.338.692-.709,1.117-1.134a4.621,4.621,0,0,0-6.443-6.625l-.087.086-1.933,1.933a1.476,1.476,0,0,0-.412,1.207,4.518,4.518,0,0,0-1.959,1.174l-2.469,2.473A4.632,4.632,0,0,0,29.324,42.7Zm6.02-7.123a1.514,1.514,0,0,0-.107-.227,1.618,1.618,0,0,1,1.388,1.216,1.267,1.267,0,0,0,.055.132A1.589,1.589,0,0,1,35.344,35.577Zm4.017-4.528A1.6,1.6,0,0,1,40.5,33.79c-.436.436-.809.817-1.144,1.161l-.093.094a4.571,4.571,0,0,0-2.314-2.278L38.22,31.5A1.614,1.614,0,0,1,39.361,31.049Zm-7.913,7.236,1.248-1.25A4.607,4.607,0,0,0,35,39.314l-1.262,1.262a1.617,1.617,0,0,1-2.282-2.291Z" fill="#177491"/>
      <path d="M35.058,33.3a3.653,3.653,0,0,1,3.544,2.79.5.5,0,1,1-.975.224,2.642,2.642,0,0,0-2.57-2.01,2.527,2.527,0,0,0-1.822.771l-2.469,2.474a2.627,2.627,0,0,0,0,3.706,2.672,2.672,0,0,0,3.7,0L36.422,39.3a.5.5,0,1,1,.705.711l-1.955,1.955a3.693,3.693,0,0,1-5.112,0,3.632,3.632,0,0,1,0-5.124l2.468-2.474A3.51,3.51,0,0,1,35.058,33.3Z" fill="#fff"/>
      <path d="M39.388,28.993a3.627,3.627,0,0,1,2.557,6.186c-.431.431-.8.807-1.122,1.139-1.632,1.668-2.121,2.17-3.381,2.353a3.593,3.593,0,0,1-4-2.571.5.5,0,0,1,.956-.293l0,.017a2.606,2.606,0,0,0,2.9,1.855c.9-.13,1.222-.439,2.8-2.055.333-.341.7-.72,1.136-1.153a2.629,2.629,0,0,0,0-3.706,2.674,2.674,0,0,0-3.7,0L35.6,32.7a.5.5,0,0,1-.7-.706l1.93-1.938A3.591,3.591,0,0,1,39.388,28.993Z" fill="#fff"/>
    </g>
  </g>
</svg>
