<svg id="Image" xmlns="http://www.w3.org/2000/svg" xmlns:xlink="http://www.w3.org/1999/xlink" viewBox="0 0 48 48">
  <defs>
    <linearGradient id="Siemens_-_Light_gray_4" data-name="Siemens - Light gray 4" x1="12.641" y1="21.736" x2="35.358" y2="44.453" gradientUnits="userSpaceOnUse">
      <stop offset="0" stop-color="#fff"/>
      <stop offset="1" stop-color="#dadada"/>
    </linearGradient>
    <linearGradient id="Siemens_-_Light_gray" data-name="Siemens - Light gray" x1="8.07" y1="12.956" x2="33.282" y2="38.167" gradientUnits="userSpaceOnUse">
      <stop offset="0" stop-color="#fff"/>
      <stop offset="1" stop-color="#dcdcdc"/>
    </linearGradient>
    <linearGradient id="Siemens_-_Light_blue" data-name="Siemens - Light blue" x1="20.341" y1="10.069" x2="31.237" y2="12.63" gradientTransform="translate(14.863 -3.898) rotate(31.772)" gradientUnits="userSpaceOnUse">
      <stop offset="0" stop-color="#cde6eb"/>
      <stop offset="1" stop-color="#8cc3d2"/>
    </linearGradient>
    <linearGradient id="Siemens_-_Light_gray-2" x1="-176.392" y1="44.096" x2="-184.501" y2="52.204" gradientTransform="matrix(-0.856, -0.517, -0.517, 0.856, -116.965, -122.785)" xlink:href="#Siemens_-_Light_gray"/>
    <linearGradient id="Siemens_-_Dark_gray" data-name="Siemens - Dark gray" x1="31.562" y1="55.491" x2="28.115" y2="58.938" gradientTransform="matrix(0.856, 0.517, -0.517, 0.856, 19.348, -40.448)" gradientUnits="userSpaceOnUse">
      <stop offset="0" stop-color="#f2f2f2"/>
      <stop offset="1" stop-color="#999"/>
    </linearGradient>
    <linearGradient id="Siemens_-_Dark_gray-2" x1="21.488" y1="37.045" x2="11.241" y2="47.292" xlink:href="#Siemens_-_Dark_gray"/>
    <linearGradient id="Siemens_-_Dark_gray-3" x1="24.027" y1="29.88" x2="36.575" y2="29.88" gradientTransform="matrix(1, 0, 0, 1, 0, 0)" xlink:href="#Siemens_-_Dark_gray"/>
    <linearGradient id="Siemens_-_Dark_blue" data-name="Siemens - Dark blue" x1="14.256" y1="5.09" x2="29.345" y2="16.258" gradientTransform="translate(4.038 1.609) rotate(12.274)" gradientUnits="userSpaceOnUse">
      <stop offset="0" stop-color="#73b4c8"/>
      <stop offset="1" stop-color="#177491"/>
    </linearGradient>
    <linearGradient id="Siemens_-_Light_gray-3" x1="6.519" y1="21.294" x2="25.637" y2="40.412" xlink:href="#Siemens_-_Light_gray"/>
  </defs>
  <g>
    <g id="Plane">
      <g>
        <path d="M24.013,46.5a.673.673,0,0,1-.358-.1L1.767,33.557A.541.541,0,0,1,1.5,33.1a.547.547,0,0,1,.272-.468L23.643,19.607a.688.688,0,0,1,.37-.107.673.673,0,0,1,.36.1L46.236,32.635a.539.539,0,0,1,.264.462.548.548,0,0,1-.276.465L24.378,46.4A.688.688,0,0,1,24.013,46.5Z" fill="url(#Siemens_-_Light_gray_4)"/>
        <path d="M24.012,20a.207.207,0,0,1,.114.036L45.964,33.054c.013.009.036.025.036.041s-.022.031-.021.031h0L24.108,45.975a.191.191,0,0,1-.1.025.206.206,0,0,1-.113-.036L2.037,33.136C2.023,33.127,2,33.11,2,33.1s.02-.03.02-.03h0l21.9-13.039a.179.179,0,0,1,.1-.026m0-1a1.184,1.184,0,0,0-.625.177L1.508,32.205a1.033,1.033,0,0,0,.006,1.783L23.393,46.827a1.194,1.194,0,0,0,1.238,0L46.486,33.988a1.033,1.033,0,0,0,.006-1.783L24.638,19.177A1.187,1.187,0,0,0,24.012,19Z" fill="#4f4b49"/>
      </g>
    </g>
    <g>
      <path d="M24.092,28.916,8.1,19.712l.141,13.013,15.807,9.318,12.527-7.169V21.862L20.714,12.611l-7.357-4.42a.977.977,0,0,0-.995.555L8.1,19.712" stroke="#464646" stroke-linejoin="round" fill="url(#Siemens_-_Light_gray)"/>
      <path d="M14.965,10.525a1.406,1.406,0,0,1,.12.591,2.471,2.471,0,0,1-.117.729,3.558,3.558,0,0,1-.31.726,3.659,3.659,0,0,1-.468.629,2.623,2.623,0,0,1-.574.469,1.427,1.427,0,0,1-.575.2.851.851,0,0,1-.47-.088.831.831,0,0,1-.314-.366,1.382,1.382,0,0,1-.12-.591,2.507,2.507,0,0,1,.117-.729,3.7,3.7,0,0,1,.31-.719,3.659,3.659,0,0,1,.468-.629,2.565,2.565,0,0,1,.574-.468,1.447,1.447,0,0,1,.575-.2.733.733,0,0,1,.784.447ZM14.33,11.9a1.23,1.23,0,0,0,.062-.387.67.67,0,0,0-.064-.309.355.355,0,0,0-.169-.189.387.387,0,0,0-.244-.054.819.819,0,0,0-.307.105,1.468,1.468,0,0,0-.3.249,1.71,1.71,0,0,0-.243.334,1.553,1.553,0,0,0-.168.385,1.193,1.193,0,0,0-.062.38.7.7,0,0,0,.064.316.34.34,0,0,0,.169.182.347.347,0,0,0,.244.054.712.712,0,0,0,.307-.105,1.251,1.251,0,0,0,.3-.249,1.965,1.965,0,0,0,.411-.712" fill="#464646" stroke="#464646" stroke-miterlimit="10" stroke-width="0"/>
      <line x1="20.714" y1="12.611" x2="20.714" y2="25.605" fill="none" stroke="#464646" stroke-linejoin="round"/>
    </g>
    <g>
      <path d="M24.149,33.187a1.75,1.75,0,0,1-.948-.281l-1.983-1.273a1.848,1.848,0,0,1-.584-2.487l4.775-8,.347.07a.543.543,0,0,0,.12.012.7.7,0,0,0,.592-.333.8.8,0,0,0,.116-.616.78.78,0,0,0-.131-.283l-.2-.268.857-1.435,1.779,1.144L35.14,8.957,34.7,7.526l2.974-2.78,1.417.912L38.029,9.635,36.56,9.87,30.336,20.359l.051.038L32.1,21.519l-.839,1.406-.346-.07a.609.609,0,0,0-.12-.011.7.7,0,0,0-.593.333.8.8,0,0,0-.115.615.741.741,0,0,0,.131.283l.2.268-4.764,7.986a1.739,1.739,0,0,1-1.5.858Z" fill="url(#Siemens_-_Light_blue)"/>
      <path d="M37.733,5.377l.783.5-.887,3.311-1.148.184-.02.006-.023.006a.406.406,0,0,0-.132.06l-.013.011a.411.411,0,0,0-.1.113l-.007.007-6.476,10.86-.6-.388L35.583,9.194l.005-.013a.475.475,0,0,0,.048-.137l0-.027a.438.438,0,0,0-.006-.144l0-.026,0-.021-.354-1.148,2.461-2.3M27.275,18.99l1.406.9,0,0,.005,0,1.334.857,0,0h0l1.391.913-.412.691a1.154,1.154,0,0,0-.219-.022,1.2,1.2,0,0,0-1.023.578l-.03.052a1.279,1.279,0,0,0,.074,1.4l-4.593,7.7a1.238,1.238,0,0,1-1.747.412l-1.983-1.273a1.346,1.346,0,0,1-.425-1.81l4.593-7.7a1.071,1.071,0,0,0,.219.022,1.2,1.2,0,0,0,1.022-.578l.031-.05a1.256,1.256,0,0,0,.141-.936,1.278,1.278,0,0,0-.215-.467l.42-.7M37.618,4.115l-.568.532-2.461,2.3-.456.427.183.6.284.92-5.874,9.842-.911-.585-.869-.559-.53.888-.42.7-.341.572.4.535a.281.281,0,0,1,.045.1.255.255,0,0,1-.026.194l-.03.051a.205.205,0,0,1-.164.09l-.694-.139-.384.605L20.2,28.89a2.346,2.346,0,0,0,.744,3.163l1.982,1.274a2.239,2.239,0,0,0,3.147-.742l4.593-7.7.341-.572-.4-.535a.267.267,0,0,1-.046-.1.26.26,0,0,1,.026-.193l.033-.054a.2.2,0,0,1,.162-.088l.694.14.384-.606.412-.69.49-.823-.8-.526-.962-.63,5.9-9.887.883-.141.64-.1.167-.626.887-3.312.189-.7-.614-.4-.784-.5-.655-.421Z" fill="#464646"/>
    </g>
    <g>
      <polygon points="11.955 5.979 10.679 6.316 13.237 17.474 14.513 17.134 11.955 5.979" stroke="#474647" stroke-miterlimit="10" fill="url(#Siemens_-_Light_gray-2)"/>
      <path d="M12.322,18.815l3.581-.948L18.97,28.625a1.476,1.476,0,0,1-1.059,1.719l-1.974.522a1.361,1.361,0,0,1-1.686-1.018Zm.166-1.1a.876.876,0,0,1,.391-.2l.458-.122,1.723-.456a.566.566,0,0,1,.693.394l.15.528-3.581.948-.095-.543A.683.683,0,0,1,12.488,17.719Z" stroke="#474647" stroke-miterlimit="10" fill="url(#Siemens_-_Dark_gray)"/>
      <path d="M14.175,4.377l-.22-.959-.221-.965a10.933,10.933,0,0,1,2.273.143,21.538,21.538,0,0,1,2.877.977C18.051,3.543,15.436,3.454,14.175,4.377ZM8.112,6.444l-.045-.2L7.519,3.859l-.045-.2A.561.561,0,0,1,7.875,3l5.131-1.358a.517.517,0,0,1,.64.387l.638,2.784a.559.559,0,0,1-.4.661l-1.456.385h0l-.353.094-3.318.878A.53.53,0,0,1,8.112,6.444Zm-.153-.668L5.977,6.3l-.165-.722-.166-.722,1.982-.524ZM4.13,4l.545-.144a.653.653,0,0,1,.81.489L5.772,5.6l.274,1.194h0l.013.059a.708.708,0,0,1-.5.837l-.545.144Z" stroke="#474647" stroke-linejoin="round" fill="url(#Siemens_-_Dark_gray-2)"/>
    </g>
    <path d="M24.048,28.872,29.118,18.3a.978.978,0,0,1,.993-.556l6.464,4.118V34.874L24.027,42.022V28.872h.021" stroke="#464646" stroke-linejoin="round" fill="url(#Siemens_-_Dark_gray-3)"/>
    <path d="M31.544,20.361a1.4,1.4,0,0,1,.121.592,2.471,2.471,0,0,1-.117.729,3.53,3.53,0,0,1-.311.726,3.654,3.654,0,0,1-.467.629,2.589,2.589,0,0,1-.574.468,1.43,1.43,0,0,1-.575.2.841.841,0,0,1-.47-.089.823.823,0,0,1-.314-.365,1.372,1.372,0,0,1-.12-.592,2.513,2.513,0,0,1,.117-.729,3.381,3.381,0,0,1,.778-1.347,2.57,2.57,0,0,1,.574-.469,1.444,1.444,0,0,1,.575-.2.728.728,0,0,1,.783.446Zm-.634,1.38a1.24,1.24,0,0,0,.062-.388.663.663,0,0,0-.064-.308.365.365,0,0,0-.169-.19A.4.4,0,0,0,30.5,20.8a.813.813,0,0,0-.307.105,1.436,1.436,0,0,0-.306.249,1.764,1.764,0,0,0-.243.334,1.6,1.6,0,0,0-.167.384,1.2,1.2,0,0,0-.062.381.688.688,0,0,0,.064.316.34.34,0,0,0,.169.182.346.346,0,0,0,.244.053.691.691,0,0,0,.306-.105,1.232,1.232,0,0,0,.306-.248,1.987,1.987,0,0,0,.411-.712" fill="#3b3b3b"/>
    <line x1="19.437" y1="26.312" x2="20.714" y2="25.576" fill="none" stroke="#464646" stroke-linejoin="round"/>
    <g>
      <path d="M19.37,31.64a2.571,2.571,0,0,1-2.162-1.188,1.219,1.219,0,0,1-.281-.814l5.991-16.694a.591.591,0,0,0,.018-.624.443.443,0,0,0-.051-.086c-.232-.315-2.244-3.144-1.431-5.516a5.8,5.8,0,0,1,2.791-3.309,3.077,3.077,0,0,1,.587-.264,2.917,2.917,0,0,1,.281.093L24.028,6.405A.493.493,0,0,0,24,6.58c.079,2.918.118,2.932.494,3.061l2.785.955a.505.505,0,0,0,.525-.13l1.706-1.809a.506.506,0,0,0,.111-.183c.009-.025.8-2.372,1.153-3.331a2.339,2.339,0,0,1,.268.114,6.027,6.027,0,0,1,.456,4.968A5.226,5.226,0,0,1,28.875,12.9a12.245,12.245,0,0,1-1.961.824.663.663,0,0,0-.414.443L21.019,30.943a1.2,1.2,0,0,1-.732.531,2.62,2.62,0,0,1-.917.166Zm.137-3.8a.9.9,0,0,0-.432.112.958.958,0,0,0-.472.563,1,1,0,0,0,.027.735.932.932,0,0,0,.553.5.977.977,0,0,0,.315.055.91.91,0,0,0,.431-.113,1.024,1.024,0,0,0,.473-.566.988.988,0,0,0-.04-.759.94.94,0,0,0-.542-.476A.95.95,0,0,0,19.507,27.835Z" fill="url(#Siemens_-_Dark_blue)"/>
      <path d="M24.351,3.921l-.8,2.321a1,1,0,0,0-.054.352c.08,2.956.088,3.265.832,3.52l2.785.954a.985.985,0,0,0,.324.055,1,1,0,0,0,.728-.314L29.876,9a1.017,1.017,0,0,0,.22-.365c.006-.02.475-1.4.849-2.474a5.706,5.706,0,0,1,.084,3.891,4.74,4.74,0,0,1-2.389,2.411,11.776,11.776,0,0,1-1.878.788,1.06,1.06,0,0,0-.167.071,1.112,1.112,0,0,0-.572.7L20.561,30.748a1.061,1.061,0,0,1-.448.258,2.125,2.125,0,0,1-.743.135,2.075,2.075,0,0,1-1.743-.961,1.445,1.445,0,0,1-.207-.435L23.368,13.17a1.105,1.105,0,0,0,.028-1.049,1.056,1.056,0,0,0-.108-.184C22.5,10.873,21.334,8.61,21.927,6.88a5.311,5.311,0,0,1,2.424-2.959M19.5,30.3a1.406,1.406,0,0,0,.667-.171,1.535,1.535,0,0,0,.71-.843,1.5,1.5,0,0,0-.044-1.1,1.426,1.426,0,0,0-.848-.771,1.462,1.462,0,0,0-.476-.082,1.406,1.406,0,0,0-.667.171,1.478,1.478,0,0,0,.658,2.8M31.328,5.091h0M24.805,2.639a.111.111,0,0,0-.053.01,3.25,3.25,0,0,0-.742.318,6.316,6.316,0,0,0-3.029,3.589c-.829,2.42.938,5.209,1.5,5.974.028.062.055.123,0,.155l-6.024,16.79a1.569,1.569,0,0,0,.333,1.248,3.068,3.068,0,0,0,2.582,1.418,3.136,3.136,0,0,0,1.09-.2A1.616,1.616,0,0,0,21.5,31.1l5.478-16.77c.032-.093.032-.093.091-.124a12.8,12.8,0,0,0,2.046-.859,5.7,5.7,0,0,0,2.865-2.97,6.5,6.5,0,0,0-.541-5.437c-.074-.135-.52-.276-.783-.348a.186.186,0,0,0-.052-.007.223.223,0,0,0-.205.15c-.284.743-1.246,3.58-1.246,3.58l-1.706,1.809-2.785-.955c-.087-.03-.156-2.6-.156-2.6l1.148-3.35a.308.308,0,0,0-.078-.339,3.591,3.591,0,0,0-.766-.239ZM19.5,29.3a.472.472,0,0,1-.152-.028.5.5,0,0,1-.037-.886.408.408,0,0,1,.2-.054.476.476,0,0,1,.152.028.457.457,0,0,1,.27.6.549.549,0,0,1-.234.284.413.413,0,0,1-.2.054Z" fill="#464646"/>
    </g>
    <polygon points="24.027 28.872 24.027 42.022 8.175 32.88 8.1 19.712 24.027 28.872" stroke="#464646" stroke-linecap="round" stroke-linejoin="round" fill="url(#Siemens_-_Light_gray-3)"/>
  </g>
</svg>
