<svg id="Image" xmlns="http://www.w3.org/2000/svg" xmlns:xlink="http://www.w3.org/1999/xlink" viewBox="0 0 48 48">
  <defs>
    <linearGradient id="Siemens_-_Light_gray" data-name="Siemens - Light gray" x1="1.5" y1="1.5" x2="46.5" y2="46.5" gradientUnits="userSpaceOnUse">
      <stop offset="0" stop-color="#fff"/>
      <stop offset="1" stop-color="#dcdcdc"/>
    </linearGradient>
    <linearGradient id="Siemens_-_Light_gray-2" x1="7.307" y1="6.144" x2="15.05" y2="13.886" xlink:href="#Siemens_-_Light_gray"/>
    <linearGradient id="New_Gradient_Swatch_1" data-name="New Gradient Swatch 1" x1="4.653" y1="9.173" x2="6.368" y2="10.889" gradientUnits="userSpaceOnUse">
      <stop offset="0" stop-color="#7eb8cd"/>
      <stop offset="1" stop-color="#097091"/>
    </linearGradient>
    <linearGradient id="New_Gradient_Swatch_1-2" x1="15.979" y1="9.173" x2="17.694" y2="10.889" xlink:href="#New_Gradient_Swatch_1"/>
    <linearGradient id="New_Gradient_Swatch_1-3" x1="13.148" y1="14.067" x2="14.862" y2="15.781" xlink:href="#New_Gradient_Swatch_1"/>
    <linearGradient id="New_Gradient_Swatch_1-4" x1="7.492" y1="14.067" x2="9.206" y2="15.781" xlink:href="#New_Gradient_Swatch_1"/>
    <linearGradient id="New_Gradient_Swatch_1-5" x1="13.148" y1="4.249" x2="14.862" y2="5.963" xlink:href="#New_Gradient_Swatch_1"/>
    <linearGradient id="New_Gradient_Swatch_1-6" x1="7.492" y1="4.249" x2="9.206" y2="5.963" xlink:href="#New_Gradient_Swatch_1"/>
    <linearGradient id="Siemens_-_Light_gray-3" x1="7.307" y1="20.081" x2="15.05" y2="27.823" xlink:href="#Siemens_-_Light_gray"/>
    <linearGradient id="New_Gradient_Swatch_1-7" x1="4.653" y1="23.11" x2="6.368" y2="24.825" xlink:href="#New_Gradient_Swatch_1"/>
    <linearGradient id="New_Gradient_Swatch_1-8" x1="15.979" y1="23.11" x2="17.694" y2="24.825" xlink:href="#New_Gradient_Swatch_1"/>
    <linearGradient id="New_Gradient_Swatch_1-9" x1="13.148" y1="28.004" x2="14.862" y2="29.718" xlink:href="#New_Gradient_Swatch_1"/>
    <linearGradient id="New_Gradient_Swatch_1-10" x1="7.492" y1="28.004" x2="9.206" y2="29.718" xlink:href="#New_Gradient_Swatch_1"/>
    <linearGradient id="New_Gradient_Swatch_1-11" x1="13.148" y1="18.186" x2="14.862" y2="19.9" xlink:href="#New_Gradient_Swatch_1"/>
    <linearGradient id="New_Gradient_Swatch_1-12" x1="7.492" y1="18.186" x2="9.206" y2="19.9" xlink:href="#New_Gradient_Swatch_1"/>
    <linearGradient id="Siemens_-_Light_gray-4" x1="7.307" y1="34.25" x2="15.05" y2="41.993" xlink:href="#Siemens_-_Light_gray"/>
    <linearGradient id="New_Gradient_Swatch_1-13" x1="4.653" y1="37.28" x2="6.368" y2="38.995" xlink:href="#New_Gradient_Swatch_1"/>
    <linearGradient id="New_Gradient_Swatch_1-14" x1="15.979" y1="37.28" x2="17.694" y2="38.995" xlink:href="#New_Gradient_Swatch_1"/>
    <linearGradient id="New_Gradient_Swatch_1-15" x1="13.148" y1="42.174" x2="14.862" y2="43.888" xlink:href="#New_Gradient_Swatch_1"/>
    <linearGradient id="New_Gradient_Swatch_1-16" x1="7.492" y1="42.174" x2="9.206" y2="43.888" xlink:href="#New_Gradient_Swatch_1"/>
    <linearGradient id="New_Gradient_Swatch_1-17" x1="13.148" y1="32.356" x2="14.862" y2="34.07" xlink:href="#New_Gradient_Swatch_1"/>
    <linearGradient id="New_Gradient_Swatch_1-18" x1="7.492" y1="32.356" x2="9.206" y2="34.07" xlink:href="#New_Gradient_Swatch_1"/>
  </defs>
  <g>
    <rect x="1.5" y="1.5" width="45" height="45" stroke="#464646" stroke-miterlimit="10" fill="url(#Siemens_-_Light_gray)"/>
    <line x1="21.625" y1="9.198" x2="41.75" y2="9.198" fill="none" stroke="#464646" stroke-linecap="round" stroke-linejoin="round"/>
    <line x1="21.625" y1="23.609" x2="41.75" y2="23.609" fill="none" stroke="#464646" stroke-linecap="round" stroke-linejoin="round"/>
    <line x1="21.625" y1="38.122" x2="41.75" y2="38.122" fill="none" stroke="#464646" stroke-linecap="round" stroke-linejoin="round"/>
    <g>
      <polygon points="14.012 5.106 8.344 5.106 5.51 10.015 8.344 14.924 14.012 14.924 16.846 10.015 14.012 5.106" stroke="#177491" stroke-linejoin="round" fill="url(#Siemens_-_Light_gray-2)"/>
      <g>
        <path d="M5.51,11.243a1.209,1.209,0,1,1,.858-.354A1.209,1.209,0,0,1,5.51,11.243Z" fill="url(#New_Gradient_Swatch_1)"/>
        <path d="M5.51,9.319a.712.712,0,1,1,0,1.424.712.712,0,1,1,0-1.424m0-1a1.711,1.711,0,1,0,1.211.5,1.71,1.71,0,0,0-1.211-.5Z" fill="#4e4a48"/>
      </g>
      <g>
        <path d="M16.836,11.243a1.209,1.209,0,1,1,.858-.354A1.209,1.209,0,0,1,16.836,11.243Z" fill="url(#New_Gradient_Swatch_1-2)"/>
        <path d="M16.836,9.319a.712.712,0,1,1,0,1.424.712.712,0,1,1,0-1.424m0-1a1.711,1.711,0,1,0,1.211.5,1.708,1.708,0,0,0-1.211-.5Z" fill="#4e4a48"/>
      </g>
      <g>
        <path d="M14,16.136a1.21,1.21,0,1,1,.858-.355A1.2,1.2,0,0,1,14,16.136Z" fill="url(#New_Gradient_Swatch_1-3)"/>
        <path d="M14.005,14.212a.71.71,0,1,1-.5.208.707.707,0,0,1,.5-.208m0-1a1.712,1.712,0,1,0,1.21.5,1.706,1.706,0,0,0-1.21-.5Z" fill="#4e4a48"/>
      </g>
      <g>
        <path d="M8.348,16.136a1.212,1.212,0,1,1,.857-.355A1.2,1.2,0,0,1,8.348,16.136Z" fill="url(#New_Gradient_Swatch_1-4)"/>
        <path d="M8.348,14.212a.712.712,0,1,1-.5.208.71.71,0,0,1,.5-.208m0-1a1.711,1.711,0,1,0,1.211.5,1.706,1.706,0,0,0-1.211-.5Z" fill="#4e4a48"/>
      </g>
      <g>
        <path d="M14,6.318a1.209,1.209,0,1,1,.858-.354A1.2,1.2,0,0,1,14,6.318Z" fill="url(#New_Gradient_Swatch_1-5)"/>
        <path d="M14.005,4.394a.712.712,0,1,1-.5,1.216.713.713,0,0,1,.5-1.216m0-1a1.714,1.714,0,1,0,1.21.5,1.707,1.707,0,0,0-1.21-.5Z" fill="#4e4a48"/>
      </g>
      <g>
        <path d="M8.348,6.318a1.21,1.21,0,1,1,.857-.354A1.2,1.2,0,0,1,8.348,6.318Z" fill="url(#New_Gradient_Swatch_1-6)"/>
        <path d="M8.348,4.394a.714.714,0,1,1-.5.209.706.706,0,0,1,.5-.209m0-1a1.712,1.712,0,1,0,1.211.5,1.707,1.707,0,0,0-1.211-.5Z" fill="#4e4a48"/>
      </g>
    </g>
    <g>
      <polygon points="14.012 19.043 8.344 19.043 5.51 23.952 8.344 28.861 14.012 28.861 16.846 23.952 14.012 19.043" stroke="#177491" stroke-linejoin="round" fill="url(#Siemens_-_Light_gray-3)"/>
      <g>
        <path d="M5.51,25.18a1.209,1.209,0,1,1,.858-.354A1.209,1.209,0,0,1,5.51,25.18Z" fill="url(#New_Gradient_Swatch_1-7)"/>
        <path d="M5.51,23.256a.712.712,0,1,1,0,1.424.712.712,0,1,1,0-1.424m0-1a1.711,1.711,0,1,0,1.211.5,1.71,1.71,0,0,0-1.211-.5Z" fill="#4e4a48"/>
      </g>
      <g>
        <path d="M16.836,25.18a1.209,1.209,0,1,1,.858-.354A1.209,1.209,0,0,1,16.836,25.18Z" fill="url(#New_Gradient_Swatch_1-8)"/>
        <path d="M16.836,23.256a.712.712,0,1,1,0,1.424.712.712,0,1,1,0-1.424m0-1a1.711,1.711,0,1,0,1.211.5,1.708,1.708,0,0,0-1.211-.5Z" fill="#4e4a48"/>
      </g>
      <g>
        <path d="M14,30.073a1.21,1.21,0,1,1,.858-.355A1.2,1.2,0,0,1,14,30.073Z" fill="url(#New_Gradient_Swatch_1-9)"/>
        <path d="M14.005,28.149a.71.71,0,1,1-.5.208.707.707,0,0,1,.5-.208m0-1a1.712,1.712,0,1,0,1.21.5,1.706,1.706,0,0,0-1.21-.5Z" fill="#4e4a48"/>
      </g>
      <g>
        <path d="M8.348,30.073a1.212,1.212,0,1,1,.857-.355A1.2,1.2,0,0,1,8.348,30.073Z" fill="url(#New_Gradient_Swatch_1-10)"/>
        <path d="M8.348,28.149a.712.712,0,1,1-.5.208.71.71,0,0,1,.5-.208m0-1a1.711,1.711,0,1,0,1.211.5,1.706,1.706,0,0,0-1.211-.5Z" fill="#4e4a48"/>
      </g>
      <g>
        <path d="M14,20.255a1.209,1.209,0,1,1,.858-.354A1.2,1.2,0,0,1,14,20.255Z" fill="url(#New_Gradient_Swatch_1-11)"/>
        <path d="M14.005,18.331a.712.712,0,1,1-.5,1.216.713.713,0,0,1,.5-1.216m0-1a1.714,1.714,0,1,0,1.21.5,1.707,1.707,0,0,0-1.21-.5Z" fill="#4e4a48"/>
      </g>
      <g>
        <path d="M8.348,20.255a1.21,1.21,0,1,1,.857-.354A1.2,1.2,0,0,1,8.348,20.255Z" fill="url(#New_Gradient_Swatch_1-12)"/>
        <path d="M8.348,18.331a.714.714,0,1,1-.5.209.706.706,0,0,1,.5-.209m0-1a1.712,1.712,0,1,0,1.211.5,1.707,1.707,0,0,0-1.211-.5Z" fill="#4e4a48"/>
      </g>
    </g>
    <g>
      <polygon points="14.012 33.213 8.344 33.213 5.51 38.122 8.344 43.03 14.012 43.03 16.846 38.122 14.012 33.213" stroke="#177491" stroke-linejoin="round" fill="url(#Siemens_-_Light_gray-4)"/>
      <g>
        <path d="M5.51,39.35A1.209,1.209,0,1,1,6.368,39,1.209,1.209,0,0,1,5.51,39.35Z" fill="url(#New_Gradient_Swatch_1-13)"/>
        <path d="M5.51,37.426a.712.712,0,1,1,0,1.424.712.712,0,1,1,0-1.424m0-1a1.711,1.711,0,1,0,1.211.5,1.706,1.706,0,0,0-1.211-.5Z" fill="#4e4a48"/>
      </g>
      <g>
        <path d="M16.836,39.35A1.209,1.209,0,1,1,17.694,39,1.209,1.209,0,0,1,16.836,39.35Z" fill="url(#New_Gradient_Swatch_1-14)"/>
        <path d="M16.836,37.426a.712.712,0,1,1,0,1.424.712.712,0,1,1,0-1.424m0-1a1.711,1.711,0,1,0,1.211.5,1.7,1.7,0,0,0-1.211-.5Z" fill="#4e4a48"/>
      </g>
      <g>
        <path d="M14,44.243a1.21,1.21,0,1,1,.858-.355A1.2,1.2,0,0,1,14,44.243Z" fill="url(#New_Gradient_Swatch_1-15)"/>
        <path d="M14.005,42.318a.712.712,0,1,1-.5.209.7.7,0,0,1,.5-.209m0-1a1.714,1.714,0,1,0,1.21.5,1.707,1.707,0,0,0-1.21-.5Z" fill="#4e4a48"/>
      </g>
      <g>
        <path d="M8.348,44.243a1.212,1.212,0,1,1,.857-.355A1.2,1.2,0,0,1,8.348,44.243Z" fill="url(#New_Gradient_Swatch_1-16)"/>
        <path d="M8.348,42.318a.714.714,0,1,1-.5.209.706.706,0,0,1,.5-.209m0-1a1.712,1.712,0,1,0,1.211.5,1.707,1.707,0,0,0-1.211-.5Z" fill="#4e4a48"/>
      </g>
      <g>
        <path d="M14,34.425a1.209,1.209,0,1,1,.858-.354A1.2,1.2,0,0,1,14,34.425Z" fill="url(#New_Gradient_Swatch_1-17)"/>
        <path d="M14.005,32.5a.712.712,0,1,1-.5,1.216.713.713,0,0,1,.5-1.216m0-1a1.714,1.714,0,1,0,1.21.5,1.707,1.707,0,0,0-1.21-.5Z" fill="#4e4a48"/>
      </g>
      <g>
        <path d="M8.348,34.425a1.21,1.21,0,1,1,.857-.354A1.2,1.2,0,0,1,8.348,34.425Z" fill="url(#New_Gradient_Swatch_1-18)"/>
        <path d="M8.348,32.5a.714.714,0,1,1-.5.209.706.706,0,0,1,.5-.209m0-1a1.712,1.712,0,1,0,1.211.5,1.707,1.707,0,0,0-1.211-.5Z" fill="#4e4a48"/>
      </g>
    </g>
  </g>
</svg>
