<svg id="Artwork" xmlns="http://www.w3.org/2000/svg" xmlns:xlink="http://www.w3.org/1999/xlink" viewBox="0 0 48 48">
  <defs>
    <linearGradient id="linear-gradient" x1="21.122" y1="35.281" x2="43.389" y2="20.731" gradientTransform="matrix(2.177, 0, 0, -1.993, -42.237, 81.004)" gradientUnits="userSpaceOnUse">
      <stop offset="0" stop-color="#73b4c8"/>
      <stop offset="0.319" stop-color="#6aaec3"/>
      <stop offset="0.57" stop-color="#529eb5"/>
      <stop offset="0.809" stop-color="#2c839f"/>
      <stop offset="1" stop-color="#147391"/>
    </linearGradient>
    <linearGradient id="linear-gradient-2" x1="19.895" y1="41.916" x2="49.106" y2="33.919" gradientTransform="matrix(1.896, 0, 0, -2.955, -33.398, 121.266)" gradientUnits="userSpaceOnUse">
      <stop offset="0" stop-color="#73b4c8"/>
      <stop offset="0.175" stop-color="#6aaec3"/>
      <stop offset="0.457" stop-color="#529eb5"/>
      <stop offset="0.809" stop-color="#2c839f"/>
      <stop offset="1" stop-color="#147391"/>
    </linearGradient>
  </defs>
  <g id="g946-1-5">
    <g id="g866">
      <path id="path915-2-2" d="M18.518,38.875l.353-6.762L11.4,20.2A137.814,137.814,0,0,0,2.956,8.268a2.536,2.536,0,0,1,1.355-.007,77.728,77.728,0,0,0,11.9,1.813c3.148.208,12.577.174,15.757-.057A73.207,73.207,0,0,0,44.482,7.94l-.019.265.015-.166c-.123.172-4.017,5.868-8.362,12.074A74.485,74.485,0,0,0,29.3,32.5l.075,1.032.034,4.3-.513,3.9-5.222,3.043A27.253,27.253,0,0,1,18.957,46.9c-.028,0-.245-3.155-.245-7.247Z" fill-rule="evenodd" fill="url(#linear-gradient)"/>
      <path id="path933-3-6" d="M18.871,10.872C11.7,10.273,5.7,8.557,3,6.327A1.923,1.923,0,0,1,2.565,5.9c0-.323,2.372-1.745,3.936-2.359C11.187,1.7,16.655.863,23.984.863c6.822,0,12.089.567,16.579,2.115,2.65.913,4.971,2.544,4.78,3.025a9.171,9.171,0,0,1-2.714,1.78,37.617,37.617,0,0,1-11.2,2.86A107.693,107.693,0,0,1,18.871,10.872Z" fill-rule="evenodd" fill="url(#linear-gradient-2)"/>
      <path id="path2" d="M46,6.455C46,2.24,34.634,0,24.005,0S2,2.119,2,6.334a1.945,1.945,0,0,0,.509,1.119L17.947,31,18,47.478c0,.4.672.522.873.522s10.711-6.054,10.711-6.054a.8.8,0,0,0,.4-.8L30,31.011,45.381,7.684A2.384,2.384,0,0,0,46,6.455ZM24,.886A55.985,55.985,0,0,1,39.635,2.832c3.635,1.112,5.424,2.52,5.424,3.223s-2.526,1.506-6.17,2.3A67.254,67.254,0,0,1,23.966,9.951,72.914,72.914,0,0,1,8.624,8.318C5.01,7.551,3.162,6.881,3.162,6.178S4.431,4.159,8.045,3.007A56.02,56.02,0,0,1,24,.886ZM29.639,29.7a3.853,3.853,0,0,0-.624,1.3l-.048,10.166-9.921,5.626L19.033,31a2.63,2.63,0,0,0-.515-1.074L4.3,8.332C8.708,9.737,17.582,11,24,11A77.762,77.762,0,0,0,43.693,8.307Z" fill="#464646"/>
    </g>
  </g>
</svg>
