<svg id="Layer_1" data-name="Layer 1" xmlns="http://www.w3.org/2000/svg" xmlns:xlink="http://www.w3.org/1999/xlink" viewBox="0 0 48 48">
  <defs>
    <linearGradient id="linear-gradient" x1="4.5" y1="43.5" x2="43.5" y2="4.5" gradientTransform="matrix(1.205, 0, 0, -1.205, -4.921, 52.921)" gradientUnits="userSpaceOnUse">
      <stop offset="0" stop-color="#fff"/>
      <stop offset="0.228" stop-color="#fafafa"/>
      <stop offset="0.488" stop-color="#ededed"/>
      <stop offset="0.762" stop-color="#d7d6d6"/>
      <stop offset="1" stop-color="#bdbcbc"/>
    </linearGradient>
    <linearGradient id="linear-gradient-2" x1="-45.392" y1="20.22" x2="-2.6" y2="2.566" gradientTransform="matrix(0.765, 0, 0, -1.042, 41.284, 27.669)" gradientUnits="userSpaceOnUse">
      <stop offset="0" stop-color="#73b4c8"/>
      <stop offset="0.175" stop-color="#6aaec3"/>
      <stop offset="0.457" stop-color="#529eb5"/>
      <stop offset="0.809" stop-color="#2c839f"/>
      <stop offset="1" stop-color="#147391"/>
    </linearGradient>
    <linearGradient id="linear-gradient-3" x1="-43.295" y1="25.305" x2="-0.502" y2="7.651" xlink:href="#linear-gradient-2"/>
    <linearGradient id="linear-gradient-4" x1="-40.973" y1="30.932" x2="1.82" y2="13.278" xlink:href="#linear-gradient-2"/>
    <linearGradient id="linear-gradient-5" x1="26.812" y1="15.25" x2="29.512" y2="12.554" gradientTransform="matrix(1, 0, 0, -1, 0, 48)" xlink:href="#linear-gradient-2"/>
    <linearGradient id="linear-gradient-6" x1="34.814" y1="20.445" x2="37.602" y2="17.607" gradientTransform="matrix(1, 0, 0, -1, 0, 48)" xlink:href="#linear-gradient-2"/>
    <linearGradient id="linear-gradient-7" x1="42.491" y1="15.482" x2="45.247" y2="12.43" gradientTransform="matrix(1, 0, 0, -1, 0, 48)" xlink:href="#linear-gradient-2"/>
    <linearGradient id="linear-gradient-8" x1="34.037" y1="13.654" x2="38.378" y2="8.757" gradientTransform="matrix(1, 0, 0, -1, 0, 48)" xlink:href="#linear-gradient-2"/>
    <linearGradient id="linear-gradient-9" x1="29.161" y1="5.79" x2="32.269" y2="2.809" gradientTransform="matrix(1, 0, 0, -1, 0, 48)" xlink:href="#linear-gradient-2"/>
    <linearGradient id="linear-gradient-10" x1="39.94" y1="5.705" x2="42.769" y2="2.725" gradientTransform="matrix(1, 0, 0, -1, 0, 48)" xlink:href="#linear-gradient-2"/>
  </defs>
  <g id="g986">
    <path id="rect13" d="M.5.5h47v47H.5Z" stroke="#464646" stroke-linecap="round" stroke-miterlimit="10" fill="url(#linear-gradient)"/>
    <g id="text1338-4">
      <path id="path960" d="M20.21,19.437H16.255l-3.737-6.819-.756,1.247v5.572H8.537V2.4h3.225v7.711L16.23,2.4h3.737l-4.888,7.883Z" stroke="#464646" stroke-width="0.769" fill="url(#linear-gradient-2)"/>
      <path id="path962" d="M32.126,7.779a8.629,8.629,0,0,1-.294,2.242,5.5,5.5,0,0,1-.839,1.831,5.349,5.349,0,0,1-1.672,1.521,4.6,4.6,0,0,1-2.284.515H25.03v5.549H21.806V2.4h5.307a6.126,6.126,0,0,1,2.007.286,4.13,4.13,0,0,1,1.453.835,4.282,4.282,0,0,1,1.15,1.728A7.07,7.07,0,0,1,32.126,7.779Zm-3.334.1a2.513,2.513,0,0,0-.285-1.235,1.748,1.748,0,0,0-.664-.733,2.271,2.271,0,0,0-.982-.3q-.479-.034-1.276-.034H25.03v5.1h.924a5.543,5.543,0,0,0,1.352-.137,1.75,1.75,0,0,0,.9-.549,2.206,2.206,0,0,0,.445-.87A4.73,4.73,0,0,0,28.792,7.882Z" stroke="#464646" stroke-width="0.769" fill="url(#linear-gradient-3)"/>
      <path id="path964" d="M41.162,19.437H33.839v-3.02h2.049V5.422H33.839V2.4h7.323v3.02H39.113v11h2.049Z" stroke="#464646" stroke-width="0.769" fill="url(#linear-gradient-4)"/>
    </g>
    <g id="g2594">
      <path id="polyline62-3-2-6-7-2-0" d="M2.979,44.39l7.854-13.273,5.687,2.275,8.208-9.619" fill="none" stroke="#464646" stroke-width="2.8"/>
      <path id="path911-5-9-4-2-4-9" d="M26.68,21.261l-.423,3.388-.518,3.379L22.84,26.1,20,24.1l3.322-1.459Z" fill="#464646" stroke="#464646" stroke-linecap="round" stroke-width="0.019"/>
      <path id="path911-5-9-45-3-1" d="M26.07,22.076l-.318,2.518-.389,2.511-2.178-1.433-2.134-1.488,2.5-1.084Z" fill="#3e90aa"/>
      <path id="polyline62-3-2-7-8-8" d="M3.253,43.886l7.58-12.769,5.687,2.275,7.976-9.26" fill="none" stroke="#3e90aa" stroke-width="1.6"/>
    </g>
    <path id="path1140" d="M27.629,35.374a1.369,1.369,0,0,1,.159-2.543,1.277,1.277,0,0,1,1.366.352,1.34,1.34,0,0,1-.219,2.1,1.629,1.629,0,0,1-1.306.094Z" fill="url(#linear-gradient-5)"/>
    <path id="path1142" d="M35.652,30.157a1.474,1.474,0,0,1-.909-1.5A1.31,1.31,0,0,1,36,27.528a1.2,1.2,0,0,1,1.119.451A1.367,1.367,0,0,1,35.652,30.157Z" fill="url(#linear-gradient-6)"/>
    <path id="path1144" d="M43.315,35.35a1.5,1.5,0,0,1-.7-1.017,1.408,1.408,0,0,1,1.408-1.547A1.634,1.634,0,0,1,45.1,33.4a1.542,1.542,0,0,1,.114,1.317A1.374,1.374,0,0,1,43.315,35.35Z" fill="url(#linear-gradient-7)"/>
    <path id="path1146" d="M35.606,39a2.463,2.463,0,0,1-1.58-1.323A2.55,2.55,0,0,1,34,35.83,2.328,2.328,0,1,1,35.606,39Z" fill="url(#linear-gradient-8)"/>
    <path id="path1148" d="M30.2,45.054a1.4,1.4,0,0,1-.786-1.275,1.356,1.356,0,0,1,.855-1.289,1.4,1.4,0,0,1,1.929,1.451,1.343,1.343,0,0,1-.653,1.03,1.066,1.066,0,0,1-.725.194A1.61,1.61,0,0,1,30.2,45.054Z" fill="url(#linear-gradient-9)"/>
    <path id="path1150" d="M40.743,45.054a1.4,1.4,0,0,1-.786-1.275,1.416,1.416,0,0,1,1.9-1.311,1.4,1.4,0,0,1,.26,2.478,1.009,1.009,0,0,1-.749.219A1.6,1.6,0,0,1,40.743,45.054Z" fill="url(#linear-gradient-10)"/>
    <path id="path2" d="M43.972,31.94a2.186,2.186,0,0,0-2.186,2.186,1.776,1.776,0,0,0,.024.23l-3,1a3.047,3.047,0,0,0-2.273-1.622v-2.71a2.185,2.185,0,1,0-.874,0v2.71a3.049,3.049,0,0,0-2.273,1.622l-3-1a2.007,2.007,0,0,0,.023-.231,2.208,2.208,0,1,0-.315,1.114l2.99,1a2.95,2.95,0,0,0,.822,2.649l-2.154,2.874a2.224,2.224,0,1,0,.742.563l2.164-2.885a2.94,2.94,0,0,0,2.868,0L39.7,42.322a2.163,2.163,0,0,0-.539,1.421,2.2,2.2,0,1,0,1.28-1.984l-2.154-2.874a3.048,3.048,0,0,0,.874-2.136,3.151,3.151,0,0,0-.051-.513l2.99-1a2.186,2.186,0,1,0,1.87-3.3Zm-15.737,3.5a1.312,1.312,0,1,1,1.311-1.311,1.311,1.311,0,0,1-1.311,1.311Zm6.557-6.557A1.312,1.312,0,1,1,36.1,30.191h0A1.311,1.311,0,0,1,34.792,28.88ZM30.858,45.054a1.312,1.312,0,1,1,1.311-1.311h0A1.311,1.311,0,0,1,30.858,45.054Zm11.8-1.311a1.311,1.311,0,1,1-1.311-1.312,1.311,1.311,0,0,1,1.311,1.312ZM36.1,38.934a2.186,2.186,0,1,1,2.186-2.185h0A2.186,2.186,0,0,1,36.1,38.934Zm7.869-3.5a1.312,1.312,0,1,1,1.311-1.311,1.311,1.311,0,0,1-1.311,1.311Z" fill="#464646"/>
  </g>
</svg>
