<svg id="Image" xmlns="http://www.w3.org/2000/svg" xmlns:xlink="http://www.w3.org/1999/xlink" viewBox="0 0 48 48">
  <defs>
    <linearGradient id="linear-gradient" x1="10.436" y1="43.117" x2="37.564" y2="15.989" gradientTransform="matrix(1, 0, 0, -1, 0, 50)" gradientUnits="userSpaceOnUse">
      <stop offset="0" stop-color="#fff"/>
      <stop offset="0.221" stop-color="#fbfbfc"/>
      <stop offset="0.541" stop-color="#ececec"/>
      <stop offset="0.92" stop-color="#d0cecd"/>
      <stop offset="1" stop-color="#c9c6c5"/>
    </linearGradient>
    <linearGradient id="linear-gradient-2" x1="24" y1="41.713" x2="24" y2="48.5" gradientTransform="matrix(1, 0, 0, -1, 0, 50)" gradientUnits="userSpaceOnUse">
      <stop offset="0" stop-color="#c9c6c5"/>
      <stop offset="0.045" stop-color="#cecccc"/>
      <stop offset="0.268" stop-color="#e7e6e6"/>
      <stop offset="0.497" stop-color="#f6f6f7"/>
      <stop offset="0.736" stop-color="#fefefe"/>
      <stop offset="1" stop-color="#fff"/>
    </linearGradient>
    <linearGradient id="Siemens_-_Light_gray_4" data-name="Siemens - Light gray 4" x1="12.641" y1="21.736" x2="35.358" y2="44.453" gradientUnits="userSpaceOnUse">
      <stop offset="0" stop-color="#fff"/>
      <stop offset="1" stop-color="#dadada"/>
    </linearGradient>
  </defs>
  <g>
    <g>
      <path d="M11.7,5.617v29.66H36.3V5.617Z" fill="url(#linear-gradient)"/>
      <g>
        <rect x="13.649" y="7.564" width="20.701" height="25.766" fill="#fff"/>
        <path d="M33.851,8.064V32.83h-19.7V8.064h19.7m1-1h-21.7V33.83h21.7V7.064Z" fill="#c9c6c5"/>
      </g>
      <g>
        <path d="M17.713,8.287V5.979A1.605,1.605,0,0,1,19.3,4.394h1.308V3.809A2.284,2.284,0,0,1,22.915,1.5h2.17a2.284,2.284,0,0,1,2.309,2.309v.585H28.7a1.605,1.605,0,0,1,1.585,1.585V8.287Z" fill="url(#linear-gradient-2)"/>
        <path d="M25.085,2a1.791,1.791,0,0,1,1.809,1.809V4.894H28.7a1.112,1.112,0,0,1,1.085,1.085V7.787H18.213V5.979A1.112,1.112,0,0,1,19.3,4.894h1.808V3.809A1.791,1.791,0,0,1,22.915,2h2.17m0-1h-2.17a2.779,2.779,0,0,0-2.809,2.809v.085H19.3a2.113,2.113,0,0,0-2.085,2.085V8.787H30.787V5.979A2.113,2.113,0,0,0,28.7,3.894h-.808V3.809A2.779,2.779,0,0,0,25.085,1Z" fill="#4e4b49"/>
      </g>
      <path d="M30.465,4.894a2.036,2.036,0,0,1,.313,1h5.243V35H11.979V5.894h5.243a2.036,2.036,0,0,1,.313-1H10.979V36H37.021V4.894Z" fill="#4e4a48"/>
      <path d="M24,3.447a.724.724,0,1,0,.723.723A.723.723,0,0,0,24,3.447Z" fill="#4e4a48"/>
      <g>
        <polygon points="16.599 21.307 18.08 20.065 21.693 24.341 29.572 14.638 31.038 15.82 21.681 27.468 16.599 21.307" fill="#3a90b2"/>
        <path d="M29.646,15.34l.69.556-8.661,10.78-4.375-5.3.72-.6,2.9,3.435.779.922.761-.937,7.185-8.848m-.148-1.4-7.813,9.621L18.14,19.362,15.9,21.243l5.787,7.017L31.74,15.745,29.5,13.936Z" fill="#0e7191"/>
      </g>
    </g>
    <g>
      <path d="M10.979,36V27.73L2.02,33.065S2,33.08,2,33.1s.023.032.037.041L23.9,45.964a.206.206,0,0,0,.113.036.191.191,0,0,0,.1-.025L45.979,33.126S46,33.11,46,33.1s-.023-.032-.036-.041l-8.943-5.33V36Z" fill="url(#Siemens_-_Light_gray_4)"/>
      <path d="M46.492,32.206,37.021,26.56v.581l9.215,5.494a.539.539,0,0,1,.264.462.548.548,0,0,1-.276.465L24.378,46.4a.688.688,0,0,1-.365.1.673.673,0,0,1-.358-.1L1.767,33.557A.541.541,0,0,1,1.5,33.1a.547.547,0,0,1,.272-.468l9.207-5.482v-.581l-9.471,5.64a1.032,1.032,0,0,0,.006,1.782L23.393,46.827a1.194,1.194,0,0,0,1.238,0L46.486,33.988A1.032,1.032,0,0,0,46.492,32.206Z" fill="#4f4b49"/>
      <path d="M45.964,33.054c.013.009.036.025.036.041s-.021.031-.021.031h0L24.108,45.975a.191.191,0,0,1-.1.025.206.206,0,0,1-.113-.036L2.037,33.136C2.023,33.127,2,33.11,2,33.1s.02-.03.02-.03h0l8.959-5.335v-.583L1.772,32.629A.547.547,0,0,0,1.5,33.1a.541.541,0,0,0,.267.46L23.655,46.4a.673.673,0,0,0,.358.1.688.688,0,0,0,.365-.1L46.224,33.562A.548.548,0,0,0,46.5,33.1a.539.539,0,0,0-.264-.462l-9.215-5.494v.583Z" fill="#4f4b49"/>
      <polygon points="2.019 33.065 2.02 33.065 2.02 33.065 2.019 33.065" fill="#4f4b49"/>
      <polygon points="45.979 33.126 45.979 33.126 45.979 33.126 45.979 33.126" fill="#4f4b49"/>
    </g>
  </g>
</svg>
