<svg id="Image" xmlns="http://www.w3.org/2000/svg" xmlns:xlink="http://www.w3.org/1999/xlink" viewBox="0 0 48 48">
  <defs>
    <linearGradient id="linear-gradient" x1="2.325" y1="42.654" x2="17.763" y2="27.221" gradientTransform="matrix(1, 0, 0, -1, 0, 48)" gradientUnits="userSpaceOnUse">
      <stop offset="0" stop-color="#73b4c8"/>
      <stop offset="0.175" stop-color="#6aaec3"/>
      <stop offset="0.457" stop-color="#529eb5"/>
      <stop offset="0.809" stop-color="#2c839f"/>
      <stop offset="1" stop-color="#147391"/>
    </linearGradient>
    <linearGradient id="linear-gradient-2" x1="16.902" y1="-15.442" x2="22.925" y2="-3.701" gradientTransform="matrix(-0.194, 0.901, 0.713, 0.237, 25.531, -3.366)" gradientUnits="userSpaceOnUse">
      <stop offset="0" stop-color="#f8f8f9"/>
      <stop offset="0.5" stop-color="#d5d4d4"/>
      <stop offset="0.63" stop-color="#d1cfce"/>
      <stop offset="0.779" stop-color="#c4c1c1"/>
      <stop offset="0.938" stop-color="#aba8a7"/>
      <stop offset="0.99" stop-color="#a29f9d"/>
    </linearGradient>
    <linearGradient id="linear-gradient-3" x1="30.308" y1="42.671" x2="45.695" y2="27.289" xlink:href="#linear-gradient"/>
    <linearGradient id="linear-gradient-4" x1="7.328" y1="21.503" x2="13.45" y2="32.985" xlink:href="#linear-gradient-2"/>
    <linearGradient id="linear-gradient-5" x1="15.052" y1="19.136" x2="32.788" y2="1.11" xlink:href="#linear-gradient"/>
    <linearGradient id="linear-gradient-6" x1="37.034" y1="9.918" x2="44.186" y2="23.273" xlink:href="#linear-gradient-2"/>
    <linearGradient id="linear-gradient-7" x1="45.862" y1="6.448" x2="51.755" y2="21.252" xlink:href="#linear-gradient-2"/>
  </defs>
  <g id="g921">
    <path id="rect885" d="M3.986,2.96A3.978,3.978,0,0,0,0,6.946V18.974A3.978,3.978,0,0,0,3.986,22.96H19.25l-.707-1H4.588A3.58,3.58,0,0,1,1,18.372V7.548A3.58,3.58,0,0,1,4.588,3.96H43.412A3.58,3.58,0,0,1,47,7.548V18.372a3.58,3.58,0,0,1-3.588,3.588H28.924l-.7,1H44.014A3.978,3.978,0,0,0,48,18.974V6.946A3.978,3.978,0,0,0,44.014,2.96Z" fill="#147391"/>
    <path id="path1068-4" d="M21.089,13.984a1,1,0,1,1-1-1A1,1,0,0,1,21.089,13.984Z" fill="#464646"/>
    <path id="path1068-4-9" d="M24.684,13.984a1,1,0,1,1-1-1A1,1,0,0,1,24.684,13.984Z" fill="#464646"/>
    <path id="path1068-4-5" d="M28.855,13.984a1,1,0,1,1-1-1A1,1,0,0,1,28.855,13.984Z" fill="#464646"/>
    <path id="path978" d="M18.6,21.96l-1.667.01c2.073,1.854,4.6,3.719,6.757,5.45,2.452-1.783,4.45-3.552,6.833-5.452l-1.681-.01c-1.8,1.46-3.3,2.818-5.15,4.188C22.067,24.817,20.163,23.384,18.6,21.96Z" fill="#147391"/>
    <path id="circle13-7" d="M17.8,13A7.815,7.815,0,1,1,9.981,5.167,7.824,7.824,0,0,1,17.8,13Z" fill="url(#linear-gradient)"/>
    <path id="path909" d="M9.981,6.677a6.334,6.334,0,1,0,4.674,10.585l-.551-.335a5.7,5.7,0,1,1,.189-7.622l.543-.345A6.312,6.312,0,0,0,9.981,6.677Zm5.57,5.212a5.531,5.531,0,0,1-.2,2.966l.793-.5a5.935,5.935,0,0,0,.111-2.031l-.015-.01Z" fill="#fff" stroke="#147391" stroke-linejoin="round" stroke-width="0.211"/>
    <path id="path907" d="M16.41,8.859V8.9l-2.795,2.106L10.82,13.114l2.808,2.021,2.778,2v.021l.009-.014.021.016.1,0a7.032,7.032,0,0,0-.01-8.335Z" stroke="#147391" stroke-linejoin="round" stroke-width="0.199" fill="url(#linear-gradient-2)"/>
    <path id="path1055" d="M13.972,9.464c-.44-.051-.8-.1-.81-.1A2.018,2.018,0,0,1,13.2,8.92a2.48,2.48,0,0,1,.645.046c.346.04.634.068.639.063s.028-.32.05-.7l.041-.689.22.008a.981.981,0,0,1,.239.027c.01.01-.006.42-.035.911s-.053.911-.052.934c0,.056-.022.055-.978-.057Z" fill="#fff"/>
    <path id="path1059" d="M14.407,8.462l.072-.875.566.036-.1,1.978-1.829-.24.071-.579.6.06h-.012" fill="none" stroke="#147391" stroke-width="0.2"/>
    <path id="polygon23-3" d="M13,16.031l-.835.837L9.082,13.644l-.119-.288L9,8.571h1.182l-.033,4.463Z" fill="#fff" stroke="#147391" stroke-width="0.385"/>
    <path id="path15-0" d="M9.981,21a8,8,0,1,1,7.981-8A8,8,0,0,1,9.981,21Zm0-15.667A7.667,7.667,0,1,0,17.63,13,7.666,7.666,0,0,0,9.981,5.333Z" fill="#464646"/>
    <path id="circle13-7-7" d="M45.8,13a7.815,7.815,0,1,1-7.815-7.833A7.824,7.824,0,0,1,45.8,13Z" fill="url(#linear-gradient-3)"/>
    <path id="path909-1" d="M37.981,6.677a6.334,6.334,0,0,0,0,12.667h0a6.313,6.313,0,0,0,4.674-2.082l-.551-.335a5.7,5.7,0,1,1,.189-7.622l.543-.345A6.312,6.312,0,0,0,37.981,6.677Zm5.57,5.212a5.531,5.531,0,0,1-.2,2.966l.793-.5a5.935,5.935,0,0,0,.111-2.031l-.015-.01Z" fill="#fff" stroke="#147391" stroke-linejoin="round" stroke-width="0.211"/>
    <path id="path907-9" d="M44.41,8.859V8.9l-2.795,2.106-2.8,2.107,2.808,2.021,2.778,2v.021l.009-.014.021.016.1,0a7.032,7.032,0,0,0-.01-8.335Z" stroke="#147391" stroke-linejoin="round" stroke-width="0.199" fill="url(#linear-gradient-4)"/>
    <path id="path1055-8" d="M41.972,9.464c-.44-.051-.8-.1-.81-.1A2.018,2.018,0,0,1,41.2,8.92a2.48,2.48,0,0,1,.645.046c.346.04.634.068.639.063s.028-.32.05-.7l.041-.689.22.008a.981.981,0,0,1,.239.027c.01.01-.006.42-.035.911s-.053.911-.052.934c0,.056-.022.055-.978-.057Z" fill="#fff"/>
    <path id="path1059-3" d="M42.407,8.462l.072-.875.566.036-.1,1.978-1.829-.24.071-.579.6.06h-.012" fill="none" stroke="#147391" stroke-width="0.2"/>
    <path id="polygon23-3-1" d="M41,16.031l-.835.837-3.081-3.224-.119-.288L37,8.571h1.182l-.033,4.463Z" fill="#fff" stroke="#147391" stroke-width="0.385"/>
    <path id="path15-0-6" d="M37.981,21a8,8,0,1,1,7.981-8A8,8,0,0,1,37.981,21Zm0-15.667A7.667,7.667,0,1,0,45.63,13,7.666,7.666,0,0,0,37.981,5.333Z" fill="#464646"/>
    <path id="circle13-7-1" d="M32.831,37.75A9.036,9.036,0,1,1,23.8,28.693,9.046,9.046,0,0,1,32.831,37.75Z" fill="url(#linear-gradient-5)"/>
    <path id="path907-2-6" d="M24.768,38.133l3.307,2.25,3.271,2.225v.024a.082.082,0,0,1,.011-.017l.025.017H31.5a8.769,8.769,0,0,0-.165-9.836C29.1,34.542,27.018,36.342,24.768,38.133Z" stroke="#147391" stroke-linejoin="round" stroke-width="0.23" fill="url(#linear-gradient-6)"/>
    <path id="path907-2-6-8" d="M24.662,38.208c-.911,2.511-1.811,5.976-2.466,8.365,3.369,1.161,7.041-.934,9.165-3.776C29.1,41.114,26.97,39.9,24.662,38.208Z" stroke="#147391" stroke-linejoin="round" stroke-width="0.229" fill="url(#linear-gradient-7)"/>
    <path id="path15-0-0" d="M23.817,47a9.272,9.272,0,1,1,9.25-9.272A9.272,9.272,0,0,1,23.817,47Zm0-18.157a8.886,8.886,0,1,0,8.865,8.885A8.885,8.885,0,0,0,23.817,28.843Z" fill="#464646"/>
    <path id="path909-5" d="M23.8,30.439a7.325,7.325,0,0,0-2.647,14.147l.186-.719a6.582,6.582,0,1,1,7.447-10.388l.627-.4A7.3,7.3,0,0,0,23.8,30.439Z" fill="#fff" stroke="#147391" stroke-linejoin="round" stroke-width="0.244"/>
    <path id="polygon23-3-2" d="M27.284,41.255l-.966.968-3.563-3.728-.137-.333.038-5.533h1.366l-.038,5.161Z" fill="#fff" stroke="#147391" stroke-width="0.445"/>
    <path id="path1055-2" d="M28.409,33.662c-.508-.06-.929-.114-.935-.12a2.3,2.3,0,0,1,.046-.51,3.078,3.078,0,0,1,.746.053c.4.047.733.08.739.074s.032-.37.058-.808l.047-.8.255.01a1.056,1.056,0,0,1,.275.031c.012.012,0,.486-.04,1.053s-.061,1.054-.06,1.081c0,.065-.026.063-1.131-.066Z" fill="#fff"/>
    <path id="path1059-2" d="M28.912,32.5,29,31.492l.655.041-.111,2.287-2.115-.278.083-.669.691.069h-.014" fill="none" stroke="#147391" stroke-width="0.231"/>
  </g>
</svg>
