<svg id="svg8" xmlns="http://www.w3.org/2000/svg" xmlns:xlink="http://www.w3.org/1999/xlink" viewBox="0 0 48 48">
  <defs>
    <linearGradient id="linear-gradient" x1="5.825" y1="-236.805" x2="7.174" y2="-237.904" gradientTransform="matrix(3.78, 0, 0, -3.78, 0, -893.102)" gradientUnits="userSpaceOnUse">
      <stop offset="0" stop-color="#73b4c8"/>
      <stop offset="0.175" stop-color="#6aaec3"/>
      <stop offset="0.457" stop-color="#529eb5"/>
      <stop offset="0.809" stop-color="#2c839f"/>
      <stop offset="1" stop-color="#147391"/>
    </linearGradient>
    <linearGradient id="linear-gradient-2" x1="1.013" y1="-245.516" x2="10.967" y2="-248.832" gradientTransform="matrix(3.78, 0, 0, -3.78, 0, -893.102)" gradientUnits="userSpaceOnUse">
      <stop offset="0" stop-color="#fff"/>
      <stop offset="1" stop-color="#bebebe"/>
    </linearGradient>
    <linearGradient id="linear-gradient-3" x1="4.948" y1="-240.144" x2="8.241" y2="-241.547" xlink:href="#linear-gradient"/>
    <linearGradient id="linear-gradient-4" x1="3.88" y1="-243.64" x2="9.379" y2="-245.778" xlink:href="#linear-gradient"/>
    <linearGradient id="linear-gradient-5" x1="2.629" y1="-246.664" x2="10.345" y2="-247.667" xlink:href="#linear-gradient"/>
  </defs>
  <g id="layer1">
    <path id="path1132" d="M22.458,5.593c0-.027.116-.71.31-1.679a3.437,3.437,0,0,1,.989-2.057,1.867,1.867,0,0,1,2.27-.023,2.087,2.087,0,0,1,1.032,1.33,16.277,16.277,0,0,1,.4,2.427c-.025.038-5.07-.071-5.108-.071-.012,0,.043.088.043.076Z" fill="url(#linear-gradient)"/>
    <g id="g865">
      <g id="g867">
        <path id="rect828" d="M43.147,36.314a.751.751,0,0,0-.4-.078H36.356l1.888,5.214L10.573,41.8l1.968-5.577-5.168.041L2.85,46.726l42.19.177L43.26,36.6A.508.508,0,0,0,43.147,36.314Z" fill="#147391" stroke="#147391" stroke-linejoin="round" stroke-width="0.202"/>
      </g>
    </g>
    <path id="rect828-6" d="M42.383,36.9l-5.62-.034,1.028,5.469L11.3,41.95l1.2-5.05H8.164L4.471,45.824l39.391.145Z" fill="url(#linear-gradient-2)"/>
    <path id="path1122" d="M22.094,3.391,10.822,40.146l.443.155a40.5,40.5,0,0,0,26.257-.038l.428-.155L27.97,3.457l-.583.015.015.974h-.178l9.523,34.976a39.534,39.534,0,0,1-24.692.03L22.8,4.4l-.3-.015.045-.975Z" fill="#147391"/>
    <path id="path855" d="M25.054.667a2.777,2.777,0,0,0-2.2,1.122,3.959,3.959,0,0,0-.635,1.182c-.065.192-.136.39-.191.612-.038.151-.136.46-.2.695l.938.273c.053-.183.16-.5.218-.731.039-.16.1-.331.17-.532a2.983,2.983,0,0,1,.472-.893,1.778,1.778,0,0,1,1.417-.753,1.821,1.821,0,0,1,1.41.8,3.025,3.025,0,0,1,.465.908c.062.192.124.4.178.6.074.276.161.556.184.683l.955-.162c-.053-.293-.142-.575-.2-.772-.058-.219-.126-.438-.192-.643a4.033,4.033,0,0,0-.62-1.2A2.8,2.8,0,0,0,25.054.667Z" fill="#147391"/>
    <path id="path1130" d="M27.741,4.72A6.625,6.625,0,0,1,25,5.414a5.13,5.13,0,0,1-2.687-.687l-.487.871a6.235,6.235,0,0,0,3.167.82,7.2,7.2,0,0,0,3.226-.82Z" fill="#147391"/>
    <path id="rect871" d="M37.361,38.976a1.971,1.971,0,0,1,1.751.034l.037.086-.221.291H37.6Z" fill="#147391"/>
    <path id="rect871-5" d="M11.7,38.964A1.978,1.978,0,0,0,9.944,39l-.037.087.221.291H11.46Z" fill="#147391"/>
    <path id="path860" d="M23.165,20.061A30.268,30.268,0,0,1,18.7,19.1l-.364-.111.411-1.386c.226-.762.5-1.709.62-2.1.151-.521.237-.719.311-.719.057,0,.363.059.681.13a25.949,25.949,0,0,0,3.432.475,22.377,22.377,0,0,0,5.706-.47,5.849,5.849,0,0,1,.692-.115c.01.011.268.947.573,2.083A8.041,8.041,0,0,1,31.234,19a24.5,24.5,0,0,1-3.9.932A22.1,22.1,0,0,1,23.165,20.061Z" stroke="#4d9ab2" stroke-linejoin="round" stroke-width="0.009" fill="url(#linear-gradient-3)"/>
    <path id="path862" d="M23.246,36.382c-4.329-.178-7.877-.823-9.164-1.667-.171-.112-.311-.246-.311-.3s.422-1.562.938-3.356l.937-3.262.295.095c.664.215,2.273.607,3.144.767a28.865,28.865,0,0,0,5.688.507,28.785,28.785,0,0,0,7.712-1.032c.662-.163,1.214-.287,1.226-.273.039.042,1.7,6.374,1.7,6.48,0,.142-.31.4-.727.6a21.8,21.8,0,0,1-6.795,1.343c-1,.072-3.8.131-4.642.1Z" stroke="#4d9ab2" stroke-linejoin="round" stroke-width="0.009" fill="url(#linear-gradient-4)"/>
    <path id="path866" d="M23.568,43.812A49.652,49.652,0,0,1,11.3,41.72c-1.512-.458-1.445-.407-1.445-1.1,0-.866.016-.877.884-.561A41.19,41.19,0,0,0,21.7,42.351a60.949,60.949,0,0,0,6.916-.108,41.768,41.768,0,0,0,9.281-2.06c.744-.258,1.046-.335,1.1-.28a1.407,1.407,0,0,1,.082.679c0,.726.071.663-1.289,1.137a38.774,38.774,0,0,1-14.222,2.092Z" stroke="#4d9ab2" stroke-linejoin="round" stroke-width="0.009" fill="url(#linear-gradient-5)"/>
    <path id="rect1019" d="M10.608,38.994a1.078,1.078,0,0,0-1.108.325,1.42,1.42,0,0,0-.376.967v.849a1.241,1.241,0,0,0,.413.908,1.916,1.916,0,0,0,.761.391c9.37,2.674,19.27,3.091,28.471-.008a2.129,2.129,0,0,0,.739-.383,1.236,1.236,0,0,0,.42-.908v-.849a1.415,1.415,0,0,0-.376-.967,1.075,1.075,0,0,0-1.107-.325,43.8,43.8,0,0,1-27.837,0Zm-.333.975a44.8,44.8,0,0,0,28.5,0c-.007,0-.041-.019.015.044a.52.52,0,0,1,.11.273v.849c0,.076,0,.07-.066.125a1.3,1.3,0,0,1-.391.192c-8.964,3.019-18.653,2.622-27.867-.007a1.034,1.034,0,0,1-.362-.17c-.061-.054-.066-.062-.066-.14v-.849a.517.517,0,0,1,.111-.273c.055-.062.021-.042.014-.044Z" fill="#147391"/>
    <path id="path857" d="M14.993,26.74l-2.23,7.567v.1a1.358,1.358,0,0,0,.465.885,3.384,3.384,0,0,0,.916.576,12.857,12.857,0,0,0,2.82.827,42.367,42.367,0,0,0,8.009.664,37.618,37.618,0,0,0,7.618-.753,10.661,10.661,0,0,0,2.539-.841,2.887,2.887,0,0,0,.8-.583,1.317,1.317,0,0,0,.377-.871V34.24L34.3,26.784l-.494.133a33.606,33.606,0,0,1-8.829,1.366A28.661,28.661,0,0,1,15.5,26.917Zm.708,1.226a30.334,30.334,0,0,0,9.279,1.35A33.812,33.812,0,0,0,33.558,28l1.713,6.334c0,.026-.007.058-.089.148a2.071,2.071,0,0,1-.531.376,9.985,9.985,0,0,1-2.281.746,36.779,36.779,0,0,1-7.4.73,41.509,41.509,0,0,1-7.8-.649,12.2,12.2,0,0,1-2.584-.746,2.615,2.615,0,0,1-.649-.4c-.1-.092-.1-.13-.111-.163Z" fill="#147391"/>
    <path id="path874" d="M18.957,13.763,17.141,19.69l.472.141A22.951,22.951,0,0,0,25,21.056a24.486,24.486,0,0,0,6.932-1.225l.45-.148-1.631-5.869-.458.1A26.108,26.108,0,0,1,25,14.575a21.379,21.379,0,0,1-5.581-.687Zm.686,1.144a22.465,22.465,0,0,0,5.367.657,26.163,26.163,0,0,0,5.027-.62l1.122,4.03a23.268,23.268,0,0,1-6.179,1.093A21.783,21.783,0,0,1,18.4,18.974Z" fill="#147391"/>
  </g>
</svg>
