<svg id="Layer_1" data-name="Layer 1" xmlns="http://www.w3.org/2000/svg" xmlns:xlink="http://www.w3.org/1999/xlink" viewBox="0 0 48 48">
  <defs>
    <linearGradient id="linear-gradient" x1="3.5" y1="1326.5" x2="45" y2="1368" gradientTransform="translate(0 -1320)" gradientUnits="userSpaceOnUse">
      <stop offset="0" stop-color="#fff"/>
      <stop offset="0.232" stop-color="#fafafa"/>
      <stop offset="0.496" stop-color="#ededed"/>
      <stop offset="0.775" stop-color="#d6d6d6"/>
      <stop offset="1" stop-color="#bebebe"/>
    </linearGradient>
    <linearGradient id="linear-gradient-2" x1="29.25" y1="1323.75" x2="42.25" y2="1336.75" gradientTransform="translate(0 -1320)" gradientUnits="userSpaceOnUse">
      <stop offset="0" stop-color="#fff"/>
      <stop offset="0.221" stop-color="#f8f8f8"/>
      <stop offset="0.541" stop-color="#e5e5e5"/>
      <stop offset="0.92" stop-color="#c6c6c6"/>
      <stop offset="1" stop-color="#bebebe"/>
    </linearGradient>
    <linearGradient id="linear-gradient-3" x1="3.75" y1="47.75" x2="26.25" y2="25.25" gradientTransform="matrix(1, 0, 0, -1, 0, 48)" gradientUnits="userSpaceOnUse">
      <stop offset="0" stop-color="#73b4c8"/>
      <stop offset="0.175" stop-color="#6aaec3"/>
      <stop offset="0.457" stop-color="#529eb5"/>
      <stop offset="0.809" stop-color="#2c839f"/>
      <stop offset="1" stop-color="#147391"/>
    </linearGradient>
  </defs>
  <g id="g861">
    <path id="polygon13" d="M32.5.5H9.5v47h36v-34Z" stroke="#464646" stroke-miterlimit="10" fill="url(#linear-gradient)"/>
    <path id="polygon26" d="M32.5.5v13h13Z" stroke="#464646" stroke-linejoin="round" fill="url(#linear-gradient-2)"/>
    <path id="line28" d="M15,34.5H40" fill="none" stroke="#5a5a5a"/>
    <path id="line30" d="M15,28.5H40" fill="none" stroke="#5a5a5a"/>
    <path id="line32" d="M15,40.5H40" fill="none" stroke="#5a5a5a"/>
    <path id="rect45" d="M.5,3.5h29v16H.5Z" stroke="#464646" stroke-miterlimit="10" fill="url(#linear-gradient-3)"/>
    <g id="text870-9-3">
      <path id="path869" d="M7.852,16.642H6.044V12.158H3.375v4.484H1.567V6.463H3.375v3.726H6.044V6.463H7.852Z" fill="#fff"/>
    </g>
    <g id="text870-9-3-6">
      <path id="path872" d="M14.615,8.41H12.426v8.24H10.618V8.41H8.429V6.434h6.186Z" fill="#fff"/>
    </g>
    <g id="text870-9-3-6-9">
      <path id="path875" d="M22.587,16.578h-1.8V9.786l-1.3,4.408H18.242l-1.3-4.408v6.792h-1.7V6.434h2.1l1.577,5.089,1.572-5.089h2.1Z" fill="#fff"/>
    </g>
    <g id="text870-9-3-6-9-7">
      <path id="path878" d="M28.513,16.542H23.457V6.362h1.808v8.211h3.248Z" fill="#fff"/>
    </g>
  </g>
</svg>
