<svg version="1.1" id="Livello_2" xmlns="http://www.w3.org/2000/svg" xmlns:xlink="http://www.w3.org/1999/xlink" x="0px" y="0px"
	  viewBox="0 0 48 48" enable-background="new 0 0 48 48" xml:space="preserve">
<linearGradient id="rect13-9-3-7_1_" gradientUnits="userSpaceOnUse" x1="117.5029" y1="-172.1748" x2="142.0343" y2="-192.8421" gradientTransform="matrix(1.8897 0 0 -1.734 -218.5469 -300.3281)">
	<stop  offset="0" style="stop-color:#F3F3F3"/>
	<stop  offset="0.5" style="stop-color:#CDCCCC"/>
	<stop  offset="0.63" style="stop-color:#C8C7C7"/>
	<stop  offset="0.779" style="stop-color:#BABABA"/>
	<stop  offset="0.938" style="stop-color:#A2A2A1"/>
	<stop  offset="0.99" style="stop-color:#989898"/>
</linearGradient>
<path id="rect13-9-3-7" fill="url(#rect13-9-3-7_1_)" stroke="#474747" stroke-miterlimit="10" d="M1.498,1.115h45.004v25.906H1.498
	V1.115z"/>
<path id="path15-5-6"  fill="none" stroke="#6F6F6F" stroke-miterlimit="10" d="M4.76,4.239
	l15.362,10.314c2.511,1.687,6.045,1.649,8.507-0.089L43.117,4.239"/>
<path id="line17-6-0" fill="none" stroke="#6F6F6F" stroke-miterlimit="10" d="M20.196,14.648L4.76,24.044"/>
<path id="line19-5-0" fill="none" stroke="#6F6F6F" stroke-miterlimit="10" d="M43.844,24.082L28.77,14.444"/>
<path id="path893-4" fill="#474747" d="M45.459,23.551c0,1.381-1.119,2.5-2.5,2.5l0,0c-1.381,0-2.5-1.119-2.5-2.5l0,0
	c0-1.381,1.119-2.5,2.5-2.5S45.459,22.17,45.459,23.551L45.459,23.551z"/>
<path id="path893-7-3" fill="#C6C5C5" d="M44.391,23.551c0,0.828-0.672,1.5-1.5,1.5l0,0c-0.828,0-1.5-0.672-1.5-1.5l0,0
	c0-0.829,0.672-1.5,1.5-1.5S44.391,22.722,44.391,23.551L44.391,23.551z"/>
<linearGradient id="path13_1_" gradientUnits="userSpaceOnUse" x1="225.4346" y1="-541.0469" x2="252.4331" y2="-568.0453" gradientTransform="matrix(0.7072 -0.2089 -0.2013 -0.6814 -257.147 -292.1592)">
	<stop  offset="0" style="stop-color:#74B5C8"/>
	<stop  offset="0.1747" style="stop-color:#6BAEC3"/>
	<stop  offset="0.4567" style="stop-color:#539EB5"/>
	<stop  offset="0.8089" style="stop-color:#2F849F"/>
	<stop  offset="1" style="stop-color:#187491"/>
</linearGradient>
<path id="path13"  fill="url(#path13_1_)" stroke="#474747" stroke-miterlimit="10" d="
	M40.297,28.987l-8.176-4.253l-21.924,6.478l4.631,15.673l21.922-6.477l4.553-8.014L40.297,28.987z M36,33.961
	c-0.977,0.289-1.994-0.24-2.271-1.181s0.287-1.938,1.264-2.226c0.977-0.289,1.994,0.24,2.271,1.182
	C37.543,32.677,36.977,33.673,36,33.961z"/>
<path id="path15"  fill="none" stroke="#969696" stroke-width="2" stroke-linecap="round" stroke-linejoin="round" d="
	M36.457,31.604c0,0,3.516-3.07,6.168-7.75"/>
<path id="path17"  fill="#FFFFFF" d="M24.96,42.41l-0.19-3.648l-2.065,0.609l0.187,3.65
	l-2.163,0.639l-0.199-3.646l-1.452,0.429l-0.604-2.045l1.942-0.572l-0.149-2.92l-1.891,0.559L17.77,33.42l2.383-0.703l-0.148-2.92
	l2.179-0.645l0.148,2.92l2.064-0.609l-0.148-2.92l2.188-0.646l0.14,2.922l1.802-0.532l0.605,2.044l-2.297,0.679l0.148,2.919
	l1.539-0.453l0.604,2.044l-2.03,0.6l0.187,3.649L24.96,42.41z M24.657,36.572l-0.149-2.92l-2.064,0.609l0.148,2.92L24.657,36.572z"
	/>
<path id="path19"  fill="#187491" d="M26.089,28.369l0.14,2.922l1.896-0.56l0.402,1.362
	l-2.223,0.657L26.49,36.4l1.629-0.48l0.404,1.362l-1.959,0.578l0.187,3.649l-1.447,0.428l-0.19-3.648l-2.791,0.825l0.186,3.649
	l-1.438,0.425l-0.199-3.646l-1.541,0.455l-0.402-1.363l1.869-0.552l-0.187-3.649l-1.982,0.586l-0.402-1.363l2.31-0.683l-0.148-2.919
	l1.452-0.43l0.148,2.92l2.791-0.824l-0.148-2.92L26.089,28.369 M22.247,37.654l2.792-0.824l-0.187-3.65l-2.791,0.825L22.247,37.654
	 M26.781,27.424l-0.894,0.264l-1.461,0.432l-0.562,0.166l0.028,0.564l0.121,2.355L22.676,31.6l-0.104-2.023l-0.045-0.896
	l-0.891,0.263l-1.452,0.43l-0.563,0.166l0.028,0.564l0.121,2.355l-1.748,0.516l-0.708,0.209l0.201,0.682l0.403,1.363l0.201,0.682
	l0.707-0.209l1.092-0.323l0.112,2.19l-1.308,0.386l-0.707,0.209l0.201,0.681l0.403,1.363l0.201,0.682l0.707-0.209l0.654-0.193
	l0.151,2.755l0.049,0.891l0.887-0.262l1.438-0.425l0.563-0.166l-0.028-0.565l-0.158-3.085l1.34-0.396l0.144,2.755l0.047,0.894
	l0.889-0.263l1.448-0.428l0.563-0.166l-0.029-0.564l-0.158-3.085l1.396-0.413l0.707-0.209l-0.201-0.681l-0.404-1.362l-0.201-0.682
	l-0.707,0.209l-0.738,0.219l-0.113-2.19l1.662-0.491l0.707-0.209l-0.201-0.682l-0.402-1.362l-0.201-0.682l-0.707,0.209l-1.004,0.296
	l-0.096-2.023L26.781,27.424z M22.824,34.52l1.339-0.395l0.112,2.189l-1.34,0.396L22.824,34.52z"/>
</svg>
