<svg version="1.1" id="Livello_2" xmlns="http://www.w3.org/2000/svg" xmlns:xlink="http://www.w3.org/1999/xlink" x="0px" y="0px"
	  viewBox="0 0 48 48" enable-background="new 0 0 48 48" xml:space="preserve">
<path id="path1059"  fill="#6F6F6F" stroke="#6F6F6F" stroke-width="0.0189" d="M33.388,28.457
	v-1.239l0.601-0.157l0.6-0.157l0.119-0.602c0.065-0.331,0.132-0.613,0.147-0.629s0.191-0.047,0.392-0.07
	c0.199-0.022,0.396-0.063,0.438-0.088c0.051-0.03-0.016-0.304-0.189-0.793l-0.267-0.746l0.354-0.448
	c0.194-0.246,0.377-0.475,0.405-0.508c0.04-0.044,0.734,0.321,0.923,0.487c0.015,0.013-0.091,0.162-0.234,0.333l-0.261,0.312
	l0.395,1.1c0.453,1.262,0.511,1.105-0.458,1.242c-0.294,0.042-0.557,0.09-0.585,0.106s-0.093,0.271-0.145,0.563
	c-0.051,0.292-0.125,0.552-0.164,0.575c-0.04,0.023-0.286,0.097-0.549,0.161l-0.477,0.117l-0.007,0.336
	c-0.006,0.318-0.031,0.359-0.522,0.839l-0.517,0.504V28.457z"/>
<path id="path984"  fill="#6F6F6F" stroke="#6F6F6F" stroke-width="0.0189" d="M23.919,42.648
	c-0.051-0.579-0.109-1.115-0.128-1.189c-0.02-0.075-0.282-0.256-0.584-0.401l-0.548-0.266l-0.565-1.364l-0.564-1.364l0.33-0.672
	l0.331-0.673l-0.202-0.465l-0.201-0.466l-0.648-0.187c-0.549-0.159-0.735-0.262-1.223-0.675c-0.462-0.392-0.585-0.543-0.623-0.767
	c-0.122-0.715-0.275-1.114-0.48-1.247c-0.209-0.136-0.209-0.136-0.147-0.762c0.033-0.345,0.071-0.639,0.085-0.653
	c0.013-0.014,0.291,0.19,0.619,0.454l0.596,0.479l0.148,0.654c0.138,0.61,0.313,0.947,0.49,0.947c0.047,0,0.075-0.454,0.075-1.198
	v-1.198h0.865h0.866l0.566-1.302l0.566-1.301l1.239-0.414c0.682-0.227,1.274-0.435,1.316-0.462c0.095-0.061-0.259-0.97-0.398-1.024
	c-0.054-0.021-0.82-0.331-1.704-0.688l-1.607-0.651l0.843-0.721c0.8-0.684,0.886-0.734,1.702-1.009l0.859-0.289l0.883,0.216
	c0.485,0.119,0.962,0.239,1.061,0.266c0.177,0.048,0.179,0.041,0.146-0.456c-0.02-0.295-0.083-0.565-0.152-0.652
	c-0.109-0.137-0.088-0.194,0.293-0.788l0.411-0.641h0.635h0.634l-0.413,0.649l-0.414,0.648l0.047,0.662
	c0.061,0.86-0.004,1.2-0.284,1.508c-0.296,0.326-0.564,0.327-1.832,0.007l-0.969-0.245l-0.664,0.219
	c-0.365,0.12-0.638,0.243-0.606,0.273c0.032,0.03,0.504,0.235,1.049,0.457l0.991,0.401l0.457,1.205
	c0.25,0.663,0.456,1.243,0.456,1.29c0,0.046-0.72,0.325-1.599,0.621l-1.598,0.538l-0.659,1.42l-0.659,1.42h-0.675h-0.675v0.863
	v0.863l0.443,0.178c0.423,0.169,0.454,0.202,0.641,0.658c0.193,0.475,0.198,0.479,0.477,0.444c0.154-0.02,0.616-0.069,1.026-0.112
	l0.744-0.077l0.834,0.854c0.799,0.818,0.868,0.869,1.644,1.201c0.928,0.398,1.275,0.701,1.403,1.222
	c0.107,0.438,0.082,0.56-0.422,1.977l-0.416,1.17l-0.499,0.135c-1.292,0.349-1.241,0.317-1.585,0.954l-0.313,0.579h-0.811h-0.812
	L23.919,42.648z M25.338,42.011c0.129-0.246,0.291-0.468,0.362-0.491c0.07-0.024,0.445-0.137,0.833-0.25
	c0.389-0.113,0.715-0.216,0.727-0.229c0.09-0.104,0.633-1.773,0.604-1.857c-0.043-0.124-0.677-0.446-1.303-0.662
	c-0.359-0.124-0.547-0.272-1.153-0.913c-0.797-0.84-0.752-0.821-1.702-0.712l-0.453,0.052l-0.281,0.589l-0.281,0.588l0.375,0.891
	l0.375,0.891l0.63,0.335c0.348,0.185,0.644,0.349,0.658,0.365s0.072,0.45,0.128,0.964s0.104,0.946,0.104,0.96
	C24.972,42.622,25.139,42.394,25.338,42.011L25.338,42.011z"/>
<linearGradient id="path15_1_" gradientUnits="userSpaceOnUse" x1="303.9111" y1="-303.8198" x2="290.3549" y2="-291.1804" gradientTransform="matrix(1.1311 0 0 -1.0666 -307.9854 -285.9814)">
	<stop  offset="0" style="stop-color:#B0B0B0"/>
	<stop  offset="1" style="stop-color:#B0B0B0;stop-opacity:0"/>
</linearGradient>
<path id="path15"  fill="url(#path15_1_)" d="M30.379,21.7c-6.651,0-12.094,5.231-12.094,11.625
	c0,6.393,5.442,11.624,12.094,11.624s12.094-5.231,12.094-11.624C42.473,26.932,37.03,21.7,30.379,21.7z"/>
<path id="path32"  fill="none" stroke="#474747" stroke-width="1" stroke-miterlimit="10" d="
	M30.271,21.185c-6.652,0-12.094,5.415-12.094,12.033c0,6.619,5.441,12.034,12.094,12.034c6.651,0,12.093-5.415,12.093-12.034
	C42.363,26.6,36.922,21.185,30.271,21.185z"/>
<linearGradient id="path127_1_" gradientUnits="userSpaceOnUse" x1="494.1904" y1="-576.6641" x2="511.8446" y2="-594.3182" gradientTransform="matrix(0.5838 0 0 -0.581 -254.6284 -305.0039)">
	<stop  offset="0" style="stop-color:#F3F3F3"/>
	<stop  offset="0.5" style="stop-color:#CDCCCC"/>
	<stop  offset="0.6296" style="stop-color:#C8C7C7"/>
	<stop  offset="0.7792" style="stop-color:#BABABA"/>
	<stop  offset="0.9383" style="stop-color:#A2A2A1"/>
	<stop  offset="0.99" style="stop-color:#989898"/>
</linearGradient>
<path id="path127"  fill="url(#path127_1_)" stroke="#474747" stroke-width="1" stroke-linejoin="round" stroke-miterlimit="10" d="
	M43.909,36.916l2.438-0.861v-1.813l-2.438-0.861c-0.174-0.061-0.243-0.246-0.171-0.397l1.109-2.321l-1.289-1.281l-2.332,1.104
	c-0.163,0.076-0.346-0.007-0.4-0.16l-0.865-2.415h-1.822l-0.865,2.414c-0.055,0.152-0.244,0.231-0.4,0.158l-2.332-1.104
	l-1.289,1.282l1.108,2.321c0.071,0.148,0.002,0.338-0.17,0.398l-2.438,0.861v1.813l2.438,0.861c0.176,0.062,0.244,0.247,0.172,0.398
	l-1.109,2.321l1.289,1.283l2.332-1.101c0.146-0.069,0.336-0.003,0.4,0.178l0.865,2.438h1.822l0.865-2.438
	c0.069-0.192,0.247-0.254,0.4-0.183l2.333,1.104l1.288-1.282l-1.108-2.321C43.668,37.164,43.738,36.976,43.909,36.916z"/>
<linearGradient id="circle140_1_" gradientUnits="userSpaceOnUse" x1="500.543" y1="-583.0586" x2="505.4936" y2="-588.0092" gradientTransform="matrix(0.5838 0 0 -0.581 -254.6284 -305.0039)">
	<stop  offset="0" style="stop-color:#FFFFFF"/>
	<stop  offset="0.2214" style="stop-color:#F7F8F8"/>
	<stop  offset="0.5415" style="stop-color:#E5E5E5"/>
	<stop  offset="0.92" style="stop-color:#C7C6C6"/>
	<stop  offset="1" style="stop-color:#BFBEBE"/>
</linearGradient>
<path id="circle140" fill="url(#circle140_1_)" stroke="#474747" stroke-width="1" stroke-miterlimit="10" d="M41.093,35.173
	c0,1.123-0.914,2.033-2.043,2.033s-2.044-0.91-2.044-2.033s0.915-2.034,2.044-2.034S41.093,34.05,41.093,35.173z"/>
<path id="path1063" fill="#6F6F6F" stroke="#6F6F6F" stroke-width="0.0189" d="M31.811,33.424
	c-0.027-0.067-0.051-0.329-0.052-0.581c-0.002-0.378,0.039-0.539,0.231-0.916c0.128-0.251,0.345-0.583,0.481-0.737l0.248-0.282
	l0.252,0.528c0.211,0.441,0.237,0.545,0.158,0.634c-0.226,0.254-0.343,0.591-0.309,0.888l0.035,0.302l-0.438,0.145
	C31.888,33.578,31.873,33.579,31.811,33.424z"/>
<path id="path1065"  fill="#6F6F6F" stroke="#6F6F6F" stroke-width="0.0189" d="M35.593,29.248
	c-0.296-0.148-0.501-0.271-0.453-0.273c0.047-0.002,0.284-0.241,0.527-0.531l0.441-0.528h0.776h0.775l-0.221,0.631
	c-0.168,0.479-0.233,0.599-0.273,0.493c-0.097-0.256-0.441-0.179-0.756,0.17l-0.277,0.309L35.593,29.248z"/>
<path id="path1610"   fill="none" stroke="#474747" stroke-width="1" d="
	M9.65,17.573c0.039,3.105,0.079,6.213,1.188,8.012c1.108,1.798,3.285,2.286,5.302-0.303c2.017-2.588,3.874-8.254,5.415-12.052
	c1.54-3.798,2.764-5.731,4.151-6.519s2.942-0.43,4.086,1.824c1.143,2.253,2.114,9.047,2.851,13.202"/>
<path id="path2842"  fill="#FFFFFF" d="M20.362,33.717c-0.065-0.142-0.177-0.497-0.248-0.79
	l-0.128-0.533l-0.585-0.459c-0.576-0.452-0.584-0.463-0.547-0.672c0.354-1.985,1.299-3.979,2.619-5.522
	c0.496-0.579,1.613-1.588,2.214-1.999c1.042-0.714,2.28-1.298,3.45-1.627c0.816-0.23,1.176-0.289,1.111-0.181
	c-0.026,0.044-0.172,0.273-0.324,0.51c-0.289,0.449-0.291,0.461-0.145,0.988c0.073,0.264,0.091,0.797,0.027,0.797
	c-0.023,0-0.484-0.11-1.024-0.245L25.8,23.738l-0.507,0.165c-1.017,0.332-1.326,0.505-2.16,1.206
	c-0.434,0.364-0.789,0.672-0.789,0.683s0.763,0.329,1.693,0.707l1.694,0.688l0.165,0.354c0.274,0.583,0.304,0.556-1.096,1.033
	c-0.672,0.229-1.247,0.442-1.276,0.473c-0.03,0.03-0.299,0.619-0.598,1.309l-0.543,1.253l-0.87,0.017l-0.87,0.017l-0.017,1.166
	c-0.012,0.755-0.04,1.167-0.081,1.167C20.511,33.975,20.428,33.858,20.362,33.717L20.362,33.717z"/>
<path id="path2844"  fill="#E6E6E5" d="M24.978,42.288c-0.016-0.073-0.062-0.438-0.102-0.812
	c-0.039-0.372-0.095-0.735-0.123-0.807c-0.031-0.078-0.291-0.257-0.667-0.459l-0.614-0.329l-0.369-0.876l-0.369-0.877l0.26-0.552
	c0.158-0.336,0.306-0.567,0.377-0.593c0.065-0.022,0.331-0.06,0.591-0.083c0.614-0.055,0.695-0.013,1.415,0.73
	c0.645,0.666,0.826,0.794,1.483,1.046c0.255,0.099,0.58,0.249,0.723,0.335l0.26,0.156l-0.123,0.43
	c-0.201,0.708-0.429,1.333-0.508,1.395c-0.04,0.031-0.401,0.155-0.803,0.275c-0.4,0.121-0.769,0.258-0.818,0.305
	c-0.049,0.047-0.189,0.257-0.313,0.467c-0.122,0.209-0.233,0.381-0.247,0.381S24.993,42.36,24.978,42.288z"/>
<path id="path2846"  fill="#AEAEAE" d="M34.813,28.975c-0.11-0.057-0.257-0.08-0.383-0.061
	l-0.204,0.031l0.12-0.188c0.072-0.113,0.12-0.295,0.12-0.457V28.03l0.465-0.104c0.256-0.058,0.503-0.141,0.549-0.185
	c0.047-0.044,0.119-0.261,0.162-0.482c0.132-0.677,0.101-0.646,0.748-0.73c0.386-0.05,0.606-0.108,0.682-0.181
	c0.129-0.123,0.111-0.195-0.351-1.463l-0.268-0.731l0.166-0.198c0.091-0.109,0.19-0.198,0.221-0.198
	c0.105,0,0.938,0.677,1.497,1.216c0.596,0.575,1.264,1.386,1.687,2.048c0.141,0.22,0.256,0.406,0.256,0.414
	c0,0.007-0.491,0.005-1.091-0.005c-1.207-0.021-1.39,0.014-1.509,0.289l-0.075,0.172h-0.758h-0.759l-0.342,0.399
	c-0.188,0.219-0.413,0.462-0.5,0.54c-0.087,0.077-0.144,0.164-0.125,0.191C35.172,29.102,35.009,29.076,34.813,28.975L34.813,28.975
	z"/>
<path id="path1614"  fill="#474747" stroke="#6F6F6F" stroke-width="0.0189" d="M6.147,2.748
	c-0.276,0-0.499,0.258-0.499,0.58v4.34c0,0.028,0.01,0.053,0.014,0.08H2.115c-0.256,0-0.463,0.207-0.463,0.463v0.074
	c0,0.256,0.207,0.463,0.463,0.463h0.571l0.002,0.004v4.803v0.016h0.008c0.919,2.491,3.759,4.159,6.984,4.159
	c3.228-0.004,6.08-1.662,6.991-4.159V8.752V8.748h0.5c0.256,0,0.462-0.207,0.462-0.463V8.211c0-0.256-0.206-0.463-0.462-0.463
	h-3.547c0.003-0.027,0.014-0.052,0.014-0.08v-4.34c0-0.322-0.223-0.58-0.499-0.58c-0.277,0-0.5,0.258-0.5,0.58v4.34
	c0,0.028,0.011,0.053,0.014,0.08H6.633c0.004-0.027,0.014-0.052,0.014-0.08v-4.34C6.646,3.006,6.424,2.748,6.147,2.748z"/>
<linearGradient id="path1614-9_1_" gradientUnits="userSpaceOnUse" x1="211.1563" y1="-235.021" x2="220.1563" y2="-235.021" gradientTransform="matrix(1.3297 0 0 -1.3635 -277.0664 -307.7217)">
	<stop  offset="0" style="stop-color:#74B5C8"/>
	<stop  offset="0.175" style="stop-color:#6BAEC3"/>
	<stop  offset="0.457" style="stop-color:#539EB5"/>
	<stop  offset="0.809" style="stop-color:#2F849F"/>
	<stop  offset="1" style="stop-color:#187491"/>
</linearGradient>
<path id="path1614-9" fill="url(#path1614-9_1_)" d="M3.706,8.72
	l-0.019,4.776c0.805,2.255,3.254,3.232,5.993,3.233c2.736-0.004,5.188-0.964,5.992-3.216v0.011V8.719L3.706,8.72z"/>
</svg>
