<svg id="Image" xmlns="http://www.w3.org/2000/svg" xmlns:xlink="http://www.w3.org/1999/xlink" viewBox="0 0 48 48">
  <defs>
    <linearGradient id="linear-gradient" x1="23.998" y1="7.625" x2="23.998" y2="-0.046" gradientTransform="translate(0 2)" gradientUnits="userSpaceOnUse">
      <stop offset="0" stop-color="#c9c6c5"/>
      <stop offset="0.045" stop-color="#cecccc"/>
      <stop offset="0.268" stop-color="#e7e6e6"/>
      <stop offset="0.497" stop-color="#f6f6f7"/>
      <stop offset="0.736" stop-color="#fefefe"/>
      <stop offset="1" stop-color="#fff"/>
    </linearGradient>
    <linearGradient id="linear-gradient-2" x1="6.031" y1="6.427" x2="41.969" y2="42.365" gradientTransform="translate(0 2)" gradientUnits="userSpaceOnUse">
      <stop offset="0" stop-color="#fff"/>
      <stop offset="0.221" stop-color="#fbfbfc"/>
      <stop offset="0.541" stop-color="#ececec"/>
      <stop offset="0.92" stop-color="#d0cecd"/>
      <stop offset="1" stop-color="#c9c6c5"/>
    </linearGradient>
    <linearGradient id="linear-gradient-3" x1="8.906" y1="9.302" x2="39.094" y2="39.49" gradientTransform="translate(0 2)" gradientUnits="userSpaceOnUse">
      <stop offset="0" stop-color="#fff"/>
      <stop offset="0.335" stop-color="#fbfbfc"/>
      <stop offset="0.82" stop-color="#ececec"/>
      <stop offset="1" stop-color="#e4e3e4"/>
    </linearGradient>
    <linearGradient id="linear-gradient-4" x1="12.431" y1="30.044" x2="23.846" y2="13.341" gradientTransform="matrix(1, 0, 0, -1, 0, 48)" gradientUnits="userSpaceOnUse">
      <stop offset="0" stop-color="#fff"/>
      <stop offset="1" stop-color="#dcdcdc"/>
    </linearGradient>
    <linearGradient id="linear-gradient-5" x1="24.646" y1="28.284" x2="35.733" y2="14.212" xlink:href="#linear-gradient-4"/>
    <linearGradient id="linear-gradient-6" x1="26.614" y1="29.608" x2="43.105" y2="22.253" gradientTransform="matrix(0.879, 0.477, 0.477, -0.879, -13.29, 39.104)" gradientUnits="userSpaceOnUse">
      <stop offset="0" stop-color="#cde6eb"/>
      <stop offset="1" stop-color="#8cc3d2"/>
    </linearGradient>
  </defs>
  <g id="g893">
    <path id="path37" d="M32.146,5.792a2.5,2.5,0,0,0-1.917-.959H28.792V4.354A3.4,3.4,0,0,0,25.437,1H22.562a3.4,3.4,0,0,0-3.354,3.354v.479H17.771a2.5,2.5,0,0,0-1.917.959H6.75V47h34.5V5.792Z" fill="#4e4a48"/>
    <path id="path39" d="M16.333,9.625H31.667v-2.4a1.473,1.473,0,0,0-1.438-1.437h-2.4V4.354a2.372,2.372,0,0,0-2.344-2.4H22.562A2.372,2.372,0,0,0,20.167,4.3V5.792h-2.4a1.473,1.473,0,0,0-1.438,1.437Z" fill="url(#linear-gradient)"/>
    <path id="circle41" d="M24.958,4.833A.958.958,0,0,1,24,5.791h0a.958.958,0,0,1-.958-.958h0A.958.958,0,0,1,24,3.875h0a.958.958,0,0,1,.958.958Z" fill="#4e4a48"/>
    <path id="path43" d="M32.529,6.75a.859.859,0,0,1,.1.479v3.354H15.375V7.229a.859.859,0,0,1,.1-.479H7.708V46.042H40.292V6.75Z" fill="url(#linear-gradient-2)"/>
    <path id="polygon45" d="M15.375,10.583V8.667H9.625V44.125h28.75V8.667h-5.75v1.916Z" fill="#c9c6c5"/>
    <path id="polygon47" d="M15.375,10.583V9.625H10.583V43.167H37.417V9.625H32.625v.958Z" fill="url(#linear-gradient-3)"/>
    <g id="g915">
      <g id="g51">
        <g id="g43">
          <g id="g27">
            <g id="g19">
              <path id="path15" d="M23.9,20.519c0-1.825-6.691-2.9-11.716-2.9v14.44c5.025,0,11.716,1.073,11.716,2.9Z" fill="url(#linear-gradient-4)"/>
              <path id="path17" d="M23.9,35.231a.272.272,0,0,1-.272-.272c0-1.35-5.562-2.627-11.444-2.627a.272.272,0,0,1-.272-.272V17.621a.272.272,0,0,1,.272-.272c3.756,0,11.988.8,11.988,3.17v14.44A.272.272,0,0,1,23.9,35.231ZM12.457,31.79c3.253.031,9.33.614,11.172,2.18V20.519c0-1.329-5.392-2.587-11.172-2.626Z" fill="#474647"/>
            </g>
            <g id="g25">
              <path id="path21" d="M24,20.56c0-1.825,6.692-2.9,11.716-2.9V32.1C30.692,32.1,24,33.175,24,35Z" fill="url(#linear-gradient-5)"/>
              <path id="path23" d="M24,35.275A.272.272,0,0,1,23.728,35V20.56c0-2.371,8.233-3.17,11.988-3.17a.272.272,0,0,1,.272.272V32.1a.272.272,0,0,1-.272.272c-5.882,0-11.444,1.276-11.444,2.626a.273.273,0,0,1-.269.275Zm11.445-17.34c-5.781.039-11.173,1.3-11.173,2.625V34.009c1.843-1.564,7.919-2.147,11.173-2.177Z" fill="#474647"/>
            </g>
          </g>
          <path id="path29" d="M21.962,22.248a.27.27,0,0,1-.207-.1c-.025-.028-1.686-1.852-7.34-1.852a.272.272,0,0,1,0-.544c5.965,0,7.686,1.962,7.757,2.045a.271.271,0,0,1-.209.447Z" fill="#474647"/>
          <path id="path31" d="M21.962,25.281a.272.272,0,0,1-.207-.095c-.025-.029-1.686-1.853-7.34-1.853a.272.272,0,0,1,0-.544c5.965,0,7.686,1.962,7.757,2.045a.272.272,0,0,1-.033.383h0A.27.27,0,0,1,21.962,25.281Z" fill="#474647"/>
          <path id="path33" d="M21.962,28.316a.27.27,0,0,1-.207-.1c-.025-.028-1.686-1.853-7.34-1.853a.272.272,0,0,1,0-.544c5.965,0,7.686,1.962,7.757,2.046a.272.272,0,0,1-.033.383h0A.276.276,0,0,1,21.962,28.316Z" fill="#474647"/>
          <path id="path35" d="M17.825,29.659a.357.357,0,0,1-.046,0,20.447,20.447,0,0,0-3.37-.255.272.272,0,1,1,0-.544,20.961,20.961,0,0,1,3.458.263.272.272,0,0,1-.044.54Z" fill="#474647"/>
          <path id="path37-4" d="M26.126,22.247a.271.271,0,0,1-.208-.446c.07-.083,1.794-2.045,7.756-2.045a.272.272,0,0,1,0,.544c-5.67,0-7.325,1.834-7.339,1.852A.273.273,0,0,1,26.126,22.247Z" fill="#474647"/>
          <path id="path39-3" d="M26.126,25.28a.272.272,0,0,1-.208-.446c.07-.083,1.794-2.045,7.756-2.045a.272.272,0,0,1,0,.544c-5.67,0-7.325,1.835-7.339,1.853A.272.272,0,0,1,26.126,25.28Z" fill="#474647"/>
          <path id="path41" d="M26.126,28.316a.272.272,0,0,1-.271-.273.267.267,0,0,1,.063-.173c.07-.083,1.794-2.046,7.756-2.046a.272.272,0,1,1,0,.544c-5.67,0-7.325,1.835-7.339,1.853A.276.276,0,0,1,26.126,28.316Z" fill="#474647"/>
        </g>
        <g id="g49">
          <path id="path45" d="M36.613,33.484v.223a12.511,12.511,0,0,1-.684,4.162c-1.029,2.91-2.14,2.685-2.14,2.685H29.251a.974.974,0,0,1-.771-.38l-.377-.49a19.384,19.384,0,0,1-3.017-5.621l-.229-.675A1.221,1.221,0,0,1,27,32.217l.686,1.126V26.622a1.221,1.221,0,0,1,2.441,0V32a1.081,1.081,0,0,1,2.162,0v.452a1.081,1.081,0,0,1,2.162.011s-.029,1.161,0,1.19v-.23A1.081,1.081,0,0,1,35.8,32.37,1.129,1.129,0,0,1,36.613,33.484Z" fill="url(#linear-gradient-6)"/>
          <path id="path47" d="M28.644,40.7a1.263,1.263,0,0,1-.4-.34l-.381-.489A19.6,19.6,0,0,1,24.8,34.161l-.222-.652a1.523,1.523,0,0,1,2.683-1.435l.122.2V26.621a1.523,1.523,0,0,1,3.045,0v4.235a1.376,1.376,0,0,1,1.756.163,1.394,1.394,0,0,1,.278.4,1.383,1.383,0,0,1,2.279.869,1.387,1.387,0,0,1,1.127-.209,1.436,1.436,0,0,1,1.045,1.408v.224a12.738,12.738,0,0,1-.7,4.261c-1.016,2.878-2.186,2.915-2.443,2.885H29.251A1.263,1.263,0,0,1,28.644,40.7ZM26.369,32a.922.922,0,0,0-1.25,1.251.281.281,0,0,1,.021.047l.231.675A19,19,0,0,0,28.34,39.5l.38.49a.669.669,0,0,0,.534.262h4.538a.288.288,0,0,1,.059.006h0s.9.054,1.794-2.491a12.166,12.166,0,0,0,.67-4.064v-.224a.83.83,0,0,0-.586-.824.784.784,0,0,0-.952.569.794.794,0,0,0-.024.188v.228a.3.3,0,0,1-.513.21c-.109-.108-.12-.12-.087-1.408a.78.78,0,0,0-1.332-.544.758.758,0,0,0-.229.544h0a.3.3,0,1,1-.6.062.321.321,0,0,1,0-.062V32a.781.781,0,0,0-1.561,0h0a.3.3,0,0,1-.6,0V26.622a.921.921,0,0,0-1.841,0v6.724a.3.3,0,0,1-.556.155l-.69-1.126A.933.933,0,0,0,26.369,32Z" fill="#177491"/>
        </g>
      </g>
    </g>
  </g>
</svg>
