<svg version="1.1" id="Layer_1" xmlns="http://www.w3.org/2000/svg" xmlns:xlink="http://www.w3.org/1999/xlink" x="0px" y="0px"
	 viewBox="0 0 48 48" enable-background="new 0 0 48 48" xml:space="preserve">
<linearGradient id="SVGID_1_" gradientUnits="userSpaceOnUse" x1="4.75" y1="7.25" x2="43.25" y2="45.75">
	<stop  offset="0" style="stop-color:#FFFFFF"/>
	<stop  offset="0.2214" style="stop-color:#F8F8F8"/>
	<stop  offset="0.5415" style="stop-color:#E5E5E5"/>
	<stop  offset="0.92" style="stop-color:#C6C6C6"/>
	<stop  offset="1" style="stop-color:#BEBEBE"/>
</linearGradient>
<rect x="6.5" y="5.5" fill="url(#SVGID_1_)" stroke="#464646" stroke-miterlimit="10" width="35" height="42"/>
<linearGradient id="SVGID_2_" gradientUnits="userSpaceOnUse" x1="7.75" y1="10.25" x2="40.25" y2="42.75">
	<stop  offset="0" style="stop-color:#FFFFFF"/>
	<stop  offset="0.3355" style="stop-color:#F8F8F8"/>
	<stop  offset="0.8196" style="stop-color:#E5E5E5"/>
	<stop  offset="1" style="stop-color:#DCDCDC"/>
</linearGradient>
<rect x="9.5" y="8.5" fill="url(#SVGID_2_)" stroke="#BEBEBE" stroke-miterlimit="10" width="29" height="36"/>
<linearGradient id="SVGID_3_" gradientUnits="userSpaceOnUse" x1="24" y1="9.5" x2="24" y2="0.5">
	<stop  offset="0" style="stop-color:#BEBEBE"/>
	<stop  offset="0.0454" style="stop-color:#C4C4C4"/>
	<stop  offset="0.2676" style="stop-color:#DEDEDE"/>
	<stop  offset="0.497" style="stop-color:#F0F0F0"/>
	<stop  offset="0.7361" style="stop-color:#FBFBFB"/>
	<stop  offset="1" style="stop-color:#FFFFFF"/>
</linearGradient>
<path fill="url(#SVGID_3_)" stroke="#464646" stroke-miterlimit="10" d="M30.5,4.5h-2v-1c0-1.657-1.343-3-3-3h-3
	c-1.657,0-3,1.343-3,3v1h-2c-1.105,0-2,0.895-2,2v3h17v-3C32.5,5.395,31.605,4.5,30.5,4.5z"/>
<circle fill="#464646" cx="24" cy="4" r="1"/>
<rect x="22.5" y="15.5" fill="#3C91AF" stroke="#147391" stroke-miterlimit="10" width="3" height="6"/>
<rect x="22.5" y="23.5" fill="#3C91AF" stroke="#147391" stroke-miterlimit="10" width="3" height="6"/>
<rect x="12.5" y="22.5" fill="#3C91AF" stroke="#147391" stroke-miterlimit="10" width="4" height="8"/>
<rect x="31.5" y="22.5" fill="#3C91AF" stroke="#147391" stroke-miterlimit="10" width="4" height="8"/>
<rect x="22.5" y="31.5" fill="#3C91AF" stroke="#147391" stroke-miterlimit="10" width="3" height="6"/>
<line fill="none" stroke="#147391" stroke-miterlimit="10" x1="16" y1="26.5" x2="22" y2="26.5"/>
<line fill="none" stroke="#147391" stroke-miterlimit="10" x1="25" y1="26.5" x2="31" y2="26.5"/>
<polyline fill="none" stroke="#147391" stroke-miterlimit="10" points="26,18.5 28.5,18.5 28.5,34.5 26,34.5 "/>
<polyline fill="none" stroke="#147391" stroke-miterlimit="10" points="22,18.5 19.5,18.5 19.5,34.5 22,34.5 "/>
</svg>
