<svg id="Image" xmlns="http://www.w3.org/2000/svg" xmlns:xlink="http://www.w3.org/1999/xlink" viewBox="0 0 48 48">
  <defs>
    <linearGradient id="linear-gradient" x1="-0.906" y1="5.552" x2="25.814" y2="32.272" gradientUnits="userSpaceOnUse">
      <stop offset="0" stop-color="#fff"/>
      <stop offset="1" stop-color="#dcdcdc"/>
    </linearGradient>
    <linearGradient id="linear-gradient-2" x1="23.005" y1="8.131" x2="44.719" y2="29.845" xlink:href="#linear-gradient"/>
    <linearGradient id="Sfumatura_senza_nome_9" data-name="Sfumatura senza nome 9" x1="35.836" y1="5.367" x2="43.578" y2="31.466" gradientTransform="translate(9.597 -3.088) rotate(28.477)" gradientUnits="userSpaceOnUse">
      <stop offset="0" stop-color="#cde6eb"/>
      <stop offset="1" stop-color="#8cc3d2"/>
    </linearGradient>
  </defs>
  <g>
    <g>
      <g>
        <g>
          <path d="M23.067,8.459c0-3.356-12.308-5.33-21.55-5.33v26.56c9.242,0,21.55,1.974,21.55,5.33Z" fill="url(#linear-gradient)"/>
          <path d="M23.067,35.519a.5.5,0,0,1-.5-.5c0-2.483-10.23-4.831-21.05-4.831a.5.5,0,0,1-.5-.5V3.129a.5.5,0,0,1,.5-.5c6.908,0,22.05,1.468,22.05,5.83v26.56A.5.5,0,0,1,23.067,35.519ZM2.017,29.191C8,29.248,19.178,30.32,22.567,33.2V8.459c0-2.444-9.918-4.757-20.55-4.829Z" fill="#474647"/>
        </g>
        <g>
          <path d="M23.249,8.535c0-3.356,12.308-5.33,21.55-5.33v26.56c-9.242,0-21.55,1.974-21.55,5.33Z" fill="url(#linear-gradient-2)"/>
          <path d="M23.249,35.6a.5.5,0,0,1-.5-.5V8.535c0-4.362,15.143-5.83,22.05-5.83a.5.5,0,0,1,.5.5v26.56a.5.5,0,0,1-.5.5c-10.82,0-21.05,2.347-21.05,4.83A.5.5,0,0,1,23.249,35.6ZM44.3,3.707c-10.633.071-20.55,2.383-20.55,4.828V33.273c3.39-2.877,14.565-3.949,20.55-4.005Z" fill="#474647"/>
        </g>
      </g>
      <path d="M19.5,11.64a.5.5,0,0,1-.381-.176c-.045-.052-3.1-3.408-13.5-3.408a.5.5,0,1,1,0-1c10.972,0,14.137,3.608,14.267,3.761a.5.5,0,0,1-.383.823Z" fill="#474647"/>
      <path d="M19.5,17.219a.5.5,0,0,1-.381-.176c-.046-.052-3.1-3.408-13.5-3.408a.5.5,0,1,1,0-1c10.972,0,14.137,3.609,14.267,3.762a.5.5,0,0,1-.061.705A.5.5,0,0,1,19.5,17.219Z" fill="#474647"/>
      <path d="M19.5,22.8a.5.5,0,0,1-.381-.175c-.045-.052-3.1-3.409-13.5-3.409a.5.5,0,0,1,0-1c10.972,0,14.137,3.609,14.267,3.762a.5.5,0,0,1-.061.705A.5.5,0,0,1,19.5,22.8Z" fill="#474647"/>
      <path d="M11.891,25.271a.469.469,0,0,1-.084-.008,37.788,37.788,0,0,0-6.2-.469.5.5,0,0,1,0-1,38.8,38.8,0,0,1,6.362.483.5.5,0,0,1-.082.994Z" fill="#474647"/>
      <path d="M27.159,11.638a.5.5,0,0,1-.383-.821c.13-.153,3.3-3.761,14.267-3.761a.5.5,0,1,1,0,1c-10.429,0-13.474,3.374-13.5,3.408A.5.5,0,0,1,27.159,11.638Z" fill="#474647"/>
      <path d="M27.159,17.217a.5.5,0,0,1-.383-.82c.13-.153,3.3-3.762,14.267-3.762a.5.5,0,0,1,0,1c-10.429,0-13.474,3.375-13.5,3.409A.5.5,0,0,1,27.159,17.217Z" fill="#474647"/>
      <path d="M27.159,22.8a.5.5,0,0,1-.383-.82c.13-.153,3.3-3.762,14.267-3.762a.5.5,0,0,1,0,1c-10.429,0-13.474,3.375-13.5,3.409A.5.5,0,0,1,27.159,22.8Z" fill="#474647"/>
    </g>
    <g>
      <path d="M46.448,32.306v.411a22.969,22.969,0,0,1-1.258,7.655c-1.892,5.353-3.935,4.939-3.935,4.939H32.908a1.792,1.792,0,0,1-1.418-.7l-.695-.9a35.668,35.668,0,0,1-5.548-10.34l-.421-1.241a2.245,2.245,0,0,1,3.941-2.153l1.262,2.071V19.685a2.245,2.245,0,0,1,4.49,0v9.883a1.989,1.989,0,0,1,3.977,0V30.4a1.988,1.988,0,0,1,3.976.019s-.054,2.135,0,2.189v-.422a1.993,1.993,0,0,1,2.476-1.929A2.076,2.076,0,0,1,46.448,32.306Zm-3.976.3" fill="url(#Sfumatura_senza_nome_9)"/>
      <path d="M31.79,45.578a2.344,2.344,0,0,1-.737-.626l-.7-.9a36.089,36.089,0,0,1-5.633-10.5l-.407-1.2a2.8,2.8,0,0,1,4.934-2.639l.225.371v-10.4a2.8,2.8,0,0,1,5.6,0v7.789a2.531,2.531,0,0,1,3.231.3,2.585,2.585,0,0,1,.511.729,2.542,2.542,0,0,1,4.191,1.6,2.547,2.547,0,0,1,2.073-.385A2.64,2.64,0,0,1,47,32.306v.412a23.462,23.462,0,0,1-1.29,7.838c-1.87,5.293-4.022,5.362-4.494,5.307H32.908A2.354,2.354,0,0,1,31.79,45.578ZM27.607,29.572a1.695,1.695,0,0,0-2.3,2.3.483.483,0,0,1,.039.087L25.77,33.2a34.994,34.994,0,0,0,5.461,10.18l.7.9a1.227,1.227,0,0,0,.982.482h8.347a.584.584,0,0,1,.109.011h0s1.649.1,3.3-4.582A22.383,22.383,0,0,0,45.9,32.717v-.412a1.524,1.524,0,0,0-1.078-1.516,1.442,1.442,0,0,0-1.794,1.393V32.6a.551.551,0,0,1-.944.388c-.2-.2-.22-.221-.16-2.591a1.435,1.435,0,0,0-2.451-1,1.392,1.392,0,0,0-.42,1h0a.553.553,0,1,1-1.1,0v-.828a1.436,1.436,0,0,0-2.871,0v0a.553.553,0,0,1-1.105,0V19.685a1.693,1.693,0,0,0-3.385,0V32.052a.552.552,0,0,1-1.023.286L28.3,30.267A1.727,1.727,0,0,0,27.607,29.572Z" fill="#177491"/>
    </g>
  </g>
</svg>
