<svg version="1.1" id="Livello_3" xmlns="http://www.w3.org/2000/svg" xmlns:xlink="http://www.w3.org/1999/xlink" x="0px" y="0px"
	  viewBox="0 0 48 48" enable-background="new 0 0 48 48" xml:space="preserve">
<g>
	<g id="g1053">
		
			<linearGradient id="path41-0-2_1_" gradientUnits="userSpaceOnUse" x1="408.3848" y1="-515.3516" x2="397.2529" y2="-508.3383" gradientTransform="matrix(0.7326 0 0 -0.6713 -266.0747 -324.9063)">
			<stop  offset="0" style="stop-color:#4F4B49"/>
			<stop  offset="1" style="stop-color:#FEF6FA"/>
		</linearGradient>
		<path id="path41-0-2"  fill="url(#path41-0-2_1_)" d="M30.658,22.682
			c-1.82,0-3.297-1.353-3.297-3.021s1.477-3.021,3.297-3.021s3.297,1.353,3.297,3.021l0,0
			C33.955,21.329,32.479,22.682,30.658,22.682z"/>
		<path id="path25-5"  fill="#4F4B49" d="M30.719,16.655c1.619,0,2.932,1.312,2.932,2.931
			c0,1.618-1.313,2.93-2.932,2.93c-1.617,0-2.93-1.312-2.93-2.93l0,0C27.789,17.967,29.102,16.655,30.719,16.655 M30.719,15.923
			c-2.021,0-3.662,1.64-3.662,3.663c0,2.023,1.641,3.663,3.662,3.663c2.023,0,3.664-1.64,3.664-3.663l0,0
			C34.383,17.563,32.742,15.923,30.719,15.923z"/>
		
			<linearGradient id="path41-0_1_" gradientUnits="userSpaceOnUse" x1="408.6777" y1="-517.1025" x2="401.1544" y2="-509.1141" gradientTransform="matrix(0.7326 0 0 -0.6713 -293.0747 -324.9063)">
			<stop  offset="0" style="stop-color:#4F4B49"/>
			<stop  offset="1" style="stop-color:#FFFFFF"/>
		</linearGradient>
		<path id="path41-0"  fill="url(#path41-0_1_)" d="M3.659,22.682
			c-1.821,0-3.297-1.353-3.297-3.021c0-1.668,1.476-3.021,3.297-3.021c1.82,0,3.296,1.353,3.296,3.021
			C6.955,21.329,5.479,22.682,3.659,22.682L3.659,22.682z"/>
		<path id="path25"  fill="#4F4B49" d="M3.72,16.655c1.618,0,2.93,1.312,2.93,2.93
			s-1.312,2.93-2.93,2.93c-1.619,0-2.931-1.312-2.931-2.93l0,0C0.79,17.967,2.102,16.655,3.72,16.655 M3.72,15.922
			c-2.023,0-3.663,1.64-3.663,3.663s1.64,3.663,3.663,3.663s3.663-1.64,3.663-3.663l0,0C7.383,17.563,5.743,15.922,3.72,15.922z"/>
		
			<linearGradient id="path35_2_" gradientUnits="userSpaceOnUse" x1="393.9219" y1="-515.6924" x2="383.8003" y2="-509.3156" gradientTransform="matrix(0.7326 0 0 -0.6713 -273.6001 -318.1299)">
			<stop  offset="0" style="stop-color:#4F4B49"/>
			<stop  offset="1" style="stop-color:#FEF6FA"/>
		</linearGradient>
		<path id="path35"  fill="url(#path35_2_)" d="M12.145,29.459c-1.821,0-3.296-1.354-3.296-3.021
			s1.476-3.021,3.296-3.021s3.297,1.353,3.297,3.021l0,0C15.441,28.105,13.965,29.459,12.145,29.459z"/>
		<path id="path37"  fill="#4F4B49" d="M12.145,23.507c1.619,0,2.93,1.312,2.93,2.931
			c0,1.617-1.312,2.93-2.93,2.93c-1.618,0-2.93-1.313-2.93-2.93C9.214,24.818,10.526,23.507,12.145,23.507L12.145,23.507
			 M12.145,22.774c-2.023,0-3.663,1.64-3.663,3.664c0,2.021,1.64,3.662,3.663,3.662s3.663-1.641,3.663-3.662
			C15.808,24.414,14.167,22.774,12.145,22.774L12.145,22.774z"/>
		
			<linearGradient id="circle59-5_1_" gradientUnits="userSpaceOnUse" x1="408.0547" y1="-457.9565" x2="400.6909" y2="-453.705" gradientTransform="matrix(0.7325 0 0 -0.7325 -288.02 -321.0308)">
			<stop  offset="0" style="stop-color:#4F4B49"/>
			<stop  offset="1" style="stop-color:#FEF6FA"/>
		</linearGradient>
		<path id="circle59-5"  fill="url(#circle59-5_1_)" d="M9.216,12.324
			c0,1.011-0.882,1.831-1.97,1.831l0,0c-1.088,0-1.97-0.82-1.97-1.831l0,0c0-1.012,0.882-1.832,1.97-1.832
			S9.216,11.313,9.216,12.324z"/>
		<path id="path49"  fill="#4F4B49" d="M7.253,10.858c0.809,0,1.465,0.656,1.465,1.465
			s-0.656,1.465-1.465,1.465s-1.465-0.656-1.465-1.465l0,0C5.788,11.515,6.444,10.858,7.253,10.858 M7.253,10.126
			c-1.213,0-2.197,0.984-2.197,2.198c0,1.213,0.984,2.197,2.197,2.197c1.214,0,2.198-0.984,2.198-2.197l0,0
			C9.451,11.11,8.467,10.126,7.253,10.126z"/>
		
			<linearGradient id="circle59-3_1_" gradientUnits="userSpaceOnUse" x1="405.4805" y1="-500.0332" x2="400.0119" y2="-496.5879" gradientTransform="matrix(0.7326 0 0 -0.6713 -281.6104 -318.168)">
			<stop  offset="0" style="stop-color:#4F4B49"/>
			<stop  offset="1" style="stop-color:#FEF6FA"/>
		</linearGradient>
		<path id="circle59-3"  fill="url(#circle59-3_1_)" d="M15.628,16.498
			c0,0.927-0.882,1.678-1.97,1.678s-1.97-0.751-1.97-1.678l0,0c0-0.927,0.882-1.678,1.97-1.678l0,0
			C14.746,14.819,15.628,15.571,15.628,16.498z"/>
		<path id="path55"  fill="#4F4B49" d="M13.609,14.887c0.809,0,1.465,0.656,1.465,1.465
			s-0.656,1.465-1.465,1.465s-1.465-0.656-1.465-1.465S12.8,14.887,13.609,14.887L13.609,14.887 M13.609,14.154
			c-1.213,0-2.197,0.984-2.197,2.197c0,1.214,0.984,2.198,2.197,2.198c1.214,0,2.198-0.984,2.198-2.198
			C15.807,15.138,14.823,14.154,13.609,14.154L13.609,14.154z"/>
		
			<linearGradient id="circle59_1_" gradientUnits="userSpaceOnUse" x1="405.5762" y1="-500.0933" x2="397.9478" y2="-495.2873" gradientTransform="matrix(0.7326 0 0 -0.6713 -273.6001 -318.1299)">
			<stop  offset="0" style="stop-color:#4F4B49"/>
			<stop  offset="1" style="stop-color:#FEF6FA"/>
		</linearGradient>
		<path id="circle59"  fill="url(#circle59_1_)" d="M23.638,16.535c0,0.927-0.882,1.678-1.97,1.678
			s-1.97-0.751-1.97-1.678l0,0c0-0.927,0.882-1.678,1.97-1.678S23.638,15.608,23.638,16.535z"/>
		<path id="path61"  fill="#4F4B49" d="M21.668,14.887c0.809,0,1.465,0.656,1.465,1.465
			s-0.656,1.465-1.465,1.465s-1.465-0.656-1.465-1.465S20.859,14.887,21.668,14.887L21.668,14.887 M21.668,14.154
			c-1.214,0-2.198,0.984-2.198,2.197c0,1.214,0.984,2.198,2.198,2.198c1.213,0,2.197-0.984,2.197-2.198
			C23.865,15.138,22.881,14.154,21.668,14.154L21.668,14.154z"/>
		
			<linearGradient id="circle65_1_" gradientUnits="userSpaceOnUse" x1="413.0313" y1="-493.7197" x2="406.9741" y2="-489.9036" gradientTransform="matrix(0.7326 0 0 -0.6713 -273.6001 -318.1299)">
			<stop  offset="0" style="stop-color:#4F4B49"/>
			<stop  offset="1" style="stop-color:#FEF6FA"/>
		</linearGradient>
		<path id="circle65"  fill="url(#circle65_1_)" d="M29.348,12.507
			c0,0.927-0.799,1.679-1.783,1.679l0,0c-0.982,0-1.781-0.751-1.781-1.679l0,0c0-0.927,0.799-1.678,1.781-1.678
			C28.549,10.829,29.348,11.58,29.348,12.507z"/>
		<path id="path67"  fill="#4F4B49" d="M27.564,10.858c0.811,0,1.467,0.656,1.467,1.465
			s-0.656,1.465-1.467,1.465c-0.809,0-1.465-0.656-1.465-1.465S26.756,10.858,27.564,10.858L27.564,10.858 M27.564,10.126
			c-1.213,0-2.197,0.984-2.197,2.198c0,1.213,0.984,2.197,2.197,2.197c1.215,0,2.199-0.984,2.199-2.197l0,0
			C29.764,11.11,28.779,10.126,27.564,10.126z"/>
		
			<linearGradient id="circle71_1_" gradientUnits="userSpaceOnUse" x1="442.4209" y1="-486.5742" x2="421.7522" y2="-474.6411" gradientTransform="matrix(0.6765 0 0 -0.6765 -272.7305 -317.9814)">
			<stop  offset="0" style="stop-color:#4F4B49"/>
			<stop  offset="1" style="stop-color:#FEF6FA"/>
		</linearGradient>
		<path id="circle71"  fill="url(#circle71_1_)" d="M22.574,5.75c0,2.989-2.423,5.412-5.412,5.412
			S11.75,8.739,11.75,5.75l0,0c0-2.989,2.423-5.412,5.412-5.412l0,0C20.151,0.338,22.574,2.761,22.574,5.75z"/>
		<path id="path73"  fill="#4F4B49" d="M17.162,0.677c2.802,0,5.073,2.271,5.073,5.073
			c0,2.802-2.271,5.074-5.073,5.074c-2.802,0-5.074-2.271-5.074-5.074C12.092,2.949,14.361,0.68,17.162,0.677 M17.162,0
			c-3.176,0-5.75,2.574-5.75,5.75s2.574,5.75,5.75,5.75s5.75-2.574,5.75-5.75l0,0C22.912,2.574,20.338,0,17.162,0z"/>
		<path id="path976"  fill="#187491" d="M32.381,36.949l9.121-8.08L32.381,36.949z"/>
		
			<linearGradient id="path35_3_" gradientUnits="userSpaceOnUse" x1="408.9375" y1="-514.2017" x2="398.8156" y2="-507.8247" gradientTransform="matrix(0.7326 0 0 -0.6713 -273.6001 -318.1299)">
			<stop  offset="0" style="stop-color:#4F4B49"/>
			<stop  offset="1" style="stop-color:#FEF6FA"/>
		</linearGradient>
		<path id="path35_1_"  fill="url(#path35_3_)" d="M23.145,28.459
			c-1.821,0-3.296-1.354-3.296-3.021s1.476-3.021,3.296-3.021s3.297,1.353,3.297,3.021l0,0
			C26.441,27.105,24.965,28.459,23.145,28.459z"/>
		<path id="path37_1_"  fill="#4F4B49" d="M23.145,22.507c1.619,0,2.93,1.312,2.93,2.931
			c0,1.617-1.311,2.93-2.93,2.93c-1.618,0-2.93-1.313-2.93-2.93C20.214,23.818,21.526,22.507,23.145,22.507L23.145,22.507
			 M23.145,21.774c-2.023,0-3.663,1.64-3.663,3.664c0,2.021,1.64,3.662,3.663,3.662c2.023,0,3.662-1.641,3.662-3.662
			C26.807,23.414,25.168,21.774,23.145,21.774L23.145,21.774z"/>
		
			<linearGradient id="circle62_1_" gradientUnits="userSpaceOnUse" x1="3.395" y1="-413.7817" x2="9.1798" y2="-447.0066" gradientTransform="matrix(0.7459 -0.6664 -0.6664 -0.7459 -255.8384 -281.4297)">
			<stop  offset="0" style="stop-color:#74B5C8"/>
			<stop  offset="0.1747" style="stop-color:#6BAEC3"/>
			<stop  offset="0.4567" style="stop-color:#539EB5"/>
			<stop  offset="0.8089" style="stop-color:#2F849F"/>
			<stop  offset="1" style="stop-color:#187491"/>
		</linearGradient>
		
			<path id="circle62" fill="url(#circle62_1_)" stroke="#474747" stroke-linecap="round" stroke-linejoin="round" stroke-miterlimit="10" d="
			M44.254,25.889c4.783,5.355,4.32,13.576-1.035,18.361c-5.355,4.783-13.574,4.32-18.358-1.035l0,0
			c-4.785-5.355-4.322-13.574,1.032-18.359l0,0C31.25,20.071,39.469,20.534,44.254,25.889z"/>
		<path id="line79" fill="none" stroke="#FFFFFF" stroke-linejoin="round" stroke-miterlimit="10" d="M41.377,29.625l-8.436,7.537"
			/>
		<path id="path64"  fill="#187491" d="M32.449,37.135l9.049-8.082"/>
		<path id="polyline66" fill="none" stroke="#187491" stroke-width="4.3915" stroke-miterlimit="10" d="M33.721,28.861l7.42,0.098
			l-0.678,7.449"/>
		<path id="polyline70" fill="none" stroke="#FFFFFF" stroke-width="2.1957" stroke-miterlimit="10" d="M34.693,28.818l6.447,0.141
			l-0.584,6.422"/>
		
			<path id="path64-7"  fill="none" stroke="#187491" stroke-width="4" stroke-miterlimit="10" d="
			M38.314,31.578l-8.852,7.861"/>
		<path id="polyline66-1" fill="none" stroke="#187491" stroke-width="4.3915" stroke-miterlimit="10" d="M35.66,40.459l-7.42-0.1
			l0.678-7.449"/>
		<path id="polyline70-3" fill="none" stroke="#FFFFFF" stroke-width="2.1957" stroke-miterlimit="10" d="M34.688,40.502
			l-6.447-0.143l0.584-6.422"/>
		
			<path id="path68"  fill="none" stroke="#FFFFFF" stroke-width="2" stroke-miterlimit="10" d="
			M28.547,40.072l11.76-10.084"/>
	</g>
</g>
</svg>
