<svg id="Layer_1" data-name="Layer 1" xmlns="http://www.w3.org/2000/svg" xmlns:xlink="http://www.w3.org/1999/xlink" viewBox="0 0 48 48">
  <defs>
    <linearGradient id="linear-gradient" x1="22.124" y1="29.732" x2="43.878" y2="7.977" gradientTransform="matrix(1.398, 0, 0, -1.551, -22.118, 48.039)" gradientUnits="userSpaceOnUse">
      <stop offset="0" stop-color="#73b4c8"/>
      <stop offset="0.175" stop-color="#6aaec3"/>
      <stop offset="0.457" stop-color="#529eb5"/>
      <stop offset="0.809" stop-color="#2c839f"/>
      <stop offset="1" stop-color="#147391"/>
    </linearGradient>
  </defs>
  <g id="g830">
    <path id="path28" d="M43.469,7.548A34.711,34.711,0,0,1,24.444,1.09L23.99.736l-.454.354A34.708,34.708,0,0,1,4.512,7.548H3.736v9.1C3.736,39.494,22.359,47.264,24,47.264s20.264-7.755,20.264-30.615v-9.1Z" stroke="#464646" stroke-linecap="round" stroke-linejoin="round" stroke-width="1.472" fill="url(#linear-gradient)"/>
    <path id="polygon51" d="M17.875,21.842,23,28,35.643,12.37l3.207,2.588-15.8,19.549L14.7,24.472Z" fill="#fff"/>
    <path id="path53-1" d="M35.746,13.336l2.14,1.725L23.037,33.423,15.67,24.562l2.116-1.753,5.224,6.274L35.746,13.336M35.54,11.4l-.863,1.067L22.993,26.917,18.841,21.93l-.877-1.054-1.055.875L14.793,23.5l-1.059.878.879,1.058L21.981,34.3l1.071,1.289,1.054-1.3L38.955,15.924l.864-1.069-1.07-.864-2.14-1.726Z" fill="#147391"/>
  </g>
</svg>
