<svg id="Image" xmlns="http://www.w3.org/2000/svg" xmlns:xlink="http://www.w3.org/1999/xlink" viewBox="0 0 48 48">
  <defs>
    <linearGradient id="linear-gradient" x1="-1.229" y1="6.771" x2="33.229" y2="41.229" gradientUnits="userSpaceOnUse">
      <stop offset="0" stop-color="#fff"/>
      <stop offset="1" stop-color="#dcdcdc"/>
    </linearGradient>
    <linearGradient id="linear-gradient-2" x1="31.686" y1="16.148" x2="46.287" y2="30.749" gradientUnits="userSpaceOnUse">
      <stop offset="0" stop-color="#cde6eb"/>
      <stop offset="1" stop-color="#8cc3d2"/>
    </linearGradient>
  </defs>
  <g>
    <rect x="3" y="2.542" width="26" height="42.917" fill="url(#linear-gradient)"/>
    <g>
      <g>
        <path d="M12.343,4.19a5.416,5.416,0,0,1,.509-1.648h-2.5a7.682,7.682,0,0,0-.337,1.233Z" fill="#177491"/>
        <path d="M18.887,3.737a2.66,2.66,0,0,1-1.192,2.4,4.8,4.8,0,0,1-2.68.778,3.509,3.509,0,0,1-.379-.028l-.259,2.049a6.714,6.714,0,0,1,1.647-.259A3.64,3.64,0,0,1,18.7,9.717a3.594,3.594,0,0,1,1.048,2.652,3.852,3.852,0,0,1-1.132,2.825,3.776,3.776,0,0,1-2.783,1.14,3.376,3.376,0,0,1-2.349-.875A5.112,5.112,0,0,1,12.112,12.6l-2.333.311a5.754,5.754,0,0,0,1.886,3.862,5.967,5.967,0,0,0,4.152,1.491,6.392,6.392,0,0,0,4.589-1.73,5.611,5.611,0,0,0,1.815-4.219,4.918,4.918,0,0,0-.933-3.067,4.429,4.429,0,0,0-2.62-1.611,4.527,4.527,0,0,0,1.958-1.607,4.038,4.038,0,0,0,.662-2.243,4.61,4.61,0,0,0-.171-1.247H18.659A3.059,3.059,0,0,1,18.887,3.737Z" fill="#177491"/>
      </g>
      <path d="M20.7,1.542H2V46.458H30V1.542ZM29,45.458H3V21H29ZM3,20V2.542H29V20Z" fill="#474647"/>
      <path d="M21.756,42.012v2.2H9.455a4.054,4.054,0,0,1,.266-1.587,8.4,8.4,0,0,1,1.505-2.475,23.533,23.533,0,0,1,2.989-2.819,25.354,25.354,0,0,0,4.1-3.942,4.718,4.718,0,0,0,1.066-2.748,3.053,3.053,0,0,0-.97-2.291,3.505,3.505,0,0,0-2.534-.934,3.568,3.568,0,0,0-2.64.99,3.751,3.751,0,0,0-1,2.743L9.886,30.9a5.779,5.779,0,0,1,1.816-4,6.188,6.188,0,0,1,4.227-1.377,5.9,5.9,0,0,1,4.24,1.485,4.876,4.876,0,0,1,1.562,3.682,5.582,5.582,0,0,1-.457,2.2,8.527,8.527,0,0,1-1.517,2.272,37.31,37.31,0,0,1-3.523,3.276q-2.057,1.725-2.641,2.341a7.64,7.64,0,0,0-.965,1.239Z" fill="#177491"/>
    </g>
    <polygon points="32.907 31.967 34.158 30.724 37.868 34.459 37.904 9.931 40.108 9.931 40.072 34.471 43.858 30.686 45.105 31.932 38.968 38.069 32.907 31.967" stroke="#177491" stroke-miterlimit="10" fill="url(#linear-gradient-2)"/>
  </g>
</svg>
