<svg id="Image" xmlns="http://www.w3.org/2000/svg" xmlns:xlink="http://www.w3.org/1999/xlink" viewBox="0 0 48 48">
  <defs>
    <radialGradient id="radial-gradient" cx="47.655" cy="-29.355" r="8.578" gradientTransform="matrix(0.9, 0, 0, -0.9, -40.091, 2.536)" gradientUnits="userSpaceOnUse">
      <stop offset="0" stop-color="#8bbfd1"/>
      <stop offset="0.195" stop-color="#6aaac1"/>
      <stop offset="0.554" stop-color="#388aa7"/>
      <stop offset="0.835" stop-color="#177898"/>
      <stop offset="1" stop-color="#0e7191"/>
    </radialGradient>
    <radialGradient id="radial-gradient-2" cx="89.878" cy="-29.355" r="8.578" xlink:href="#radial-gradient"/>
    <radialGradient id="radial-gradient-3" cx="60.433" cy="-40.188" r="8.578" xlink:href="#radial-gradient"/>
    <radialGradient id="radial-gradient-4" cx="77.1" cy="-40.188" r="8.578" xlink:href="#radial-gradient"/>
    <radialGradient id="radial-gradient-5" cx="8.551" cy="31.123" r="4.17" gradientTransform="matrix(1.029, 0, 0, -1.029, -0.195, 51.136)" xlink:href="#radial-gradient"/>
    <radialGradient id="radial-gradient-6" cx="16.987" cy="25.289" r="4.17" gradientTransform="matrix(1.029, 0, 0, -1.029, -0.195, 51.136)" xlink:href="#radial-gradient"/>
    <radialGradient id="radial-gradient-7" cx="27.682" cy="25.289" r="4.17" gradientTransform="matrix(1.029, 0, 0, -1.029, -0.195, 51.136)" xlink:href="#radial-gradient"/>
    <radialGradient id="radial-gradient-8" cx="35.509" cy="31.123" r="4.17" gradientTransform="matrix(1.029, 0, 0, -1.029, -0.195, 51.136)" xlink:href="#radial-gradient"/>
    <radialGradient id="radial-gradient-9" cx="20.088" cy="44.087" r="13.725" gradientTransform="matrix(1, 0, 0, -1, 0, 50)" xlink:href="#radial-gradient"/>
  </defs>
  <g>
    <circle cx="5" cy="31.583" r="4.5" fill="url(#radial-gradient)"/>
    <path d="M5,27.583a4,4,0,1,1-4,4,4,4,0,0,1,4-4m0-1a5,5,0,1,0,5,5,5,5,0,0,0-5-5Z" fill="#4e4a48"/>
  </g>
  <g>
    <circle cx="43" cy="31.583" r="4.5" fill="url(#radial-gradient-2)"/>
    <path d="M43,27.583a4,4,0,1,1-4,4,4,4,0,0,1,4-4m0-1a5,5,0,1,0,5,5,5,5,0,0,0-5-5Z" fill="#4e4a48"/>
  </g>
  <g>
    <path d="M16.5,45.833a4.5,4.5,0,1,1,4.5-4.5A4.5,4.5,0,0,1,16.5,45.833Z" fill="url(#radial-gradient-3)"/>
    <path d="M16.5,37.333a4,4,0,1,1-4,4,4,4,0,0,1,4-4m0-1a5,5,0,1,0,5,5,5,5,0,0,0-5-5Z" fill="#4e4a48"/>
  </g>
  <g>
    <path d="M31.5,45.833a4.5,4.5,0,1,1,4.5-4.5A4.5,4.5,0,0,1,31.5,45.833Z" fill="url(#radial-gradient-4)"/>
    <path d="M31.5,37.333a4,4,0,1,1-4,4,4,4,0,0,1,4-4m0-1a5,5,0,1,0,5,5,5,5,0,0,0-5-5Z" fill="#4e4a48"/>
  </g>
  <g>
    <circle cx="9.823" cy="20.583" r="2.5" fill="url(#radial-gradient-5)"/>
    <path d="M9.823,18.583a2,2,0,1,1-2,2,2,2,0,0,1,2-2m0-1a3,3,0,1,0,3,3,3,3,0,0,0-3-3Z" fill="#4e4a48"/>
  </g>
  <g>
    <circle cx="18.5" cy="26.583" r="2.5" fill="url(#radial-gradient-6)"/>
    <path d="M18.5,24.583a2,2,0,1,1-2,2,2,2,0,0,1,2-2m0-1a3,3,0,1,0,3,3,3,3,0,0,0-3-3Z" fill="#4e4a48"/>
  </g>
  <g>
    <circle cx="29.5" cy="26.583" r="2.5" fill="url(#radial-gradient-7)"/>
    <path d="M29.5,24.583a2,2,0,1,1-2,2,2,2,0,0,1,2-2m0-1a3,3,0,1,0,3,3,3,3,0,0,0-3-3Z" fill="#4e4a48"/>
  </g>
  <g>
    <circle cx="37.551" cy="20.583" r="2.5" fill="url(#radial-gradient-8)"/>
    <path d="M37.551,18.583a2,2,0,1,1-2,2,2,2,0,0,1,2-2m0-1a3,3,0,1,0,3,3,3,3,0,0,0-3-3Z" fill="#4e4a48"/>
  </g>
  <g>
    <circle cx="24" cy="10.583" r="8" fill="url(#radial-gradient-9)"/>
    <path d="M24,3.083a7.5,7.5,0,1,1-7.5,7.5,7.509,7.509,0,0,1,7.5-7.5m0-1a8.5,8.5,0,1,0,8.5,8.5,8.5,8.5,0,0,0-8.5-8.5Z" fill="#4e4a48"/>
  </g>
</svg>
