<svg id="Layer_1" data-name="Layer 1" xmlns="http://www.w3.org/2000/svg" xmlns:xlink="http://www.w3.org/1999/xlink" viewBox="0 0 48 48">
  <defs>
    <linearGradient id="linear-gradient" x1="3.227" y1="38.727" x2="36.891" y2="5.063" gradientTransform="matrix(1, 0, 0, -1, 0, 48)" gradientUnits="userSpaceOnUse">
      <stop offset="0" stop-color="#fff"/>
      <stop offset="0.221" stop-color="#f8f8f8"/>
      <stop offset="0.541" stop-color="#e5e5e5"/>
      <stop offset="0.92" stop-color="#c6c6c6"/>
      <stop offset="1" stop-color="#bebebe"/>
    </linearGradient>
    <linearGradient id="linear-gradient-2" x1="9.126" y1="53.559" x2="38.707" y2="26.055" gradientTransform="matrix(1, 0, 0, -1, 0, 48)" gradientUnits="userSpaceOnUse">
      <stop offset="0" stop-color="#73b4c8"/>
      <stop offset="0.175" stop-color="#6aaec3"/>
      <stop offset="0.457" stop-color="#529eb5"/>
      <stop offset="0.809" stop-color="#2c839f"/>
      <stop offset="1" stop-color="#147391"/>
    </linearGradient>
    <linearGradient id="linear-gradient-3" x1="13.511" y1="28.609" x2="29.478" y2="8.895" xlink:href="#linear-gradient-2"/>
    <linearGradient id="linear-gradient-4" x1="18.569" y1="10.328" x2="24.297" y2="2.985" xlink:href="#linear-gradient-2"/>
  </defs>
  <g id="g929">
    <path id="path13" d="M.585,14.049V45.073a2.341,2.341,0,0,0,2.342,2.342H45.073a2.34,2.34,0,0,0,2.341-2.342V14.049Z" fill="url(#linear-gradient)"/>
    <path id="path26" d="M47.414,14.634V2.927A2.34,2.34,0,0,0,45.073.585H2.927A2.342,2.342,0,0,0,.585,2.927V14.634Z" stroke="#147391" stroke-miterlimit="10" stroke-width="1.171" fill="url(#linear-gradient-2)"/>
    <path id="circle42" d="M16.976,7a1.757,1.757,0,0,1-1.757,1.756h0A1.756,1.756,0,0,1,13.463,7h0a1.756,1.756,0,0,1,1.756-1.756h0A1.757,1.757,0,0,1,16.976,7Z" fill="#fff" stroke="#147391" stroke-miterlimit="10" stroke-width="1.184"/>
    <path id="circle44" d="M16.976,7.024A1.757,1.757,0,0,1,15.219,8.78h0a1.756,1.756,0,0,1-1.756-1.756h0a1.757,1.757,0,0,1,1.756-1.756h0a1.757,1.757,0,0,1,1.757,1.756Z" fill="#fff" stroke="#147391" stroke-miterlimit="10" stroke-width="1.184"/>
    <path id="circle46" d="M34.536,7.024A1.756,1.756,0,0,1,32.78,8.78h0a1.756,1.756,0,0,1-1.756-1.756h0A1.756,1.756,0,0,1,32.78,5.268h0a1.756,1.756,0,0,1,1.756,1.756Z" fill="#fff" stroke="#147391" stroke-miterlimit="10" stroke-width="1.184"/>
    <path id="path48" d="M47.414,45.073V2.927A2.34,2.34,0,0,0,45.073.585H2.927A2.341,2.341,0,0,0,.585,2.927V45.073a2.341,2.341,0,0,0,2.342,2.342H45.073A2.34,2.34,0,0,0,47.414,45.073Z" fill="none" stroke="#464646" stroke-miterlimit="10" stroke-width="1.171"/>
    <path id="path836" d="M24.87,17.649a2.337,2.337,0,0,0-2.12,2.506h0a2.337,2.337,0,0,0,2.12,2.506h0a2.338,2.338,0,0,0,2.121-2.506A2.338,2.338,0,0,0,24.87,17.649Zm0,.771a1.58,1.58,0,0,1,1.35,1.735,1.58,1.58,0,0,1-1.35,1.735,1.579,1.579,0,0,1-1.349-1.735A1.579,1.579,0,0,1,24.87,18.42Z" fill="#464646"/>
    <path id="path864" d="M24.848,20.137l-.024,0-.721.025-.637.056-.483.042-.456.082-.51.111-.47.152-.345.152-.361.18-.441.276-.387.332-.332.331-.3.456-.249.524-.13.365-.094.312-.121.522-.074.451-.058.405-.063.511-.045.46-.033.626-.026.409-.028.455-.02.44-.034.693-.054.639-.039.377-.024.356-.083.708a1.549,1.549,0,0,0-.025.21c0,.061-.059.366-.059.366l-.054.338-.1.464c0,.019-.073.316-.073.316l-.127.49-.089.361-.1.337L17.5,33.7l-.132.371-.122.333-.132.323-.147.321-.156.307-.152.308s-.156.249-.156.269a2.15,2.15,0,0,1-.106.21l-.191.323a1.934,1.934,0,0,0-.127.2,2.29,2.29,0,0,1-.157.23l-.273.409-.162.23-.141.176-.132.156-.156.2-.167.22-.15.226-.093.18,10.172.054h.047l10.174-.054-.094-.181-.151-.225-.167-.22-.156-.2-.132-.156-.141-.176-.16-.23-.275-.409a2.291,2.291,0,0,1-.156-.23,1.958,1.958,0,0,0-.126-.206L33.3,36.14a2.135,2.135,0,0,1-.108-.21c0-.02-.156-.269-.156-.269l-.152-.308-.156-.307-.147-.321-.132-.323-.121-.333-.132-.371-.074-.23-.1-.336-.089-.361-.126-.49s-.068-.3-.073-.316-.1-.464-.1-.464l-.054-.338s-.06-.3-.058-.366a1.8,1.8,0,0,0-.024-.21l-.083-.708-.025-.356-.039-.377-.054-.639-.033-.693-.02-.44-.03-.455-.024-.41-.034-.625-.044-.46-.064-.511-.059-.406-.072-.45-.123-.522-.093-.312-.131-.365-.247-.524-.3-.456-.332-.331-.387-.332-.441-.276-.359-.18-.345-.152-.47-.152-.511-.111-.457-.082-.483-.042-.635-.056-.722-.025Z" stroke="#464646" stroke-width="0.768" fill="url(#linear-gradient-3)"/>
    <path id="path1095-7" d="M38.673,33.241l-.69.4a5.769,5.769,0,0,1,0,8.485l.694.4a6.525,6.525,0,0,0,0-9.284Z" fill="#464646"/>
    <path id="path990-2-9-0" d="M37.275,34.047l-.718.416a4.228,4.228,0,0,1,.006,6.84l.717.415a5,5,0,0,0-.005-7.671Z" fill="#464646"/>
    <path id="path1095-7-4" d="M11.555,32.791l.69.4a5.768,5.768,0,0,0,0,8.485l-.694.4a6.524,6.524,0,0,1,0-9.284Z" fill="#464646"/>
    <path id="path990-2-9-0-6" d="M12.953,33.6l.718.415a4.229,4.229,0,0,0-.006,6.841l-.717.414a4.995,4.995,0,0,1,0-7.67Z" fill="#464646"/>
    <path id="path850" d="M18.7,34.982l.994-.271.463-2.03.211-1.084.163-1.157L20.7,28.8l.066-1.114.114-2.693.067-.548.1-.675.108-.41.1-.289.175-.355-.175.1L21.032,23l-.181.2-.12.193-.145.3-.108.277-.1.361-.1.452-.072.567-.079.584-.078,1.042-.084,1.078-.079,1.079-.108,1.042-.139,1.09L19.5,32.1l-.127.614-.138.524-.145.506-.175.6Z" fill="#fff"/>
    <path id="path1030" d="M35.7,39.176c0,1.122-4.851,2.031-10.836,2.031S14.027,40.3,14.027,39.176s4.852-2.031,10.836-2.031S35.7,38.054,35.7,39.176Z" fill="#464646"/>
    <path id="path834" d="M34.466,39.274c0,.659-4.343,1.194-9.7,1.194h0c-5.357,0-9.7-.535-9.7-1.194h0c0-.66,4.343-1.2,9.7-1.2h0c5.356,0,9.7.535,9.7,1.2Z" fill="#b7b4b3"/>
    <path id="path818" d="M20.722,45.01a1.743,1.743,0,0,1-.868-.526,1.545,1.545,0,0,1-.437-.822,1.78,1.78,0,0,1,1.363-2.035.358.358,0,0,0,.215-.1c.014-.036.124-.638.244-1.34l.323-2.252c.532-.04.516.025,1.257.025a8.294,8.294,0,0,0-.425,1.659c-.065.374-.176,1.007-.247,1.408l-.129.73.3.258a1.654,1.654,0,0,1,.519,1.9,2.466,2.466,0,0,1-.279.5,2.066,2.066,0,0,1-1.008.6,1.282,1.282,0,0,1-.831,0Z" stroke="#464646" stroke-linejoin="round" stroke-width="0.547" fill="url(#linear-gradient-4)"/>
    <path id="rect932" d="M1.15,38.608H7v1.171H1.15Z" fill="#6e6e6e"/>
    <path id="rect932-2" d="M1.155,30.414H8v1.172H1.155Z" fill="#6e6e6e"/>
    <path id="rect932-2-4" d="M1.171,22.205H15v1.171H1.171Z" fill="#6e6e6e"/>
    <path id="rect932-2-3" d="M35,22.214H46.835v1.171H35Z" fill="#6e6e6e"/>
    <path id="rect932-2-45" d="M39.969,30.4h6.865v1.172H39.969Z" fill="#6e6e6e"/>
    <path id="rect932-2-2" d="M41.78,38.62h5.052v1.171H41.78Z" fill="#6e6e6e"/>
    <path id="rect932-2-2-3" d="M38.648,44v2.8H37.477V44Z" fill="#6e6e6e"/>
    <path id="rect932-2-2-3-7" d="M38.648,15.188V30H37.477V15.188Z" fill="#6e6e6e"/>
    <path id="rect932-2-2-3-5" d="M29.273,15.192V18H28.1V15.192Z" fill="#6e6e6e"/>
    <path id="rect932-2-2-3-9" d="M19.907,15.18V18H18.736V15.18Z" fill="#6e6e6e"/>
    <path id="rect932-2-2-3-0" d="M10.545,15.213V30H9.374V15.213Z" fill="#6e6e6e"/>
    <path id="rect932-2-2-3-5-9" d="M29.261,44v2.823H28.09V44Z" fill="#6e6e6e"/>
    <path id="rect932-2-2-3-5-9-7" d="M19.9,45.521v1.311H18.727V45.521Z" fill="#6e6e6e"/>
    <path id="rect932-2-2-3-5-9-77" d="M10.53,44v2.8H9.359V44Z" fill="#6e6e6e"/>
  </g>
</svg>
