<svg id="Image" xmlns="http://www.w3.org/2000/svg" xmlns:xlink="http://www.w3.org/1999/xlink" viewBox="0 0 48 48">
  <defs>
    <linearGradient id="linear-gradient" x1="2.086" y1="45.414" x2="43.5" y2="4" gradientTransform="matrix(1, 0, 0, -1, 0, 50)" gradientUnits="userSpaceOnUse">
      <stop offset="0" stop-color="#fff"/>
      <stop offset="0.221" stop-color="#fbfbfc"/>
      <stop offset="0.541" stop-color="#ececec"/>
      <stop offset="0.92" stop-color="#d0cecd"/>
      <stop offset="1" stop-color="#c9c6c5"/>
    </linearGradient>
    <linearGradient id="linear-gradient-2" x1="12.563" y1="18.29" x2="35.437" y2="18.29" gradientTransform="matrix(1, 0, 0, -1, 0, 48.724)" gradientUnits="userSpaceOnUse">
      <stop offset="0" stop-color="#73b4c8"/>
      <stop offset="0.175" stop-color="#6caec3"/>
      <stop offset="0.457" stop-color="#549eb4"/>
      <stop offset="0.809" stop-color="#2f84a0"/>
      <stop offset="1" stop-color="#197492"/>
    </linearGradient>
    <linearGradient id="linear-gradient-3" x1="16.703" y1="32.095" x2="34.688" y2="32.095" gradientTransform="matrix(1, 0, 0, -1, 0, 48.724)" gradientUnits="userSpaceOnUse">
      <stop offset="0" stop-color="#fff"/>
      <stop offset="0.232" stop-color="#fbfbfb"/>
      <stop offset="0.496" stop-color="#eeeded"/>
      <stop offset="0.775" stop-color="#d6d7d7"/>
      <stop offset="1" stop-color="#bebdbe"/>
    </linearGradient>
  </defs>
  <g>
    <g id="Folder">
      <path d="M1.5,43h45V10h-27L16.094,4.891A2,2,0,0,0,14.43,4H3.5a2,2,0,0,0-2,2Z" fill="url(#linear-gradient)"/>
      <path d="M47,43.5H1V6A2.5,2.5,0,0,1,3.5,3.5H14.43a2.493,2.493,0,0,1,2.08,1.114L19.768,9.5H47Zm-45-1H46v-32H19.232L15.678,5.168A1.5,1.5,0,0,0,14.43,4.5H3.5A1.5,1.5,0,0,0,2,6Z" fill="#4e4a48"/>
    </g>
    <polygon points="32.383 31.01 32.383 33.08 12.563 26.674 12.563 28.139 22.337 31.29 22.337 33.35 12.575 30.201 12.575 39.167 35.437 39.167 35.437 21.702 32.383 21.702 32.383 29.553 22.337 26.31 22.337 27.791 32.383 31.01" stroke="#474647" stroke-miterlimit="10" fill="url(#linear-gradient-2)"/>
    <path d="M32.376,16.356a4.129,4.129,0,0,0-.282-1.774,2.763,2.763,0,0,0-2.223-1.535A2.817,2.817,0,0,0,27.265,14.1a2,2,0,0,1-2.374.18,2.442,2.442,0,0,0-2.95.089c-1.113.918-1.5.218-2.605-.028a2.123,2.123,0,1,0,.152,4.079c.958-.422,1.341-1.035,2.528-.067a2.342,2.342,0,0,0,3.183-.32,1.555,1.555,0,0,1,2.309-.035,2.485,2.485,0,0,0,2.07.828,3.1,3.1,0,0,0,1.867-.715,2.316,2.316,0,0,1,2,2.132h1.239A4.962,4.962,0,0,0,32.376,16.356Z" stroke="#474647" stroke-miterlimit="10" fill="url(#linear-gradient-3)"/>
  </g>
</svg>
