<svg id="Image" xmlns="http://www.w3.org/2000/svg" xmlns:xlink="http://www.w3.org/1999/xlink" viewBox="0 0 48 48">
  <defs>
    <linearGradient id="Siemens_-_Light_gray" data-name="Siemens - Light gray" x1="7.106" y1="15.731" x2="24.743" y2="33.368" gradientUnits="userSpaceOnUse">
      <stop offset="0" stop-color="#fff"/>
      <stop offset="1" stop-color="#dcdcdc"/>
    </linearGradient>
    <linearGradient id="New_Gradient_Swatch_1" data-name="New Gradient Swatch 1" x1="36.168" y1="29.918" x2="42.769" y2="23.317" gradientTransform="matrix(1, 0, 0, -1, 0, 50)" gradientUnits="userSpaceOnUse">
      <stop offset="0" stop-color="#7eb8cd"/>
      <stop offset="1" stop-color="#097091"/>
    </linearGradient>
  </defs>
  <g>
    <path d="M9,29.481A6.482,6.482,0,1,1,15.482,23,6.489,6.489,0,0,1,9,29.481Zm9.37-1L24,18.088l5.63,10.393Z" fill="url(#Siemens_-_Light_gray)"/>
    <path d="M9,17.037A5.963,5.963,0,1,1,3.037,23,5.97,5.97,0,0,1,9,17.037m15,2.139,4.76,8.787H19.24L24,19.176M9,16a7,7,0,1,0,7,7,7,7,0,0,0-7-7Zm15,1L17.5,29h13L24,17Z" fill="#6f6e6e"/>
  </g>
  <g>
    <polygon points="39.986 17.303 38.744 18.553 42.479 22.263 33.951 22.299 33.951 24.503 42.49 24.467 38.705 28.253 39.952 29.5 46.088 23.363 39.986 17.303" fill="url(#New_Gradient_Swatch_1)"/>
    <path d="M39.952,30.207,38,28.253l3.28-3.28-7.827.033V21.8l7.82-.033-3.234-3.212,1.946-1.96L46.8,23.362Zm-.54-1.954.54.54,5.429-5.428L39.989,18.01l-.538.541,4.236,4.207-9.236.039V24l9.251-.039Z" fill="#177491"/>
  </g>
  <rect x="1" y="10.956" width="46.005" height="2" fill="#177491"/>
  <rect x="1" y="32.962" width="46.005" height="2" fill="#177491"/>
</svg>
