<svg version="1.1" id="Livello_3" xmlns="http://www.w3.org/2000/svg" xmlns:xlink="http://www.w3.org/1999/xlink" x="0px" y="0px"
	  viewBox="0 0 48 48" enable-background="new 0 0 48 48" xml:space="preserve">
<path id="path1610" fill="none" stroke="#474747" stroke-width="1" d="M9.716,17.592c0.062,3.53,0.122,7.063,1.295,8.904
	s3.456,1.988,5.457-0.798c2.001-2.785,3.74-8.566,5.217-12.407c1.477-3.84,2.701-5.773,4.089-6.561s2.941-0.43,4.2,3.659
	c1.258,4.088,2.225,11.92,3.19,19.749"/>
<linearGradient id="polygon16_1_" gradientUnits="userSpaceOnUse" x1="417.6934" y1="-413.833" x2="387.539" y2="-392.9557" gradientTransform="matrix(0.7209 0 0 -0.8205 -263.1982 -302.1035)">
	<stop  offset="0" style="stop-color:#BFBEBE"/>
	<stop  offset="0.225" style="stop-color:#D7D6D6"/>
	<stop  offset="0.504" style="stop-color:#EDEDED"/>
	<stop  offset="0.768" style="stop-color:#FAFAFA"/>
	<stop  offset="1" style="stop-color:#FFFFFF"/>
</linearGradient>
<path id="polygon16" fill="url(#polygon16_1_)" stroke="#474747" stroke-width="1.3002" stroke-miterlimit="10" d="M30.122,37.098
	l-11.999-4.406v12.542h28.101l0.015-24.591h-3.754L42.47,31.784l-13.908-5.308v2.073l13.908,5.273v2.896l-24.361-8.962v2.05
	l12.014,4.407V37.098z"/>
<path id="path1614"  fill="#474747" stroke="#6F6F6F" stroke-width="0.0189" d="M6.257,2.767
	c-0.276,0-0.499,0.258-0.499,0.58v4.34c0,0.028,0.01,0.053,0.013,0.08H2.225c-0.256,0-0.463,0.207-0.463,0.463v0.074
	c0,0.256,0.207,0.463,0.463,0.463h0.571l0.002,0.004v4.803v0.016h0.008c0.919,2.491,3.759,4.159,6.984,4.159
	c3.228-0.004,6.08-1.662,6.991-4.159V8.771V8.767h0.5c0.256,0,0.462-0.207,0.462-0.463V8.229c0-0.256-0.206-0.463-0.462-0.463
	h-3.547c0.003-0.027,0.014-0.052,0.014-0.08v-4.34c0-0.322-0.223-0.58-0.5-0.58c-0.276,0-0.499,0.258-0.499,0.58v4.34
	c0,0.028,0.011,0.053,0.014,0.08H6.742c0.004-0.027,0.014-0.052,0.014-0.08v-4.34C6.756,3.024,6.533,2.767,6.257,2.767z"/>
<linearGradient id="path1614-9_1_" gradientUnits="userSpaceOnUse" x1="211.1641" y1="-235.0347" x2="220.1641" y2="-235.0347" gradientTransform="matrix(1.3297 0 0 -1.3635 -276.9668 -307.7217)">
	<stop  offset="0" style="stop-color:#74B5C8"/>
	<stop  offset="0.175" style="stop-color:#6BAEC3"/>
	<stop  offset="0.457" style="stop-color:#539EB5"/>
	<stop  offset="0.809" style="stop-color:#2F849F"/>
	<stop  offset="1" style="stop-color:#187491"/>
</linearGradient>
<path id="path1614-9"  fill="url(#path1614-9_1_)" d="M3.815,8.738
	l-0.019,4.776c0.805,2.255,3.254,3.232,5.993,3.233c2.736-0.004,5.188-0.964,5.992-3.216v0.011V8.737L3.815,8.738z"/>
</svg>
