<svg id="Layer_1" data-name="Layer 1" xmlns="http://www.w3.org/2000/svg" xmlns:xlink="http://www.w3.org/1999/xlink" viewBox="0 0 48 48">
  <defs>
    <linearGradient id="linear-gradient" x1="4.5" y1="43.5" x2="43.5" y2="4.5" gradientTransform="matrix(1.205, 0, 0, -1.205, -4.921, 52.921)" gradientUnits="userSpaceOnUse">
      <stop offset="0" stop-color="#fff"/>
      <stop offset="0.228" stop-color="#fafafa"/>
      <stop offset="0.488" stop-color="#ededed"/>
      <stop offset="0.762" stop-color="#d7d6d6"/>
      <stop offset="1" stop-color="#bdbcbc"/>
    </linearGradient>
    <linearGradient id="linear-gradient-2" x1="-60.708" y1="29.495" x2="-4.593" y2="-0.193" gradientTransform="matrix(0.765, 0, 0, -1.042, 41.284, 27.669)" gradientUnits="userSpaceOnUse">
      <stop offset="0" stop-color="#73b4c8"/>
      <stop offset="0.175" stop-color="#6aaec3"/>
      <stop offset="0.457" stop-color="#529eb5"/>
      <stop offset="0.809" stop-color="#2c839f"/>
      <stop offset="1" stop-color="#147391"/>
    </linearGradient>
    <linearGradient id="linear-gradient-3" x1="-57.514" y1="35.534" x2="-1.399" y2="5.846" xlink:href="#linear-gradient-2"/>
    <linearGradient id="linear-gradient-4" x1="-54.064" y1="42.055" x2="2.051" y2="12.367" xlink:href="#linear-gradient-2"/>
    <linearGradient id="linear-gradient-5" x1="-46.616" y1="19.96" x2="-30.473" y2="19.96" gradientTransform="matrix(1.022, 0, 0, -1.062, 76.258, 57.411)" xlink:href="#linear-gradient-2"/>
    <linearGradient id="linear-gradient-6" x1="27.48" y1="21.174" x2="44.59" y2="21.174" gradientTransform="matrix(1, 0, 0, -1, 0.753, 47.402)" xlink:href="#linear-gradient-2"/>
  </defs>
  <g id="g941">
    <path id="rect13" d="M.5.5h47v47H.5Z" stroke="#464646" stroke-linecap="round" stroke-miterlimit="10"  fill="url(#linear-gradient)"/>
    <g id="text1338-4">
      <path id="path920" d="M20.21,19.437H16.255l-3.737-6.819-.756,1.247v5.572H8.537V2.4h3.225v7.711L16.23,2.4h3.737l-4.888,7.883Z" stroke="#464646" stroke-width="0.769"  fill="url(#linear-gradient-2)"/>
      <path id="path922" d="M32.126,7.779a8.629,8.629,0,0,1-.294,2.242,5.5,5.5,0,0,1-.839,1.831,5.349,5.349,0,0,1-1.672,1.521,4.6,4.6,0,0,1-2.284.515H25.03v5.549H21.806V2.4h5.307a6.126,6.126,0,0,1,2.007.286,4.13,4.13,0,0,1,1.453.835,4.282,4.282,0,0,1,1.15,1.728A7.07,7.07,0,0,1,32.126,7.779Zm-3.334.1a2.513,2.513,0,0,0-.285-1.235,1.748,1.748,0,0,0-.664-.733,2.271,2.271,0,0,0-.982-.3q-.479-.034-1.276-.034H25.03v5.1h.924a5.543,5.543,0,0,0,1.352-.137,1.75,1.75,0,0,0,.9-.549,2.206,2.206,0,0,0,.445-.87A4.73,4.73,0,0,0,28.792,7.882Z" stroke="#464646" stroke-width="0.769"  fill="url(#linear-gradient-3)"/>
      <path id="path924" d="M41.162,19.437H33.839v-3.02h2.049V5.422H33.839V2.4h7.323v3.02H39.113v11h2.049Z" stroke="#464646" stroke-width="0.769"  fill="url(#linear-gradient-4)"/>
    </g>
    <g id="g2594">
      <path id="polyline62-3-2-6-7-2" d="M3.147,44.273,11,31l5.688,2.276,8.208-9.62" fill="none" stroke="#464646" stroke-width="2.8"/>
      <path id="path911-5-9-4-2-4" d="M26.848,21.144l-.424,3.388-.518,3.379-2.9-1.928-2.841-2,3.322-1.459Z" fill="#464646" stroke="#464646" stroke-linecap="round" stroke-width="0.019"/>
      <path id="path911-5-9-45-3" d="M26.237,21.959l-.318,2.518-.389,2.511-2.177-1.433-2.134-1.487,2.495-1.085Z"  fill="#3e90aa"/>
      <path id="polyline62-3-2-7-8" d="M3.42,43.769,11,31l5.688,2.276,7.976-9.26" fill="none" stroke="#3e90aa" stroke-width="1.6"/>
    </g>
    <path id="path915-2-2" d="M34.8,41.264l.141-2.976-2.967-5.241a60.955,60.955,0,0,0-3.356-5.253.909.909,0,0,1,.538,0,28.1,28.1,0,0,0,4.727.8c1.251.091,5,.077,6.26-.025a26.53,26.53,0,0,0,4.973-.914l-.008.117.006-.074c-.049.076-1.6,2.583-3.322,5.314a34.027,34.027,0,0,0-2.707,5.45l.03.454.013,1.891-.2,1.718-2.075,1.339a10.31,10.31,0,0,1-1.875.934c-.011,0-.1-1.388-.1-3.189Z"  fill="url(#linear-gradient-5)"/>
    <path id="path933-3-6" d="M34.753,28.4c-2.868-.263-5.265-1.015-6.348-1.993a.8.8,0,0,1-.173-.187,4.76,4.76,0,0,1,1.574-1.034A17.279,17.279,0,0,1,36.8,24.014a18.643,18.643,0,0,1,6.629.927c1.06.4,1.988,1.115,1.912,1.326a3.671,3.671,0,0,1-1.086.78A13.969,13.969,0,0,1,39.773,28.3,39.176,39.176,0,0,1,34.753,28.4Z"  fill="url(#linear-gradient-6)"/>
    <path id="path2-8" d="M45.944,26.219c0-1.968-4.756-2.812-9.179-2.812s-9.179.844-9.179,2.812a1.084,1.084,0,0,0,.167.563l6.509,11.153v7.5a.389.389,0,0,0,.25.375c0,.094.083.094.167.094a.285.285,0,0,0,.25-.094L39.1,43a.39.39,0,0,0,.167-.374V37.935l6.509-11.153A1.084,1.084,0,0,0,45.944,26.219Zm-9.179-1.874c5.424,0,8.345,1.218,8.345,1.874s-2.921,1.875-8.345,1.875-8.345-1.219-8.345-1.875S31.341,24.345,36.765,24.345ZM38.517,37.56a.374.374,0,0,0-.083.281v4.5L35.1,44.59V37.841a.374.374,0,0,0-.083-.281L29.422,28a23.947,23.947,0,0,0,7.343,1.031A23.566,23.566,0,0,0,44.108,28Z"  fill="#464646"/>
  </g>
</svg>
