<svg id="Image" xmlns="http://www.w3.org/2000/svg" xmlns:xlink="http://www.w3.org/1999/xlink" viewBox="0 0 48 48">
  <defs>
    <linearGradient id="Siemens_-_Mid_gray" data-name="Siemens - Mid gray" x1="7.527" y1="4.827" x2="34.816" y2="32.116" gradientUnits="userSpaceOnUse">
      <stop offset="0" stop-color="#fff"/>
      <stop offset="1" stop-color="#bebdbd"/>
    </linearGradient>
    <linearGradient id="New_Gradient_Swatch_1" data-name="New Gradient Swatch 1" x1="14.843" y1="30.577" x2="35.159" y2="50.894" gradientUnits="userSpaceOnUse">
      <stop offset="0" stop-color="#73b4c8"/>
      <stop offset="1" stop-color="#177492"/>
    </linearGradient>
    <linearGradient id="New_Gradient_Swatch_1-2" x1="6.104" y1="6.25" x2="14.663" y2="14.809" xlink:href="#New_Gradient_Swatch_1"/>
    <linearGradient id="linear-gradient" x1="29.364" y1="6.933" x2="36.558" y2="14.127" xlink:href="#New_Gradient_Swatch_1"/>
    <linearGradient id="Siemens_-_Mid_gray-2" x1="36.778" y1="9.257" x2="42.327" y2="14.806" xlink:href="#Siemens_-_Mid_gray"/>
    <linearGradient id="Siemens_-_Mid_gray-3" x1="37.044" y1="6.453" x2="42.061" y2="11.469" xlink:href="#Siemens_-_Mid_gray"/>
    <linearGradient id="linear-gradient-2" x1="27.872" y1="22.128" x2="44.128" y2="5.872" gradientTransform="matrix(1, 0, 0, -1, 0, 50)" gradientUnits="userSpaceOnUse">
      <stop offset="0" stop-color="#7fb8cd"/>
      <stop offset="0.175" stop-color="#72b0c8"/>
      <stop offset="0.457" stop-color="#559eb8"/>
      <stop offset="0.809" stop-color="#2982a1"/>
      <stop offset="1" stop-color="#0e7191"/>
    </linearGradient>
  </defs>
  <g>
    <g>
      <path d="M19.281,36.788,7.082,15.605l-.1-.064a5.935,5.935,0,0,1-.526-.406l-.092-.082c-.168-.154-.283-.266-.394-.385l-.145-.157c-.107-.123-.208-.25-.306-.382l-.111-.148a6,6,0,0,1-.356-.572,6.07,6.07,0,0,1-.283-.607l-.046-.127c-.078-.216-.128-.367-.171-.523L4.5,11.925c-.038-.158-.066-.317-.092-.478l-.032-.21a6.141,6.141,0,0,1-.045-.707,6.062,6.062,0,0,1,6.055-6.055,6.328,6.328,0,0,1,.746.05l.147.023a6.022,6.022,0,0,1,.6.122l.183.046a6.044,6.044,0,0,1,1.341.572l.106.064a6.1,6.1,0,0,1,1.667,1.49,6.167,6.167,0,0,1,.444.661l.146.249H30.659v5.555H16.613L30.145,36.788Z" fill="url(#Siemens_-_Mid_gray)"/>
      <path d="M7.475,43.525V38.7a1.821,1.821,0,0,1,1.82-1.82H40.707a1.821,1.821,0,0,1,1.82,1.82v4.827Z" fill="url(#New_Gradient_Swatch_1)"/>
      <path d="M10.384,16.584a6.055,6.055,0,1,1,6.054-6.054A6.061,6.061,0,0,1,10.384,16.584Zm0-9.286a3.232,3.232,0,1,0,3.231,3.232A3.236,3.236,0,0,0,10.384,7.3Z" fill="url(#New_Gradient_Swatch_1-2)"/>
      <rect x="30.729" y="5.567" width="4.463" height="9.925" fill="url(#linear-gradient)"/>
      <polygon points="35.2 12.695 35.2 10.834 40.201 13.562 42.671 12.209 44.714 12.176 43.541 13.592 40.199 15.422 35.2 12.695" fill="url(#Siemens_-_Mid_gray-2)"/>
      <g>
        <polygon points="35.2 8.297 40.199 5.57 43.541 7.4 44.714 8.816 42.671 8.783 40.201 7.43 35.2 10.158 35.2 8.297" fill="url(#Siemens_-_Mid_gray-3)"/>
        <g>
          <path d="M14.115,10.53a3.731,3.731,0,1,0-3.731,3.731A3.736,3.736,0,0,0,14.115,10.53Zm-6.462,0a2.731,2.731,0,1,1,2.731,2.731A2.731,2.731,0,0,1,7.653,10.53Z" fill="#464646"/>
          <path d="M40.2,12.992l-4.508-2.459v-.074L40.2,8l2.339,1.281,3.253.052L43.866,7.008,40.2,5,35.692,7.459V5.067H30.23V7.252H16.055A6.591,6.591,0,0,0,14.4,5.357l-.044-.032h0a6.565,6.565,0,0,0-.586-.4h0l-.115-.07h0a6.477,6.477,0,0,0-1.45-.619h0c-.065-.019-.132-.034-.2-.051h0a6.535,6.535,0,0,0-1.618-.21h0A6.555,6.555,0,0,0,3.829,10.53v0a6.6,6.6,0,0,0,.181,1.5h0c.013.054.028.107.042.16q.08.3.188.6c.023.065.045.13.071.194h0a6.588,6.588,0,0,0,.3.654h0a6.577,6.577,0,0,0,.838,1.2h0l.055.06a6.544,6.544,0,0,0,1.2,1.055L18.468,36.378H9.3a2.32,2.32,0,0,0-2.32,2.32v5.327H43.027V38.7a2.32,2.32,0,0,0-2.32-2.32H30.485L17.478,13.807H30.23v2.185h5.462V13.533L40.2,15.992l3.666-2.008,1.926-2.325-3.253.052Zm-4.5-4.4L40.2,6.14l3.019,1.653.418.506L42.8,8.285,40.68,7.123,40.2,6.86l-.48.262L35.7,9.315Zm6.327,30.1v4.327H7.975V38.7a1.321,1.321,0,0,1,1.32-1.32H40.707A1.321,1.321,0,0,1,42.027,38.7ZM6.8,14.769c-.059-.05-.115-.1-.172-.156-.094-.087-.185-.176-.273-.268-.057-.06-.113-.121-.167-.184-.084-.1-.163-.2-.24-.3-.046-.062-.095-.123-.139-.187-.076-.109-.134-.209-.194-.31s-.124-.213-.181-.323c-.065-.129-.129-.26-.193-.417-.027-.065-.049-.132-.073-.2-.049-.134-.094-.27-.132-.408-.02-.07-.038-.14-.054-.211-.034-.143-.061-.288-.083-.435l-.014-.089c-.006-.036-.013-.071-.017-.108a5.691,5.691,0,0,1-.041-.643v0a5.561,5.561,0,0,1,5.555-5.555c.142,0,.282.011.421.021.085.007.168.014.262.026.046,0,.09.013.135.02l.057.009q.255.04.5.1l.033.008c.046.012.093.023.138.036a5.534,5.534,0,0,1,1.21.515c.045.025.088.053.131.08.157.1.309.2.454.308.031.024.064.047.1.072a5.607,5.607,0,0,1,.97.987l.027.035a5.541,5.541,0,0,1,.358.535c.014.025.03.048.044.073l.061.105a5.547,5.547,0,0,1-8.133,7.126C7.036,14.954,6.925,14.873,6.8,14.769ZM29.279,36.288H19.57L8.315,16.746a6.536,6.536,0,0,0,7.873-3.175l.424.735Zm.881-23.481H16.524a6.457,6.457,0,0,0,0-4.555H30.16Zm4.532,2.185H31.23V6.067h3.462Zm8.944-2.3-.418.506L40.2,14.853,35.7,12.4v-.722l4.021,2.193.48.262.479-.263L42.8,12.707Z" fill="#464646"/>
        </g>
      </g>
    </g>
    <g>
      <g>
        <circle cx="36" cy="36" r="11.5" fill="url(#linear-gradient-2)"/>
        <path d="M36,25A11,11,0,1,1,25,36,11.013,11.013,0,0,1,36,25m0-1A12,12,0,1,0,48,36,12,12,0,0,0,36,24Z" fill="#4e4a48"/>
      </g>
      <g>
        <path d="M29.324,42.7a4.625,4.625,0,0,0,3.264,1.32h0a4.628,4.628,0,0,0,3.266-1.32l1.954-1.954a1.477,1.477,0,0,0,.413-1.2c1.154-.326,1.873-1.052,3.289-2.5.33-.338.692-.709,1.117-1.134a4.621,4.621,0,0,0-6.443-6.625l-.087.086-1.933,1.933a1.476,1.476,0,0,0-.412,1.207,4.518,4.518,0,0,0-1.959,1.174l-2.469,2.473A4.632,4.632,0,0,0,29.324,42.7Zm6.02-7.123a1.514,1.514,0,0,0-.107-.227,1.618,1.618,0,0,1,1.388,1.216,1.267,1.267,0,0,0,.055.132A1.589,1.589,0,0,1,35.344,35.577Zm4.017-4.528A1.6,1.6,0,0,1,40.5,33.79c-.436.436-.809.817-1.144,1.161l-.093.094a4.571,4.571,0,0,0-2.314-2.278L38.22,31.5A1.614,1.614,0,0,1,39.361,31.049Zm-7.913,7.236,1.248-1.25A4.607,4.607,0,0,0,35,39.314l-1.262,1.262a1.617,1.617,0,0,1-2.282-2.291Z" fill="#177491"/>
        <path d="M35.058,33.3a3.653,3.653,0,0,1,3.544,2.79.5.5,0,1,1-.975.224,2.642,2.642,0,0,0-2.57-2.01,2.527,2.527,0,0,0-1.822.771l-2.469,2.474a2.627,2.627,0,0,0,0,3.706,2.672,2.672,0,0,0,3.7,0L36.422,39.3a.5.5,0,1,1,.705.711l-1.955,1.955a3.693,3.693,0,0,1-5.112,0,3.632,3.632,0,0,1,0-5.124l2.468-2.474A3.51,3.51,0,0,1,35.058,33.3Z" fill="#fff"/>
        <path d="M39.388,28.993a3.627,3.627,0,0,1,2.557,6.186c-.431.431-.8.807-1.122,1.139-1.632,1.668-2.121,2.17-3.381,2.353a3.593,3.593,0,0,1-4-2.571.5.5,0,0,1,.956-.293l0,.017a2.606,2.606,0,0,0,2.9,1.855c.9-.13,1.222-.439,2.8-2.055.333-.341.7-.72,1.136-1.153a2.629,2.629,0,0,0,0-3.706,2.674,2.674,0,0,0-3.7,0L35.6,32.7a.5.5,0,0,1-.7-.706l1.93-1.938A3.591,3.591,0,0,1,39.388,28.993Z" fill="#fff"/>
      </g>
    </g>
  </g>
</svg>
