<svg id="Layer_1" data-name="Layer 1" xmlns="http://www.w3.org/2000/svg" xmlns:xlink="http://www.w3.org/1999/xlink" viewBox="0 0 48 48">
  <defs>
    <linearGradient id="linear-gradient" x1="2.088" y1="42.912" x2="43.5" y2="1.5" gradientTransform="matrix(1, 0, 0, -1, 0, 48)" gradientUnits="userSpaceOnUse">
      <stop offset="0" stop-color="#fff"/>
      <stop offset="0.221" stop-color="#f8f8f8"/>
      <stop offset="0.541" stop-color="#e5e5e5"/>
      <stop offset="0.92" stop-color="#c6c6c6"/>
      <stop offset="1" stop-color="#bebebe"/>
    </linearGradient>
    <linearGradient id="linear-gradient-2" x1="6.331" y1="42.186" x2="45.538" y2="1.973" gradientTransform="matrix(0.636, 0, 0, -0.634, 8.287, 40.415)" gradientUnits="userSpaceOnUse">
      <stop offset="0" stop-color="#a5cfdc"/>
      <stop offset="0.128" stop-color="#9cc9d7"/>
      <stop offset="0.335" stop-color="#84bacb"/>
      <stop offset="0.596" stop-color="#5ea2b7"/>
      <stop offset="0.896" stop-color="#28809b"/>
      <stop offset="1" stop-color="#147391"/>
    </linearGradient>
  </defs>
  <g id="g896">
    <path id="path13" d="M1.5,43.5h45v-33h-27L16.1,5.4a1.965,1.965,0,0,0-1.7-.9H3.5a2.006,2.006,0,0,0-2,2Z" stroke="#464646" stroke-miterlimit="10" fill="url(#linear-gradient)"/>
    <path id="path15" d="M25.146,14.094A12.685,12.685,0,1,0,37.87,26.779,12.742,12.742,0,0,0,25.146,14.094Z" fill="url(#linear-gradient-2)"/>
    <path id="path32" d="M25,14.357A12.657,12.657,0,1,0,37.7,27.013,12.713,12.713,0,0,0,25,14.357Z" fill="none" stroke="#464646" stroke-miterlimit="10"/>
    <path id="rect967" d="M12.854,26.774h24.5v.056h-24.5Z" fill="none" stroke="#464646" stroke-linecap="round" stroke-width="0.944"/>
    <path id="rect967-8" d="M14.58,20.139H35.357V20.2H14.58Z" fill="none" stroke="#464646" stroke-linecap="round" stroke-width="0.935"/>
    <path id="rect967-8-4" d="M14.768,33.4H35.286v.065H14.768Z" fill="none" stroke="#464646" stroke-linecap="round" stroke-width="0.934"/>
    <path id="path999" d="M30.868,27.014c0,6.993-2.623,12.661-5.858,12.661h0c-3.236,0-5.859-5.668-5.859-12.661h0c0-6.992,2.623-12.661,5.859-12.661h0c3.235,0,5.858,5.669,5.858,12.661Z" fill="none" stroke="#464646" stroke-linecap="round"/>
  </g>
</svg>
