<svg id="Livello_3" data-name="Livello 3" xmlns="http://www.w3.org/2000/svg" xmlns:xlink="http://www.w3.org/1999/xlink" viewBox="0 0 48 48">
  <defs>
    <linearGradient id="linear-gradient" x1="339.864" y1="-405.046" x2="370.866" y2="-436.047" gradientTransform="matrix(0.777, 0, 0, -0.885, -240.976, -347.925)" gradientUnits="userSpaceOnUse">
      <stop offset="0" stop-color="#fff"/>
      <stop offset="0.232" stop-color="#fafafa"/>
      <stop offset="0.496" stop-color="#ededed"/>
      <stop offset="0.775" stop-color="#d7d6d6"/>
      <stop offset="1" stop-color="#bfbebe"/>
    </linearGradient>
    <linearGradient id="linear-gradient-2" x1="358.864" y1="-403.046" x2="368.864" y2="-413.046" gradientTransform="matrix(0.777, 0, 0, -0.885, -240.976, -347.925)" gradientUnits="userSpaceOnUse">
      <stop offset="0" stop-color="#fff"/>
      <stop offset="0.221" stop-color="#f7f8f8"/>
      <stop offset="0.541" stop-color="#e5e5e5"/>
      <stop offset="0.92" stop-color="#c7c6c6"/>
      <stop offset="1" stop-color="#bfbebe"/>
    </linearGradient>
    <linearGradient id="linear-gradient-3" x1="339.864" y1="-405.046" x2="370.866" y2="-436.047" gradientTransform="matrix(0.777, 0, 0, -0.885, -266.976, -347.925)" xlink:href="#linear-gradient"/>
    <linearGradient id="linear-gradient-4" x1="358.864" y1="-403.046" x2="368.864" y2="-413.046" gradientTransform="matrix(0.777, 0, 0, -0.885, -266.976, -347.925)" xlink:href="#linear-gradient-2"/>
  </defs>
  <g id="g884">
    <path id="polygon58-6" d="M47.486,37.486V15.364l-7.767-8.85H26.514V37.486Z" stroke="#464646" stroke-miterlimit="10" stroke-width="1.027" fill="url(#linear-gradient)"/>
    <path id="polygon60-0" d="M39.718,15.364h7.768l-7.768-8.85Z" stroke="#464646" stroke-linejoin="round" stroke-width="1.027" fill="url(#linear-gradient-2)"/>
    <path id="rect957-66" d="M30.02,19H43.98a.02.02,0,0,1,.02.02v.96a.02.02,0,0,1-.02.02H30.02a.02.02,0,0,1-.02-.02v-.96A.02.02,0,0,1,30.02,19Z" fill="#147391"/>
    <path id="rect957-6-0" d="M30.02,23H43.98a.02.02,0,0,1,.02.02v.96a.02.02,0,0,1-.02.02H30.02a.02.02,0,0,1-.02-.02v-.96A.02.02,0,0,1,30.02,23Z" fill="#147391"/>
    <path id="rect957-6-9-8" d="M36.248,27H43.98a.02.02,0,0,1,.02.02v.96a.02.02,0,0,1-.02.02H36.248a.02.02,0,0,1-.02-.02v-.96A.02.02,0,0,1,36.248,27Z" fill="#147391"/>
    <path id="polygon58" d="M21.486,37.486V15.364l-7.767-8.85H.514V37.486Z" stroke="#464646" stroke-miterlimit="10" stroke-width="1.027" fill="url(#linear-gradient-3)"/>
    <path id="polygon60" d="M13.718,15.364h7.768l-7.768-8.85Z" stroke="#464646" stroke-linejoin="round" stroke-width="1.027" fill="url(#linear-gradient-4)"/>
    <path id="rect957" d="M4.02,19H17.98a.02.02,0,0,1,.02.02v.96a.02.02,0,0,1-.02.02H4.02A.02.02,0,0,1,4,19.98v-.96A.02.02,0,0,1,4.02,19Z" fill="#147391"/>
    <path id="rect957-6" d="M4.02,23H17.98a.02.02,0,0,1,.02.02v.96a.02.02,0,0,1-.02.02H4.02A.02.02,0,0,1,4,23.98v-.96A.02.02,0,0,1,4.02,23Z" fill="#147391"/>
    <path id="rect957-6-9" d="M4.02,27H17.98a.02.02,0,0,1,.02.02v.96a.02.02,0,0,1-.02.02H4.02A.02.02,0,0,1,4,27.98v-.96A.02.02,0,0,1,4.02,27Z" fill="#147391"/>
    <path id="path4" d="M31.8,27.9,35,31H22.7v1H35l-3.2,3.1.8.9,4-4a.828.828,0,0,0,0-1l-4-4Z" fill="#464646"/>
    <path id="rect886" d="M13.016,31H23.481v1H13.016Z" fill="#464646"/>
  </g>
</svg>
