<svg id="Livello_2" data-name="Livello 2" xmlns="http://www.w3.org/2000/svg" xmlns:xlink="http://www.w3.org/1999/xlink" viewBox="0 0 48 48">
  <defs>
    <linearGradient id="linear-gradient" x1="5.132" y1="31.516" x2="42.26" y2="1.88" gradientTransform="translate(0 2)" gradientUnits="userSpaceOnUse">
      <stop offset="0" stop-color="#fff"/>
      <stop offset="0.221" stop-color="#fbfbfc"/>
      <stop offset="0.541" stop-color="#ececec"/>
      <stop offset="0.92" stop-color="#d0cecd"/>
      <stop offset="1" stop-color="#c9c6c5"/>
    </linearGradient>
    <linearGradient id="linear-gradient-2" x1="33.852" y1="27.865" x2="45.813" y2="8.966" xlink:href="#linear-gradient"/>
  </defs>
  <g id="g987">
    <path id="rect1040" d="M5.455,6.675h37.26V30.1H5.455Z" stroke="#177491" stroke-linejoin="round" stroke-width="1.183" fill="url(#linear-gradient)"/>
    <path id="path1065-6-3" d="M26.4,19.77a1.007,1.007,0,0,1-1,1.015h0a1.007,1.007,0,0,1-1-1.015h0a1.007,1.007,0,0,1,1-1.014h0a1.007,1.007,0,0,1,1,1.014Z" fill="#177491"/>
    <path id="rect1105-9-2-1" d="M24.829,17.77V11.313h1V17.77Z" fill="#177491"/>
    <path id="rect1105-9-2-1-8" d="M23.212,18.9,19.22,13.821l.786-.618L24,18.279Z" fill="#177491"/>
    <path id="rect1105-9-2-1-88" d="M16.378,20.833l6.383-.978.152.989-6.384.977Z" fill="#177491"/>
    <path id="rect1105-9-2-1-88-2" d="M27.61,20.233l6.383.978.151-.988-6.383-.978Z" fill="#177491"/>
    <path id="rect1105-9-2-1-8-6" d="M28.086,18.211l3.993-5.076-.786-.618L27.3,17.593Z" fill="#177491"/>
    <path id="rect1105-9-2-1-8-6-2" d="M20.463,27.346l3.992-5.076-.786-.618-3.992,5.076Z" fill="#177491"/>
    <path id="path1083" d="M32.5,40.1a16.028,16.028,0,0,0-2.2-3.391c-.05-.017-.779.74-1.969,1.831l-2.285,2.42-.034-.356c-.048-.5.279-16.108.358-17.047l.218-1.075,3.327,3.245c1.606,1.588,4.668,4.637,6.805,6.774l4.343,4.14-4.121-.05c-2.1-.027-3.816-.035-3.816-.018s.526.868,1.292,2.263c2.256,4.1,2.621,4.91,2.532,4.991a12.1,12.1,0,0,1-2.278.548c-.193,0-.482-.5-2.276-3.97Z" fill="url(#linear-gradient-2)"/>
    <path id="path819" d="M33.236,44.425c-.494-.934-1.781-3.447-2.49-4.865l-.7-1.409-.2.223c-.433.477-1.836,2.184-3.25,3.955l-1.48,1.852-.011-.4c-.01-.354.465-23.116.493-23.581l.01-.187,8.76,8.794c4.817,4.836,8.749,8.8,8.737,8.816s-1.836,0-4.052-.035-4.039-.047-4.05-.036.794,1.519,1.79,3.351,1.8,3.334,1.778,3.34c-.053.016-4.936.683-5,.683a1.9,1.9,0,0,1-.326-.5Zm2.129-1.135c.523-.068.973-.138,1-.154s-.651-1.314-1.749-3.335c-.989-1.819-1.848-3.4-1.911-3.5l-.114-.2,1.292.029c.711.016,2.33.043,3.6.059l2.3.03-6.416-6.45c-3.529-3.547-6.429-6.438-6.443-6.423-.029.028-.4,16.708-.373,16.762.009.019.278-.333.648-.738,1.443-1.578,2.09-2.3,2.544-2.8.293-.322.239-.249.7-.7.265.574.7,1.405.979,1.942,1.321,2.556,2.854,5.642,2.926,5.623.037-.009.495-.074,1.018-.143Z" fill="#464646"/>
  </g>
</svg>
