<svg id="Image" xmlns="http://www.w3.org/2000/svg" xmlns:xlink="http://www.w3.org/1999/xlink" viewBox="0 0 48 48">
  <defs>
    <linearGradient id="Siemens_-_Light_gray" data-name="Siemens - Light gray" x1="24.784" y1="10.939" x2="40.771" y2="26.926" gradientUnits="userSpaceOnUse">
      <stop offset="0" stop-color="#fff"/>
      <stop offset="1" stop-color="#dcdcdc"/>
    </linearGradient>
    <linearGradient id="New_Gradient_Swatch_1" data-name="New Gradient Swatch 1" x1="42.314" y1="16.819" x2="46.606" y2="21.112" gradientUnits="userSpaceOnUse">
      <stop offset="0" stop-color="#7eb8cd"/>
      <stop offset="1" stop-color="#097091"/>
    </linearGradient>
    <linearGradient id="New_Gradient_Swatch_1-2" x1="36.467" y1="26.922" x2="40.759" y2="31.214" xlink:href="#New_Gradient_Swatch_1"/>
    <linearGradient id="New_Gradient_Swatch_1-3" x1="36.467" y1="6.651" x2="40.759" y2="10.943" xlink:href="#New_Gradient_Swatch_1"/>
    <linearGradient id="New_Gradient_Swatch_1-4" x1="24.788" y1="6.651" x2="29.08" y2="10.943" xlink:href="#New_Gradient_Swatch_1"/>
    <linearGradient id="Siemens_-_Light_gray-2" x1="7.245" y1="21.074" x2="23.232" y2="37.061" xlink:href="#Siemens_-_Light_gray"/>
    <linearGradient id="New_Gradient_Swatch_1-5" x1="1.389" y1="26.955" x2="5.681" y2="31.247" xlink:href="#New_Gradient_Swatch_1"/>
    <linearGradient id="New_Gradient_Swatch_1-6" x1="24.774" y1="26.955" x2="29.066" y2="31.247" xlink:href="#New_Gradient_Swatch_1"/>
    <linearGradient id="New_Gradient_Swatch_1-7" x1="18.928" y1="37.057" x2="23.22" y2="41.349" xlink:href="#New_Gradient_Swatch_1"/>
    <linearGradient id="New_Gradient_Swatch_1-8" x1="7.249" y1="37.057" x2="11.541" y2="41.349" xlink:href="#New_Gradient_Swatch_1"/>
    <linearGradient id="New_Gradient_Swatch_1-9" x1="18.928" y1="16.786" x2="23.22" y2="21.078" xlink:href="#New_Gradient_Swatch_1"/>
    <linearGradient id="New_Gradient_Swatch_1-10" x1="7.249" y1="16.786" x2="11.541" y2="21.078" xlink:href="#New_Gradient_Swatch_1"/>
  </defs>
  <g>
    <g>
      <polygon points="38.629 8.797 26.926 8.797 21.074 18.932 26.926 29.068 38.629 29.068 44.481 18.932 38.629 8.797" stroke="#177491" stroke-linejoin="round" fill="url(#Siemens_-_Light_gray)"/>
      <g>
        <path d="M44.46,22a3.035,3.035,0,1,1,2.146-.889A3.015,3.015,0,0,1,44.46,22Z" fill="url(#New_Gradient_Swatch_1)"/>
        <path d="M44.46,16.43a2.535,2.535,0,1,1-1.793.743,2.516,2.516,0,0,1,1.793-.743m0-1a3.537,3.537,0,1,0,2.5,1.036,3.525,3.525,0,0,0-2.5-1.036Z" fill="#4e4a48"/>
      </g>
      <g>
        <path d="M38.613,32.1a3.035,3.035,0,1,1,2.146-.889A3.015,3.015,0,0,1,38.613,32.1Z" fill="url(#New_Gradient_Swatch_1-2)"/>
        <path d="M38.613,26.533a2.535,2.535,0,1,1-1.792.742,2.519,2.519,0,0,1,1.792-.742m0-1a3.534,3.534,0,1,0,2.5,1.035,3.52,3.52,0,0,0-2.5-1.035Z" fill="#4e4a48"/>
      </g>
      <g>
        <path d="M38.613,11.832a3.035,3.035,0,1,1,2.146-.889A3.017,3.017,0,0,1,38.613,11.832Z" fill="url(#New_Gradient_Swatch_1-3)"/>
        <path d="M38.613,6.262A2.535,2.535,0,1,1,36.821,7a2.523,2.523,0,0,1,1.792-.742m0-1a3.534,3.534,0,1,0,2.5,1.035,3.524,3.524,0,0,0-2.5-1.035Z" fill="#4e4a48"/>
      </g>
      <g>
        <path d="M26.935,11.832a3.035,3.035,0,1,1,2.145-.889A3.017,3.017,0,0,1,26.935,11.832Z" fill="url(#New_Gradient_Swatch_1-4)"/>
        <path d="M26.934,6.262A2.535,2.535,0,1,1,25.142,7a2.523,2.523,0,0,1,1.792-.742m0-1a3.534,3.534,0,1,0,2.5,1.035,3.524,3.524,0,0,0-2.5-1.035Z" fill="#4e4a48"/>
      </g>
    </g>
    <g>
      <polygon points="21.09 18.932 9.387 18.932 3.535 29.068 9.387 39.203 21.09 39.203 26.942 29.068 21.09 18.932" stroke="#177491" stroke-linejoin="round" fill="url(#Siemens_-_Light_gray-2)"/>
      <g>
        <path d="M3.535,32.136a3.035,3.035,0,1,1,2.146-.889A3.015,3.015,0,0,1,3.535,32.136Z" fill="url(#New_Gradient_Swatch_1-5)"/>
        <path d="M3.535,26.566a2.533,2.533,0,1,1-1.793.742,2.519,2.519,0,0,1,1.793-.742m0-1a3.534,3.534,0,1,0,2.5,1.035,3.524,3.524,0,0,0-2.5-1.035Z" fill="#4e4a48"/>
      </g>
      <g>
        <path d="M26.921,32.136a3.037,3.037,0,1,1,2.145-.889A3.017,3.017,0,0,1,26.921,32.136Z" fill="url(#New_Gradient_Swatch_1-6)"/>
        <path d="M26.921,26.566a2.533,2.533,0,1,1-1.793.742,2.521,2.521,0,0,1,1.793-.742m0-1a3.535,3.535,0,1,0,2.5,1.035,3.524,3.524,0,0,0-2.5-1.035Z" fill="#4e4a48"/>
      </g>
      <g>
        <path d="M21.074,42.238a3.035,3.035,0,1,1,2.146-.889A3.011,3.011,0,0,1,21.074,42.238Z" fill="url(#New_Gradient_Swatch_1-7)"/>
        <path d="M21.074,36.668a2.537,2.537,0,1,1-1.792.743,2.52,2.52,0,0,1,1.792-.743m0-1a3.534,3.534,0,1,0,2.5,1.035,3.528,3.528,0,0,0-2.5-1.035Z" fill="#4e4a48"/>
      </g>
      <g>
        <path d="M9.4,42.238a3.035,3.035,0,1,1,2.145-.889A3.012,3.012,0,0,1,9.4,42.238Z" fill="url(#New_Gradient_Swatch_1-8)"/>
        <path d="M9.4,36.668a2.537,2.537,0,1,1-1.792.743A2.52,2.52,0,0,1,9.4,36.668m0-1A3.534,3.534,0,1,0,11.9,36.7a3.528,3.528,0,0,0-2.5-1.035Z" fill="#4e4a48"/>
      </g>
      <g>
        <path d="M21.074,21.967a3.034,3.034,0,1,1,2.146-.888A3.014,3.014,0,0,1,21.074,21.967Z" fill="url(#New_Gradient_Swatch_1-9)"/>
        <path d="M21.074,16.4a2.537,2.537,0,1,1-1.792.743,2.52,2.52,0,0,1,1.792-.743m0-1a3.535,3.535,0,1,0,2.5,1.036,3.525,3.525,0,0,0-2.5-1.036Z" fill="#4e4a48"/>
      </g>
      <g>
        <path d="M9.4,21.967a3.034,3.034,0,1,1,2.145-.888A3.015,3.015,0,0,1,9.4,21.967Z" fill="url(#New_Gradient_Swatch_1-10)"/>
        <path d="M9.4,16.4A2.537,2.537,0,1,1,7.6,17.14,2.52,2.52,0,0,1,9.4,16.4m0-1a3.535,3.535,0,1,0,2.5,1.036A3.525,3.525,0,0,0,9.4,15.4Z" fill="#4e4a48"/>
      </g>
    </g>
  </g>
</svg>
