<svg id="Image" xmlns="http://www.w3.org/2000/svg" xmlns:xlink="http://www.w3.org/1999/xlink" viewBox="0 0 48 48">
  <defs>
    <linearGradient id="Sfumatura_senza_nome_9" data-name="Sfumatura senza nome 9" x1="19.856" y1="16.175" x2="28.717" y2="46.043" gradientUnits="userSpaceOnUse">
      <stop offset="0" stop-color="#cde6eb"/>
      <stop offset="1" stop-color="#8cc3d2"/>
    </linearGradient>
    <linearGradient id="Sfumatura_senza_nome_17" data-name="Sfumatura senza nome 17" x1="17.098" y1="-3.269" x2="30.902" y2="43.269" gradientUnits="userSpaceOnUse">
      <stop offset="0" stop-color="#fff"/>
      <stop offset="1" stop-color="#dcdcdc"/>
    </linearGradient>
  </defs>
  <g>
    <path d="M35.228,25.529l.225.414a26.3,26.3,0,0,1,2.911,8.387c1.018,6.417-1.262,7.116-1.262,7.116L28.705,46a2.052,2.052,0,0,1-1.806.074l-1.191-.526a40.809,40.809,0,0,1-11.222-7.375l-1.1-1.018a2.57,2.57,0,1,1,2.789-4.317l2.4,1.395-6.748-12.44a2.57,2.57,0,0,1,4.517-2.451l5.392,9.942a2.275,2.275,0,0,1,4-2.17l.452.834A2.275,2.275,0,0,1,30.2,25.8s1.111,2.177,1.194,2.2l-.23-.425A2.282,2.282,0,0,1,32.6,24.282,2.376,2.376,0,0,1,35.228,25.529ZM31.391,28" fill="url(#Sfumatura_senza_nome_9)"/>
    <path d="M27.726,46.878a2.67,2.67,0,0,1-1.083-.227l-1.19-.525a41.335,41.335,0,0,1-11.4-7.489l-1.063-.984a3.2,3.2,0,0,1,3.523-5.346l.428.25L11.271,22.094A3.2,3.2,0,0,1,16.9,19.041l4.25,7.835a2.9,2.9,0,0,1,3.414-1.462,2.955,2.955,0,0,1,.912.455,2.909,2.909,0,0,1,5.088-.679,2.917,2.917,0,0,1,1.876-1.519,3.022,3.022,0,0,1,3.346,1.558l.225.414a26.868,26.868,0,0,1,2.979,8.588c1.007,6.345-1.12,7.588-1.625,7.79l-8.357,4.535A2.7,2.7,0,0,1,27.726,46.878ZM14.784,33.061a1.938,1.938,0,0,0-1.056,3.563.689.689,0,0,1,.085.066l1.1,1.019A40.085,40.085,0,0,0,25.963,44.97l1.19.525a1.405,1.405,0,0,0,1.251-.051l8.4-4.554a.631.631,0,0,1,.116-.049h0c-.006,0,1.715-.8.823-6.412A25.575,25.575,0,0,0,34.9,26.244l-.224-.414a1.744,1.744,0,0,0-1.911-.937,1.649,1.649,0,0,0-1.045,2.38l.23.424a.632.632,0,0,1-.738.907c-.3-.091-.342-.1-1.574-2.52a1.643,1.643,0,0,0-3.012.331,1.6,1.6,0,0,0,.12,1.231h0a.632.632,0,0,1-1.111.6l-.452-.833a1.643,1.643,0,0,0-2.891,1.563l0,0a.632.632,0,1,1-1.111.6l0-.006-5.39-9.935a1.937,1.937,0,0,0-3.405,1.847l6.747,12.441a.631.631,0,0,1-.873.846l-2.4-1.394A1.97,1.97,0,0,0,14.784,33.061Z" fill="#177491"/>
  </g>
  <path d="M12.091,33.26a3.2,3.2,0,0,1,4.426-.953l.428.25L11.271,22.094A3.2,3.2,0,0,1,16.9,19.041l4.25,7.835a2.9,2.9,0,0,1,3.414-1.462,2.955,2.955,0,0,1,.912.455,2.909,2.909,0,0,1,5.088-.679,2.918,2.918,0,0,1,1.875-1.519,3.019,3.019,0,0,1,3.347,1.558l.225.414a26.868,26.868,0,0,1,2.979,8.588A17.759,17.759,0,0,1,39.233,38H45a1,1,0,0,0,1-1V3a1,1,0,0,0-1-1H3A1,1,0,0,0,2,3V37a1,1,0,0,0,1,1H13.369l-.375-.347A3.2,3.2,0,0,1,12.091,33.26Z" fill="url(#Sfumatura_senza_nome_17)"/>
  <path d="M45,1H3A2,2,0,0,0,1,3V37a2,2,0,0,0,2,2H14.466c-.136-.122-.275-.239-.409-.363L13.369,38H3a1,1,0,0,1-1-1V9H46V37a1,1,0,0,1-1,1H39.233a9.778,9.778,0,0,1-.107,1H45a2,2,0,0,0,2-2V3A2,2,0,0,0,45,1ZM2,8V3A1,1,0,0,1,3,2H45a1,1,0,0,1,1,1V8Z" fill="#464646"/>
  <circle cx="6" cy="5" r="1" fill="#464646"/>
  <circle cx="10" cy="5" r="1" fill="#464646"/>
  <circle cx="14" cy="5" r="1" fill="#464646"/>
</svg>
