<svg id="svg53" xmlns="http://www.w3.org/2000/svg" xmlns:xlink="http://www.w3.org/1999/xlink" viewBox="0 0 48 48">
  <defs>
    <linearGradient id="linear-gradient" x1="9.056" y1="24.656" x2="38.944" y2="24.656" gradientTransform="matrix(1, 0, 0, -1, -8.556, 47.966)" gradientUnits="userSpaceOnUse">
      <stop offset="0" stop-color="#73b4c8"/>
      <stop offset="0.175" stop-color="#6caec3"/>
      <stop offset="0.457" stop-color="#549eb4"/>
      <stop offset="0.809" stop-color="#2f84a0"/>
      <stop offset="1" stop-color="#197492"/>
    </linearGradient>
    <linearGradient id="linear-gradient-2" x1="14.475" y1="42.695" x2="37.975" y2="42.695" gradientTransform="matrix(1, 0, 0, -1, -8.556, 47.966)" gradientUnits="userSpaceOnUse">
      <stop offset="0" stop-color="#fff"/>
      <stop offset="0.232" stop-color="#fbfbfb"/>
      <stop offset="0.496" stop-color="#eeeded"/>
      <stop offset="0.775" stop-color="#d6d7d7"/>
      <stop offset="1" stop-color="#bebdbe"/>
    </linearGradient>
  </defs>
  <g id="g851">
    <path id="polygon38" d="M.516,34.721H30.388V11.9H26.4V22.159L13.271,17.921v1.936L26.4,24.064v2.7L.5,18.4v1.915l12.771,4.116v2.693L.516,23.006Z" fill="url(#linear-gradient)"/>
    <path id="path40" d="M30.888,35.221H.016v-12.9l12.755,4.115V24.792L0,20.676V17.71l25.9,8.37V24.429L12.771,20.222V17.234L25.9,21.472V11.4h4.991Zm-29.872-1H29.888V12.4H26.9V22.846L13.771,18.608v.884L26.9,23.7v3.756L1,19.084v.862l12.771,4.116v3.744L1.016,23.693Z" fill="#474647"/>
    <path id="path44" d="M26.388,4.915A5.382,5.382,0,0,0,26.02,2.6,3.61,3.61,0,0,0,23.115.592a3.678,3.678,0,0,0-3.4,1.369,2.623,2.623,0,0,1-3.1.235,3.188,3.188,0,0,0-3.854.117c-1.455,1.2-1.955.285-3.4-.037a2.775,2.775,0,1,0,.2,5.33c1.251-.552,1.751-1.353,3.3-.087a3.062,3.062,0,0,0,4.16-.419,2.034,2.034,0,0,1,2.869-.191h0c.052.046.1.094.148.144a3.249,3.249,0,0,0,2.7,1.083A4.057,4.057,0,0,0,25.182,7.2c1.333,0,2.353,1.286,2.618,2.786h1.619A6.484,6.484,0,0,0,26.388,4.915Z" fill="url(#linear-gradient-2)"/>
    <path id="path46" d="M29.9,10.489H27.37l-.07-.414c-.2-1.125-.934-2.265-1.974-2.366a4.554,4.554,0,0,1-2.6.928,3.728,3.728,0,0,1-3.053-1.232,1.742,1.742,0,0,0-1.3-.494,1.307,1.307,0,0,0-.966.5,3.565,3.565,0,0,1-4.87.5c-.981-.8-1.3-.625-2.071-.2-.216.119-.45.245-.714.362a3.106,3.106,0,0,1-2.8-.328A3.268,3.268,0,0,1,5.406,5.009a3.139,3.139,0,0,1,1.172-2.54A3.507,3.507,0,0,1,9.453,1.8a6.3,6.3,0,0,1,1.127.379,1.387,1.387,0,0,0,1.851-.24,3.682,3.682,0,0,1,4.442-.153,2.133,2.133,0,0,0,2.471-.164A4.166,4.166,0,0,1,23.175.1a4.088,4.088,0,0,1,3.307,2.311A5.726,5.726,0,0,1,26.9,4.632,7.023,7.023,0,0,1,29.909,10Zm-1.7-1h.687a6.143,6.143,0,0,0-2.728-4.134l-.279-.15.016-.316A4.886,4.886,0,0,0,25.56,2.8a3.119,3.119,0,0,0-2.508-1.712,3.186,3.186,0,0,0-2.978,1.217,3.11,3.11,0,0,1-3.729.317,2.722,2.722,0,0,0-3.269.074,2.352,2.352,0,0,1-2.876.4,5.629,5.629,0,0,0-.96-.327A2.523,2.523,0,0,0,7.2,3.25,2.164,2.164,0,0,0,6.4,5,2.281,2.281,0,0,0,7.48,6.9a2.151,2.151,0,0,0,1.862.255c.217-.1.43-.205.636-.323.865-.474,1.681-.92,3.184.307a2.581,2.581,0,0,0,3.458-.349,2.285,2.285,0,0,1,1.679-.87,2.7,2.7,0,0,1,2.074.785,2.761,2.761,0,0,0,2.361.939h.036a3.62,3.62,0,0,0,2.1-.838L25,6.7h.165a3.353,3.353,0,0,1,3.027,2.789Z" fill="#474647"/>
    <path id="path43-2" d="M39.337,44.147l2.618-2.618L39.7,41.4A6.237,6.237,0,0,1,33.6,35.3l-.168-11.208h2.812L36.415,35.3A3.378,3.378,0,0,0,39.7,38.583l2.259.135L39.337,36.1l1.988-1.988,6.012,6.011-6.012,6.012Z" fill="#3c91af"/>
    <path id="path45-8" d="M35.812,24.341l.1,11.029a3.793,3.793,0,0,0,3.749,3.749l3.425.067L40,36.1l1.325-1.326,5.35,5.349-5.35,5.35L40,44.147l3.087-3.086-3.425-.068a5.669,5.669,0,0,1-5.624-5.623l-.1-11.029h1.875m.937-.938H33v.938l.1,11.029a6.735,6.735,0,0,0,6.561,6.561L40.824,42l-1.487,1.487-.662.662.662.663,1.326,1.325.662.663.663-.663,5.349-5.349L48,40.123l-.663-.662-5.349-5.349-.663-.663-.662.663-1.326,1.325-.662.663.662.662,1.487,1.487-1.162-.068A2.875,2.875,0,0,1,36.85,35.37l-.1-11.029Z" fill="#147391"/>
  </g>
</svg>
