<svg id="Layer_1" data-name="Layer 1" xmlns="http://www.w3.org/2000/svg" xmlns:xlink="http://www.w3.org/1999/xlink" viewBox="0 0 48 48">
  <defs>
    <linearGradient id="linear-gradient" x1="5.611" y1="13.377" x2="15.518" y2="3.52" gradientTransform="matrix(1, 0, 0, -1, 0, 48)" gradientUnits="userSpaceOnUse">
      <stop offset="0" stop-color="#73b4c8"/>
      <stop offset="0.175" stop-color="#6aaec3"/>
      <stop offset="0.457" stop-color="#529eb5"/>
      <stop offset="0.809" stop-color="#2c839f"/>
      <stop offset="1" stop-color="#147391"/>
    </linearGradient>
    <linearGradient id="linear-gradient-2" x1="17.109" y1="17.615" x2="29.816" y2="5.417" gradientTransform="matrix(1, 0, 0, -1, 0, 48)" gradientUnits="userSpaceOnUse">
      <stop offset="0" stop-color="#fff"/>
      <stop offset="0.221" stop-color="#f8f8f8"/>
      <stop offset="0.541" stop-color="#e5e5e5"/>
      <stop offset="0.92" stop-color="#c6c6c6"/>
      <stop offset="1" stop-color="#bebebe"/>
    </linearGradient>
    <linearGradient id="linear-gradient-3" x1="37.27" y1="13.829" x2="47.591" y2="3.134" xlink:href="#linear-gradient"/>
    <linearGradient id="linear-gradient-4" x1="3.742" y1="45.39" x2="22.689" y2="30.212" xlink:href="#linear-gradient-2"/>
  </defs>
  <g id="g895">
    <path id="rect890" d="M1.775,30h12.45a.774.774,0,0,1,.775.775v12.45a.774.774,0,0,1-.775.775H1.775A.774.774,0,0,1,1,43.225V30.775A.774.774,0,0,1,1.775,30Z" fill="#147391"/>
    <path id="rect890-0" d="M2.664,31H13.336a.662.662,0,0,1,.664.664V42.336a.662.662,0,0,1-.664.664H2.664A.662.662,0,0,1,2,42.336V31.664A.662.662,0,0,1,2.664,31Z" fill="url(#linear-gradient)"/>
    <path id="rect890-4" d="M17.775,30h12.45a.774.774,0,0,1,.775.775v12.45a.774.774,0,0,1-.775.775H17.775A.774.774,0,0,1,17,43.225V30.775A.774.774,0,0,1,17.775,30Z" fill="#147391"/>
    <path id="rect890-0-5" d="M18.664,31H29.336a.662.662,0,0,1,.664.664V42.336a.662.662,0,0,1-.664.664H18.664A.662.662,0,0,1,18,42.336V31.664A.662.662,0,0,1,18.664,31Z" fill="url(#linear-gradient-2)"/>
    <path id="rect890-7" d="M33.775,30h12.45a.774.774,0,0,1,.775.775v12.45a.774.774,0,0,1-.775.775H33.775A.774.774,0,0,1,33,43.225V30.775A.774.774,0,0,1,33.775,30Z" fill="#147391"/>
    <path id="rect890-0-2" d="M34.664,31H45.336a.662.662,0,0,1,.664.664V42.336a.662.662,0,0,1-.664.664H34.664A.662.662,0,0,1,34,42.336V31.664A.662.662,0,0,1,34.664,31Z" fill="url(#linear-gradient-3)"/>
    <path id="path933" d="M23.472,3.983a19.007,19.007,0,0,0-19,19V23l0,.013,0,.039.023.475h3.93L8.4,23l0-.021a15,15,0,0,1,30,.008s-.022-.455-.022-.451l-.006.99h4.073l.025-.473,0-.041v-.025a19.007,19.007,0,0,0-19-19Zm0,1A17.966,17.966,0,0,1,41.425,22.522H39.353a15.959,15.959,0,0,0-31.906,0H5.519A17.966,17.966,0,0,1,23.472,4.983Z" fill="#464646"/>
    <path id="path939" d="M36.813,18.514,33.9,21.254l6.071,6.459,6.453-6.078-2.744-2.912L41.859,20.44l-.158.115-.04.29.019.119-.082.064.027.483.058.143.08.281,1.874-1.8,1.371,1.455-5,4.707-4.7-5,1.459-1.369,2.2,2.3.069-1.489-.057.3,0-.146.051-.02-.049-.05L39,20.348l-.477-.014Z" fill="#464646"/>
    <path id="path966" d="M23.539,4.977a16.209,16.209,0,0,0-5.223.75,16.74,16.74,0,0,0-6.962,3.981c-3.185,3.084-5.816,7.408-5.793,11.98l-.042.834.9.024,1.046-.009.126-1.893c.846-3.162,1.259-5.037,3.256-7.554a26.4,26.4,0,0,1,2.875-2.8,16.041,16.041,0,0,1,19.749.27,19.607,19.607,0,0,1,2.941,3.173,15.585,15.585,0,0,1,2.893,8.023l.038.594-2.577-2.42L35.31,21.3l4.715,5.026,5-4.7-1.389-1.49-1.273,1.215-.939.988-.052-1.1A18.438,18.438,0,0,0,37.786,12.1a22.135,22.135,0,0,0-3.309-3.351A17.729,17.729,0,0,0,23.539,4.977Z" fill="url(#linear-gradient-4)"/>
  </g>
</svg>
