<svg id="Image" xmlns="http://www.w3.org/2000/svg" xmlns:xlink="http://www.w3.org/1999/xlink" viewBox="0 0 48 48">
  <defs>
    <linearGradient id="Siemens_-_Light_blue" data-name="Siemens - Light blue" x1="33.29" y1="109.692" x2="46.081" y2="96.9" gradientTransform="matrix(1, 0, 0, -1, 0, 108)" gradientUnits="userSpaceOnUse">
      <stop offset="0" stop-color="#cde6eb"/>
      <stop offset="1" stop-color="#8cc3d2"/>
    </linearGradient>
    <linearGradient id="Siemens_-_Light_blue-2" x1="29.431" y1="8" x2="42.431" y2="8" gradientTransform="matrix(1, 0, 0, 1, 0, 0)" xlink:href="#Siemens_-_Light_blue"/>
    <linearGradient id="linear-gradient" x1="0.818" y1="1470.962" x2="41.394" y2="1511.538" gradientTransform="translate(0 -1464)" gradientUnits="userSpaceOnUse">
      <stop offset="0" stop-color="#fff"/>
      <stop offset="0.232" stop-color="#fdfdfe"/>
      <stop offset="0.496" stop-color="#f3f3f4"/>
      <stop offset="0.775" stop-color="#dfdede"/>
      <stop offset="1" stop-color="#c9c6c5"/>
    </linearGradient>
    <linearGradient id="linear-gradient-2" x1="26.181" y1="1468.906" x2="39.181" y2="1481.906" gradientTransform="translate(0 -1464)" gradientUnits="userSpaceOnUse">
      <stop offset="0" stop-color="#fff"/>
      <stop offset="0.221" stop-color="#fbfbfc"/>
      <stop offset="0.541" stop-color="#ececec"/>
      <stop offset="0.92" stop-color="#d0cecd"/>
      <stop offset="1" stop-color="#c9c6c5"/>
    </linearGradient>
    <linearGradient id="linear-gradient-3" x1="12.563" y1="13.949" x2="35.437" y2="13.949" gradientTransform="matrix(1, 0, 0, -1, 0, 48.724)" gradientUnits="userSpaceOnUse">
      <stop offset="0" stop-color="#73b4c8"/>
      <stop offset="0.175" stop-color="#6caec3"/>
      <stop offset="0.457" stop-color="#549eb4"/>
      <stop offset="0.809" stop-color="#2f84a0"/>
      <stop offset="1" stop-color="#197492"/>
    </linearGradient>
    <linearGradient id="linear-gradient-4" x1="16.703" y1="27.754" x2="34.688" y2="27.754" gradientTransform="matrix(1, 0, 0, -1, 0, 48.724)" gradientUnits="userSpaceOnUse">
      <stop offset="0" stop-color="#fff"/>
      <stop offset="0.232" stop-color="#fbfbfb"/>
      <stop offset="0.496" stop-color="#eeeded"/>
      <stop offset="0.775" stop-color="#d6d7d7"/>
      <stop offset="1" stop-color="#bebdbe"/>
    </linearGradient>
  </defs>
  <g>
    <g>
      <g id="Layer_3" data-name="Layer 3">
        <polygon points="42.931 14.3 42.931 1.5 30.031 1.5 42.931 14.3" fill="url(#Siemens_-_Light_blue)"/>
        <rect x="29.431" y="1.5" width="13" height="13" stroke="#4e4a48" stroke-miterlimit="10" fill="url(#Siemens_-_Light_blue-2)"/>
      </g>
      <polygon points="29.377 1.5 6.281 1.5 6.281 46.5 42.431 46.5 42.431 14.5 29.377 1.5" stroke="#4e4a48" stroke-miterlimit="10" fill="url(#linear-gradient)"/>
      <polygon points="29.431 1.656 29.431 14.656 42.431 14.656 29.431 1.656" stroke="#4e4a48" stroke-linejoin="round" fill="url(#linear-gradient-2)"/>
    </g>
    <polygon points="32.383 35.351 32.383 37.421 12.563 31.014 12.563 32.48 22.337 35.63 22.337 37.691 12.575 34.542 12.575 43.507 35.437 43.507 35.437 26.042 32.383 26.042 32.383 33.893 22.337 30.65 22.337 32.132 32.383 35.351" stroke="#474647" stroke-miterlimit="10" fill="url(#linear-gradient-3)"/>
    <path d="M32.376,20.7a4.122,4.122,0,0,0-.282-1.773,2.763,2.763,0,0,0-2.223-1.535,2.816,2.816,0,0,0-2.606,1.047,2,2,0,0,1-2.374.18,2.443,2.443,0,0,0-2.95.09c-1.113.918-1.5.218-2.605-.028a2.123,2.123,0,1,0,.152,4.079c.958-.423,1.341-1.036,2.528-.067a2.341,2.341,0,0,0,3.183-.321,1.556,1.556,0,0,1,2.309-.035,2.483,2.483,0,0,0,2.07.829,3.1,3.1,0,0,0,1.867-.716,2.318,2.318,0,0,1,2,2.133h1.239A4.962,4.962,0,0,0,32.376,20.7Z" stroke="#474647" stroke-miterlimit="10" fill="url(#linear-gradient-4)"/>
  </g>
</svg>
