<svg id="Livello_2" data-name="Livello 2" xmlns="http://www.w3.org/2000/svg" xmlns:xlink="http://www.w3.org/1999/xlink" viewBox="0 0 48 48">
  <defs>
    <linearGradient id="linear-gradient" x1="0.054" y1="3.291" x2="45.351" y2="44.849" gradientTransform="translate(0 2)" gradientUnits="userSpaceOnUse">
      <stop offset="0" stop-color="#fff"/>
      <stop offset="0.221" stop-color="#fbfbfc"/>
      <stop offset="0.541" stop-color="#ececec"/>
      <stop offset="0.92" stop-color="#d0cecd"/>
      <stop offset="1" stop-color="#c9c6c5"/>
    </linearGradient>
    <linearGradient id="linear-gradient-2" x1="6.586" y1="30.604" x2="34.654" y2="12.972" xlink:href="#linear-gradient"/>
    <linearGradient id="linear-gradient-3" x1="32.932" y1="26.585" x2="43.932" y2="12.863" xlink:href="#linear-gradient"/>
  </defs>
  <g id="g1019">
    <g id="g39">
      <path id="path35" d="M.522,44.478H47.478V10.043H19.3L15.75,4.712a2.087,2.087,0,0,0-1.736-.929H2.609A2.087,2.087,0,0,0,.522,5.87Z" fill="url(#linear-gradient)"/>
      <path id="path37" d="M48,45H0V5.87A2.609,2.609,0,0,1,2.609,3.261H14.014a2.6,2.6,0,0,1,2.17,1.162l3.4,5.1H48ZM1.043,43.957H46.957V10.565H19.025L15.316,5a1.566,1.566,0,0,0-1.3-.7H2.609A1.566,1.566,0,0,0,1.043,5.87Z" fill="#4e4a48"/>
    </g>
    <path id="rect1040" d="M9.446,13.143H37.554V30.815H9.446Z" stroke="#177491" stroke-linejoin="round" stroke-width="0.892" fill="url(#linear-gradient-2)"/>
    <path id="path1065-6-3" d="M25.249,23.022a.754.754,0,1,1-.754-.765A.76.76,0,0,1,25.249,23.022Z" fill="#177491"/>
    <path id="rect1105-9-2-1" d="M24.062,21.514V16.642h.754v4.872Z" fill="#177491"/>
    <path id="rect1105-9-2-1-8" d="M22.842,22.363,19.83,18.534l.593-.466L23.435,21.9Z" fill="#177491"/>
    <path id="rect1105-9-2-1-88" d="M17.687,23.824l4.815-.738.114.746-4.815.737Z" fill="#177491"/>
    <path id="rect1105-9-2-1-88-2" d="M26.159,23.372l4.816.737.114-.746-4.815-.737Z" fill="#177491"/>
    <path id="rect1105-9-2-1-8-6" d="M26.519,21.846l3.011-3.829-.593-.467-3.011,3.829Z" fill="#177491"/>
    <path id="rect1105-9-2-1-8-6-2" d="M20.768,28.737l3.012-3.829-.593-.466-3.012,3.829Z" fill="#177491"/>
    <path id="path1083" d="M29.847,38.359A12.131,12.131,0,0,0,28.189,35.8c-.038-.013-.588.558-1.486,1.381L24.98,39.007l-.026-.268c-.036-.377.211-12.151.27-12.859l.164-.811,2.51,2.447c1.212,1.2,3.522,3.5,5.134,5.111l3.276,3.123L33.2,35.712c-1.583-.021-2.878-.027-2.878-.013s.4.654.975,1.706c1.7,3.095,1.977,3.7,1.909,3.766a9.173,9.173,0,0,1-1.718.413c-.146,0-.364-.381-1.717-3Z" fill="url(#linear-gradient-3)"/>
    <path id="path819" d="M30.4,41.621c-.373-.705-1.344-2.6-1.879-3.67l-.532-1.063-.153.168c-.327.36-1.385,1.647-2.452,2.984l-1.116,1.4-.01-.3c-.009-.266.351-17.437.373-17.788l.009-.141,6.608,6.634c3.634,3.648,6.6,6.641,6.591,6.65s-1.385,0-3.057-.026-3.047-.036-3.055-.028.6,1.147,1.35,2.528,1.355,2.515,1.341,2.519C34.383,41.5,30.7,42,30.65,42a1.437,1.437,0,0,1-.246-.38Zm1.606-.856c.394-.052.734-.1.753-.116s-.491-.992-1.319-2.517C30.7,36.761,30.049,35.571,30,35.49l-.085-.149.974.022c.536.012,1.757.032,2.713.044l1.738.022L30.5,30.564c-2.662-2.676-4.849-4.856-4.86-4.845s-.3,12.6-.281,12.645c.009.013.209-.252.488-.557,1.089-1.19,1.577-1.734,1.92-2.111.221-.243.18-.188.527-.53.2.433.53,1.06.739,1.464,1,1.929,2.152,4.257,2.207,4.242.027-.009.373-.056.768-.107Z" fill="#464646"/>
  </g>
</svg>
