<svg id="Image" xmlns="http://www.w3.org/2000/svg" xmlns:xlink="http://www.w3.org/1999/xlink" viewBox="0 0 48 48">
  <defs>
    <linearGradient id="linear-gradient" x1="-8.377" y1="22.335" x2="4.276" y2="-11.001" gradientTransform="matrix(0.809, -0.588, -0.57, -0.821, 27.372, 39.431)" gradientUnits="userSpaceOnUse">
      <stop offset="0" stop-color="#fff"/>
      <stop offset="1" stop-color="#dcdcdc"/>
    </linearGradient>
    <linearGradient id="linear-gradient-2" x1="29.969" y1="7.067" x2="17.816" y2="0.874" gradientTransform="translate(0 2)" gradientUnits="userSpaceOnUse">
      <stop offset="0" stop-color="#c9c6c5"/>
      <stop offset="0" stop-color="#cecccc"/>
      <stop offset="0.56" stop-color="#f6f6f7"/>
      <stop offset="0.699" stop-color="#fefefe"/>
      <stop offset="1" stop-color="#fff"/>
    </linearGradient>
    <linearGradient id="linear-gradient-3" x1="11.929" y1="3.742" x2="36.254" y2="33.426" gradientTransform="translate(0 2)" gradientUnits="userSpaceOnUse">
      <stop offset="0" stop-color="#fff"/>
      <stop offset="0.221" stop-color="#fbfbfc"/>
      <stop offset="0.541" stop-color="#ececec"/>
      <stop offset="0.92" stop-color="#d0cecd"/>
      <stop offset="1" stop-color="#c9c6c5"/>
    </linearGradient>
    <linearGradient id="linear-gradient-4" x1="14.239" y1="6.256" x2="33.851" y2="30.801" gradientTransform="translate(0 2)" gradientUnits="userSpaceOnUse">
      <stop offset="0" stop-color="#fff"/>
      <stop offset="0.335" stop-color="#fbfbfc"/>
      <stop offset="0.82" stop-color="#ececec"/>
      <stop offset="1" stop-color="#e4e3e4"/>
    </linearGradient>
    <linearGradient id="linear-gradient-5" x1="15.165" y1="34.213" x2="23.928" y2="21.076" gradientTransform="matrix(1, 0, 0, -1, 0, 48)" xlink:href="#linear-gradient"/>
    <linearGradient id="linear-gradient-6" x1="24.505" y1="32.954" x2="32.999" y2="21.271" gradientTransform="matrix(1, 0, 0, -1, 0, 48)" xlink:href="#linear-gradient"/>
    <linearGradient id="linear-gradient-7" x1="28.027" y1="32.774" x2="44.517" y2="25.42" gradientTransform="matrix(0.879, 0.477, 0.477, -0.879, -13.29, 39.104)" gradientUnits="userSpaceOnUse">
      <stop offset="0" stop-color="#cde6eb"/>
      <stop offset="1" stop-color="#8cc3d2"/>
    </linearGradient>
  </defs>
  <g id="g912">
    <path id="rect864" d="M1.421,37l22.635-9.579,22.523,9.613L24.147,46.579Z" stroke="#464646" stroke-linejoin="round" stroke-width="0.841" fill="url(#linear-gradient)"/>
    <path id="path37" d="M30.139,4.945a1.884,1.884,0,0,0-1.445-.723H27.611V3.861a2.563,2.563,0,0,0-2.528-2.528H22.916a2.562,2.562,0,0,0-2.527,2.528v.361H19.306a1.884,1.884,0,0,0-1.445.723H11V36H37V4.945Z" fill="#4e4a48"/>
    <path id="path39" d="M18.222,7.833H29.778V6.025a1.109,1.109,0,0,0-1.084-1.083H26.886V3.861a1.789,1.789,0,0,0-1.767-1.809h-2.2a1.788,1.788,0,0,0-1.8,1.77V4.945H19.3a1.109,1.109,0,0,0-1.084,1.083Z" fill="url(#linear-gradient-2)"/>
    <path id="circle41" d="M24.722,4.222A.722.722,0,0,1,24,4.944h0a.722.722,0,0,1-.722-.722h0A.722.722,0,0,1,24,3.5h0a.722.722,0,0,1,.722.722Z" fill="#4e4a48"/>
    <path id="path43" d="M30.428,5.667a.655.655,0,0,1,.075.361V8.555h-13V6.028a.655.655,0,0,1,.075-.361H11.722V35.278H36.278V5.667Z" fill="url(#linear-gradient-3)"/>
    <path id="polygon45" d="M13.167,33.833H34.833V7.111H30.5V8.555h-13V7.111H13.167Z" fill="#c9c6c5"/>
    <path id="polygon47" d="M13.889,33.111H34.111V7.833H30.5v.722h-13V7.833H13.889Z" fill="url(#linear-gradient-4)"/>
    <path id="path15" d="M23.925,16.043c0-1.375-5.042-2.184-8.829-2.184V24.742c3.787,0,8.829.808,8.829,2.183Z" fill="url(#linear-gradient-5)"/>
    <path id="path17" d="M23.925,27.13a.2.2,0,0,1-.2-.2h0c0-1.017-4.192-1.979-8.625-1.979a.205.205,0,0,1-.205-.205h0V13.859a.205.205,0,0,1,.205-.205h0c2.83,0,9.034.6,9.034,2.389V26.925a.2.2,0,0,1-.2.2ZM15.3,24.538c2.451.023,7.031.462,8.42,1.642V16.043c0-1-4.064-1.949-8.42-1.978Z" fill="#474647"/>
    <path id="path21" d="M24,16.074c0-1.375,5.043-2.184,8.83-2.184V24.773c-3.787,0-8.83.808-8.83,2.184Z" fill="url(#linear-gradient-6)"/>
    <path id="path23" d="M24,27.163a.2.2,0,0,1-.2-.2V16.074c0-1.787,6.2-2.388,9.035-2.388a.2.2,0,0,1,.2.2V24.773a.2.2,0,0,1-.2.205c-4.434,0-8.625.961-8.625,1.979a.2.2,0,0,1-.2.206ZM32.625,14.1c-4.356.029-8.42.976-8.42,1.978V26.21c1.389-1.179,5.968-1.618,8.42-1.641Z" fill="#474647"/>
    <path id="path29" d="M22.464,17.346a.2.2,0,0,1-.156-.072c-.019-.021-1.27-1.4-5.531-1.4a.2.2,0,0,1,0-.41c4.495,0,5.792,1.479,5.845,1.541a.206.206,0,0,1-.024.289.2.2,0,0,1-.133.048Z" fill="#474647"/>
    <path id="path31" d="M22.464,19.632a.2.2,0,0,1-.156-.072c-.019-.021-1.27-1.4-5.531-1.4a.2.2,0,0,1,0-.41c4.495,0,5.792,1.479,5.845,1.542a.2.2,0,0,1-.025.288h0A.2.2,0,0,1,22.464,19.632Z" fill="#474647"/>
    <path id="path33" d="M22.464,21.919a.2.2,0,0,1-.156-.072c-.019-.021-1.27-1.4-5.531-1.4a.205.205,0,1,1,0-.41c4.495,0,5.792,1.478,5.845,1.541a.2.2,0,0,1-.025.289h0A.207.207,0,0,1,22.464,21.919Z" fill="#474647"/>
    <path id="path35" d="M19.346,22.931a.2.2,0,0,1-.034,0,15.436,15.436,0,0,0-2.54-.192.205.205,0,1,1,0-.41,15.91,15.91,0,0,1,2.606.2.2.2,0,0,1-.033.407Z" fill="#474647"/>
    <path id="path37-4" d="M25.6,17.346a.205.205,0,0,1-.157-.337c.053-.062,1.352-1.541,5.846-1.541a.205.205,0,0,1,0,.41c-4.273,0-5.521,1.382-5.532,1.4A.206.206,0,0,1,25.6,17.346Z" fill="#474647"/>
    <path id="path39-3" d="M25.6,19.631a.2.2,0,0,1-.2-.205.208.208,0,0,1,.047-.131c.053-.062,1.352-1.541,5.846-1.541a.205.205,0,0,1,0,.41c-4.273,0-5.521,1.383-5.532,1.4A.2.2,0,0,1,25.6,19.631Z" fill="#474647"/>
    <path id="path41" d="M25.6,21.919a.2.2,0,0,1-.2-.205.208.208,0,0,1,.047-.131c.053-.063,1.352-1.541,5.846-1.541a.2.2,0,0,1,0,.409c-4.273,0-5.521,1.383-5.532,1.4A.2.2,0,0,1,25.6,21.919Z" fill="#474647"/>
    <path id="path45" d="M33.505,25.814v.168a9.432,9.432,0,0,1-.515,3.137c-.775,2.193-1.613,2.023-1.613,2.023H27.958a.73.73,0,0,1-.581-.287l-.285-.368a14.587,14.587,0,0,1-2.273-4.237l-.173-.508a.92.92,0,1,1,1.615-.882l.517.848V20.643a.92.92,0,0,1,1.84,0v4.049a.815.815,0,0,1,1.629,0v.341a.815.815,0,0,1,1.629.008s-.022.874,0,.9v-.173a.818.818,0,0,1,1.015-.791.852.852,0,0,1,.614.84Z" fill="url(#linear-gradient-7)"/>
    <path id="path47" d="M27.5,31.252A.969.969,0,0,1,27.2,31l-.286-.369a14.753,14.753,0,0,1-2.308-4.3l-.167-.491a1.148,1.148,0,0,1,2.022-1.082l.092.152V20.642a1.147,1.147,0,0,1,2.294,0v3.192a1.043,1.043,0,0,1,1.533.421,1.042,1.042,0,0,1,1.718.656,1.04,1.04,0,0,1,.849-.158,1.081,1.081,0,0,1,.787,1.061v.169a9.616,9.616,0,0,1-.528,3.211c-.766,2.169-1.648,2.2-1.841,2.174h-3.4A.968.968,0,0,1,27.5,31.252Zm-1.713-6.558a.694.694,0,0,0-.943.942.146.146,0,0,1,.016.036l.174.508a14.363,14.363,0,0,0,2.237,4.171l.287.369a.5.5,0,0,0,.4.2h3.42a.22.22,0,0,1,.044,0h0s.676.041,1.352-1.878a9.166,9.166,0,0,0,.5-3.062v-.169a.625.625,0,0,0-.442-.621.592.592,0,0,0-.717.429.564.564,0,0,0-.018.142v.171a.226.226,0,0,1-.387.159c-.082-.082-.09-.09-.065-1.061a.588.588,0,0,0-1.005-.41.573.573,0,0,0-.172.41h0a.226.226,0,1,1-.45.047.185.185,0,0,1,0-.047v-.34a.589.589,0,0,0-1.177,0h0a.226.226,0,0,1-.452,0V20.643a.694.694,0,0,0-1.387,0V25.71a.227.227,0,0,1-.42.117l-.519-.849A.712.712,0,0,0,25.786,24.694Z" fill="#177491"/>
  </g>
</svg>
