<svg id="Layer_1" data-name="Layer 1" xmlns="http://www.w3.org/2000/svg" xmlns:xlink="http://www.w3.org/1999/xlink" viewBox="0 0 48 48">
  <defs>
    <linearGradient id="linear-gradient" x1="-2.33" y1="2.599" x2="32.17" y2="49.099" gradientUnits="userSpaceOnUse">
      <stop offset="0" stop-color="#fff"/>
      <stop offset="0.232" stop-color="#fafafa"/>
      <stop offset="0.496" stop-color="#ededed"/>
      <stop offset="0.775" stop-color="#d6d6d6"/>
      <stop offset="1" stop-color="#bebebe"/>
    </linearGradient>
    <linearGradient id="linear-gradient-2" x1="19.25" y1="3.75" x2="32.25" y2="16.75" gradientUnits="userSpaceOnUse">
      <stop offset="0" stop-color="#fff"/>
      <stop offset="0.221" stop-color="#f8f8f8"/>
      <stop offset="0.541" stop-color="#e5e5e5"/>
      <stop offset="0.92" stop-color="#c6c6c6"/>
      <stop offset="1" stop-color="#bebebe"/>
    </linearGradient>
    <linearGradient id="linear-gradient-3" x1="14.743" y1="13.601" x2="28.529" y2="-0.185" gradientTransform="matrix(1, 0, 0, -1, 0, 48)" gradientUnits="userSpaceOnUse">
      <stop offset="0" stop-color="#74b3c7"/>
      <stop offset="0.177" stop-color="#6badc2"/>
      <stop offset="0.464" stop-color="#539db4"/>
      <stop offset="0.822" stop-color="#2d839d"/>
      <stop offset="1" stop-color="#177490"/>
    </linearGradient>
    <linearGradient id="linear-gradient-4" x1="26.697" y1="36.388" x2="51.338" y2="11.508" xlink:href="#linear-gradient-2"/>
  </defs>
  <g id="g853">
    <path id="polygon35" d="M22.5.5H.5v46h35v-33Z" stroke="#464646" stroke-miterlimit="10" fill="url(#linear-gradient)"/>
    <path id="polygon37" d="M22.5.5v13h13Z" stroke="#464646" stroke-linejoin="round" fill="url(#linear-gradient-2)"/>
    <path id="rect39" d="M5.5,37.5h25v4H5.5Z" fill="none" stroke="#464646" stroke-miterlimit="10"/>
    <path id="rect41" d="M5.5,30.5h25v4H5.5Z" fill="none" stroke="#464646" stroke-miterlimit="10"/>
    <path id="rect43" d="M5.5,23.5h25v4H5.5Z" fill="#3c91af" stroke="#147391" stroke-miterlimit="10"/>
    <path id="rect45" d="M5.5,16.5h25v4H5.5Z" fill="#3c91af" stroke="#147391" stroke-miterlimit="10"/>
    <path id="_Compound_Path_" data-name=" Compound Path " d="M25.672,34.328l-9.586,9.586a2,2,0,0,0,0,2.828h0l.171.171a2,2,0,0,0,2.828,0h0l9.586-9.586" stroke="#464646" stroke-miterlimit="10" fill="url(#linear-gradient-3)"/>
    <path id="circle48" d="M47.5,27.5a12,12,0,0,1-12,12h0a12,12,0,1,1,12-12Z" stroke="#464646" stroke-linecap="round" stroke-linejoin="round" fill="url(#linear-gradient-4)"/>
  </g>
</svg>
