<svg id="Image" xmlns="http://www.w3.org/2000/svg" xmlns:xlink="http://www.w3.org/1999/xlink"  viewBox="0 0 48 48">
  <defs>
    <linearGradient id="linear-gradient" x1="2.086" y1="45.414" x2="43.5" y2="4" gradientTransform="matrix(1, 0, 0, -1, 0, 50)" gradientUnits="userSpaceOnUse">
      <stop offset="0" stop-color="#fff"/>
      <stop offset="0.221" stop-color="#fbfbfc"/>
      <stop offset="0.541" stop-color="#ececec"/>
      <stop offset="0.92" stop-color="#d0cecd"/>
      <stop offset="1" stop-color="#c9c6c5"/>
    </linearGradient>
    <linearGradient id="linear-gradient-2" x1="22.898" y1="30.309" x2="28.266" y2="30.309" gradientTransform="matrix(1, 0, 0, -1, 0, 50)" gradientUnits="userSpaceOnUse">
      <stop offset="0" stop-color="#75b3c8"/>
      <stop offset="0.177" stop-color="#6caec2"/>
      <stop offset="0.464" stop-color="#549db3"/>
      <stop offset="0.822" stop-color="#2f839e"/>
      <stop offset="1" stop-color="#1b7591"/>
    </linearGradient>
    <linearGradient id="linear-gradient-3" x1="24.533" y1="18.609" x2="32.58" y2="18.609" gradientTransform="matrix(1, 0, 0, -1, 0, 50)" gradientUnits="userSpaceOnUse">
      <stop offset="0" stop-color="#cee6eb"/>
      <stop offset="0.221" stop-color="#c6e2e8"/>
      <stop offset="0.542" stop-color="#b3d8e1"/>
      <stop offset="0.921" stop-color="#93c7d4"/>
      <stop offset="1" stop-color="#8dc3d2"/>
    </linearGradient>
    <linearGradient id="linear-gradient-4" x1="29.794" y1="32.174" x2="34.417" y2="27.551" xlink:href="#linear-gradient-3"/>
    <linearGradient id="linear-gradient-5" x1="24.533" y1="24.414" x2="31.495" y2="24.414" xlink:href="#linear-gradient-3"/>
    <linearGradient id="linear-gradient-6" x1="15.759" y1="35.624" x2="25.912" y2="25.472" xlink:href="#linear-gradient-3"/>
    <linearGradient id="linear-gradient-7" x1="8.603" y1="28.469" x2="24.04" y2="13.031" gradientTransform="matrix(1, 0, 0, -1, 0, 50)" gradientUnits="userSpaceOnUse">
      <stop offset="0" stop-color="#afd7e1"/>
      <stop offset="0.159" stop-color="#a5d1dc"/>
      <stop offset="0.706" stop-color="#82bdcf"/>
      <stop offset="1" stop-color="#73b4c8"/>
    </linearGradient>
  </defs>
  <g>
    <g id="Folder">
      <path d="M1.5,43h45V10h-27L16.094,4.891A2,2,0,0,0,14.43,4H3.5a2,2,0,0,0-2,2Z" fill="url(#linear-gradient)"/>
      <path d="M47,43.5H1V6A2.5,2.5,0,0,1,3.5,3.5H14.43a2.493,2.493,0,0,1,2.08,1.114L19.768,9.5H47Zm-45-1H46v-32H19.232L15.678,5.168A1.5,1.5,0,0,0,14.43,4.5H3.5A1.5,1.5,0,0,0,2,6Z" fill="#4e4a48"/>
    </g>
    <g id="Cube">
      <g>
        <polygon points="28.266 16.498 28.266 19.621 27.556 22.883 22.898 20.749 28.266 16.498" fill="url(#linear-gradient-2)"/>
        <path d="M27.557,23.383a.5.5,0,0,1-.208-.045L22.69,21.2a.5.5,0,0,1-.1-.847l5.367-4.251a.5.5,0,0,1,.811.392v3.123a.472.472,0,0,1-.012.106l-.709,3.262a.5.5,0,0,1-.488.394Zm-3.708-2.749L27.2,22.17l.566-2.6V17.532Z" fill="#474647"/>
      </g>
      <polygon points="37.366 19.5 31.495 22.864 31.495 22.864 29.04 30.398 32.58 35.208 37.366 32.5 37.366 19.5" fill="#3f91af"/>
      <g>
        <polygon points="29.04 30.398 32.58 35.208 27.75 32.142 24.533 27.574 29.04 30.398" fill="url(#linear-gradient-3)"/>
        <path d="M32.58,35.708a.494.494,0,0,1-.268-.078l-4.83-3.067a.51.51,0,0,1-.141-.133l-3.217-4.568a.5.5,0,0,1,.675-.712l4.507,2.825a.514.514,0,0,1,.136.127l3.54,4.809a.5.5,0,0,1-.4.8ZM28.1,31.772l2.5,1.584-1.9-2.585-2.321-1.455Z" fill="#197492"/>
      </g>
      <polygon points="32.112 16.498 26.845 20.774 31.495 22.864 37.366 19.5 32.112 16.498" fill="url(#linear-gradient-4)"/>
      <rect x="31.048" y="20.682" width="6.765" height="1.001" transform="translate(-5.975 19.941) rotate(-29.842)" fill="#197492"/>
      <g>
        <polygon points="31.495 22.864 29.04 30.398 24.533 27.574 26.845 20.774 31.495 22.864" fill="url(#linear-gradient-5)"/>
        <path d="M29.04,30.9a.5.5,0,0,1-.266-.076L24.268,28a.5.5,0,0,1-.208-.585l2.312-6.8a.5.5,0,0,1,.679-.295l4.649,2.09a.5.5,0,0,1,.271.611l-2.455,7.535a.5.5,0,0,1-.3.314A.482.482,0,0,1,29.04,30.9ZM25.134,27.36l3.629,2.275,2.118-6.5-3.738-1.68Z" fill="#197492"/>
      </g>
      <path d="M32.58,35.708a.5.5,0,0,1-.268-.078l-4.83-3.067a.51.51,0,0,1-.141-.133l-3.217-4.568a.5.5,0,0,1-.064-.449l2.312-6.8a.5.5,0,0,1,.158-.227L31.8,16.11a.5.5,0,0,1,.563-.046l5.253,3a.5.5,0,0,1,.252.434v13a.5.5,0,0,1-.254.436l-4.785,2.708A.5.5,0,0,1,32.58,35.708ZM28.1,31.772,32.6,34.625l4.27-2.417V19.791l-4.7-2.689-4.889,3.97-2.183,6.422Z" fill="#474647"/>
      <polygon points="28.131 16.498 22.009 13 10.634 19.5 22.009 26 27.556 22.883 22.898 20.749 28.131 16.498" fill="url(#linear-gradient-6)"/>
      <polygon points="10.634 19.5 10.634 32.5 22.009 39 22.009 26 10.634 19.5" fill="url(#linear-gradient-7)"/>
      <polygon points="27.555 22.882 27.555 22.882 22.009 26 22.009 39 28.622 35.221 25.031 30.383 27.555 22.882" fill="#3f91af"/>
      <polygon points="22.008 26.575 10.387 19.935 10.883 19.066 22.012 25.425 27.31 22.447 27.8 23.319 22.008 26.575" fill="#197492"/>
      <rect x="21.51" y="26" width="1" height="13" fill="#197492"/>
      <path d="M22.01,39.5a.5.5,0,0,1-.248-.065l-11.375-6.5a.5.5,0,0,1-.252-.435v-13a.5.5,0,0,1,.252-.434l11.375-6.5a.5.5,0,0,1,.492,0l6.256,3.5a.5.5,0,0,1,.066.828l-4.727,3.744,3.914,1.794a.5.5,0,0,1,.265.614L25.589,30.3l3.434,4.629a.5.5,0,0,1-.153.732l-6.612,3.779A.5.5,0,0,1,22.01,39.5ZM11.135,32.21,22.01,38.424l5.875-3.357L24.63,30.681a.5.5,0,0,1-.072-.457l2.379-7.075L22.69,21.2a.5.5,0,0,1-.1-.847l4.781-3.787-5.356-3L11.135,19.791Z" fill="#474647"/>
    </g>
  </g>
</svg>
