<svg id="Layer_1" data-name="Layer 1" xmlns="http://www.w3.org/2000/svg" xmlns:xlink="http://www.w3.org/1999/xlink" viewBox="0 0 48 48">
  <defs>
    <linearGradient id="linear-gradient" x1="1.5" y1="4.5" x2="34.5" y2="37.5" gradientUnits="userSpaceOnUse">
      <stop offset="0" stop-color="#fff"/>
      <stop offset="0.221" stop-color="#f8f8f8"/>
      <stop offset="0.541" stop-color="#e5e5e5"/>
      <stop offset="0.92" stop-color="#c6c6c6"/>
      <stop offset="1" stop-color="#bebebe"/>
    </linearGradient>
    <linearGradient id="linear-gradient-2" x1="-8.75" y1="9.75" x2="13.75" y2="32.25" gradientUnits="userSpaceOnUse">
      <stop offset="0" stop-color="#f2f2f2"/>
      <stop offset="0.5" stop-color="#ccc"/>
      <stop offset="0.63" stop-color="#c7c7c7"/>
      <stop offset="0.779" stop-color="#b9b9b9"/>
      <stop offset="0.938" stop-color="#a2a2a2"/>
      <stop offset="0.99" stop-color="#999"/>
    </linearGradient>
    <linearGradient id="linear-gradient-3" x1="4.643" y1="47.332" x2="31.143" y2="6.995" gradientTransform="matrix(1, 0, 0, -1, 0, 48)" gradientUnits="userSpaceOnUse">
      <stop offset="0" stop-color="#73b4c8"/>
      <stop offset="0.175" stop-color="#6aaec3"/>
      <stop offset="0.457" stop-color="#529eb5"/>
      <stop offset="0.809" stop-color="#2c839f"/>
      <stop offset="1" stop-color="#147391"/>
    </linearGradient>
    <linearGradient id="linear-gradient-4" x1="21.127" y1="21.163" x2="48.127" y2="48.09" xlink:href="#linear-gradient-2"/>
  </defs>
  <g id="g890">
    <path id="rect26" d="M5,1H31V41H5Z" fill="url(#linear-gradient)"/>
    <path id="rect41" d="M.5.5h4v41H.5Z" stroke="#5a5a5a" stroke-miterlimit="10" fill="url(#linear-gradient-2)"/>
    <path id="polygon49" d="M31.5,41.5H.5V.5h31Z" fill="none" stroke="#464646" stroke-miterlimit="10" stroke-width="0.993"/>
    <path id="polygon13" d="M5,41V1H31V41Z" fill="url(#linear-gradient-3)"/>
    <path id="circle77" d="M47.5,34.5a13,13,0,1,1-13-13A13,13,0,0,1,47.5,34.5Z" stroke="#464646" stroke-linecap="round" stroke-linejoin="round" fill="url(#linear-gradient-4)"/>
    <path id="rect43" d="M9.5,7.5h17v8H9.5Z" fill="#fff" stroke="#5a5a5a"/>
    <path id="line45" d="M21,12.5H11" fill="none" stroke="#5a5a5a"/>
    <path id="line47" d="M24,10.5H11" fill="none" stroke="#5a5a5a"/>
    <g id="g963">
      <path id="path940" d="M42.484,30.717a2.434,2.434,0,1,1-4.864,0h0a2.489,2.489,0,0,1,2.432-2.542h0A2.489,2.489,0,0,1,42.484,30.717Z" fill="#fff"/>
      <path id="path825" d="M40.064,27.353a3.262,3.262,0,0,0-3.209,2.719H25.907v1.087H36.855a3.262,3.262,0,1,0,3.209-3.806Zm-.092,1.09a2.174,2.174,0,0,1,2.264,2.081c0,.031,0,.061,0,.091a2.174,2.174,0,0,1-2.17,2.179h0v0a2.175,2.175,0,0,1-.092-4.347Z" fill="#6e6e6e"/>
    </g>
    <g id="g959">
      <path id="path940-5" d="M31.6,38.177a2.489,2.489,0,0,1-2.432,2.542h0a2.489,2.489,0,0,1-2.433-2.542h0a2.489,2.489,0,0,1,2.433-2.543h0A2.489,2.489,0,0,1,31.6,38.177Z" fill="#fff"/>
      <path id="path825-0" d="M29.176,34.954a3.262,3.262,0,0,1,3.209,2.718H43.333V38.76H32.385a3.262,3.262,0,1,1-3.209-3.806Zm.092,1.089A2.175,2.175,0,0,0,27,38.125c0,.03,0,.061,0,.091a2.174,2.174,0,0,0,2.17,2.179h0v0a2.175,2.175,0,0,0,.092-4.347Z" fill="#6e6e6e"/>
    </g>
  </g>
</svg>
