<svg id="Image" xmlns="http://www.w3.org/2000/svg" xmlns:xlink="http://www.w3.org/1999/xlink" viewBox="0 0 48 48">
  <defs>
    <linearGradient id="linear-gradient" x1="2.086" y1="45.414" x2="43.5" y2="4" gradientTransform="matrix(1, 0, 0, -1, 0, 50)" gradientUnits="userSpaceOnUse">
      <stop offset="0" stop-color="#fff"/>
      <stop offset="0.221" stop-color="#fbfbfc"/>
      <stop offset="0.541" stop-color="#ececec"/>
      <stop offset="0.92" stop-color="#d0cecd"/>
      <stop offset="1" stop-color="#c9c6c5"/>
    </linearGradient>
    <linearGradient id="Siemens_-_Light_blue" data-name="Siemens - Light blue" x1="5.167" y1="16.479" x2="14.083" y2="25.396" gradientUnits="userSpaceOnUse">
      <stop offset="0" stop-color="#cde6eb"/>
      <stop offset="1" stop-color="#8cc3d2"/>
    </linearGradient>
    <linearGradient id="Siemens_-_Light_blue-2" x1="19.583" y1="16.479" x2="28.5" y2="25.396" xlink:href="#Siemens_-_Light_blue"/>
    <linearGradient id="Siemens_-_Light_blue-3" x1="34" y1="16.479" x2="42.917" y2="25.396" xlink:href="#Siemens_-_Light_blue"/>
    <linearGradient id="Siemens_-_Light_blue-4" x1="5.167" y1="28.5" x2="14.083" y2="37.417" xlink:href="#Siemens_-_Light_blue"/>
    <linearGradient id="Siemens_-_Light_blue-5" x1="19.583" y1="28.5" x2="28.5" y2="37.417" xlink:href="#Siemens_-_Light_blue"/>
    <linearGradient id="Siemens_-_Dark_blue" data-name="Siemens - Dark blue" x1="34" y1="28.5" x2="42.917" y2="37.417" gradientUnits="userSpaceOnUse">
      <stop offset="0" stop-color="#73b4c8"/>
      <stop offset="1" stop-color="#177491"/>
    </linearGradient>
  </defs>
  <g>
    <g id="Folder">
      <path d="M1.5,43h45V10h-27L16.094,4.891A2,2,0,0,0,14.43,4H3.5a2,2,0,0,0-2,2Z" fill="url(#linear-gradient)"/>
      <path d="M47,43.5H1V6A2.5,2.5,0,0,1,3.5,3.5H14.43a2.493,2.493,0,0,1,2.08,1.114L19.768,9.5H47Zm-45-1H46v-32H19.232L15.678,5.168A1.5,1.5,0,0,0,14.43,4.5H3.5A1.5,1.5,0,0,0,2,6Z" fill="#4e4a48"/>
    </g>
    <g>
      <rect x="5.167" y="16.479" width="8.917" height="8.917" fill="url(#Siemens_-_Light_blue)"/>
      <path d="M14.583,25.9H4.667V15.979h9.916Zm-8.916-1h7.916V16.979H5.667Z" fill="#3d91af"/>
    </g>
    <g>
      <rect x="19.583" y="16.479" width="8.917" height="8.917" fill="url(#Siemens_-_Light_blue-2)"/>
      <path d="M29,25.9H19.083V15.979H29Zm-8.917-1H28V16.979H20.083Z" fill="#3d91af"/>
    </g>
    <g>
      <rect x="34" y="16.479" width="8.917" height="8.917" fill="url(#Siemens_-_Light_blue-3)"/>
      <path d="M43.417,25.9H33.5V15.979h9.917Zm-8.917-1h7.917V16.979H34.5Z" fill="#3d91af"/>
    </g>
    <g>
      <rect x="5.167" y="28.5" width="8.917" height="8.917" fill="url(#Siemens_-_Light_blue-4)"/>
      <path d="M14.583,37.917H4.667V28h9.916Zm-8.916-1h7.916V29H5.667Z" fill="#3d91af"/>
    </g>
    <g>
      <rect x="19.583" y="28.5" width="8.917" height="8.917" fill="url(#Siemens_-_Light_blue-5)"/>
      <path d="M29,37.917H19.083V28H29Zm-8.917-1H28V29H20.083Z" fill="#3d91af"/>
    </g>
    <g>
      <rect x="34" y="28.5" width="8.917" height="8.917" fill="url(#Siemens_-_Dark_blue)"/>
      <path d="M43.417,37.917H33.5V28h9.917Zm-8.917-1h7.917V29H34.5Z" fill="#177491"/>
    </g>
  </g>
</svg>
