<svg id="Image" xmlns="http://www.w3.org/2000/svg" xmlns:xlink="http://www.w3.org/1999/xlink" viewBox="0 0 48 48">
  <defs>
    <linearGradient id="linear-gradient" x1="1.75" y1="13.25" x2="22.25" y2="33.75" gradientUnits="userSpaceOnUse">
      <stop offset="0" stop-color="#fff"/>
      <stop offset="1" stop-color="#dcdcdc"/>
    </linearGradient>
    <linearGradient id="linear-gradient-2" x1="28.75" y1="14.25" x2="47.25" y2="32.75" xlink:href="#linear-gradient"/>
  </defs>
  <g>
    <rect x="2" y="13" width="20" height="21" fill="url(#linear-gradient)"/>
    <rect x="30" y="13" width="16" height="21" fill="url(#linear-gradient-2)"/>
    <g>
      <path d="M3.405,27.166,5.6,21.44h.817l2.344,5.726H7.9l-.668-1.734H4.839L4.21,27.166Zm1.653-2.351H7l-.6-1.586Q6.128,22.506,6,22.042a7.4,7.4,0,0,1-.308,1.093Z" fill="#177491"/>
      <path d="M9.339,27.166V21.44h2.148a2.659,2.659,0,0,1,1.053.174,1.34,1.34,0,0,1,.621.535,1.41,1.41,0,0,1,.225.756,1.306,1.306,0,0,1-.2.691,1.424,1.424,0,0,1-.6.524,1.5,1.5,0,0,1,.8.519,1.393,1.393,0,0,1,.279.867,1.679,1.679,0,0,1-.17.748,1.445,1.445,0,0,1-.42.533,1.744,1.744,0,0,1-.627.283,3.75,3.75,0,0,1-.924.1Zm.758-3.32h1.238a2.783,2.783,0,0,0,.723-.066.8.8,0,0,0,.435-.285.821.821,0,0,0,.147-.5.921.921,0,0,0-.137-.5.69.69,0,0,0-.391-.3,3.28,3.28,0,0,0-.871-.08H10.1Zm0,2.644h1.425a3.318,3.318,0,0,0,.516-.027,1.234,1.234,0,0,0,.438-.156.832.832,0,0,0,.289-.319,1,1,0,0,0,.113-.482.952.952,0,0,0-.164-.556.866.866,0,0,0-.455-.332,2.821,2.821,0,0,0-.838-.1H10.1Z" fill="#177491"/>
      <path d="M18.792,25.158l.758.192a2.544,2.544,0,0,1-.858,1.423,2.356,2.356,0,0,1-1.513.491,2.716,2.716,0,0,1-1.506-.377A2.355,2.355,0,0,1,14.79,25.8a3.893,3.893,0,0,1-.3-1.535,3.384,3.384,0,0,1,.342-1.56,2.339,2.339,0,0,1,.973-1.012,2.849,2.849,0,0,1,1.388-.346,2.346,2.346,0,0,1,1.446.438,2.266,2.266,0,0,1,.816,1.23l-.746.176a1.77,1.77,0,0,0-.578-.91,1.541,1.541,0,0,0-.953-.285,1.851,1.851,0,0,0-1.1.316,1.669,1.669,0,0,0-.623.85,3.411,3.411,0,0,0-.179,1.1,3.511,3.511,0,0,0,.212,1.275,1.585,1.585,0,0,0,.663.815,1.862,1.862,0,0,0,.972.269,1.627,1.627,0,0,0,1.078-.367A1.88,1.88,0,0,0,18.792,25.158Z" fill="#177491"/>
    </g>
    <g>
      <path d="M34.4,27.166h-.7v-4.48a3.57,3.57,0,0,1-.666.484,4.664,4.664,0,0,1-.74.364v-.68a4.229,4.229,0,0,0,1.031-.672,2.644,2.644,0,0,0,.625-.765H34.4Z" fill="#177491"/>
      <path d="M39.894,26.49v.676H36.108a1.282,1.282,0,0,1,.082-.488,2.6,2.6,0,0,1,.463-.762,7.232,7.232,0,0,1,.92-.867,7.777,7.777,0,0,0,1.262-1.213,1.45,1.45,0,0,0,.328-.845.939.939,0,0,0-.3-.7A1.075,1.075,0,0,0,38.085,22a1.1,1.1,0,0,0-.813.3,1.156,1.156,0,0,0-.308.844l-.723-.074A1.783,1.783,0,0,1,36.8,21.84a1.909,1.909,0,0,1,1.3-.423,1.812,1.812,0,0,1,1.3.457,1.5,1.5,0,0,1,.481,1.132,1.715,1.715,0,0,1-.141.676,2.609,2.609,0,0,1-.467.7,11.3,11.3,0,0,1-1.084,1.008q-.633.531-.812.72a2.351,2.351,0,0,0-.3.381Z" fill="#177491"/>
      <path d="M40.651,25.654l.7-.093a1.552,1.552,0,0,0,.413.861,1.017,1.017,0,0,0,.709.264,1.133,1.133,0,0,0,.837-.344,1.16,1.16,0,0,0,.342-.852,1.077,1.077,0,0,0-.316-.8,1.094,1.094,0,0,0-.8-.315,1.981,1.981,0,0,0-.5.079l.078-.618a.907.907,0,0,0,.113.008,1.448,1.448,0,0,0,.809-.234.8.8,0,0,0,.359-.723.85.85,0,0,0-.261-.64A.928.928,0,0,0,42.46,22a.964.964,0,0,0-.684.257,1.3,1.3,0,0,0-.351.774l-.7-.125a1.807,1.807,0,0,1,.586-1.1,1.691,1.691,0,0,1,1.136-.388,1.863,1.863,0,0,1,.864.2,1.462,1.462,0,0,1,.6.549,1.4,1.4,0,0,1,.209.738,1.211,1.211,0,0,1-.2.676,1.36,1.36,0,0,1-.59.484,1.325,1.325,0,0,1,.789.486,1.477,1.477,0,0,1,.281.924,1.688,1.688,0,0,1-.547,1.271,1.92,1.92,0,0,1-1.382.522,1.8,1.8,0,0,1-1.252-.45A1.734,1.734,0,0,1,40.651,25.654Z" fill="#177491"/>
    </g>
    <polygon points="7 14 7 13 1 13 1 13.5 1 14 1 33 1 34 2 34 7 34 7 33 2 33 2 14 7 14" fill="#464646"/>
    <polygon points="16 14 16 13 22 13 22 13.5 22 14 22 33 22 34 21 34 16 34 16 33 21 33 21 14 16 14" fill="#464646"/>
    <polygon points="36 14 36 13 30 13 30 13.5 30 14 30 33 30 34 31 34 36 34 36 33 31 33 31 14 36 14" fill="#464646"/>
    <polygon points="41 14 41 13 47 13 47 13.5 47 14 47 33 47 34 46 34 41 34 41 33 46 33 46 14 41 14" fill="#464646"/>
    <rect x="23" y="33" width="6" height="1" fill="#464646"/>
  </g>
</svg>
