<svg id="Layer_1" data-name="Layer 1" xmlns="http://www.w3.org/2000/svg" xmlns:xlink="http://www.w3.org/1999/xlink" viewBox="0 0 48 48">
  <defs>
    <linearGradient id="linear-gradient" x1="18.768" y1="22.43" x2="31.017" y2="9.757" gradientTransform="matrix(1.665, 0, 0, -1.676, -14.475, 54.177)" gradientUnits="userSpaceOnUse">
      <stop offset="0" stop-color="#73b4c8"/>
      <stop offset="0.175" stop-color="#6aaec3"/>
      <stop offset="0.457" stop-color="#529eb5"/>
      <stop offset="0.809" stop-color="#2c839f"/>
      <stop offset="1" stop-color="#147391"/>
    </linearGradient>
  </defs>
  <g id="g850">
    <path id="path39" d="M38.321,30.707l3.331,7.208-4,4.024-7.162-3.521a.86.86,0,0,0-1.166.5l-2.664,7.545H21l-2.665-7.377c-.166-.5-.833-.838-1.166-.5l-7.161,3.353-4-4.024,3.5-7.208a.868.868,0,0,0-.5-1.174L1.514,26.851v-5.7l7.5-2.683a.923.923,0,0,0,.5-1.173L6.177,10.086l4-4.024,7.162,3.521a.859.859,0,0,0,1.166-.5l2.665-7.544h5.662L29.494,9.08a.858.858,0,0,0,1.166.5l7.161-3.521,4,4.024-3.5,7.209a.867.867,0,0,0,.5,1.173l7.494,2.683v5.7l-7.494,2.514C38.321,29.7,37.988,30.2,38.321,30.707ZM29.66,24a5.829,5.829,0,1,0-5.829,5.867A5.92,5.92,0,0,0,29.66,24Z" stroke="#464646" stroke-miterlimit="10" fill="url(#linear-gradient)"/>
  </g>
</svg>
