<svg id="Layer_1" data-name="Layer 1" xmlns="http://www.w3.org/2000/svg" xmlns:xlink="http://www.w3.org/1999/xlink" viewBox="0 0 48 48">
  <defs>
    <linearGradient id="linear-gradient" x1="6.433" y1="30.452" x2="34.423" y2="2.462" gradientTransform="matrix(1, 0, 0, -1, 0, 48)" gradientUnits="userSpaceOnUse">
      <stop offset="0" stop-color="#73b4c8"/>
      <stop offset="0.175" stop-color="#6aaec3"/>
      <stop offset="0.457" stop-color="#529eb5"/>
      <stop offset="0.809" stop-color="#2c839f"/>
      <stop offset="1" stop-color="#147391"/>
    </linearGradient>
    <linearGradient id="linear-gradient-2" x1="83.138" y1="9.259" x2="88.17" y2="-4.704" gradientTransform="matrix(0.935, -0.498, -0.48, -0.974, -44.555, 73.011)" xlink:href="#linear-gradient"/>
    <linearGradient id="linear-gradient-3" x1="65.247" y1="25.177" x2="50.615" y2="39.948" gradientTransform="matrix(-1.087, 0, 0, 1.087, 98.424, -0.475)" gradientUnits="userSpaceOnUse">
      <stop offset="0" stop-color="#fff"/>
      <stop offset="0.221" stop-color="#f8f8f8"/>
      <stop offset="0.541" stop-color="#e5e5e5"/>
      <stop offset="0.92" stop-color="#c6c6c6"/>
      <stop offset="1" stop-color="#bebebe"/>
    </linearGradient>
  </defs>
  <g id="g927">
    <path id="rect969-0" d="M21.9,26.5v-2h20v2h-20Z" fill="#969696"/>
    <path id="rect969" d="M30.9,13.5h2v24h-2v-24Z" fill="#969696"/>
    <path id="path4" d="M16.6,2.672A8.339,8.339,0,0,0,10.94,4.651,8.281,8.281,0,0,0,8.216,9.938L7.78,14H5v6H6.865l-1.5,9.535c-.427,2.83-1.267,4.262-2.5,4.262A2.719,2.719,0,0,1,1.5,33.48L0,32.615v6.38l.766.213.143.034.894.217a5.5,5.5,0,0,0,1.305.161,7.61,7.61,0,0,0,5.879-2.589,12.724,12.724,0,0,0,2.871-6.816L13.451,20H17V14H14.362l.415-3.52a2.427,2.427,0,0,1,.72-1.493A1.952,1.952,0,0,1,16.844,8.5a3.885,3.885,0,0,1,1.127.179,5.375,5.375,0,0,1,.622.233L20,9.541V3.262l-.711-.215A9.319,9.319,0,0,0,16.6,2.672Z" fill="#464646"/>
    <path id="path17" d="M19,4a8.261,8.261,0,0,0-2.4-.323,7.335,7.335,0,0,0-5,1.732,7.277,7.277,0,0,0-2.391,4.67L8.679,15H6v4H8.036L6.349,29.686q-.771,5.106-3.485,5.106A3.666,3.666,0,0,1,1,34.346v3.89c.337.081.686.165,1.043.253a4.485,4.485,0,0,0,1.064.132,6.617,6.617,0,0,0,5.136-2.259,11.7,11.7,0,0,0,2.624-6.291L12.6,19H16V15H13.237l.547-4.637a3.434,3.434,0,0,1,1.054-2.127A2.94,2.94,0,0,1,16.844,7.5a4.865,4.865,0,0,1,1.418.223A6.376,6.376,0,0,1,19,8Z" fill="url(#linear-gradient)"/>
    <g id="text836">
      <path id="path902" d="M26.693,41H23.214a24.821,24.821,0,0,1-4.179-6.922,22.738,22.738,0,0,1-1.489-8.453,22.738,22.738,0,0,1,1.489-8.453,24.821,24.821,0,0,1,4.179-6.922h3.479v.156a19.776,19.776,0,0,0-2.355,2.641,21.1,21.1,0,0,0-2.066,3.469,22.649,22.649,0,0,0-1.49,4.234,20.62,20.62,0,0,0-.562,4.875,20.472,20.472,0,0,0,.547,4.891,23.242,23.242,0,0,0,1.5,4.218A19.7,19.7,0,0,0,24.353,38.2a19.364,19.364,0,0,0,2.34,2.641Z" fill="#464646"/>
    </g>
    <path id="path863" d="M22.9,39.6a22.159,22.159,0,0,1-4.3-9.466,24.435,24.435,0,0,1,.975-12.519,25.834,25.834,0,0,1,3.3-6.023l.529-.69,1.309,0c.886,0,.381.024.381.056a7.137,7.137,0,0,1-.84,1.066c-2.457,2.647-3.776,6.314-4.441,10.132a26.48,26.48,0,0,0-.184,5.69A19.817,19.817,0,0,0,21.4,34.442a18.015,18.015,0,0,0,3.091,4.995l.91.927H23.474Z" fill="#5ba4ba"/>
    <g id="text836-1">
      <path id="path905" d="M36.826,41h3.48a24.817,24.817,0,0,0,4.178-6.922,22.738,22.738,0,0,0,1.489-8.453,22.738,22.738,0,0,0-1.489-8.453,24.817,24.817,0,0,0-4.178-6.922h-3.48v.156a19.638,19.638,0,0,1,2.355,2.641,21.1,21.1,0,0,1,2.067,3.469,22.72,22.72,0,0,1,1.489,4.234,20.568,20.568,0,0,1,.562,4.875,20.421,20.421,0,0,1-.547,4.891,23.316,23.316,0,0,1-1.5,4.218A19.764,19.764,0,0,1,39.166,38.2a19.364,19.364,0,0,1-2.34,2.641Z" fill="#464646"/>
    </g>
    <path id="path863-1" d="M40.618,39.6a22.147,22.147,0,0,0,4.3-9.466,24.435,24.435,0,0,0-.975-12.519,25.834,25.834,0,0,0-3.3-6.023l-.529-.69-1.309,0c-.886,0-.381.024-.381.056a7.1,7.1,0,0,0,.841,1.066c2.457,2.647,3.775,6.314,4.44,10.132a26.544,26.544,0,0,1,.185,5.69,19.817,19.817,0,0,1-1.773,6.593,18.042,18.042,0,0,1-3.092,4.995l-.91.927h1.923Z" fill="#5ba4ba"/>
    <path id="path967-7-8" d="M39.343,30.2l-7.456,4.456-7.449-4.5.007-8.959L31.9,16.733l7.449,4.5Z" stroke="#464646" stroke-linecap="round" stroke-width="1.087" fill="url(#linear-gradient-2)"/>
    <path id="path933" d="M42.02,43.76c1.654-1.706,3.587-3.516,4.128-4.074l1.19-1.185-5.667-6.152L35.8,26.642l-3.62-.2-3.324.169-.977.638-.691.867.156,3.506-.03,3.688,5.59,5.82c3.02,3.144,5.615,5.619,5.7,5.712l.371.2ZM30.515,31.619A1.456,1.456,0,0,1,30,29.035a1.362,1.362,0,0,1,2.337,1.03,1.388,1.388,0,0,1-.645,1.287C31.189,31.8,31.135,31.8,30.515,31.619Z" stroke="#464646" stroke-linecap="round" stroke-width="0.078" fill="url(#linear-gradient-3)"/>
    <path id="path8" d="M38.982,48.148l9.352-9.622L36.017,25.852h-7.5l-1.855,1.912v7.713Zm8.033-9.622-8.033,8.262L27.6,35.076V28.159L28.9,26.817h6.727Z" fill="#464646"/>
    <path id="rect2" d="M43.418,38.908,36.88,32.18l-.663.68,6.538,6.727Z" fill="#464646"/>
    <path id="rect4" d="M41.558,40.832,35.941,35.06l-.663.68L40.9,41.513Z" fill="#464646"/>
    <path id="rect6" d="M39.682,42.749l-6.538-6.727-.663.679,6.537,6.727Z" fill="#464646"/>
    <path id="path1050" d="M29.747,21.366a1.721,1.721,0,1,0,1.721,1.721A1.722,1.722,0,0,0,29.747,21.366Zm0,.949a.759.759,0,0,1,.759.759h0a.758.758,0,0,1-.758.759h0a.758.758,0,0,1-.758-.758h0a.758.758,0,0,1,.758-.759Z" fill="#464646"/>
    <path id="path1050-2" d="M30.924,28.483A1.721,1.721,0,1,0,32.645,30.2,1.721,1.721,0,0,0,30.924,28.483Zm0,.95a.758.758,0,0,1,.758.758h0a.758.758,0,0,1-.758.759h0a.758.758,0,0,1-.759-.758h0a.758.758,0,0,1,.758-.758Z" fill="#464646"/>
    <path id="path914" d="M29.768,23.166c-1.379,4.272.882,6.815.894,6.829" fill="none" stroke="#6e6e6e" stroke-linecap="round" stroke-width="1.052"/>
  </g>
</svg>
