<svg id="Layer_1" data-name="Layer 1" xmlns="http://www.w3.org/2000/svg" xmlns:xlink="http://www.w3.org/1999/xlink" viewBox="0 0 48 48">
  <defs>
    <linearGradient id="linear-gradient" x1="4" y1="5" x2="44" y2="45" gradientTransform="translate(-5.993 -1.853) scale(0.996 0.934)" gradientUnits="userSpaceOnUse">
      <stop offset="0" stop-color="#fff"/>
      <stop offset="0.221" stop-color="#f8f8f8"/>
      <stop offset="0.541" stop-color="#e5e5e5"/>
      <stop offset="0.92" stop-color="#c6c6c6"/>
      <stop offset="1" stop-color="#bebebe"/>
    </linearGradient>
    <linearGradient id="linear-gradient-2" x1="27.721" y1="18.951" x2="43.28" y2="34.508" gradientTransform="translate(-11.98 -7.342) scale(0.585 0.579)" gradientUnits="userSpaceOnUse">
      <stop offset="0" stop-color="#a5cfdc"/>
      <stop offset="0.128" stop-color="#9cc9d7"/>
      <stop offset="0.335" stop-color="#84bacb"/>
      <stop offset="0.596" stop-color="#5ea2b7"/>
      <stop offset="0.896" stop-color="#28809b"/>
      <stop offset="1" stop-color="#147391"/>
    </linearGradient>
    <linearGradient id="linear-gradient-3" x1="46.071" y1="18.659" x2="56.017" y2="28.605" gradientTransform="matrix(0.585, 0, 0, -0.579, -11.98, 20.034)" gradientUnits="userSpaceOnUse">
      <stop offset="0" stop-color="#f2f2f2"/>
      <stop offset="1" stop-color="#999"/>
    </linearGradient>
    <linearGradient id="linear-gradient-4" x1="30.898" y1="22.136" x2="40.093" y2="31.33" gradientTransform="translate(-11.98 -7.342) scale(0.585 0.579)" gradientUnits="userSpaceOnUse">
      <stop offset="0" stop-color="#fff"/>
      <stop offset="1" stop-color="#dcdcdc"/>
    </linearGradient>
    <linearGradient id="linear-gradient-5" x1="8.967" y1="33.737" x2="18.13" y2="27.427" gradientTransform="matrix(0.923, 0, 0, -1.027, -3.944, 47.026)" xlink:href="#linear-gradient-2"/>
    <linearGradient id="linear-gradient-6" x1="65.316" y1="25.54" x2="50.708" y2="40.027" gradientTransform="matrix(-1.147, 0, 0, 1.147, 101.219, -3.248)" xlink:href="#linear-gradient"/>
  </defs>
  <g id="g913">
    <path id="rect25" d="M.482.482H35.351V42.518H.482Z" stroke="#464646" stroke-miterlimit="10" stroke-width="0.965" fill="url(#linear-gradient)"/>
    <path id="path28" d="M14.149,8.5a.234.234,0,0,0-.032.313l.864,1.181L13.6,10.5a.236.236,0,0,0-.151.277l.343,1.418-1.473-.058a.234.234,0,0,0-.246.2l-.234,1.439-1.338-.6a.241.241,0,0,0-.3.091L9.426,14.5l-1-1.071a.24.24,0,0,0-.316-.031l-1.193.855L6.4,12.89a.239.239,0,0,0-.281-.148l-1.432.337.055-1.456a.241.241,0,0,0-.2-.244l-1.455-.231L3.7,9.828a.236.236,0,0,0-.093-.3L2.356,8.762l1.08-.991a.234.234,0,0,0,.031-.313L2.6,6.278l1.38-.507a.236.236,0,0,0,.15-.278L3.793,4.075l1.472.058a.238.238,0,0,0,.246-.2l.234-1.439L7.082,3.1a.241.241,0,0,0,.3-.091l.772-1.24,1,1.068a.241.241,0,0,0,.316.031l1.193-.854.512,1.366a.238.238,0,0,0,.281.148L12.9,3.19,12.84,4.647a.238.238,0,0,0,.2.243l1.455.232-.614,1.321a.236.236,0,0,0,.093.3l1.253.764Z" fill="url(#linear-gradient-2)"/>
    <path id="path30" d="M9.676,14.656a.3.3,0,0,1-.221.137H9.426a.294.294,0,0,1-.214-.093l-.971-1.035-1.154.827a.3.3,0,0,1-.256.042.29.29,0,0,1-.19-.173l-.482-1.285v4.55L8.617,15.8a.3.3,0,0,1,.351,0l2.458,1.824V13.91l-1-.455Z" fill="url(#linear-gradient-3)"/>
    <g id="g40">
      <path id="path36" d="M10.247,11.613a3.817,3.817,0,0,1-4.97-2.034A3.75,3.75,0,0,1,7.333,4.66,3.818,3.818,0,0,1,12.3,6.7h0A3.749,3.749,0,0,1,10.247,11.613Z" fill="url(#linear-gradient-4)"/>
      <path id="path38" d="M8.8,12.188a4.087,4.087,0,1,1,1.562-.309A4.139,4.139,0,0,1,8.8,12.188ZM8.787,4.66a3.475,3.475,0,1,0,.038,6.949,3.552,3.552,0,0,0,1.313-.26h0a3.462,3.462,0,0,0,1.916-4.533A3.512,3.512,0,0,0,8.787,4.66Z" fill="#6f6f6f"/>
    </g>
    <path id="polygon42" d="M11.133,6.4l-2.34,4.343L6.452,8.714l.585-.289L8.5,9.293l2.048-3.184Z" fill="#464646"/>
    <path id="rect896" d="M19.745,3.583H28.63a.038.038,0,0,1,.037.037v.823a.037.037,0,0,1-.037.036H19.745a.037.037,0,0,1-.037-.036V3.62A.038.038,0,0,1,19.745,3.583Z" fill="#464646"/>
    <path id="rect898" d="M17.194,6.271H31.452a.038.038,0,0,1,.038.037v.821a.038.038,0,0,1-.038.038H17.194a.038.038,0,0,1-.038-.038V6.308A.038.038,0,0,1,17.194,6.271Z" fill="#464646"/>
    <path id="rect900" d="M11.684,20.6H24.15a.037.037,0,0,1,.037.038v.82a.037.037,0,0,1-.037.038H11.684a.038.038,0,0,1-.038-.038v-.82A.038.038,0,0,1,11.684,20.6Z" fill="#464646"/>
    <path id="rect902" d="M4.507,25.146H31.326a.027.027,0,0,1,.028.027v.841a.027.027,0,0,1-.028.027H4.507a.028.028,0,0,1-.028-.027v-.841A.028.028,0,0,1,4.507,25.146Z" fill="#464646"/>
    <path id="rect902-1" d="M4.507,32.475H31.326a.028.028,0,0,1,.028.028v.84a.027.027,0,0,1-.028.028H4.507a.028.028,0,0,1-.028-.028V32.5A.029.029,0,0,1,4.507,32.475Z" fill="#464646"/>
    <path id="rect902-11" d="M4.507,28.729H25.314a.027.027,0,0,1,.028.028v.84a.028.028,0,0,1-.028.028H4.507a.029.029,0,0,1-.028-.028v-.84A.028.028,0,0,1,4.507,28.729Z" fill="#464646"/>
    <path id="path1062" d="M6.091,15.4c0-1.375.011-2.489.024-2.474s.121.318.24.673a6.434,6.434,0,0,0,.273.727c.134.188.388.084.987-.4l.6-.483.56.644c.533.615.675.713.849.591a6.072,6.072,0,0,0,.465-.751c.216-.385.405-.7.42-.706a4.368,4.368,0,0,1,.507.236l.478.243v2.067c0,1.136-.012,2.066-.028,2.066s-.592-.465-1.282-1.033A9.582,9.582,0,0,0,8.8,15.762a5.547,5.547,0,0,0-1,.721L6.512,17.551l-.421.347Z" fill="url(#linear-gradient-5)"/>
    <path id="path1072" d="M21.608,39.417l.282-.193c0-.019-.011-.041,0-.056.059-.089.161-.141.225-.226a.736.736,0,0,0,.057-.112l.056-.113a1.765,1.765,0,0,0,.113-.226c.006-.017-.009-.039,0-.056s.044-.033.056-.056c.027-.053.03-.116.056-.169s.1-.063.113-.113-.017-.079,0-.113c.009-.017.043.014.056,0s0-.075,0-.056-.008.256,0,.282c.059.176.038-.019.113.056.013.013-.013.043,0,.056s.043-.013.057,0-.017.048,0,.057c.033.017.075,0,.112,0h.789a.457.457,0,0,0,.169,0c.05-.02.07-.081.113-.113s.078-.033.113-.056c.111-.075.112-.168.112-.282,0-.019.014-.043,0-.056-.037-.038-.107.039-.112.056-.012.036.009.076,0,.113s-.046.072-.057.112a2.208,2.208,0,0,0,0,.282c0,.019-.013.043,0,.056s.043-.013.057,0-.014.043,0,.057.037,0,.056,0h.226c.013-.014,0-.038,0-.057v.339a.42.42,0,0,0,0,.112.449.449,0,0,0,.169.226c.033.025.077.033.112.056s.033.045.057.056.039-.008.056,0,.033.045.056.057.038,0,.057,0h.958a1.408,1.408,0,0,0,.225,0c.083-.014.146-.086.226-.113.017-.006.043.013.056,0s-.019-.056,0-.056-.019.056,0,.056.033-.044.056-.056.04.008.057,0c.1-.052.033-.043.056-.113.013-.04.043-.073.056-.113.006-.018-.013-.043,0-.056s.044.013.057,0-.013-.043,0-.056a.043.043,0,0,1,.056,0c.013.013-.013.043,0,.056s.038,0,.057,0h2.028c.019,0,.043.013.057,0s0-.038,0-.056.008-.04,0-.057-.038-.037-.057-.056-.029-.057-.056-.057,0,.038,0,.057-.013.043,0,.056.038,0,.056,0c.144,0,.075-.066.169-.113.166-.082-.074.131.113-.056" fill="none" stroke="#464646" stroke-width="0.448"/>
    <path id="path32" d="M5.574,13.171V18.2a.293.293,0,0,0,.468.232L8.793,16.4l2.75,2.041a.29.29,0,0,0,.175.058.294.294,0,0,0,.131-.031.289.289,0,0,0,.162-.259v-4.2c-.012.009.013-.008,0,0a.208.208,0,0,0,.117-.181l.227-1.394,1.426.054a.326.326,0,0,0,.238-.106.288.288,0,0,0,.058-.251l-.331-1.372,1.337-.491a.288.288,0,0,0,.172-.372.255.255,0,0,0-.037-.069l-.836-1.143,1.046-.961a.287.287,0,0,0,.016-.409.325.325,0,0,0-.061-.05l-1.214-.739.592-1.281a.288.288,0,0,0-.146-.384.308.308,0,0,0-.073-.022l-1.409-.224L13.187,3.2a.29.29,0,0,0-.281-.3.262.262,0,0,0-.079.008l-1.388.328-.495-1.324a.293.293,0,0,0-.376-.171.277.277,0,0,0-.07.037l-1.155.828L8.372,1.569a.294.294,0,0,0-.413-.015.319.319,0,0,0-.05.06l-.747,1.2L5.867,2.228a.293.293,0,0,0-.387.144.27.27,0,0,0-.023.073L5.23,3.839,3.8,3.785a.275.275,0,0,0-.237.106.289.289,0,0,0-.059.251l.331,1.374L2.5,6.006a.288.288,0,0,0-.173.372.28.28,0,0,0,.038.07L3.2,7.591,2.157,8.55a.288.288,0,0,0-.015.409.267.267,0,0,0,.061.05l1.213.739L2.824,11.03a.287.287,0,0,0,.008.257.293.293,0,0,0,.212.15l1.408.224L4.4,13.072a.29.29,0,0,0,.284.3.277.277,0,0,0,.076-.008m6.667,4.265L8.968,15.8a.3.3,0,0,0-.351,0L6.159,17.626v-4.55l.482,1.284a.294.294,0,0,0,.19.174.3.3,0,0,0,.256-.042l1.154-.827L9.212,14.7a.3.3,0,0,0,.214.093h.029a.3.3,0,0,0,.221-.137l.747-1.2,1,.456ZM13.95,8.287a.524.524,0,0,0-.07.695l.638.872-1.018.374a.525.525,0,0,0-.334.616l.252,1.048-1.08-.041a.519.519,0,0,0-.552.443l-.176,1.063-.985-.445a.536.536,0,0,0-.676.2l-.571.913-.738-.787a.531.531,0,0,0-.7-.071l-.881.631L6.678,12.8a.528.528,0,0,0-.624-.332L5,12.713l.04-1.077a.532.532,0,0,0-.448-.539l-1.075-.17.454-.977a.526.526,0,0,0-.206-.67l-.925-.564.8-.731a.524.524,0,0,0,.07-.7l-.639-.872,1.019-.374a.526.526,0,0,0,.334-.616L4.166,4.38l1.088.041A.526.526,0,0,0,5.8,3.978l.175-1.063.988.448a.536.536,0,0,0,.675-.2l.57-.916.741.789a.537.537,0,0,0,.7.069l.881-.631.378,1.007a.534.534,0,0,0,.624.332l1.057-.251L12.55,4.637A.53.53,0,0,0,13,5.175l1.075.174-.453.977a.524.524,0,0,0,.2.669l.926.564Z" fill="#474647"/>
    <path id="path933" d="M41.336,43.369c1.745-1.8,3.785-3.711,4.357-4.3l1.255-1.25-5.98-6.493-6.2-6.023-3.82-.216-3.509.179-1.031.673-.729.915.165,3.7-.032,3.893,5.9,6.142c3.187,3.318,5.926,5.93,6.02,6.029l.391.216ZM29.193,30.555a1.537,1.537,0,0,1-.543-2.727,1.437,1.437,0,0,1,2.466,1.087,1.465,1.465,0,0,1-.68,1.359C29.905,30.742,29.848,30.751,29.193,30.555Z" stroke="#464646" stroke-linecap="round" stroke-width="0.082" fill="url(#linear-gradient-6)"/>
    <path id="path8" d="M38.13,48,48,37.845,35,24.469H27.085l-1.958,2.018v8.14Zm8.477-10.155-8.477,8.72L26.112,34.2V26.9l1.378-1.417h7.1Z" fill="#464646"/>
    <path id="rect2" d="M42.811,38.248l-6.9-7.1-.7.717,6.9,7.1Z" fill="#464646"/>
    <path id="rect4" d="M40.848,40.279,34.92,34.187l-.7.718L40.148,41Z" fill="#464646"/>
    <path id="rect6" d="M38.868,42.3l-6.9-7.1-.7.717,6.9,7.1Z" fill="#464646"/>
    <path id="path1050" d="M29.6,18.748a1.817,1.817,0,1,0,1.816,1.816A1.817,1.817,0,0,0,29.6,18.748Zm0,1a.8.8,0,0,1,.8.8h0a.8.8,0,0,1-.8.8h0a.8.8,0,0,1-.8-.8h0a.8.8,0,0,1,.8-.8Z" fill="#464646"/>
    <path id="path1050-2" d="M29.625,27.246a1.817,1.817,0,1,0,1.816,1.817A1.816,1.816,0,0,0,29.625,27.246Zm0,1a.8.8,0,0,1,.8.8h0a.8.8,0,0,1-.8.8h0a.8.8,0,0,1-.8-.8h0a.8.8,0,0,1,.8-.8Z" fill="#464646"/>
    <path id="path914" d="M29.53,20.718c-1.909,4.854.011,8.21.021,8.228" fill="none" stroke="#6e6e6e" stroke-linecap="round" stroke-width="1.15"/>
  </g>
</svg>
