<svg id="Image" xmlns="http://www.w3.org/2000/svg" xmlns:xlink="http://www.w3.org/1999/xlink" viewBox="0 0 48 48">
  <defs>
    <linearGradient id="linear-gradient" x1="-8.287" y1="27.855" x2="6.456" y2="62.514" gradientTransform="matrix(0.809, -0.588, 0.57, 0.821, 0.012, 0.023)" gradientUnits="userSpaceOnUse">
      <stop offset="0" stop-color="#fff"/>
      <stop offset="1" stop-color="#dcdcdc"/>
    </linearGradient>
    <linearGradient id="linear-gradient-2" x1="23.954" y1="41.819" x2="24.164" y2="47.979" gradientTransform="matrix(1, 0, 0, -1, 0, 50)" gradientUnits="userSpaceOnUse">
      <stop offset="0" stop-color="#c9c6c5"/>
      <stop offset="0.045" stop-color="#cecccc"/>
      <stop offset="0.268" stop-color="#e7e6e6"/>
      <stop offset="0.497" stop-color="#f6f6f7"/>
      <stop offset="0.736" stop-color="#fefefe"/>
      <stop offset="1" stop-color="#fff"/>
    </linearGradient>
    <linearGradient id="linear-gradient-3" x1="11.756" y1="44.293" x2="36.456" y2="14.507" gradientTransform="matrix(1, 0, 0, -1, 0, 50)" gradientUnits="userSpaceOnUse">
      <stop offset="0" stop-color="#fff"/>
      <stop offset="0.221" stop-color="#fbfbfc"/>
      <stop offset="0.541" stop-color="#ececec"/>
      <stop offset="0.92" stop-color="#d0cecd"/>
      <stop offset="1" stop-color="#c9c6c5"/>
    </linearGradient>
    <linearGradient id="linear-gradient-4" x1="11.868" y1="41.66" x2="42.056" y2="11.472" gradientTransform="matrix(1, 0, 0, -1, 0, 50)" gradientUnits="userSpaceOnUse">
      <stop offset="0" stop-color="#fff"/>
      <stop offset="0.335" stop-color="#fbfbfc"/>
      <stop offset="0.82" stop-color="#ececec"/>
      <stop offset="1" stop-color="#e4e3e4"/>
    </linearGradient>
    <linearGradient id="linear-gradient-5" x1="15.17" y1="33.12" x2="31.044" y2="19.932" gradientTransform="matrix(1, 0, 0, -1, 0, 48)" gradientUnits="userSpaceOnUse">
      <stop offset="0" stop-color="#cde6eb"/>
      <stop offset="1" stop-color="#8cc3d2"/>
    </linearGradient>
    <linearGradient id="linear-gradient-6" x1="20.782" y1="35.174" x2="27.127" y2="25.243" xlink:href="#linear-gradient-5"/>
  </defs>
  <g id="g948">
    <path id="rect864" d="M1.421,37l22.635-9.579,22.523,9.613L24.147,46.579Z" stroke="#464646" stroke-linejoin="round" stroke-width="0.841" fill="url(#linear-gradient)"/>
    <path id="path37" d="M30.139,4.945a1.884,1.884,0,0,0-1.445-.723H27.611V3.861a2.564,2.564,0,0,0-2.528-2.528H22.916a2.562,2.562,0,0,0-2.527,2.528v.361H19.306a1.884,1.884,0,0,0-1.445.723H11V36H37V4.945Z" fill="#4e4a48"/>
    <path id="path39" d="M18.222,7.833H29.778V6.025a1.109,1.109,0,0,0-1.084-1.083H26.886V3.861a1.789,1.789,0,0,0-1.767-1.809h-2.2a1.788,1.788,0,0,0-1.8,1.77V4.945H19.3a1.109,1.109,0,0,0-1.084,1.083Z" fill="url(#linear-gradient-2)"/>
    <path id="circle41" d="M24.722,4.222A.722.722,0,0,1,24,4.944h0a.722.722,0,0,1-.722-.722h0A.722.722,0,0,1,24,3.5h0a.722.722,0,0,1,.722.722Z" fill="#4e4a48"/>
    <path id="path43" d="M30.428,5.667a.657.657,0,0,1,.075.361V8.555h-13V6.028a.657.657,0,0,1,.075-.361H11.722V35.278H36.278V5.667Z" fill="url(#linear-gradient-3)"/>
    <path id="polygon45" d="M13.167,33.833H34.833V7.111H30.5V8.555h-13V7.111H13.167Z" fill="#c9c6c5"/>
    <path id="polygon47" d="M13.889,33.111H34.111V7.833H30.5v.722h-13V7.833H13.889Z" fill="url(#linear-gradient-4)"/>
    <path id="path80" d="M15.088,26.064a.219.219,0,0,1-.188-.235v-2.6A.219.219,0,0,1,15.088,23h.946a1.281,1.281,0,0,0,1.23-1.324V19.594a5.7,5.7,0,0,1,5.384-5.951h2.835a5.7,5.7,0,0,1,5.384,5.951v2.078A1.281,1.281,0,0,0,32.1,23h.946a.219.219,0,0,1,.188.235v2.6a.219.219,0,0,1-.188.235Z" fill="url(#linear-gradient-5)"/>
    <path id="path82" d="M25.482,13.927a5.413,5.413,0,0,1,5.1,5.667v2.078A1.565,1.565,0,0,0,32.1,23.281h.848v2.5H15.186v-2.5h.848a1.565,1.565,0,0,0,1.514-1.609V19.594a5.412,5.412,0,0,1,5.1-5.667h2.835m0-.569H22.649a5.971,5.971,0,0,0-5.668,6.236v2.078a1,1,0,0,1-.947,1.04h-.946a.5.5,0,0,0-.473.519v2.6a.5.5,0,0,0,.473.52H33.04a.5.5,0,0,0,.474-.52v-2.6a.5.5,0,0,0-.474-.519h-.946a1,1,0,0,1-.947-1.04V19.594a5.967,5.967,0,0,0-5.665-6.236Z" fill="#177491"/>
    <path id="polyline104" d="M21.939,22.57V13.358H26.19V22.57" fill="url(#linear-gradient-6)"/>
    <path id="polygon106" d="M21.655,13.074h4.82v9.5h-.569V13.643H22.224V22.57h-.569Z" fill="#177491"/>
  </g>
</svg>
