<svg id="Image" xmlns="http://www.w3.org/2000/svg" xmlns:xlink="http://www.w3.org/1999/xlink" viewBox="0 0 48 48">
  <defs>
    <linearGradient id="Siemens_-_Light_gray" data-name="Siemens - Light gray" x1="11.418" y1="11.402" x2="36.615" y2="36.598" gradientUnits="userSpaceOnUse">
      <stop offset="0" stop-color="#fff"/>
      <stop offset="1" stop-color="#dcdcdc"/>
    </linearGradient>
    <linearGradient id="New_Gradient_Swatch_1" data-name="New Gradient Swatch 1" x1="1.985" y1="20.466" x2="9.157" y2="27.638" gradientUnits="userSpaceOnUse">
      <stop offset="0" stop-color="#7eb8cd"/>
      <stop offset="1" stop-color="#097091"/>
    </linearGradient>
    <linearGradient id="New_Gradient_Swatch_1-2" x1="38.843" y1="20.466" x2="46.015" y2="27.638" xlink:href="#New_Gradient_Swatch_1"/>
    <linearGradient id="New_Gradient_Swatch_1-3" x1="29.628" y1="36.388" x2="36.8" y2="43.56" xlink:href="#New_Gradient_Swatch_1"/>
    <linearGradient id="New_Gradient_Swatch_1-4" x1="11.221" y1="36.387" x2="18.393" y2="43.56" xlink:href="#New_Gradient_Swatch_1"/>
    <linearGradient id="New_Gradient_Swatch_1-5" x1="29.628" y1="4.44" x2="36.8" y2="11.612" xlink:href="#New_Gradient_Swatch_1"/>
    <linearGradient id="New_Gradient_Swatch_1-6" x1="11.221" y1="4.44" x2="18.393" y2="11.612" xlink:href="#New_Gradient_Swatch_1"/>
  </defs>
  <g>
    <polygon points="33.239 8.026 14.794 8.026 5.571 24 14.794 39.974 33.239 39.974 42.461 24 33.239 8.026" fill="url(#Siemens_-_Light_gray)"/>
    <g>
      <path d="M5.571,29.123a5.072,5.072,0,1,1,3.586-1.485A5.035,5.035,0,0,1,5.571,29.123Z" fill="url(#New_Gradient_Swatch_1)"/>
      <path d="M5.571,19.481A4.572,4.572,0,1,1,2.339,20.82a4.541,4.541,0,0,1,3.232-1.339m0-1a5.572,5.572,0,1,0,3.94,1.632,5.55,5.55,0,0,0-3.94-1.632Z" fill="#4e4a48"/>
    </g>
    <g>
      <path d="M42.429,29.123a5.07,5.07,0,1,1,3.586-1.485A5.033,5.033,0,0,1,42.429,29.123Z" fill="url(#New_Gradient_Swatch_1-2)"/>
      <path d="M42.429,19.481A4.572,4.572,0,1,1,39.2,20.82a4.537,4.537,0,0,1,3.233-1.339m0-1a5.572,5.572,0,1,0,3.939,1.632,5.551,5.551,0,0,0-3.939-1.632Z" fill="#4e4a48"/>
    </g>
    <g>
      <path d="M33.214,45.045A5.07,5.07,0,1,1,36.8,43.56,5.033,5.033,0,0,1,33.214,45.045Z" fill="url(#New_Gradient_Swatch_1-3)"/>
      <path d="M33.214,35.4a4.572,4.572,0,1,1-3.232,1.339A4.537,4.537,0,0,1,33.214,35.4m0-1a5.57,5.57,0,1,0,3.939,1.631A5.556,5.556,0,0,0,33.214,34.4Z" fill="#4e4a48"/>
    </g>
    <g>
      <path d="M14.808,45.045a5.068,5.068,0,1,1,3.586-1.485A5.037,5.037,0,0,1,14.808,45.045Z" fill="url(#New_Gradient_Swatch_1-4)"/>
      <path d="M14.807,35.4a4.572,4.572,0,1,1-3.232,1.339A4.541,4.541,0,0,1,14.807,35.4m0-1a5.569,5.569,0,1,0,3.94,1.631,5.553,5.553,0,0,0-3.94-1.631Z" fill="#4e4a48"/>
    </g>
    <g>
      <path d="M33.214,13.1A5.07,5.07,0,1,1,36.8,11.612,5.037,5.037,0,0,1,33.214,13.1Z" fill="url(#New_Gradient_Swatch_1-5)"/>
      <path d="M33.214,3.455a4.572,4.572,0,1,1-3.232,1.339,4.537,4.537,0,0,1,3.232-1.339m0-1a5.572,5.572,0,1,0,3.939,1.632,5.552,5.552,0,0,0-3.939-1.632Z" fill="#4e4a48"/>
    </g>
    <g>
      <path d="M14.808,13.1a5.068,5.068,0,1,1,3.586-1.485A5.039,5.039,0,0,1,14.808,13.1Z" fill="url(#New_Gradient_Swatch_1-6)"/>
      <path d="M14.807,3.455a4.572,4.572,0,1,1-3.232,1.339,4.541,4.541,0,0,1,3.232-1.339m0-1a5.57,5.57,0,1,0,3.94,1.632,5.55,5.55,0,0,0-3.94-1.632Z" fill="#4e4a48"/>
    </g>
    <g>
      <path d="M36.437,12.565c-.037.026-.071.056-.108.081-.1.068-.208.128-.313.19q-.216.126-.444.232l3.7,6.4q.206-.141.425-.264t.446-.226Z" fill="#177491"/>
      <path d="M12.014,12.841c-.109-.063-.218-.125-.322-.195-.034-.023-.066-.051-.1-.075L7.887,18.99c.152.069.3.145.445.227.12.069.24.138.354.215.024.017.046.036.07.052l3.7-6.411Q12.23,12.967,12.014,12.841Z" fill="#177491"/>
      <path d="M27.668,7.526H20.353c.015.165.025.331.025.5s-.01.335-.025.5h7.315c-.015-.165-.025-.331-.025-.5S27.653,7.691,27.668,7.526Z" fill="#177491"/>
      <path d="M8.8,28.588c-.038.027-.073.058-.112.084-.1.067-.205.127-.309.188-.144.084-.291.161-.443.232l3.659,6.336c.034-.024.065-.051.1-.074.1-.07.213-.132.322-.2q.216-.126.444-.232Z" fill="#177491"/>
      <path d="M39.647,28.874c-.145-.083-.286-.172-.422-.269l-3.653,6.327q.228.106.444.232c.105.062.212.122.313.19.037.025.071.055.108.081L40.091,29.1C39.939,29.034,39.791,28.958,39.647,28.874Z" fill="#177491"/>
      <path d="M27.668,39.474H20.353c.015.165.025.331.025.5s-.01.335-.025.5h7.315c-.015-.165-.025-.331-.025-.5S27.653,39.639,27.668,39.474Z" fill="#177491"/>
    </g>
  </g>
</svg>
