<svg id="Layer_1" data-name="Layer 1" xmlns="http://www.w3.org/2000/svg" xmlns:xlink="http://www.w3.org/1999/xlink" viewBox="0 0 48 48">
  <defs>
    <linearGradient id="linear-gradient" x1="48.217" y1="25.036" x2="69.87" y2="4.073" gradientTransform="matrix(1.695, 0, 0, -1.695, -77.22, 43.152)" gradientUnits="userSpaceOnUse">
      <stop offset="0" stop-color="#afd7e1"/>
      <stop offset="1" stop-color="#54a4bc"/>
    </linearGradient>
    <linearGradient id="linear-gradient-2" x1="43.903" y1="27.947" x2="70.259" y2="4.483" gradientTransform="matrix(1.695, 0, 0, -1.695, -66.12, 51.126)" xlink:href="#linear-gradient"/>
  </defs>
  <g id="g952">
    <path id="path933-9" d="M11.263,30.683c-2.58-2.654-5.594-5.483-6.438-6.36L3.391,22.389l8.95-9.274,8.9-9.121,5.324.052,5.23-.107,1.524,1,.9,1.475-.068,5.343-.137,5.52-8.233,8.91c-4.614,4.993-9.23,9.379-9.369,9.526l-.316-.025ZM29.205,11.75a2.271,2.271,0,0,0,.8-4.03c-1.574-1.324-3.492-.481-3.643,1.6a2.165,2.165,0,0,0,1,2.009C28.152,12.025,28.233,12.038,29.205,11.75Z" stroke="#464646" stroke-linecap="round" stroke-width="0.12" fill="url(#linear-gradient)"/>
    <path id="path8-5" d="M16.188,37.026,2,22.521,20.921,3.111H32.214l2.719,2.753V17.692ZM3.662,22.521,16.188,35.406,33.945,17.141V6.353L31.909,4.258H21.441ZM28.625,12.033a2.764,2.764,0,0,1-1.682-.68,2.571,2.571,0,0,1-.035-3.7,2.548,2.548,0,0,1,3.6.07,2.641,2.641,0,0,1,.054,3.475l.05-.055a3.188,3.188,0,0,1-2.05.888Zm.093-3.672a1.083,1.083,0,0,0-.78.355,1.118,1.118,0,0,0,0,1.6,1.033,1.033,0,0,0,1.535.021,1.393,1.393,0,0,0,.023-1.626,1.078,1.078,0,0,0-.777-.353Z" fill="#464646"/>
    <path id="rect6-4" d="M14.93,28.95,25.074,18.5l.816.791L15.732,29.712Z" fill="#464646"/>
    <path id="path924-5" d="M31.271,9.484a2.585,2.585,0,0,1-2.586,2.585h0A2.585,2.585,0,0,1,26.1,9.484h0A2.586,2.586,0,0,1,28.685,6.9h0a2.586,2.586,0,0,1,2.586,2.586Z" fill="none" stroke="#464646" stroke-linecap="round" stroke-width="0.191"/>
    <path id="path924-7-4-9-6" d="M29.753,9.51a1.069,1.069,0,1,1-1.069-1.069A1.069,1.069,0,0,1,29.753,9.51Z" fill="none" stroke="#464646" stroke-linecap="round" stroke-width="0.228"/>
    <path id="rect6-1-2" d="M9.376,23.305,19.52,12.853l.816.791L10.178,24.067Z" fill="#464646"/>
    <path id="rect6-3-3" d="M12.158,26.148l8.753-8.976.816.792L12.96,26.909Z" fill="#464646"/>
    <path id="path933" d="M22.363,38.657C19.784,36,16.769,33.174,15.925,32.3l-1.434-1.934,8.95-9.274,8.906-9.121,5.323.052,5.231-.107,1.523.995.9,1.475-.067,5.343-.138,5.52-8.233,8.91c-4.613,4.993-9.23,9.379-9.369,9.526l-.316-.025ZM40.305,19.724a2.271,2.271,0,0,0,.8-4.03c-1.574-1.324-3.492-.481-3.643,1.6a2.164,2.164,0,0,0,1,2.009C39.253,20,39.333,20.012,40.305,19.724Z" stroke="#464646" stroke-linecap="round" stroke-width="0.12" fill="url(#linear-gradient-2)"/>
    <path id="path8" d="M27.288,45,13.1,30.5l18.921-19.41H43.314l2.719,2.753V25.666ZM14.762,30.5,27.288,43.38,45.045,25.115V14.327l-2.036-2.1H32.542ZM39.725,20.007a2.766,2.766,0,0,1-1.682-.68,2.571,2.571,0,0,1-.035-3.7,2.548,2.548,0,0,1,3.6.07,2.641,2.641,0,0,1,.054,3.475l.05-.055a3.188,3.188,0,0,1-2.05.888Zm.093-3.672a1.081,1.081,0,0,0-.779.355,1.147,1.147,0,0,0-.341.8,1.16,1.16,0,0,0,.339.8,1.032,1.032,0,0,0,1.534.021,1.392,1.392,0,0,0,.024-1.626,1.081,1.081,0,0,0-.778-.353Z" fill="#464646"/>
    <path id="rect6" d="M26.03,36.924,36.174,26.472l.816.791L26.832,37.686Z" fill="#464646"/>
    <path id="path924" d="M42.371,17.458a2.585,2.585,0,0,1-2.586,2.585h0A2.585,2.585,0,0,1,37.2,17.458h0a2.586,2.586,0,0,1,2.586-2.586h0a2.586,2.586,0,0,1,2.586,2.586Z" fill="none" stroke="#464646" stroke-linecap="round" stroke-width="0.191"/>
    <path id="path924-7-4-9" d="M40.853,17.484a1.069,1.069,0,1,1-1.069-1.069h0a1.07,1.07,0,0,1,1.069,1.069Z" fill="none" stroke="#464646" stroke-linecap="round" stroke-width="0.228"/>
    <path id="rect6-1" d="M20.476,31.279,30.62,20.827l.816.791L21.278,32.041Z" fill="#464646"/>
    <path id="rect6-3" d="M23.259,34.122l8.752-8.976.816.792-8.766,8.945Z" fill="#464646"/>
  </g>
</svg>
