<svg id="Livello_2" data-name="Livello 2" xmlns="http://www.w3.org/2000/svg" xmlns:xlink="http://www.w3.org/1999/xlink" viewBox="0 0 48 48">
  <defs>
    <linearGradient id="linear-gradient" x1="36.279" y1="31.755" x2="28.416" y2="44.535" gradientTransform="matrix(1, 0, 0, -1, 0, 48)" gradientUnits="userSpaceOnUse">
      <stop offset="0" stop-color="#bebebe"/>
      <stop offset="0.045" stop-color="#c4c4c4"/>
      <stop offset="0.268" stop-color="#dedede"/>
      <stop offset="0.497" stop-color="#f0f0f0"/>
      <stop offset="0.736" stop-color="#fbfbfb"/>
      <stop offset="1" stop-color="#fff"/>
    </linearGradient>
    <linearGradient id="linear-gradient-2" x1="22.339" y1="45.246" x2="30.137" y2="35.998" gradientTransform="matrix(1, 0, 0, -1, 0, 48)" gradientUnits="userSpaceOnUse">
      <stop offset="0" stop-color="#fff"/>
      <stop offset="0.221" stop-color="#f8f8f8"/>
      <stop offset="0.541" stop-color="#e5e5e5"/>
      <stop offset="1" stop-color="#c6c6c6"/>
      <stop offset="1" stop-color="#bebebe"/>
    </linearGradient>
    <linearGradient id="linear-gradient-3" x1="7.64" y1="22.786" x2="7.644" y2="9.054" gradientTransform="matrix(0.722, -0.692, -0.692, -0.722, 33.225, 34.642)" gradientUnits="userSpaceOnUse">
      <stop offset="0" stop-color="#f3f3f3"/>
      <stop offset="0.5" stop-color="#cdcccc"/>
      <stop offset="0.63" stop-color="#c8c7c7"/>
      <stop offset="0.779" stop-color="#bababa"/>
      <stop offset="0.938" stop-color="#a2a2a1"/>
      <stop offset="0.99" stop-color="#989898"/>
    </linearGradient>
    <linearGradient id="linear-gradient-4" x1="275.722" y1="270.16" x2="287.926" y2="256.879" gradientTransform="translate(-318.757 -402.204) scale(1.467 1.339)" xlink:href="#linear-gradient-3"/>
    <linearGradient id="linear-gradient-5" x1="6.065" y1="22.333" x2="6.217" y2="8.823" xlink:href="#linear-gradient-3"/>
    <linearGradient id="linear-gradient-6" x1="4.293" y1="21.854" x2="4.287" y2="8.496" xlink:href="#linear-gradient-3"/>
    <linearGradient id="linear-gradient-7" x1="2.239" y1="21.34" x2="2.421" y2="7.997" xlink:href="#linear-gradient-3"/>
    <linearGradient id="linear-gradient-8" x1="0.204" y1="20.596" x2="0.149" y2="7.285" xlink:href="#linear-gradient-3"/>
    <linearGradient id="linear-gradient-9" x1="-1.812" y1="20.084" x2="-1.758" y2="6.833" xlink:href="#linear-gradient-3"/>
    <linearGradient id="linear-gradient-10" x1="-4.133" y1="19.379" x2="-4.118" y2="6.087" xlink:href="#linear-gradient-3"/>
    <linearGradient id="linear-gradient-11" x1="-6.119" y1="18.971" x2="-6.058" y2="5.636" xlink:href="#linear-gradient-3"/>
    <linearGradient id="linear-gradient-12" x1="-8.276" y1="18.101" x2="-8.196" y2="4.922" xlink:href="#linear-gradient-3"/>
    <linearGradient id="linear-gradient-13" x1="-10.231" y1="17.707" x2="-10.169" y2="4.328" xlink:href="#linear-gradient-3"/>
    <linearGradient id="linear-gradient-14" x1="-12.24" y1="17.136" x2="-12.095" y2="3.807" xlink:href="#linear-gradient-3"/>
    <linearGradient id="linear-gradient-15" x1="-14.191" y1="16.554" x2="-14.074" y2="3.338" xlink:href="#linear-gradient-3"/>
    <linearGradient id="linear-gradient-16" x1="-16.353" y1="15.923" x2="-16.207" y2="2.723" xlink:href="#linear-gradient-3"/>
    <linearGradient id="linear-gradient-17" x1="-18.216" y1="15.273" x2="-18.284" y2="2.165" xlink:href="#linear-gradient-3"/>
    <linearGradient id="linear-gradient-18" x1="279.77" y1="354.304" x2="291.427" y2="365.706" gradientTransform="translate(-271.614 -353.166) scale(1.097)" gradientUnits="userSpaceOnUse">
      <stop offset="0" stop-color="#76b4c8"/>
      <stop offset="0.177" stop-color="#6cadc2"/>
      <stop offset="0.464" stop-color="#549db4"/>
      <stop offset="0.822" stop-color="#2f849d"/>
      <stop offset="1" stop-color="#1a7491"/>
    </linearGradient>
    <linearGradient id="linear-gradient-19" x1="276.311" y1="284.905" x2="296.995" y2="264.288" gradientTransform="translate(-318.757 -402.204) scale(1.467 1.339)" xlink:href="#linear-gradient-3"/>
  </defs>
  <g id="g1013">
    <path id="path1259" d="M31.983,23.847a2.778,2.778,0,0,0,.994-.586,3.535,3.535,0,0,0,1.232-2.817,5.691,5.691,0,0,0-.174-1.367,9.5,9.5,0,0,0-3.129-4.66c-.508-.46-1.786-1.709-2.09-1.958a11.05,11.05,0,0,0-3.575-1.676,4.074,4.074,0,0,0-1.665-.119c-.88.168-1.459.34-1.809.945a1.841,1.841,0,0,0-.3.933l.037,1.4-.532-1.709a9.186,9.186,0,0,1-.282-1.481c-.04-.485-.028-2.08,0-2.13s-.021.177.207.264a5.083,5.083,0,0,0,1.763.1,6.962,6.962,0,0,0,2.659-.657c.426-.155.836-.3.916-.329l.079-.032L23.409,4.039l.336-.683,2.741-.68,2.8.039a12.481,12.481,0,0,1,2.628,1.359,14.445,14.445,0,0,1,5.489,5.7l.912,2.14.622,3.262,0,3.295c0,.015.14-.37-.553,1.067-1.219,2.525-2.628-2.2-2.659-1.981a15.964,15.964,0,0,0-.092,2.153,13.334,13.334,0,0,0,.711,3.63.636.636,0,0,1,.13.144c-.008.008-.019.109-.041.194a.876.876,0,0,1-.292.477c-.048.019-.785,0-2.188.01l-2.09-.11-.708.059Zm4.451-9.692c.73-1.321,1.292-2.385,1.3-2.414s-.169-.527-.229-.722c-1-2.488-2.787-4.264-5.8-6.489a9.425,9.425,0,0,0-1.559-.913c-.023,0-3.165,4.926-3.195,5.006-.024.063.069.209.663,1.132,2.242,3.16,4.084,5.1,6.549,6.3a5.071,5.071,0,0,0,.945.384C35.123,16.44,35.705,15.475,36.434,14.155Z" fill="#74b5c8"/>
    <path id="path1315" d="M34.544,16.235a12.069,12.069,0,0,1-3.837-2.679,25.648,25.648,0,0,1-3.223-4.117l-.518-.81L28.512,6.18c.831-1.316,1.645-2.438,1.651-2.447a17.157,17.157,0,0,1,2.73,1.714c2.118,1.724,3.844,3.273,4.5,5.6l.332.742-1.285,2.251c-.713,1.249-1.27,2.372-1.285,2.373A2.867,2.867,0,0,1,34.544,16.235Z" fill="url(#linear-gradient)"/>
    <path id="path935" d="M30.189,3.649l-3.223,4.98c1.947,3.185,4.309,6.312,8.133,7.819l2.618-4.75C36.485,7.816,33.472,5.553,30.189,3.649Z" fill="none" stroke="#464646" stroke-width="0.2"/>
    <path id="path1325" d="M21.92,9.172a3.168,3.168,0,0,1-1.026-.427c0-.021.861-1.586,1.624-2.867C24.1,3.225,23.709,3.8,24.86,3.418A8.736,8.736,0,0,1,27.4,2.957a3.862,3.862,0,0,1,1.635.212l.3.168L27.9,5.7,26.31,8.214l-.868.288c-.512.17-1.2.452-1.472.523A5.274,5.274,0,0,1,21.92,9.172Z" fill="url(#linear-gradient-2)"/>
    <path id="path937" d="M23.764,3.728,20.71,8.8c2.292,1.092,3.878.034,5.681-.534l3.05-4.951C28.176,2.788,26.287,2.954,23.764,3.728Z" fill="none" stroke="#464646" stroke-width="0.2"/>
    <path id="path1313" d="M36,23.243a16.544,16.544,0,0,1-.528-4.986l.125-.775.449-.881c.247-.485.78-1.694,1.233-2.607A16.727,16.727,0,0,1,38.1,12.41a26.839,26.839,0,0,1,.516,5.4l.11.932-1.2,2.337c-.618,1.207-1.133,2.3-1.188,2.4l-.147.048Z" fill="#bebebe"/>
    <path id="path939" d="M35.6,17.464c-.369.283.027,6.4.68,6.137l2.36-4.738a24.777,24.777,0,0,0-.583-6.5Z" fill="none" stroke="#464646" stroke-width="0.2"/>
    <g id="g991-7-9-7-1">
      <path id="path945-3-3-7-2-6" d="M22.962,14.359a2.538,2.538,0,0,1,.326-1.19A1.468,1.468,0,0,1,24.609,13a4.079,4.079,0,0,1,1.417.521,13.827,13.827,0,0,1,1.515.883,7.7,7.7,0,0,1,1.607,1.227,9.951,9.951,0,0,1,2.089,2.432,8.411,8.411,0,0,1,.795,1.481,2.7,2.7,0,0,1,.3,1.338,1.944,1.944,0,0,1-.356.765l-.3.105" fill="none" stroke="#f90000" stroke-width="0.029"/>
      <path id="path945-2-6-6-6-3-1" d="M23.838,14.579A3.147,3.147,0,0,1,26.127,15a11.469,11.469,0,0,1,5.535,6.7" fill="none" stroke="#000" stroke-width="0.029"/>
    </g>
    <path id="path1343" d="M29.442,15.787c2.362,2.462,3.413,5.287,2.348,6.313s-3.841-.134-6.206-2.594-3.422-5.288-2.363-6.32,3.833.122,6.2,2.579" stroke="#464646" stroke-linecap="square" stroke-width="0.31" fill="url(#linear-gradient-3)"/>
    <path id="path2447" d="M30.248,23.692c0-.117.222-.142.368-.217a1.194,1.194,0,0,0,.618-.774c.026-.125.067-.368.241-.432a.977.977,0,0,0,.572-.445,1.64,1.64,0,0,0,.222-.95,2.422,2.422,0,0,0-.084-.811,10.944,10.944,0,0,0-3.106-4.727,8.573,8.573,0,0,0-4.466-2.612,1.556,1.556,0,0,0-1.646.619,1.374,1.374,0,0,0-.145.614c0,.079-.211.151-.3.191a1.128,1.128,0,0,0-.586.731l-.063.2L21.7,14.5a5.408,5.408,0,0,1-.125-2.063c.058-1.21.679-1.57,1.939-1.728a8.061,8.061,0,0,1,6.046,2.353,15.3,15.3,0,0,1,4.353,5.861,4.9,4.9,0,0,1-.024,3.126c-.405,1.115-1.658,1.881-3.414,2.133a.345.345,0,0,1-.34-.284Z" fill="url(#linear-gradient-4)"/>
    <path id="path1343-1" d="M28.977,16.612c2.138,2.228,3.135,4.741,2.229,5.615s-3.373-.221-5.513-2.447-3.143-4.742-2.243-5.621,3.366.21,5.508,2.434" fill="#3c91af" stroke="#464646" stroke-linecap="square" stroke-width="0.11"/>
    <path id="path1343-4" d="M28.407,17.112c2.362,2.462,3.464,5.238,2.463,6.2s-3.728-.244-6.092-2.7S21.305,15.372,22.3,14.4s3.718.232,6.085,2.689" stroke="#464646" stroke-linecap="square" stroke-width="0.11" fill="url(#linear-gradient-5)"/>
    <path id="path1343-1-6" d="M28.058,18.2c2.138,2.228,3.135,4.741,2.229,5.615s-3.373-.221-5.513-2.448-3.143-4.741-2.242-5.62,3.365.21,5.507,2.434" fill="#3c91af" stroke="#464646" stroke-linecap="square" stroke-width="0.11"/>
    <path id="path1343-4-2" d="M27.432,18.762C29.794,21.224,30.9,24,29.9,24.966s-3.727-.245-6.092-2.7-3.473-5.239-2.477-6.21,3.719.232,6.085,2.689" stroke="#464646" stroke-linecap="square" stroke-width="0.11" fill="url(#linear-gradient-6)"/>
    <path id="path1343-1-6-6" d="M26.969,20.031c2.137,2.228,3.135,4.741,2.229,5.615s-3.373-.222-5.513-2.448-3.144-4.742-2.243-5.621,3.366.21,5.508,2.434" fill="#3c91af" stroke="#464646" stroke-linecap="square" stroke-width="0.11"/>
    <path id="rect2491" d="M22.929,10.323h1.8a.19.19,0,0,1,0,.379h-1.8a.19.19,0,0,1,0-.379Z" fill="#74b5c8"/>
    <path id="path943" d="M21.874,15.632a6.58,6.58,0,0,1-.214-1.122c-.07-.444-.131-.7-.16-1.042a5.266,5.266,0,0,1-.008-.91,2.721,2.721,0,0,1,.137-.681,1.665,1.665,0,0,1,.26-.487,1.475,1.475,0,0,1,.361-.329,1.924,1.924,0,0,1,.439-.208,3.346,3.346,0,0,1,.5-.121,7.461,7.461,0,0,1,6.082,2.121c2.241,1.964,4.494,4.44,4.828,6.729.362,2.475-.527,4.19-3.868,4.615l5.679-.038c.28.05.487-.085.567-.538l2.457-5.094c0-1.047.024-2.205-.047-3.305a15.51,15.51,0,0,0-.182-1.579c-.079-.467-.184-.931-.308-1.388-.083-.308-.182-.612-.293-.912-.1-.277-.2-.456-.342-.817-1.115-2.8-4.13-5.658-7.108-7.289a6.581,6.581,0,0,0-3.1-.642,18.527,18.527,0,0,0-3.742.718L20.631,8.638a21.6,21.6,0,0,0,.114,2.719c.064.394.178.879.314,1.385s.294,1.032.443,1.51.263,1.081.367,1.389,0-.007,0-.007Z" fill="none" stroke="#464646" stroke-width="0.2"/>
    <path id="path1343-4-2-2" d="M26.381,20.5c2.362,2.462,3.464,5.239,2.463,6.2s-3.727-.244-6.092-2.7-3.473-5.239-2.477-6.21,3.718.232,6.085,2.689" stroke="#464646" stroke-linecap="square" stroke-width="0.11" fill="url(#linear-gradient-7)"/>
    <path id="path1343-1-6-2" d="M25.849,21.975c2.138,2.229,3.135,4.741,2.229,5.615s-3.373-.221-5.513-2.447-3.143-4.742-2.243-5.621,3.366.21,5.508,2.434" fill="#3c91af" stroke="#464646" stroke-linecap="square" stroke-width="0.11"/>
    <path id="path1343-4-2-0" d="M25.268,22.448c2.362,2.462,3.464,5.238,2.463,6.2S24,28.407,21.64,25.947s-3.473-5.239-2.478-6.21,3.719.232,6.086,2.689" stroke="#464646" stroke-linecap="square" stroke-width="0.11" fill="url(#linear-gradient-8)"/>
    <path id="path1343-1-6-6-5" d="M24.842,23.679c2.138,2.228,3.135,4.741,2.229,5.615s-3.373-.221-5.513-2.448-3.143-4.741-2.242-5.62,3.365.21,5.507,2.434" fill="#3c91af" stroke="#464646" stroke-linecap="square" stroke-width="0.11"/>
    <path id="path1343-4-2-2-3" d="M24.217,24.189c2.361,2.462,3.464,5.238,2.463,6.2s-3.728-.245-6.092-2.7-3.473-5.239-2.478-6.211,3.719.232,6.086,2.69" stroke="#464646" stroke-linecap="square" stroke-width="0.11" fill="url(#linear-gradient-9)"/>
    <path id="path1343-1-6-69" d="M23.576,25.8c2.137,2.229,3.135,4.741,2.229,5.615s-3.373-.221-5.513-2.447-3.144-4.742-2.243-5.621,3.366.21,5.508,2.434" fill="#3c91af" stroke="#464646" stroke-linecap="square" stroke-width="0.11"/>
    <path id="path1343-4-2-3" d="M23,26.3c2.362,2.462,3.464,5.238,2.463,6.2s-3.727-.245-6.091-2.7-3.473-5.239-2.478-6.211,3.719.233,6.086,2.69" stroke="#464646" stroke-linecap="square" stroke-width="0.11" fill="url(#linear-gradient-10)"/>
    <path id="path1343-1-6-6-6" d="M22.569,27.545c2.137,2.228,3.135,4.741,2.229,5.615s-3.373-.221-5.513-2.448-3.144-4.741-2.243-5.62,3.366.21,5.508,2.434" fill="#3c91af" stroke="#464646" stroke-linecap="square" stroke-width="0.11"/>
    <path id="path1343-4-2-2-3-5" d="M21.944,28.036c2.361,2.462,3.464,5.239,2.463,6.2s-3.728-.244-6.092-2.7-3.473-5.239-2.478-6.21,3.719.232,6.086,2.689" stroke="#464646" stroke-linecap="square" stroke-width="0.11" fill="url(#linear-gradient-11)"/>
    <path id="path1343-1-6-2-6" d="M21.412,29.508c2.138,2.229,3.135,4.741,2.229,5.615s-3.373-.221-5.513-2.447-3.143-4.742-2.242-5.621,3.365.21,5.507,2.434" fill="#3c91af" stroke="#464646" stroke-linecap="square" stroke-width="0.11"/>
    <path id="path1343-4-2-0-1" d="M20.831,29.981c2.362,2.462,3.465,5.238,2.463,6.2s-3.727-.244-6.091-2.7-3.473-5.239-2.478-6.21,3.719.232,6.086,2.689" stroke="#464646" stroke-linecap="square" stroke-width="0.11" fill="url(#linear-gradient-12)"/>
    <path id="path1343-1-6-6-5-9" d="M20.387,31.249c2.137,2.228,3.135,4.741,2.229,5.615s-3.374-.222-5.513-2.448S13.959,29.675,14.86,28.8s3.366.21,5.508,2.434" fill="#3c91af" stroke="#464646" stroke-linecap="square" stroke-width="0.11"/>
    <path id="path1343-4-2-2-3-5-9" d="M19.781,31.721c2.361,2.462,3.464,5.238,2.463,6.2s-3.728-.245-6.092-2.7-3.473-5.238-2.478-6.21,3.719.232,6.086,2.689" stroke="#464646" stroke-linecap="square" stroke-width="0.11" fill="url(#linear-gradient-13)"/>
    <path id="path1343-1-6-1" d="M19.34,33.029c2.138,2.229,3.135,4.741,2.229,5.615S18.2,38.423,16.056,36.2s-3.143-4.742-2.242-5.621,3.366.21,5.508,2.434" fill="#3c91af" stroke="#464646" stroke-linecap="square" stroke-width="0.11"/>
    <path id="path1343-4-2-6" d="M18.741,33.483c2.362,2.462,3.464,5.238,2.463,6.2s-3.727-.245-6.091-2.7-3.473-5.239-2.478-6.211,3.719.233,6.086,2.69" stroke="#464646" stroke-linecap="square" stroke-width="0.11" fill="url(#linear-gradient-14)"/>
    <path id="path1343-1-6-6-2" d="M18.333,34.751c2.138,2.229,3.136,4.742,2.229,5.615s-3.373-.221-5.513-2.447-3.143-4.742-2.242-5.621,3.366.21,5.508,2.434" fill="#3c91af" stroke="#464646" stroke-linecap="square" stroke-width="0.11"/>
    <path id="path1343-4-2-2-3-5-9-2" d="M17.69,35.225c2.361,2.461,3.464,5.238,2.463,6.2s-3.728-.244-6.092-2.7-3.473-5.239-2.478-6.21,3.719.232,6.086,2.689" stroke="#464646" stroke-linecap="square" stroke-width="0.11" fill="url(#linear-gradient-15)"/>
    <path id="path1343-1-6-2-9" d="M17.158,36.752c2.138,2.228,3.135,4.741,2.229,5.615s-3.373-.222-5.513-2.448-3.143-4.742-2.242-5.621,3.365.21,5.507,2.434" fill="#3c91af" stroke="#464646" stroke-linecap="square" stroke-width="0.11"/>
    <path id="path1343-4-2-0-8" d="M16.577,37.169c2.362,2.462,3.465,5.238,2.463,6.2s-3.727-.244-6.091-2.7-3.473-5.239-2.478-6.21,3.719.232,6.086,2.689" stroke="#464646" stroke-linecap="square" stroke-width="0.11" fill="url(#linear-gradient-16)"/>
    <path id="path1343-1-6-6-5-5" d="M16.17,38.437c2.137,2.228,3.135,4.741,2.229,5.615s-3.374-.222-5.513-2.448-3.144-4.741-2.243-5.621,3.366.21,5.508,2.434" fill="#3c91af" stroke="#464646" stroke-linecap="square" stroke-width="0.11"/>
    <path id="path1343-4-2-2-3-5-9-2-3" d="M15.527,38.909c2.361,2.462,3.464,5.238,2.462,6.2s-3.727-.245-6.091-2.7S8.425,37.17,9.42,36.2s3.719.232,6.086,2.689" stroke="#464646" stroke-linecap="square" stroke-width="0.11" fill="url(#linear-gradient-17)"/>
    <path id="path1343-1-6-6-5-5-4" d="M16.886,45.452a1.245,1.245,0,0,0,.677-1.247,4.843,4.843,0,0,0-.661-2.12,14.193,14.193,0,0,0-4.424-4.374l-.279-.133.076.251.088.057a14.057,14.057,0,0,1,4.353,4.3,4.7,4.7,0,0,1,.637,2.025,1.017,1.017,0,0,1-.552,1.052l-.1.043.086.191Z" fill="#464646"/>
    <path id="path1343-1-6-6-5-5-4-0" d="M16.7,45.377a1.242,1.242,0,0,0,.675-1.245,4.854,4.854,0,0,0-.661-2.123,14.194,14.194,0,0,0-4.422-4.373l-.216-.1.111.22.093.118a13.5,13.5,0,0,1,4.248,4.231,4.688,4.688,0,0,1,.637,2.025,1.016,1.016,0,0,1-.551,1.053l-.1.042-.162.071Z" fill="#3c91af"/>
    <path id="_Compound_Path_-2" data-name=" Compound Path -2" d="M38.533,35.305l8.225,8.226a2.324,2.324,0,0,1,0,3.288l0,0h0a2.326,2.326,0,0,1-3.288,0l0,0L35.243,38.6" stroke="#464646" stroke-miterlimit="10" fill="url(#linear-gradient-18)"/>
    <path id="circle82" d="M20.437,30.37a9.871,9.871,0,0,0,9.871,9.871h0a9.87,9.87,0,0,0,9.87-9.871h0a9.869,9.869,0,0,0-9.87-9.87h0A9.87,9.87,0,0,0,20.437,30.37Z" stroke="#464646" stroke-linecap="round" stroke-linejoin="round" fill="url(#linear-gradient-19)"/>
  </g>
</svg>
