<svg id="Image" xmlns="http://www.w3.org/2000/svg" xmlns:xlink="http://www.w3.org/1999/xlink" viewBox="0 0 48 48">
  <defs>
    <linearGradient id="linear-gradient" x1="-12.559" y1="-0.53" x2="27.294" y2="-17.5" gradientTransform="translate(108.763 -19.343) scale(0.958)" gradientUnits="userSpaceOnUse">
      <stop offset="0" stop-color="#fff"/>
      <stop offset="0.221" stop-color="#fbfbfc"/>
      <stop offset="0.541" stop-color="#ececec"/>
      <stop offset="0.925" stop-color="#d0cecd"/>
      <stop offset="1" stop-color="#c9c6c5"/>
    </linearGradient>
    <linearGradient id="linear-gradient-2" x1="-50.508" y1="-2.896" x2="-17.159" y2="-41.727" gradientTransform="translate(108.763 -19.343) scale(0.958)" gradientUnits="userSpaceOnUse">
      <stop offset="0" stop-color="#fff"/>
      <stop offset="0.221" stop-color="#fbfbfc"/>
      <stop offset="0.541" stop-color="#ececec"/>
      <stop offset="0.92" stop-color="#d0cecd"/>
      <stop offset="1" stop-color="#c9c6c5"/>
    </linearGradient>
    <linearGradient id="linear-gradient-3" x1="-49.71" y1="-4.097" x2="-17.279" y2="-42.065" xlink:href="#linear-gradient-2"/>
    <linearGradient id="linear-gradient-4" x1="4.168" y1="40.506" x2="36.579" y2="5.008" gradientTransform="matrix(1, 0, 0, -1, 0, 48)" gradientUnits="userSpaceOnUse">
      <stop offset="0" stop-color="#fff"/>
      <stop offset="0.221" stop-color="#f8f8f8"/>
      <stop offset="0.541" stop-color="#e5e5e5"/>
      <stop offset="0.92" stop-color="#c6c6c6"/>
      <stop offset="1" stop-color="#bebebe"/>
    </linearGradient>
  </defs>
  <g id="g914">
    <path id="path961" d="M23.714,17.475a14.722,14.722,0,0,1-6.256-1.79c-1.657-.806-2.417-2.244-2.085-2.363.118-.042,3.359-.5,5.858-.694l4.528-.88,1.8,1.754a28.779,28.779,0,0,0,4.068,3.162l.719.67-3.811.408c-1.424-.012-3.711-.355-4.818-.411Z" fill="#969696"/>
    <path id="path951" d="M32.892,16.814a27.281,27.281,0,0,1-5.974-4.537c-.679-.691-.77-1.124-1.114-1.122-.24,0-2.618.575-5.614.926l-5.753,1.14-1.018-1.2c-1.319-1.555-4-4.775-4.716-8.6l-.79-1.834,16.239-.215h15.88L40.1,1.7c.037.178.251,1.28.3,1.834a18.6,18.6,0,0,0,1.551,6.345,65.206,65.206,0,0,0,4.7,6.85l.461.935-6.73-.038-6.094-.145Zm6.678-4.367c.346-.347-.072-.085-.368-.508-.224-.319.595.04-4.055.04s-4.047-.431-4.27-.112c-.3.423.041.054.387.4.276.275-.491.287,3.847.287s3.86.168,4.135-.107ZM37.952,6.622A.658.658,0,0,0,38,5.591c-.227-.251-.8-.263-12.393-.263-11.108,0-12.177.02-12.418.238a.663.663,0,0,0,.025,1.056c.283.283.479.288,12.368.288S37.669,6.905,37.952,6.622Z" fill="url(#linear-gradient)"/>
    <path id="path971" d="M18.824,43c-5.656-.052-10.856.544-12.045.172L4.514,43,4.37,24.24,4.3,5.615l1.366-.359L7,5.292V23L6.851,39.569l.1.353.353.353,14.173.072,14.892.072.143,1.211c.051.426-.1,1.457-.056,1.582.078.2-1.02.3-3.7.271L19.327,43.36Z" fill="url(#linear-gradient-2)"/>
    <path id="path981" d="M11.5,46.783,1.35,46.745,1,28.122,1.134,9.211h.631l1.781.215.1,9.516c.053,5.234.1,12.9.1,17.031s.145,7.188.195,7.316c.258.664-.923.869,14.389.869h15.13l-.105,1.367V47l-6.211.144c-3.02.07-9.987-.268-15.568-.289Z" fill="url(#linear-gradient-3)"/>
    <path id="rect830-6" d="M13.75,5.339H37.418a.75.75,0,0,1,0,1.5H13.75a.75.75,0,0,1,0-1.5Z" fill="#147391"/>
    <path id="rect830-6-1" d="M30.75,11.376h8.5a.75.75,0,0,1,0,1.5h-8.5a.75.75,0,0,1,0-1.5Z" fill="#147391"/>
    <path id="path883" d="M16.366,39.759l-8.787.083c.113-1.067-.765-1.718-.094-3.343.521-1.261.339-8.678.341-16.43L7.757,4.824,9.737,7.2c2.1,2.517,3.027,5.228,5.005,7.124a9.6,9.6,0,0,0,6.192,3.166c1.713.244,4,.235,11.445.687L40,18.127l-.107,5.406c-.053,2.7-.082,7.339-.095,10.319L39.7,39.628l-7.851.312c-4.094.162-10.978-.108-15.415-.181Zm7.923-7.394c.345-.345.019-.057-.289-.365-.2-.2-.018.314-6.4-.066l-6.453.216.495.1c-.3.422-.642-.019-.3.327.28.28-.6,0,6.328,0S24.009,32.645,24.289,32.365Zm10-5.182c.384-.206-.047.023-.432-.183-.185-.1-3.371-.028-11.423-.028-10.79,0-11.744-.048-11.946.154-.293.293.647-.1.946.23.227.251-.137.263,11.372.263,8.043,0,11,.095,11.189,0Zm-.488-4.691c.327-.3.624.2.312-.147-.227-.25.136-.335-11.433-.335-11.939,0-11.488-.714-11.771-.431-.346.346.072.48.368.9l.152.176,11.306-.072c11.121-.071,10.681.2,10.922-.023Z" fill="url(#linear-gradient-4)"/>
    <path id="rect830" d="M10.75,21.5H34.418a.75.75,0,0,1,0,1.5H10.75a.75.75,0,0,1,0-1.5Z" fill="#147391"/>
    <path id="rect830-8" d="M10.673,26.5H34.342a.75.75,0,0,1,0,1.5H10.673a.75.75,0,0,1,0-1.5Z" fill="#147391"/>
    <path id="rect830-86" d="M10.75,31.5H24.5a.75.75,0,1,1,0,1.5H10.75a.75.75,0,0,1,0-1.5Z" fill="#147391"/>
    <path id="path2" d="M47.732,16.237A57.441,57.441,0,0,1,42.837,9.6a8.535,8.535,0,0,1-.571-1.159c-.065-.156-.11-.321-.169-.479-.091-.257-.187-.513-.263-.775-.058-.2-.1-.4-.149-.6s-.115-.449-.161-.67-.078-.434-.115-.652-.067-.382-.093-.564c-.033-.234-.059-.454-.083-.673-.015-.139-.035-.286-.045-.417-.022-.232-.037-.434-.053-.651,0-.084-.013-.178-.017-.256-.011-.217-.019-.4-.024-.551V2.054l-.019-.381a.727.727,0,0,0-.024-.192,1.105,1.105,0,0,0-.041-.206,1,1,0,0,0-.12-.208,1.229,1.229,0,0,0-.111-.139A.863.863,0,0,0,40.618.8a1.316,1.316,0,0,0-.182-.107,1.085,1.085,0,0,0-.182-.062,1.332,1.332,0,0,0-.236-.026H7.764c-.415.021-.51-.047-.7.095a.688.688,0,0,0-.138.12,1.43,1.43,0,0,0-.119.127,1.047,1.047,0,0,0-.148.218,1.127,1.127,0,0,0-.076.136.98.98,0,0,0-.077.231c0,.046,0,.11,0,.156v2.6H4.241A1.085,1.085,0,0,0,3.156,5.369V7.811H1.085A1.085,1.085,0,0,0,0,8.9V46.915A1.085,1.085,0,0,0,1.085,48H33.3a1.085,1.085,0,0,0,1.085-1.085V44.473h2.071a1.086,1.086,0,0,0,1.086-1.086V40.8H40a1.086,1.086,0,0,0,1.086-1.085l.025-21.1,5.8.037C47.845,18.649,48.346,16.94,47.732,16.237ZM32.667,46.49l-31.056-.1L1.586,9.542l1.545.007.025,33.838a1.086,1.086,0,0,0,1.085,1.086l28.4.025Zm3.284-3.578L4.793,42.658,4.742,5.692l1.744.05.026,33.971A1.085,1.085,0,0,0,7.6,40.8l28.242-.026Zm3.409-3.624L8.2,39.237,8.1,5.55,9.7,8.722c4.843,8.293,9.337,9.464,16.3,9.816h0l8.115.095-.04-.008.04.008,5.31-.008ZM16.042,13.867l9.632-1.656A24.631,24.631,0,0,0,31.8,17.025c-2.729-.037-5.777-.033-8.592-.238-2.591-.03-6.569-1.729-7.319-2.87ZM40.026,17h-5.54a29.233,29.233,0,0,1-7.968-6,1.071,1.071,0,0,0-.942-.317L14.46,12.707A25.43,25.43,0,0,1,10.717,7.08C9.228,4.23,9.051,3.25,8.356,2l31.288.046c.015.261.147,1.349.176,1.674l.015.141c.028.313.067.652.115,1,.013.089.024.176.037.267.058.4.128.82.217,1.255v.054c.091.434.2.9.334,1.35.03.106.067.217.1.317a6.823,6.823,0,0,0,.235.753c.05.126.1.25.15.374a15.06,15.06,0,0,0,.856,1.56A72.425,72.425,0,0,0,46.305,17Z" fill="#464646"/>
  </g>
</svg>
