<svg id="Image" xmlns="http://www.w3.org/2000/svg" xmlns:xlink="http://www.w3.org/1999/xlink" viewBox="0 0 48 48">
  <defs>
    <linearGradient id="linear-gradient" x1="-0.102" y1="44.644" x2="40.148" y2="4.394" gradientTransform="matrix(1, 0, 0, -1, 0, 48)" gradientUnits="userSpaceOnUse">
      <stop offset="0" stop-color="#afd7e1"/>
      <stop offset="1" stop-color="#73b4c8"/>
    </linearGradient>
    <linearGradient id="linear-gradient-2" x1="13.467" y1="37.96" x2="27.138" y2="24.29" gradientTransform="matrix(1, 0, 0, -1, 0, 48)" gradientUnits="userSpaceOnUse">
      <stop offset="0" stop-color="#73b4c8"/>
      <stop offset="1" stop-color="#177491"/>
    </linearGradient>
    <linearGradient id="linear-gradient-3" x1="20" y1="31.787" x2="47.517" y2="47.509" gradientUnits="userSpaceOnUse">
      <stop offset="0" stop-color="#73b4c8"/>
      <stop offset="0.175" stop-color="#6aaec3"/>
      <stop offset="0.457" stop-color="#529eb5"/>
      <stop offset="0.809" stop-color="#2c839f"/>
      <stop offset="1" stop-color="#147391"/>
    </linearGradient>
  </defs>
  <g id="g863">
    <g id="g28">
      <g id="g18">
        <path id="path14" d="M38.5,45.252l.091-25.908v-.136H46.5a66.81,66.81,0,0,1-5.727-7.772c-2.092-3.488-2.18-8.855-2.182-9.591V1.754H1.5v43.5h37" fill="url(#linear-gradient)"/>
        <path id="path16" d="M38.5,45.752H1.5a.5.5,0,0,1-.5-.5V1.776a.5.5,0,0,1,.238-.452.492.492,0,0,1,.311-.07h37.04a.5.5,0,0,1,.5.5c0,.688.074,6.032,2.11,9.424a66.539,66.539,0,0,0,5.676,7.7.5.5,0,0,1-.378.827H39.091L39,45.254A.5.5,0,0,1,38.5,45.752Zm-36.5-1H38l.09-25.544a.5.5,0,0,1,.5-.5h6.837a63.6,63.6,0,0,1-5.084-7.015C38.421,8.487,38.137,3.868,38.1,2.254H2Z" fill="#464646"/>
      </g>
      <path id="path20" d="M19.909,19.71a16.524,16.524,0,0,1-14.35-9.067C1.7,3.2,1.152,2.157,1.075,2.014l-.019-.036A.5.5,0,0,1,1.267,1.3l.006,0c.286-.146.388-.2.66.236l.017-.008a.4.4,0,0,1,.036.1c.144.243.332.605.608,1.134.592,1.137,1.718,3.3,3.853,7.422a15.451,15.451,0,0,0,13.577,8.525H38.592a.5.5,0,0,1,0,1H19.909Z" fill="#464646"/>
      <g id="g26">
        <path id="path22" d="M31.637,19.211c-3.068-.611-9-6.753-9-6.753L8.968,14.539s4.949,4.632,10.157,4.672S31.637,19.211,31.637,19.211Z" fill="url(#linear-gradient-2)"/>
        <path id="path24" d="M24.67,19.728c-1.856,0-3.822,0-5.549-.018C13.779,19.67,8.834,15.1,8.626,14.9a.5.5,0,0,1,.267-.86l13.669-2.08a.5.5,0,0,1,.435.147c.059.06,5.858,6.035,8.738,6.609a.5.5,0,0,1-.094.99C31.592,19.711,28.351,19.728,24.67,19.728ZM10.132,14.867c1.59,1.264,5.258,3.816,9,3.843,3.343.026,7.59.019,10.174.01a42.765,42.765,0,0,1-6.843-5.729Z" fill="#464646"/>
      </g>
    </g>
    <g id="g34">
      <path id="rect30" d="M9.208,8.25h27.25a1,1,0,0,1,1,1v1a1,1,0,0,1-1,1H9.208a1,1,0,0,1-1-1v-1A1,1,0,0,1,9.208,8.25Z" fill="#fff"/>
      <path id="path32" d="M32.433,13.906H26.87a16.6,16.6,0,0,0,1.569,1.678,12.308,12.308,0,0,0,1.719,1.322h2.275a1,1,0,0,0,1-1v-1A1,1,0,0,0,32.433,13.906Z" fill="#fff"/>
    </g>
    <path id="rect45" d="M18.64,31.294h29v16h-29Z" stroke="#464646" stroke-miterlimit="10" fill="url(#linear-gradient-3)"/>
    <g id="text870-9">
      <g id="text903">
        <path id="path839" d="M26.561,44.949H20.044v-11.2h6.267V35.8H22.492v2.492h3.554V40.34H22.492V42.9h4.069Z" fill="#fff"/>
        <path id="path841" d="M37.437,44.949H34.625l-1.69-2.883c-.126-.218-.248-.414-.364-.586a2.934,2.934,0,0,0-.356-.437,1.227,1.227,0,0,0-.371-.281.869.869,0,0,0-.417-.1h-.66v4.289H28.32v-11.2H32.2q3.956,0,3.956,3.047a3.255,3.255,0,0,1-.175,1.086,3.032,3.032,0,0,1-.492.89,3.124,3.124,0,0,1-.773.688,3.822,3.822,0,0,1-1,.453v.031a1.487,1.487,0,0,1,.47.258,3.242,3.242,0,0,1,.44.406,5.285,5.285,0,0,1,.4.508q.2.266.356.524Zm-6.67-9.312v3.117h1.061a1.726,1.726,0,0,0,1.266-.469,1.59,1.59,0,0,0,.485-1.18q0-1.468-1.705-1.468Z" fill="#fff"/>
        <path id="path843" d="M40.892,41.09v3.859H38.444v-11.2h3.835q4.107,0,4.108,3.57A3.478,3.478,0,0,1,45.2,40.051a4.577,4.577,0,0,1-3.145,1.039Zm0-5.406v3.492h.963q1.955,0,1.955-1.766,0-1.726-1.955-1.726Z" fill="#fff"/>
      </g>
    </g>
  </g>
</svg>
