<svg id="Livello_2" data-name="Livello 2" xmlns="http://www.w3.org/2000/svg" xmlns:xlink="http://www.w3.org/1999/xlink" viewBox="0 0 48 48">
  <defs>
    <linearGradient id="linear-gradient" x1="0.306" y1="3.065" x2="45.316" y2="43.329" gradientTransform="translate(0 2)" gradientUnits="userSpaceOnUse">
      <stop offset="0" stop-color="#fff"/>
      <stop offset="0.221" stop-color="#fbfbfc"/>
      <stop offset="0.541" stop-color="#ececec"/>
      <stop offset="0.92" stop-color="#d0cecd"/>
      <stop offset="1" stop-color="#c9c6c5"/>
    </linearGradient>
    <linearGradient id="linear-gradient-2" x1="-240.204" y1="1104.762" x2="-251" y2="1095.908" gradientTransform="translate(-225.6 1114.01) rotate(180)" gradientUnits="userSpaceOnUse">
      <stop offset="0" stop-color="#f3f3f3"/>
      <stop offset="0.5" stop-color="#cdcccc"/>
      <stop offset="0.63" stop-color="#c8c7c7"/>
      <stop offset="0.779" stop-color="#bababa"/>
      <stop offset="0.938" stop-color="#a2a2a1"/>
      <stop offset="0.99" stop-color="#989898"/>
    </linearGradient>
    <linearGradient id="linear-gradient-3" x1="-232.807" y1="1101.918" x2="-255.074" y2="1082.2" gradientTransform="translate(-225.6 1114.01) rotate(180)" gradientUnits="userSpaceOnUse">
      <stop offset="0" stop-color="#fff"/>
      <stop offset="0.232" stop-color="#fafafa"/>
      <stop offset="0.496" stop-color="#ededed"/>
      <stop offset="0.775" stop-color="#d7d6d6"/>
      <stop offset="1" stop-color="#bfbebe"/>
    </linearGradient>
    <linearGradient id="linear-gradient-4" x1="299.252" y1="365.338" x2="311.803" y2="390.47" gradientTransform="translate(-273.6 -348.99)" gradientUnits="userSpaceOnUse">
      <stop offset="0" stop-color="#74b5c8"/>
      <stop offset="0.175" stop-color="#6baec3"/>
      <stop offset="0.457" stop-color="#539eb5"/>
      <stop offset="0.809" stop-color="#2f849f"/>
      <stop offset="1" stop-color="#187491"/>
    </linearGradient>
    <linearGradient id="linear-gradient-5" x1="302.5" y1="365.591" x2="308.499" y2="371.591" gradientTransform="translate(-273.6 -348.99)" xlink:href="#linear-gradient-2"/>
    <linearGradient id="linear-gradient-6" x1="303.208" y1="368.883" x2="309.208" y2="374.883" gradientTransform="translate(-273.6 -348.99)" xlink:href="#linear-gradient-2"/>
    <linearGradient id="linear-gradient-7" x1="303.916" y1="372.175" x2="309.916" y2="378.175" gradientTransform="translate(-273.6 -348.99)" xlink:href="#linear-gradient-2"/>
    <linearGradient id="linear-gradient-8" x1="315.181" y1="1834.513" x2="320.161" y2="1839.619" gradientTransform="translate(-285.6 -1805.99)" xlink:href="#linear-gradient-2"/>
    <linearGradient id="linear-gradient-9" x1="315.646" y1="1840.888" x2="319.455" y2="1844.627" gradientTransform="translate(-285.6 -1805.99)" xlink:href="#linear-gradient-2"/>
  </defs>
  <g id="g977">
    <g id="g39">
      <path id="path35" d="M.522,43.478H47.478V9.043H19.3L15.75,3.712a2.087,2.087,0,0,0-1.736-.929H2.609A2.087,2.087,0,0,0,.522,4.87Z" fill="url(#linear-gradient)"/>
      <path id="path37" d="M48,44H0V4.87A2.609,2.609,0,0,1,2.609,2.261H14.014a2.6,2.6,0,0,1,2.17,1.162l3.4,5.1H48ZM1.043,42.957H46.957V9.565H19.025L15.316,4a1.566,1.566,0,0,0-1.3-.7H2.609A1.566,1.566,0,0,0,1.043,4.87Z" fill="#4e4a48"/>
    </g>
    <path id="rect46-1" d="M30.393,14.542H7.789v-3.23h22.6Z" stroke="#474747" stroke-miterlimit="10" stroke-width="0.646" fill="url(#linear-gradient-2)"/>
    <path id="rect48-0" d="M30.393,30.688H7.789V14.542h22.6Z" stroke="#474747" stroke-miterlimit="10" stroke-width="0.646" fill="url(#linear-gradient-3)"/>
    <path id="line50-1" d="M10.7,17.771H22.32" fill="none" stroke="#a09f9f" stroke-miterlimit="10" stroke-width="0.646"/>
    <path id="line52-3" d="M10.7,21h9.042" fill="none" stroke="#a09f9f" stroke-miterlimit="10" stroke-width="0.646"/>
    <path id="line54-0" d="M10.7,24.229h7.75" fill="none" stroke="#a09f9f" stroke-miterlimit="10" stroke-width="0.646"/>
    <path id="line56-2" d="M10.7,27.458H22.32" fill="none" stroke="#a09f9f" stroke-miterlimit="10" stroke-width="0.646"/>
    <path id="rect58-3" d="M28.132,12.281h1.292v1.292H28.132Z" fill="#6f6f6f"/>
    <path id="rect60-8" d="M25.549,12.281h1.292v1.292H25.549Z" fill="#6f6f6f"/>
    <path id="rect62-8" d="M22.966,12.281h1.291v1.292H22.966Z" fill="#6f6f6f"/>
    <path id="rect64-9" d="M25.872,16.479H38.143V41.667H25.872Z" stroke="#474747" stroke-miterlimit="10" stroke-width="0.646" fill="url(#linear-gradient-4)"/>
    <path id="line66-5" d="M28.132,19.708h7.75" stroke="#6f6f6f" stroke-miterlimit="10" stroke-width="0.646" fill="url(#linear-gradient-5)"/>
    <path id="line68-4" d="M28.132,22.292h7.75" stroke="#6f6f6f" stroke-miterlimit="10" stroke-width="0.646" fill="url(#linear-gradient-6)"/>
    <path id="line70-2" d="M28.132,24.875h7.75" stroke="#6f6f6f" stroke-miterlimit="10" stroke-width="0.646" fill="url(#linear-gradient-7)"/>
    <path id="circle72-9" d="M34.268,31.01a2.261,2.261,0,1,1-2.261-2.26A2.261,2.261,0,0,1,34.268,31.01Z" stroke="#6f6f6f" stroke-miterlimit="10" stroke-width="0.646" fill="url(#linear-gradient-8)"/>
    <path id="circle74-3" d="M33.622,36.823a1.615,1.615,0,1,1-1.615-1.615A1.615,1.615,0,0,1,33.622,36.823Z" stroke="#6f6f6f" stroke-miterlimit="10" stroke-width="0.646" fill="url(#linear-gradient-9)"/>
    <path id="line76-4" d="M8.112,14.542H30.07" fill="none" stroke="#6f6f6f" stroke-miterlimit="10" stroke-width="0.646"/>
    <path id="rect78-7" d="M16.83,30.365H27.164v7.1H16.83Z" fill="none"/>
  </g>
</svg>
