<svg id="Layer_1" data-name="Layer 1" xmlns="http://www.w3.org/2000/svg" xmlns:xlink="http://www.w3.org/1999/xlink" viewBox="0 0 48 48">
  <defs>
    <linearGradient id="linear-gradient" x1="19.936" y1="20.996" x2="47.999" y2="-0.042" gradientTransform="matrix(1, 0, 0, -1, 0, 48)" gradientUnits="userSpaceOnUse">
      <stop offset="0" stop-color="#fff"/>
      <stop offset="0.221" stop-color="#f8f8f8"/>
      <stop offset="0.541" stop-color="#e5e5e5"/>
      <stop offset="0.92" stop-color="#c6c6c6"/>
      <stop offset="1" stop-color="#bebebe"/>
    </linearGradient>
    <linearGradient id="linear-gradient-2" x1="10.403" y1="53.446" x2="38.424" y2="25.355" gradientTransform="matrix(1, 0, 0, -1, 0, 48)" gradientUnits="userSpaceOnUse">
      <stop offset="0" stop-color="#73b4c8"/>
      <stop offset="0.175" stop-color="#6aaec3"/>
      <stop offset="0.457" stop-color="#529eb5"/>
      <stop offset="0.809" stop-color="#2c839f"/>
      <stop offset="1" stop-color="#147391"/>
    </linearGradient>
    <linearGradient id="linear-gradient-3" x1="-7.981" y1="7.417" x2="39.833" y2="41.414" gradientTransform="translate(0 2)" gradientUnits="userSpaceOnUse">
      <stop offset="0" stop-color="#fff"/>
      <stop offset="1" stop-color="#dcdcdc"/>
    </linearGradient>
    <linearGradient id="linear-gradient-4" x1="12.893" y1="27.811" x2="31.424" y2="6.506" xlink:href="#linear-gradient-2"/>
    <linearGradient id="linear-gradient-5" x1="19.721" y1="11.227" x2="25.449" y2="3.883" xlink:href="#linear-gradient-2"/>
  </defs>
  <g id="g927">
    <path id="path13-2" d="M.648,14V45.024a2.341,2.341,0,0,0,2.341,2.342H45.136a2.341,2.341,0,0,0,2.341-2.342V14Z" fill="url(#linear-gradient)"/>
    <path id="path26-6" d="M47.477,14.585V2.878A2.34,2.34,0,0,0,45.136.537H2.989A2.342,2.342,0,0,0,.648,2.878V14.585Z" stroke="#147391" stroke-miterlimit="10" stroke-width="1.171" fill="url(#linear-gradient-2)"/>
    <path id="circle42-4" d="M17.038,6.951a1.756,1.756,0,0,1-1.756,1.756h0a1.756,1.756,0,1,1,0-3.512h0a1.756,1.756,0,0,1,1.756,1.756Z" fill="#fff" stroke="#147391" stroke-miterlimit="10" stroke-width="1.184"/>
    <path id="circle44-1" d="M17.038,6.976a1.756,1.756,0,0,1-1.756,1.756h0a1.756,1.756,0,0,1,0-3.512h0a1.756,1.756,0,0,1,1.756,1.756Z" fill="#fff" stroke="#147391" stroke-miterlimit="10" stroke-width="1.184"/>
    <path id="circle46-3" d="M34.6,6.976a1.756,1.756,0,0,1-1.756,1.756h0a1.756,1.756,0,0,1-1.756-1.756h0A1.756,1.756,0,0,1,32.843,5.22h0A1.756,1.756,0,0,1,34.6,6.976Z" fill="#fff" stroke="#147391" stroke-miterlimit="10" stroke-width="1.184"/>
    <path id="path48-2" d="M47.414,45.073V2.927A2.34,2.34,0,0,0,45.073.585H2.927A2.341,2.341,0,0,0,.585,2.927V45.073a2.341,2.341,0,0,0,2.342,2.342H45.073A2.34,2.34,0,0,0,47.414,45.073Z" fill="none" stroke="#464646" stroke-miterlimit="10" stroke-width="1.171"/>
    <path id="path45" d="M8.051,44.331H41.327V20.962H21.361l-2.518-3.618a1.5,1.5,0,0,0-1.231-.631H9.53a1.448,1.448,0,0,0-1.479,1.416h0Z" stroke="#464646" stroke-miterlimit="10" stroke-width="0.724" fill="url(#linear-gradient-3)"/>
    <path id="path836-5" d="M25,22.42A1.758,1.758,0,0,0,23.406,24.3h0A1.758,1.758,0,0,0,25,26.188,1.758,1.758,0,0,0,26.594,24.3h0A1.758,1.758,0,0,0,25,22.42ZM25,23a1.187,1.187,0,0,1,1.014,1.3h0A1.187,1.187,0,0,1,25,25.608a1.187,1.187,0,0,1-1.014-1.3A1.187,1.187,0,0,1,25,23Z" fill="#464646"/>
    <path id="path864-3" d="M24.984,24.291h-.018l-.543.019-.478.042-.363.031-.343.062-.384.084-.353.114-.259.114-.271.135-.332.207-.291.25L21.1,25.6l-.228.343-.187.394-.1.274-.07.234-.091.393-.056.338-.044.3-.047.384-.034.345-.025.471-.019.308-.021.342-.015.33-.026.521-.04.481-.03.283-.018.267-.062.532a1.269,1.269,0,0,0-.019.158c0,.046-.044.276-.044.276l-.041.253s-.069.334-.073.349-.054.238-.054.238l-.1.368-.066.271-.077.253-.055.173-.1.278-.091.251-.1.242-.111.242-.117.231-.114.231s-.117.187-.117.2a1.539,1.539,0,0,1-.08.158l-.144.242a1.4,1.4,0,0,0-.1.155,1.83,1.83,0,0,1-.117.172l-.2.308-.122.173-.106.132-.1.117-.118.147-.125.166-.113.169-.069.135,7.645.041H25l7.646-.041-.07-.135-.114-.169-.125-.166-.117-.147-.1-.117-.106-.132L31.9,37.2l-.207-.308a1.83,1.83,0,0,1-.117-.172,1.4,1.4,0,0,0-.1-.155l-.143-.242a1.642,1.642,0,0,1-.081-.158c0-.015-.118-.2-.118-.2l-.114-.231-.117-.232-.11-.241-.1-.242-.091-.251-.1-.278-.056-.173-.076-.253-.067-.272-.095-.367s-.051-.224-.055-.238-.073-.349-.073-.349l-.041-.254S30,32.348,30,32.3a1.325,1.325,0,0,0-.018-.158l-.062-.532-.019-.267-.029-.283-.041-.481L29.8,30.06l-.014-.331-.023-.341-.018-.308-.026-.471-.033-.345-.048-.384-.044-.3-.054-.338-.093-.393-.07-.234-.1-.275-.186-.393-.229-.343-.249-.249-.291-.25-.332-.207-.269-.135-.26-.114-.353-.114-.385-.084-.342-.062-.364-.031-.477-.042L25,24.292Z" stroke="#464646" stroke-width="0.578" fill="url(#linear-gradient-4)"/>
    <path id="path1095-7-1" d="M35.374,34.139l-.519.3a4.334,4.334,0,0,1,0,6.377l.522.3a4.9,4.9,0,0,0,0-6.978Z" fill="#464646"/>
    <path id="path990-2-9-0-9" d="M34.323,34.745l-.54.312a3.179,3.179,0,0,1,0,5.142l.539.311a3.754,3.754,0,0,0,0-5.765Z" fill="#464646"/>
    <path id="path1095-7-4-8" d="M14.993,33.8l.518.3a4.336,4.336,0,0,0,0,6.377l-.522.3a4.9,4.9,0,0,1,0-6.977Z" fill="#464646"/>
    <path id="path990-2-9-0-6-7" d="M16.043,34.406l.54.313a3.178,3.178,0,0,0,0,5.141l-.538.311a3.753,3.753,0,0,1,0-5.765Z" fill="#464646"/>
    <path id="path850-9" d="M20.363,35.448l.747-.2.349-1.526.158-.815.122-.869.123-1.232.05-.837L22,27.941l.049-.412.073-.507.081-.308.077-.218.132-.267-.132.077-.163.136-.136.154-.09.145-.109.226-.081.209-.077.271-.073.34-.054.425-.059.44-.059.783-.063.81-.059.811-.082.783-.1.82-.1.625-.095.461-.1.394-.109.381-.131.448Z" fill="#fff"/>
    <path id="path1030-9" d="M33.139,38.6c0,.843-3.646,1.526-8.144,1.526h0c-4.5,0-8.144-.683-8.144-1.526h0c0-.843,3.646-1.527,8.144-1.527h0c4.5,0,8.144.684,8.144,1.527Z" fill="#464646"/>
    <path id="path834-5" d="M32.212,38.673c0,.5-3.264.9-7.29.9s-7.29-.4-7.29-.9,3.264-.9,7.29-.9h0c4.026,0,7.29.4,7.29.9Z" fill="#b7b4b3"/>
    <path id="path818-3" d="M21.882,42.984a1.3,1.3,0,0,1-.652-.4,1.169,1.169,0,0,1-.329-.618,1.339,1.339,0,0,1,1.025-1.529.27.27,0,0,0,.162-.078c.01-.026.093-.479.183-1.007l.243-1.692c.4-.03.388.019.945.019a6.173,6.173,0,0,0-.32,1.247c-.049.28-.133.756-.186,1.058l-.1.548.228.194a1.242,1.242,0,0,1,.39,1.427,1.813,1.813,0,0,1-.21.378,1.541,1.541,0,0,1-.757.451.96.96,0,0,1-.625,0Z" stroke="#464646" stroke-linejoin="round" stroke-width="0.411" fill="url(#linear-gradient-5)"/>
    <path id="rect1051" d="M9.369,45.636h1.193v1.193H9.369Z" fill="#6e6e6e"/>
    <path id="rect1051-0" d="M18.738,45.636h1.194v1.193H18.738Z" fill="#6e6e6e"/>
    <path id="rect1051-8" d="M28.12,45.636h1.193v1.193H28.12Z" fill="#6e6e6e"/>
    <path id="rect1051-2" d="M37.455,45.636h1.193v1.193H37.455Z" fill="#6e6e6e"/>
    <path id="rect1051-9" d="M44.011,38.609h2.838v1.215H44.011Z" fill="#6e6e6e"/>
    <path id="rect1051-9-0" d="M44,30.455h2.838v1.193H44Z" fill="#6e6e6e"/>
    <path id="rect1051-9-0-6" d="M44,22.213h2.838v1.193H44Z" fill="#6e6e6e"/>
    <path id="rect1051-9-0-8" d="M37.444,15.164h1.237V19H37.444Z" fill="#6e6e6e"/>
    <path id="rect1051-9-0-8-9" d="M28.063,15.164H29.3V19H28.063Z" fill="#6e6e6e"/>
    <path id="rect1051-9-0-8-8-6-1" d="M1.149,22.191h4.91v1.193H1.149Z" fill="#6e6e6e"/>
    <path id="rect1051-9-0-8-8-6-9" d="M1.168,38.615h4.91v1.193H1.168Z" fill="#6e6e6e"/>
    <path id="rect1051-9-0-8-8-6-1-0" d="M1.149,30.455h4.91v1.193H1.149Z" fill="#6e6e6e"/>
  </g>
</svg>
