<svg id="Image" xmlns="http://www.w3.org/2000/svg" xmlns:xlink="http://www.w3.org/1999/xlink" viewBox="0 0 48 48">
  <defs>
    <linearGradient id="Siemens_-_Light_gray" data-name="Siemens - Light gray" x1="8.366" y1="8.402" x2="39.632" y2="39.667" gradientUnits="userSpaceOnUse">
      <stop offset="0" stop-color="#fff"/>
      <stop offset="1" stop-color="#dcdcdc"/>
    </linearGradient>
    <linearGradient id="Siemens_-_Dark_blue" data-name="Siemens - Dark blue" x1="14.363" y1="34.502" x2="33.637" y2="53.777" gradientUnits="userSpaceOnUse">
      <stop offset="0" stop-color="#73b4c8"/>
      <stop offset="1" stop-color="#177491"/>
    </linearGradient>
    <linearGradient id="Siemens_-_Dark_blue-2" x1="14.345" y1="-5.759" x2="33.655" y2="13.551" xlink:href="#Siemens_-_Dark_blue"/>
  </defs>
  <g>
    <g>
      <path d="M30,21.762A18.317,18.317,0,0,0,38.3,7.675a1.284,1.284,0,0,0-1.291-1.349H10.98A1.276,1.276,0,0,0,9.7,7.668a18.322,18.322,0,0,0,8.31,14.1,2.719,2.719,0,0,1,0,4.545A18.32,18.32,0,0,0,9.7,40.4a1.283,1.283,0,0,0,1.29,1.35H37.013A1.284,1.284,0,0,0,38.3,40.4,18.319,18.319,0,0,0,30,26.309,2.721,2.721,0,0,1,30,21.762Z" fill="url(#Siemens_-_Light_gray)"/>
      <path d="M37.013,42.246H10.987a1.816,1.816,0,0,1-1.324-.578A1.72,1.72,0,0,1,9.2,40.36a18.918,18.918,0,0,1,8.536-14.471,2.22,2.22,0,0,0,0-3.706A18.925,18.925,0,0,1,9.2,7.7a1.718,1.718,0,0,1,.466-1.3,1.8,1.8,0,0,1,1.316-.574H37.013a1.811,1.811,0,0,1,1.323.577A1.723,1.723,0,0,1,38.8,7.711a18.925,18.925,0,0,1-8.536,14.472h0a2.219,2.219,0,0,0,0,3.706A18.918,18.918,0,0,1,38.8,40.36a1.723,1.723,0,0,1-.467,1.309A1.815,1.815,0,0,1,37.013,42.246ZM10.979,6.826a.8.8,0,0,0-.584.256.727.727,0,0,0-.2.55,17.913,17.913,0,0,0,8.082,13.711,3.221,3.221,0,0,1,0,5.386,17.909,17.909,0,0,0-8.081,13.7.727.727,0,0,0,.2.554.813.813,0,0,0,.591.259H37.013a.813.813,0,0,0,.591-.259.732.732,0,0,0,.2-.554,17.909,17.909,0,0,0-8.081-13.7,3.22,3.22,0,0,1,0-5.386,17.914,17.914,0,0,0,8.081-13.7.736.736,0,0,0-.2-.556.812.812,0,0,0-.591-.258Z" fill="#bebdbd"/>
    </g>
    <g>
      <rect x="6.5" y="41.779" width="35" height="4.721" rx="1" ry="1" fill="url(#Siemens_-_Dark_blue)"/>
      <path d="M40.5,47H7.5A1.5,1.5,0,0,1,6,45.5V42.779a1.5,1.5,0,0,1,1.5-1.5h33a1.5,1.5,0,0,1,1.5,1.5V45.5A1.5,1.5,0,0,1,40.5,47Zm-33-4.721a.5.5,0,0,0-.5.5V45.5a.5.5,0,0,0,.5.5h33a.5.5,0,0,0,.5-.5V42.779a.5.5,0,0,0-.5-.5Z" fill="#177491"/>
    </g>
    <g>
      <rect x="6.5" y="1.5" width="35" height="4.792" rx="1" ry="1" fill="url(#Siemens_-_Dark_blue-2)"/>
      <path d="M40.5,6.792H7.5A1.5,1.5,0,0,1,6,5.292V2.5A1.5,1.5,0,0,1,7.5,1h33A1.5,1.5,0,0,1,42,2.5V5.292A1.5,1.5,0,0,1,40.5,6.792ZM7.5,2a.5.5,0,0,0-.5.5V5.292a.5.5,0,0,0,.5.5h33a.5.5,0,0,0,.5-.5V2.5a.5.5,0,0,0-.5-.5Z" fill="#177491"/>
    </g>
  </g>
</svg>
