<svg id="Image" xmlns="http://www.w3.org/2000/svg" xmlns:xlink="http://www.w3.org/1999/xlink" viewBox="0 0 48 48">
  <defs>
    <linearGradient id="Sfumatura_senza_nome_9" data-name="Sfumatura senza nome 9" x1="7.427" y1="7.118" x2="46.346" y2="46.037" gradientUnits="userSpaceOnUse">
      <stop offset="0" stop-color="#afd7e1"/>
      <stop offset="1" stop-color="#73b4c8"/>
    </linearGradient>
    <linearGradient id="Nuovo_campione_sfumatura_1" data-name="Nuovo campione sfumatura 1" x1="11.025" y1="21.026" x2="36.473" y2="46.474" gradientUnits="userSpaceOnUse">
      <stop offset="0" stop-color="#73b4c8"/>
      <stop offset="1" stop-color="#177492"/>
    </linearGradient>
  </defs>
  <g>
    <g>
      <polygon points="1.5 45.883 1.5 13.045 11.23 20.883 14.138 20.883 14.138 13.045 23.868 20.883 26.775 20.883 26.775 13.045 36.506 20.883 38.5 20.883 38.5 1.5 46.5 1.5 46.5 45.883 1.5 45.883" fill="url(#Sfumatura_senza_nome_9)"/>
      <path d="M46,2V45.383H2V14.09l8.78,7.072.274.221h3.584V14.09l8.779,7.072.275.221h3.584V14.09l8.779,7.072.275.221H39V2h7m1-1H38V20.383H36.683L26.276,12v8.383H24.045L13.638,12v8.383H11.407L1,12V46.383H47V1Z" fill="#177491"/>
    </g>
    <g>
      <path d="M12,43.5a3.6,3.6,0,0,1-.708-.071,3.449,3.449,0,0,1-1.248-.527,3.57,3.57,0,0,1-.518-.426,3.5,3.5,0,0,1,0-4.95,3.56,3.56,0,0,1,.518-.428,3.455,3.455,0,0,1,1.251-.527A3.56,3.56,0,0,1,12,36.5a3.488,3.488,0,0,1,3.087,1.887l.242.463-.01,0,.083.36a3.41,3.41,0,0,1,.1.785A3.5,3.5,0,0,1,12,43.5Zm27-1a3.6,3.6,0,0,1-.708-.071,3.449,3.449,0,0,1-1.248-.527,3.57,3.57,0,0,1-.518-.426,3.422,3.422,0,0,1-.917-3.3l.115-.468.015.005.191-.355a3.49,3.49,0,0,1,.594-.831,3.623,3.623,0,0,1,.519-.428,3.455,3.455,0,0,1,1.251-.527A3.56,3.56,0,0,1,39,35.5a3.5,3.5,0,0,1,0,7Zm-15-2a6.48,6.48,0,0,1-5.456-2.974l-.259-.4,0,0-.19-.412a6.3,6.3,0,0,1-.5-3.784l.072-.437-.009,0,.149-.465a6.5,6.5,0,0,1,11.617-1.6l.282.428-.009.006.18.381A6.443,6.443,0,0,1,30.5,34a6.541,6.541,0,0,1-.218,1.645l-.123.472,1.117.32-1.113-.319-.172.408A6.491,6.491,0,0,1,24,40.5Zm-16-8a3.6,3.6,0,0,1-.708-.071A3.449,3.449,0,0,1,6.044,31.9a3.57,3.57,0,0,1-.518-.426,3.5,3.5,0,0,1,0-4.95,3.56,3.56,0,0,1,.518-.428,3.455,3.455,0,0,1,1.251-.527A3.56,3.56,0,0,1,8,25.5,3.5,3.5,0,0,1,11.5,29a3.46,3.46,0,0,1-.19,1.083l-.162.489h0l-.2.315A3.487,3.487,0,0,1,8,32.5Zm27-2a3.6,3.6,0,0,1-.708-.071,3.449,3.449,0,0,1-1.248-.527,3.57,3.57,0,0,1-.518-.426l-.3-.3-.387.182.355-.249-.286-.5a2.066,2.066,0,0,1-.136-.254,3.5,3.5,0,0,1,.75-3.837,3.557,3.557,0,0,1,.519-.428,3.469,3.469,0,0,1,1.25-.526A3.5,3.5,0,1,1,35,30.5Z" fill="url(#Nuovo_campione_sfumatura_1)"/>
      <path d="M35,24a3,3,0,0,1,0,6,3.068,3.068,0,0,1-.606-.061,2.971,2.971,0,0,1-1.071-.451,3.03,3.03,0,0,1-.41-.333l-.025-.032-.042-.044-.233-.242-.208-.366-.065-.113a1.683,1.683,0,0,1-.105-.191,3,3,0,0,1,2.159-4.106A3.068,3.068,0,0,1,35,24M8,26a3,3,0,0,1,3,3,2.964,2.964,0,0,1-.166.928l-.132.4-.183.283A2.987,2.987,0,0,1,8,32a3.068,3.068,0,0,1-.606-.061,3,3,0,0,1,0-5.878A3.068,3.068,0,0,1,8,26m16,2a5.991,5.991,0,0,1,5.009,2.7l.219.332.2.421A5.938,5.938,0,0,1,30,34a6.033,6.033,0,0,1-.2,1.518l-.123.471-.145.342a6,6,0,0,1-10.566.923l-.226-.349-.185-.4a5.81,5.81,0,0,1-.463-3.493l.077-.465.118-.369A5.979,5.979,0,0,1,24,28m15,8a3,3,0,0,1,0,6,3.068,3.068,0,0,1-.606-.061A3,3,0,0,1,36,39a2.931,2.931,0,0,1,.1-.708l.083-.342.192-.357a2.916,2.916,0,0,1,2.023-1.532A3.068,3.068,0,0,1,39,36M12,37a2.985,2.985,0,0,1,2.643,1.619l.195.371.077.336A2.968,2.968,0,0,1,12,43a3.068,3.068,0,0,1-.606-.061,3,3,0,0,1,0-5.878A3.068,3.068,0,0,1,12,37M35,23a4.035,4.035,0,0,0-.806.081,4,4,0,0,0-2.88,5.476,3.921,3.921,0,0,0,.222.408L29.843,30.15h0a7,7,0,0,0-12.511,1.721l-5.548-1.632h0A3.946,3.946,0,0,0,12,29a4.021,4.021,0,1,0-.64,2.156L17.1,32.845A7.1,7.1,0,0,0,17,34a6.966,6.966,0,0,0,.644,2.92l-2.115,1.234h0A3.985,3.985,0,0,0,12,36a4.035,4.035,0,0,0-.806.081,4,4,0,0,0,0,7.838A4,4,0,0,0,16,40a3.979,3.979,0,0,0-.11-.9l2.235-1.3h0A7,7,0,0,0,30.452,36.72h0l4.672,1.335a3.99,3.99,0,0,0,3.07,4.864,4,4,0,1,0,0-7.838,3.874,3.874,0,0,0-2.7,2.039l-4.725-1.35a6.879,6.879,0,0,0-.434-4.742l1.794-1.256c.017.018.029.039.047.056a3.991,3.991,0,0,0,2.022,1.091A4,4,0,1,0,35,23Z" fill="#177491"/>
    </g>
  </g>
</svg>
