<svg version="1.1" id="Layer_1" xmlns="http://www.w3.org/2000/svg" xmlns:xlink="http://www.w3.org/1999/xlink" x="0px" y="0px"
	 viewBox="0 0 48 48" enable-background="new 0 0 48 48" xml:space="preserve">
<path fill="#464646" d="M32.5,5c-0.5-0.6-1.2-1-2-1H29V3.5C29,1.6,27.4,0,25.5,0h-3C20.6,0,19,1.6,19,3.5V4h-1.5c-0.8,0-1.5,0.4-2,1
	H6v43h36V5H32.5z"/>
<linearGradient id="SVGID_1_" gradientUnits="userSpaceOnUse" x1="24" y1="9" x2="24" y2="1">
	<stop  offset="0" style="stop-color:#BEBEBE"/>
	<stop  offset="4.540378e-02" style="stop-color:#C4C4C4"/>
	<stop  offset="0.2676" style="stop-color:#DEDEDE"/>
	<stop  offset="0.497" style="stop-color:#F0F0F0"/>
	<stop  offset="0.7361" style="stop-color:#FBFBFB"/>
	<stop  offset="1" style="stop-color:#FFFFFF"/>
</linearGradient>
<path fill="url(#SVGID_1_)" d="M16,9h16V6.5C32,5.7,31.3,5,30.5,5H28V3.5C28,2.1,26.9,1,25.5,1h-3C21.1,1,20,2.1,20,3.5V5h-2.5
	C16.7,5,16,5.7,16,6.5V9z"/>
<circle fill="#464646" cx="24" cy="4" r="1"/>
<linearGradient id="SVGID_2_" gradientUnits="userSpaceOnUse" x1="5.25" y1="7.75" x2="42.75" y2="45.25">
	<stop  offset="0" style="stop-color:#FFFFFF"/>
	<stop  offset="0.2214" style="stop-color:#F8F8F8"/>
	<stop  offset="0.5415" style="stop-color:#E5E5E5"/>
	<stop  offset="0.92" style="stop-color:#C6C6C6"/>
	<stop  offset="1" style="stop-color:#BEBEBE"/>
</linearGradient>
<path fill="url(#SVGID_2_)" d="M32.9,6C33,6.2,33,6.3,33,6.5V10H15V6.5c0-0.2,0-0.3,0.1-0.5H7v41h34V6H32.9z"/>
<polygon fill="#BEBEBE" points="33,8 33,10 15,10 15,8 9,8 9,45 39,45 39,8 "/>
<linearGradient id="SVGID_3_" gradientUnits="userSpaceOnUse" x1="8.25" y1="10.75" x2="39.75" y2="42.25">
	<stop  offset="0" style="stop-color:#FFFFFF"/>
	<stop  offset="0.3355" style="stop-color:#F8F8F8"/>
	<stop  offset="0.8196" style="stop-color:#E5E5E5"/>
	<stop  offset="1" style="stop-color:#DCDCDC"/>
</linearGradient>
<polygon fill="url(#SVGID_3_)" points="33,9 33,10 15,10 15,9 10,9 10,44 38,44 38,9 "/>
	<path fill="#147391" d="M31.6,17.5L20.8,30.8L15.9,25l-3.1,2.6l8,9.7L34.7,20L31.6,17.5L31.6,17.5z"/>
<polygon fill="#3C91AF" points="20.8,35.6 14.2,27.6 15.8,26.4 20.8,32.4 31.7,18.9 33.3,20.1 "/>
</svg>
