<svg id="Image" xmlns="http://www.w3.org/2000/svg" xmlns:xlink="http://www.w3.org/1999/xlink" viewBox="0 0 48 48">
  <defs>
    <linearGradient id="Siemens_-_Light_gray_4" data-name="Siemens - Light gray 4" x1="12.641" y1="21.736" x2="35.358" y2="44.453" gradientUnits="userSpaceOnUse">
      <stop offset="0" stop-color="#fff"/>
      <stop offset="1" stop-color="#dadada"/>
    </linearGradient>
    <linearGradient id="Siemens_-_Dark_blue" data-name="Siemens - Dark blue" x1="46.828" y1="99.385" x2="61.207" y2="99.385" gradientTransform="matrix(0.707, 0.707, -0.756, 0.756, 59.508, -92.111)" gradientUnits="userSpaceOnUse">
      <stop offset="0" stop-color="#73b4c8"/>
      <stop offset="1" stop-color="#177491"/>
    </linearGradient>
    <linearGradient id="Siemens_-_Light_gray" data-name="Siemens - Light gray" x1="30.151" y1="12.773" x2="20.304" y2="22.619" gradientTransform="matrix(-1, 0, 0, 1, 48, 0)" gradientUnits="userSpaceOnUse">
      <stop offset="0" stop-color="#fff"/>
      <stop offset="1" stop-color="#dcdcdc"/>
    </linearGradient>
    <linearGradient id="Siemens_-_Dark_gray" data-name="Siemens - Dark gray" x1="20.626" y1="22.811" x2="8.841" y2="34.596" gradientTransform="matrix(-1, 0, 0, 1, 48, 0)" gradientUnits="userSpaceOnUse">
      <stop offset="0" stop-color="#f2f2f2"/>
      <stop offset="1" stop-color="#999"/>
    </linearGradient>
    <linearGradient id="Siemens_-_Dark_gray-2" x1="32.852" y1="8.676" x2="29.338" y2="12.19" xlink:href="#Siemens_-_Dark_gray"/>
  </defs>
  <g>
    <g id="Plane">
      <g>
        <path d="M24.013,46.5a.673.673,0,0,1-.358-.1L1.767,33.557A.541.541,0,0,1,1.5,33.1a.547.547,0,0,1,.272-.468L23.643,19.607a.688.688,0,0,1,.37-.107.673.673,0,0,1,.36.1L46.236,32.635a.539.539,0,0,1,.264.462.548.548,0,0,1-.276.465L24.378,46.4A.688.688,0,0,1,24.013,46.5Z" fill="url(#Siemens_-_Light_gray_4)"/>
        <path d="M24.012,20a.207.207,0,0,1,.114.036L45.964,33.054c.013.009.036.025.036.041s-.022.031-.021.031h0L24.108,45.975a.191.191,0,0,1-.1.025.206.206,0,0,1-.113-.036L2.037,33.136C2.023,33.127,2,33.11,2,33.1s.02-.03.02-.03h0l21.9-13.039a.179.179,0,0,1,.1-.026m0-1a1.184,1.184,0,0,0-.625.177L1.508,32.205a1.033,1.033,0,0,0,.006,1.783L23.393,46.827a1.194,1.194,0,0,0,1.238,0L46.486,33.988a1.033,1.033,0,0,0,.006-1.783L24.638,19.177A1.187,1.187,0,0,0,24.012,19Z" fill="#4f4b49"/>
      </g>
    </g>
    <g>
      <path d="M11.463,35.883c-.115,0-.234-.006-.354-.018A3.576,3.576,0,0,1,7.9,32.716a1.713,1.713,0,0,1,.189-1.264L24.932,15.084a.631.631,0,0,0,.323-.6.551.551,0,0,0-.008-.107c-.095-.517-.852-5.126,1.552-7.529a7.831,7.831,0,0,1,5.35-2.357c.125,0,.25-.008.374-.008a2.648,2.648,0,0,1,.546.046,3.717,3.717,0,0,1,.441.43L30.268,8.2a.5.5,0,0,0-.1.146c-1.557,3.411-1.513,3.456-1.226,3.743L31.7,14.847a.5.5,0,0,0,.354.147.516.516,0,0,0,.176-.032L35.3,13.805a.49.49,0,0,0,.178-.116C35.509,13.663,38,11.157,38.9,10.3a2.283,2.283,0,0,1,.426.471,8.093,8.093,0,0,1-2.4,6.317,7.07,7.07,0,0,1-4.786,1.708c-.153,0-.31.007-.471.007a16.546,16.546,0,0,1-2.37-.171.708.708,0,0,0-.608.236L12.422,35.611A1.386,1.386,0,0,1,11.463,35.883Zm.278-4.914a1.153,1.153,0,0,0-.806,1.927,1.02,1.02,0,0,0,.753.32,1.25,1.25,0,0,0,.826-.349,1.153,1.153,0,0,0,.347-.779,1.067,1.067,0,0,0-.318-.8,1.022,1.022,0,0,0-.755-.319Z" fill="url(#Siemens_-_Dark_blue)"/>
      <path d="M32.523,4.986c.093,0,.174,0,.247.008L29.914,7.85a1,1,0,0,0-.2.292c-1.574,3.446-1.7,3.727-1.125,4.3L31.341,15.2a1,1,0,0,0,1.059.229l3.079-1.157a1,1,0,0,0,.358-.231c.023-.024,1.925-1.938,3-2.989a7.652,7.652,0,0,1-2.257,5.672,6.591,6.591,0,0,1-4.459,1.569c-.147,0-.3.007-.455.007a16.028,16.028,0,0,1-2.293-.166,1.042,1.042,0,0,0-.148-.011h-.033a1.162,1.162,0,0,0-.865.4L12.074,35.253a1,1,0,0,1-.61.13,2.869,2.869,0,0,1-.3-.016A3.075,3.075,0,0,1,8.4,32.657a1.9,1.9,0,0,1,.034-.841l16.8-16.328a1.125,1.125,0,0,0,.52-.985,1,1,0,0,0-.016-.212c-.325-1.782-.393-5.281,1.413-7.087a7.339,7.339,0,0,1,5.014-2.21c.119,0,.238-.008.357-.008M11.691,33.716h.06a1.732,1.732,0,0,0,1.116-.494,1.652,1.652,0,0,0,.494-1.116,1.566,1.566,0,0,0-.464-1.171,1.524,1.524,0,0,0-1.111-.466h-.06a1.6,1.6,0,0,0-1.116.494,1.656,1.656,0,0,0-.494,1.116,1.563,1.563,0,0,0,.465,1.171,1.522,1.522,0,0,0,1.11.466M39.372,10.538h0M32.523,3.986c-.13,0-.26,0-.391.009a8.354,8.354,0,0,0-5.687,2.5c-2.393,2.393-1.915,6.736-1.69,7.973,0,.089-.006.178-.095.181L7.736,31.1a2.077,2.077,0,0,0-.33,1.677,4.057,4.057,0,0,0,3.654,3.586,3.978,3.978,0,0,0,.4.021,1.834,1.834,0,0,0,1.317-.423L29.044,19.219c.092-.092.092-.092.181-.1a16.948,16.948,0,0,0,2.441.177c.167,0,.331,0,.489-.008a7.543,7.543,0,0,0,5.132-1.861,8.606,8.606,0,0,0,2.519-6.776c-.008-.2-.457-.631-.727-.869a.268.268,0,0,0-.177-.066.311.311,0,0,0-.212.086c-.77.718-3.562,3.53-3.562,3.53l-3.08,1.157-2.754-2.755c-.086-.086,1.327-3.182,1.327-3.182l3.313-3.313a.407.407,0,0,0,.1-.448c-.085-.086-.657-.748-.838-.748h0a3.136,3.136,0,0,0-.675-.062ZM11.691,32.716a.523.523,0,0,1-.4-.173.654.654,0,0,1,.471-1.074h.027a.526.526,0,0,1,.4.173.6.6,0,0,1-.03.873.717.717,0,0,1-.442.2Z" fill="#464646"/>
    </g>
    <polygon points="18.498 12.124 17.384 13.276 27.048 23.268 28.161 22.114 18.498 12.124" stroke="#474647" stroke-miterlimit="10" fill="url(#Siemens_-_Light_gray)"/>
    <path d="M26.939,25.236,30.066,22l9.942,9.256a1.8,1.8,0,0,1-.021,2.451l-1.724,1.783a1.653,1.653,0,0,1-2.392,0Zm-.516-1.243a1.061,1.061,0,0,1,.283-.449l.4-.414,1.5-1.556a.686.686,0,0,1,.968-.026l.488.455-3.127,3.233-.44-.5A.826.826,0,0,1,26.423,23.993Z" stroke="#474647" stroke-miterlimit="10" fill="url(#Siemens_-_Dark_gray)"/>
    <path d="M19.8,9.066l-.83-.858-.836-.865a13.309,13.309,0,0,1,2.453-1.278,26.229,26.229,0,0,1,3.6-.792C23.305,5.765,20.531,7.315,19.8,9.066Zm-5,5.955-.171-.176-2.068-2.139-.171-.176a.682.682,0,0,1,0-.94l4.481-4.633a.629.629,0,0,1,.909,0L20.187,9.45a.682.682,0,0,1,0,.939L18.914,11.7l0,0-.308.319-2.9,3A.645.645,0,0,1,14.8,15.021Zm-.579-.6-1.73,1.789-.626-.647-.625-.647,1.73-1.788Zm-5.1.557.476-.492a.794.794,0,0,1,1.149,0l1.085,1.121,1.034,1.07h0l.051.053a.859.859,0,0,1,0,1.187l-.476.492Z" stroke="#474647" stroke-linejoin="round" fill="url(#Siemens_-_Dark_gray-2)"/>
  </g>
</svg>
