<svg id="svg53" xmlns="http://www.w3.org/2000/svg" xmlns:xlink="http://www.w3.org/1999/xlink" viewBox="0 0 48 48">
  <defs>
    <linearGradient id="linear-gradient" x1="12.642" y1="26.263" x2="35.359" y2="3.546" gradientTransform="matrix(1, 0, 0, -1, 0, 48)" gradientUnits="userSpaceOnUse">
      <stop offset="0" stop-color="#fff"/>
      <stop offset="1" stop-color="#dadada"/>
    </linearGradient>
    <linearGradient id="linear-gradient-2" x1="8.947" y1="42.402" x2="47.866" y2="3.483" gradientTransform="matrix(1, 0, 0, -1, 0, 48)" gradientUnits="userSpaceOnUse">
      <stop offset="0" stop-color="#afd7e1"/>
      <stop offset="1" stop-color="#73b4c8"/>
    </linearGradient>
    <linearGradient id="linear-gradient-3" x1="14.241" y1="30.19" x2="39.689" y2="4.742" gradientTransform="matrix(1, 0, 0, -1, 0, 48)" gradientUnits="userSpaceOnUse">
      <stop offset="0" stop-color="#73b4c8"/>
      <stop offset="1" stop-color="#177492"/>
    </linearGradient>
  </defs>
  <g id="g852">
    <g id="Plane">
      <g id="g35">
        <path id="path31" d="M24.013,46.5a.677.677,0,0,1-.358-.1L1.767,33.557A.539.539,0,0,1,1.5,33.1a.547.547,0,0,1,.272-.468L23.643,19.607a.693.693,0,0,1,.37-.107.672.672,0,0,1,.36.1L46.236,32.635a.54.54,0,0,1,.264.462.549.549,0,0,1-.276.465L24.378,46.4A.689.689,0,0,1,24.013,46.5Z" fill="url(#linear-gradient)"/>
        <path id="path33" d="M24.012,20a.211.211,0,0,1,.114.036L45.964,33.054c.013.009.036.025.036.041s-.022.031-.021.031h0L24.108,45.975a.193.193,0,0,1-.1.025.207.207,0,0,1-.113-.036L2.037,33.136C2.023,33.127,2,33.11,2,33.1s.02-.03.02-.03h0l21.9-13.039a.185.185,0,0,1,.1-.026m0-1a1.189,1.189,0,0,0-.625.177L1.508,32.205a1.033,1.033,0,0,0,.006,1.783L23.393,46.827a1.192,1.192,0,0,0,1.238,0L46.486,33.988a1.034,1.034,0,0,0,.006-1.783L24.638,19.177A1.192,1.192,0,0,0,24.012,19Z" fill="#4f4b49"/>
      </g>
    </g>
    <path id="polygon14" d="M33.409,5.493h5.356V35.21H8.635V13.223l6.515,5.248H17.1V13.223l6.515,5.248h1.946V13.223l6.516,5.248h1.335Z" fill="url(#linear-gradient-2)"/>
    <path id="path16" d="M38.43,5.828V34.875H8.97V14.322l5.878,4.736.184.148h2.4V14.322l5.878,4.736.184.148h2.4V14.122l5.879,4.936.184.148h2.087V5.828H38.43m.87-.87H33.074V18.336h-.882l-6.968-5.813v5.813H23.73l-6.968-5.813v5.813H15.268L8.1,12.523V35.945H39.3Z" fill="#177491"/>
    <g id="g24">
      <path id="path20" d="M15.665,33.615a2.435,2.435,0,0,1-.474-.048,2.367,2.367,0,0,1-1.182-.638,2.342,2.342,0,0,1,0-3.314h0a2.271,2.271,0,0,1,.347-.287,2.3,2.3,0,0,1,.837-.353,2.422,2.422,0,0,1,.472-.047,2.335,2.335,0,0,1,2.067,1.263l.162.31h-.006l.055.241a2.277,2.277,0,0,1,.067.526,2.344,2.344,0,0,1-2.34,2.347Zm18.078-.67a2.434,2.434,0,0,1-.474-.047,2.355,2.355,0,0,1-1.182-.639,2.29,2.29,0,0,1-.614-2.209l.077-.313.01,0,.128-.238a2.3,2.3,0,0,1,.4-.556,2.449,2.449,0,0,1,.347-.287,2.309,2.309,0,0,1,.838-.353,2.415,2.415,0,0,1,.472-.048,2.344,2.344,0,1,1,0,4.687ZM23.7,31.606a4.34,4.34,0,0,1-3.653-1.991l-.174-.268h0l-.127-.276a4.22,4.22,0,0,1-.335-2.534l.049-.292h-.006l.1-.312a4.353,4.353,0,0,1,7.779-1.071l.189.287-.006,0,.12.255a4.317,4.317,0,0,1,.417,1.846,4.4,4.4,0,0,1-.146,1.1l-.082.316.748.215-.745-.214-.116.273A4.346,4.346,0,0,1,23.7,31.606ZM12.987,26.249a2.434,2.434,0,0,1-.474-.047,2.327,2.327,0,0,1-.836-.354,2.431,2.431,0,0,1-.347-.286,2.344,2.344,0,0,1,0-3.314h0a2.431,2.431,0,0,1,.347-.286,2.309,2.309,0,0,1,.838-.353,2.406,2.406,0,0,1,.472-.047,2.344,2.344,0,0,1,2.343,2.344h0a2.294,2.294,0,0,1-.127.725l-.108.328h0l-.134.21A2.333,2.333,0,0,1,12.987,26.249ZM31.065,24.91a2.434,2.434,0,0,1-.474-.047,2.3,2.3,0,0,1-.835-.353,2.381,2.381,0,0,1-.347-.285l-.2-.2-.259.122.237-.167L29,23.644a1.318,1.318,0,0,1-.091-.17,2.343,2.343,0,0,1,.5-2.569,2.458,2.458,0,0,1,.348-.287,2.338,2.338,0,1,1,1.311,4.292Z" fill="url(#linear-gradient-3)"/>
      <path id="path22" d="M31.065,20.558a2.009,2.009,0,0,1,0,4.018,2.134,2.134,0,0,1-.406-.041,2,2,0,0,1-.717-.3,2.085,2.085,0,0,1-.274-.223l-.017-.022-.028-.029-.156-.162-.139-.245-.044-.076a1.219,1.219,0,0,1-.07-.128,2.009,2.009,0,0,1,1.068-2.632,2.083,2.083,0,0,1,.377-.117,2.056,2.056,0,0,1,.406-.041M12.987,21.9a1.976,1.976,0,0,1,1.9,2.63L14.8,24.8l-.122.19a2,2,0,0,1-1.687.93,2.056,2.056,0,0,1-.406-.041,2.009,2.009,0,0,1,0-3.936,2.056,2.056,0,0,1,.406-.041M23.7,23.236a4.013,4.013,0,0,1,3.354,1.808l.146.223.134.281a3.963,3.963,0,0,1,.383,1.706,4.009,4.009,0,0,1-.134,1.016l-.082.316-.1.229a4.019,4.019,0,0,1-7.075.618l-.151-.234-.124-.268a3.892,3.892,0,0,1-.31-2.339l.052-.311.079-.247a4,4,0,0,1,3.825-2.8m10.043,5.357a2.009,2.009,0,1,1,0,4.017,2.038,2.038,0,0,1-.405-.041,2.007,2.007,0,0,1-1.6-1.967,1.937,1.937,0,0,1,.067-.474l.055-.229.129-.239a1.951,1.951,0,0,1,1.354-1.026,2.026,2.026,0,0,1,.4-.041m-18.078.669a2,2,0,0,1,1.77,1.084l.13.249.052.225a1.987,1.987,0,0,1-1.457,2.4,1.965,1.965,0,0,1-.5.057,2.056,2.056,0,0,1-.406-.041,2.009,2.009,0,0,1,0-3.936,2.134,2.134,0,0,1,.406-.041m15.4-9.373a2.635,2.635,0,0,0-.539.054,2.6,2.6,0,0,0-1.78,3.94l-1.134.793h0a4.687,4.687,0,0,0-8.377,1.152l-3.714-1.092h0a2.638,2.638,0,0,0,.144-.83,2.69,2.69,0,1,0-.428,1.444l3.843,1.13a4.786,4.786,0,0,0-.067.774,4.681,4.681,0,0,0,.431,1.955l-1.416.826h0a2.668,2.668,0,0,0-2.363-1.442,2.707,2.707,0,0,0-.539.054,2.7,2.7,0,1,0,3.144,2.022l1.5-.871h0a4.687,4.687,0,0,0,8.254-.723h0l3.128.894A2.673,2.673,0,0,0,33.1,33.2l.1.023a2.678,2.678,0,1,0,1.072-5.248,2.651,2.651,0,0,0-1.072,0A2.6,2.6,0,0,0,31.4,29.343l-3.164-.9a4.606,4.606,0,0,0-.29-3.175l1.2-.841c.011.012.019.026.031.037a2.677,2.677,0,1,0,1.891-4.571Z" fill="#177491"/>
    </g>
  </g>
</svg>
