<svg id="Image" xmlns="http://www.w3.org/2000/svg" xmlns:xlink="http://www.w3.org/1999/xlink" viewBox="0 0 48 48">
  <defs>
    <linearGradient id="linear-gradient" x1="11.199" y1="24.297" x2="37.889" y2="4.716" gradientTransform="matrix(1, 0, 0, -1, 0, 48)" gradientUnits="userSpaceOnUse">
      <stop offset="0" stop-color="#fff"/>
      <stop offset="1" stop-color="#dadada"/>
    </linearGradient>
    <linearGradient id="linear-gradient-2" x1="30.683" y1="20.585" x2="40.79" y2="30.62" gradientTransform="translate(0 2)" gradientUnits="userSpaceOnUse">
      <stop offset="0" stop-color="#f8f8f9"/>
      <stop offset="0.5" stop-color="#d5d4d4"/>
      <stop offset="0.63" stop-color="#d1cfce"/>
      <stop offset="0.779" stop-color="#c4c1c1"/>
      <stop offset="0.938" stop-color="#aba8a7"/>
      <stop offset="0.99" stop-color="#a29f9d"/>
    </linearGradient>
    <linearGradient id="linear-gradient-3" x1="34.033" y1="23.946" x2="37.205" y2="27.067" gradientTransform="translate(0 2)" gradientUnits="userSpaceOnUse">
      <stop offset="0" stop-color="#fff"/>
      <stop offset="0.221" stop-color="#fbfbfc"/>
      <stop offset="0.541" stop-color="#ececec"/>
      <stop offset="0.92" stop-color="#d0cecd"/>
      <stop offset="1" stop-color="#c9c6c5"/>
    </linearGradient>
    <linearGradient id="linear-gradient-4" x1="6.945" y1="20.626" x2="17.304" y2="30.554" xlink:href="#linear-gradient-2"/>
    <linearGradient id="linear-gradient-5" x1="10.685" y1="24.04" x2="13.749" y2="27.379" xlink:href="#linear-gradient-3"/>
    <linearGradient id="linear-gradient-6" x1="18.828" y1="27.839" x2="28.935" y2="37.993" xlink:href="#linear-gradient-2"/>
    <linearGradient id="linear-gradient-7" x1="22.179" y1="31.273" x2="25.243" y2="34.265" xlink:href="#linear-gradient-3"/>
    <linearGradient id="linear-gradient-8" x1="12.058" y1="39.809" x2="37.219" y2="17.741" gradientTransform="matrix(1, 0, 0, -1, 0, 48)" gradientUnits="userSpaceOnUse">
      <stop offset="0" stop-color="#cde6eb"/>
      <stop offset="1" stop-color="#8cc3d2"/>
    </linearGradient>
    <linearGradient id="linear-gradient-9" x1="17.761" y1="46.785" x2="30.203" y2="28.663" xlink:href="#linear-gradient-8"/>
  </defs>
  <g id="g914">
    <g id="Plane">
      <g id="g49">
        <path id="path45" d="M24.013,46.5a.686.686,0,0,1-.358-.1L1.767,33.556A.54.54,0,0,1,1.5,33.1a.547.547,0,0,1,.272-.468L23.643,19.607a.693.693,0,0,1,.37-.107.681.681,0,0,1,.36.1L46.236,32.635a.531.531,0,0,1-.012.926L24.378,46.4A.689.689,0,0,1,24.013,46.5Z" fill="url(#linear-gradient)"/>
        <path id="path47" d="M24.012,20a.211.211,0,0,1,.114.036L45.964,33.054c.013.009.036.025.036.041s-.022.031-.021.031h0L24.108,45.975a.193.193,0,0,1-.1.025.207.207,0,0,1-.113-.036L2.037,33.136C2.023,33.127,2,33.11,2,33.1s.02-.03.02-.03h0l21.9-13.039a.185.185,0,0,1,.1-.026m0-1a1.189,1.189,0,0,0-.625.177L1.508,32.205a1.033,1.033,0,0,0,.006,1.783L23.393,46.827a1.192,1.192,0,0,0,1.238,0L46.486,33.988a1.034,1.034,0,0,0,.006-1.783L24.638,19.177A1.192,1.192,0,0,0,24.012,19Z" fill="#464646"/>
      </g>
    </g>
    <path id="path40-1-9" d="M40.434,29.312l2.359-.837V26.713l-2.359-.837a.28.28,0,0,1-.178-.354.226.226,0,0,1,.013-.033l1.07-2.257-1.248-1.248-2.258,1.075a.282.282,0,0,1-.376-.131l-.01-.026-.833-2.346H34.851L34.013,22.9a.286.286,0,0,1-.371.161l-.016-.007-2.257-1.07-1.248,1.248,1.07,2.256a.284.284,0,0,1-.137.377l-.027.011-2.36.837v1.763l2.359.837a.28.28,0,0,1,.179.354.2.2,0,0,1-.013.034l-1.07,2.257,1.248,1.248,2.257-1.07a.284.284,0,0,1,.376.143c0,.01.008.02.011.03l.837,2.372h1.763l.837-2.371a.275.275,0,0,1,.336-.2.25.25,0,0,1,.052.019l2.256,1.07,1.248-1.249L40.269,29.7a.282.282,0,0,1,.135-.375Z" stroke="#464646" stroke-linecap="round" stroke-linejoin="round" stroke-width="0.891" fill="url(#linear-gradient-2)"/>
    <path id="circle42-8-4" d="M37.709,27.618a1.978,1.978,0,1,1-1.978-1.978A1.978,1.978,0,0,1,37.709,27.618Z" stroke="#4e4a48" stroke-miterlimit="10" stroke-width="0.891" fill="url(#linear-gradient-3)"/>
    <path id="path40-1" d="M16.837,29.314l2.359-.837V26.715l-2.359-.838a.278.278,0,0,1-.178-.353.237.237,0,0,1,.013-.034l1.07-2.256-1.248-1.248L14.237,23.06a.282.282,0,0,1-.377-.131l-.01-.025-.833-2.346H11.254l-.837,2.347a.287.287,0,0,1-.372.161l-.016-.007-2.257-1.07L6.524,23.237l1.07,2.256a.284.284,0,0,1-.137.377l-.027.011-2.36.837v1.763l2.359.837a.279.279,0,0,1,.179.354.189.189,0,0,1-.013.033l-1.07,2.258,1.248,1.248,2.257-1.07a.284.284,0,0,1,.376.142l.012.031.837,2.371h1.762l.837-2.37a.276.276,0,0,1,.336-.2.254.254,0,0,1,.052.02L16.5,33.206l1.248-1.248L16.672,29.7a.282.282,0,0,1,.135-.375Z" stroke="#464646" stroke-linecap="round" stroke-linejoin="round" stroke-width="0.891" fill="url(#linear-gradient-4)"/>
    <path id="circle42-8" d="M14.112,27.619A1.978,1.978,0,0,1,12.135,29.6h0a1.978,1.978,0,0,1-1.978-1.978h0a1.977,1.977,0,0,1,1.978-1.977h0a1.977,1.977,0,0,1,1.977,1.977Z" stroke="#4e4a48" stroke-miterlimit="10" stroke-width="0.891" fill="url(#linear-gradient-5)"/>
    <path id="path40" d="M28.583,36.629l2.358-.837V34.029l-2.358-.837a.28.28,0,0,1-.179-.353.2.2,0,0,1,.014-.034l1.069-2.256L28.239,29.3l-2.257,1.074a.281.281,0,0,1-.376-.131l-.011-.025-.833-2.346H23l-.837,2.347a.286.286,0,0,1-.372.16l-.016-.007L19.518,29.3,18.27,30.551l1.07,2.257a.285.285,0,0,1-.137.377l-.027.011-2.36.837V35.8l2.359.837a.282.282,0,0,1,.179.355.233.233,0,0,1-.014.033l-1.069,2.257,1.248,1.248,2.256-1.069a.284.284,0,0,1,.376.142.166.166,0,0,1,.012.031L23,42h1.762l.838-2.37a.275.275,0,0,1,.335-.2.292.292,0,0,1,.052.019l2.257,1.07,1.248-1.248-1.074-2.257a.281.281,0,0,1,.135-.375Z" stroke="#464646" stroke-linecap="round" stroke-linejoin="round" stroke-width="0.891" fill="url(#linear-gradient-6)"/>
    <path id="circle42" d="M25.857,34.934a1.977,1.977,0,1,1-1.977-1.977A1.977,1.977,0,0,1,25.857,34.934Z" stroke="#4e4a48" stroke-miterlimit="10" stroke-width="0.891" fill="url(#linear-gradient-7)"/>
    <g id="g84">
      <path id="path80" d="M6.9,25.663a.416.416,0,0,1-.357-.447V20.275a.416.416,0,0,1,.357-.447H8.7a2.436,2.436,0,0,0,2.338-2.517V13.358c0-6.24,4.593-11.317,10.239-11.317h5.39c5.646,0,10.239,5.077,10.239,11.317v3.953a2.435,2.435,0,0,0,2.337,2.517h1.8a.416.416,0,0,1,.357.447v4.941a.416.416,0,0,1-.357.447Z" fill="url(#linear-gradient-8)"/>
      <path id="path82" d="M26.666,2.582c5.348,0,9.7,4.834,9.7,10.776v3.953a2.976,2.976,0,0,0,2.879,3.058h1.613v4.753H7.086V20.369H8.7a2.976,2.976,0,0,0,2.879-3.058V13.358c0-5.942,4.35-10.776,9.7-10.776h5.39m0-1.082h-5.39C15.322,1.5,10.5,6.809,10.5,13.358v3.953a1.893,1.893,0,0,1-1.8,1.976H6.9a.946.946,0,0,0-.9.988v4.941a.946.946,0,0,0,.9.988H41.039a.947.947,0,0,0,.9-.988V20.275a.947.947,0,0,0-.9-.988h-1.8a1.893,1.893,0,0,1-1.8-1.976V13.358C37.446,6.809,32.62,1.5,26.666,1.5Z" fill="#177491"/>
    </g>
    <g id="g108">
      <path id="polyline104" d="M19.928,19.018V1.5h8.085V19.018" fill="url(#linear-gradient-9)"/>
      <path id="polygon106" d="M20.47,19.018H19.388V.959h9.167V19.018H27.473V2.041h-7Z" fill="#177491"/>
    </g>
  </g>
</svg>
