<svg id="Artwork" xmlns="http://www.w3.org/2000/svg" xmlns:xlink="http://www.w3.org/1999/xlink" viewBox="0 0 48 48">
  <defs>
    <linearGradient id="linear-gradient" x1="-23.415" y1="21.932" x2="20.661" y2="-22.234" gradientTransform="translate(63.292 -13.761) scale(0.958)" gradientUnits="userSpaceOnUse">
      <stop offset="0" stop-color="#fff"/>
      <stop offset="0.221" stop-color="#fbfbfc"/>
      <stop offset="0.541" stop-color="#ececec"/>
      <stop offset="0.92" stop-color="#d0cecd"/>
      <stop offset="1" stop-color="#c9c6c5"/>
    </linearGradient>
  </defs>
  <g id="g828">
    <path id="path836" d="M45.88,24.1A21.963,21.963,0,0,1,24.045,46.186h0A21.963,21.963,0,0,1,2.21,24.1,21.963,21.963,0,0,1,24.045,2.008h0A21.963,21.963,0,0,1,45.88,24.1Z" fill="url(#linear-gradient)"/>
    <path id="path2" d="M24,47A23.133,23.133,0,0,1,1,24,23.133,23.133,0,0,1,24,1,23.133,23.133,0,0,1,47,24,23.133,23.133,0,0,1,24,47ZM24,3A21,21,0,1,0,45,24,21,21,0,0,0,24,3Z" fill="#147391"/>
    <path id="path4" d="M23,19h2V37H23Z" fill="#147391"/>
    <path id="path6" d="M24,11a2,2,0,1,1-2,2A2,2,0,0,1,24,11Z" fill="#147391"/>
  </g>
</svg>
