<svg xmlns="http://www.w3.org/2000/svg" xmlns:xlink="http://www.w3.org/1999/xlink" viewBox="0 0 48 48">
  <defs>
    <linearGradient id="linear-gradient" x1="12.854" y1="12.854" x2="35.146" y2="35.146" gradientTransform="translate(24 -9.941) rotate(45)" gradientUnits="userSpaceOnUse">
      <stop offset="0" stop-color="#73b4c8"/>
      <stop offset="1" stop-color="#177492"/>
    </linearGradient>
  </defs>
  <g id="Verb_Zone">
    <g>
      <g>
        <rect x="8.236" y="8.236" width="31.527" height="31.527" transform="translate(-9.941 24) rotate(-45)" fill="url(#linear-gradient)"/>
        <path d="M24,2.414,45.586,24,24,45.586,2.414,24,24,2.414M24,1,1,24,24,47,47,24,24,1Z" fill="#177491"/>
      </g>
      <g>
        <rect x="7.236" y="0.632" width="0.696" height="13.904" transform="translate(-3.141 7.583) rotate(-44.996)" fill="#fff"/>
        <rect x="40.047" y="33.473" width="0.696" height="13.844" transform="translate(-16.732 40.394) rotate(-45)" fill="#fff"/>
        <polygon points="2.422 2.914 2.914 2.422 12.746 12.254 13.457 11.543 2.914 1 1 2.914 11.543 13.457 12.254 12.746 2.422 2.914" fill="#177491"/>
        <polygon points="45.535 45.043 45.043 45.535 35.254 35.746 34.543 36.457 45.043 46.957 46.957 45.043 36.457 34.543 35.746 35.254 45.535 45.043" fill="#177491"/>
        <rect x="0.684" y="40.047" width="13.844" height="0.696" transform="translate(-26.336 17.209) rotate(-45)" fill="#fff"/>
        <rect x="33.464" y="7.236" width="13.904" height="0.696" transform="translate(6.475 30.8) rotate(-45)" fill="#fff"/>
        <polygon points="45.086 2.422 45.578 2.914 35.746 12.746 36.457 13.457 47 2.914 45.086 1 34.543 11.543 35.254 12.254 45.086 2.422" fill="#177491"/>
        <polygon points="2.957 45.535 2.465 45.043 12.254 35.254 11.543 34.543 1.043 45.043 2.957 46.957 13.457 36.457 12.746 35.746 2.957 45.535" fill="#177491"/>
      </g>
      <polygon points="13.983 17.194 12.037 19.155 15.271 22.367 7.451 22.4 7.451 25.605 15.278 25.571 11.998 28.852 13.952 30.806 20.797 23.96 13.983 17.194" fill="#fff"/>
      <polygon points="40.451 22.4 32.632 22.367 35.865 19.155 33.919 17.194 27.106 23.96 33.95 30.806 35.904 28.852 32.624 25.571 40.451 25.605 40.451 22.4" fill="#fff"/>
      <polygon points="28.845 11.987 25.633 15.221 25.6 7.401 22.395 7.401 22.429 15.228 19.148 11.948 17.194 13.902 24.04 20.747 30.806 13.933 28.845 11.987" fill="#fff"/>
      <polygon points="24.04 27.056 17.194 33.901 19.148 35.855 22.429 32.574 22.395 40.401 25.6 40.401 25.633 32.582 28.845 35.815 30.806 33.869 24.04 27.056" fill="#fff"/>
    </g>
  </g>
</svg>
