<svg id="Image" xmlns="http://www.w3.org/2000/svg" xmlns:xlink="http://www.w3.org/1999/xlink" viewBox="0 0 48 48">
  <defs>
    <linearGradient id="Siemens_-_Light_blue" data-name="Siemens - Light blue" x1="24.49" y1="27.048" x2="33.51" y2="36.067" gradientUnits="userSpaceOnUse">
      <stop offset="0" stop-color="#cde6eb"/>
      <stop offset="1" stop-color="#8cc3d2"/>
    </linearGradient>
    <linearGradient id="Sfumatura_senza_nome_12" data-name="Sfumatura senza nome 12" x1="15.346" y1="29.385" x2="34.231" y2="48.269" gradientUnits="userSpaceOnUse">
      <stop offset="0" stop-color="#73b4c8"/>
      <stop offset="1" stop-color="#177492"/>
    </linearGradient>
    <linearGradient id="Siemens_-_Light_blue-2" x1="14.942" y1="22.558" x2="24.058" y2="31.673" xlink:href="#Siemens_-_Light_blue"/>
    <linearGradient id="Siemens_-_Mid_blue" data-name="Siemens - Mid blue" x1="7.75" y1="29.75" x2="20.25" y2="42.25" gradientUnits="userSpaceOnUse">
      <stop offset="0" stop-color="#afd7e1"/>
      <stop offset="1" stop-color="#73b4c8"/>
    </linearGradient>
    <linearGradient id="Siemens_-_Light_gray" data-name="Siemens - Light gray" x1="12.439" y1="-5.561" x2="35.561" y2="17.561" gradientUnits="userSpaceOnUse">
      <stop offset="0" stop-color="#fff"/>
      <stop offset="1" stop-color="#dcdcdc"/>
    </linearGradient>
    <linearGradient id="Siemens_-_Light_gray-2" x1="26.685" y1="2.88" x2="35.489" y2="11.685" xlink:href="#Siemens_-_Light_gray"/>
    <linearGradient id="Siemens_-_Mid_gray" data-name="Siemens - Mid gray" x1="28.214" y1="14.281" x2="31.269" y2="17.336" gradientUnits="userSpaceOnUse">
      <stop offset="0" stop-color="#fff"/>
      <stop offset="1" stop-color="#bebdbd"/>
    </linearGradient>
    <linearGradient id="Siemens_-_Mid_gray-2" x1="23.054" y1="3.946" x2="28.445" y2="9.337" xlink:href="#Siemens_-_Mid_gray"/>
    <linearGradient id="Siemens_-_Mid_gray-3" x1="29.023" y1="20.26" x2="32.078" y2="23.315" xlink:href="#Siemens_-_Mid_gray"/>
    <linearGradient id="Siemens_-_Light_gray-3" x1="29.504" y1="17.39" x2="31.476" y2="19.362" xlink:href="#Siemens_-_Light_gray"/>
    <linearGradient id="Siemens_-_Mid_gray-4" x1="29.744" y1="26.388" x2="32.298" y2="28.941" xlink:href="#Siemens_-_Mid_gray"/>
    <linearGradient id="Siemens_-_Light_gray-4" x1="29.504" y1="24.252" x2="31.476" y2="26.224" xlink:href="#Siemens_-_Light_gray"/>
  </defs>
  <g>
    <g>
      <path d="M36,33.577H27l-5-4.039h9S35.906,33.653,36,33.577Z" fill="url(#Siemens_-_Light_blue)"/>
      <polygon points="27 33.577 27 28.731 16 28.731 16 46.5 36 46.5 36 33.577 27 33.577" fill="url(#Sfumatura_senza_nome_12)"/>
      <polygon points="16 28.731 27 28.731 23 25.5 12 25.5 16 28.731" fill="url(#Siemens_-_Light_blue-2)"/>
      <g>
        <polyline points="12 25.5 12 43.269 16 46.5 16 28.731 12.219 25.677" fill="url(#Siemens_-_Mid_blue)"/>
        <g>
          <path d="M26.819,34.041a.479.479,0,0,1-.058-.033.5.5,0,0,1-.075-.042l-5-4.039a.437.437,0,0,1-.051-.7H16.5V46h19V34.077H27A.508.508,0,0,1,26.819,34.041Z" fill="none"/>
          <path d="M34.477,33.077c-.77-.617-1.915-1.577-3.659-3.039H27.5v3.039Z" fill="none"/>
          <polygon points="12.5 43.03 15.5 45.453 15.5 28.97 12.5 26.547 12.5 43.03" fill="none"/>
          <polygon points="26.5 32.53 26.5 30.038 23.415 30.038 26.5 32.53" fill="none"/>
          <polygon points="22.823 26 13.415 26 16.177 28.23 25.585 28.23 22.823 26" fill="none"/>
          <path d="M26.819,34.041a.508.508,0,0,0,.181.036A.5.5,0,0,1,26.819,34.041Z" fill="#177491"/>
          <path d="M36.472,33.411l-.008-.012c.005.013.005.028.009.042C36.47,33.431,36.475,33.421,36.472,33.411Z" fill="#177491"/>
          <path d="M30.818,30.038c1.744,1.462,2.889,2.422,3.659,3.039H36a.512.512,0,0,1,.184.037l-.009-.006c-.4-.263-2.771-2.207-4.854-3.953A.5.5,0,0,0,31,29.038H27.5v1Z" fill="#177491"/>
          <path d="M36.354,33.224c.006.006.008.014.014.02S36.36,33.23,36.354,33.224Z" fill="#177491"/>
          <path d="M36.368,33.244a.5.5,0,0,1,.1.155A.5.5,0,0,0,36.368,33.244Z" fill="#177491"/>
          <path d="M36.184,33.114a.5.5,0,0,1,.17.11A.508.508,0,0,0,36.184,33.114Z" fill="#177491"/>
          <path d="M36.473,33.441a.5.5,0,0,1-.161.526.41.41,0,0,1-.266.128.387.387,0,0,1-.113-.018H35.5V46h-19V29.23h5.135A.481.481,0,0,1,22,29.038h5.5V28.73a.461.461,0,0,0-.02-.1.522.522,0,0,0-.011-.057.5.5,0,0,0-.144-.218s0-.011-.011-.015l-4-3.231A.5.5,0,0,0,23,25H12a.487.487,0,0,0-.258.082.388.388,0,0,0-.047.032.484.484,0,0,0-.159.209l-.008.01c0,.01,0,.021,0,.031a.513.513,0,0,0-.027.136V43.27a.5.5,0,0,0,.186.388l4,3.231a.524.524,0,0,0,.073.041c.021.011.039.025.061.034A.507.507,0,0,0,16,47H36a.5.5,0,0,0,.5-.5V33.577A.513.513,0,0,0,36.473,33.441ZM15.5,45.453l-3-2.423V26.547l3,2.423ZM13.415,26h9.408l2.762,2.23H16.177Z" fill="#177491"/>
          <path d="M26.761,34.008a.479.479,0,0,0,.058.033A.57.57,0,0,1,26.761,34.008Z" fill="#177491"/>
          <polygon points="27.177 33.077 27.5 33.077 27.5 30.038 26.5 30.038 26.5 32.53 27.177 33.077" fill="#177491"/>
          <path d="M34.477,33.077h-7.3L26.5,32.53v1.047a.494.494,0,0,0,.261.431.57.57,0,0,0,.058.033.5.5,0,0,0,.181.036h8.933a.387.387,0,0,0,.113.018.41.41,0,0,0,.266-.128.5.5,0,0,0,.161-.526c0-.014,0-.029-.009-.042a.5.5,0,0,0-.1-.155c-.006-.006-.008-.014-.014-.02a.5.5,0,0,0-.17-.11A.512.512,0,0,0,36,33.077Z" fill="#177491"/>
          <path d="M21.635,29.23H26.5v.808h1v-1H22A.481.481,0,0,0,21.635,29.23Z" fill="#177491"/>
        </g>
      </g>
    </g>
    <rect x="1.5" y="4.5" width="45" height="3" rx="1.5" ry="1.5" fill="url(#Siemens_-_Light_gray)"/>
    <g>
      <polyline points="26.391 3.174 35.783 3.174 34.609 2 25 2 26.391 3.174" fill="#dbdbdb"/>
      <path d="M26.391,3.674a.5.5,0,0,1-.323-.118l-1.39-1.174A.5.5,0,0,1,25,1.5h9.608a.5.5,0,0,1,.354.146L36.136,2.82a.5.5,0,0,1-.354.854H26.391Zm.182-1h8L34.4,2.5H26.367Z" fill="#464646"/>
    </g>
    <polygon points="29.326 14.326 26.391 11.391 26.391 3.174 35.783 3.174 35.783 11.391 32.167 14.296 29.326 14.326" fill="url(#Siemens_-_Light_gray-2)"/>
    <g>
      <path d="M29.578,15.171a3.225,3.225,0,0,0-.571,1l0,2.241c.888-1.364,2.124-3.238,2.418-3.573a1.167,1.167,0,0,0,.138-.532l-1.386.015C29.923,14.686,29.71,14.99,29.578,15.171Z" fill="url(#Siemens_-_Mid_gray)"/>
      <path d="M32.068,14.3a1.626,1.626,0,0,1-.265.868c-.434.493-3.293,4.93-3.293,4.93V16.11s.006-.329.664-1.233c.092-.127.229-.321.391-.554l-.239,0-.219-.219c-.14.2-.256.363-.337.476a3.094,3.094,0,0,0-.759,1.527V20.1a.5.5,0,0,0,.92.271c1.141-1.771,2.947-4.53,3.247-4.871a2.565,2.565,0,0,0,.412-1.539l-.423.34Zm-3.057,5.8h0Z" fill="#464646"/>
      <path d="M28.51,16.11V20.1s2.859-4.437,3.293-4.93a1.626,1.626,0,0,0,.265-.868l-.5,0a1.167,1.167,0,0,1-.138.532c-.294.335-1.53,2.209-2.418,3.573l0-2.241a3.225,3.225,0,0,1,.571-1c.132-.181.345-.485.6-.854l-.614.006c-.162.233-.3.427-.391.554C28.516,15.781,28.51,16.11,28.51,16.11Z" fill="#464646"/>
    </g>
    <g>
      <path d="M25,2V4.5c.828,0,1,.672,1,1.5s-.172,1.5-1,1.5V9.965l1.391,1.426V3.174Z" fill="url(#Siemens_-_Mid_gray-2)"/>
      <g>
        <path d="M45,7a1,1,0,0,0,0-2H36.282V7Z" fill="none"/>
        <polygon points="25.5 9.761 25.891 10.162 25.891 8 25.5 8 25.5 9.761" fill="none"/>
        <polygon points="26.892 11.184 29.531 13.824 31.988 13.797 35.282 11.151 35.282 8 26.892 8 26.892 11.184" fill="none"/>
        <path d="M25.5,6c0-1-.266-1-.5-1H3A1,1,0,0,0,3,7H25C25.234,7,25.5,7,25.5,6Z" fill="none"/>
        <rect x="26.892" y="5" width="8.391" height="2" fill="none"/>
        <polygon points="25.5 3.076 25.5 4 25.891 4 25.891 3.406 25.5 3.076" fill="none"/>
        <rect x="26.892" y="3.674" width="8.391" height="0.326" fill="none"/>
        <path d="M25.5,4.068a1.253,1.253,0,0,1,.391.2V4H25.5Z" fill="#464646"/>
        <path d="M45,4H36.282V5H45a1,1,0,0,1,0,2H36.282V8H45a2,2,0,0,0,0-4Z" fill="#464646"/>
        <path d="M25.5,7.932V8h.391V7.734A1.253,1.253,0,0,1,25.5,7.932Z" fill="#464646"/>
        <path d="M25,7H3A1,1,0,0,1,3,5H25a.5.5,0,0,1-.5-.5V4H3A2,2,0,0,0,3,8H24.5V7.5A.5.5,0,0,1,25,7Z" fill="#464646"/>
        <rect x="26.891" y="5" width="0.001" height="2" fill="#464646"/>
        <rect x="35.282" y="5" width="1" height="2" fill="#464646"/>
        <path d="M35.282,11.151,31.988,13.8l-2.457.027-2.639-2.64V8h0v3.391a.5.5,0,0,1-.853.353h0l2.935,2.935a.5.5,0,0,0,.353.146h.006l2.841-.031a.5.5,0,0,0,.307-.11l3.616-2.9a.5.5,0,0,0,.186-.39V8h-1Z" fill="#464646"/>
        <path d="M26.891,3.174V4h0V3.674h8.39V4h1V3.174a.5.5,0,0,0-.5-.5H26.573l.14.118A.5.5,0,0,1,26.891,3.174Z" fill="#464646"/>
        <rect x="26.891" y="4" width="0.001" height="1" fill="#464646"/>
        <rect x="35.282" y="4" width="1" height="1" fill="#464646"/>
        <rect x="26.891" y="7" width="0.001" height="1" fill="#464646"/>
        <rect x="35.282" y="7" width="1" height="1" fill="#464646"/>
        <path d="M25,5c.234,0,.5,0,.5,1s-.266,1-.5,1h.892V5Z" fill="#464646"/>
        <path d="M25.892,8h0v2.162l-.391-.4V8h-1V9.965a.5.5,0,0,0,.142.349l1.39,1.426.006,0a.5.5,0,0,1-.146-.353Z" fill="#464646"/>
        <path d="M25.5,3.076l.391.33V4h0V3.174a.5.5,0,0,1,.5-.5h.181L25.322,1.618a.5.5,0,0,0-.533-.072A.5.5,0,0,0,24.5,2V4h1Z" fill="#464646"/>
        <path d="M25,5h.892V4h0v.266a1.253,1.253,0,0,0-.391-.2V4h-1v.5A.5.5,0,0,0,25,5Z" fill="#464646"/>
        <path d="M25.5,7.932a1.253,1.253,0,0,0,.391-.2V8h0V7H25a.5.5,0,0,0-.5.5V8h1Z" fill="#464646"/>
        <path d="M26.579,11.854a.5.5,0,0,0,.312-.463V8h-1v3.391a.5.5,0,0,0,.146.353.5.5,0,0,0,.353.147A.5.5,0,0,0,26.579,11.854Z" fill="#464646"/>
        <path d="M25.892,3.174V4h1V3.174a.5.5,0,0,0-.178-.382l-.14-.118h-.181A.5.5,0,0,0,25.892,3.174Z" fill="#464646"/>
        <rect x="25.892" y="5" width="0.999" height="2" fill="#464646"/>
        <rect x="25.892" y="4" width="0.999" height="1" fill="#464646"/>
        <rect x="25.892" y="7" width="0.999" height="1" fill="#464646"/>
      </g>
    </g>
    <g>
      <g>
        <path d="M32.59,16.693v4.191a8.783,8.783,0,0,1-.787,1.068c-.434.493-3.293,4.93-3.293,4.93V22.9s.006-.329.664-1.233S32.59,16.693,32.59,16.693Z" fill="url(#Siemens_-_Mid_gray-3)"/>
        <path d="M28.511,27.382a.5.5,0,0,1-.5-.5V22.9a3.1,3.1,0,0,1,.759-1.526c.644-.888,3.378-4.918,3.406-4.959a.5.5,0,0,1,.914.281v4.191a.511.511,0,0,1-.073.261,9.438,9.438,0,0,1-.839,1.138c-.3.341-2.106,3.1-3.247,4.869A.5.5,0,0,1,28.511,27.382Zm.5-.5h0Zm3.079-8.565c-.867,1.273-2.1,3.068-2.512,3.641a3.233,3.233,0,0,0-.571,1l0,2.239c.888-1.362,2.124-3.236,2.419-3.571a8.17,8.17,0,0,0,.662-.884Z" fill="#464646"/>
      </g>
      <g>
        <path d="M31.8,15.091a2.273,2.273,0,0,1,.288,3.122l-2.917,3.451a2.717,2.717,0,0,1-.341-3.093,1.528,1.528,0,0,1,.212-.323Z" fill="url(#Siemens_-_Light_gray-3)"/>
        <path d="M29.174,22.165a.5.5,0,0,1-.354-.147,3.2,3.2,0,0,1-.438-3.663,1.981,1.981,0,0,1,.289-.438l2.755-3.155a.5.5,0,0,1,.7-.054A2.748,2.748,0,0,1,32.5,18.5l-2.944,3.486a.5.5,0,0,1-.362.177ZM31.8,15.85l-2.382,2.728a1,1,0,0,0-.142.216,2.3,2.3,0,0,0-.062,2.044l2.491-2.947A1.7,1.7,0,0,0,31.8,15.85Z" fill="#464646"/>
      </g>
      <g>
        <path d="M31.721,28.719a3.654,3.654,0,0,1,.869,2.125H30.4Z" fill="#969696"/>
        <path d="M32.59,31.344H30.4a.5.5,0,0,1-.424-.765L31.3,28.455a.5.5,0,0,1,.378-.233.508.508,0,0,1,.414.16,4.145,4.145,0,0,1,1,2.447.5.5,0,0,1-.5.515Zm-1.294-1h.722a3.138,3.138,0,0,0-.279-.71Z" fill="#464646"/>
      </g>
      <g>
        <path d="M29.174,28.514c-.658.9-.664,1.233-.664,1.233v1.1H30.4c.633-.957,1.226-1.837,1.408-2.042a8.751,8.751,0,0,0,.787-1.069v-4.19S29.831,27.61,29.174,28.514Z" fill="url(#Siemens_-_Mid_gray-4)"/>
        <path d="M30.4,31.344H28.511a.5.5,0,0,1-.5-.5v-1.1a3.1,3.1,0,0,1,.759-1.526h0c.62-.853,3.244-4.713,3.395-4.941a.5.5,0,0,1,.925.263v4.191a.515.515,0,0,1-.073.262,9.468,9.468,0,0,1-.839,1.137c-.195.22-1.076,1.551-1.366,1.988A.5.5,0,0,1,30.4,31.344Zm-1.384-.5h0Zm0-.5h1.117c.761-1.145,1.143-1.693,1.3-1.873a8.382,8.382,0,0,0,.661-.883v-2.4c-1.03,1.537-2.489,3.584-2.512,3.616a3.225,3.225,0,0,0-.571,1Z" fill="#464646"/>
      </g>
      <g>
        <path d="M31.8,21.952a2.273,2.273,0,0,1,.288,3.122l-2.917,3.452a2.719,2.719,0,0,1-.341-3.094,1.521,1.521,0,0,1,.212-.322Z" fill="url(#Siemens_-_Light_gray-4)"/>
        <path d="M29.174,29.025a.5.5,0,0,1-.354-.146,3.2,3.2,0,0,1-.438-3.662,1.977,1.977,0,0,1,.289-.439l2.755-3.155a.5.5,0,0,1,.7-.053,2.746,2.746,0,0,1,.375,3.792l-2.944,3.487a.5.5,0,0,1-.362.176Zm2.63-6.314-2.382,2.727a1,1,0,0,0-.142.218,2.3,2.3,0,0,0-.062,2.043l2.491-2.948A1.7,1.7,0,0,0,31.8,22.711Z" fill="#464646"/>
      </g>
      <g>
        <polygon points="30.395 30.844 30.547 32.094 28.51 30.844 30.395 30.844" fill="#bebdbd"/>
        <path d="M30.547,32.6a.5.5,0,0,1-.262-.074L28.249,31.27a.5.5,0,0,1,.262-.926H30.4a.5.5,0,0,1,.5.439l.152,1.251a.5.5,0,0,1-.226.482A.508.508,0,0,1,30.547,32.6Z" fill="#464646"/>
      </g>
      <g>
        <polygon points="30.547 32.094 32.59 30.844 30.395 30.844 30.547 32.094" fill="#969696"/>
        <path d="M30.547,32.6a.507.507,0,0,1-.218-.05.5.5,0,0,1-.278-.39L29.9,30.9a.5.5,0,0,1,.5-.56h2.2a.5.5,0,0,1,.261.927l-2.043,1.25A.5.5,0,0,1,30.547,32.6Z" fill="#464646"/>
      </g>
    </g>
  </g>
</svg>
