<svg id="Layer_1" data-name="Layer 1" xmlns="http://www.w3.org/2000/svg" xmlns:xlink="http://www.w3.org/1999/xlink" viewBox="0 0 48 48">
  <defs>
    <linearGradient id="linear-gradient" x1="-16.625" y1="25.026" x2="19.593" y2="14.936" gradientTransform="matrix(0.493, 0.276, 0.282, -0.481, 3.752, 31.996)" gradientUnits="userSpaceOnUse">
      <stop offset="0" stop-color="#73b4c8"/>
      <stop offset="0.175" stop-color="#6aaec3"/>
      <stop offset="0.457" stop-color="#529eb5"/>
      <stop offset="0.809" stop-color="#2c839f"/>
      <stop offset="1" stop-color="#147391"/>
    </linearGradient>
    <linearGradient id="linear-gradient-2" x1="25.194" y1="26.2" x2="49.172" y2="2.753" gradientTransform="matrix(0.568, 0, 0, -0.555, 7.882, 37.346)" xlink:href="#linear-gradient"/>
    <linearGradient id="linear-gradient-3" x1="17.727" y1="61.457" x2="40.625" y2="38.393" gradientTransform="matrix(0.568, 0, 0, -0.555, 7.882, 37.346)" xlink:href="#linear-gradient"/>
    <linearGradient id="linear-gradient-4" x1="23.819" y1="54.83" x2="34.94" y2="44.482" gradientTransform="matrix(0.568, 0, 0, -0.555, 7.882, 37.346)" gradientUnits="userSpaceOnUse">
      <stop offset="0" stop-color="#fff"/>
      <stop offset="0.221" stop-color="#f8f8f8"/>
      <stop offset="0.541" stop-color="#e5e5e5"/>
      <stop offset="0.92" stop-color="#c6c6c6"/>
      <stop offset="1" stop-color="#bebebe"/>
    </linearGradient>
    <linearGradient id="linear-gradient-5" x1="-5.948" y1="21.721" x2="8.425" y2="18.514" gradientTransform="matrix(0.493, 0.276, 0.282, -0.481, 3.752, 31.996)" gradientUnits="userSpaceOnUse">
      <stop offset="0" stop-color="#fff"/>
      <stop offset="0" stop-color="#f8f8f8"/>
      <stop offset="0.541" stop-color="#e5e5e5"/>
      <stop offset="0.92" stop-color="#c6c6c6"/>
      <stop offset="1" stop-color="#bebebe"/>
    </linearGradient>
    <linearGradient id="linear-gradient-6" x1="32.344" y1="19.793" x2="41.757" y2="9.331" xlink:href="#linear-gradient-4"/>
    <linearGradient id="linear-gradient-7" x1="36.405" y1="30.48" x2="53.86" y2="53.057" gradientTransform="translate(-5.993 -1.853) scale(0.996 0.934)" xlink:href="#linear-gradient-4"/>
    <linearGradient id="linear-gradient-8" x1="75.186" y1="61.639" x2="83.61" y2="69.217" gradientTransform="translate(-11.98 -7.342) scale(0.585 0.579)" gradientUnits="userSpaceOnUse">
      <stop offset="0" stop-color="#a5cfdc"/>
      <stop offset="0.128" stop-color="#9cc9d7"/>
      <stop offset="0.335" stop-color="#84bacb"/>
      <stop offset="0.596" stop-color="#5ea2b7"/>
      <stop offset="0.896" stop-color="#28809b"/>
      <stop offset="1" stop-color="#147391"/>
    </linearGradient>
    <linearGradient id="linear-gradient-9" x1="84.167" y1="-19.437" x2="94.113" y2="-9.491" gradientTransform="matrix(0.585, 0, 0, -0.579, -11.98, 20.034)" gradientUnits="userSpaceOnUse">
      <stop offset="0" stop-color="#f2f2f2"/>
      <stop offset="1" stop-color="#999"/>
    </linearGradient>
    <linearGradient id="linear-gradient-10" x1="30.588" y1="15.75" x2="39.991" y2="25.324" gradientTransform="translate(-11.98 -7.342) scale(0.585 0.579)" gradientUnits="userSpaceOnUse">
      <stop offset="0" stop-color="#fff"/>
      <stop offset="1" stop-color="#dcdcdc"/>
    </linearGradient>
    <linearGradient id="linear-gradient-11" x1="40.031" y1="13.655" x2="42.998" y2="11.163" gradientTransform="matrix(0.923, 0, 0, -1.027, -3.944, 47.026)" xlink:href="#linear-gradient-8"/>
  </defs>
  <g id="g932">
    <path id="path28-6" d="M14.266,27.586l3.321.586,1.181-2.014-2.2-2.5a.363.363,0,0,1,.027-.521.4.4,0,0,1,.039-.029L19.4,21.229l-.624-2.24-3.362-.249a.374.374,0,0,1-.35-.4l0-.033.593-3.231L13.6,13.921l-2.551,2.136A.393.393,0,0,1,10.5,16l-.014-.018-1.922-2.7-2.293.609-.253,3.286a.379.379,0,0,1-.41.343l-.042,0-3.321-.586L1.064,18.932l2.2,2.5a.365.365,0,0,1-.029.522l-.038.029L.428,23.863,1.051,26.1l3.357.253a.377.377,0,0,1,.345.408.335.335,0,0,1-.007.044L4.14,30.067,6.2,31.219l2.567-2.165a.378.378,0,0,1,.526,0,.387.387,0,0,1,.046.054l1.922,2.7,2.293-.608.26-3.281a.378.378,0,0,1,.411-.34.26.26,0,0,1,.039,0Z" stroke="#464646" stroke-linecap="round" stroke-linejoin="round" stroke-width="0.855" fill="url(#linear-gradient)"/>
    <path id="path30-7" d="M35.292,31.541l3.18-1.1V28.117l-3.18-1.1a.365.365,0,0,1-.239-.465.307.307,0,0,1,.017-.042l1.446-2.971-1.678-1.648-3.046,1.413a.383.383,0,0,1-.506-.175l-.013-.029-1.125-3.092H27.765L26.64,23.1a.389.389,0,0,1-.5.209l-.017-.007L23.069,21.89l-1.681,1.642L22.833,26.5a.37.37,0,0,1-.188.495l-.033.013-3.181,1.1v2.321l3.181,1.1A.367.367,0,0,1,22.85,32a.333.333,0,0,1-.016.04l-1.446,2.973,1.681,1.656,3.041-1.41a.386.386,0,0,1,.5.19c.006.012.01.025.015.037l1.125,3.123h2.376l1.125-3.123a.373.373,0,0,1,.456-.256.429.429,0,0,1,.063.023l3.063,1.411,1.68-1.642-1.445-2.972a.369.369,0,0,1,.185-.494Z" stroke="#464646" stroke-linecap="round" stroke-linejoin="round" stroke-width="0.855" fill="url(#linear-gradient-2)"/>
    <path id="path32-2" d="M30.965,12.1l3.18-1.1V8.671l-3.18-1.1a.366.366,0,0,1-.239-.466.3.3,0,0,1,.017-.041l1.446-2.972L30.511,2.445,27.466,3.861a.385.385,0,0,1-.507-.176l-.013-.029L25.814.564H23.438L22.313,3.655a.39.39,0,0,1-.5.21l-.017-.008L18.742,2.445,17.064,4.086l1.445,2.973a.37.37,0,0,1-.188.494l-.034.013-3.18,1.1v2.322l3.18,1.1a.367.367,0,0,1,.239.467c0,.014-.01.027-.016.04l-1.446,2.973,1.678,1.646,3.041-1.41a.387.387,0,0,1,.5.19.25.25,0,0,1,.015.038l1.125,3.123H25.8l1.125-3.123a.372.372,0,0,1,.456-.256.335.335,0,0,1,.063.022l3.063,1.416,1.68-1.641L30.746,12.6a.368.368,0,0,1,.184-.494Z" stroke="#464646" stroke-linecap="round" stroke-linejoin="round" stroke-width="0.855" fill="url(#linear-gradient-3)"/>
    <path id="circle34" d="M27.222,9.863a2.566,2.566,0,0,1-2.6,2.536h0a2.537,2.537,0,1,1,2.6-2.536Z" stroke="#464646" stroke-linecap="round" stroke-miterlimit="10" stroke-width="0.855" fill="url(#linear-gradient-4)"/>
    <path id="circle36" d="M11.205,20.344a2.505,2.505,0,0,1,.963,3.461,2.63,2.63,0,0,1-3.543.941h0a2.5,2.5,0,0,1-.963-3.461h0a2.629,2.629,0,0,1,3.543-.941Z" stroke="#464646" stroke-linecap="round" stroke-miterlimit="10" stroke-width="0.855" fill="url(#linear-gradient-5)"/>
    <path id="circle38" d="M31.549,29.309a2.6,2.6,0,0,1-5.192,0h0a2.567,2.567,0,0,1,2.6-2.537h0A2.567,2.567,0,0,1,31.549,29.309Z" stroke="#464646" stroke-linecap="round" stroke-miterlimit="10" stroke-width="0.855" fill="url(#linear-gradient-6)"/>
    <path id="rect25" d="M30.242,26.642H47.758V47.758H30.242Z" stroke="#464646" stroke-miterlimit="10" stroke-width="0.485" fill="url(#linear-gradient-7)"/>
    <path id="path28" d="M37.107,30.669a.117.117,0,0,0-.015.157l.433.594-.693.254a.12.12,0,0,0-.076.14l.172.712-.739-.029a.117.117,0,0,0-.124.1l-.117.723-.672-.3a.122.122,0,0,0-.153.046l-.388.623-.5-.538a.121.121,0,0,0-.159-.016l-.6.429-.258-.686a.118.118,0,0,0-.141-.074l-.719.169.027-.731a.119.119,0,0,0-.1-.123L31.551,32l.309-.663a.12.12,0,0,0-.047-.152l-.629-.384.542-.5a.119.119,0,0,0,.016-.158l-.434-.593L32,29.3a.12.12,0,0,0,.076-.14l-.172-.712.74.029a.12.12,0,0,0,.123-.1l.118-.723.672.3a.12.12,0,0,0,.152-.045l.388-.623.5.536a.121.121,0,0,0,.158.016l.6-.429.257.686a.12.12,0,0,0,.141.074l.72-.17-.028.732a.12.12,0,0,0,.1.123l.731.116-.308.664a.118.118,0,0,0,.046.151l.63.383Z" fill="url(#linear-gradient-8)"/>
    <path id="path30" d="M34.86,33.762a.148.148,0,0,1-.111.069h-.014a.148.148,0,0,1-.108-.047l-.487-.52-.58.416a.151.151,0,0,1-.129.021.145.145,0,0,1-.095-.087l-.242-.645v2.285l1.235-.916a.147.147,0,0,1,.176,0l1.234.916V33.387l-.5-.228Z" fill="url(#linear-gradient-9)"/>
    <path id="path36" d="M35.147,32.234a1.917,1.917,0,0,1-2.5-1.022,1.883,1.883,0,0,1,1.032-2.471,1.918,1.918,0,0,1,2.5,1.022h0A1.884,1.884,0,0,1,35.147,32.234Z" fill="url(#linear-gradient-10)"/>
    <path id="path38" d="M34.419,32.522a2.053,2.053,0,1,1,.785-.155A2.073,2.073,0,0,1,34.419,32.522Zm-.006-3.781a1.745,1.745,0,1,0,.679,3.36h0a1.739,1.739,0,0,0,.962-2.277,1.763,1.763,0,0,0-1.641-1.083Z" fill="#6f6f6f"/>
    <path id="polygon42" d="M35.592,29.614,34.417,31.8l-1.176-1.018.294-.145.735.436,1.029-1.6Z" fill="#464646"/>
    <path id="rect896" d="M39.918,28.2h4.464a.019.019,0,0,1,.018.018v.414a.019.019,0,0,1-.018.018H39.918a.019.019,0,0,1-.018-.018v-.414A.019.019,0,0,1,39.918,28.2Z" fill="#464646"/>
    <path id="rect898" d="M38.637,29.55H45.8a.019.019,0,0,1,.019.019v.412A.019.019,0,0,1,45.8,30H38.637a.019.019,0,0,1-.019-.019v-.412a.019.019,0,0,1,.019-.019Z" fill="#464646"/>
    <path id="rect900" d="M35.869,36.75h6.262a.02.02,0,0,1,.019.019v.412a.02.02,0,0,1-.019.019H35.869a.019.019,0,0,1-.019-.019v-.412A.019.019,0,0,1,35.869,36.75Z" fill="#464646"/>
    <path id="rect902" d="M32.264,39.031H45.736a.014.014,0,0,1,.014.014v.422a.014.014,0,0,1-.014.014H32.264a.014.014,0,0,1-.014-.014v-.422A.014.014,0,0,1,32.264,39.031Z" fill="#464646"/>
    <path id="rect902-1" d="M32.264,42.713H45.736a.014.014,0,0,1,.014.014v.422a.014.014,0,0,1-.014.014H32.264a.014.014,0,0,1-.014-.014v-.422A.014.014,0,0,1,32.264,42.713Z" fill="#464646"/>
    <path id="rect902-11" d="M32.264,40.831H42.716a.014.014,0,0,1,.014.014v.422a.014.014,0,0,1-.014.014H32.264a.014.014,0,0,1-.014-.014v-.422a.014.014,0,0,1,.014-.014Z" fill="#464646"/>
    <path id="path1062" d="M33.06,34.134c0-.691.006-1.25.012-1.242s.061.159.12.338a3.609,3.609,0,0,0,.137.365c.068.094.2.042.5-.2l.3-.243.281.324c.268.309.339.358.427.3a3.252,3.252,0,0,0,.234-.378c.108-.193.2-.352.21-.354a1.905,1.905,0,0,1,.255.118l.24.123v1.038c0,.571-.007,1.038-.014,1.038s-.3-.234-.644-.52a4.761,4.761,0,0,0-.693-.518,2.744,2.744,0,0,0-.5.362l-.649.536-.211.175Z" fill="url(#linear-gradient-11)"/>
    <path id="path1072" d="M40.854,46.2,41,46.1c0-.009-.006-.02,0-.028.029-.044.081-.071.113-.113a.3.3,0,0,0,.028-.057l.029-.057a.913.913,0,0,0,.056-.113c0-.009-.005-.02,0-.028s.023-.016.028-.028c.014-.027.015-.059.029-.085s.048-.032.056-.057-.009-.04,0-.057.022.008.029,0,0-.037,0-.028a1.345,1.345,0,0,0,0,.142c.029.088.018-.01.056.028.008.007-.007.022,0,.028s.022-.007.028,0-.008.024,0,.029.038,0,.057,0h.4a.243.243,0,0,0,.085,0c.025-.01.036-.041.057-.057a.6.6,0,0,1,.057-.028c.056-.038.056-.085.056-.142,0-.009.008-.022,0-.028s-.053.02-.056.028,0,.038,0,.057-.023.036-.029.056a1.12,1.12,0,0,0,0,.142c0,.009-.007.022,0,.028s.022-.007.029,0-.008.022,0,.028.019,0,.028,0h.113c.008-.007,0-.018,0-.028v.17a.218.218,0,0,0,0,.057.228.228,0,0,0,.085.113.6.6,0,0,0,.057.028c.011.008.016.023.028.029s.02,0,.028,0,.017.022.029.028.018,0,.028,0h.481a.609.609,0,0,0,.113,0c.042-.008.073-.044.113-.057.009,0,.022.008.029,0s-.01-.028,0-.028-.01.028,0,.028.016-.022.028-.028.02,0,.028,0c.052-.026.017-.022.029-.057s.021-.036.028-.056-.008-.022,0-.029.021.008.028,0-.007-.021,0-.028a.021.021,0,0,1,.028,0c.008.007-.007.022,0,.028s.019,0,.029,0h1.019c.009,0,.021.008.028,0s0-.018,0-.028.005-.02,0-.028a.148.148,0,0,0-.028-.028c-.01-.01-.015-.029-.029-.029s0,.019,0,.029-.007.021,0,.028.019,0,.029,0c.072,0,.037-.033.085-.057.083-.041-.038.066.056-.028" fill="none" stroke="#464646" stroke-width="0.225"/>
    <path id="path32" d="M32.8,33.016v2.529a.147.147,0,0,0,.235.116l1.382-1.025L35.8,35.661a.151.151,0,0,0,.088.03.164.164,0,0,0,.066-.016.144.144,0,0,0,.081-.13V33.436h0a.1.1,0,0,0,.059-.091l.114-.7.716.026a.161.161,0,0,0,.12-.053.143.143,0,0,0,.029-.126l-.166-.689.671-.247a.144.144,0,0,0,.087-.187.141.141,0,0,0-.019-.034l-.42-.574.526-.483a.144.144,0,0,0,.008-.2.126.126,0,0,0-.031-.025l-.61-.372.3-.643a.145.145,0,0,0-.073-.193.173.173,0,0,0-.037-.011l-.708-.113.027-.709a.146.146,0,0,0-.141-.151.181.181,0,0,0-.04,0l-.7.165L35.5,27.36a.148.148,0,0,0-.189-.086.131.131,0,0,0-.035.019l-.581.416-.487-.521A.148.148,0,0,0,34,27.181a.121.121,0,0,0-.025.03l-.375.6-.651-.3a.147.147,0,0,0-.194.072.123.123,0,0,0-.012.037l-.114.7-.716-.028a.138.138,0,0,0-.119.054.143.143,0,0,0-.03.126l.166.69-.671.246a.144.144,0,0,0-.087.187.133.133,0,0,0,.019.035l.42.574-.525.482a.146.146,0,0,0,.022.23l.61.372-.3.643a.142.142,0,0,0,0,.13.147.147,0,0,0,.106.075l.708.112-.027.709a.148.148,0,0,0,.143.15.158.158,0,0,0,.038,0m3.349,2.142-1.235-.916a.147.147,0,0,0-.176,0l-1.235.916V32.969l.242.644a.148.148,0,0,0,.224.066l.58-.415.488.52a.15.15,0,0,0,.107.046h.015a.145.145,0,0,0,.111-.069l.375-.6.5.229Zm1.268-4.691a.263.263,0,0,0-.035.349l.32.438-.511.188a.264.264,0,0,0-.168.309l.127.526-.543-.02a.261.261,0,0,0-.277.223l-.089.534-.495-.224a.269.269,0,0,0-.339.1l-.287.459-.37-.4a.267.267,0,0,0-.353-.035l-.443.317-.19-.5a.264.264,0,0,0-.314-.167l-.531.125.021-.541a.268.268,0,0,0-.226-.271l-.54-.085.228-.491a.263.263,0,0,0-.1-.336l-.465-.284.4-.367a.263.263,0,0,0,.035-.349l-.32-.438.511-.188a.265.265,0,0,0,.168-.31l-.127-.526.546.021a.264.264,0,0,0,.274-.223L33,27.864l.5.225a.268.268,0,0,0,.339-.1l.286-.46.372.4a.271.271,0,0,0,.353.034l.443-.317.189.506a.27.27,0,0,0,.314.167l.531-.126-.021.541A.268.268,0,0,0,36.53,29l.54.087-.228.49a.263.263,0,0,0,.1.337l.465.283Z" fill="#474647"/>
  </g>
</svg>
