<svg id="Image" xmlns="http://www.w3.org/2000/svg" xmlns:xlink="http://www.w3.org/1999/xlink" viewBox="0 0 48 48">
  <defs>
    <linearGradient id="linear-gradient" x1="0.143" y1="38.336" x2="15.733" y2="22.75" gradientTransform="matrix(1, 0, 0, -1, 0, 48)" gradientUnits="userSpaceOnUse">
      <stop offset="0" stop-color="#73b4c8"/>
      <stop offset="0.175" stop-color="#6aaec3"/>
      <stop offset="0.457" stop-color="#529eb5"/>
      <stop offset="0.809" stop-color="#2c839f"/>
      <stop offset="1" stop-color="#147391"/>
    </linearGradient>
    <linearGradient id="linear-gradient-2" x1="22.23" y1="-16.639" x2="28.527" y2="-4.966" gradientTransform="matrix(-0.194, 0.901, 0.713, 0.237, 25.531, -3.366)" gradientUnits="userSpaceOnUse">
      <stop offset="0" stop-color="#f8f8f9"/>
      <stop offset="0.5" stop-color="#d5d4d4"/>
      <stop offset="0.63" stop-color="#d1cfce"/>
      <stop offset="0.779" stop-color="#c4c1c1"/>
      <stop offset="0.938" stop-color="#aba8a7"/>
      <stop offset="0.99" stop-color="#a29f9d"/>
    </linearGradient>
    <linearGradient id="linear-gradient-3" x1="32.275" y1="38.179" x2="47.814" y2="22.695" xlink:href="#linear-gradient"/>
    <linearGradient id="linear-gradient-4" x1="11.19" y1="25.029" x2="17.306" y2="36.962" xlink:href="#linear-gradient-2"/>
  </defs>
  <g id="g925">
    <path id="rect875" d="M2,34H46v1H2Z" fill="#147391"/>
    <path id="rect877" d="M7.465,29.083h1v5h-1Z" fill="#147391"/>
    <path id="rect877-2" d="M39,29h1v5H39Z" fill="#147391"/>
    <path id="rect877-8" d="M23,31h1v3H23Z" fill="#464646"/>
    <path id="rect877-8-7" d="M11,31h1v3H11Z" fill="#464646"/>
    <path id="rect877-8-7-9" d="M15,31h1v3H15Z" fill="#464646"/>
    <path id="rect877-8-7-4" d="M19,31h1v3H19Z" fill="#464646"/>
    <path id="rect877-8-7-5" d="M27,31h1v3H27Z" fill="#464646"/>
    <path id="rect877-8-7-9-0" d="M31,31h1v3H31Z" fill="#464646"/>
    <path id="rect877-8-7-4-3" d="M35,31h1v3H35Z" fill="#464646"/>
    <path id="path1068" d="M21.082,17.952a1,1,0,1,1-1-1A1,1,0,0,1,21.082,17.952Z" fill="#464646"/>
    <path id="path1068-4" d="M25.126,17.952a1,1,0,1,1-1-1A1,1,0,0,1,25.126,17.952Z" fill="#464646"/>
    <path id="path1068-4-9" d="M29.077,17.952a1,1,0,1,1-1-1A1,1,0,0,1,29.077,17.952Z" fill="#464646"/>
    <path id="circle13" d="M15.8,17.5A7.815,7.815,0,1,1,7.981,9.667h0A7.824,7.824,0,0,1,15.8,17.5Z" fill="url(#linear-gradient)"/>
    <path id="path909" d="M7.981,11.177A6.326,6.326,0,0,0,1.663,17.51h0a6.326,6.326,0,0,0,6.318,6.334h0a6.313,6.313,0,0,0,4.674-2.082l-.551-.335a5.7,5.7,0,1,1,.189-7.622l.543-.345A6.312,6.312,0,0,0,7.981,11.177Zm5.57,5.212a5.531,5.531,0,0,1-.2,2.966l.793-.5a5.935,5.935,0,0,0,.111-2.031l-.015-.01Z" fill="#fff" stroke="#147391" stroke-linejoin="round" stroke-width="0.211"/>
    <path id="path907" d="M14.41,13.359V13.4l-2.795,2.106L8.82,17.614l2.808,2.021,2.778,2v.021l.009-.014.021.016.1,0a7.032,7.032,0,0,0-.01-8.335Z" stroke="#147391" stroke-linejoin="round" stroke-width="0.199" fill="url(#linear-gradient-2)"/>
    <path id="path1055" d="M11.972,13.964c-.44-.051-.8-.1-.81-.1a2.018,2.018,0,0,1,.041-.441,2.48,2.48,0,0,1,.645.046c.346.04.634.068.639.063s.028-.32.05-.7l.041-.689.22.008a.981.981,0,0,1,.239.027c.01.01-.006.42-.035.911s-.053.911-.052.934c0,.056-.022.055-.978-.057Z" fill="#fff"/>
    <path id="path1059" d="M12.407,12.962l.072-.875.566.036-.1,1.978-1.829-.24.071-.579.6.06h-.012" fill="none" stroke="#147391" stroke-width="0.2"/>
    <path id="polygon23" d="M11,20.531l-.835.837L7.082,18.144l-.119-.288L7,13.071H8.178l-.033,4.463Z" fill="#fff" stroke="#147391" stroke-width="0.385"/>
    <path id="path15" d="M7.981,25.5a8,8,0,1,1,7.981-8A8,8,0,0,1,7.981,25.5Zm0-15.667A7.667,7.667,0,1,0,15.63,17.5,7.666,7.666,0,0,0,7.981,9.833Z" fill="#464646"/>
    <path id="circle13-7" d="M47.8,17.5a7.815,7.815,0,1,1-7.815-7.833A7.824,7.824,0,0,1,47.8,17.5Z" fill="url(#linear-gradient-3)"/>
    <path id="path909-0" d="M39.981,11.177a6.326,6.326,0,0,0-6.318,6.333h0a6.326,6.326,0,0,0,6.318,6.334h0a6.313,6.313,0,0,0,4.674-2.082l-.551-.335a5.7,5.7,0,1,1,.189-7.622l.543-.345A6.312,6.312,0,0,0,39.981,11.177Zm5.57,5.212a5.531,5.531,0,0,1-.2,2.966l.793-.5a5.935,5.935,0,0,0,.111-2.031l-.015-.01Z" fill="#fff" stroke="#147391" stroke-linejoin="round" stroke-width="0.211"/>
    <path id="path907-9" d="M46.41,13.359V13.4l-2.795,2.106-2.8,2.107,2.808,2.021,2.778,2v.021l.009-.014.021.016.1,0a7.032,7.032,0,0,0-.01-8.335Z" stroke="#147391" stroke-linejoin="round" stroke-width="0.199" fill="url(#linear-gradient-4)"/>
    <path id="path1055-9" d="M43.972,13.964c-.44-.051-.8-.1-.81-.1a2.018,2.018,0,0,1,.041-.441,2.48,2.48,0,0,1,.645.046c.346.04.634.068.639.063s.028-.32.05-.7l.041-.689.22.008a.981.981,0,0,1,.239.027c.01.01-.006.42-.035.911s-.053.911-.052.934c0,.056-.022.055-.978-.057Z" fill="#fff"/>
    <path id="path1059-2" d="M44.407,12.962l.072-.875.566.036-.1,1.978-1.829-.24.071-.579.6.06h-.012" fill="none" stroke="#147391" stroke-width="0.2"/>
    <path id="polygon23-3" d="M43,20.531l-.835.837-3.081-3.224-.119-.288L39,13.071h1.182l-.033,4.463Z" fill="#fff" stroke="#147391" stroke-width="0.385"/>
    <path id="path15-2" d="M39.981,25.5a8,8,0,1,1,7.981-8A8,8,0,0,1,39.981,25.5Zm0-15.667A7.667,7.667,0,1,0,47.63,17.5,7.666,7.666,0,0,0,39.981,9.833Z" fill="#464646"/>
  </g>
</svg>
