<svg id="Image" xmlns="http://www.w3.org/2000/svg" xmlns:xlink="http://www.w3.org/1999/xlink" viewBox="0 0 48 48">
  <defs>
    <linearGradient id="linear-gradient" x1="1.75" y1="34.75" x2="22.25" y2="14.25" gradientTransform="matrix(1, 0, 0, -1, 0, 48)" gradientUnits="userSpaceOnUse">
      <stop offset="0" stop-color="#fff"/>
      <stop offset="1" stop-color="#dcdcdc"/>
    </linearGradient>
    <linearGradient id="linear-gradient-2" x1="28.75" y1="33.75" x2="47.25" y2="15.25" xlink:href="#linear-gradient"/>
  </defs>
  <g id="g842">
    <path id="rect10" d="M2,13H22V34H2Z" fill="url(#linear-gradient)"/>
    <path id="rect12" d="M30,13H46V34H30Z" fill="url(#linear-gradient-2)"/>
    <g id="g20">
      <path id="path14" d="M3.405,27.166,5.6,21.44h.817l2.344,5.726H7.9l-.668-1.734H4.839L4.21,27.166Zm1.653-2.351H7l-.6-1.586q-.271-.723-.4-1.187a7.391,7.391,0,0,1-.308,1.093Z" fill="#177491"/>
      <path id="path16" d="M9.339,27.166V21.44h2.148a2.649,2.649,0,0,1,1.053.174,1.337,1.337,0,0,1,.621.535,1.417,1.417,0,0,1,.225.756,1.308,1.308,0,0,1-.2.691,1.423,1.423,0,0,1-.6.524,1.5,1.5,0,0,1,.8.519,1.39,1.39,0,0,1,.279.867,1.672,1.672,0,0,1-.17.748,1.457,1.457,0,0,1-.42.533,1.745,1.745,0,0,1-.627.283,3.734,3.734,0,0,1-.924.1Zm.758-3.32h1.238a2.788,2.788,0,0,0,.723-.066.8.8,0,0,0,.435-.285.818.818,0,0,0,.147-.5.919.919,0,0,0-.137-.5.686.686,0,0,0-.391-.3,3.309,3.309,0,0,0-.871-.08H10.1Zm0,2.644h1.425a3.426,3.426,0,0,0,.516-.027,1.242,1.242,0,0,0,.438-.156.83.83,0,0,0,.289-.319,1.009,1.009,0,0,0,.113-.482.957.957,0,0,0-.164-.556.868.868,0,0,0-.455-.332,2.822,2.822,0,0,0-.838-.1H10.1Z" fill="#177491"/>
      <path id="path18" d="M18.792,25.158l.758.192a2.547,2.547,0,0,1-.858,1.423,2.355,2.355,0,0,1-1.513.491,2.709,2.709,0,0,1-1.506-.377A2.352,2.352,0,0,1,14.79,25.8a3.886,3.886,0,0,1-.3-1.535,3.382,3.382,0,0,1,.342-1.56,2.342,2.342,0,0,1,.973-1.012,2.85,2.85,0,0,1,1.388-.346,2.353,2.353,0,0,1,1.446.438,2.261,2.261,0,0,1,.816,1.23l-.746.176a1.766,1.766,0,0,0-.578-.91A1.539,1.539,0,0,0,17.178,22a1.846,1.846,0,0,0-1.1.316,1.669,1.669,0,0,0-.623.85,3.4,3.4,0,0,0-.179,1.1,3.508,3.508,0,0,0,.212,1.275,1.586,1.586,0,0,0,.663.815,1.868,1.868,0,0,0,.972.269,1.624,1.624,0,0,0,1.078-.367A1.881,1.881,0,0,0,18.792,25.158Z" fill="#177491"/>
    </g>
    <path id="polygon30" d="M1,13V34H7V33H2V14H7V13Z" fill="#464646"/>
    <path id="polygon32" d="M22,13V34H16V33h5V14H16V13Z" fill="#464646"/>
    <path id="polygon34" d="M30,13V34h6V33H31V14h5V13Z" fill="#464646"/>
    <path id="rect38" d="M23,33h6v1H23Z" fill="#464646"/>
  </g>
</svg>
