<svg id="Image" xmlns="http://www.w3.org/2000/svg" xmlns:xlink="http://www.w3.org/1999/xlink" viewBox="0 0 48 48">
  <defs>
    <linearGradient id="linear-gradient" x1="8.73" y1="8.521" x2="38.482" y2="38.274" gradientUnits="userSpaceOnUse">
      <stop offset="0" stop-color="#7eb8cd"/>
      <stop offset="1" stop-color="#087091"/>
    </linearGradient>
    <linearGradient id="Mid_gray" data-name="Mid gray" x1="29.72" y1="26.133" x2="40.925" y2="37.337" gradientUnits="userSpaceOnUse">
      <stop offset="0" stop-color="#fff"/>
      <stop offset="1" stop-color="#c9c6c5"/>
    </linearGradient>
  </defs>
  <g>
    <path d="M33.9,42.856A22.174,22.174,0,0,1,22.788,45.29a23.484,23.484,0,0,1-11.529-4.117L20.99,28.926a7.4,7.4,0,0,0,2.669.8,6.393,6.393,0,0,0,2.329-.306ZM19.424,27.647a6.5,6.5,0,0,1-1.136-2.065,6.413,6.413,0,0,1-.27-2.488l-15.4-2.2s-.942,3.58.787,9.457a21.117,21.117,0,0,0,6.341,9.553Zm-.852-6.434a9.672,9.672,0,0,1,2.069-2.454,6.687,6.687,0,0,1,3.015-.947l-.234-15.64A19.95,19.95,0,0,0,9.578,7.688C3.468,13.48,2.951,19.012,2.951,19.012ZM25.625,18a6.977,6.977,0,0,1,3.659,2.85,6.4,6.4,0,0,1,.669,3.822l14.955,4.456a21.683,21.683,0,0,0-1.783-15.284A21.911,21.911,0,0,0,25.373,2.266Z" stroke="#097091" stroke-miterlimit="10" fill="url(#linear-gradient)"/>
    <path d="M44.419,30.944a32.994,32.994,0,0,1-3.263,5.9,21.225,21.225,0,0,1-5.569,5.042L27.765,28.441a5.512,5.512,0,0,0,.982-1,4.888,4.888,0,0,0,.588-.923Z" stroke="#757170" stroke-miterlimit="10" fill="url(#Mid_gray)"/>
  </g>
</svg>
