<svg id="Layer_1" data-name="Layer 1" xmlns="http://www.w3.org/2000/svg" xmlns:xlink="http://www.w3.org/1999/xlink" viewBox="0 0 48 48">
  <defs>
    <linearGradient id="linear-gradient" x1="3.5" y1="1326.5" x2="45" y2="1368" gradientTransform="translate(0 -1320)" gradientUnits="userSpaceOnUse">
      <stop offset="0" stop-color="#fff"/>
      <stop offset="0.232" stop-color="#fafafa"/>
      <stop offset="0.496" stop-color="#ededed"/>
      <stop offset="0.775" stop-color="#d6d6d6"/>
      <stop offset="1" stop-color="#bebebe"/>
    </linearGradient>
    <linearGradient id="linear-gradient-2" x1="29.25" y1="1323.75" x2="42.25" y2="1336.75" gradientTransform="translate(0 -1320)" gradientUnits="userSpaceOnUse">
      <stop offset="0" stop-color="#fff"/>
      <stop offset="0.221" stop-color="#f8f8f8"/>
      <stop offset="0.541" stop-color="#e5e5e5"/>
      <stop offset="0.92" stop-color="#c6c6c6"/>
      <stop offset="1" stop-color="#bebebe"/>
    </linearGradient>
    <linearGradient id="linear-gradient-3" x1="3.75" y1="47.75" x2="26.25" y2="25.25" gradientTransform="matrix(1, 0, 0, -1, 0, 48)" gradientUnits="userSpaceOnUse">
      <stop offset="0" stop-color="#73b4c8"/>
      <stop offset="0.175" stop-color="#6aaec3"/>
      <stop offset="0.457" stop-color="#529eb5"/>
      <stop offset="0.809" stop-color="#2c839f"/>
      <stop offset="1" stop-color="#147391"/>
    </linearGradient>
  </defs>
  <g id="g857">
    <path id="polygon13" d="M32.5.5H9.5v47h36v-34Z" stroke="#464646" stroke-miterlimit="10" fill="url(#linear-gradient)"/>
    <path id="polygon26" d="M32.5.5v13h13Z" stroke="#464646" stroke-linejoin="round" fill="url(#linear-gradient-2)"/>
    <path id="line28" d="M15,34.5H40" fill="none" stroke="#5a5a5a"/>
    <path id="line30" d="M15,28.5H40" fill="none" stroke="#5a5a5a"/>
    <path id="line32" d="M15,40.5H40" fill="none" stroke="#5a5a5a"/>
    <path id="rect45" d="M.5,3.5h29v16H.5Z" stroke="#464646" stroke-miterlimit="10" fill="url(#linear-gradient-3)"/>
    <g id="text870-9">
      <path id="path865" d="M27.937,16.238a12.54,12.54,0,0,1-1.726.553,8.755,8.755,0,0,1-2.141.27A5.107,5.107,0,0,1,20.2,15.6a5.634,5.634,0,0,1-1.4-4.051,5.559,5.559,0,0,1,1.413-3.967A5.127,5.127,0,0,1,24.148,6.07a8.408,8.408,0,0,1,1.823.191,7.6,7.6,0,0,1,1.927.745V9.483h-.28c-.122-.1-.3-.239-.534-.419a6.021,6.021,0,0,0-.677-.468,4.2,4.2,0,0,0-.886-.391,3.449,3.449,0,0,0-1.067-.163,3.26,3.26,0,0,0-1.205.213,2.776,2.776,0,0,0-.97.653,3.059,3.059,0,0,0-.651,1.086,4.47,4.47,0,0,0-.234,1.511,3.83,3.83,0,0,0,.853,2.682,3.248,3.248,0,0,0,2.519.93c.1,0,.2,0,.313-.007s.223-.012.319-.022V13.016H23.464V11.022h4.473Z" fill="#fff"/>
    </g>
    <g id="text870-2">
      <path id="path868" d="M18.037,9.477a4.607,4.607,0,0,1-.228,1.432,3.277,3.277,0,0,1-.654,1.169,3.98,3.98,0,0,1-1.3.971,4.224,4.224,0,0,1-1.777.329H12.518v3.544H10.01V6.043h4.128a5.707,5.707,0,0,1,1.561.182,3.429,3.429,0,0,1,1.13.534,2.773,2.773,0,0,1,.895,1.1A3.8,3.8,0,0,1,18.037,9.477Zm-2.593.065a1.376,1.376,0,0,0-.222-.789,1.228,1.228,0,0,0-.516-.467,2.048,2.048,0,0,0-.764-.19q-.372-.023-.993-.022h-.431v3.258h.719a5.226,5.226,0,0,0,1.051-.087,1.433,1.433,0,0,0,.7-.351,1.342,1.342,0,0,0,.346-.555A2.508,2.508,0,0,0,15.444,9.542Z" fill="#fff"/>
    </g>
    <g id="text870">
      <path id="path871" d="M8.054,13.585a3.86,3.86,0,0,1-.228,1.335,2.727,2.727,0,0,1-.68,1.046A3.339,3.339,0,0,1,6,16.677a4.89,4.89,0,0,1-1.666.247q-.672,0-1.267-.058a7.821,7.821,0,0,1-1.045-.153V14.521h.235c.209.087.427.17.653.247a2.89,2.89,0,0,0,.869.109,2.21,2.21,0,0,0,1.052-.2,1.164,1.164,0,0,0,.529-.566,2.255,2.255,0,0,0,.169-.777c.014-.286.02-.648.02-1.089v-4.3H3.319V5.949H8.054Z" fill="#fff"/>
    </g>
  </g>
</svg>
