<svg id="Layer_1" data-name="Layer 1" xmlns="http://www.w3.org/2000/svg" xmlns:xlink="http://www.w3.org/1999/xlink" viewBox="0 0 48 48">
  <defs>
    <linearGradient id="linear-gradient" x1="13.033" y1="9.106" x2="19.558" y2="16.071" gradientUnits="userSpaceOnUse">
      <stop offset="0" stop-color="#fff"/>
      <stop offset="0.042" stop-color="#fcfcfc"/>
      <stop offset="0.232" stop-color="#fafafa"/>
      <stop offset="0.496" stop-color="#ededed"/>
      <stop offset="0.775" stop-color="#d6d6d6"/>
      <stop offset="1" stop-color="#bebebe"/>
    </linearGradient>
    <linearGradient id="linear-gradient-2" x1="30.657" y1="14.668" x2="35.87" y2="18.871" gradientUnits="userSpaceOnUse">
      <stop offset="0.232" stop-color="#fafafa"/>
      <stop offset="0.496" stop-color="#ededed"/>
      <stop offset="0.775" stop-color="#d6d6d6"/>
      <stop offset="1" stop-color="#bebebe"/>
    </linearGradient>
    <linearGradient id="linear-gradient-3" x1="15.957" y1="14.218" x2="23.267" y2="20.701" gradientUnits="userSpaceOnUse">
      <stop offset="0" stop-color="#fff"/>
      <stop offset="0.221" stop-color="#f8f8f8"/>
      <stop offset="0.541" stop-color="#e5e5e5"/>
      <stop offset="0.92" stop-color="#c6c6c6"/>
      <stop offset="1" stop-color="#bebebe"/>
    </linearGradient>
  </defs>
  <path id="path885" d="M15.905,40.874l-3.653-1.6,3.465-6.937,2.73-5.869,1.927.911c.446.222.57.134.587.116.078-.08,7.046-13.728,7.046-13.8a1.875,1.875,0,0,0-.74-.632c-.435-.219-1.1-.566-1.1-.585a17.857,17.857,0,0,1,1.293-3.486c.879-1.758,1.328-2.753,1.31-2.77s-3.2-1.589-5.134-2.56L19.865,1.569l6.645-.292,3.443-.055,2.106.314c.82.122,6.269,3.476,6.269,3.577a4.118,4.118,0,0,1-1.108,2l-.752,2.368,1.816,1.16a16.933,16.933,0,0,0,2.985,1.307,25.644,25.644,0,0,1-3.394,2.167,3.026,3.026,0,0,1-2.623-.238,8.243,8.243,0,0,0-1-.442c-.079-.015-1.263,3.879-7.317,14.062L19.687,42.645Z" fill="url(#linear-gradient)"/>
  <path id="path901" d="M34.3,19.482c-1.381-.767-2.534-1.417-2.561-1.445A16.966,16.966,0,0,1,33.374,14.7a5.443,5.443,0,0,1,2.451,1.853c.926,1.386,1.435,4.288.944,4.267C36.659,20.817,35.679,20.249,34.3,19.482Z" fill="url(#linear-gradient-2)"/>
  <path id="path897" d="M17.853,26.685,17.135,25.6l-.3-.681-.3-.681,1.629-3.62L19.636,17.2l-2.072-3.946L15.8,10.478l.185-.339c.1-.187,1.169-1.611,1.19-1.611s1.113.56,3.959,1.98l6.414,3.2-6.672,14.1C20.866,27.817,18.416,26.947,17.853,26.685Z" fill="url(#linear-gradient-3)"/>
  <rect id="rect883" x="10.3" y="43.785" width="6.627" height="1.051" transform="translate(-32.04 36.285) rotate(-62.952)" fill="#147391"/>
  <line id="line23-5" x1="13.713" y1="36.743" x2="15.616" y2="37.68" fill="none" stroke="#464646" stroke-linejoin="round"/>
  <line id="line25-9" x1="17.857" y1="28.489" x2="21.029" y2="30.051" fill="none" stroke="#464646" stroke-linejoin="round"/>
  <line id="line21-1" x1="26" y1="12.242" x2="29.172" y2="13.805" fill="none" stroke="#464646" stroke-linejoin="round"/>
  <line id="line23-4" x1="27.25" y1="9.705" x2="29.153" y2="10.642" fill="none" stroke="#464646" stroke-linejoin="round"/>
  <line id="line25-5" x1="28.5" y1="7.168" x2="31.671" y2="8.73" fill="none" stroke="#464646" stroke-linejoin="round"/>
  <path id="line21-18" d="M24.918,18.223l1.626.843" fill="none" stroke="#464646" stroke-linejoin="round"/>
  <path id="line21-18-07" d="M22.033,24.193,23.569,25" fill="none" stroke="#464646" stroke-linejoin="round"/>
  <path id="line21-18-07-5" d="M16.607,31.026l1.626.843" fill="none" stroke="#464646" stroke-linejoin="round"/>
  <line id="line23-8" x1="23.703" y1="15.882" x2="25.606" y2="16.819" fill="none" stroke="#464646" stroke-linejoin="round"/>
  <line id="line23-7" x1="21.018" y1="21.497" x2="22.921" y2="22.434" fill="none" stroke="#464646" stroke-linejoin="round"/>
  <line id="line21-2" x1="15.034" y1="34.121" x2="18.205" y2="35.683" fill="none" stroke="#464646" stroke-linejoin="round"/>
  <path id="line21-18-07-3" d="M23.519,19.264l1.536.807" fill="none" stroke="#464646" stroke-linejoin="round"/>
  <path id="line21-18-07-3-5" d="M20.32,25.448l1.535.808" fill="none" stroke="#464646" stroke-linejoin="round"/>
  <path id="path868" d="M20.3.684l-.944.6.125,1.1L27.918,6.7l-2.724,5.165L16.81,7.649,15.184,10.9l4.113,6.29-3.269,6.528-.051.106,1.045,2.6.612.307L11.22,39.488l8.292,4.148L31.8,19.139l5.028,2.527a5.574,5.574,0,0,0-2.691-7.393,5.578,5.578,0,0,0,7.479-2.487L36.641,9.392l2.32-4.561L32.323,1.513,30.665.684Zm0,1.011,10.184-.019,7.127,3.589L35.82,8.7l-.54,1.066,1.032.473L40.2,12.129c-.443,1.416-3.882,2.463-5.636,1.278l-.878-.483L19.083,42.3,12.554,39.04l5.978-11.8,2.42,1.148,7.469-14.928L26.089,12.31l3.274-6.2-1.047-.474ZM17.292,9.046l9.759,4.86L20.51,27.084l-2.64-1.335L17.3,24.341l-.233-.626,3.448-6.547-4.168-6.5Zm16.541,6.005c1.578.553,3.363,3.918,2.526,5.332l-4.08-2.071Z" fill="#147391"/>
</svg>
