<svg id="Layer_1" data-name="Layer 1" xmlns="http://www.w3.org/2000/svg" xmlns:xlink="http://www.w3.org/1999/xlink" viewBox="0 0 48 48">
  <defs>
    <linearGradient id="linear-gradient" x1="7.005" y1="44.013" x2="20.487" y2="33.476" gradientTransform="matrix(1, 0, 0, -1, 0, 48)" gradientUnits="userSpaceOnUse">
      <stop offset="0" stop-color="#fff"/>
      <stop offset="1" stop-color="#bebdbd"/>
    </linearGradient>
    <linearGradient id="linear-gradient-2" x1="11.591" y1="27.336" x2="25.585" y2="19.558" gradientTransform="matrix(1, 0, 0, -1, 0, 48)" gradientUnits="userSpaceOnUse">
      <stop offset="0" stop-color="#73b4c8"/>
      <stop offset="1" stop-color="#177492"/>
    </linearGradient>
    <linearGradient id="linear-gradient-3" x1="7.836" y1="44.192" x2="17.106" y2="34.922" xlink:href="#linear-gradient-2"/>
    <linearGradient id="linear-gradient-4" x1="20.484" y1="46.516" x2="24.728" y2="40.178" xlink:href="#linear-gradient-2"/>
    <linearGradient id="linear-gradient-5" x1="10.404" y1="42.058" x2="14.303" y2="38.159" xlink:href="#linear-gradient"/>
    <linearGradient id="linear-gradient-6" x1="4.655" y1="47.038" x2="29.381" y2="25.347" xlink:href="#linear-gradient"/>
    <linearGradient id="linear-gradient-7" x1="1.288" y1="26.485" x2="17.436" y2="14.898" gradientTransform="matrix(1, 0, 0, -1, 0, 50)" gradientUnits="userSpaceOnUse">
      <stop offset="0" stop-color="#cee6eb"/>
      <stop offset="0.221" stop-color="#c6e2e8"/>
      <stop offset="0.542" stop-color="#b3d8e1"/>
      <stop offset="0.921" stop-color="#93c7d4"/>
      <stop offset="1" stop-color="#8dc3d2"/>
    </linearGradient>
    <linearGradient id="linear-gradient-8" x1="0.447" y1="20.018" x2="10.349" y2="2.426" gradientTransform="matrix(1, 0, 0, -1, 0, 50)" gradientUnits="userSpaceOnUse">
      <stop offset="0" stop-color="#afd7e1"/>
      <stop offset="0.159" stop-color="#a5d1dc"/>
      <stop offset="0.706" stop-color="#82bdcf"/>
      <stop offset="1" stop-color="#73b4c8"/>
    </linearGradient>
    <linearGradient id="linear-gradient-9" x1="26.634" y1="26.111" x2="47.768" y2="-0.093" gradientTransform="matrix(1, 0, 0, -1, 0, 48)" gradientUnits="userSpaceOnUse">
      <stop offset="0" stop-color="#fff"/>
      <stop offset="0.221" stop-color="#f8f8f8"/>
      <stop offset="0.541" stop-color="#e5e5e5"/>
      <stop offset="0.92" stop-color="#c6c6c6"/>
      <stop offset="1" stop-color="#bebebe"/>
    </linearGradient>
    <linearGradient id="linear-gradient-10" x1="28.307" y1="24.108" x2="45.634" y2="2.482" gradientTransform="matrix(1, 0, 0, -1, 0, 48)" gradientUnits="userSpaceOnUse">
      <stop offset="0" stop-color="#fff"/>
      <stop offset="0.335" stop-color="#f8f8f8"/>
      <stop offset="0.82" stop-color="#e5e5e5"/>
      <stop offset="1" stop-color="#dcdcdc"/>
    </linearGradient>
    <linearGradient id="linear-gradient-11" x1="41.905" y1="22.497" x2="31.191" y2="28.476" gradientTransform="matrix(1, 0, 0, -1, 0, 48)" gradientUnits="userSpaceOnUse">
      <stop offset="0" stop-color="#bebebe"/>
      <stop offset="0.045" stop-color="#c4c4c4"/>
      <stop offset="0.268" stop-color="#dedede"/>
      <stop offset="0.497" stop-color="#f0f0f0"/>
      <stop offset="0.736" stop-color="#fbfbfb"/>
      <stop offset="1" stop-color="#fff"/>
    </linearGradient>
  </defs>
  <g id="g962">
    <g id="g40">
      <path id="path18" d="M20.549,2.052H11.758a4.511,4.511,0,0,0-.285-.447l-.014-.019a4.181,4.181,0,0,0-.719-.76L10.7.794a4.2,4.2,0,0,0-.366-.261L10.262.487a4,4,0,0,0-.91-.4C9.311.071,9.269.061,9.227.05a3.716,3.716,0,0,0-.369-.079l-.14-.023a4.02,4.02,0,0,0-.5-.035A4.186,4.186,0,0,0,4.132,4.191a4.621,4.621,0,0,0,.03.5c.006.051.015.1.022.151.017.114.037.225.063.335.011.055.025.109.039.163.029.109.062.215.1.32.016.046.031.093.049.138a4.151,4.151,0,0,0,.187.427h0a4.26,4.26,0,0,0,.242.406c.023.036.049.07.074.105.066.093.134.183.207.269.031.038.064.075.1.112q.113.125.234.24c.032.029.062.06.093.089a4.268,4.268,0,0,0,.357.287l7.661,13.922h7.493L12.642,6.329h7.907Z" fill="url(#linear-gradient)"/>
      <path id="path20" d="M7.54,21.059H27.125a1.482,1.482,0,0,1,1.447,1.514v3.476H6.094V22.574a1.48,1.48,0,0,1,1.445-1.515Z" fill="url(#linear-gradient-2)"/>
      <path id="path22" d="M12.306,4.191A4.185,4.185,0,0,1,8.219,8.468,4.185,4.185,0,0,1,4.132,4.191,4.186,4.186,0,0,1,8.219-.087h0A4.185,4.185,0,0,1,12.306,4.191ZM8.219,2.409a1.746,1.746,0,0,0-1.7,1.782,1.705,1.705,0,1,0,3.407,0h0a1.745,1.745,0,0,0-1.7-1.783Z" fill="url(#linear-gradient-3)"/>
      <rect id="rect24" x="21.216" y="1.278" width="2.159" height="5.824" fill="url(#linear-gradient-4)"/>
      <g id="g38">
        <g id="g30">
          <path id="path26" d="M10.234,4.19a2.061,2.061,0,0,0-2.05-2.072A2.064,2.064,0,0,0,6.2,4.19,2.061,2.061,0,0,1,8.255,2.118,2.064,2.064,0,0,1,10.234,4.19Z" fill="url(#linear-gradient-5)"/>
          <path id="path28" d="M8.219,1.757A2.381,2.381,0,0,0,5.892,4.191,2.383,2.383,0,0,0,8.218,6.627a2.383,2.383,0,0,0,2.328-2.434h0A2.385,2.385,0,0,0,8.219,1.757Zm0,4.217a1.745,1.745,0,0,1-1.7-1.782,1.705,1.705,0,1,1,3.407,0h0a1.744,1.744,0,0,1-1.7,1.782Z" fill="#464646"/>
        </g>
        <g id="g36">
          <path id="path32" d="M6.406,22.574A1.163,1.163,0,0,1,7.54,21.386H13.8L9.1,12.837l4.671,8.49H20.54L12.1,6l8.472,15.382h6.551a1.163,1.163,0,0,1,1.135,1.188,1.163,1.163,0,0,0-1.135-1.188H7.544a1.162,1.162,0,0,0-1.135,1.188h0ZM8.776,8.1a3.755,3.755,0,0,0,2.452-1.525A3.742,3.742,0,0,1,8.776,8.1ZM6.25,7.666,6.161,7.5,6.1,7.461a3.884,3.884,0,0,1-.689-.637L5.4,6.814c.026.031.053.061.08.091.058.065.121.13.184.189s.083.081.12.113c.076.068.149.125.221.18a3.77,3.77,0,0,0,.962.53ZM20.9,6h-.043V2.378H11.6l.107.3c-.049-.121-.1-.239-.161-.353L11.5,2.247a4.134,4.134,0,0,0-.271-.429,4.339,4.339,0,0,0-.374-.447,3.826,3.826,0,0,1,.628.842l.091.164H20.9V.952h0V6Zm2.783-.4V4.338l.162.141,2.961,1.69,1.54-.883,1.274-.02-.732.923L26.809,7.383ZM5.3,6.688a3.815,3.815,0,0,1-.4-.62,3.938,3.938,0,0,1-.176-.392s-.05-.146-.062-.175l.062.183c.044.112.087.205.132.3s.08.156.124.231.087.151.131.219C5.112,6.428,5.265,6.642,5.3,6.688Zm6.4-.965-.033.092-.059.116c.035-.068.065-.138.094-.208Zm-7.162-.69a4.084,4.084,0,0,1-.091-.84h0a4.092,4.092,0,0,0,.028.457l.021.144C4.505,4.873,4.518,4.954,4.535,5.033Zm19.152-2.3L26.809.954l2.083,1.194.731.924L28.35,3.051l-1.541-.883L23.686,3.951Zm-13.2-1.7c-.1-.077-.2-.151-.308-.219L10.094.764A3.711,3.711,0,0,0,9.269.4L9.233.386,9.266.4A3.616,3.616,0,0,1,10.1.768l.068.043c.116.074.229.155.338.241l.023.019ZM9.148.365C9.017.331,8.916.31,8.813.293L8.688.272C8.622.264,8.564.259,8.511.254,8.42.247,8.33.24,8.239.239A3.683,3.683,0,0,1,9.148.365Z" fill="url(#linear-gradient-6)"/>
          <path id="path34" d="M9.13.7h0m17.679.629L28.691,2.4l.261.33-.522-.009-1.322-.759-.3-.171-.3.171L24,3.4V2.931l.3-.17,2.513-1.435M24,4.936l2.512,1.436.3.171.3-.172,1.321-.76.519-.009-.26.33-1.88,1.08L24.3,5.576l-.3-.17V4.935M8.22-.09A4.186,4.186,0,0,0,4.132,4.187v0h0a4.544,4.544,0,0,0,.113.979h0c.008.035.018.069.027.1.033.131.072.261.117.392.014.042.028.084.044.126h0a4.38,4.38,0,0,0,.187.427h0A4.275,4.275,0,0,0,5.143,7h0l.034.039a4.136,4.136,0,0,0,.748.689L13.26,21.059H7.544A1.482,1.482,0,0,0,6.1,22.573v3.476H28.572V22.574a1.482,1.482,0,0,0-1.447-1.514H20.752L12.642,6.329h7.951V7.755H24V6.15l2.811,1.6L29.1,6.445l1.2-1.518-2.028.034L26.809,5.8,24,4.193V4.144l2.811-1.6,1.458.836L30.3,3.41,29.1,1.892,26.809.582,24,2.187V.626H20.593V2.052H11.755A4.243,4.243,0,0,0,10.723.815L10.7.794h0A3.918,3.918,0,0,0,10.33.533h0L10.259.487h0a4,4,0,0,0-.9-.4h0C9.314.071,9.272.061,9.23.05h0A3.865,3.865,0,0,0,8.221-.087Zm0,7.9A3.332,3.332,0,0,1,6.2,7.127c-.069-.053-.139-.1-.215-.173-.037-.033-.072-.065-.108-.1-.058-.056-.115-.114-.17-.174-.035-.039-.07-.08-.1-.12-.052-.065-.1-.131-.149-.2-.029-.04-.062-.08-.087-.122-.048-.071-.083-.136-.121-.2s-.077-.139-.112-.212-.081-.17-.121-.273c-.017-.041-.031-.085-.046-.13-.03-.088-.058-.176-.082-.266-.013-.046-.024-.092-.034-.138-.021-.093-.038-.188-.052-.284l-.008-.058c0-.024-.008-.046-.011-.071a3.909,3.909,0,0,1-.025-.419h0A3.55,3.55,0,0,1,8.22.562c.089,0,.176.007.262.013l.164.017A.587.587,0,0,1,8.73.605l.036.006c.106.018.209.039.311.066L9.1.682l.086.023a3.392,3.392,0,0,1,.754.336c.028.017.055.035.082.053a3.293,3.293,0,0,1,.283.2l.062.047a3.522,3.522,0,0,1,.605.644l.017.022a3.637,3.637,0,0,1,.223.35l.028.047.038.069a3.709,3.709,0,0,1-1.414,4.9,3.344,3.344,0,0,1-1.638.431Zm13-.71V1.278h2.159V7.1ZM12.048,5.677a4.4,4.4,0,0,0,0-2.973h8.5V5.677ZM8.219,8.468a4.066,4.066,0,0,0,3.617-2.293l.264.48L20,21H13.947L6.929,8.247A3.9,3.9,0,0,0,8.219,8.468ZM6.717,25.4V22.574a.843.843,0,0,1,.823-.861H27.125a.843.843,0,0,1,.823.861V25.4Z" fill="#464646"/>
        </g>
      </g>
    </g>
    <path id="polygon41" d="M10.5,47.6V35.972l10.107-5.846V41.759Z" fill="#3f91af"/>
    <path id="polygon43" d="M10.5,35.972.394,30.126l10.089-5.848L20.6,30.122Z" fill="url(#linear-gradient-7)"/>
    <path id="polygon45-3" d="M.394,30.126,10.5,35.972V47.6L.394,41.759Z" fill="url(#linear-gradient-8)"/>
    <path id="rect49" d="M10.1,35.971H10.9V47.6H10.1Z" fill="#177491"/>
    <path id="path47" d="M10.5,36.366a.4.4,0,0,1-.2-.053L.2,30.468l.4-.685L10.5,35.511l9.91-5.728.395.685L10.7,36.313A.394.394,0,0,1,10.5,36.366Z" fill="#177491"/>
    <path id="path51" d="M10.5,48a.42.42,0,0,1-.2-.054L.2,42.105a.4.4,0,0,1-.2-.343V30.126a.4.4,0,0,1,.2-.343l10.089-5.844a.4.4,0,0,1,.4,0L20.8,29.784a.4.4,0,0,1,.2.344V41.764a.4.4,0,0,1-.2.343L10.7,47.946A.4.4,0,0,1,10.5,48ZM.787,41.531l9.71,5.616,9.712-5.615V30.355L10.48,24.739.787,30.354Z" fill="#4e4a48"/>
    <rect id="rect13" x="26.457" y="22.032" width="21.125" height="25.468" stroke="#464646" stroke-miterlimit="10" fill="url(#linear-gradient-9)"/>
    <rect id="rect24-3" x="28.267" y="23.851" width="17.504" height="21.83" stroke="#bebebe" stroke-miterlimit="10" fill="url(#linear-gradient-10)"/>
    <path id="path39" d="M40.942,21.426H39.735v-.607A1.814,1.814,0,0,0,37.925,19H36.114A1.815,1.815,0,0,0,34.3,20.819v.607H33.1a1.209,1.209,0,0,0-1.207,1.212v1.819H42.15V22.638A1.21,1.21,0,0,0,40.942,21.426Z" stroke="#464646" stroke-miterlimit="10" fill="url(#linear-gradient-11)"/>
    <circle id="circle41" cx="37.019" cy="21.122" r="0.604" fill="#464646"/>
    <rect id="rect43" x="36.114" y="28.096" width="1.811" height="3.638" fill="#3c91af" stroke="#147391" stroke-miterlimit="10" stroke-width="0.7"/>
    <rect id="rect45" x="36.114" y="32.947" width="1.811" height="3.638" fill="#3c91af" stroke="#147391" stroke-miterlimit="10" stroke-width="0.7"/>
    <rect id="rect47" x="30.078" y="32.34" width="2.414" height="4.851" fill="#3c91af" stroke="#147391" stroke-miterlimit="10" stroke-width="0.7"/>
    <rect id="rect49-1" x="41.546" y="32.34" width="2.414" height="4.851" fill="#3c91af" stroke="#147391" stroke-miterlimit="10" stroke-width="0.7"/>
    <rect id="rect51-2" x="36.114" y="37.798" width="1.811" height="3.638" fill="#3c91af" stroke="#147391" stroke-miterlimit="10" stroke-width="0.7"/>
    <line id="line53" x1="32.191" y1="34.766" x2="35.812" y2="34.766" fill="none" stroke="#147391" stroke-miterlimit="10" stroke-width="0.7"/>
    <line id="line55" x1="37.623" y1="34.766" x2="41.244" y2="34.766" fill="none" stroke="#147391" stroke-miterlimit="10" stroke-width="0.7"/>
    <polyline id="polyline57" points="38.226 29.915 39.735 29.915 39.735 39.617 38.226 39.617" fill="none" stroke="#147391" stroke-miterlimit="10" stroke-width="1.157"/>
    <polyline id="polyline59" points="35.812 29.915 34.303 29.915 34.303 39.617 35.812 39.617" fill="none" stroke="#147391" stroke-miterlimit="10" stroke-width="1.157"/>
  </g>
</svg>
