<svg id="Layer_1" data-name="Layer 1" xmlns="http://www.w3.org/2000/svg" xmlns:xlink="http://www.w3.org/1999/xlink" viewBox="0 0 48 48">
  <defs>
    <linearGradient id="linear-gradient" x1="4.5" y1="43.5" x2="43.5" y2="4.5" gradientTransform="matrix(1.205, 0, 0, -1.205, -4.921, 52.921)" gradientUnits="userSpaceOnUse">
      <stop offset="0" stop-color="#fff"/>
      <stop offset="0.228" stop-color="#fafafa"/>
      <stop offset="0.488" stop-color="#ededed"/>
      <stop offset="0.762" stop-color="#d7d6d6"/>
      <stop offset="1" stop-color="#bdbcbc"/>
    </linearGradient>
    <linearGradient id="linear-gradient-2" x1="-45.362" y1="20.188" x2="-2.57" y2="2.617" gradientTransform="matrix(0.765, 0, 0, -1.042, 41.284, 27.669)" gradientUnits="userSpaceOnUse">
      <stop offset="0" stop-color="#73b4c8"/>
      <stop offset="0.175" stop-color="#6aaec3"/>
      <stop offset="0.457" stop-color="#529eb5"/>
      <stop offset="0.809" stop-color="#2c839f"/>
      <stop offset="1" stop-color="#147391"/>
    </linearGradient>
    <linearGradient id="linear-gradient-3" x1="-43.282" y1="25.254" x2="-0.489" y2="7.684" xlink:href="#linear-gradient-2"/>
    <linearGradient id="linear-gradient-4" x1="-40.979" y1="30.864" x2="1.814" y2="13.293" xlink:href="#linear-gradient-2"/>
    <linearGradient id="linear-gradient-5" x1="29.086" y1="15.709" x2="38.33" y2="12.435" gradientTransform="matrix(1, 0, 0, -1, 0, 48)" xlink:href="#linear-gradient-2"/>
    <linearGradient id="linear-gradient-6" x1="34.012" y1="11.535" x2="39.961" y2="8.045" gradientTransform="matrix(1, 0, 0, -1, 0, 48)" xlink:href="#linear-gradient-2"/>
    <linearGradient id="linear-gradient-7" x1="37.119" y1="6.87" x2="43.614" y2="3.989" gradientTransform="matrix(1, 0, 0, -1, 0, 48)" xlink:href="#linear-gradient-2"/>
    <linearGradient id="linear-gradient-8" x1="30.762" y1="20.905" x2="41.524" y2="17.292" gradientTransform="matrix(1, 0, 0, -1, 0, 48)" gradientUnits="userSpaceOnUse">
      <stop offset="0" stop-color="#b1b1b1"/>
      <stop offset="1" stop-color="#7d7d7d"/>
    </linearGradient>
    <linearGradient id="linear-gradient-9" x1="29.968" y1="21.728" x2="32.226" y2="18.501" gradientTransform="matrix(2.541, 0, 0, -2.541, -68.731, 53.216)" xlink:href="#linear-gradient-8"/>
    <linearGradient id="linear-gradient-10" x1="38.734" y1="17.166" x2="40.759" y2="14.366" gradientTransform="matrix(2.541, 0, 0, -2.541, -68.731, 53.216)" xlink:href="#linear-gradient-8"/>
  </defs>
  <path id="rect13" d="M.5.5h47v47H.5Z" stroke="#464646" stroke-linecap="round" stroke-miterlimit="10" fill="url(#linear-gradient)"/>
  <g id="text1338-4">
    <path id="path994" d="M20.21,19.437H16.255l-3.737-6.819-.756,1.247v5.572H8.537V2.4h3.225v7.711L16.23,2.4h3.737l-4.888,7.883Z" stroke="#464646" stroke-width="0.769" fill="url(#linear-gradient-2)"/>
    <path id="path996" d="M32.126,7.779a8.629,8.629,0,0,1-.294,2.242,5.5,5.5,0,0,1-.839,1.831,5.349,5.349,0,0,1-1.672,1.521,4.6,4.6,0,0,1-2.284.515H25.03v5.549H21.806V2.4h5.307a6.126,6.126,0,0,1,2.007.286,4.13,4.13,0,0,1,1.453.835,4.282,4.282,0,0,1,1.15,1.728A7.07,7.07,0,0,1,32.126,7.779Zm-3.334.1a2.513,2.513,0,0,0-.285-1.235,1.748,1.748,0,0,0-.664-.733,2.271,2.271,0,0,0-.982-.3q-.479-.034-1.276-.034H25.03v5.1h.924a5.543,5.543,0,0,0,1.352-.137,1.75,1.75,0,0,0,.9-.549,2.206,2.206,0,0,0,.445-.87A4.73,4.73,0,0,0,28.792,7.882Z" stroke="#464646" stroke-width="0.769" fill="url(#linear-gradient-3)"/>
    <path id="path998" d="M41.162,19.437H33.839v-3.02h2.049V5.422H33.839V2.4h7.323v3.02H39.113v11h2.049Z" stroke="#464646" stroke-width="0.769" fill="url(#linear-gradient-4)"/>
  </g>
  <g id="g2594">
    <path id="polyline62-3-2-6-7-2-0" d="M2.979,44.39l7.854-13.273,5.687,2.275,8.208-9.619" fill="none" stroke="#464646" stroke-width="2.8"/>
    <path id="path911-5-9-4-2-4-9" d="M26.68,21.261l-.423,3.388-.518,3.379L22.84,26.1,20,24.1l3.322-1.459Z" fill="#464646" stroke="#464646" stroke-linecap="round" stroke-width="0.019"/>
    <path id="path911-5-9-45-3-1" d="M26.07,22.076l-.318,2.518-.389,2.511-2.178-1.433-2.134-1.488,2.5-1.084Z" fill="#3e90aa"/>
    <path id="polyline62-3-2-7-8-8" d="M3.253,43.886l7.58-12.769,5.687,2.275,7.976-9.26" fill="none" stroke="#3e90aa" stroke-width="1.6"/>
  </g>
  <path id="rect2" d="M27.25,27.25h18.5v18.5H27.25Z" fill="#dcdcdc"/>
  <path id="rect4" d="M28.628,27.25h4.723v18.5H28.628Z" fill="#bebebe"/>
  <path id="rect6" d="M39.649,27.25h4.723v18.5H39.649Z" fill="#bebebe"/>
  <path id="path19" d="M37.878,35.516H29.612a.394.394,0,0,1-.394-.394V32.76a.393.393,0,0,1,.394-.393h8.266a.393.393,0,0,1,.393.393v2.362A.393.393,0,0,1,37.878,35.516Z" fill="url(#linear-gradient-5)"/>
  <path id="path32" d="M39.452,39.845H34.728a.393.393,0,0,1-.393-.393V37.09a.394.394,0,0,1,.393-.394h4.724a.4.4,0,0,1,.394.394v2.362A.394.394,0,0,1,39.452,39.845Z" fill="url(#linear-gradient-6)"/>
  <path id="path45" d="M43.388,44.176h-5.9a.4.4,0,0,1-.394-.394V41.42a.394.394,0,0,1,.394-.393h5.905a.393.393,0,0,1,.393.393v2.362A.394.394,0,0,1,43.388,44.176Z" fill="url(#linear-gradient-7)"/>
  <path id="rect52" d="M30.4,28.037H42.6v1.968H30.4Z" stroke="#464646" stroke-miterlimit="10" stroke-width="0.5" fill="url(#linear-gradient-8)"/>
  <path id="path954-0" d="M28.707,30.456l-.608-.5v-1.8h2.057V30.3l-.4.318c-.218.175-.407.321-.42.325S29.042,30.728,28.707,30.456Z" fill="url(#linear-gradient-9)"/>
  <path id="polygon59" d="M27.787,27.787v2.322l1.431,1.431,1.431-1.431V27.787Zm.5.5h1.862V29.9l-.931.931-.931-.931Z" fill="#464646"/>
  <path id="path954" d="M43.328,30.459l-.609-.494v-1.8h2.058v2.137l-.4.317c-.218.175-.407.321-.421.325S43.662,30.731,43.328,30.459Z" fill="url(#linear-gradient-10)"/>
  <g id="g1003">
    <path id="polygon66" d="M42.351,27.787v2.322l1.431,1.431,1.431-1.431V27.787Zm.5.5h1.862V29.9l-.931.931-.931-.931Z" fill="#464646"/>
  </g>
  <path id="rect68" d="M27.25,27.25h18.5v18.5H27.25Z" fill="none" stroke="#464646" stroke-miterlimit="10" stroke-width="0.5"/>
</svg>
