<svg id="Layer_1" data-name="Layer 1" xmlns="http://www.w3.org/2000/svg" xmlns:xlink="http://www.w3.org/1999/xlink" viewBox="0 0 48 48">
  <defs>
    <linearGradient id="linear-gradient" x1="3.5" y1="1326.5" x2="45" y2="1368" gradientTransform="translate(0 -1320)" gradientUnits="userSpaceOnUse">
      <stop offset="0" stop-color="#fff"/>
      <stop offset="0.232" stop-color="#fafafa"/>
      <stop offset="0.496" stop-color="#ededed"/>
      <stop offset="0.775" stop-color="#d6d6d6"/>
      <stop offset="1" stop-color="#bebebe"/>
    </linearGradient>
    <linearGradient id="linear-gradient-2" x1="29.25" y1="1323.75" x2="42.25" y2="1336.75" gradientTransform="translate(0 -1320)" gradientUnits="userSpaceOnUse">
      <stop offset="0" stop-color="#fff"/>
      <stop offset="0.221" stop-color="#f8f8f8"/>
      <stop offset="0.541" stop-color="#e5e5e5"/>
      <stop offset="0.92" stop-color="#c6c6c6"/>
      <stop offset="1" stop-color="#bebebe"/>
    </linearGradient>
    <linearGradient id="linear-gradient-3" x1="3.75" y1="47.75" x2="26.25" y2="25.25" gradientTransform="matrix(1, 0, 0, -1, 0, 48)" gradientUnits="userSpaceOnUse">
      <stop offset="0" stop-color="#73b4c8"/>
      <stop offset="0.175" stop-color="#6aaec3"/>
      <stop offset="0.457" stop-color="#529eb5"/>
      <stop offset="0.809" stop-color="#2c839f"/>
      <stop offset="1" stop-color="#147391"/>
    </linearGradient>
  </defs>
  <g id="g857">
    <path id="polygon13" d="M32.5.5H9.5v47h36v-34Z" stroke="#464646" stroke-miterlimit="10" fill="url(#linear-gradient)"/>
    <path id="polygon26" d="M32.5.5v13h13Z" stroke="#464646" stroke-linejoin="round" fill="url(#linear-gradient-2)"/>
    <path id="line28" d="M15,34.5H40" fill="none" stroke="#5a5a5a"/>
    <path id="line30" d="M15,28.5H40" fill="none" stroke="#5a5a5a"/>
    <path id="line32" d="M15,40.5H40" fill="none" stroke="#5a5a5a"/>
    <path id="rect45" d="M.5,3.5h29v16H.5Z" stroke="#464646" stroke-miterlimit="10" fill="url(#linear-gradient-3)"/>
    <g id="text870-9">
      <path id="path865" d="M27.968,16.468a9.719,9.719,0,0,1-1.5.568,6.523,6.523,0,0,1-1.858.277,4.083,4.083,0,0,1-3.36-1.5,6.457,6.457,0,0,1-1.214-4.158,6.353,6.353,0,0,1,1.225-4.07,4.109,4.109,0,0,1,3.417-1.551,6.226,6.226,0,0,1,1.581.2A5.994,5.994,0,0,1,27.934,7V9.536h-.243q-.158-.153-.463-.43a5.408,5.408,0,0,0-.587-.48,3.381,3.381,0,0,0-.768-.4,2.57,2.57,0,0,0-.926-.167,2.456,2.456,0,0,0-1.045.218,2.42,2.42,0,0,0-.841.67A3.292,3.292,0,0,0,22.5,10.06a5.375,5.375,0,0,0-.2,1.551,4.421,4.421,0,0,0,.74,2.753,2.594,2.594,0,0,0,2.185.954c.083,0,.173,0,.271-.008s.194-.012.277-.022V13.162H24.089V11.116h3.879Z" fill="#fff"/>
    </g>
    <g id="text870-2">
      <path id="path868" d="M9.946,9.488a4.719,4.719,0,0,1-.224,1.437A3.293,3.293,0,0,1,9.083,12.1a3.906,3.906,0,0,1-1.272.975,4.072,4.072,0,0,1-1.739.329H4.545v3.556H2.09V6.043H6.13a5.475,5.475,0,0,1,1.528.183,3.3,3.3,0,0,1,1.1.535,2.759,2.759,0,0,1,.876,1.107A3.88,3.88,0,0,1,9.946,9.488Zm-2.538.066a1.406,1.406,0,0,0-.217-.792,1.216,1.216,0,0,0-.5-.469A1.994,1.994,0,0,0,5.938,8.1c-.243-.014-.567-.022-.972-.022H4.545v3.27h.7a4.94,4.94,0,0,0,1.029-.088,1.385,1.385,0,0,0,.684-.352,1.348,1.348,0,0,0,.339-.557A2.586,2.586,0,0,0,7.408,9.554Z" fill="#fff"/>
    </g>
    <g id="text870">
      <path id="path871" d="M19,17.044H16.816L13.082,9.479v7.565H11V6.021h2.712l3.208,6.315V6.021H19Z" fill="#fff"/>
    </g>
  </g>
</svg>
