<svg id="Image" xmlns="http://www.w3.org/2000/svg" xmlns:xlink="http://www.w3.org/1999/xlink" viewBox="0 0 48 48">
  <defs>
    <linearGradient id="linear-gradient" x1="6.741" y1="33.186" x2="29.846" y2="10.081" gradientTransform="matrix(1, 0, 0, -1, 0, 48)" gradientUnits="userSpaceOnUse">
      <stop offset="0" stop-color="#73b4c8"/>
      <stop offset="1" stop-color="#177491"/>
    </linearGradient>
    <linearGradient id="linear-gradient-2" x1="14.68" y1="32.698" x2="21.892" y2="25.485" gradientTransform="matrix(1, 0, 0, -1, 0, 48)" gradientUnits="userSpaceOnUse">
      <stop offset="0" stop-color="#fff"/>
      <stop offset="1" stop-color="#bebdbd"/>
    </linearGradient>
    <linearGradient id="linear-gradient-3" x1="17.028" y1="20.662" x2="19.558" y2="18.132" xlink:href="#linear-gradient-2"/>
    <linearGradient id="linear-gradient-4" x1="20.795" y1="27.027" x2="47.519" y2="0.253" gradientTransform="matrix(1, 0, 0, -1, 0, 48)" gradientUnits="userSpaceOnUse">
      <stop offset="0" stop-color="#73b4c8"/>
      <stop offset="0.175" stop-color="#6aaec3"/>
      <stop offset="0.457" stop-color="#529eb5"/>
      <stop offset="0.809" stop-color="#2c839f"/>
      <stop offset="1" stop-color="#147391"/>
    </linearGradient>
  </defs>
  <g id="g859">
    <g id="g37">
      <path id="path21" d="M16.561,5.09,1.719,30.8a2,2,0,0,0,1.732,3H33.136a2,2,0,0,0,1.732-3L20.025,5.09a2,2,0,0,0-3.464,0Z" stroke="#177491" stroke-linecap="round" stroke-linejoin="round" fill="url(#linear-gradient)"/>
      <g id="g35">
        <g id="g27">
          <path id="path23" d="M16.5,24.335V13.73a.6.6,0,0,1,.6-.6h2.372a.6.6,0,0,1,.6.6h0V24.335Z" fill="url(#linear-gradient-2)"/>
          <path id="path25" d="M19.48,13.627a.1.1,0,0,1,.1.1h0V23.835H17V13.73a.1.1,0,0,1,.1-.1h2.38m0-1H17.107a1.1,1.1,0,0,0-1.1,1.1h0V24.835h4.578V13.73a1.1,1.1,0,0,0-1.1-1.1h0Z" fill="#6f6e6e"/>
        </g>
        <g id="g33">
          <path id="circle29" d="M20.082,28.6a1.789,1.789,0,1,1-1.789-1.789A1.789,1.789,0,0,1,20.082,28.6Z" fill="url(#linear-gradient-3)"/>
          <path id="path31" d="M18.293,27.314A1.289,1.289,0,1,1,17,28.6a1.289,1.289,0,0,1,1.293-1.286m0-1A2.289,2.289,0,1,0,20.582,28.6a2.289,2.289,0,0,0-2.293-2.289Z" fill="#6f6e6e"/>
        </g>
      </g>
    </g>
    <path id="circle62" d="M47.373,34.576a13,13,0,1,1-13-13A13,13,0,0,1,47.373,34.576Z" stroke="#464646" stroke-linecap="round" stroke-linejoin="round" fill="url(#linear-gradient-4)"/>
    <path id="path894" d="M31.51,43.965a2.034,2.034,0,0,1-.287-.1.837.837,0,0,0-.167-.062c-.017,0-.208-.072-.425-.16a9.578,9.578,0,0,1-2.559-1.554,10.753,10.753,0,0,1-1.333-1.348,1.157,1.157,0,0,0-.1-.137,6.783,6.783,0,0,1-.815-1.227.878.878,0,0,0-.152-.23.068.068,0,0,1-.037-.058,2.412,2.412,0,0,0-.144-.353c-.08-.17-.17-.377-.2-.46a1.225,1.225,0,0,0-.089-.194,2.775,2.775,0,0,1-.126-.386,3.867,3.867,0,0,0-.133-.41,3.948,3.948,0,0,1-.13-.521c-.05-.249-.108-.531-.128-.626a6.179,6.179,0,0,1-.067-.615l-.03-.443H22.767l1.748-1.749,1.748-1.748L28,33.318l1.738,1.737-.891.012-.891.012.03.225a6.908,6.908,0,0,0,.193.9,6.043,6.043,0,0,0,.562,1.424,1.748,1.748,0,0,1,.132.227.732.732,0,0,0,.133.2c.015,0,.051.054.081.119a.8.8,0,0,0,.113.183c.032.036.193.221.356.411a6.462,6.462,0,0,0,2.392,1.7,3.091,3.091,0,0,1,.312.127l.153.074-.93.927c-.511.51-.949.962-.973,1-.036.064.061.18.607.727.357.358.65.658.65.668,0,.026-.089.015-.259-.031Z" fill="#fff" stroke="#464646" stroke-linecap="square" stroke-width="0.4"/>
    <path id="path896" d="M27.278,31.774c-.534-.534-.99-.971-1.013-.971a7.98,7.98,0,0,0-.7.658,5.529,5.529,0,0,1-.659.608,8.794,8.794,0,0,1,.32-.986,2.446,2.446,0,0,0,.091-.237,8,8,0,0,1,.657-1.281,1.211,1.211,0,0,0,.141-.27c0-.026.015-.047.033-.047s.071-.063.116-.14a12.207,12.207,0,0,1,1.171-1.432,12.207,12.207,0,0,1,1.432-1.171c.077-.045.14-.1.14-.116s.022-.034.048-.034a.867.867,0,0,0,.235-.126,3.494,3.494,0,0,1,.373-.215,2.789,2.789,0,0,0,.251-.131,9.281,9.281,0,0,1,1.489-.6,1.181,1.181,0,0,0,.259-.088,3.466,3.466,0,0,1,.54-.128c.273-.051.536-.1.583-.117s.31-.047.583-.074l.5-.05.022-.881.022-.881,1.716,1.718c.944.945,1.716,1.73,1.716,1.744s-.777.8-1.727,1.754L33.884,30V28.3h-.1a6.308,6.308,0,0,0-4.556,2.551,1.247,1.247,0,0,0-.182.291c0,.028-.016.05-.036.05a5.1,5.1,0,0,0-.645,1.3.932.932,0,0,1-.1.257c-.012,0-.459-.437-.993-.971Z" fill="#fff" stroke="#464646" stroke-linecap="square" stroke-width="0.4"/>
    <path id="path898" d="M40.62,35.919,38.872,34.17h1.8l-.03-.291a1.794,1.794,0,0,0-.063-.356,1.385,1.385,0,0,1-.063-.281,6.1,6.1,0,0,0-.465-1.36,6.256,6.256,0,0,0-1.756-2.212c-.133-.1-.252-.194-.264-.206s-.128-.092-.259-.178a6.1,6.1,0,0,0-1.421-.686l-.19-.05,1.008-1.009,1.009-1.009-.084-.095c-.047-.053-.335-.345-.642-.65a3.212,3.212,0,0,1-.5-.554,3.994,3.994,0,0,1,.713.215,1.606,1.606,0,0,0,.269.106,11.436,11.436,0,0,1,1.329.648c.326.206.919.608,1.036.7l.294.242a10.7,10.7,0,0,1,1.9,2.158,11.672,11.672,0,0,1,.781,1.453,3.032,3.032,0,0,0,.114.281,9.358,9.358,0,0,1,.633,2.668l.031.441.9.022.9.021L44.106,35.93l-1.738,1.738Z" fill="#fff" stroke="#464646" stroke-linecap="square" stroke-width="0.4"/>
    <path id="path900" d="M33.006,44.4c-.946-.95-1.714-1.733-1.705-1.742s.782-.788,1.72-1.73l1.7-1.714.022.844a8.175,8.175,0,0,0,.047.87,3.548,3.548,0,0,0,.86-.1c.059-.022.272-.081.474-.131a2.759,2.759,0,0,0,.41-.125,1.805,1.805,0,0,1,.252-.11,6.613,6.613,0,0,0,1.321-.76A6.353,6.353,0,0,0,40.3,36.7l.077-.21.977.976c.538.537,1,.977,1.021.977a7.856,7.856,0,0,0,.688-.646,9.051,9.051,0,0,1,.661-.63,7.042,7.042,0,0,1-.333,1,3,3,0,0,0-.111.281,12.686,12.686,0,0,1-.62,1.2c-.043.063-.154.232-.247.375s-.207.309-.254.37-.136.177-.2.257A14.207,14.207,0,0,1,41,41.7c-.056.045-.227.193-.382.327a13.179,13.179,0,0,1-1.179.872,11.84,11.84,0,0,1-1.889.9,1,1,0,0,0-.237.088,9.614,9.614,0,0,1-2.181.428c-.391,0-.383-.017-.4.958l-.011.848Z" fill="#fff" stroke="#464646" stroke-linecap="square" stroke-width="0.4"/>
  </g>
</svg>
