<svg id="Layer_1" data-name="Layer 1" xmlns="http://www.w3.org/2000/svg" xmlns:xlink="http://www.w3.org/1999/xlink" viewBox="0 0 48 48">
  <defs>
    <linearGradient id="linear-gradient" x1="6.257" y1="47.743" x2="41.732" y2="12.268" gradientTransform="matrix(1, 0, 0, -1, 0, 48)" gradientUnits="userSpaceOnUse">
      <stop offset="0" stop-color="#73b4c8"/>
      <stop offset="0.175" stop-color="#6aaec3"/>
      <stop offset="0.457" stop-color="#529eb5"/>
      <stop offset="0.809" stop-color="#2c839f"/>
      <stop offset="1" stop-color="#147391"/>
    </linearGradient>
  </defs>
  <g id="g834">
    <path id="path13" d="M40.5,35.5h-14l-10,10v-10h-8a6.018,6.018,0,0,1-6-6V7.5a6.018,6.018,0,0,1,6-6h32a6.018,6.018,0,0,1,6,6v22A6.018,6.018,0,0,1,40.5,35.5Z" stroke="#464646" stroke-linecap="round" stroke-linejoin="round" fill="url(#linear-gradient)"/>
    <g id="text836">
      <g id="text861">
        <path id="path825" d="M22.274,24.836a7.964,7.964,0,0,1-.313-1.27,8.951,8.951,0,0,1-.136-1.543,4.825,4.825,0,0,1,.468-2.148,9.32,9.32,0,0,1,1.192-1.817q.723-.84,1.543-1.621.84-.782,1.543-1.523a7.747,7.747,0,0,0,1.191-1.563,3.445,3.445,0,0,0,.488-1.8,3.138,3.138,0,0,0-.351-1.523,3.028,3.028,0,0,0-.977-1.094,4.125,4.125,0,0,0-1.406-.664,6.326,6.326,0,0,0-1.68-.215,7.87,7.87,0,0,0-5.546,2.6V6.144a12.968,12.968,0,0,1,6.64-1.875,10.633,10.633,0,0,1,2.988.41A7.5,7.5,0,0,1,30.379,5.89,5.735,5.735,0,0,1,32.04,7.882a6.055,6.055,0,0,1,.605,2.774,6.666,6.666,0,0,1-.508,2.676A9.809,9.809,0,0,1,30.848,15.5a11.728,11.728,0,0,1-1.66,1.738q-.879.762-1.66,1.523a8.84,8.84,0,0,0-1.27,1.582,3.39,3.39,0,0,0-.508,1.817,5.067,5.067,0,0,0,.215,1.523,10.235,10.235,0,0,0,.43,1.153ZM24.5,33.1a2.89,2.89,0,0,1-1.972-.761,2.378,2.378,0,0,1-.821-1.836,2.339,2.339,0,0,1,.821-1.836,2.855,2.855,0,0,1,3.926,0,2.341,2.341,0,0,1,.82,1.836,2.38,2.38,0,0,1-.82,1.836A2.867,2.867,0,0,1,24.5,33.1Z" fill="#fff" stroke="#147391" stroke-width="1.9"/>
      </g>
    </g>
  </g>
</svg>
