<svg version="1.1" id="Livello_3" xmlns="http://www.w3.org/2000/svg" xmlns:xlink="http://www.w3.org/1999/xlink" x="0px" y="0px"
	  viewBox="0 0 48 48" enable-background="new 0 0 48 48" xml:space="preserve">
<linearGradient id="rect45_1_" gradientUnits="userSpaceOnUse" x1="320.6016" y1="-347.6494" x2="273.4411" y2="-326.6195" gradientTransform="matrix(1 0 0 -1 -273.1221 -300.9902)">
	<stop  offset="0" style="stop-color:#6F6F6F"/>
	<stop  offset="1" style="stop-color:#6F6F6F;stop-opacity:0"/>
</linearGradient>
<path id="rect45" fill="url(#rect45_1_)" stroke="#474747" stroke-width="1" stroke-miterlimit="10" d="M6.477,29.245h39.782v16
	H6.477V29.245z"/>
<path id="path963" fill="#FFFFFF" d="M19.995,42.486h-2.736v-7.141l-1.977,4.634h-1.897l-1.977-4.634v7.141H8.815V31.822h3.194
	l2.399,5.35l2.392-5.35h3.194V42.486z"/>
<path id="path960" fill="#FFFFFF" d="M31.856,37.158c0,1.699-0.487,3.051-1.461,4.053c-0.975,0.998-2.32,1.497-4.039,1.497
	c-1.715,0-3.059-0.499-4.032-1.497c-0.974-1.002-1.461-2.354-1.461-4.053c0-1.714,0.487-3.067,1.461-4.061
	c0.974-0.998,2.317-1.497,4.032-1.497c1.709,0,3.053,0.499,4.031,1.497C31.366,34.091,31.856,35.444,31.856,37.158z M28.211,39.857
	c0.268-0.324,0.466-0.706,0.595-1.146c0.129-0.444,0.193-0.964,0.193-1.562c0-0.64-0.074-1.184-0.223-1.633
	c-0.147-0.448-0.341-0.812-0.58-1.088c-0.243-0.287-0.525-0.494-0.845-0.623c-0.315-0.129-0.645-0.193-0.988-0.193
	c-0.349,0-0.678,0.062-0.988,0.186c-0.306,0.125-0.587,0.33-0.845,0.616c-0.239,0.268-0.435,0.638-0.588,1.11
	c-0.147,0.468-0.222,1.012-0.222,1.633c0,0.635,0.071,1.177,0.215,1.625c0.147,0.444,0.341,0.808,0.58,1.089
	c0.238,0.282,0.518,0.489,0.838,0.623c0.319,0.134,0.656,0.2,1.01,0.2s0.689-0.066,1.01-0.2
	C27.692,40.356,27.972,40.145,28.211,39.857z"/>
<path id="path957" fill="#FFFFFF" d="M43.903,42.486h-2.735v-7.141l-1.977,4.634h-1.897l-1.977-4.634v7.141h-2.593V31.822h3.194
	l2.398,5.35l2.393-5.35h3.193V42.486z"/>
<path id="path1610" fill="none" stroke="#474747" stroke-width="1" d="M9.645,17.58c0.152,3.258,0.304,6.517,1.522,8.107
	s3.502,1.511,5.462-1.154c1.96-2.664,3.6-7.914,5.03-11.504s2.655-5.523,4.043-6.311c1.387-0.787,2.941-0.43,4.268,3.443
	c1.327,3.873,2.431,11.274,3.534,18.673"/>
<path id="path1614"  fill="#474747" stroke="#6F6F6F" stroke-width="0.0189" d="M6.235,2.755
	c-0.276,0-0.499,0.258-0.499,0.58v4.34c0,0.028,0.01,0.053,0.014,0.08H2.203c-0.256,0-0.462,0.207-0.462,0.463v0.074
	c0,0.256,0.206,0.463,0.462,0.463h0.571l0.002,0.004v4.803v0.016h0.008c0.919,2.491,3.76,4.159,6.984,4.159
	c3.228-0.004,6.08-1.662,6.991-4.159V8.759V8.755h0.5c0.256,0,0.462-0.207,0.462-0.463V8.218c0-0.256-0.206-0.463-0.462-0.463
	h-3.547c0.003-0.027,0.014-0.052,0.014-0.08v-4.34c0-0.322-0.223-0.58-0.499-0.58c-0.277,0-0.5,0.258-0.5,0.58v4.34
	c0,0.028,0.011,0.053,0.014,0.08h-6.02c0.003-0.027,0.013-0.052,0.013-0.08v-4.34C6.734,3.013,6.512,2.755,6.235,2.755z"/>
<linearGradient id="path1614-9_1_" gradientUnits="userSpaceOnUse" x1="211.1113" y1="-235.0264" x2="220.1118" y2="-235.0264" gradientTransform="matrix(1.3297 0 0 -1.3635 -276.917 -307.7217)">
	<stop  offset="0" style="stop-color:#74B5C8"/>
	<stop  offset="0.175" style="stop-color:#6BAEC3"/>
	<stop  offset="0.457" style="stop-color:#539EB5"/>
	<stop  offset="0.809" style="stop-color:#2F849F"/>
	<stop  offset="1" style="stop-color:#187491"/>
</linearGradient>
<path id="path1614-9"  fill="url(#path1614-9_1_)" d="M3.794,8.727
	l-0.019,4.776c0.805,2.255,3.254,3.232,5.993,3.233c2.736-0.004,5.188-0.964,5.993-3.216v0.011V8.726L3.794,8.727z"/>
</svg>
