<svg id="Layer_1" data-name="Layer 1" xmlns="http://www.w3.org/2000/svg" xmlns:xlink="http://www.w3.org/1999/xlink" viewBox="0 0 48 48">
  <defs>
    <linearGradient id="linear-gradient" x1="3.871" y1="5.129" x2="43.871" y2="45.129" gradientTransform="translate(-5.993 -1.853) scale(0.996 0.934)" gradientUnits="userSpaceOnUse">
      <stop offset="0" stop-color="#fff"/>
      <stop offset="0.221" stop-color="#f8f8f8"/>
      <stop offset="0.541" stop-color="#e5e5e5"/>
      <stop offset="0.92" stop-color="#c6c6c6"/>
      <stop offset="1" stop-color="#bebebe"/>
    </linearGradient>
    <linearGradient id="linear-gradient-2" x1="27.721" y1="18.951" x2="43.28" y2="34.508" gradientTransform="translate(-11.98 -7.342) scale(0.585 0.579)" gradientUnits="userSpaceOnUse">
      <stop offset="0" stop-color="#a5cfdc"/>
      <stop offset="0.128" stop-color="#9cc9d7"/>
      <stop offset="0.335" stop-color="#84bacb"/>
      <stop offset="0.596" stop-color="#5ea2b7"/>
      <stop offset="0.896" stop-color="#28809b"/>
      <stop offset="1" stop-color="#147391"/>
    </linearGradient>
    <linearGradient id="linear-gradient-3" x1="46.071" y1="18.659" x2="56.017" y2="28.605" gradientTransform="matrix(0.585, 0, 0, -0.579, -11.98, 20.034)" gradientUnits="userSpaceOnUse">
      <stop offset="0" stop-color="#f2f2f2"/>
      <stop offset="1" stop-color="#999"/>
    </linearGradient>
    <linearGradient id="linear-gradient-4" x1="30.898" y1="22.136" x2="40.093" y2="31.33" gradientTransform="translate(-11.98 -7.342) scale(0.585 0.579)" gradientUnits="userSpaceOnUse">
      <stop offset="0" stop-color="#fff"/>
      <stop offset="1" stop-color="#dcdcdc"/>
    </linearGradient>
    <linearGradient id="linear-gradient-5" x1="8.967" y1="33.737" x2="18.13" y2="27.427" gradientTransform="matrix(0.923, 0, 0, -1.027, -3.944, 47.026)" xlink:href="#linear-gradient-2"/>
    <linearGradient id="linear-gradient-6" x1="3.686" y1="5.314" x2="43.686" y2="45.314" xlink:href="#linear-gradient"/>
    <linearGradient id="linear-gradient-7" x1="42.727" y1="2.756" x2="68.878" y2="-21.463" gradientTransform="matrix(1, 0, 0, -1, -21, 26)" gradientUnits="userSpaceOnUse">
      <stop offset="0" stop-color="#73b4c8"/>
      <stop offset="0.575" stop-color="#6aaec3"/>
      <stop offset="0.764" stop-color="#529eb5"/>
      <stop offset="1" stop-color="#2c839f"/>
      <stop offset="1" stop-color="#147391"/>
    </linearGradient>
  </defs>
  <g id="g965">
    <path id="path1009" d="M34.838.482H.482V42.518h1.28c0-.005,0-.01,0-.014a.858.858,0,0,1,.1-.207c.077-.116.13-.092.207-.207.3-.442-.138.034.311-.414.046-.062.049-.153.1-.207s.153-.051.207-.106c.235-.235-.062-.227.311-.414.062-.031.147.031.209,0,.373-.186.075-.179.31-.414.11-.109.305-.1.414-.207.025-.024-.024-.079,0-.1s.073.015.1,0c.087-.044.122-.166.209-.209.031-.016.079.024.1,0s-.024-.079,0-.1.08.025.1,0-.015-.072,0-.1.088-.058.1-.1c.021-.066-.022-.141,0-.207.015-.046.081-.06.1-.1s-.011-.071,0-.1a.644.644,0,0,1,.207-.311c.111-.055.138.1.207-.1.022-.066-.022-.141,0-.207.04-.119.247-.144.311-.207.024-.024-.016-.073,0-.1s.071-.069.105-.1a.73.73,0,0,1,.1-.1.87.87,0,0,1,.207-.1c.1-.035.148.073.207-.1.022-.065-.022-.143,0-.209.015-.046.081-.059.1-.1.1-.2-.234-.041.1-.311.12-.1.295-.11.416-.207.06-.048.049-.152.1-.207s.145-.057.207-.1.48-.463.518-.52c.06-.091-.151-.273.1-.31.055-.055.143-.061.207-.1.175-.116.166-.248.416-.31a.843.843,0,0,1,.207,0c.035,0,.073.015.1,0,.1-.051.312-.365.414-.416.031-.016.079.024.1,0,.054-.055-.1-.218.105-.207.829-.553-.381.38.311-.311.024-.024.069,0,.1,0l.1-.1c.042-.064.06-.142.1-.207.027-.04.076-.062.1-.1.137-.206.061-.267.31-.416.094-.056.225-.038.313-.1.061-.046.049-.152.1-.207a.743.743,0,0,1,.207-.1l.207-.207a2.733,2.733,0,0,0,.207-.313c.04-.066.039-.164.1-.207.155-.1.364-.1.519-.207.065-.043.049-.152.1-.207s.145-.057.207-.1a2.129,2.129,0,0,0,.207-.207,2.149,2.149,0,0,0,.207-.209c.046-.062.063-.143.105-.207.159-.238.082.065.207-.311.014-.04-.016-.294,0-.31s.079.024.1,0-.021-.27,0-.311c.044-.087.153-.128.207-.209.295-.442-.138.034.311-.414.046-.062.057-.145.1-.207a2.129,2.129,0,0,1,.207-.207c.035-.035.087-.058.106-.1.45-1.126-.2-.006.31-.519.055-.055.049-.153.1-.207a4.707,4.707,0,0,1,.414-.311,5.6,5.6,0,0,0,.416-.416c.031-.062-.022-.141,0-.207.015-.046.081-.06.1-.1s-.024-.079,0-.1.073.016.1,0,.069-.069.1-.1.06-.082.1-.1.072.016.1,0,.4-.394.414-.414c.153-.3-.24.135.1-.209.015-.031-.025-.079,0-.1s.074.015.105,0c.23-.115.032-.064.1-.207.022-.044.081-.06.1-.1.031-.062-.049-.158,0-.207.025-.024.073.016.1,0s.06-.082.1-.1.29.021.311,0c.138-.139-.173-.1.1-.1.025-.024-.024-.079,0-.1.049-.049.146.03.207,0,.044-.022.06-.084.1-.106s.291.021.312,0-.024-.079,0-.1.073.015.1,0c.087-.044.12-.164.207-.208.062-.03.145.031.207,0,.044-.021.063-.076.1-.1a2.054,2.054,0,0,1,.519-.207.452.452,0,0,1,.1,0H19.6c.034,0,.079.024.1,0,.049-.049-.031-.145,0-.207.022-.044.088-.057.1-.1.022-.065-.031-.145,0-.207.043-.087.148-.132.209-.209a2.7,2.7,0,0,0,.207-.31c.116-.2.181-.44.31-.621.086-.12.233-.188.311-.313.1-.158.124-.351.207-.517.056-.112.16-.2.209-.311.056-.131.012-.306.1-.416s.294-.11.414-.207a2.3,2.3,0,0,0,.207-.518c.022-.043.082-.059.1-.1s-.011-.071,0-.1c.024-.073.079-.135.1-.209s-.048-.158,0-.207c.025-.024.082.025.106,0s-.015-.072,0-.1.082-.06.1-.1-.024-.079,0-.1c.215-.215-.008.328.208-.1.03-.061-.031-.145,0-.207.021-.043.088-.057.1-.1.15-.449-.2.037.1-.416.054-.082.163-.12.207-.207.015-.031-.025-.079,0-.1s.079.025.1,0c.049-.049-.049-.158,0-.207s.259.052.311,0c.214-.214-.326.009.105-.207.062-.031.145.031.207,0,.044-.022.06-.081.1-.1.143-.072.092.123.207-.106.031-.062-.049-.158,0-.207.024-.024.079.025.1,0,.049-.049-.031-.145,0-.207.216-.431-.007.111.207-.1.025-.025-.024-.079,0-.1s.079.025.1,0-.016-.072,0-.1c.043-.088.176-.115.207-.207.016-.048-.023-.37,0-.416.114-.23.066-.032.209-.1.018-.009.306-.3.31-.31.022-.066-.016-.14,0-.208s.079-.133.1-.207c.011-.032-.016-.072,0-.1.216-.432-.008.109.207-.106.024-.024-.016-.072,0-.1s.088-.057.1-.1c.022-.065-.031-.145,0-.207.016-.031.079.025.1,0s-.016-.072,0-.1c.237-.475-.041.44.209-.311.022-.065-.031-.145,0-.207.022-.043.082-.06.1-.1s-.015-.075,0-.106c.216-.431-.007.111.207-.1.025-.025-.015-.073,0-.1.063-.124.249-.186.311-.31.071-.143-.126-.093.1-.207.031-.016.073.015.1,0s.06-.082.1-.1.079.025.1,0-.015-.072,0-.1c.044-.088.165-.122.209-.209.031-.062-.049-.158,0-.207s.158.049.207,0,.049-.153.1-.207c.024-.025.072.015.1,0s.069-.069.1-.1a.771.771,0,0,0,.1-.1.913.913,0,0,0,.1-.207c.063-.192-.159-.049.1-.311.025-.024.069,0,.1,0a4.717,4.717,0,0,0,.519,0c.044-.022.06-.084.1-.105s.366.015.414,0,.057-.089.1-.1c.662-.221-.246.221.416,0,.047-.015.06-.082.1-.1s.069,0,.1,0a.684.684,0,0,0,.207,0c.047-.016.06-.082.1-.1s.072.015.1,0c.432-.216-.111.008.1-.207.024-.024.073.015.1,0s.06-.082.1-.1.073.016.1,0,.071-.069.106-.1.082-.06.1-.1-.015-.072,0-.1.082-.06.1-.1-.016-.072,0-.1c.237-.475-.043.438.207-.313a4.458,4.458,0,0,0,0-.517c0-.035-.024-.079,0-.1s.088.031.1,0a4.97,4.97,0,0,0,0-.519V9.119c0-.024-.011-.393,0-.416.022-.044.082-.06.1-.1s-.015-.073,0-.1.082-.06.1-.1-.016-.073,0-.1c.062-.124.248-.186.31-.31.016-.031-.024-.08,0-.1s.075.015.106,0,.059-.082.1-.1.079.025.1,0c.048-.048-.031-.147,0-.208.152-.306.1.161.1-.311.016-.046.082-.06.1-.1s-.011-.07,0-.1c.024-.073.079-.134.1-.207.011-.033-.015-.073,0-.1s.082-.059.1-.1-.025-.079,0-.1.072.016.1,0a3.271,3.271,0,0,0,.311-.312c.031-.062-.049-.158,0-.207s.154-.049.209-.1c.024-.024-.016-.072,0-.1.114-.229.064-.032.207-.1.043-.022.069-.069.1-.1l.1-.1c0-.034-.019-.075,0-.1a1.46,1.46,0,0,1,.207-.209c.034-.035.081-.06.1-.1s-.015-.072,0-.1.082-.06.1-.1a4.681,4.681,0,0,0,0-.517V3.209a4.1,4.1,0,0,1,0-.52.87.87,0,0,1,.1-.207c.027-.04.088-.057.1-.1.044-.131-.034-.28,0-.414.019-.075.087-.132.1-.207s-.022-.144,0-.209c.016-.047.082-.06.1-.1.034-.069-.093-.322.1-.31.055-.082.164-.12.207-.207.016-.031-.011-.071,0-.1.025-.073.085-.132.1-.207A.408.408,0,0,0,34.838.482Z" stroke="#464646" stroke-miterlimit="10" stroke-width="0.965" fill="url(#linear-gradient)"/>
    <path id="path28" d="M14.149,8.5a.234.234,0,0,0-.032.313l.864,1.181L13.6,10.5a.236.236,0,0,0-.151.277l.343,1.418-1.473-.058a.234.234,0,0,0-.246.2l-.234,1.439-1.338-.6a.241.241,0,0,0-.3.091L9.426,14.5l-1-1.071a.24.24,0,0,0-.316-.031l-1.193.855L6.4,12.89a.239.239,0,0,0-.281-.148l-1.432.337.055-1.456a.241.241,0,0,0-.2-.244l-1.455-.231L3.7,9.828a.236.236,0,0,0-.093-.3L2.356,8.762l1.08-.991a.234.234,0,0,0,.031-.313L2.6,6.278l1.38-.507a.236.236,0,0,0,.15-.278L3.793,4.075l1.472.058a.238.238,0,0,0,.246-.2l.234-1.439L7.082,3.1a.241.241,0,0,0,.3-.091l.772-1.24,1,1.068a.241.241,0,0,0,.316.031l1.193-.854.512,1.366a.238.238,0,0,0,.281.148L12.9,3.19,12.84,4.647a.238.238,0,0,0,.2.243l1.455.232-.614,1.321a.236.236,0,0,0,.093.3l1.253.764Z" fill="url(#linear-gradient-2)"/>
    <path id="path30" d="M9.676,14.656a.3.3,0,0,1-.221.137H9.426a.294.294,0,0,1-.214-.093l-.971-1.035-1.154.827a.3.3,0,0,1-.256.042.29.29,0,0,1-.19-.173l-.482-1.285v4.55L8.617,15.8a.3.3,0,0,1,.351,0l2.458,1.824V13.91l-1-.455Z" fill="url(#linear-gradient-3)"/>
    <g id="g40">
      <path id="path36" d="M10.247,11.613a3.817,3.817,0,0,1-4.97-2.034A3.75,3.75,0,0,1,7.333,4.66,3.818,3.818,0,0,1,12.3,6.7h0A3.749,3.749,0,0,1,10.247,11.613Z" fill="url(#linear-gradient-4)"/>
      <path id="path38" d="M8.8,12.188a4.087,4.087,0,1,1,1.562-.309A4.139,4.139,0,0,1,8.8,12.188ZM8.787,4.66a3.475,3.475,0,1,0,.038,6.949,3.552,3.552,0,0,0,1.313-.26h0a3.462,3.462,0,0,0,1.916-4.533A3.512,3.512,0,0,0,8.787,4.66Z" fill="#6f6f6f"/>
    </g>
    <path id="polygon42" d="M11.133,6.4l-2.34,4.343L6.452,8.714l.585-.289L8.5,9.293l2.048-3.184Z" fill="#464646"/>
    <path id="rect896" d="M19.745,3.583H28.63a.038.038,0,0,1,.037.037v.823a.037.037,0,0,1-.037.036H19.745a.037.037,0,0,1-.037-.036V3.62A.038.038,0,0,1,19.745,3.583Z" fill="#464646"/>
    <path id="rect898" d="M17.194,6.271H31.452a.038.038,0,0,1,.038.037v.821a.038.038,0,0,1-.038.038H17.194a.038.038,0,0,1-.038-.038V6.308A.038.038,0,0,1,17.194,6.271Z" fill="#464646"/>
    <path id="rect900" d="M11.677,20.6h10.3a.035.035,0,0,1,.031.038v.82a.035.035,0,0,1-.031.038h-10.3a.035.035,0,0,1-.031-.038v-.82A.035.035,0,0,1,11.677,20.6Z" fill="#464646"/>
    <path id="rect902" d="M4.493,25.146H17.6c.008,0,.014.012.014.027v.841c0,.015-.006.027-.014.027H4.493c-.008,0-.014-.012-.014-.027v-.841C4.479,25.158,4.485,25.146,4.493,25.146Z" fill="#464646"/>
    <path id="rect902-1" d="M4.486,32.475h6.436s.006.013.006.028v.84c0,.016,0,.028-.006.028H4.486s-.007-.012-.007-.028V32.5C4.479,32.488,4.482,32.475,4.486,32.475Z" fill="#464646"/>
    <path id="rect902-11" d="M4.489,28.729h9.592c.005,0,.01.012.01.028v.84c0,.015,0,.028-.01.028H4.489s-.01-.013-.01-.028v-.84C4.479,28.741,4.484,28.729,4.489,28.729Z" fill="#464646"/>
    <path id="path1062" d="M6.091,15.4c0-1.375.011-2.489.024-2.474s.121.318.24.673a6.434,6.434,0,0,0,.273.727c.134.188.388.084.987-.4l.6-.483.56.644c.533.615.675.713.849.591a6.072,6.072,0,0,0,.465-.751c.216-.385.405-.7.42-.706a4.368,4.368,0,0,1,.507.236l.478.243v2.067c0,1.136-.012,2.066-.028,2.066s-.592-.465-1.282-1.033A9.582,9.582,0,0,0,8.8,15.762a5.547,5.547,0,0,0-1,.721L6.512,17.551l-.421.347Z" fill="url(#linear-gradient-5)"/>
    <path id="path32" d="M5.574,13.171V18.2a.293.293,0,0,0,.468.232L8.793,16.4l2.75,2.041a.29.29,0,0,0,.175.058.294.294,0,0,0,.131-.031.289.289,0,0,0,.162-.259v-4.2c-.012.009.013-.008,0,0a.208.208,0,0,0,.117-.181l.227-1.394,1.426.054a.326.326,0,0,0,.238-.106.288.288,0,0,0,.058-.251l-.331-1.372,1.337-.491a.288.288,0,0,0,.172-.372.255.255,0,0,0-.037-.069l-.836-1.143,1.046-.961a.287.287,0,0,0,.016-.409.325.325,0,0,0-.061-.05l-1.214-.739.592-1.281a.288.288,0,0,0-.146-.384.308.308,0,0,0-.073-.022l-1.409-.224L13.187,3.2a.29.29,0,0,0-.281-.3.262.262,0,0,0-.079.008l-1.388.328-.495-1.324a.293.293,0,0,0-.376-.171.277.277,0,0,0-.07.037l-1.155.828L8.372,1.569a.294.294,0,0,0-.413-.015.319.319,0,0,0-.05.06l-.747,1.2L5.867,2.228a.293.293,0,0,0-.387.144.27.27,0,0,0-.023.073L5.23,3.839,3.8,3.785a.275.275,0,0,0-.237.106.289.289,0,0,0-.059.251l.331,1.374L2.5,6.006a.288.288,0,0,0-.173.372.28.28,0,0,0,.038.07L3.2,7.591,2.157,8.55a.288.288,0,0,0-.015.409.267.267,0,0,0,.061.05l1.213.739L2.824,11.03a.287.287,0,0,0,.008.257.293.293,0,0,0,.212.15l1.408.224L4.4,13.072a.29.29,0,0,0,.284.3.277.277,0,0,0,.076-.008m6.667,4.265L8.968,15.8a.3.3,0,0,0-.351,0L6.159,17.626v-4.55l.482,1.284a.294.294,0,0,0,.19.174.3.3,0,0,0,.256-.042l1.154-.827L9.212,14.7a.3.3,0,0,0,.214.093h.029a.3.3,0,0,0,.221-.137l.747-1.2,1,.456ZM13.95,8.287a.524.524,0,0,0-.07.695l.638.872-1.018.374a.525.525,0,0,0-.334.616l.252,1.048-1.08-.041a.519.519,0,0,0-.552.443l-.176,1.063-.985-.445a.536.536,0,0,0-.676.2l-.571.913-.738-.787a.531.531,0,0,0-.7-.071l-.881.631L6.678,12.8a.528.528,0,0,0-.624-.332L5,12.713l.04-1.077a.532.532,0,0,0-.448-.539l-1.075-.17.454-.977a.526.526,0,0,0-.206-.67l-.925-.564.8-.731a.524.524,0,0,0,.07-.7l-.639-.872,1.019-.374a.526.526,0,0,0,.334-.616L4.166,4.38l1.088.041A.526.526,0,0,0,5.8,3.978l.175-1.063.988.448a.536.536,0,0,0,.675-.2l.57-.916.741.789a.537.537,0,0,0,.7.069l.881-.631.378,1.007a.534.534,0,0,0,.624.332l1.057-.251L12.55,4.637A.53.53,0,0,0,13,5.175l1.075.174-.453.977a.524.524,0,0,0,.2.669l.926.564Z" fill="#474647"/>
    <g id="g1083">
      <path id="rect25" d="M37.838,4.482a.436.436,0,0,1,0,.135c-.019.075-.08.134-.1.207-.011.033.016.073,0,.1-.044.087-.153.125-.207.207-.2-.012-.069.241-.1.31-.022.044-.089.057-.1.1-.022.065.017.142,0,.209s-.087.132-.1.207c-.034.134.043.283,0,.414-.016.046-.077.063-.1.1a.913.913,0,0,0-.1.207,4.29,4.29,0,0,0,0,.52V8.35a4.681,4.681,0,0,1,0,.517c-.021.044-.081.06-.1.1s.015.072,0,.1-.069.069-.1.1a1.514,1.514,0,0,0-.207.209c-.019.028,0,.069,0,.1l-.1.1c-.035.034-.06.081-.1.1-.143.072-.092-.125-.207.1-.015.031.025.079,0,.1-.054.055-.154.049-.209.1s.031.145,0,.207a3.261,3.261,0,0,1-.31.312c-.031.016-.079-.024-.1,0s.016.073,0,.1-.081.06-.1.1.011.071,0,.1c-.025.073-.079.134-.1.207-.011.033.016.073,0,.1s-.088.058-.1.1c0,.472.049,0-.1.311-.031.061.049.16,0,.209-.024.024-.072-.016-.1,0s-.06.081-.1.1-.081-.024-.105,0,.015.073,0,.1c-.062.124-.249.186-.311.31-.015.031.016.073,0,.1s-.081.059-.1.1.015.073,0,.1-.082.059-.1.1c-.011.023,0,.392,0,.416v.725c0,.08.017.485,0,.519s-.079-.024-.1,0,0,.069,0,.1a4.458,4.458,0,0,1,0,.517c-.251.751.03-.162-.207.313-.016.031.015.072,0,.1s-.082.06-.1.1.016.073,0,.1-.069.069-.1.1-.062.082-.106.1-.072-.015-.1,0-.06.082-.1.1-.079-.024-.1,0c-.215.215.328-.009-.1.207-.031.015-.073-.015-.1,0s-.058.088-.1.1a.684.684,0,0,1-.207,0c-.035,0-.073-.016-.1,0s-.057.088-.1.1c-.662.221.246-.221-.416,0-.046.016-.057.088-.1.1s-.367-.024-.414,0-.059.083-.1.105a4.736,4.736,0,0,1-.52,0c-.034,0-.079-.024-.1,0-.262.262-.04.119-.1.311a.87.87,0,0,1-.1.207.724.724,0,0,1-.1.1c-.034.035-.06.082-.1.1s-.079-.025-.1,0c-.054.054-.049.152-.1.207s-.158-.049-.207,0,.031.145,0,.207c-.044.087-.166.121-.209.209-.016.031.024.079,0,.1s-.073-.015-.1,0-.06.082-.1.1-.073-.016-.1,0c-.229.114-.032.064-.1.207-.063.124-.249.186-.311.31-.015.031.025.079,0,.1-.214.214.009-.328-.207.1-.015.031.016.075,0,.106s-.082.06-.1.1c-.031.062.021.142,0,.207-.251.751.028-.164-.209.311-.016.031.024.079,0,.1s-.088-.031-.1,0c-.031.062.022.142,0,.207-.015.047-.082.06-.1.1s.024.079,0,.1c-.215.215.008-.326-.207.106-.016.031.01.071,0,.1-.025.074-.085.133-.1.207s.022.142,0,.208c0,.012-.293.3-.311.31-.143.072-.094-.126-.209.1-.023.046.016.368,0,.416-.03.092-.163.119-.207.207-.015.031.025.079,0,.1s-.079-.024-.1,0,.024.079,0,.1c-.215.214.009-.328-.207.1-.031.062.049.158,0,.207-.025.025-.079-.024-.1,0-.049.049.031.145,0,.207-.114.229-.064.034-.207.106-.043.022-.059.081-.1.1-.062.031-.145-.031-.207,0-.432.216.109-.007-.106.207-.052.052-.258-.052-.31,0s.049.158,0,.207c-.025.025-.079-.024-.1,0s.016.073,0,.1c-.043.087-.153.125-.207.207-.3.453.046-.033-.1.416-.016.046-.082.06-.1.1-.031.062.031.146,0,.207-.216.432.008-.111-.207.1-.024.024.016.073,0,.1s-.081.06-.1.1.024.079,0,.1-.081-.024-.106,0c-.049.049.022.142,0,.207s-.079.136-.1.209c-.011.033.015.073,0,.1s-.082.06-.1.1a2.3,2.3,0,0,1-.207.518c-.121.1-.315.088-.414.207s-.047.285-.1.416c-.05.115-.154.2-.209.311-.084.166-.109.359-.207.517-.078.125-.226.193-.311.313-.13.181-.194.426-.311.621a2.7,2.7,0,0,1-.207.31c-.061.077-.165.122-.209.209-.03.062.022.142,0,.207-.015.047-.081.06-.1.1-.031.062.049.158,0,.207-.025.024-.069,0-.1,0h-.621a.444.444,0,0,0-.1,0,2.075,2.075,0,0,0-.52.207c-.04.027-.06.082-.1.1-.062.031-.145-.03-.207,0-.088.044-.12.164-.207.208-.031.015-.079-.025-.1,0s.025.079,0,.1-.271-.021-.312,0-.06.084-.1.106c-.062.03-.158-.049-.207,0-.024.024.025.079,0,.1-.276,0,.035-.035-.1.1-.022.021-.27-.021-.311,0s-.06.081-.1.1-.08-.024-.1,0c-.049.049.031.145,0,.207-.022.044-.082.06-.1.1-.072.143.125.092-.1.207-.031.015-.081-.025-.105,0s.015.072,0,.1c-.344.344.049-.1-.1.209-.01.02-.394.4-.414.414s-.073-.015-.1,0-.069.069-.1.1-.06.081-.1.1-.079-.024-.1,0,.015.073,0,.1-.088.057-.1.1c-.021.066.031.145,0,.207a5.241,5.241,0,0,1-.416.416,4.707,4.707,0,0,0-.414.311c-.054.055-.049.152-.1.207-.513.513.14-.607-.311.519-.018.046-.071.069-.1.1a2.023,2.023,0,0,0-.207.207c-.047.062-.057.145-.1.207-.448.448-.016-.028-.31.414-.055.081-.164.122-.207.209-.021.041.021.289,0,.311s-.079-.025-.1,0,.014.27,0,.31c-.125.376-.049.073-.207.311-.043.064-.059.145-.105.207a2.149,2.149,0,0,1-.207.209,2.247,2.247,0,0,1-.207.207c-.062.046-.153.049-.207.1s-.04.164-.1.207c-.155.1-.365.1-.52.207-.064.043-.063.141-.1.207a2.733,2.733,0,0,1-.207.313l-.207.207a.743.743,0,0,0-.207.1c-.055.055-.042.161-.1.207-.087.066-.218.048-.312.1-.249.149-.173.21-.311.416-.027.041-.076.063-.1.1-.043.065-.061.143-.1.207l-.1.1c-.035,0-.079-.024-.1,0-.691.691.519-.242-.31.311-.206-.011-.051.152-.106.207-.024.024-.072-.016-.1,0-.1.051-.312.365-.414.416-.031.015-.069,0-.1,0a.843.843,0,0,0-.207,0c-.251.062-.241.194-.416.31-.064.043-.152.049-.207.1-.255.037-.043.219-.1.31-.039.057-.462.477-.518.52s-.152.049-.207.1-.043.159-.1.207c-.12.1-.295.111-.416.207-.337.27-.006.116-.1.311-.022.044-.088.057-.1.1-.021.066.022.144,0,.209-.059.177-.1.069-.207.1a.909.909,0,0,0-.207.1.779.779,0,0,0-.1.1c-.035.034-.084.06-.106.1s.025.08,0,.1c-.063.063-.271.088-.31.207-.022.066.022.141,0,.207-.069.206-.1.05-.207.1a.644.644,0,0,0-.207.311c-.011.033.015.073,0,.1s-.088.057-.1.1c-.022.066.022.142,0,.207-.015.046-.081.06-.1.1s.024.079,0,.1-.079-.024-.1,0,.025.079,0,.1-.072-.016-.1,0c-.088.043-.122.165-.209.209-.031.015-.079-.025-.1,0s.025.079,0,.1c-.109.109-.3.1-.414.207-.235.235.062.228-.31.414-.062.031-.148-.031-.209,0-.373.187-.076.179-.311.414-.055.055-.152.051-.207.106s-.057.145-.1.207c-.448.448-.015-.028-.31.414-.077.115-.13.091-.207.207a.9.9,0,0,0-.106.207s0,.009,0,.014h33.59V4.482Z" stroke="#464646" stroke-miterlimit="10" stroke-width="0.965" fill="url(#linear-gradient-6)"/>
      <path id="path1072" d="M23.608,41.417l.282-.193c0-.019-.011-.041,0-.056.059-.089.161-.141.225-.226a.736.736,0,0,0,.057-.112l.056-.113a1.765,1.765,0,0,0,.113-.226c.006-.017-.009-.039,0-.056s.044-.033.056-.056c.027-.053.03-.116.056-.169s.1-.063.113-.113-.017-.079,0-.113c.009-.017.043.014.056,0s0-.075,0-.056-.008.256,0,.282c.059.176.038-.019.113.056.013.013-.013.043,0,.056s.043-.013.057,0-.017.048,0,.057c.033.017.075,0,.112,0h.789a.457.457,0,0,0,.169,0c.05-.02.07-.081.113-.113s.078-.033.113-.056c.111-.075.112-.168.112-.282,0-.019.014-.043,0-.056-.037-.038-.107.039-.112.056-.012.036.009.076,0,.113s-.046.072-.057.112a2.208,2.208,0,0,0,0,.282c0,.019-.013.043,0,.056s.043-.013.057,0-.014.044,0,.057.037,0,.056,0h.226c.013-.014,0-.038,0-.057v.339a.42.42,0,0,0,0,.112.449.449,0,0,0,.169.226c.033.025.077.033.112.056s.033.045.057.056.039-.008.056,0,.033.045.056.057.038,0,.057,0h.958a1.408,1.408,0,0,0,.225,0c.083-.014.146-.086.226-.113.017-.006.043.013.056,0s-.019-.056,0-.056-.019.056,0,.056.033-.044.056-.056.04.008.057,0c.1-.052.033-.043.056-.113.013-.04.043-.073.056-.113.006-.018-.013-.043,0-.056s.044.013.057,0-.013-.043,0-.056a.043.043,0,0,1,.056,0c.013.013-.013.043,0,.056s.038,0,.057,0h2.028c.019,0,.043.013.057,0s0-.038,0-.056.008-.04,0-.057-.038-.037-.057-.056-.029-.057-.056-.057,0,.038,0,.057-.013.043,0,.056.038,0,.056,0c.144,0,.075-.066.169-.113.166-.082-.074.131.113-.056" fill="none" stroke="#464646" stroke-width="0.448"/>
      <path id="rect902-1-8" d="M14.577,35.927H34.826c.012,0,.021.012.021.028v.84c0,.015-.009.028-.021.028H14.577c-.012,0-.021-.013-.021-.028v-.84A.025.025,0,0,1,14.577,35.927Z" fill="#464646"/>
      <path id="rect902-11-6" d="M17,32.729H35.335c.01,0,.019.013.019.028v.84c0,.016-.009.028-.019.028H17c-.011,0-.019-.012-.019-.028v-.84C16.981,32.742,16.99,32.729,17,32.729Z" fill="#464646"/>
      <path id="rect902-3" d="M20.646,29.1h14.61c.008,0,.015.013.015.028v.84c0,.016-.007.028-.015.028H20.646c-.009,0-.015-.012-.015-.028v-.84C20.631,29.117,20.637,29.1,20.646,29.1Z" fill="#464646"/>
      <path id="rect900-5" d="M25.246,24.1h2.933c.005,0,.009.02.009.04v.82c0,.02,0,.04-.009.04H25.246s-.009-.02-.009-.04v-.82C25.237,24.124,25.241,24.1,25.246,24.1Z" fill="#464646"/>
    </g>
    <g id="g930">
      <path id="rect25-5-2" d="M25.5,26.352h22V47.5h-22Z" stroke="#464646" stroke-miterlimit="10" stroke-width="1.182" fill="url(#linear-gradient-7)"/>
      <path id="path1032-8" d="M38.03,34.17a12.612,12.612,0,0,0-4.186.691,8.646,8.646,0,0,0-1.685.8,5.758,5.758,0,0,0-1.275,1.06,2.46,2.46,0,0,0,.663,1.225,4.758,4.758,0,0,0,1.393.976,8.5,8.5,0,0,0,1.97.648A12,12,0,0,0,37.2,39.8h.278a12.691,12.691,0,0,0,1.358-.088h.027l.1-.01,1.08-.271.1-.03h0a8.888,8.888,0,0,0,4.793-2.905A7.544,7.544,0,0,0,42.033,34.8a12.7,12.7,0,0,0-4-.63Z" fill="#ebebeb"/>
      <path id="path954-2-5" d="M40.37,36.238A2.867,2.867,0,0,1,37.4,38.991h0a2.76,2.76,0,1,1,2.969-2.753Z" fill="#177491"/>
      <path id="path879-6-4" d="M37.05,32.619c-4.026,0-7.43,1.749-7.965,4.086H29.08v.021h0c.035,1.883,2.987,3.4,6.623,3.4a11.775,11.775,0,0,0,3.163-.421,12.576,12.576,0,0,1-1.56.1c-3.409,0-6.093-1.323-6.423-3.083v0c1.378-1.567,4.136-2.553,7.146-2.556,2.861,0,5.5.894,6.943,2.342C44.294,34.261,40.954,32.62,37.05,32.619Z" fill="#464646"/>
      <path id="path864" d="M38.15,36.356a.855.855,0,0,1-.855.855h0a.855.855,0,0,1-.855-.855h0A.854.854,0,0,1,37.3,35.5h0a.854.854,0,0,1,.855.854Z" fill="#464646" stroke="#464646" stroke-linecap="round" stroke-width="1.157"/>
      <path id="path956-0-5" d="M36.8,35.314a.847.847,0,1,1-.846-.846A.846.846,0,0,1,36.8,35.314Z" fill="#fff"/>
    </g>
  </g>
</svg>
